<svg width="314" height="40" viewBox="0 0 314 40" fill="none" xmlns="http://www.w3.org/2000/svg">
<path d="M7.84 7.08V14H6.93V8.84L4.63 14H3.99L1.68 8.83V14H0.77V7.08H1.75L4.31 12.8L6.87 7.08H7.84ZM13.9233 12.45H10.8833L10.3233 14H9.36328L11.8833 7.07H12.9333L15.4433 14H14.4833L13.9233 12.45ZM13.6633 11.71L12.4033 8.19L11.1433 11.71H13.6633ZM19.1716 14.07C18.7116 14.07 18.2982 13.99 17.9316 13.83C17.5716 13.6633 17.2882 13.4367 17.0816 13.15C16.8749 12.8567 16.7682 12.52 16.7616 12.14H17.7316C17.7649 12.4667 17.8982 12.7433 18.1316 12.97C18.3716 13.19 18.7182 13.3 19.1716 13.3C19.6049 13.3 19.9449 13.1933 20.1916 12.98C20.4449 12.76 20.5716 12.48 20.5716 12.14C20.5716 11.8733 20.4982 11.6567 20.3516 11.49C20.2049 11.3233 20.0216 11.1967 19.8016 11.11C19.5816 11.0233 19.2849 10.93 18.9116 10.83C18.4516 10.71 18.0816 10.59 17.8016 10.47C17.5282 10.35 17.2916 10.1633 17.0916 9.91C16.8982 9.65 16.8016 9.30333 16.8016 8.87C16.8016 8.49 16.8982 8.15333 17.0916 7.86C17.2849 7.56667 17.5549 7.34 17.9016 7.18C18.2549 7.02 18.6582 6.94 19.1116 6.94C19.7649 6.94 20.2982 7.10333 20.7116 7.43C21.1316 7.75667 21.3682 8.19 21.4216 8.73H20.4216C20.3882 8.46333 20.2482 8.23 20.0016 8.03C19.7549 7.82333 19.4282 7.72 19.0216 7.72C18.6416 7.72 18.3316 7.82 18.0916 8.02C17.8516 8.21333 17.7316 8.48667 17.7316 8.84C17.7316 9.09333 17.8016 9.3 17.9416 9.46C18.0882 9.62 18.2649 9.74333 18.4716 9.83C18.6849 9.91 18.9816 10.0033 19.3616 10.11C19.8216 10.2367 20.1916 10.3633 20.4716 10.49C20.7516 10.61 20.9916 10.8 21.1916 11.06C21.3916 11.3133 21.4916 11.66 21.4916 12.1C21.4916 12.44 21.4016 12.76 21.2216 13.06C21.0416 13.36 20.7749 13.6033 20.4216 13.79C20.0682 13.9767 19.6516 14.07 19.1716 14.07ZM27.5407 7.03V7.77H25.6407V14H24.7307V7.77H22.8207V7.03H27.5407ZM29.9909 7.77V10.1H32.5309V10.85H29.9909V13.25H32.8309V14H29.0809V7.02H32.8309V7.77H29.9909ZM38.2978 14L36.6378 11.15H35.5378V14H34.6278V7.03H36.8778C37.4045 7.03 37.8478 7.12 38.2078 7.3C38.5745 7.48 38.8478 7.72333 39.0278 8.03C39.2078 8.33667 39.2978 8.68667 39.2978 9.08C39.2978 9.56 39.1578 9.98333 38.8778 10.35C38.6045 10.7167 38.1911 10.96 37.6378 11.08L39.3878 14H38.2978ZM35.5378 10.42H36.8778C37.3711 10.42 37.7411 10.3 37.9878 10.06C38.2345 9.81333 38.3578 9.48667 38.3578 9.08C38.3578 8.66667 38.2345 8.34667 37.9878 8.12C37.7478 7.89333 37.3778 7.78 36.8778 7.78H35.5378V10.42ZM45.4218 7.03V7.77H43.5218V14H42.6118V7.77H40.7018V7.03H45.4218ZM51.082 12.45H48.042L47.482 14H46.522L49.042 7.07H50.092L52.602 14H51.642L51.082 12.45ZM50.822 11.71L49.562 8.19L48.302 11.71H50.822ZM59.4002 9.05C59.2069 8.64333 58.9269 8.33 58.5602 8.11C58.1936 7.88333 57.7669 7.77 57.2802 7.77C56.7936 7.77 56.3536 7.88333 55.9602 8.11C55.5736 8.33 55.2669 8.65 55.0402 9.07C54.8202 9.48333 54.7102 9.96333 54.7102 10.51C54.7102 11.0567 54.8202 11.5367 55.0402 11.95C55.2669 12.3633 55.5736 12.6833 55.9602 12.91C56.3536 13.13 56.7936 13.24 57.2802 13.24C57.9602 13.24 58.5202 13.0367 58.9602 12.63C59.4002 12.2233 59.6569 11.6733 59.7302 10.98H56.9502V10.24H60.7002V10.94C60.6469 11.5133 60.4669 12.04 60.1602 12.52C59.8536 12.9933 59.4502 13.37 58.9502 13.65C58.4502 13.9233 57.8936 14.06 57.2802 14.06C56.6336 14.06 56.0436 13.91 55.5102 13.61C54.9769 13.3033 54.5536 12.88 54.2402 12.34C53.9336 11.8 53.7802 11.19 53.7802 10.51C53.7802 9.83 53.9336 9.22 54.2402 8.68C54.5536 8.13333 54.9769 7.71 55.5102 7.41C56.0436 7.10333 56.6336 6.95 57.2802 6.95C58.0202 6.95 58.6736 7.13333 59.2402 7.5C59.8136 7.86667 60.2302 8.38333 60.4902 9.05H59.4002ZM67.6195 14.07C67.1595 14.07 66.7461 13.99 66.3795 13.83C66.0195 13.6633 65.7361 13.4367 65.5295 13.15C65.3228 12.8567 65.2161 12.52 65.2095 12.14H66.1795C66.2128 12.4667 66.3461 12.7433 66.5795 12.97C66.8195 13.19 67.1661 13.3 67.6195 13.3C68.0528 13.3 68.3928 13.1933 68.6395 12.98C68.8928 12.76 69.0195 12.48 69.0195 12.14C69.0195 11.8733 68.9461 11.6567 68.7995 11.49C68.6528 11.3233 68.4695 11.1967 68.2495 11.11C68.0295 11.0233 67.7328 10.93 67.3595 10.83C66.8995 10.71 66.5295 10.59 66.2495 10.47C65.9761 10.35 65.7395 10.1633 65.5395 9.91C65.3461 9.65 65.2495 9.30333 65.2495 8.87C65.2495 8.49 65.3461 8.15333 65.5395 7.86C65.7328 7.56667 66.0028 7.34 66.3495 7.18C66.7028 7.02 67.1061 6.94 67.5595 6.94C68.2128 6.94 68.7461 7.10333 69.1595 7.43C69.5795 7.75667 69.8161 8.19 69.8695 8.73H68.8695C68.8361 8.46333 68.6961 8.23 68.4495 8.03C68.2028 7.82333 67.8761 7.72 67.4695 7.72C67.0895 7.72 66.7795 7.82 66.5395 8.02C66.2995 8.21333 66.1795 8.48667 66.1795 8.84C66.1795 9.09333 66.2495 9.3 66.3895 9.46C66.5361 9.62 66.7128 9.74333 66.9195 9.83C67.1328 9.91 67.4295 10.0033 67.8095 10.11C68.2695 10.2367 68.6395 10.3633 68.9195 10.49C69.1995 10.61 69.4395 10.8 69.6395 11.06C69.8395 11.3133 69.9395 11.66 69.9395 12.1C69.9395 12.44 69.8495 12.76 69.6695 13.06C69.4895 13.36 69.2228 13.6033 68.8695 13.79C68.5161 13.9767 68.0995 14.07 67.6195 14.07ZM72.5886 7.03V11.44C72.5886 12.06 72.7386 12.52 73.0386 12.82C73.3453 13.12 73.7686 13.27 74.3086 13.27C74.8419 13.27 75.2586 13.12 75.5586 12.82C75.8653 12.52 76.0186 12.06 76.0186 11.44V7.03H76.9286V11.43C76.9286 12.01 76.8119 12.5 76.5786 12.9C76.3453 13.2933 76.0286 13.5867 75.6286 13.78C75.2353 13.9733 74.7919 14.07 74.2986 14.07C73.8053 14.07 73.3586 13.9733 72.9586 13.78C72.5653 13.5867 72.2519 13.2933 72.0186 12.9C71.7919 12.5 71.6786 12.01 71.6786 11.43V7.03H72.5886ZM83.5266 9.07C83.5266 9.65 83.3266 10.1333 82.9266 10.52C82.5333 10.9 81.93 11.09 81.1166 11.09H79.7766V14H78.8666V7.03H81.1166C81.9033 7.03 82.5 7.22 82.9066 7.6C83.32 7.98 83.5266 8.47 83.5266 9.07ZM81.1166 10.34C81.6233 10.34 81.9966 10.23 82.2366 10.01C82.4766 9.79 82.5966 9.47667 82.5966 9.07C82.5966 8.21 82.1033 7.78 81.1166 7.78H79.7766V10.34H81.1166ZM89.7377 9.07C89.7377 9.65 89.5377 10.1333 89.1377 10.52C88.7443 10.9 88.141 11.09 87.3277 11.09H85.9877V14H85.0777V7.03H87.3277C88.1143 7.03 88.711 7.22 89.1177 7.6C89.531 7.98 89.7377 8.47 89.7377 9.07ZM87.3277 10.34C87.8343 10.34 88.2077 10.23 88.4477 10.01C88.6877 9.79 88.8077 9.47667 88.8077 9.07C88.8077 8.21 88.3143 7.78 87.3277 7.78H85.9877V10.34H87.3277ZM94.4487 14.07C93.802 14.07 93.212 13.92 92.6787 13.62C92.1453 13.3133 91.722 12.89 91.4087 12.35C91.102 11.8033 90.9487 11.19 90.9487 10.51C90.9487 9.83 91.102 9.22 91.4087 8.68C91.722 8.13333 92.1453 7.71 92.6787 7.41C93.212 7.10333 93.802 6.95 94.4487 6.95C95.102 6.95 95.6953 7.10333 96.2287 7.41C96.762 7.71 97.182 8.13 97.4887 8.67C97.7953 9.21 97.9487 9.82333 97.9487 10.51C97.9487 11.1967 97.7953 11.81 97.4887 12.35C97.182 12.89 96.762 13.3133 96.2287 13.62C95.6953 13.92 95.102 14.07 94.4487 14.07ZM94.4487 13.28C94.9353 13.28 95.372 13.1667 95.7587 12.94C96.152 12.7133 96.4587 12.39 96.6787 11.97C96.9053 11.55 97.0187 11.0633 97.0187 10.51C97.0187 9.95 96.9053 9.46333 96.6787 9.05C96.4587 8.63 96.1553 8.30667 95.7687 8.08C95.382 7.85333 94.942 7.74 94.4487 7.74C93.9553 7.74 93.5153 7.85333 93.1287 8.08C92.742 8.30667 92.4353 8.63 92.2087 9.05C91.9887 9.46333 91.8787 9.95 91.8787 10.51C91.8787 11.0633 91.9887 11.55 92.2087 11.97C92.4353 12.39 92.742 12.7133 93.1287 12.94C93.522 13.1667 93.962 13.28 94.4487 13.28ZM103.24 14L101.58 11.15H100.48V14H99.57V7.03H101.82C102.347 7.03 102.79 7.12 103.15 7.3C103.517 7.48 103.79 7.72333 103.97 8.03C104.15 8.33667 104.24 8.68667 104.24 9.08C104.24 9.56 104.1 9.98333 103.82 10.35C103.547 10.7167 103.133 10.96 102.58 11.08L104.33 14H103.24ZM100.48 10.42H101.82C102.313 10.42 102.683 10.3 102.93 10.06C103.177 9.81333 103.3 9.48667 103.3 9.08C103.3 8.66667 103.177 8.34667 102.93 8.12C102.69 7.89333 102.32 7.78 101.82 7.78H100.48V10.42ZM110.364 7.03V7.77H108.464V14H107.554V7.77H105.644V7.03H110.364Z" fill="#5F646A"/>
<path d="M142.14 7.03V14H141.23V10.84H137.68V14H136.77V7.03H137.68V10.09H141.23V7.03H142.14ZM146.854 14.07C146.207 14.07 145.617 13.92 145.084 13.62C144.55 13.3133 144.127 12.89 143.814 12.35C143.507 11.8033 143.354 11.19 143.354 10.51C143.354 9.83 143.507 9.22 143.814 8.68C144.127 8.13333 144.55 7.71 145.084 7.41C145.617 7.10333 146.207 6.95 146.854 6.95C147.507 6.95 148.1 7.10333 148.634 7.41C149.167 7.71 149.587 8.13 149.894 8.67C150.2 9.21 150.354 9.82333 150.354 10.51C150.354 11.1967 150.2 11.81 149.894 12.35C149.587 12.89 149.167 13.3133 148.634 13.62C148.1 13.92 147.507 14.07 146.854 14.07ZM146.854 13.28C147.34 13.28 147.777 13.1667 148.164 12.94C148.557 12.7133 148.864 12.39 149.084 11.97C149.31 11.55 149.424 11.0633 149.424 10.51C149.424 9.95 149.31 9.46333 149.084 9.05C148.864 8.63 148.56 8.30667 148.174 8.08C147.787 7.85333 147.347 7.74 146.854 7.74C146.36 7.74 145.92 7.85333 145.534 8.08C145.147 8.30667 144.84 8.63 144.614 9.05C144.394 9.46333 144.284 9.95 144.284 10.51C144.284 11.0633 144.394 11.55 144.614 11.97C144.84 12.39 145.147 12.7133 145.534 12.94C145.927 13.1667 146.367 13.28 146.854 13.28ZM160.315 7.03L158.295 14H157.275L155.655 8.39L153.975 14L152.965 14.01L151.015 7.03H151.985L153.505 12.94L155.185 7.03H156.205L157.805 12.92L159.335 7.03H160.315ZM168.267 7.03V7.77H166.367V14H165.457V7.77H163.547V7.03H168.267ZM172.547 14.07C171.901 14.07 171.311 13.92 170.777 13.62C170.244 13.3133 169.821 12.89 169.507 12.35C169.201 11.8033 169.047 11.19 169.047 10.51C169.047 9.83 169.201 9.22 169.507 8.68C169.821 8.13333 170.244 7.71 170.777 7.41C171.311 7.10333 171.901 6.95 172.547 6.95C173.201 6.95 173.794 7.10333 174.327 7.41C174.861 7.71 175.281 8.13 175.587 8.67C175.894 9.21 176.047 9.82333 176.047 10.51C176.047 11.1967 175.894 11.81 175.587 12.35C175.281 12.89 174.861 13.3133 174.327 13.62C173.794 13.92 173.201 14.07 172.547 14.07ZM172.547 13.28C173.034 13.28 173.471 13.1667 173.857 12.94C174.251 12.7133 174.557 12.39 174.777 11.97C175.004 11.55 175.117 11.0633 175.117 10.51C175.117 9.95 175.004 9.46333 174.777 9.05C174.557 8.63 174.254 8.30667 173.867 8.08C173.481 7.85333 173.041 7.74 172.547 7.74C172.054 7.74 171.614 7.85333 171.227 8.08C170.841 8.30667 170.534 8.63 170.307 9.05C170.087 9.46333 169.977 9.95 169.977 10.51C169.977 11.0633 170.087 11.55 170.307 11.97C170.534 12.39 170.841 12.7133 171.227 12.94C171.621 13.1667 172.061 13.28 172.547 13.28Z" fill="#5F646A"/>
<path d="M207.05 9.05C206.857 8.64333 206.577 8.33 206.21 8.11C205.843 7.88333 205.417 7.77 204.93 7.77C204.443 7.77 204.003 7.88333 203.61 8.11C203.223 8.33 202.917 8.65 202.69 9.07C202.47 9.48333 202.36 9.96333 202.36 10.51C202.36 11.0567 202.47 11.5367 202.69 11.95C202.917 12.3633 203.223 12.6833 203.61 12.91C204.003 13.13 204.443 13.24 204.93 13.24C205.61 13.24 206.17 13.0367 206.61 12.63C207.05 12.2233 207.307 11.6733 207.38 10.98H204.6V10.24H208.35V10.94C208.297 11.5133 208.117 12.04 207.81 12.52C207.503 12.9933 207.1 13.37 206.6 13.65C206.1 13.9233 205.543 14.06 204.93 14.06C204.283 14.06 203.693 13.91 203.16 13.61C202.627 13.3033 202.203 12.88 201.89 12.34C201.583 11.8 201.43 11.19 201.43 10.51C201.43 9.83 201.583 9.22 201.89 8.68C202.203 8.13333 202.627 7.71 203.16 7.41C203.693 7.10333 204.283 6.95 204.93 6.95C205.67 6.95 206.323 7.13333 206.89 7.5C207.463 7.86667 207.88 8.38333 208.14 9.05H207.05ZM210.463 7.77V10.1H213.003V10.85H210.463V13.25H213.303V14H209.553V7.02H213.303V7.77H210.463ZM218.97 7.03V7.77H217.07V14H216.16V7.77H214.25V7.03H218.97ZM224.966 14.07C224.506 14.07 224.093 13.99 223.726 13.83C223.366 13.6633 223.083 13.4367 222.876 13.15C222.67 12.8567 222.563 12.52 222.556 12.14H223.526C223.56 12.4667 223.693 12.7433 223.926 12.97C224.166 13.19 224.513 13.3 224.966 13.3C225.4 13.3 225.74 13.1933 225.986 12.98C226.24 12.76 226.366 12.48 226.366 12.14C226.366 11.8733 226.293 11.6567 226.146 11.49C226 11.3233 225.816 11.1967 225.596 11.11C225.376 11.0233 225.08 10.93 224.706 10.83C224.246 10.71 223.876 10.59 223.596 10.47C223.323 10.35 223.086 10.1633 222.886 9.91C222.693 9.65 222.596 9.30333 222.596 8.87C222.596 8.49 222.693 8.15333 222.886 7.86C223.08 7.56667 223.35 7.34 223.696 7.18C224.05 7.02 224.453 6.94 224.906 6.94C225.56 6.94 226.093 7.10333 226.506 7.43C226.926 7.75667 227.163 8.19 227.216 8.73H226.216C226.183 8.46333 226.043 8.23 225.796 8.03C225.55 7.82333 225.223 7.72 224.816 7.72C224.436 7.72 224.126 7.82 223.886 8.02C223.646 8.21333 223.526 8.48667 223.526 8.84C223.526 9.09333 223.596 9.3 223.736 9.46C223.883 9.62 224.06 9.74333 224.266 9.83C224.48 9.91 224.776 10.0033 225.156 10.11C225.616 10.2367 225.986 10.3633 226.266 10.49C226.546 10.61 226.786 10.8 226.986 11.06C227.186 11.3133 227.286 11.66 227.286 12.1C227.286 12.44 227.196 12.76 227.016 13.06C226.836 13.36 226.57 13.6033 226.216 13.79C225.863 13.9767 225.446 14.07 224.966 14.07ZM232.915 7.03V7.77H231.015V14H230.105V7.77H228.195V7.03H232.915ZM238.156 12.45H235.116L234.556 14H233.596L236.116 7.07H237.166L239.676 14H238.716L238.156 12.45ZM237.896 11.71L236.636 8.19L235.376 11.71H237.896ZM244.444 14L242.784 11.15H241.684V14H240.774V7.03H243.024C243.551 7.03 243.994 7.12 244.354 7.3C244.721 7.48 244.994 7.72333 245.174 8.03C245.354 8.33667 245.444 8.68667 245.444 9.08C245.444 9.56 245.304 9.98333 245.024 10.35C244.751 10.7167 244.337 10.96 243.784 11.08L245.534 14H244.444ZM241.684 10.42H243.024C243.517 10.42 243.887 10.3 244.134 10.06C244.381 9.81333 244.504 9.48667 244.504 9.08C244.504 8.66667 244.381 8.34667 244.134 8.12C243.894 7.89333 243.524 7.78 243.024 7.78H241.684V10.42ZM251.148 7.03V7.77H249.248V14H248.338V7.77H246.428V7.03H251.148ZM253.178 7.77V10.1H255.718V10.85H253.178V13.25H256.018V14H252.268V7.02H256.018V7.77H253.178ZM259.565 7.03C260.325 7.03 260.982 7.17333 261.535 7.46C262.095 7.74 262.522 8.14333 262.815 8.67C263.115 9.19667 263.265 9.81667 263.265 10.53C263.265 11.2433 263.115 11.8633 262.815 12.39C262.522 12.91 262.095 13.31 261.535 13.59C260.982 13.8633 260.325 14 259.565 14H257.395V7.03H259.565ZM259.565 13.25C260.465 13.25 261.152 13.0133 261.625 12.54C262.098 12.06 262.335 11.39 262.335 10.53C262.335 9.66333 262.095 8.98667 261.615 8.5C261.142 8.01333 260.458 7.77 259.565 7.77H258.305V13.25H259.565Z" fill="#5F646A"/>
<path d="M19.14 27.03V34H18.23V30.84H14.68V34H13.77V27.03H14.68V30.09H18.23V27.03H19.14ZM23.8538 34.07C23.2072 34.07 22.6172 33.92 22.0838 33.62C21.5505 33.3133 21.1272 32.89 20.8138 32.35C20.5072 31.8033 20.3538 31.19 20.3538 30.51C20.3538 29.83 20.5072 29.22 20.8138 28.68C21.1272 28.1333 21.5505 27.71 22.0838 27.41C22.6172 27.1033 23.2072 26.95 23.8538 26.95C24.5072 26.95 25.1005 27.1033 25.6338 27.41C26.1672 27.71 26.5872 28.13 26.8938 28.67C27.2005 29.21 27.3538 29.8233 27.3538 30.51C27.3538 31.1967 27.2005 31.81 26.8938 32.35C26.5872 32.89 26.1672 33.3133 25.6338 33.62C25.1005 33.92 24.5072 34.07 23.8538 34.07ZM23.8538 33.28C24.3405 33.28 24.7772 33.1667 25.1638 32.94C25.5572 32.7133 25.8638 32.39 26.0838 31.97C26.3105 31.55 26.4238 31.0633 26.4238 30.51C26.4238 29.95 26.3105 29.4633 26.0838 29.05C25.8638 28.63 25.5605 28.3067 25.1738 28.08C24.7872 27.8533 24.3472 27.74 23.8538 27.74C23.3605 27.74 22.9205 27.8533 22.5338 28.08C22.1472 28.3067 21.8405 28.63 21.6138 29.05C21.3938 29.4633 21.2838 29.95 21.2838 30.51C21.2838 31.0633 21.3938 31.55 21.6138 31.97C21.8405 32.39 22.1472 32.7133 22.5338 32.94C22.9272 33.1667 23.3672 33.28 23.8538 33.28ZM37.3152 27.03L35.2952 34H34.2752L32.6552 28.39L30.9752 34L29.9652 34.01L28.0152 27.03H28.9852L30.5052 32.94L32.1852 27.03H33.2052L34.8052 32.92L36.3352 27.03H37.3152ZM48.047 27.08V34H47.137V28.84L44.837 34H44.197L41.887 28.83V34H40.977V27.08H41.957L44.517 32.8L47.077 27.08H48.047ZM53.7103 32.45H50.6703L50.1103 34H49.1503L51.6703 27.07H52.7203L55.2303 34H54.2703L53.7103 32.45ZM53.4503 31.71L52.1903 28.19L50.9303 31.71H53.4503ZM58.5386 34.07C58.0786 34.07 57.6653 33.99 57.2986 33.83C56.9386 33.6633 56.6553 33.4367 56.4486 33.15C56.2419 32.8567 56.1353 32.52 56.1286 32.14H57.0986C57.1319 32.4667 57.2653 32.7433 57.4986 32.97C57.7386 33.19 58.0853 33.3 58.5386 33.3C58.9719 33.3 59.3119 33.1933 59.5586 32.98C59.8119 32.76 59.9386 32.48 59.9386 32.14C59.9386 31.8733 59.8653 31.6567 59.7186 31.49C59.5719 31.3233 59.3886 31.1967 59.1686 31.11C58.9486 31.0233 58.6519 30.93 58.2786 30.83C57.8186 30.71 57.4486 30.59 57.1686 30.47C56.8953 30.35 56.6586 30.1633 56.4586 29.91C56.2653 29.65 56.1686 29.3033 56.1686 28.87C56.1686 28.49 56.2653 28.1533 56.4586 27.86C56.6519 27.5667 56.9219 27.34 57.2686 27.18C57.6219 27.02 58.0253 26.94 58.4786 26.94C59.1319 26.94 59.6653 27.1033 60.0786 27.43C60.4986 27.7567 60.7353 28.19 60.7886 28.73H59.7886C59.7553 28.4633 59.6153 28.23 59.3686 28.03C59.1219 27.8233 58.7953 27.72 58.3886 27.72C58.0086 27.72 57.6986 27.82 57.4586 28.02C57.2186 28.2133 57.0986 28.4867 57.0986 28.84C57.0986 29.0933 57.1686 29.3 57.3086 29.46C57.4553 29.62 57.6319 29.7433 57.8386 29.83C58.0519 29.91 58.3486 30.0033 58.7286 30.11C59.1886 30.2367 59.5586 30.3633 59.8386 30.49C60.1186 30.61 60.3586 30.8 60.5586 31.06C60.7586 31.3133 60.8586 31.66 60.8586 32.1C60.8586 32.44 60.7686 32.76 60.5886 33.06C60.4086 33.36 60.1419 33.6033 59.7886 33.79C59.4353 33.9767 59.0186 34.07 58.5386 34.07ZM66.4877 27.03V27.77H64.5877V34H63.6777V27.77H61.7677V27.03H66.4877ZM68.5179 27.77V30.1H71.0579V30.85H68.5179V33.25H71.3579V34H67.6079V27.02H71.3579V27.77H68.5179ZM76.4048 34L74.7448 31.15H73.6448V34H72.7348V27.03H74.9848C75.5115 27.03 75.9548 27.12 76.3148 27.3C76.6815 27.48 76.9548 27.7233 77.1348 28.03C77.3148 28.3367 77.4048 28.6867 77.4048 29.08C77.4048 29.56 77.2648 29.9833 76.9848 30.35C76.7115 30.7167 76.2982 30.96 75.7448 31.08L77.4948 34H76.4048ZM73.6448 30.42H74.9848C75.4782 30.42 75.8482 30.3 76.0948 30.06C76.3415 29.8133 76.4648 29.4867 76.4648 29.08C76.4648 28.6667 76.3415 28.3467 76.0948 28.12C75.8548 27.8933 75.4848 27.78 74.9848 27.78H73.6448V30.42ZM83.1088 27.03V27.77H81.2088V34H80.2988V27.77H78.3888V27.03H83.1088ZM88.349 32.45H85.309L84.749 34H83.789L86.309 27.07H87.359L89.869 34H88.909L88.349 32.45ZM88.089 31.71L86.829 28.19L85.569 31.71H88.089ZM96.2473 29.05C96.0539 28.6433 95.7739 28.33 95.4073 28.11C95.0406 27.8833 94.6139 27.77 94.1273 27.77C93.6406 27.77 93.2006 27.8833 92.8073 28.11C92.4206 28.33 92.1139 28.65 91.8873 29.07C91.6673 29.4833 91.5573 29.9633 91.5573 30.51C91.5573 31.0567 91.6673 31.5367 91.8873 31.95C92.1139 32.3633 92.4206 32.6833 92.8073 32.91C93.2006 33.13 93.6406 33.24 94.1273 33.24C94.8073 33.24 95.3673 33.0367 95.8073 32.63C96.2473 32.2233 96.5039 31.6733 96.5773 30.98H93.7973V30.24H97.5473V30.94C97.4939 31.5133 97.3139 32.04 97.0073 32.52C96.7006 32.9933 96.2973 33.37 95.7973 33.65C95.2973 33.9233 94.7406 34.06 94.1273 34.06C93.4806 34.06 92.8906 33.91 92.3573 33.61C91.8239 33.3033 91.4006 32.88 91.0873 32.34C90.7806 31.8 90.6273 31.19 90.6273 30.51C90.6273 29.83 90.7806 29.22 91.0873 28.68C91.4006 28.1333 91.8239 27.71 92.3573 27.41C92.8906 27.1033 93.4806 26.95 94.1273 26.95C94.8673 26.95 95.5206 27.1333 96.0873 27.5C96.6606 27.8667 97.0773 28.3833 97.3373 29.05H96.2473ZM110.176 27.03L108.156 34H107.136L105.516 28.39L103.836 34L102.826 34.01L100.876 27.03H101.846L103.366 32.94L105.046 27.03H106.066L107.666 32.92L109.196 27.03H110.176ZM114.332 34.07C113.686 34.07 113.096 33.92 112.562 33.62C112.029 33.3133 111.606 32.89 111.292 32.35C110.986 31.8033 110.832 31.19 110.832 30.51C110.832 29.83 110.986 29.22 111.292 28.68C111.606 28.1333 112.029 27.71 112.562 27.41C113.096 27.1033 113.686 26.95 114.332 26.95C114.986 26.95 115.579 27.1033 116.112 27.41C116.646 27.71 117.066 28.13 117.372 28.67C117.679 29.21 117.832 29.8233 117.832 30.51C117.832 31.1967 117.679 31.81 117.372 32.35C117.066 32.89 116.646 33.3133 116.112 33.62C115.579 33.92 114.986 34.07 114.332 34.07ZM114.332 33.28C114.819 33.28 115.256 33.1667 115.642 32.94C116.036 32.7133 116.342 32.39 116.562 31.97C116.789 31.55 116.902 31.0633 116.902 30.51C116.902 29.95 116.789 29.4633 116.562 29.05C116.342 28.63 116.039 28.3067 115.652 28.08C115.266 27.8533 114.826 27.74 114.332 27.74C113.839 27.74 113.399 27.8533 113.012 28.08C112.626 28.3067 112.319 28.63 112.092 29.05C111.872 29.4633 111.762 29.95 111.762 30.51C111.762 31.0633 111.872 31.55 112.092 31.97C112.319 32.39 112.626 32.7133 113.012 32.94C113.406 33.1667 113.846 33.28 114.332 33.28ZM122.704 34L121.044 31.15H119.944V34H119.034V27.03H121.284C121.81 27.03 122.254 27.12 122.614 27.3C122.98 27.48 123.254 27.7233 123.434 28.03C123.614 28.3367 123.704 28.6867 123.704 29.08C123.704 29.56 123.564 29.9833 123.284 30.35C123.01 30.7167 122.597 30.96 122.044 31.08L123.794 34H122.704ZM119.944 30.42H121.284C121.777 30.42 122.147 30.3 122.394 30.06C122.64 29.8133 122.764 29.4867 122.764 29.08C122.764 28.6667 122.64 28.3467 122.394 28.12C122.154 27.8933 121.784 27.78 121.284 27.78H119.944V30.42ZM128.898 34L126.028 30.82V34H125.118V27.03H126.028V30.26L128.908 27.03H130.058L126.898 30.52L130.088 34H128.898ZM133.314 34.07C132.854 34.07 132.441 33.99 132.074 33.83C131.714 33.6633 131.431 33.4367 131.224 33.15C131.017 32.8567 130.911 32.52 130.904 32.14H131.874C131.907 32.4667 132.041 32.7433 132.274 32.97C132.514 33.19 132.861 33.3 133.314 33.3C133.747 33.3 134.087 33.1933 134.334 32.98C134.587 32.76 134.714 32.48 134.714 32.14C134.714 31.8733 134.641 31.6567 134.494 31.49C134.347 31.3233 134.164 31.1967 133.944 31.11C133.724 31.0233 133.427 30.93 133.054 30.83C132.594 30.71 132.224 30.59 131.944 30.47C131.671 30.35 131.434 30.1633 131.234 29.91C131.041 29.65 130.944 29.3033 130.944 28.87C130.944 28.49 131.041 28.1533 131.234 27.86C131.427 27.5667 131.697 27.34 132.044 27.18C132.397 27.02 132.801 26.94 133.254 26.94C133.907 26.94 134.441 27.1033 134.854 27.43C135.274 27.7567 135.511 28.19 135.564 28.73H134.564C134.531 28.4633 134.391 28.23 134.144 28.03C133.897 27.8233 133.571 27.72 133.164 27.72C132.784 27.72 132.474 27.82 132.234 28.02C131.994 28.2133 131.874 28.4867 131.874 28.84C131.874 29.0933 131.944 29.3 132.084 29.46C132.231 29.62 132.407 29.7433 132.614 29.83C132.827 29.91 133.124 30.0033 133.504 30.11C133.964 30.2367 134.334 30.3633 134.614 30.49C134.894 30.61 135.134 30.8 135.334 31.06C135.534 31.3133 135.634 31.66 135.634 32.1C135.634 32.44 135.544 32.76 135.364 33.06C135.184 33.36 134.917 33.6033 134.564 33.79C134.211 33.9767 133.794 34.07 133.314 34.07Z" fill="#212529"/>
<path fill-rule="evenodd" clip-rule="evenodd" d="M126.019 10.4902L123.623 7.38707C123.556 7.30064 123.554 7.15809 123.619 7.06868C123.683 6.97926 123.79 6.97684 123.856 7.06327L126.377 10.3283C126.446 10.4168 126.446 10.5636 126.377 10.6521L123.856 13.9172C123.79 14.0036 123.683 14.0012 123.619 13.9118C123.554 13.8223 123.556 13.6798 123.623 13.5933L126.019 10.4902Z" stroke="#5F646A"/>
<path fill-rule="evenodd" clip-rule="evenodd" d="M191.447 10.4902L189.051 7.38707C188.985 7.30064 188.983 7.15809 189.047 7.06868C189.112 6.97926 189.218 6.97684 189.285 7.06327L191.806 10.3283C191.874 10.4168 191.874 10.5636 191.806 10.6521L189.285 13.9172C189.218 14.0036 189.112 14.0012 189.047 13.9118C188.983 13.8223 188.985 13.6798 189.051 13.5933L191.447 10.4902Z" stroke="#5F646A"/>
<path fill-rule="evenodd" clip-rule="evenodd" d="M3.44726 30.4902L1.05126 27.3871C0.98452 27.3006 0.982716 27.1581 1.04723 27.0687C1.11174 26.9793 1.21814 26.9768 1.28488 27.0633L3.80589 30.3283C3.87423 30.4168 3.87423 30.5636 3.80589 30.6521L1.28488 33.9172C1.21814 34.0036 1.11174 34.0012 1.04723 33.9118C0.982717 33.8223 0.98452 33.6798 1.05126 33.5933L3.44726 30.4902Z" stroke="#5F646A"/>
<rect x="301" y="7" width="13" height="33" fill="white"/>
</svg>
