<svg width="315" height="414" viewBox="0 0 315 414" fill="none" xmlns="http://www.w3.org/2000/svg">
<path d="M69.2418 384H65.8818L58.2738 372.504V384H54.9138V367.224H58.2738L65.8818 378.744V367.224H69.2418V384ZM84.9223 377.064C84.9223 377.544 84.8903 377.976 84.8263 378.36H75.1063C75.1863 379.32 75.5223 380.072 76.1143 380.616C76.7063 381.16 77.4343 381.432 78.2983 381.432C79.5463 381.432 80.4343 380.896 80.9623 379.824H84.5863C84.2023 381.104 83.4663 382.16 82.3783 382.992C81.2903 383.808 79.9543 384.216 78.3703 384.216C77.0903 384.216 75.9383 383.936 74.9143 383.376C73.9063 382.8 73.1143 381.992 72.5383 380.952C71.9783 379.912 71.6982 378.712 71.6982 377.352C71.6982 375.976 71.9783 374.768 72.5383 373.728C73.0983 372.688 73.8823 371.888 74.8903 371.328C75.8983 370.768 77.0583 370.488 78.3703 370.488C79.6343 370.488 80.7623 370.76 81.7543 371.304C82.7623 371.848 83.5383 372.624 84.0823 373.632C84.6423 374.624 84.9223 375.768 84.9223 377.064ZM81.4423 376.104C81.4263 375.24 81.1143 374.552 80.5063 374.04C79.8983 373.512 79.1543 373.248 78.2743 373.248C77.4423 373.248 76.7383 373.504 76.1623 374.016C75.6023 374.512 75.2583 375.208 75.1303 376.104H81.4423ZM99.7348 377.064C99.7348 377.544 99.7028 377.976 99.6388 378.36H89.9188C89.9988 379.32 90.3348 380.072 90.9268 380.616C91.5188 381.16 92.2468 381.432 93.1108 381.432C94.3588 381.432 95.2468 380.896 95.7748 379.824H99.3988C99.0148 381.104 98.2788 382.16 97.1908 382.992C96.1028 383.808 94.7668 384.216 93.1828 384.216C91.9028 384.216 90.7508 383.936 89.7268 383.376C88.7188 382.8 87.9268 381.992 87.3508 380.952C86.7908 379.912 86.5107 378.712 86.5107 377.352C86.5107 375.976 86.7908 374.768 87.3508 373.728C87.9108 372.688 88.6948 371.888 89.7028 371.328C90.7108 370.768 91.8708 370.488 93.1828 370.488C94.4468 370.488 95.5748 370.76 96.5668 371.304C97.5748 371.848 98.3508 372.624 98.8948 373.632C99.4548 374.624 99.7348 375.768 99.7348 377.064ZM96.2548 376.104C96.2388 375.24 95.9268 374.552 95.3188 374.04C94.7108 373.512 93.9668 373.248 93.0868 373.248C92.2548 373.248 91.5508 373.504 90.9748 374.016C90.4148 374.512 90.0708 375.208 89.9428 376.104H96.2548ZM101.323 377.304C101.323 375.96 101.587 374.768 102.115 373.728C102.659 372.688 103.395 371.888 104.323 371.328C105.251 370.768 106.283 370.488 107.419 370.488C108.283 370.488 109.107 370.68 109.891 371.064C110.675 371.432 111.299 371.928 111.763 372.552V366.24H115.171V384H111.763V382.032C111.347 382.688 110.763 383.216 110.011 383.616C109.259 384.016 108.387 384.216 107.395 384.216C106.275 384.216 105.251 383.928 104.323 383.352C103.395 382.776 102.659 381.968 102.115 380.928C101.587 379.872 101.323 378.664 101.323 377.304ZM111.787 377.352C111.787 376.536 111.627 375.84 111.307 375.264C110.987 374.672 110.555 374.224 110.011 373.92C109.467 373.6 108.883 373.44 108.259 373.44C107.635 373.44 107.059 373.592 106.531 373.896C106.003 374.2 105.571 374.648 105.235 375.24C104.915 375.816 104.755 376.504 104.755 377.304C104.755 378.104 104.915 378.808 105.235 379.416C105.571 380.008 106.003 380.464 106.531 380.784C107.075 381.104 107.651 381.264 108.259 381.264C108.883 381.264 109.467 381.112 110.011 380.808C110.555 380.488 110.987 380.04 111.307 379.464C111.627 378.872 111.787 378.168 111.787 377.352ZM140.684 370.512C142.316 370.512 143.628 371.016 144.62 372.024C145.628 373.016 146.132 374.408 146.132 376.2V384H142.772V376.656C142.772 375.616 142.508 374.824 141.98 374.28C141.452 373.72 140.732 373.44 139.82 373.44C138.908 373.44 138.18 373.72 137.636 374.28C137.108 374.824 136.844 375.616 136.844 376.656V384H133.484V376.656C133.484 375.616 133.22 374.824 132.692 374.28C132.164 373.72 131.444 373.44 130.532 373.44C129.604 373.44 128.868 373.72 128.324 374.28C127.796 374.824 127.532 375.616 127.532 376.656V384H124.172V370.704H127.532V372.312C127.964 371.752 128.516 371.312 129.188 370.992C129.876 370.672 130.628 370.512 131.444 370.512C132.484 370.512 133.412 370.736 134.228 371.184C135.044 371.616 135.676 372.24 136.124 373.056C136.556 372.288 137.18 371.672 137.996 371.208C138.828 370.744 139.724 370.512 140.684 370.512ZM155.224 384.216C153.944 384.216 152.792 383.936 151.768 383.376C150.744 382.8 149.936 381.992 149.344 380.952C148.768 379.912 148.48 378.712 148.48 377.352C148.48 375.992 148.776 374.792 149.368 373.752C149.976 372.712 150.8 371.912 151.84 371.352C152.88 370.776 154.04 370.488 155.32 370.488C156.6 370.488 157.76 370.776 158.8 371.352C159.84 371.912 160.656 372.712 161.248 373.752C161.856 374.792 162.16 375.992 162.16 377.352C162.16 378.712 161.848 379.912 161.224 380.952C160.616 381.992 159.784 382.8 158.728 383.376C157.688 383.936 156.52 384.216 155.224 384.216ZM155.224 381.288C155.832 381.288 156.4 381.144 156.928 380.856C157.472 380.552 157.904 380.104 158.224 379.512C158.544 378.92 158.704 378.2 158.704 377.352C158.704 376.088 158.368 375.12 157.696 374.448C157.04 373.76 156.232 373.416 155.272 373.416C154.312 373.416 153.504 373.76 152.848 374.448C152.208 375.12 151.888 376.088 151.888 377.352C151.888 378.616 152.2 379.592 152.824 380.28C153.464 380.952 154.264 381.288 155.224 381.288ZM167.985 372.768C168.417 372.064 168.977 371.512 169.665 371.112C170.369 370.712 171.169 370.512 172.065 370.512V374.04H171.177C170.121 374.04 169.321 374.288 168.777 374.784C168.249 375.28 167.985 376.144 167.985 377.376V384H164.625V370.704H167.985V372.768ZM186.688 377.064C186.688 377.544 186.656 377.976 186.592 378.36H176.872C176.952 379.32 177.288 380.072 177.88 380.616C178.472 381.16 179.2 381.432 180.064 381.432C181.312 381.432 182.2 380.896 182.728 379.824H186.352C185.968 381.104 185.232 382.16 184.144 382.992C183.056 383.808 181.72 384.216 180.136 384.216C178.856 384.216 177.704 383.936 176.68 383.376C175.672 382.8 174.88 381.992 174.304 380.952C173.744 379.912 173.464 378.712 173.464 377.352C173.464 375.976 173.744 374.768 174.304 373.728C174.864 372.688 175.648 371.888 176.656 371.328C177.664 370.768 178.824 370.488 180.136 370.488C181.4 370.488 182.528 370.76 183.52 371.304C184.528 371.848 185.304 372.624 185.848 373.632C186.408 374.624 186.688 375.768 186.688 377.064ZM183.208 376.104C183.192 375.24 182.88 374.552 182.272 374.04C181.664 373.512 180.92 373.248 180.04 373.248C179.208 373.248 178.504 373.504 177.928 374.016C177.368 374.512 177.024 375.208 176.896 376.104H183.208ZM202.347 370.512C203.355 370.512 204.251 370.736 205.035 371.184C205.819 371.616 206.427 372.264 206.859 373.128C207.307 373.976 207.531 375 207.531 376.2V384H204.171V376.656C204.171 375.6 203.907 374.792 203.379 374.232C202.851 373.656 202.131 373.368 201.219 373.368C200.291 373.368 199.555 373.656 199.011 374.232C198.483 374.792 198.219 375.6 198.219 376.656V384H194.859V366.24H198.219V372.36C198.651 371.784 199.227 371.336 199.947 371.016C200.667 370.68 201.467 370.512 202.347 370.512ZM223.086 377.064C223.086 377.544 223.054 377.976 222.99 378.36H213.27C213.35 379.32 213.686 380.072 214.278 380.616C214.87 381.16 215.598 381.432 216.462 381.432C217.71 381.432 218.598 380.896 219.126 379.824H222.75C222.366 381.104 221.63 382.16 220.542 382.992C219.454 383.808 218.118 384.216 216.534 384.216C215.254 384.216 214.102 383.936 213.078 383.376C212.07 382.8 211.278 381.992 210.702 380.952C210.142 379.912 209.862 378.712 209.862 377.352C209.862 375.976 210.142 374.768 210.702 373.728C211.262 372.688 212.046 371.888 213.054 371.328C214.062 370.768 215.222 370.488 216.534 370.488C217.798 370.488 218.926 370.76 219.918 371.304C220.926 371.848 221.702 372.624 222.246 373.632C222.806 374.624 223.086 375.768 223.086 377.064ZM219.606 376.104C219.59 375.24 219.278 374.552 218.67 374.04C218.062 373.512 217.318 373.248 216.438 373.248C215.606 373.248 214.902 373.504 214.326 374.016C213.766 374.512 213.422 375.208 213.294 376.104H219.606ZM228.899 366.24V384H225.539V366.24H228.899ZM235.579 372.624C236.011 372.016 236.603 371.512 237.355 371.112C238.123 370.696 238.995 370.488 239.971 370.488C241.107 370.488 242.131 370.768 243.043 371.328C243.971 371.888 244.699 372.688 245.227 373.728C245.771 374.752 246.043 375.944 246.043 377.304C246.043 378.664 245.771 379.872 245.227 380.928C244.699 381.968 243.971 382.776 243.043 383.352C242.131 383.928 241.107 384.216 239.971 384.216C238.995 384.216 238.131 384.016 237.379 383.616C236.643 383.216 236.043 382.712 235.579 382.104V390.336H232.219V370.704H235.579V372.624ZM242.611 377.304C242.611 376.504 242.443 375.816 242.107 375.24C241.787 374.648 241.355 374.2 240.811 373.896C240.283 373.592 239.707 373.44 239.083 373.44C238.475 373.44 237.899 373.6 237.355 373.92C236.827 374.224 236.395 374.672 236.059 375.264C235.739 375.856 235.579 376.552 235.579 377.352C235.579 378.152 235.739 378.848 236.059 379.44C236.395 380.032 236.827 380.488 237.355 380.808C237.899 381.112 238.475 381.264 239.083 381.264C239.707 381.264 240.283 381.104 240.811 380.784C241.355 380.464 241.787 380.008 242.107 379.416C242.443 378.824 242.611 378.12 242.611 377.304ZM253.164 366.672C254.828 366.672 256.164 367.128 257.172 368.04C258.196 368.936 258.708 370.176 258.708 371.76C258.708 373.328 258.204 374.528 257.196 375.36C256.188 376.176 254.852 376.584 253.188 376.584L253.092 378.432H250.14L250.02 374.352H251.1C252.492 374.352 253.564 374.168 254.316 373.8C255.068 373.432 255.444 372.76 255.444 371.784C255.444 371.08 255.236 370.52 254.82 370.104C254.42 369.688 253.868 369.48 253.164 369.48C252.428 369.48 251.852 369.68 251.436 370.08C251.036 370.48 250.836 371.032 250.836 371.736H247.668C247.652 370.76 247.86 369.888 248.292 369.12C248.724 368.352 249.356 367.752 250.188 367.32C251.036 366.888 252.028 366.672 253.164 366.672ZM251.604 384.168C250.996 384.168 250.492 383.984 250.092 383.616C249.708 383.232 249.516 382.76 249.516 382.2C249.516 381.64 249.708 381.176 250.092 380.808C250.492 380.424 250.996 380.232 251.604 380.232C252.196 380.232 252.684 380.424 253.068 380.808C253.452 381.176 253.644 381.64 253.644 382.2C253.644 382.76 253.452 383.232 253.068 383.616C252.684 383.984 252.196 384.168 251.604 384.168Z" fill="#1E2A39"/>
<path d="M27.1078 405.114C27.1078 404.162 27.3272 403.308 27.7658 402.552C28.2138 401.796 28.8158 401.208 29.5718 400.788C30.3372 400.359 31.1725 400.144 32.0778 400.144C33.1138 400.144 34.0332 400.401 34.8358 400.914C35.6478 401.418 36.2358 402.137 36.5998 403.07H34.6818C34.4298 402.557 34.0798 402.174 33.6318 401.922C33.1838 401.67 32.6658 401.544 32.0778 401.544C31.4338 401.544 30.8598 401.689 30.3558 401.978C29.8518 402.267 29.4552 402.683 29.1658 403.224C28.8858 403.765 28.7458 404.395 28.7458 405.114C28.7458 405.833 28.8858 406.463 29.1658 407.004C29.4552 407.545 29.8518 407.965 30.3558 408.264C30.8598 408.553 31.4338 408.698 32.0778 408.698C32.6658 408.698 33.1838 408.572 33.6318 408.32C34.0798 408.068 34.4298 407.685 34.6818 407.172H36.5998C36.2358 408.105 35.6478 408.824 34.8358 409.328C34.0332 409.832 33.1138 410.084 32.0778 410.084C31.1632 410.084 30.3278 409.874 29.5718 409.454C28.8158 409.025 28.2138 408.432 27.7658 407.676C27.3272 406.92 27.1078 406.066 27.1078 405.114ZM41.814 410.126C41.086 410.126 40.428 409.963 39.84 409.636C39.252 409.3 38.79 408.833 38.454 408.236C38.118 407.629 37.95 406.929 37.95 406.136C37.95 405.352 38.1226 404.657 38.468 404.05C38.8133 403.443 39.2846 402.977 39.882 402.65C40.4793 402.323 41.1466 402.16 41.884 402.16C42.6213 402.16 43.2886 402.323 43.886 402.65C44.4833 402.977 44.9546 403.443 45.3 404.05C45.6453 404.657 45.818 405.352 45.818 406.136C45.818 406.92 45.6406 407.615 45.286 408.222C44.9313 408.829 44.446 409.3 43.83 409.636C43.2233 409.963 42.5513 410.126 41.814 410.126ZM41.814 408.74C42.2246 408.74 42.6073 408.642 42.962 408.446C43.326 408.25 43.62 407.956 43.844 407.564C44.068 407.172 44.18 406.696 44.18 406.136C44.18 405.576 44.0726 405.105 43.858 404.722C43.6433 404.33 43.3586 404.036 43.004 403.84C42.6493 403.644 42.2666 403.546 41.856 403.546C41.4453 403.546 41.0626 403.644 40.708 403.84C40.3626 404.036 40.0873 404.33 39.882 404.722C39.6766 405.105 39.574 405.576 39.574 406.136C39.574 406.967 39.784 407.611 40.204 408.068C40.6333 408.516 41.17 408.74 41.814 408.74ZM51.2877 402.16C51.8944 402.16 52.4357 402.286 52.9117 402.538C53.397 402.79 53.775 403.163 54.0457 403.658C54.3164 404.153 54.4517 404.75 54.4517 405.45V410H52.8697V405.688C52.8697 404.997 52.697 404.47 52.3517 404.106C52.0064 403.733 51.535 403.546 50.9377 403.546C50.3404 403.546 49.8644 403.733 49.5097 404.106C49.1644 404.47 48.9917 404.997 48.9917 405.688V410H47.3957V402.286H48.9917V403.168C49.253 402.851 49.5844 402.603 49.9857 402.426C50.3964 402.249 50.8304 402.16 51.2877 402.16ZM58.3495 403.588V407.858C58.3495 408.147 58.4148 408.357 58.5455 408.488C58.6855 408.609 58.9188 408.67 59.2455 408.67H60.2255V410H58.9655C58.2468 410 57.6962 409.832 57.3135 409.496C56.9308 409.16 56.7395 408.614 56.7395 407.858V403.588H55.8295V402.286H56.7395V400.368H58.3495V402.286H60.2255V403.588H58.3495ZM61.1645 406.108C61.1645 405.333 61.3232 404.647 61.6405 404.05C61.9672 403.453 62.4058 402.991 62.9565 402.664C63.5165 402.328 64.1325 402.16 64.8045 402.16C65.4112 402.16 65.9385 402.281 66.3865 402.524C66.8438 402.757 67.2078 403.051 67.4785 403.406V402.286H69.0885V410H67.4785V408.852C67.2078 409.216 66.8392 409.519 66.3725 409.762C65.9058 410.005 65.3738 410.126 64.7765 410.126C64.1138 410.126 63.5072 409.958 62.9565 409.622C62.4058 409.277 61.9672 408.801 61.6405 408.194C61.3232 407.578 61.1645 406.883 61.1645 406.108ZM67.4785 406.136C67.4785 405.604 67.3665 405.142 67.1425 404.75C66.9278 404.358 66.6432 404.059 66.2885 403.854C65.9338 403.649 65.5512 403.546 65.1405 403.546C64.7298 403.546 64.3472 403.649 63.9925 403.854C63.6378 404.05 63.3485 404.344 63.1245 404.736C62.9098 405.119 62.8025 405.576 62.8025 406.108C62.8025 406.64 62.9098 407.107 63.1245 407.508C63.3485 407.909 63.6378 408.217 63.9925 408.432C64.3565 408.637 64.7392 408.74 65.1405 408.74C65.5512 408.74 65.9338 408.637 66.2885 408.432C66.6432 408.227 66.9278 407.928 67.1425 407.536C67.3665 407.135 67.4785 406.668 67.4785 406.136ZM70.6528 406.136C70.6528 405.343 70.8114 404.647 71.1288 404.05C71.4554 403.443 71.9034 402.977 72.4728 402.65C73.0421 402.323 73.6954 402.16 74.4328 402.16C75.3661 402.16 76.1361 402.384 76.7428 402.832C77.3588 403.271 77.7741 403.901 77.9888 404.722H76.2668C76.1268 404.339 75.9028 404.041 75.5948 403.826C75.2868 403.611 74.8994 403.504 74.4328 403.504C73.7794 403.504 73.2568 403.737 72.8648 404.204C72.4821 404.661 72.2908 405.305 72.2908 406.136C72.2908 406.967 72.4821 407.615 72.8648 408.082C73.2568 408.549 73.7794 408.782 74.4328 408.782C75.3568 408.782 75.9681 408.376 76.2668 407.564H77.9888C77.7648 408.348 77.3448 408.973 76.7288 409.44C76.1128 409.897 75.3474 410.126 74.4328 410.126C73.6954 410.126 73.0421 409.963 72.4728 409.636C71.9034 409.3 71.4554 408.833 71.1288 408.236C70.8114 407.629 70.6528 406.929 70.6528 406.136ZM81.4413 403.588V407.858C81.4413 408.147 81.5066 408.357 81.6373 408.488C81.7773 408.609 82.0106 408.67 82.3373 408.67H83.3173V410H82.0573C81.3386 410 80.788 409.832 80.4053 409.496C80.0226 409.16 79.8313 408.614 79.8313 407.858V403.588H78.9213V402.286H79.8313V400.368H81.4413V402.286H83.3173V403.588H81.4413ZM95.411 402.286V410H93.815V409.09C93.563 409.407 93.2317 409.659 92.821 409.846C92.4197 410.023 91.9903 410.112 91.533 410.112C90.9263 410.112 90.3803 409.986 89.895 409.734C89.419 409.482 89.041 409.109 88.761 408.614C88.4903 408.119 88.355 407.522 88.355 406.822V402.286H89.937V406.584C89.937 407.275 90.1097 407.807 90.455 408.18C90.8003 408.544 91.2717 408.726 91.869 408.726C92.4663 408.726 92.9377 408.544 93.283 408.18C93.6377 407.807 93.815 407.275 93.815 406.584V402.286H95.411ZM100.317 410.126C99.7101 410.126 99.1641 410.019 98.6788 409.804C98.2028 409.58 97.8248 409.281 97.5448 408.908C97.2648 408.525 97.1155 408.101 97.0968 407.634H98.7488C98.7768 407.961 98.9308 408.236 99.2108 408.46C99.5001 408.675 99.8595 408.782 100.289 408.782C100.737 408.782 101.082 408.698 101.325 408.53C101.577 408.353 101.703 408.129 101.703 407.858C101.703 407.569 101.563 407.354 101.283 407.214C101.012 407.074 100.578 406.92 99.9808 406.752C99.4021 406.593 98.9308 406.439 98.5668 406.29C98.2028 406.141 97.8855 405.912 97.6148 405.604C97.3535 405.296 97.2228 404.89 97.2228 404.386C97.2228 403.975 97.3441 403.602 97.5868 403.266C97.8295 402.921 98.1748 402.65 98.6228 402.454C99.0801 402.258 99.6028 402.16 100.191 402.16C101.068 402.16 101.773 402.384 102.305 402.832C102.846 403.271 103.135 403.873 103.173 404.638H101.577C101.549 404.293 101.409 404.017 101.157 403.812C100.905 403.607 100.564 403.504 100.135 403.504C99.7148 403.504 99.3928 403.583 99.1688 403.742C98.9448 403.901 98.8328 404.111 98.8328 404.372C98.8328 404.577 98.9075 404.75 99.0568 404.89C99.2061 405.03 99.3881 405.142 99.6028 405.226C99.8175 405.301 100.135 405.399 100.555 405.52C101.115 405.669 101.572 405.823 101.927 405.982C102.291 406.131 102.603 406.355 102.865 406.654C103.126 406.953 103.261 407.349 103.271 407.844C103.271 408.283 103.149 408.675 102.907 409.02C102.664 409.365 102.319 409.636 101.871 409.832C101.432 410.028 100.914 410.126 100.317 410.126ZM108.1 406.108C108.1 405.333 108.259 404.647 108.576 404.05C108.903 403.453 109.341 402.991 109.892 402.664C110.452 402.328 111.068 402.16 111.74 402.16C112.347 402.16 112.874 402.281 113.322 402.524C113.779 402.757 114.143 403.051 114.414 403.406V402.286H116.024V410H114.414V408.852C114.143 409.216 113.775 409.519 113.308 409.762C112.841 410.005 112.309 410.126 111.712 410.126C111.049 410.126 110.443 409.958 109.892 409.622C109.341 409.277 108.903 408.801 108.576 408.194C108.259 407.578 108.1 406.883 108.1 406.108ZM114.414 406.136C114.414 405.604 114.302 405.142 114.078 404.75C113.863 404.358 113.579 404.059 113.224 403.854C112.869 403.649 112.487 403.546 112.076 403.546C111.665 403.546 111.283 403.649 110.928 403.854C110.573 404.05 110.284 404.344 110.06 404.736C109.845 405.119 109.738 405.576 109.738 406.108C109.738 406.64 109.845 407.107 110.06 407.508C110.284 407.909 110.573 408.217 110.928 408.432C111.292 408.637 111.675 408.74 112.076 408.74C112.487 408.74 112.869 408.637 113.224 408.432C113.579 408.227 113.863 407.928 114.078 407.536C114.302 407.135 114.414 406.668 114.414 406.136ZM119.982 403.588V407.858C119.982 408.147 120.048 408.357 120.178 408.488C120.318 408.609 120.552 408.67 120.878 408.67H121.858V410H120.598C119.88 410 119.329 409.832 118.946 409.496C118.564 409.16 118.372 408.614 118.372 407.858V403.588H117.462V402.286H118.372V400.368H119.982V402.286H121.858V403.588H119.982ZM129.766 410.126C129.159 410.126 128.613 410.019 128.128 409.804C127.652 409.58 127.274 409.281 126.994 408.908C126.714 408.525 126.565 408.101 126.546 407.634H128.198C128.226 407.961 128.38 408.236 128.66 408.46C128.949 408.675 129.309 408.782 129.738 408.782C130.186 408.782 130.531 408.698 130.774 408.53C131.026 408.353 131.152 408.129 131.152 407.858C131.152 407.569 131.012 407.354 130.732 407.214C130.461 407.074 130.027 406.92 129.43 406.752C128.851 406.593 128.38 406.439 128.016 406.29C127.652 406.141 127.335 405.912 127.064 405.604C126.803 405.296 126.672 404.89 126.672 404.386C126.672 403.975 126.793 403.602 127.036 403.266C127.279 402.921 127.624 402.65 128.072 402.454C128.529 402.258 129.052 402.16 129.64 402.16C130.517 402.16 131.222 402.384 131.754 402.832C132.295 403.271 132.585 403.873 132.622 404.638H131.026C130.998 404.293 130.858 404.017 130.606 403.812C130.354 403.607 130.013 403.504 129.584 403.504C129.164 403.504 128.842 403.583 128.618 403.742C128.394 403.901 128.282 404.111 128.282 404.372C128.282 404.577 128.357 404.75 128.506 404.89C128.655 405.03 128.837 405.142 129.052 405.226C129.267 405.301 129.584 405.399 130.004 405.52C130.564 405.669 131.021 405.823 131.376 405.982C131.74 406.131 132.053 406.355 132.314 406.654C132.575 406.953 132.711 407.349 132.72 407.844C132.72 408.283 132.599 408.675 132.356 409.02C132.113 409.365 131.768 409.636 131.32 409.832C130.881 410.028 130.363 410.126 129.766 410.126ZM141.431 402.286V410H139.835V409.09C139.583 409.407 139.251 409.659 138.841 409.846C138.439 410.023 138.01 410.112 137.553 410.112C136.946 410.112 136.4 409.986 135.915 409.734C135.439 409.482 135.061 409.109 134.781 408.614C134.51 408.119 134.375 407.522 134.375 406.822V402.286H135.957V406.584C135.957 407.275 136.129 407.807 136.475 408.18C136.82 408.544 137.291 408.726 137.889 408.726C138.486 408.726 138.957 408.544 139.303 408.18C139.657 407.807 139.835 407.275 139.835 406.584V402.286H141.431ZM145.132 403.42C145.403 403.065 145.772 402.767 146.238 402.524C146.705 402.281 147.232 402.16 147.82 402.16C148.492 402.16 149.104 402.328 149.654 402.664C150.214 402.991 150.653 403.453 150.97 404.05C151.288 404.647 151.446 405.333 151.446 406.108C151.446 406.883 151.288 407.578 150.97 408.194C150.653 408.801 150.214 409.277 149.654 409.622C149.104 409.958 148.492 410.126 147.82 410.126C147.232 410.126 146.71 410.009 146.252 409.776C145.795 409.533 145.422 409.235 145.132 408.88V413.668H143.536V402.286H145.132V403.42ZM149.822 406.108C149.822 405.576 149.71 405.119 149.486 404.736C149.272 404.344 148.982 404.05 148.618 403.854C148.264 403.649 147.881 403.546 147.47 403.546C147.069 403.546 146.686 403.649 146.322 403.854C145.968 404.059 145.678 404.358 145.454 404.75C145.24 405.142 145.132 405.604 145.132 406.136C145.132 406.668 145.24 407.135 145.454 407.536C145.678 407.928 145.968 408.227 146.322 408.432C146.686 408.637 147.069 408.74 147.47 408.74C147.881 408.74 148.264 408.637 148.618 408.432C148.982 408.217 149.272 407.909 149.486 407.508C149.71 407.107 149.822 406.64 149.822 406.108ZM154.621 403.42C154.891 403.065 155.26 402.767 155.727 402.524C156.193 402.281 156.721 402.16 157.309 402.16C157.981 402.16 158.592 402.328 159.143 402.664C159.703 402.991 160.141 403.453 160.459 404.05C160.776 404.647 160.935 405.333 160.935 406.108C160.935 406.883 160.776 407.578 160.459 408.194C160.141 408.801 159.703 409.277 159.143 409.622C158.592 409.958 157.981 410.126 157.309 410.126C156.721 410.126 156.198 410.009 155.741 409.776C155.283 409.533 154.91 409.235 154.621 408.88V413.668H153.025V402.286H154.621V403.42ZM159.311 406.108C159.311 405.576 159.199 405.119 158.975 404.736C158.76 404.344 158.471 404.05 158.107 403.854C157.752 403.649 157.369 403.546 156.959 403.546C156.557 403.546 156.175 403.649 155.811 403.854C155.456 404.059 155.167 404.358 154.943 404.75C154.728 405.142 154.621 405.604 154.621 406.136C154.621 406.668 154.728 407.135 154.943 407.536C155.167 407.928 155.456 408.227 155.811 408.432C156.175 408.637 156.557 408.74 156.959 408.74C157.369 408.74 157.752 408.637 158.107 408.432C158.471 408.217 158.76 407.909 158.975 407.508C159.199 407.107 159.311 406.64 159.311 406.108ZM165.859 410.126C165.131 410.126 164.473 409.963 163.885 409.636C163.297 409.3 162.835 408.833 162.499 408.236C162.163 407.629 161.995 406.929 161.995 406.136C161.995 405.352 162.168 404.657 162.513 404.05C162.858 403.443 163.33 402.977 163.927 402.65C164.524 402.323 165.192 402.16 165.929 402.16C166.666 402.16 167.334 402.323 167.931 402.65C168.528 402.977 169 403.443 169.345 404.05C169.69 404.657 169.863 405.352 169.863 406.136C169.863 406.92 169.686 407.615 169.331 408.222C168.976 408.829 168.491 409.3 167.875 409.636C167.268 409.963 166.596 410.126 165.859 410.126ZM165.859 408.74C166.27 408.74 166.652 408.642 167.007 408.446C167.371 408.25 167.665 407.956 167.889 407.564C168.113 407.172 168.225 406.696 168.225 406.136C168.225 405.576 168.118 405.105 167.903 404.722C167.688 404.33 167.404 404.036 167.049 403.84C166.694 403.644 166.312 403.546 165.901 403.546C165.49 403.546 165.108 403.644 164.753 403.84C164.408 404.036 164.132 404.33 163.927 404.722C163.722 405.105 163.619 405.576 163.619 406.136C163.619 406.967 163.829 407.611 164.249 408.068C164.678 408.516 165.215 408.74 165.859 408.74ZM173.037 403.406C173.27 403.014 173.578 402.711 173.961 402.496C174.353 402.272 174.815 402.16 175.347 402.16V403.812H174.941C174.315 403.812 173.839 403.971 173.513 404.288C173.195 404.605 173.037 405.156 173.037 405.94V410H171.441V402.286H173.037V403.406ZM178.676 403.588V407.858C178.676 408.147 178.741 408.357 178.872 408.488C179.012 408.609 179.245 408.67 179.572 408.67H180.552V410H179.292C178.573 410 178.022 409.832 177.64 409.496C177.257 409.16 177.066 408.614 177.066 407.858V403.588H176.156V402.286H177.066V400.368H178.676V402.286H180.552V403.588H178.676ZM189.205 400.956C190.269 400.956 191.188 401.152 191.963 401.544C192.737 401.936 193.325 402.487 193.727 403.196C194.137 403.896 194.343 404.713 194.343 405.646C194.343 406.393 194.212 407.107 193.951 407.788C193.699 408.469 193.33 409.025 192.845 409.454C192.369 409.883 191.804 410.098 191.151 410.098C190.675 410.098 190.301 409.995 190.031 409.79C189.76 409.575 189.592 409.277 189.527 408.894C189.237 409.267 188.873 409.561 188.435 409.776C187.996 409.991 187.539 410.098 187.063 410.098C186.344 410.098 185.779 409.883 185.369 409.454C184.967 409.015 184.767 408.423 184.767 407.676C184.767 406.967 184.911 406.304 185.201 405.688C185.499 405.072 185.915 404.582 186.447 404.218C186.979 403.845 187.576 403.658 188.239 403.658C189.051 403.658 189.62 403.933 189.947 404.484L190.073 403.784H191.459L190.759 407.788C190.731 407.984 190.717 408.157 190.717 408.306C190.717 408.549 190.763 408.731 190.857 408.852C190.959 408.973 191.137 409.034 191.389 409.034C191.743 409.034 192.047 408.861 192.299 408.516C192.551 408.161 192.737 407.727 192.859 407.214C192.989 406.701 193.055 406.201 193.055 405.716C193.055 404.531 192.709 403.625 192.019 403C191.328 402.375 190.325 402.062 189.009 402.062C187.907 402.062 186.918 402.323 186.041 402.846C185.173 403.369 184.491 404.087 183.997 405.002C183.502 405.917 183.255 406.934 183.255 408.054C183.255 409.249 183.609 410.159 184.319 410.784C185.028 411.409 186.041 411.722 187.357 411.722C188.243 411.722 189.018 411.559 189.681 411.232L189.891 412.296C189.041 412.66 188.089 412.842 187.035 412.842C186.017 412.842 185.126 412.651 184.361 412.268C183.595 411.885 183.003 411.339 182.583 410.63C182.163 409.93 181.953 409.113 181.953 408.18C181.953 406.845 182.261 405.627 182.877 404.526C183.502 403.425 184.365 402.557 185.467 401.922C186.568 401.278 187.814 400.956 189.205 400.956ZM187.553 408.866C187.945 408.866 188.299 408.754 188.617 408.53C188.943 408.297 189.2 407.993 189.387 407.62C189.573 407.237 189.667 406.831 189.667 406.402C189.667 405.954 189.541 405.59 189.289 405.31C189.046 405.021 188.701 404.876 188.253 404.876C187.851 404.876 187.497 405.002 187.189 405.254C186.89 405.497 186.657 405.814 186.489 406.206C186.33 406.598 186.251 407.009 186.251 407.438C186.251 407.877 186.358 408.227 186.573 408.488C186.787 408.74 187.114 408.866 187.553 408.866ZM205.716 402.16C206.323 402.16 206.864 402.286 207.34 402.538C207.825 402.79 208.203 403.163 208.474 403.658C208.754 404.153 208.894 404.75 208.894 405.45V410H207.312V405.688C207.312 404.997 207.139 404.47 206.794 404.106C206.449 403.733 205.977 403.546 205.38 403.546C204.783 403.546 204.307 403.733 203.952 404.106C203.607 404.47 203.434 404.997 203.434 405.688V410H201.852V405.688C201.852 404.997 201.679 404.47 201.334 404.106C200.989 403.733 200.517 403.546 199.92 403.546C199.323 403.546 198.847 403.733 198.492 404.106C198.147 404.47 197.974 404.997 197.974 405.688V410H196.378V402.286H197.974V403.168C198.235 402.851 198.567 402.603 198.968 402.426C199.369 402.249 199.799 402.16 200.256 402.16C200.872 402.16 201.423 402.291 201.908 402.552C202.393 402.813 202.767 403.191 203.028 403.686C203.261 403.219 203.625 402.851 204.12 402.58C204.615 402.3 205.147 402.16 205.716 402.16ZM210.393 406.108C210.393 405.333 210.552 404.647 210.869 404.05C211.196 403.453 211.634 402.991 212.185 402.664C212.745 402.328 213.361 402.16 214.033 402.16C214.64 402.16 215.167 402.281 215.615 402.524C216.072 402.757 216.436 403.051 216.707 403.406V402.286H218.317V410H216.707V408.852C216.436 409.216 216.068 409.519 215.601 409.762C215.134 410.005 214.602 410.126 214.005 410.126C213.342 410.126 212.736 409.958 212.185 409.622C211.634 409.277 211.196 408.801 210.869 408.194C210.552 407.578 210.393 406.883 210.393 406.108ZM216.707 406.136C216.707 405.604 216.595 405.142 216.371 404.75C216.156 404.358 215.872 404.059 215.517 403.854C215.162 403.649 214.78 403.546 214.369 403.546C213.958 403.546 213.576 403.649 213.221 403.854C212.866 404.05 212.577 404.344 212.353 404.736C212.138 405.119 212.031 405.576 212.031 406.108C212.031 406.64 212.138 407.107 212.353 407.508C212.577 407.909 212.866 408.217 213.221 408.432C213.585 408.637 213.968 408.74 214.369 408.74C214.78 408.74 215.162 408.637 215.517 408.432C215.872 408.227 216.156 407.928 216.371 407.536C216.595 407.135 216.707 406.668 216.707 406.136ZM223.213 410.126C222.607 410.126 222.061 410.019 221.575 409.804C221.099 409.58 220.721 409.281 220.441 408.908C220.161 408.525 220.012 408.101 219.993 407.634H221.645C221.673 407.961 221.827 408.236 222.107 408.46C222.397 408.675 222.756 408.782 223.185 408.782C223.633 408.782 223.979 408.698 224.221 408.53C224.473 408.353 224.599 408.129 224.599 407.858C224.599 407.569 224.459 407.354 224.179 407.214C223.909 407.074 223.475 406.92 222.877 406.752C222.299 406.593 221.827 406.439 221.463 406.29C221.099 406.141 220.782 405.912 220.511 405.604C220.25 405.296 220.119 404.89 220.119 404.386C220.119 403.975 220.241 403.602 220.483 403.266C220.726 402.921 221.071 402.65 221.519 402.454C221.977 402.258 222.499 402.16 223.087 402.16C223.965 402.16 224.669 402.384 225.201 402.832C225.743 403.271 226.032 403.873 226.069 404.638H224.473C224.445 404.293 224.305 404.017 224.053 403.812C223.801 403.607 223.461 403.504 223.031 403.504C222.611 403.504 222.289 403.583 222.065 403.742C221.841 403.901 221.729 404.111 221.729 404.372C221.729 404.577 221.804 404.75 221.953 404.89C222.103 405.03 222.285 405.142 222.499 405.226C222.714 405.301 223.031 405.399 223.451 405.52C224.011 405.669 224.469 405.823 224.823 405.982C225.187 406.131 225.5 406.355 225.761 406.654C226.023 406.953 226.158 407.349 226.167 407.844C226.167 408.283 226.046 408.675 225.803 409.02C225.561 409.365 225.215 409.636 224.767 409.832C224.329 410.028 223.811 410.126 223.213 410.126ZM229.754 403.588V407.858C229.754 408.147 229.819 408.357 229.95 408.488C230.09 408.609 230.323 408.67 230.65 408.67H231.63V410H230.37C229.651 410 229.1 409.832 228.718 409.496C228.335 409.16 228.144 408.614 228.144 407.858V403.588H227.234V402.286H228.144V400.368H229.754V402.286H231.63V403.588H229.754ZM240.171 405.954C240.171 406.243 240.152 406.505 240.115 406.738H234.221C234.267 407.354 234.496 407.849 234.907 408.222C235.317 408.595 235.821 408.782 236.419 408.782C237.277 408.782 237.884 408.423 238.239 407.704H239.961C239.727 408.413 239.303 408.997 238.687 409.454C238.08 409.902 237.324 410.126 236.419 410.126C235.681 410.126 235.019 409.963 234.431 409.636C233.852 409.3 233.395 408.833 233.059 408.236C232.732 407.629 232.569 406.929 232.569 406.136C232.569 405.343 232.727 404.647 233.045 404.05C233.371 403.443 233.824 402.977 234.403 402.65C234.991 402.323 235.663 402.16 236.419 402.16C237.147 402.16 237.795 402.319 238.365 402.636C238.934 402.953 239.377 403.401 239.695 403.98C240.012 404.549 240.171 405.207 240.171 405.954ZM238.505 405.45C238.495 404.862 238.285 404.391 237.875 404.036C237.464 403.681 236.955 403.504 236.349 403.504C235.798 403.504 235.327 403.681 234.935 404.036C234.543 404.381 234.309 404.853 234.235 405.45H238.505ZM243.337 403.406C243.571 403.014 243.879 402.711 244.261 402.496C244.653 402.272 245.115 402.16 245.647 402.16V403.812H245.241C244.616 403.812 244.14 403.971 243.813 404.288C243.496 404.605 243.337 405.156 243.337 405.94V410H241.741V402.286H243.337V403.406ZM248.976 403.588V407.858C248.976 408.147 249.042 408.357 249.172 408.488C249.312 408.609 249.546 408.67 249.872 408.67H250.852V410H249.592C248.874 410 248.323 409.832 247.94 409.496C247.558 409.16 247.366 408.614 247.366 407.858V403.588H246.456V402.286H247.366V400.368H248.976V402.286H250.852V403.588H248.976ZM251.791 406.108C251.791 405.333 251.95 404.647 252.267 404.05C252.594 403.453 253.033 402.991 253.583 402.664C254.143 402.328 254.759 402.16 255.431 402.16C256.038 402.16 256.565 402.281 257.013 402.524C257.471 402.757 257.835 403.051 258.105 403.406V402.286H259.715V410H258.105V408.852C257.835 409.216 257.466 409.519 256.999 409.762C256.533 410.005 256.001 410.126 255.403 410.126C254.741 410.126 254.134 409.958 253.583 409.622C253.033 409.277 252.594 408.801 252.267 408.194C251.95 407.578 251.791 406.883 251.791 406.108ZM258.105 406.136C258.105 405.604 257.993 405.142 257.769 404.75C257.555 404.358 257.27 404.059 256.915 403.854C256.561 403.649 256.178 403.546 255.767 403.546C255.357 403.546 254.974 403.649 254.619 403.854C254.265 404.05 253.975 404.344 253.751 404.736C253.537 405.119 253.429 405.576 253.429 406.108C253.429 406.64 253.537 407.107 253.751 407.508C253.975 407.909 254.265 408.217 254.619 408.432C254.983 408.637 255.366 408.74 255.767 408.74C256.178 408.74 256.561 408.637 256.915 408.432C257.27 408.227 257.555 407.928 257.769 407.536C257.993 407.135 258.105 406.668 258.105 406.136ZM264.92 402.16C265.517 402.16 266.044 402.281 266.502 402.524C266.968 402.757 267.332 403.051 267.594 403.406V402.286H269.204V410.126C269.204 410.835 269.054 411.465 268.756 412.016C268.457 412.576 268.023 413.015 267.454 413.332C266.894 413.649 266.222 413.808 265.438 413.808C264.392 413.808 263.524 413.561 262.834 413.066C262.143 412.581 261.751 411.918 261.658 411.078H263.24C263.361 411.479 263.618 411.801 264.01 412.044C264.411 412.296 264.887 412.422 265.438 412.422C266.082 412.422 266.6 412.226 266.992 411.834C267.393 411.442 267.594 410.873 267.594 410.126V408.838C267.323 409.202 266.954 409.51 266.488 409.762C266.03 410.005 265.508 410.126 264.92 410.126C264.248 410.126 263.632 409.958 263.072 409.622C262.521 409.277 262.082 408.801 261.756 408.194C261.438 407.578 261.28 406.883 261.28 406.108C261.28 405.333 261.438 404.647 261.756 404.05C262.082 403.453 262.521 402.991 263.072 402.664C263.632 402.328 264.248 402.16 264.92 402.16ZM267.594 406.136C267.594 405.604 267.482 405.142 267.258 404.75C267.043 404.358 266.758 404.059 266.404 403.854C266.049 403.649 265.666 403.546 265.256 403.546C264.845 403.546 264.462 403.649 264.108 403.854C263.753 404.05 263.464 404.344 263.24 404.736C263.025 405.119 262.918 405.576 262.918 406.108C262.918 406.64 263.025 407.107 263.24 407.508C263.464 407.909 263.753 408.217 264.108 408.432C264.472 408.637 264.854 408.74 265.256 408.74C265.666 408.74 266.049 408.637 266.404 408.432C266.758 408.227 267.043 407.928 267.258 407.536C267.482 407.135 267.594 406.668 267.594 406.136ZM271.944 410.098C271.655 410.098 271.412 410 271.216 409.804C271.02 409.608 270.922 409.365 270.922 409.076C270.922 408.787 271.02 408.544 271.216 408.348C271.412 408.152 271.655 408.054 271.944 408.054C272.224 408.054 272.462 408.152 272.658 408.348C272.854 408.544 272.952 408.787 272.952 409.076C272.952 409.365 272.854 409.608 272.658 409.804C272.462 410 272.224 410.098 271.944 410.098ZM275.489 401.264C275.2 401.264 274.957 401.166 274.761 400.97C274.565 400.774 274.467 400.531 274.467 400.242C274.467 399.953 274.565 399.71 274.761 399.514C274.957 399.318 275.2 399.22 275.489 399.22C275.769 399.22 276.007 399.318 276.203 399.514C276.399 399.71 276.497 399.953 276.497 400.242C276.497 400.531 276.399 400.774 276.203 400.97C276.007 401.166 275.769 401.264 275.489 401.264ZM276.273 402.286V410H274.677V402.286H276.273ZM282.26 402.16C282.867 402.16 283.408 402.286 283.884 402.538C284.37 402.79 284.748 403.163 285.018 403.658C285.289 404.153 285.424 404.75 285.424 405.45V410H283.842V405.688C283.842 404.997 283.67 404.47 283.324 404.106C282.979 403.733 282.508 403.546 281.91 403.546C281.313 403.546 280.837 403.733 280.482 404.106C280.137 404.47 279.964 404.997 279.964 405.688V410H278.368V402.286H279.964V403.168C280.226 402.851 280.557 402.603 280.958 402.426C281.369 402.249 281.803 402.16 282.26 402.16Z" fill="#5C6272"/>
<path d="M125.916 411.4H180.972V412.1H125.916V411.4Z" fill="#5C6272"/>
<path d="M180.973 411.4H286.404V412.1H180.973V411.4Z" fill="#5C6272"/>
<a href="mailto:support@mastertag.in">
<rect fill="black" fill-opacity="0" x="172.973" y="3.5" width="105.432" height="21"/>
</a>
<path d="M1.19264 87.7706C1.19264 87.4514 1.45138 87.1926 1.77055 87.1926H314.229C314.549 87.1926 314.807 87.4514 314.807 87.7706V132.229C314.807 132.549 314.549 132.807 314.229 132.807H1.77053C1.45137 132.807 1.19264 132.549 1.19264 132.229V87.7706Z" fill="#F5F5F5" stroke="#212529" stroke-width="0.385276"/>
<path d="M20.3649 107.09C20.0409 106.466 19.5909 105.998 19.0149 105.686C18.4389 105.362 17.7729 105.2 17.0169 105.2C16.1889 105.2 15.4509 105.386 14.8029 105.758C14.1549 106.13 13.6449 106.658 13.2729 107.342C12.9129 108.026 12.7329 108.818 12.7329 109.718C12.7329 110.618 12.9129 111.416 13.2729 112.112C13.6449 112.796 14.1549 113.324 14.8029 113.696C15.4509 114.068 16.1889 114.254 17.0169 114.254C18.1329 114.254 19.0389 113.942 19.7349 113.318C20.4309 112.694 20.8569 111.848 21.0129 110.78H16.3149V109.142H23.2089V110.744C23.0769 111.716 22.7289 112.61 22.1649 113.426C21.6129 114.242 20.8869 114.896 19.9869 115.388C19.0989 115.868 18.1089 116.108 17.0169 116.108C15.8409 116.108 14.7669 115.838 13.7949 115.298C12.8229 114.746 12.0489 113.984 11.4729 113.012C10.9089 112.04 10.6269 110.942 10.6269 109.718C10.6269 108.494 10.9089 107.396 11.4729 106.424C12.0489 105.452 12.8229 104.696 13.7949 104.156C14.7789 103.604 15.8529 103.328 17.0169 103.328C18.3489 103.328 19.5309 103.658 20.5629 104.318C21.6069 104.966 22.3629 105.89 22.8309 107.09H20.3649ZM34.3228 110.798C34.3228 111.17 34.2988 111.506 34.2508 111.806H26.6728C26.7328 112.598 27.0268 113.234 27.5548 113.714C28.0828 114.194 28.7308 114.434 29.4988 114.434C30.6028 114.434 31.3828 113.972 31.8388 113.048H34.0528C33.7528 113.96 33.2068 114.71 32.4148 115.298C31.6348 115.874 30.6628 116.162 29.4988 116.162C28.5508 116.162 27.6988 115.952 26.9428 115.532C26.1988 115.1 25.6108 114.5 25.1788 113.732C24.7588 112.952 24.5488 112.052 24.5488 111.032C24.5488 110.012 24.7528 109.118 25.1608 108.35C25.5808 107.57 26.1628 106.97 26.9068 106.55C27.6628 106.13 28.5268 105.92 29.4988 105.92C30.4348 105.92 31.2688 106.124 32.0008 106.532C32.7328 106.94 33.3028 107.516 33.7108 108.26C34.1188 108.992 34.3228 109.838 34.3228 110.798ZM32.1808 110.15C32.1688 109.394 31.8988 108.788 31.3708 108.332C30.8428 107.876 30.1888 107.648 29.4088 107.648C28.7008 107.648 28.0948 107.876 27.5908 108.332C27.0868 108.776 26.7868 109.382 26.6908 110.15H32.1808ZM38.7362 107.756V113.246C38.7362 113.618 38.8202 113.888 38.9882 114.056C39.1682 114.212 39.4682 114.29 39.8882 114.29H41.1482V116H39.5282C38.6042 116 37.8962 115.784 37.4042 115.352C36.9122 114.92 36.6662 114.218 36.6662 113.246V107.756H35.4962V106.082H36.6662V103.616H38.7362V106.082H41.1482V107.756H38.7362ZM51.8372 116.126C50.9972 116.126 50.2412 115.982 49.5692 115.694C48.8972 115.394 48.3692 114.974 47.9852 114.434C47.6012 113.894 47.4092 113.264 47.4092 112.544H49.6052C49.6532 113.084 49.8632 113.528 50.2352 113.876C50.6192 114.224 51.1532 114.398 51.8372 114.398C52.5452 114.398 53.0972 114.23 53.4932 113.894C53.8892 113.546 54.0872 113.102 54.0872 112.562C54.0872 112.142 53.9612 111.8 53.7092 111.536C53.4692 111.272 53.1632 111.068 52.7912 110.924C52.4312 110.78 51.9272 110.624 51.2792 110.456C50.4632 110.24 49.7972 110.024 49.2812 109.808C48.7772 109.58 48.3452 109.232 47.9852 108.764C47.6252 108.296 47.4452 107.672 47.4452 106.892C47.4452 106.172 47.6252 105.542 47.9852 105.002C48.3452 104.462 48.8492 104.048 49.4972 103.76C50.1452 103.472 50.8952 103.328 51.7472 103.328C52.9592 103.328 53.9492 103.634 54.7172 104.246C55.4972 104.846 55.9292 105.674 56.0132 106.73H53.7452C53.7092 106.274 53.4932 105.884 53.0972 105.56C52.7012 105.236 52.1792 105.074 51.5312 105.074C50.9432 105.074 50.4632 105.224 50.0912 105.524C49.7192 105.824 49.5332 106.256 49.5332 106.82C49.5332 107.204 49.6472 107.522 49.8752 107.774C50.1152 108.014 50.4152 108.206 50.7752 108.35C51.1352 108.494 51.6272 108.65 52.2512 108.818C53.0792 109.046 53.7512 109.274 54.2672 109.502C54.7952 109.73 55.2392 110.084 55.5992 110.564C55.9712 111.032 56.1572 111.662 56.1572 112.454C56.1572 113.09 55.9832 113.69 55.6352 114.254C55.2992 114.818 54.8012 115.274 54.1412 115.622C53.4932 115.958 52.7252 116.126 51.8372 116.126ZM60.9725 107.756V113.246C60.9725 113.618 61.0565 113.888 61.2245 114.056C61.4045 114.212 61.7045 114.29 62.1245 114.29H63.3845V116H61.7645C60.8405 116 60.1325 115.784 59.6405 115.352C59.1485 114.92 58.9025 114.218 58.9025 113.246V107.756H57.7325V106.082H58.9025V103.616H60.9725V106.082H63.3845V107.756H60.9725ZM64.5918 110.996C64.5918 110 64.7958 109.118 65.2038 108.35C65.6238 107.582 66.1878 106.988 66.8958 106.568C67.6158 106.136 68.4078 105.92 69.2718 105.92C70.0518 105.92 70.7298 106.076 71.3058 106.388C71.8938 106.688 72.3618 107.066 72.7098 107.522V106.082H74.7798V116H72.7098V114.524C72.3618 114.992 71.8878 115.382 71.2878 115.694C70.6878 116.006 70.0038 116.162 69.2358 116.162C68.3838 116.162 67.6038 115.946 66.8958 115.514C66.1878 115.07 65.6238 114.458 65.2038 113.678C64.7958 112.886 64.5918 111.992 64.5918 110.996ZM72.7098 111.032C72.7098 110.348 72.5658 109.754 72.2778 109.25C72.0018 108.746 71.6358 108.362 71.1798 108.098C70.7238 107.834 70.2318 107.702 69.7038 107.702C69.1758 107.702 68.6838 107.834 68.2278 108.098C67.7718 108.35 67.3998 108.728 67.1118 109.232C66.8358 109.724 66.6978 110.312 66.6978 110.996C66.6978 111.68 66.8358 112.28 67.1118 112.796C67.3998 113.312 67.7718 113.708 68.2278 113.984C68.6958 114.248 69.1878 114.38 69.7038 114.38C70.2318 114.38 70.7238 114.248 71.1798 113.984C71.6358 113.72 72.0018 113.336 72.2778 112.832C72.5658 112.316 72.7098 111.716 72.7098 111.032ZM79.527 107.522C79.827 107.018 80.223 106.628 80.715 106.352C81.219 106.064 81.813 105.92 82.497 105.92V108.044H81.975C81.171 108.044 80.559 108.248 80.139 108.656C79.731 109.064 79.527 109.772 79.527 110.78V116H77.475V106.082H79.527V107.522ZM86.7772 107.756V113.246C86.7772 113.618 86.8612 113.888 87.0292 114.056C87.2092 114.212 87.5092 114.29 87.9292 114.29H89.1892V116H87.5692C86.6452 116 85.9372 115.784 85.4452 115.352C84.9532 114.92 84.7072 114.218 84.7072 113.246V107.756H83.5372V106.082H84.7072V103.616H86.7772V106.082H89.1892V107.756H86.7772ZM100.17 110.798C100.17 111.17 100.146 111.506 100.098 111.806H92.5205C92.5805 112.598 92.8745 113.234 93.4025 113.714C93.9305 114.194 94.5785 114.434 95.3465 114.434C96.4505 114.434 97.2305 113.972 97.6865 113.048H99.9005C99.6005 113.96 99.0545 114.71 98.2625 115.298C97.4825 115.874 96.5105 116.162 95.3465 116.162C94.3985 116.162 93.5465 115.952 92.7905 115.532C92.0465 115.1 91.4585 114.5 91.0265 113.732C90.6065 112.952 90.3965 112.052 90.3965 111.032C90.3965 110.012 90.6005 109.118 91.0085 108.35C91.4285 107.57 92.0105 106.97 92.7545 106.55C93.5105 106.13 94.3745 105.92 95.3465 105.92C96.2825 105.92 97.1165 106.124 97.8485 106.532C98.5805 106.94 99.1505 107.516 99.5585 108.26C99.9665 108.992 100.17 109.838 100.17 110.798ZM98.0285 110.15C98.0165 109.394 97.7465 108.788 97.2185 108.332C96.6905 107.876 96.0365 107.648 95.2565 107.648C94.5485 107.648 93.9425 107.876 93.4385 108.332C92.9345 108.776 92.6345 109.382 92.5385 110.15H98.0285ZM101.506 110.996C101.506 110 101.71 109.118 102.118 108.35C102.538 107.582 103.102 106.988 103.81 106.568C104.53 106.136 105.328 105.92 106.204 105.92C106.852 105.92 107.488 106.064 108.112 106.352C108.748 106.628 109.252 107 109.624 107.468V102.68H111.694V116H109.624V114.506C109.288 114.986 108.82 115.382 108.22 115.694C107.632 116.006 106.954 116.162 106.186 116.162C105.322 116.162 104.53 115.946 103.81 115.514C103.102 115.07 102.538 114.458 102.118 113.678C101.71 112.886 101.506 111.992 101.506 110.996ZM109.624 111.032C109.624 110.348 109.48 109.754 109.192 109.25C108.916 108.746 108.55 108.362 108.094 108.098C107.638 107.834 107.146 107.702 106.618 107.702C106.09 107.702 105.598 107.834 105.142 108.098C104.686 108.35 104.314 108.728 104.026 109.232C103.75 109.724 103.612 110.312 103.612 110.996C103.612 111.68 103.75 112.28 104.026 112.796C104.314 113.312 104.686 113.708 105.142 113.984C105.61 114.248 106.102 114.38 106.618 114.38C107.146 114.38 107.638 114.248 108.094 113.984C108.55 113.72 108.916 113.336 109.192 112.832C109.48 112.316 109.624 111.716 109.624 111.032Z" fill="#212529"/>
<path d="M1.10302 142.103H274.897V170.897H1.10302V142.103Z" fill="white" stroke="#AEAEAE" stroke-width="0.206037"/>
<path d="M14.768 162.112C14.032 162.112 13.3707 161.984 12.784 161.728C12.208 161.461 11.7547 161.099 11.424 160.64C11.0933 160.171 10.9227 159.632 10.912 159.024H12.464C12.5173 159.547 12.7307 159.989 13.104 160.352C13.488 160.704 14.0427 160.88 14.768 160.88C15.4613 160.88 16.0053 160.709 16.4 160.368C16.8053 160.016 17.008 159.568 17.008 159.024C17.008 158.597 16.8907 158.251 16.656 157.984C16.4213 157.717 16.128 157.515 15.776 157.376C15.424 157.237 14.9493 157.088 14.352 156.928C13.616 156.736 13.024 156.544 12.576 156.352C12.1387 156.16 11.76 155.861 11.44 155.456C11.1307 155.04 10.976 154.485 10.976 153.792C10.976 153.184 11.1307 152.645 11.44 152.176C11.7493 151.707 12.1813 151.344 12.736 151.088C13.3013 150.832 13.9467 150.704 14.672 150.704C15.7173 150.704 16.5707 150.965 17.232 151.488C17.904 152.011 18.2827 152.704 18.368 153.568H16.768C16.7147 153.141 16.4907 152.768 16.096 152.448C15.7013 152.117 15.1787 151.952 14.528 151.952C13.92 151.952 13.424 152.112 13.04 152.432C12.656 152.741 12.464 153.179 12.464 153.744C12.464 154.149 12.576 154.48 12.8 154.736C13.0347 154.992 13.3173 155.189 13.648 155.328C13.9893 155.456 14.464 155.605 15.072 155.776C15.808 155.979 16.4 156.181 16.848 156.384C17.296 156.576 17.68 156.88 18 157.296C18.32 157.701 18.48 158.256 18.48 158.96C18.48 159.504 18.336 160.016 18.048 160.496C17.76 160.976 17.3333 161.365 16.768 161.664C16.2027 161.963 15.536 162.112 14.768 162.112ZM28.6226 157.28C28.6226 157.557 28.6066 157.851 28.5746 158.16H21.5666C21.62 159.024 21.9133 159.701 22.4466 160.192C22.9906 160.672 23.6466 160.912 24.4146 160.912C25.044 160.912 25.5666 160.768 25.9826 160.48C26.4093 160.181 26.708 159.787 26.8786 159.296H28.4466C28.212 160.139 27.7426 160.827 27.0386 161.36C26.3346 161.883 25.46 162.144 24.4146 162.144C23.5826 162.144 22.836 161.957 22.1746 161.584C21.524 161.211 21.012 160.683 20.6386 160C20.2653 159.307 20.0786 158.507 20.0786 157.6C20.0786 156.693 20.26 155.899 20.6226 155.216C20.9853 154.533 21.492 154.011 22.1426 153.648C22.804 153.275 23.5613 153.088 24.4146 153.088C25.2466 153.088 25.9826 153.269 26.6226 153.632C27.2626 153.995 27.7533 154.496 28.0946 155.136C28.4466 155.765 28.6226 156.48 28.6226 157.28ZM27.1186 156.976C27.1186 156.421 26.996 155.947 26.7506 155.552C26.5053 155.147 26.1693 154.843 25.7426 154.64C25.3266 154.427 24.8626 154.32 24.3506 154.32C23.6146 154.32 22.9853 154.555 22.4626 155.024C21.9506 155.493 21.6573 156.144 21.5826 156.976H27.1186ZM32.3205 154.432V159.6C32.3205 160.027 32.4112 160.331 32.5925 160.512C32.7738 160.683 33.0885 160.768 33.5365 160.768H34.6085V162H33.2965C32.4858 162 31.8778 161.813 31.4725 161.44C31.0672 161.067 30.8645 160.453 30.8645 159.6V154.432H29.7285V153.232H30.8645V151.024H32.3205V153.232H34.6085V154.432H32.3205ZM42.0623 150.848V157.904C42.0623 158.896 42.3023 159.632 42.7823 160.112C43.2729 160.592 43.9503 160.832 44.8143 160.832C45.6676 160.832 46.3343 160.592 46.8143 160.112C47.3049 159.632 47.5503 158.896 47.5503 157.904V150.848H49.0063V157.888C49.0063 158.816 48.8196 159.6 48.4462 160.24C48.0729 160.869 47.5663 161.339 46.9263 161.648C46.2969 161.957 45.5876 162.112 44.7983 162.112C44.0089 162.112 43.2943 161.957 42.6543 161.648C42.0249 161.339 41.5236 160.869 41.1503 160.24C40.7876 159.6 40.6063 158.816 40.6063 157.888V150.848H42.0623ZM52.8911 154.848C53.1791 154.347 53.6058 153.931 54.1711 153.6C54.7471 153.259 55.4138 153.088 56.1711 153.088C56.9498 153.088 57.6538 153.275 58.2831 153.648C58.9231 154.021 59.4245 154.549 59.7871 155.232C60.1498 155.904 60.3311 156.688 60.3311 157.584C60.3311 158.469 60.1498 159.259 59.7871 159.952C59.4245 160.645 58.9231 161.184 58.2831 161.568C57.6538 161.952 56.9498 162.144 56.1711 162.144C55.4245 162.144 54.7631 161.979 54.1871 161.648C53.6218 161.307 53.1898 160.885 52.8911 160.384V166.16H51.4351V153.232H52.8911V154.848ZM58.8431 157.584C58.8431 156.923 58.7098 156.347 58.4431 155.856C58.1765 155.365 57.8138 154.992 57.3551 154.736C56.9071 154.48 56.4111 154.352 55.8671 154.352C55.3338 154.352 54.8378 154.485 54.3791 154.752C53.9311 155.008 53.5685 155.387 53.2911 155.888C53.0245 156.379 52.8911 156.949 52.8911 157.6C52.8911 158.261 53.0245 158.843 53.2911 159.344C53.5685 159.835 53.9311 160.213 54.3791 160.48C54.8378 160.736 55.3338 160.864 55.8671 160.864C56.4111 160.864 56.9071 160.736 57.3551 160.48C57.8138 160.213 58.1765 159.835 58.4431 159.344C58.7098 158.843 58.8431 158.256 58.8431 157.584ZM77.8253 150.928V162H76.3693V153.744L72.6893 162H71.6653L67.9693 153.728V162H66.5133V150.928H68.0813L72.1773 160.08L76.2733 150.928H77.8253ZM87.8465 153.232L82.5665 166.128H81.0625L82.7905 161.904L79.2545 153.232H80.8705L83.6225 160.336L86.3425 153.232H87.8465ZM104.888 150.928V162H103.432V153.744L99.7518 162H98.7278L95.0318 153.728V162H93.5758V150.928H95.1438L99.2398 160.08L103.336 150.928H104.888ZM106.813 157.584C106.813 156.688 106.994 155.904 107.357 155.232C107.72 154.549 108.216 154.021 108.845 153.648C109.485 153.275 110.194 153.088 110.973 153.088C111.741 153.088 112.408 153.253 112.973 153.584C113.538 153.915 113.96 154.331 114.237 154.832V153.232H115.709V162H114.237V160.368C113.949 160.88 113.517 161.307 112.941 161.648C112.376 161.979 111.714 162.144 110.957 162.144C110.178 162.144 109.474 161.952 108.845 161.568C108.216 161.184 107.72 160.645 107.357 159.952C106.994 159.259 106.813 158.469 106.813 157.584ZM114.237 157.6C114.237 156.939 114.104 156.363 113.837 155.872C113.57 155.381 113.208 155.008 112.749 154.752C112.301 154.485 111.805 154.352 111.261 154.352C110.717 154.352 110.221 154.48 109.773 154.736C109.325 154.992 108.968 155.365 108.701 155.856C108.434 156.347 108.301 156.923 108.301 157.584C108.301 158.256 108.434 158.843 108.701 159.344C108.968 159.835 109.325 160.213 109.773 160.48C110.221 160.736 110.717 160.864 111.261 160.864C111.805 160.864 112.301 160.736 112.749 160.48C113.208 160.213 113.57 159.835 113.837 159.344C114.104 158.843 114.237 158.261 114.237 157.6ZM121.274 162.144C120.602 162.144 119.999 162.032 119.466 161.808C118.932 161.573 118.511 161.253 118.202 160.848C117.892 160.432 117.722 159.957 117.69 159.424H119.194C119.236 159.861 119.439 160.219 119.802 160.496C120.175 160.773 120.66 160.912 121.258 160.912C121.812 160.912 122.25 160.789 122.57 160.544C122.89 160.299 123.05 159.989 123.05 159.616C123.05 159.232 122.879 158.949 122.538 158.768C122.196 158.576 121.668 158.389 120.954 158.208C120.303 158.037 119.77 157.867 119.354 157.696C118.948 157.515 118.596 157.253 118.298 156.912C118.01 156.56 117.866 156.101 117.866 155.536C117.866 155.088 117.999 154.677 118.266 154.304C118.532 153.931 118.911 153.637 119.402 153.424C119.892 153.2 120.452 153.088 121.082 153.088C122.052 153.088 122.836 153.333 123.434 153.824C124.031 154.315 124.351 154.987 124.394 155.84H122.938C122.906 155.381 122.719 155.013 122.378 154.736C122.047 154.459 121.599 154.32 121.034 154.32C120.511 154.32 120.095 154.432 119.786 154.656C119.476 154.88 119.322 155.173 119.322 155.536C119.322 155.824 119.412 156.064 119.594 156.256C119.786 156.437 120.02 156.587 120.298 156.704C120.586 156.811 120.98 156.933 121.482 157.072C122.111 157.243 122.623 157.413 123.018 157.584C123.412 157.744 123.748 157.989 124.026 158.32C124.314 158.651 124.463 159.083 124.474 159.616C124.474 160.096 124.34 160.528 124.074 160.912C123.807 161.296 123.428 161.6 122.938 161.824C122.458 162.037 121.903 162.144 121.274 162.144ZM128.305 154.432V159.6C128.305 160.027 128.396 160.331 128.577 160.512C128.758 160.683 129.073 160.768 129.521 160.768H130.593V162H129.281C128.47 162 127.862 161.813 127.457 161.44C127.052 161.067 126.849 160.453 126.849 159.6V154.432H125.713V153.232H126.849V151.024H128.305V153.232H130.593V154.432H128.305ZM140.357 157.28C140.357 157.557 140.341 157.851 140.309 158.16H133.301C133.354 159.024 133.648 159.701 134.181 160.192C134.725 160.672 135.381 160.912 136.149 160.912C136.778 160.912 137.301 160.768 137.717 160.48C138.144 160.181 138.442 159.787 138.613 159.296H140.181C139.946 160.139 139.477 160.827 138.773 161.36C138.069 161.883 137.194 162.144 136.149 162.144C135.317 162.144 134.57 161.957 133.909 161.584C133.258 161.211 132.746 160.683 132.373 160C132 159.307 131.813 158.507 131.813 157.6C131.813 156.693 131.994 155.899 132.357 155.216C132.72 154.533 133.226 154.011 133.877 153.648C134.538 153.275 135.296 153.088 136.149 153.088C136.981 153.088 137.717 153.269 138.357 153.632C138.997 153.995 139.488 154.496 139.829 155.136C140.181 155.765 140.357 156.48 140.357 157.28ZM138.853 156.976C138.853 156.421 138.73 155.947 138.485 155.552C138.24 155.147 137.904 154.843 137.477 154.64C137.061 154.427 136.597 154.32 136.085 154.32C135.349 154.32 134.72 154.555 134.197 155.024C133.685 155.493 133.392 156.144 133.317 156.976H138.853ZM143.735 154.656C143.991 154.155 144.354 153.765 144.823 153.488C145.303 153.211 145.884 153.072 146.567 153.072V154.576H146.183C144.551 154.576 143.735 155.461 143.735 157.232V162H142.279V153.232H143.735V154.656ZM155.112 150.848V152.032H152.072V162H150.616V152.032H147.56V150.848H155.112ZM156.36 157.584C156.36 156.688 156.541 155.904 156.904 155.232C157.267 154.549 157.763 154.021 158.392 153.648C159.032 153.275 159.741 153.088 160.52 153.088C161.288 153.088 161.955 153.253 162.52 153.584C163.085 153.915 163.507 154.331 163.784 154.832V153.232H165.256V162H163.784V160.368C163.496 160.88 163.064 161.307 162.488 161.648C161.923 161.979 161.261 162.144 160.504 162.144C159.725 162.144 159.021 161.952 158.392 161.568C157.763 161.184 157.267 160.645 156.904 159.952C156.541 159.259 156.36 158.469 156.36 157.584ZM163.784 157.6C163.784 156.939 163.651 156.363 163.384 155.872C163.117 155.381 162.755 155.008 162.296 154.752C161.848 154.485 161.352 154.352 160.808 154.352C160.264 154.352 159.768 154.48 159.32 154.736C158.872 154.992 158.515 155.365 158.248 155.856C157.981 156.347 157.848 156.923 157.848 157.584C157.848 158.256 157.981 158.843 158.248 159.344C158.515 159.835 158.872 160.213 159.32 160.48C159.768 160.736 160.264 160.864 160.808 160.864C161.352 160.864 161.848 160.736 162.296 160.48C162.755 160.213 163.117 159.835 163.384 159.344C163.651 158.843 163.784 158.261 163.784 157.6ZM171.332 153.088C172.09 153.088 172.751 153.253 173.316 153.584C173.892 153.915 174.319 154.331 174.596 154.832V153.232H176.068V162.192C176.068 162.992 175.898 163.701 175.556 164.32C175.215 164.949 174.724 165.44 174.084 165.792C173.455 166.144 172.719 166.32 171.876 166.32C170.724 166.32 169.764 166.048 168.996 165.504C168.228 164.96 167.775 164.219 167.636 163.28H169.076C169.236 163.813 169.567 164.24 170.068 164.56C170.57 164.891 171.172 165.056 171.876 165.056C172.676 165.056 173.327 164.805 173.828 164.304C174.34 163.803 174.596 163.099 174.596 162.192V160.352C174.308 160.864 173.882 161.291 173.316 161.632C172.751 161.973 172.09 162.144 171.332 162.144C170.554 162.144 169.844 161.952 169.204 161.568C168.575 161.184 168.079 160.645 167.716 159.952C167.354 159.259 167.172 158.469 167.172 157.584C167.172 156.688 167.354 155.904 167.716 155.232C168.079 154.549 168.575 154.021 169.204 153.648C169.844 153.275 170.554 153.088 171.332 153.088ZM174.596 157.6C174.596 156.939 174.463 156.363 174.196 155.872C173.93 155.381 173.567 155.008 173.108 154.752C172.66 154.485 172.164 154.352 171.62 154.352C171.076 154.352 170.58 154.48 170.132 154.736C169.684 154.992 169.327 155.365 169.06 155.856C168.794 156.347 168.66 156.923 168.66 157.584C168.66 158.256 168.794 158.843 169.06 159.344C169.327 159.835 169.684 160.213 170.132 160.48C170.58 160.736 171.076 160.864 171.62 160.864C172.164 160.864 172.66 160.736 173.108 160.48C173.567 160.213 173.93 159.835 174.196 159.344C174.463 158.843 174.596 158.261 174.596 157.6Z" fill="#5F646A"/>
<path fill-rule="evenodd" clip-rule="evenodd" d="M266.115 157L263.065 153.444C262.98 153.345 262.978 153.181 263.06 153.079C263.142 152.976 263.278 152.973 263.363 153.073L266.571 156.814C266.658 156.916 266.658 157.084 266.571 157.186L263.363 160.927C263.278 161.027 263.142 161.024 263.06 160.921C262.978 160.819 262.98 160.655 263.065 160.556L266.115 157Z" stroke="#5F646A" stroke-width="0.727273"/>
<path d="M1.19264 227.771C1.19264 227.451 1.45138 227.193 1.77055 227.193H314.229C314.549 227.193 314.807 227.451 314.807 227.771V272.229C314.807 272.549 314.549 272.807 314.229 272.807H1.77053C1.45137 272.807 1.19264 272.549 1.19264 272.229V227.771Z" fill="#F5F5F5" stroke="#212529" stroke-width="0.385276"/>
<path d="M13.4094 243.49V251.464C13.4094 252.412 13.6554 253.126 14.1474 253.606C14.6514 254.086 15.3474 254.326 16.2354 254.326C17.1354 254.326 17.8314 254.086 18.3234 253.606C18.8274 253.126 19.0794 252.412 19.0794 251.464V243.49H21.1314V251.428C21.1314 252.448 20.9094 253.312 20.4654 254.02C20.0214 254.728 19.4274 255.256 18.6834 255.604C17.9394 255.952 17.1174 256.126 16.2174 256.126C15.3174 256.126 14.4954 255.952 13.7514 255.604C13.0194 255.256 12.4374 254.728 12.0054 254.02C11.5734 253.312 11.3574 252.448 11.3574 251.428V243.49H13.4094ZM27.4031 256.162C26.6231 256.162 25.9211 256.024 25.2971 255.748C24.6851 255.46 24.1991 255.076 23.8391 254.596C23.4791 254.104 23.2871 253.558 23.2631 252.958H25.3871C25.4231 253.378 25.6211 253.732 25.9811 254.02C26.3531 254.296 26.8151 254.434 27.3671 254.434C27.9431 254.434 28.3871 254.326 28.6991 254.11C29.0231 253.882 29.1851 253.594 29.1851 253.246C29.1851 252.874 29.0051 252.598 28.6451 252.418C28.2971 252.238 27.7391 252.04 26.9711 251.824C26.2271 251.62 25.6211 251.422 25.1531 251.23C24.6851 251.038 24.2771 250.744 23.9291 250.348C23.5931 249.952 23.4251 249.43 23.4251 248.782C23.4251 248.254 23.5811 247.774 23.8931 247.342C24.2051 246.898 24.6491 246.55 25.2251 246.298C25.8131 246.046 26.4851 245.92 27.2411 245.92C28.3691 245.92 29.2751 246.208 29.9591 246.784C30.6551 247.348 31.0271 248.122 31.0751 249.106H29.0231C28.9871 248.662 28.8071 248.308 28.4831 248.044C28.1591 247.78 27.7211 247.648 27.1691 247.648C26.6291 247.648 26.2151 247.75 25.9271 247.954C25.6391 248.158 25.4951 248.428 25.4951 248.764C25.4951 249.028 25.5911 249.25 25.7831 249.43C25.9751 249.61 26.2091 249.754 26.4851 249.862C26.7611 249.958 27.1691 250.084 27.7091 250.24C28.4291 250.432 29.0171 250.63 29.4731 250.834C29.9411 251.026 30.3431 251.314 30.6791 251.698C31.0151 252.082 31.1891 252.592 31.2011 253.228C31.2011 253.792 31.0451 254.296 30.7331 254.74C30.4211 255.184 29.9771 255.532 29.4011 255.784C28.8371 256.036 28.1711 256.162 27.4031 256.162ZM42.5084 250.798C42.5084 251.17 42.4844 251.506 42.4364 251.806H34.8584C34.9184 252.598 35.2124 253.234 35.7404 253.714C36.2684 254.194 36.9164 254.434 37.6844 254.434C38.7884 254.434 39.5684 253.972 40.0244 253.048H42.2384C41.9384 253.96 41.3924 254.71 40.6004 255.298C39.8204 255.874 38.8484 256.162 37.6844 256.162C36.7364 256.162 35.8844 255.952 35.1284 255.532C34.3844 255.1 33.7964 254.5 33.3644 253.732C32.9444 252.952 32.7344 252.052 32.7344 251.032C32.7344 250.012 32.9384 249.118 33.3464 248.35C33.7664 247.57 34.3484 246.97 35.0924 246.55C35.8484 246.13 36.7124 245.92 37.6844 245.92C38.6204 245.92 39.4544 246.124 40.1864 246.532C40.9184 246.94 41.4884 247.516 41.8964 248.26C42.3044 248.992 42.5084 249.838 42.5084 250.798ZM40.3664 250.15C40.3544 249.394 40.0844 248.788 39.5564 248.332C39.0284 247.876 38.3744 247.648 37.5944 247.648C36.8864 247.648 36.2804 247.876 35.7764 248.332C35.2724 248.776 34.9724 249.382 34.8764 250.15H40.3664ZM51.5975 247.756V253.246C51.5975 253.618 51.6815 253.888 51.8495 254.056C52.0295 254.212 52.3295 254.29 52.7495 254.29H54.0095V256H52.3895C51.4655 256 50.7575 255.784 50.2655 255.352C49.7735 254.92 49.5275 254.218 49.5275 253.246V247.756H48.3575V246.082H49.5275V243.616H51.5975V246.082H54.0095V247.756H51.5975ZM61.0308 245.92C61.7868 245.92 62.4588 246.082 63.0468 246.406C63.6468 246.73 64.1148 247.21 64.4508 247.846C64.7988 248.482 64.9728 249.25 64.9728 250.15V256H62.9388V250.456C62.9388 249.568 62.7168 248.89 62.2728 248.422C61.8288 247.942 61.2228 247.702 60.4548 247.702C59.6868 247.702 59.0748 247.942 58.6188 248.422C58.1748 248.89 57.9528 249.568 57.9528 250.456V256H55.9008V242.68H57.9528V247.234C58.3008 246.814 58.7388 246.49 59.2668 246.262C59.8068 246.034 60.3948 245.92 61.0308 245.92ZM76.6802 250.798C76.6802 251.17 76.6562 251.506 76.6082 251.806H69.0302C69.0902 252.598 69.3842 253.234 69.9122 253.714C70.4402 254.194 71.0882 254.434 71.8562 254.434C72.9602 254.434 73.7402 253.972 74.1962 253.048H76.4102C76.1102 253.96 75.5642 254.71 74.7722 255.298C73.9922 255.874 73.0202 256.162 71.8562 256.162C70.9082 256.162 70.0562 255.952 69.3002 255.532C68.5562 255.1 67.9682 254.5 67.5362 253.732C67.1162 252.952 66.9062 252.052 66.9062 251.032C66.9062 250.012 67.1102 249.118 67.5182 248.35C67.9382 247.57 68.5202 246.97 69.2642 246.55C70.0202 246.13 70.8842 245.92 71.8562 245.92C72.7922 245.92 73.6262 246.124 74.3582 246.532C75.0902 246.94 75.6602 247.516 76.0682 248.26C76.4762 248.992 76.6802 249.838 76.6802 250.798ZM74.5382 250.15C74.5262 249.394 74.2562 248.788 73.7282 248.332C73.2002 247.876 72.5462 247.648 71.7662 247.648C71.0582 247.648 70.4522 247.876 69.9482 248.332C69.4442 248.776 69.1442 249.382 69.0482 250.15H74.5382ZM90.9174 253.444H85.6794L84.7794 256H82.6374L87.1194 243.472H89.4954L93.9774 256H91.8174L90.9174 253.444ZM90.3414 251.77L88.3074 245.956L86.2554 251.77H90.3414ZM97.9782 247.54C98.3262 247.084 98.8002 246.7 99.4002 246.388C100 246.076 100.678 245.92 101.434 245.92C102.298 245.92 103.084 246.136 103.792 246.568C104.512 246.988 105.076 247.582 105.484 248.35C105.892 249.118 106.096 250 106.096 250.996C106.096 251.992 105.892 252.886 105.484 253.678C105.076 254.458 104.512 255.07 103.792 255.514C103.084 255.946 102.298 256.162 101.434 256.162C100.678 256.162 100.006 256.012 99.4182 255.712C98.8302 255.4 98.3502 255.016 97.9782 254.56V260.716H95.9262V246.082H97.9782V247.54ZM104.008 250.996C104.008 250.312 103.864 249.724 103.576 249.232C103.3 248.728 102.928 248.35 102.46 248.098C102.004 247.834 101.512 247.702 100.984 247.702C100.468 247.702 99.9762 247.834 99.5082 248.098C99.0522 248.362 98.6802 248.746 98.3922 249.25C98.1162 249.754 97.9782 250.348 97.9782 251.032C97.9782 251.716 98.1162 252.316 98.3922 252.832C98.6802 253.336 99.0522 253.72 99.5082 253.984C99.9762 254.248 100.468 254.38 100.984 254.38C101.512 254.38 102.004 254.248 102.46 253.984C102.928 253.708 103.3 253.312 103.576 252.796C103.864 252.28 104.008 251.68 104.008 250.996ZM110.177 247.54C110.525 247.084 110.999 246.7 111.599 246.388C112.199 246.076 112.877 245.92 113.633 245.92C114.497 245.92 115.283 246.136 115.991 246.568C116.711 246.988 117.275 247.582 117.683 248.35C118.091 249.118 118.295 250 118.295 250.996C118.295 251.992 118.091 252.886 117.683 253.678C117.275 254.458 116.711 255.07 115.991 255.514C115.283 255.946 114.497 256.162 113.633 256.162C112.877 256.162 112.205 256.012 111.617 255.712C111.029 255.4 110.549 255.016 110.177 254.56V260.716H108.125V246.082H110.177V247.54ZM116.207 250.996C116.207 250.312 116.063 249.724 115.775 249.232C115.499 248.728 115.127 248.35 114.659 248.098C114.203 247.834 113.711 247.702 113.183 247.702C112.667 247.702 112.175 247.834 111.707 248.098C111.251 248.362 110.879 248.746 110.591 249.25C110.315 249.754 110.177 250.348 110.177 251.032C110.177 251.716 110.315 252.316 110.591 252.832C110.879 253.336 111.251 253.72 111.707 253.984C112.175 254.248 112.667 254.38 113.183 254.38C113.711 254.38 114.203 254.248 114.659 253.984C115.127 253.708 115.499 253.312 115.775 252.796C116.063 252.28 116.207 251.68 116.207 250.996Z" fill="#212529"/>
<path d="M1.10302 282.103H274.897V310.897H1.10302V282.103Z" fill="white" stroke="#AEAEAE" stroke-width="0.206037"/>
<path d="M17.536 290.848V292.032H12.688V295.792H16.624V296.976H12.688V302H11.232V290.848H17.536ZM20.0465 291.808C19.7692 291.808 19.5345 291.712 19.3425 291.52C19.1505 291.328 19.0545 291.093 19.0545 290.816C19.0545 290.539 19.1505 290.304 19.3425 290.112C19.5345 289.92 19.7692 289.824 20.0465 289.824C20.3132 289.824 20.5372 289.92 20.7185 290.112C20.9105 290.304 21.0065 290.539 21.0065 290.816C21.0065 291.093 20.9105 291.328 20.7185 291.52C20.5372 291.712 20.3132 291.808 20.0465 291.808ZM20.7505 293.232V302H19.2945V293.232H20.7505ZM27.504 293.072C28.5707 293.072 29.4347 293.397 30.096 294.048C30.7573 294.688 31.088 295.616 31.088 296.832V302H29.648V297.04C29.648 296.165 29.4293 295.499 28.992 295.04C28.5547 294.571 27.9573 294.336 27.2 294.336C26.432 294.336 25.8187 294.576 25.36 295.056C24.912 295.536 24.688 296.235 24.688 297.152V302H23.232V293.232H24.688V294.48C24.976 294.032 25.3653 293.685 25.856 293.44C26.3573 293.195 26.9067 293.072 27.504 293.072ZM32.9224 297.584C32.9224 296.688 33.1037 295.904 33.4664 295.232C33.829 294.549 34.325 294.021 34.9544 293.648C35.5944 293.275 36.309 293.088 37.0984 293.088C37.781 293.088 38.4157 293.248 39.0024 293.568C39.589 293.877 40.037 294.288 40.3464 294.8V290.16H41.8184V302H40.3464V300.352C40.0584 300.875 39.6317 301.307 39.0664 301.648C38.501 301.979 37.8397 302.144 37.0824 302.144C36.3037 302.144 35.5944 301.952 34.9544 301.568C34.325 301.184 33.829 300.645 33.4664 299.952C33.1037 299.259 32.9224 298.469 32.9224 297.584ZM40.3464 297.6C40.3464 296.939 40.213 296.363 39.9464 295.872C39.6797 295.381 39.317 295.008 38.8584 294.752C38.4104 294.485 37.9144 294.352 37.3704 294.352C36.8264 294.352 36.3304 294.48 35.8824 294.736C35.4344 294.992 35.077 295.365 34.8104 295.856C34.5437 296.347 34.4104 296.923 34.4104 297.584C34.4104 298.256 34.5437 298.843 34.8104 299.344C35.077 299.835 35.4344 300.213 35.8824 300.48C36.3304 300.736 36.8264 300.864 37.3704 300.864C37.9144 300.864 38.4104 300.736 38.8584 300.48C39.317 300.213 39.6797 299.835 39.9464 299.344C40.213 298.843 40.3464 298.261 40.3464 297.6ZM59.8565 290.928V302H58.4005V293.744L54.7205 302H53.6965L50.0005 293.728V302H48.5445V290.928H50.1125L54.2085 300.08L58.3045 290.928H59.8565ZM69.8778 293.232L64.5978 306.128H63.0938L64.8218 301.904L61.2858 293.232H62.9018L65.6538 300.336L68.3738 293.232H69.8778ZM86.919 290.928V302H85.463V293.744L81.783 302H80.759L77.063 293.728V302H75.607V290.928H77.175L81.271 300.08L85.367 290.928H86.919ZM88.8443 297.584C88.8443 296.688 89.0256 295.904 89.3883 295.232C89.7509 294.549 90.2469 294.021 90.8763 293.648C91.5163 293.275 92.2256 293.088 93.0043 293.088C93.7723 293.088 94.4389 293.253 95.0043 293.584C95.5696 293.915 95.9909 294.331 96.2683 294.832V293.232H97.7403V302H96.2683V300.368C95.9803 300.88 95.5483 301.307 94.9723 301.648C94.4069 301.979 93.7456 302.144 92.9883 302.144C92.2096 302.144 91.5056 301.952 90.8763 301.568C90.2469 301.184 89.7509 300.645 89.3883 299.952C89.0256 299.259 88.8443 298.469 88.8443 297.584ZM96.2683 297.6C96.2683 296.939 96.1349 296.363 95.8683 295.872C95.6016 295.381 95.2389 295.008 94.7803 294.752C94.3323 294.485 93.8363 294.352 93.2923 294.352C92.7483 294.352 92.2523 294.48 91.8043 294.736C91.3563 294.992 90.9989 295.365 90.7323 295.856C90.4656 296.347 90.3323 296.923 90.3323 297.584C90.3323 298.256 90.4656 298.843 90.7323 299.344C90.9989 299.835 91.3563 300.213 91.8043 300.48C92.2523 300.736 92.7483 300.864 93.2923 300.864C93.8363 300.864 94.3323 300.736 94.7803 300.48C95.2389 300.213 95.6016 299.835 95.8683 299.344C96.1349 298.843 96.2683 298.261 96.2683 297.6ZM103.305 302.144C102.633 302.144 102.03 302.032 101.497 301.808C100.963 301.573 100.542 301.253 100.233 300.848C99.9234 300.432 99.7528 299.957 99.7208 299.424H101.225C101.267 299.861 101.47 300.219 101.833 300.496C102.206 300.773 102.691 300.912 103.289 300.912C103.843 300.912 104.281 300.789 104.601 300.544C104.921 300.299 105.081 299.989 105.081 299.616C105.081 299.232 104.91 298.949 104.569 298.768C104.227 298.576 103.699 298.389 102.985 298.208C102.334 298.037 101.801 297.867 101.385 297.696C100.979 297.515 100.627 297.253 100.329 296.912C100.041 296.56 99.8968 296.101 99.8968 295.536C99.8968 295.088 100.03 294.677 100.297 294.304C100.563 293.931 100.942 293.637 101.433 293.424C101.923 293.2 102.483 293.088 103.113 293.088C104.083 293.088 104.867 293.333 105.465 293.824C106.062 294.315 106.382 294.987 106.425 295.84H104.969C104.937 295.381 104.75 295.013 104.409 294.736C104.078 294.459 103.63 294.32 103.065 294.32C102.542 294.32 102.126 294.432 101.817 294.656C101.507 294.88 101.353 295.173 101.353 295.536C101.353 295.824 101.443 296.064 101.625 296.256C101.817 296.437 102.051 296.587 102.329 296.704C102.617 296.811 103.011 296.933 103.513 297.072C104.142 297.243 104.654 297.413 105.049 297.584C105.443 297.744 105.779 297.989 106.057 298.32C106.345 298.651 106.494 299.083 106.505 299.616C106.505 300.096 106.371 300.528 106.105 300.912C105.838 301.296 105.459 301.6 104.969 301.824C104.489 302.037 103.934 302.144 103.305 302.144ZM110.336 294.432V299.6C110.336 300.027 110.427 300.331 110.608 300.512C110.789 300.683 111.104 300.768 111.552 300.768H112.624V302H111.312C110.501 302 109.893 301.813 109.488 301.44C109.083 301.067 108.88 300.453 108.88 299.6V294.432H107.744V293.232H108.88V291.024H110.336V293.232H112.624V294.432H110.336ZM122.388 297.28C122.388 297.557 122.372 297.851 122.34 298.16H115.332C115.386 299.024 115.679 299.701 116.212 300.192C116.756 300.672 117.412 300.912 118.18 300.912C118.81 300.912 119.332 300.768 119.748 300.48C120.175 300.181 120.474 299.787 120.644 299.296H122.212C121.978 300.139 121.508 300.827 120.804 301.36C120.1 301.883 119.226 302.144 118.18 302.144C117.348 302.144 116.602 301.957 115.94 301.584C115.29 301.211 114.778 300.683 114.404 300C114.031 299.307 113.844 298.507 113.844 297.6C113.844 296.693 114.026 295.899 114.388 295.216C114.751 294.533 115.258 294.011 115.908 293.648C116.57 293.275 117.327 293.088 118.18 293.088C119.012 293.088 119.748 293.269 120.388 293.632C121.028 293.995 121.519 294.496 121.86 295.136C122.212 295.765 122.388 296.48 122.388 297.28ZM120.884 296.976C120.884 296.421 120.762 295.947 120.516 295.552C120.271 295.147 119.935 294.843 119.508 294.64C119.092 294.427 118.628 294.32 118.116 294.32C117.38 294.32 116.751 294.555 116.228 295.024C115.716 295.493 115.423 296.144 115.348 296.976H120.884ZM125.766 294.656C126.022 294.155 126.385 293.765 126.854 293.488C127.334 293.211 127.915 293.072 128.598 293.072V294.576H128.214C126.582 294.576 125.766 295.461 125.766 297.232V302H124.31V293.232H125.766V294.656ZM137.143 290.848V292.032H134.103V302H132.647V292.032H129.591V290.848H137.143ZM138.391 297.584C138.391 296.688 138.572 295.904 138.935 295.232C139.298 294.549 139.794 294.021 140.423 293.648C141.063 293.275 141.772 293.088 142.551 293.088C143.319 293.088 143.986 293.253 144.551 293.584C145.116 293.915 145.538 294.331 145.815 294.832V293.232H147.287V302H145.815V300.368C145.527 300.88 145.095 301.307 144.519 301.648C143.954 301.979 143.292 302.144 142.535 302.144C141.756 302.144 141.052 301.952 140.423 301.568C139.794 301.184 139.298 300.645 138.935 299.952C138.572 299.259 138.391 298.469 138.391 297.584ZM145.815 297.6C145.815 296.939 145.682 296.363 145.415 295.872C145.148 295.381 144.786 295.008 144.327 294.752C143.879 294.485 143.383 294.352 142.839 294.352C142.295 294.352 141.799 294.48 141.351 294.736C140.903 294.992 140.546 295.365 140.279 295.856C140.012 296.347 139.879 296.923 139.879 297.584C139.879 298.256 140.012 298.843 140.279 299.344C140.546 299.835 140.903 300.213 141.351 300.48C141.799 300.736 142.295 300.864 142.839 300.864C143.383 300.864 143.879 300.736 144.327 300.48C144.786 300.213 145.148 299.835 145.415 299.344C145.682 298.843 145.815 298.261 145.815 297.6ZM153.364 293.088C154.121 293.088 154.782 293.253 155.348 293.584C155.924 293.915 156.35 294.331 156.628 294.832V293.232H158.1V302.192C158.1 302.992 157.929 303.701 157.588 304.32C157.246 304.949 156.756 305.44 156.116 305.792C155.486 306.144 154.75 306.32 153.908 306.32C152.756 306.32 151.796 306.048 151.028 305.504C150.26 304.96 149.806 304.219 149.668 303.28H151.108C151.268 303.813 151.598 304.24 152.1 304.56C152.601 304.891 153.204 305.056 153.908 305.056C154.708 305.056 155.358 304.805 155.86 304.304C156.372 303.803 156.628 303.099 156.628 302.192V300.352C156.34 300.864 155.913 301.291 155.348 301.632C154.782 301.973 154.121 302.144 153.364 302.144C152.585 302.144 151.876 301.952 151.236 301.568C150.606 301.184 150.11 300.645 149.748 299.952C149.385 299.259 149.204 298.469 149.204 297.584C149.204 296.688 149.385 295.904 149.748 295.232C150.11 294.549 150.606 294.021 151.236 293.648C151.876 293.275 152.585 293.088 153.364 293.088ZM156.628 297.6C156.628 296.939 156.494 296.363 156.228 295.872C155.961 295.381 155.598 295.008 155.14 294.752C154.692 294.485 154.196 294.352 153.652 294.352C153.108 294.352 152.612 294.48 152.164 294.736C151.716 294.992 151.358 295.365 151.092 295.856C150.825 296.347 150.692 296.923 150.692 297.584C150.692 298.256 150.825 298.843 151.092 299.344C151.358 299.835 151.716 300.213 152.164 300.48C152.612 300.736 153.108 300.864 153.652 300.864C154.196 300.864 154.692 300.736 155.14 300.48C155.598 300.213 155.961 299.835 156.228 299.344C156.494 298.843 156.628 298.261 156.628 297.6Z" fill="#5F646A"/>
<path fill-rule="evenodd" clip-rule="evenodd" d="M266.115 297L263.065 293.444C262.98 293.345 262.978 293.181 263.06 293.079C263.142 292.976 263.278 292.973 263.363 293.073L266.571 296.814C266.658 296.916 266.658 297.084 266.571 297.186L263.363 300.927C263.278 301.027 263.142 301.024 263.06 300.921C262.978 300.819 262.98 300.655 263.065 300.556L266.115 297Z" stroke="#5F646A" stroke-width="0.727273"/>
<path d="M1.10302 180.103H274.897V208.897H1.10302V180.103Z" fill="white" stroke="#AEAEAE" stroke-width="0.206037"/>
<path fill-rule="evenodd" clip-rule="evenodd" d="M266.115 195L263.065 191.444C262.98 191.345 262.978 191.181 263.06 191.079C263.142 190.976 263.278 190.973 263.363 191.073L266.571 194.814C266.658 194.916 266.658 195.084 266.571 195.186L263.363 198.927C263.278 199.027 263.142 199.024 263.06 198.921C262.978 198.819 262.98 198.655 263.065 198.556L266.115 195Z" stroke="#5F646A" stroke-width="0.727273"/>
<path d="M15.7356 54.248V71H12.3756V63.872H5.19959V71H1.83959V54.248H5.19959V61.136H12.3756V54.248H15.7356ZM24.9467 71.216C23.6667 71.216 22.5147 70.936 21.4907 70.376C20.4667 69.8 19.6587 68.992 19.0667 67.952C18.4907 66.912 18.2027 65.712 18.2027 64.352C18.2027 62.992 18.4987 61.792 19.0907 60.752C19.6987 59.712 20.5227 58.912 21.5627 58.352C22.6027 57.776 23.7627 57.488 25.0427 57.488C26.3227 57.488 27.4827 57.776 28.5227 58.352C29.5627 58.912 30.3787 59.712 30.9707 60.752C31.5787 61.792 31.8827 62.992 31.8827 64.352C31.8827 65.712 31.5707 66.912 30.9467 67.952C30.3387 68.992 29.5067 69.8 28.4507 70.376C27.4107 70.936 26.2427 71.216 24.9467 71.216ZM24.9467 68.288C25.5547 68.288 26.1227 68.144 26.6507 67.856C27.1947 67.552 27.6267 67.104 27.9467 66.512C28.2667 65.92 28.4267 65.2 28.4267 64.352C28.4267 63.088 28.0907 62.12 27.4187 61.448C26.7627 60.76 25.9547 60.416 24.9947 60.416C24.0347 60.416 23.2267 60.76 22.5707 61.448C21.9307 62.12 21.6107 63.088 21.6107 64.352C21.6107 65.616 21.9227 66.592 22.5467 67.28C23.1867 67.952 23.9867 68.288 24.9467 68.288ZM52.7794 57.704L48.8914 71H45.2674L42.8434 61.712L40.4194 71H36.7714L32.8594 57.704H36.2674L38.6194 67.832L41.1634 57.704H44.7154L47.2114 67.808L49.5634 57.704H52.7794ZM71.7162 54.248V56.96H67.2522V71H63.8922V56.96H59.4282V54.248H71.7162ZM80.0717 71.216C78.7917 71.216 77.6397 70.936 76.6157 70.376C75.5917 69.8 74.7837 68.992 74.1917 67.952C73.6157 66.912 73.3277 65.712 73.3277 64.352C73.3277 62.992 73.6237 61.792 74.2157 60.752C74.8237 59.712 75.6477 58.912 76.6877 58.352C77.7277 57.776 78.8877 57.488 80.1677 57.488C81.4477 57.488 82.6077 57.776 83.6477 58.352C84.6877 58.912 85.5037 59.712 86.0957 60.752C86.7037 61.792 87.0077 62.992 87.0077 64.352C87.0077 65.712 86.6957 66.912 86.0717 67.952C85.4637 68.992 84.6317 69.8 83.5757 70.376C82.5357 70.936 81.3677 71.216 80.0717 71.216ZM80.0717 68.288C80.6797 68.288 81.2477 68.144 81.7757 67.856C82.3197 67.552 82.7517 67.104 83.0717 66.512C83.3917 65.92 83.5517 65.2 83.5517 64.352C83.5517 63.088 83.2157 62.12 82.5437 61.448C81.8877 60.76 81.0797 60.416 80.1197 60.416C79.1597 60.416 78.3517 60.76 77.6957 61.448C77.0557 62.12 76.7357 63.088 76.7357 64.352C76.7357 65.616 77.0477 66.592 77.6717 67.28C78.3117 67.952 79.1117 68.288 80.0717 68.288Z" fill="#212529"/>
<path d="M8.84 7.08V14H7.93V8.84L5.63 14H4.99L2.68 8.83V14H1.77V7.08H2.75L5.31 12.8L7.87 7.08H8.84ZM14.9233 12.45H11.8833L11.3233 14H10.3633L12.8833 7.07H13.9333L16.4433 14H15.4833L14.9233 12.45ZM14.6633 11.71L13.4033 8.19L12.1433 11.71H14.6633ZM20.1716 14.07C19.7116 14.07 19.2982 13.99 18.9316 13.83C18.5716 13.6633 18.2882 13.4367 18.0816 13.15C17.8749 12.8567 17.7682 12.52 17.7616 12.14H18.7316C18.7649 12.4667 18.8982 12.7433 19.1316 12.97C19.3716 13.19 19.7182 13.3 20.1716 13.3C20.6049 13.3 20.9449 13.1933 21.1916 12.98C21.4449 12.76 21.5716 12.48 21.5716 12.14C21.5716 11.8733 21.4982 11.6567 21.3516 11.49C21.2049 11.3233 21.0216 11.1967 20.8016 11.11C20.5816 11.0233 20.2849 10.93 19.9116 10.83C19.4516 10.71 19.0816 10.59 18.8016 10.47C18.5282 10.35 18.2916 10.1633 18.0916 9.91C17.8982 9.65 17.8016 9.30333 17.8016 8.87C17.8016 8.49 17.8982 8.15333 18.0916 7.86C18.2849 7.56667 18.5549 7.34 18.9016 7.18C19.2549 7.02 19.6582 6.94 20.1116 6.94C20.7649 6.94 21.2982 7.10333 21.7116 7.43C22.1316 7.75667 22.3682 8.19 22.4216 8.73H21.4216C21.3882 8.46333 21.2482 8.23 21.0016 8.03C20.7549 7.82333 20.4282 7.72 20.0216 7.72C19.6416 7.72 19.3316 7.82 19.0916 8.02C18.8516 8.21333 18.7316 8.48667 18.7316 8.84C18.7316 9.09333 18.8016 9.3 18.9416 9.46C19.0882 9.62 19.2649 9.74333 19.4716 9.83C19.6849 9.91 19.9816 10.0033 20.3616 10.11C20.8216 10.2367 21.1916 10.3633 21.4716 10.49C21.7516 10.61 21.9916 10.8 22.1916 11.06C22.3916 11.3133 22.4916 11.66 22.4916 12.1C22.4916 12.44 22.4016 12.76 22.2216 13.06C22.0416 13.36 21.7749 13.6033 21.4216 13.79C21.0682 13.9767 20.6516 14.07 20.1716 14.07ZM28.5407 7.03V7.77H26.6407V14H25.7307V7.77H23.8207V7.03H28.5407ZM30.9909 7.77V10.1H33.5309V10.85H30.9909V13.25H33.8309V14H30.0809V7.02H33.8309V7.77H30.9909ZM39.2978 14L37.6378 11.15H36.5378V14H35.6278V7.03H37.8778C38.4045 7.03 38.8478 7.12 39.2078 7.3C39.5745 7.48 39.8478 7.72333 40.0278 8.03C40.2078 8.33667 40.2978 8.68667 40.2978 9.08C40.2978 9.56 40.1578 9.98333 39.8778 10.35C39.6045 10.7167 39.1911 10.96 38.6378 11.08L40.3878 14H39.2978ZM36.5378 10.42H37.8778C38.3711 10.42 38.7411 10.3 38.9878 10.06C39.2345 9.81333 39.3578 9.48667 39.3578 9.08C39.3578 8.66667 39.2345 8.34667 38.9878 8.12C38.7478 7.89333 38.3778 7.78 37.8778 7.78H36.5378V10.42ZM46.4218 7.03V7.77H44.5218V14H43.6118V7.77H41.7018V7.03H46.4218ZM52.082 12.45H49.042L48.482 14H47.522L50.042 7.07H51.092L53.602 14H52.642L52.082 12.45ZM51.822 11.71L50.562 8.19L49.302 11.71H51.822ZM60.4002 9.05C60.2069 8.64333 59.9269 8.33 59.5602 8.11C59.1936 7.88333 58.7669 7.77 58.2802 7.77C57.7936 7.77 57.3536 7.88333 56.9602 8.11C56.5736 8.33 56.2669 8.65 56.0402 9.07C55.8202 9.48333 55.7102 9.96333 55.7102 10.51C55.7102 11.0567 55.8202 11.5367 56.0402 11.95C56.2669 12.3633 56.5736 12.6833 56.9602 12.91C57.3536 13.13 57.7936 13.24 58.2802 13.24C58.9602 13.24 59.5202 13.0367 59.9602 12.63C60.4002 12.2233 60.6569 11.6733 60.7302 10.98H57.9502V10.24H61.7002V10.94C61.6469 11.5133 61.4669 12.04 61.1602 12.52C60.8536 12.9933 60.4502 13.37 59.9502 13.65C59.4502 13.9233 58.8936 14.06 58.2802 14.06C57.6336 14.06 57.0436 13.91 56.5102 13.61C55.9769 13.3033 55.5536 12.88 55.2402 12.34C54.9336 11.8 54.7802 11.19 54.7802 10.51C54.7802 9.83 54.9336 9.22 55.2402 8.68C55.5536 8.13333 55.9769 7.71 56.5102 7.41C57.0436 7.10333 57.6336 6.95 58.2802 6.95C59.0202 6.95 59.6736 7.13333 60.2402 7.5C60.8136 7.86667 61.2302 8.38333 61.4902 9.05H60.4002ZM68.6195 14.07C68.1595 14.07 67.7461 13.99 67.3795 13.83C67.0195 13.6633 66.7361 13.4367 66.5295 13.15C66.3228 12.8567 66.2161 12.52 66.2095 12.14H67.1795C67.2128 12.4667 67.3461 12.7433 67.5795 12.97C67.8195 13.19 68.1661 13.3 68.6195 13.3C69.0528 13.3 69.3928 13.1933 69.6395 12.98C69.8928 12.76 70.0195 12.48 70.0195 12.14C70.0195 11.8733 69.9461 11.6567 69.7995 11.49C69.6528 11.3233 69.4695 11.1967 69.2495 11.11C69.0295 11.0233 68.7328 10.93 68.3595 10.83C67.8995 10.71 67.5295 10.59 67.2495 10.47C66.9761 10.35 66.7395 10.1633 66.5395 9.91C66.3461 9.65 66.2495 9.30333 66.2495 8.87C66.2495 8.49 66.3461 8.15333 66.5395 7.86C66.7328 7.56667 67.0028 7.34 67.3495 7.18C67.7028 7.02 68.1061 6.94 68.5595 6.94C69.2128 6.94 69.7461 7.10333 70.1595 7.43C70.5795 7.75667 70.8161 8.19 70.8695 8.73H69.8695C69.8361 8.46333 69.6961 8.23 69.4495 8.03C69.2028 7.82333 68.8761 7.72 68.4695 7.72C68.0895 7.72 67.7795 7.82 67.5395 8.02C67.2995 8.21333 67.1795 8.48667 67.1795 8.84C67.1795 9.09333 67.2495 9.3 67.3895 9.46C67.5361 9.62 67.7128 9.74333 67.9195 9.83C68.1328 9.91 68.4295 10.0033 68.8095 10.11C69.2695 10.2367 69.6395 10.3633 69.9195 10.49C70.1995 10.61 70.4395 10.8 70.6395 11.06C70.8395 11.3133 70.9395 11.66 70.9395 12.1C70.9395 12.44 70.8495 12.76 70.6695 13.06C70.4895 13.36 70.2228 13.6033 69.8695 13.79C69.5161 13.9767 69.0995 14.07 68.6195 14.07ZM73.5886 7.03V11.44C73.5886 12.06 73.7386 12.52 74.0386 12.82C74.3453 13.12 74.7686 13.27 75.3086 13.27C75.8419 13.27 76.2586 13.12 76.5586 12.82C76.8653 12.52 77.0186 12.06 77.0186 11.44V7.03H77.9286V11.43C77.9286 12.01 77.8119 12.5 77.5786 12.9C77.3453 13.2933 77.0286 13.5867 76.6286 13.78C76.2353 13.9733 75.7919 14.07 75.2986 14.07C74.8053 14.07 74.3586 13.9733 73.9586 13.78C73.5653 13.5867 73.2519 13.2933 73.0186 12.9C72.7919 12.5 72.6786 12.01 72.6786 11.43V7.03H73.5886ZM84.5266 9.07C84.5266 9.65 84.3266 10.1333 83.9266 10.52C83.5333 10.9 82.93 11.09 82.1166 11.09H80.7766V14H79.8666V7.03H82.1166C82.9033 7.03 83.5 7.22 83.9066 7.6C84.32 7.98 84.5266 8.47 84.5266 9.07ZM82.1166 10.34C82.6233 10.34 82.9966 10.23 83.2366 10.01C83.4766 9.79 83.5966 9.47667 83.5966 9.07C83.5966 8.21 83.1033 7.78 82.1166 7.78H80.7766V10.34H82.1166ZM90.7377 9.07C90.7377 9.65 90.5377 10.1333 90.1377 10.52C89.7443 10.9 89.141 11.09 88.3277 11.09H86.9877V14H86.0777V7.03H88.3277C89.1143 7.03 89.711 7.22 90.1177 7.6C90.531 7.98 90.7377 8.47 90.7377 9.07ZM88.3277 10.34C88.8343 10.34 89.2077 10.23 89.4477 10.01C89.6877 9.79 89.8077 9.47667 89.8077 9.07C89.8077 8.21 89.3143 7.78 88.3277 7.78H86.9877V10.34H88.3277ZM95.4487 14.07C94.802 14.07 94.212 13.92 93.6787 13.62C93.1453 13.3133 92.722 12.89 92.4087 12.35C92.102 11.8033 91.9487 11.19 91.9487 10.51C91.9487 9.83 92.102 9.22 92.4087 8.68C92.722 8.13333 93.1453 7.71 93.6787 7.41C94.212 7.10333 94.802 6.95 95.4487 6.95C96.102 6.95 96.6953 7.10333 97.2287 7.41C97.762 7.71 98.182 8.13 98.4887 8.67C98.7953 9.21 98.9487 9.82333 98.9487 10.51C98.9487 11.1967 98.7953 11.81 98.4887 12.35C98.182 12.89 97.762 13.3133 97.2287 13.62C96.6953 13.92 96.102 14.07 95.4487 14.07ZM95.4487 13.28C95.9353 13.28 96.372 13.1667 96.7587 12.94C97.152 12.7133 97.4587 12.39 97.6787 11.97C97.9053 11.55 98.0187 11.0633 98.0187 10.51C98.0187 9.95 97.9053 9.46333 97.6787 9.05C97.4587 8.63 97.1553 8.30667 96.7687 8.08C96.382 7.85333 95.942 7.74 95.4487 7.74C94.9553 7.74 94.5153 7.85333 94.1287 8.08C93.742 8.30667 93.4353 8.63 93.2087 9.05C92.9887 9.46333 92.8787 9.95 92.8787 10.51C92.8787 11.0633 92.9887 11.55 93.2087 11.97C93.4353 12.39 93.742 12.7133 94.1287 12.94C94.522 13.1667 94.962 13.28 95.4487 13.28ZM104.24 14L102.58 11.15H101.48V14H100.57V7.03H102.82C103.347 7.03 103.79 7.12 104.15 7.3C104.517 7.48 104.79 7.72333 104.97 8.03C105.15 8.33667 105.24 8.68667 105.24 9.08C105.24 9.56 105.1 9.98333 104.82 10.35C104.547 10.7167 104.133 10.96 103.58 11.08L105.33 14H104.24ZM101.48 10.42H102.82C103.313 10.42 103.683 10.3 103.93 10.06C104.177 9.81333 104.3 9.48667 104.3 9.08C104.3 8.66667 104.177 8.34667 103.93 8.12C103.69 7.89333 103.32 7.78 102.82 7.78H101.48V10.42ZM111.364 7.03V7.77H109.464V14H108.554V7.77H106.644V7.03H111.364Z" fill="#5F646A"/>
<path d="M143.14 7.03V14H142.23V10.84H138.68V14H137.77V7.03H138.68V10.09H142.23V7.03H143.14ZM147.854 14.07C147.207 14.07 146.617 13.92 146.084 13.62C145.55 13.3133 145.127 12.89 144.814 12.35C144.507 11.8033 144.354 11.19 144.354 10.51C144.354 9.83 144.507 9.22 144.814 8.68C145.127 8.13333 145.55 7.71 146.084 7.41C146.617 7.10333 147.207 6.95 147.854 6.95C148.507 6.95 149.1 7.10333 149.634 7.41C150.167 7.71 150.587 8.13 150.894 8.67C151.2 9.21 151.354 9.82333 151.354 10.51C151.354 11.1967 151.2 11.81 150.894 12.35C150.587 12.89 150.167 13.3133 149.634 13.62C149.1 13.92 148.507 14.07 147.854 14.07ZM147.854 13.28C148.34 13.28 148.777 13.1667 149.164 12.94C149.557 12.7133 149.864 12.39 150.084 11.97C150.31 11.55 150.424 11.0633 150.424 10.51C150.424 9.95 150.31 9.46333 150.084 9.05C149.864 8.63 149.56 8.30667 149.174 8.08C148.787 7.85333 148.347 7.74 147.854 7.74C147.36 7.74 146.92 7.85333 146.534 8.08C146.147 8.30667 145.84 8.63 145.614 9.05C145.394 9.46333 145.284 9.95 145.284 10.51C145.284 11.0633 145.394 11.55 145.614 11.97C145.84 12.39 146.147 12.7133 146.534 12.94C146.927 13.1667 147.367 13.28 147.854 13.28ZM161.315 7.03L159.295 14H158.275L156.655 8.39L154.975 14L153.965 14.01L152.015 7.03H152.985L154.505 12.94L156.185 7.03H157.205L158.805 12.92L160.335 7.03H161.315ZM169.267 7.03V7.77H167.367V14H166.457V7.77H164.547V7.03H169.267ZM173.547 14.07C172.901 14.07 172.311 13.92 171.777 13.62C171.244 13.3133 170.821 12.89 170.507 12.35C170.201 11.8033 170.047 11.19 170.047 10.51C170.047 9.83 170.201 9.22 170.507 8.68C170.821 8.13333 171.244 7.71 171.777 7.41C172.311 7.10333 172.901 6.95 173.547 6.95C174.201 6.95 174.794 7.10333 175.327 7.41C175.861 7.71 176.281 8.13 176.587 8.67C176.894 9.21 177.047 9.82333 177.047 10.51C177.047 11.1967 176.894 11.81 176.587 12.35C176.281 12.89 175.861 13.3133 175.327 13.62C174.794 13.92 174.201 14.07 173.547 14.07ZM173.547 13.28C174.034 13.28 174.471 13.1667 174.857 12.94C175.251 12.7133 175.557 12.39 175.777 11.97C176.004 11.55 176.117 11.0633 176.117 10.51C176.117 9.95 176.004 9.46333 175.777 9.05C175.557 8.63 175.254 8.30667 174.867 8.08C174.481 7.85333 174.041 7.74 173.547 7.74C173.054 7.74 172.614 7.85333 172.227 8.08C171.841 8.30667 171.534 8.63 171.307 9.05C171.087 9.46333 170.977 9.95 170.977 10.51C170.977 11.0633 171.087 11.55 171.307 11.97C171.534 12.39 171.841 12.7133 172.227 12.94C172.621 13.1667 173.061 13.28 173.547 13.28Z" fill="#212529"/>
<path fill-rule="evenodd" clip-rule="evenodd" d="M127.019 9.518L124.623 6.39015C124.556 6.30303 124.554 6.15935 124.619 6.06922C124.683 5.97909 124.79 5.97666 124.856 6.06378L127.377 9.35481C127.446 9.44403 127.446 9.59197 127.377 9.68119L124.856 12.9722C124.79 13.0594 124.683 13.0569 124.619 12.9668C124.554 12.8767 124.556 12.7329 124.623 12.6458L127.019 9.518Z" stroke="#5F646A"/>
<path d="M19.824 188.848V200H18.368V194.944H12.688V200H11.232V188.848H12.688V193.744H18.368V188.848H19.824ZM26.1341 200.144C25.3128 200.144 24.5661 199.957 23.8941 199.584C23.2328 199.211 22.7101 198.683 22.3261 198C21.9528 197.307 21.7661 196.507 21.7661 195.6C21.7661 194.704 21.9581 193.915 22.3421 193.232C22.7368 192.539 23.2701 192.011 23.9421 191.648C24.6141 191.275 25.3661 191.088 26.1981 191.088C27.0301 191.088 27.7821 191.275 28.4541 191.648C29.1261 192.011 29.6541 192.533 30.0381 193.216C30.4328 193.899 30.6301 194.693 30.6301 195.6C30.6301 196.507 30.4275 197.307 30.0221 198C29.6275 198.683 29.0888 199.211 28.4061 199.584C27.7235 199.957 26.9661 200.144 26.1341 200.144ZM26.1341 198.864C26.6568 198.864 27.1475 198.741 27.6061 198.496C28.0648 198.251 28.4328 197.883 28.7101 197.392C28.9981 196.901 29.1421 196.304 29.1421 195.6C29.1421 194.896 29.0035 194.299 28.7261 193.808C28.4488 193.317 28.0861 192.955 27.6381 192.72C27.1901 192.475 26.7048 192.352 26.1821 192.352C25.6488 192.352 25.1581 192.475 24.7101 192.72C24.2728 192.955 23.9208 193.317 23.6541 193.808C23.3875 194.299 23.2541 194.896 23.2541 195.6C23.2541 196.315 23.3821 196.917 23.6381 197.408C23.9048 197.899 24.2568 198.267 24.6941 198.512C25.1315 198.747 25.6115 198.864 26.1341 198.864ZM44.2245 191.232L41.4885 200H39.9845L37.8725 193.04L35.7605 200H34.2565L31.5045 191.232H32.9925L35.0085 198.592L37.1845 191.232H38.6725L40.8005 198.608L42.7845 191.232H44.2245ZM61.2471 188.928V200H59.7911V191.744L56.1111 200H55.0871L51.3911 191.728V200H49.9351V188.928H51.5031L55.5991 198.08L59.6951 188.928H61.2471ZM63.1724 195.584C63.1724 194.688 63.3537 193.904 63.7164 193.232C64.079 192.549 64.575 192.021 65.2044 191.648C65.8444 191.275 66.5537 191.088 67.3324 191.088C68.1004 191.088 68.767 191.253 69.3324 191.584C69.8977 191.915 70.319 192.331 70.5964 192.832V191.232H72.0684V200H70.5964V198.368C70.3084 198.88 69.8764 199.307 69.3004 199.648C68.735 199.979 68.0737 200.144 67.3164 200.144C66.5377 200.144 65.8337 199.952 65.2044 199.568C64.575 199.184 64.079 198.645 63.7164 197.952C63.3537 197.259 63.1724 196.469 63.1724 195.584ZM70.5964 195.6C70.5964 194.939 70.463 194.363 70.1964 193.872C69.9297 193.381 69.567 193.008 69.1084 192.752C68.6604 192.485 68.1644 192.352 67.6204 192.352C67.0764 192.352 66.5804 192.48 66.1324 192.736C65.6844 192.992 65.327 193.365 65.0604 193.856C64.7937 194.347 64.6604 194.923 64.6604 195.584C64.6604 196.256 64.7937 196.843 65.0604 197.344C65.327 197.835 65.6844 198.213 66.1324 198.48C66.5804 198.736 67.0764 198.864 67.6204 198.864C68.1644 198.864 68.6604 198.736 69.1084 198.48C69.567 198.213 69.9297 197.835 70.1964 197.344C70.463 196.843 70.5964 196.261 70.5964 195.6ZM77.6329 200.144C76.9609 200.144 76.3582 200.032 75.8249 199.808C75.2915 199.573 74.8702 199.253 74.5609 198.848C74.2515 198.432 74.0809 197.957 74.0489 197.424H75.5529C75.5955 197.861 75.7982 198.219 76.1609 198.496C76.5342 198.773 77.0195 198.912 77.6169 198.912C78.1715 198.912 78.6089 198.789 78.9289 198.544C79.2489 198.299 79.4089 197.989 79.4089 197.616C79.4089 197.232 79.2382 196.949 78.8969 196.768C78.5555 196.576 78.0275 196.389 77.3129 196.208C76.6622 196.037 76.1289 195.867 75.7129 195.696C75.3075 195.515 74.9555 195.253 74.6569 194.912C74.3689 194.56 74.2249 194.101 74.2249 193.536C74.2249 193.088 74.3582 192.677 74.6249 192.304C74.8915 191.931 75.2702 191.637 75.7609 191.424C76.2515 191.2 76.8115 191.088 77.4409 191.088C78.4115 191.088 79.1955 191.333 79.7929 191.824C80.3902 192.315 80.7102 192.987 80.7529 193.84H79.2969C79.2649 193.381 79.0782 193.013 78.7369 192.736C78.4062 192.459 77.9582 192.32 77.3929 192.32C76.8702 192.32 76.4542 192.432 76.1449 192.656C75.8355 192.88 75.6809 193.173 75.6809 193.536C75.6809 193.824 75.7715 194.064 75.9529 194.256C76.1449 194.437 76.3795 194.587 76.6569 194.704C76.9449 194.811 77.3395 194.933 77.8409 195.072C78.4702 195.243 78.9822 195.413 79.3769 195.584C79.7715 195.744 80.1075 195.989 80.3849 196.32C80.6729 196.651 80.8222 197.083 80.8329 197.616C80.8329 198.096 80.6995 198.528 80.4329 198.912C80.1662 199.296 79.7875 199.6 79.2969 199.824C78.8169 200.037 78.2622 200.144 77.6329 200.144ZM90.8883 195.28C90.8883 195.557 90.8723 195.851 90.8403 196.16H83.8323C83.8856 197.024 84.1789 197.701 84.7123 198.192C85.2563 198.672 85.9123 198.912 86.6803 198.912C87.3096 198.912 87.8323 198.768 88.2483 198.48C88.6749 198.181 88.9736 197.787 89.1443 197.296H90.7123C90.4776 198.139 90.0083 198.827 89.3043 199.36C88.6003 199.883 87.7256 200.144 86.6803 200.144C85.8483 200.144 85.1016 199.957 84.4403 199.584C83.7896 199.211 83.2776 198.683 82.9043 198C82.5309 197.307 82.3443 196.507 82.3443 195.6C82.3443 194.693 82.5256 193.899 82.8883 193.216C83.2509 192.533 83.7576 192.011 84.4083 191.648C85.0696 191.275 85.8269 191.088 86.6803 191.088C87.5123 191.088 88.2483 191.269 88.8883 191.632C89.5283 191.995 90.0189 192.496 90.3603 193.136C90.7123 193.765 90.8883 194.48 90.8883 195.28ZM89.3843 194.976C89.3843 194.421 89.2616 193.947 89.0163 193.552C88.7709 193.147 88.4349 192.843 88.0083 192.64C87.5923 192.427 87.1283 192.32 86.6163 192.32C85.8803 192.32 85.2509 192.555 84.7283 193.024C84.2163 193.493 83.9229 194.144 83.8483 194.976H89.3843ZM94.2661 192.656C94.5221 192.155 94.8848 191.765 95.3541 191.488C95.8341 191.211 96.4155 191.072 97.0981 191.072V192.576H96.7141C95.0821 192.576 94.2661 193.461 94.2661 195.232V200H92.8101V191.232H94.2661V192.656ZM105.643 188.848V190.032H102.603V200H101.147V190.032H98.0909V188.848H105.643ZM106.891 195.584C106.891 194.688 107.072 193.904 107.435 193.232C107.798 192.549 108.294 192.021 108.923 191.648C109.563 191.275 110.272 191.088 111.051 191.088C111.819 191.088 112.486 191.253 113.051 191.584C113.616 191.915 114.038 192.331 114.315 192.832V191.232H115.787V200H114.315V198.368C114.027 198.88 113.595 199.307 113.019 199.648C112.454 199.979 111.792 200.144 111.035 200.144C110.256 200.144 109.552 199.952 108.923 199.568C108.294 199.184 107.798 198.645 107.435 197.952C107.072 197.259 106.891 196.469 106.891 195.584ZM114.315 195.6C114.315 194.939 114.182 194.363 113.915 193.872C113.648 193.381 113.286 193.008 112.827 192.752C112.379 192.485 111.883 192.352 111.339 192.352C110.795 192.352 110.299 192.48 109.851 192.736C109.403 192.992 109.046 193.365 108.779 193.856C108.512 194.347 108.379 194.923 108.379 195.584C108.379 196.256 108.512 196.843 108.779 197.344C109.046 197.835 109.403 198.213 109.851 198.48C110.299 198.736 110.795 198.864 111.339 198.864C111.883 198.864 112.379 198.736 112.827 198.48C113.286 198.213 113.648 197.835 113.915 197.344C114.182 196.843 114.315 196.261 114.315 195.6ZM121.864 191.088C122.621 191.088 123.282 191.253 123.848 191.584C124.424 191.915 124.85 192.331 125.128 192.832V191.232H126.6V200.192C126.6 200.992 126.429 201.701 126.088 202.32C125.746 202.949 125.256 203.44 124.616 203.792C123.986 204.144 123.25 204.32 122.408 204.32C121.256 204.32 120.296 204.048 119.528 203.504C118.76 202.96 118.306 202.219 118.168 201.28H119.608C119.768 201.813 120.098 202.24 120.6 202.56C121.101 202.891 121.704 203.056 122.408 203.056C123.208 203.056 123.858 202.805 124.36 202.304C124.872 201.803 125.128 201.099 125.128 200.192V198.352C124.84 198.864 124.413 199.291 123.848 199.632C123.282 199.973 122.621 200.144 121.864 200.144C121.085 200.144 120.376 199.952 119.736 199.568C119.106 199.184 118.61 198.645 118.248 197.952C117.885 197.259 117.704 196.469 117.704 195.584C117.704 194.688 117.885 193.904 118.248 193.232C118.61 192.549 119.106 192.021 119.736 191.648C120.376 191.275 121.085 191.088 121.864 191.088ZM125.128 195.6C125.128 194.939 124.994 194.363 124.728 193.872C124.461 193.381 124.098 193.008 123.64 192.752C123.192 192.485 122.696 192.352 122.152 192.352C121.608 192.352 121.112 192.48 120.664 192.736C120.216 192.992 119.858 193.365 119.592 193.856C119.325 194.347 119.192 194.923 119.192 195.584C119.192 196.256 119.325 196.843 119.592 197.344C119.858 197.835 120.216 198.213 120.664 198.48C121.112 198.736 121.608 198.864 122.152 198.864C122.696 198.864 123.192 198.736 123.64 198.48C124.098 198.213 124.461 197.835 124.728 197.344C124.994 196.843 125.128 196.261 125.128 195.6ZM147.342 188.848L144.11 200H142.478L139.886 191.024L137.198 200L135.582 200.016L132.462 188.848H134.014L136.446 198.304L139.134 188.848H140.766L143.326 198.272L145.774 188.848H147.342ZM152.759 200.144C151.938 200.144 151.191 199.957 150.519 199.584C149.858 199.211 149.335 198.683 148.951 198C148.578 197.307 148.391 196.507 148.391 195.6C148.391 194.704 148.583 193.915 148.967 193.232C149.362 192.539 149.895 192.011 150.567 191.648C151.239 191.275 151.991 191.088 152.823 191.088C153.655 191.088 154.407 191.275 155.079 191.648C155.751 192.011 156.279 192.533 156.663 193.216C157.058 193.899 157.255 194.693 157.255 195.6C157.255 196.507 157.052 197.307 156.647 198C156.252 198.683 155.714 199.211 155.031 199.584C154.348 199.957 153.591 200.144 152.759 200.144ZM152.759 198.864C153.282 198.864 153.772 198.741 154.231 198.496C154.69 198.251 155.058 197.883 155.335 197.392C155.623 196.901 155.767 196.304 155.767 195.6C155.767 194.896 155.628 194.299 155.351 193.808C155.074 193.317 154.711 192.955 154.263 192.72C153.815 192.475 153.33 192.352 152.807 192.352C152.274 192.352 151.783 192.475 151.335 192.72C150.898 192.955 150.546 193.317 150.279 193.808C150.012 194.299 149.879 194.896 149.879 195.6C149.879 196.315 150.007 196.917 150.263 197.408C150.53 197.899 150.882 198.267 151.319 198.512C151.756 198.747 152.236 198.864 152.759 198.864ZM160.626 192.656C160.882 192.155 161.244 191.765 161.714 191.488C162.194 191.211 162.775 191.072 163.458 191.072V192.576H163.074C161.442 192.576 160.626 193.461 160.626 195.232V200H159.17V191.232H160.626V192.656ZM170.034 200L166.594 196.128V200H165.138V188.16H166.594V195.12L169.97 191.232H172.002L167.874 195.6L172.018 200H170.034ZM176.477 200.144C175.805 200.144 175.202 200.032 174.669 199.808C174.135 199.573 173.714 199.253 173.405 198.848C173.095 198.432 172.925 197.957 172.893 197.424H174.397C174.439 197.861 174.642 198.219 175.005 198.496C175.378 198.773 175.863 198.912 176.461 198.912C177.015 198.912 177.453 198.789 177.773 198.544C178.093 198.299 178.253 197.989 178.253 197.616C178.253 197.232 178.082 196.949 177.741 196.768C177.399 196.576 176.871 196.389 176.157 196.208C175.506 196.037 174.973 195.867 174.557 195.696C174.151 195.515 173.799 195.253 173.501 194.912C173.213 194.56 173.069 194.101 173.069 193.536C173.069 193.088 173.202 192.677 173.469 192.304C173.735 191.931 174.114 191.637 174.605 191.424C175.095 191.2 175.655 191.088 176.285 191.088C177.255 191.088 178.039 191.333 178.637 191.824C179.234 192.315 179.554 192.987 179.597 193.84H178.141C178.109 193.381 177.922 193.013 177.581 192.736C177.25 192.459 176.802 192.32 176.237 192.32C175.714 192.32 175.298 192.432 174.989 192.656C174.679 192.88 174.525 193.173 174.525 193.536C174.525 193.824 174.615 194.064 174.797 194.256C174.989 194.437 175.223 194.587 175.501 194.704C175.789 194.811 176.183 194.933 176.685 195.072C177.314 195.243 177.826 195.413 178.221 195.584C178.615 195.744 178.951 195.989 179.229 196.32C179.517 196.651 179.666 197.083 179.677 197.616C179.677 198.096 179.543 198.528 179.277 198.912C179.01 199.296 178.631 199.6 178.141 199.824C177.661 200.037 177.106 200.144 176.477 200.144Z" fill="#5F646A"/>
</svg>
