<svg width="315" height="40" viewBox="0 0 315 40" fill="none" xmlns="http://www.w3.org/2000/svg">
<path d="M8.84 7.08V14H7.93V8.84L5.63 14H4.99L2.68 8.83V14H1.77V7.08H2.75L5.31 12.8L7.87 7.08H8.84ZM14.9233 12.45H11.8833L11.3233 14H10.3633L12.8833 7.07H13.9333L16.4433 14H15.4833L14.9233 12.45ZM14.6633 11.71L13.4033 8.19L12.1433 11.71H14.6633ZM20.1716 14.07C19.7116 14.07 19.2982 13.99 18.9316 13.83C18.5716 13.6633 18.2882 13.4367 18.0816 13.15C17.8749 12.8567 17.7682 12.52 17.7616 12.14H18.7316C18.7649 12.4667 18.8982 12.7433 19.1316 12.97C19.3716 13.19 19.7182 13.3 20.1716 13.3C20.6049 13.3 20.9449 13.1933 21.1916 12.98C21.4449 12.76 21.5716 12.48 21.5716 12.14C21.5716 11.8733 21.4982 11.6567 21.3516 11.49C21.2049 11.3233 21.0216 11.1967 20.8016 11.11C20.5816 11.0233 20.2849 10.93 19.9116 10.83C19.4516 10.71 19.0816 10.59 18.8016 10.47C18.5282 10.35 18.2916 10.1633 18.0916 9.91C17.8982 9.65 17.8016 9.30333 17.8016 8.87C17.8016 8.49 17.8982 8.15333 18.0916 7.86C18.2849 7.56667 18.5549 7.34 18.9016 7.18C19.2549 7.02 19.6582 6.94 20.1116 6.94C20.7649 6.94 21.2982 7.10333 21.7116 7.43C22.1316 7.75667 22.3682 8.19 22.4216 8.73H21.4216C21.3882 8.46333 21.2482 8.23 21.0016 8.03C20.7549 7.82333 20.4282 7.72 20.0216 7.72C19.6416 7.72 19.3316 7.82 19.0916 8.02C18.8516 8.21333 18.7316 8.48667 18.7316 8.84C18.7316 9.09333 18.8016 9.3 18.9416 9.46C19.0882 9.62 19.2649 9.74333 19.4716 9.83C19.6849 9.91 19.9816 10.0033 20.3616 10.11C20.8216 10.2367 21.1916 10.3633 21.4716 10.49C21.7516 10.61 21.9916 10.8 22.1916 11.06C22.3916 11.3133 22.4916 11.66 22.4916 12.1C22.4916 12.44 22.4016 12.76 22.2216 13.06C22.0416 13.36 21.7749 13.6033 21.4216 13.79C21.0682 13.9767 20.6516 14.07 20.1716 14.07ZM28.5407 7.03V7.77H26.6407V14H25.7307V7.77H23.8207V7.03H28.5407ZM30.9909 7.77V10.1H33.5309V10.85H30.9909V13.25H33.8309V14H30.0809V7.02H33.8309V7.77H30.9909ZM39.2978 14L37.6378 11.15H36.5378V14H35.6278V7.03H37.8778C38.4045 7.03 38.8478 7.12 39.2078 7.3C39.5745 7.48 39.8478 7.72333 40.0278 8.03C40.2078 8.33667 40.2978 8.68667 40.2978 9.08C40.2978 9.56 40.1578 9.98333 39.8778 10.35C39.6045 10.7167 39.1911 10.96 38.6378 11.08L40.3878 14H39.2978ZM36.5378 10.42H37.8778C38.3711 10.42 38.7411 10.3 38.9878 10.06C39.2345 9.81333 39.3578 9.48667 39.3578 9.08C39.3578 8.66667 39.2345 8.34667 38.9878 8.12C38.7478 7.89333 38.3778 7.78 37.8778 7.78H36.5378V10.42ZM46.4218 7.03V7.77H44.5218V14H43.6118V7.77H41.7018V7.03H46.4218ZM52.082 12.45H49.042L48.482 14H47.522L50.042 7.07H51.092L53.602 14H52.642L52.082 12.45ZM51.822 11.71L50.562 8.19L49.302 11.71H51.822ZM60.4002 9.05C60.2069 8.64333 59.9269 8.33 59.5602 8.11C59.1936 7.88333 58.7669 7.77 58.2802 7.77C57.7936 7.77 57.3536 7.88333 56.9602 8.11C56.5736 8.33 56.2669 8.65 56.0402 9.07C55.8202 9.48333 55.7102 9.96333 55.7102 10.51C55.7102 11.0567 55.8202 11.5367 56.0402 11.95C56.2669 12.3633 56.5736 12.6833 56.9602 12.91C57.3536 13.13 57.7936 13.24 58.2802 13.24C58.9602 13.24 59.5202 13.0367 59.9602 12.63C60.4002 12.2233 60.6569 11.6733 60.7302 10.98H57.9502V10.24H61.7002V10.94C61.6469 11.5133 61.4669 12.04 61.1602 12.52C60.8536 12.9933 60.4502 13.37 59.9502 13.65C59.4502 13.9233 58.8936 14.06 58.2802 14.06C57.6336 14.06 57.0436 13.91 56.5102 13.61C55.9769 13.3033 55.5536 12.88 55.2402 12.34C54.9336 11.8 54.7802 11.19 54.7802 10.51C54.7802 9.83 54.9336 9.22 55.2402 8.68C55.5536 8.13333 55.9769 7.71 56.5102 7.41C57.0436 7.10333 57.6336 6.95 58.2802 6.95C59.0202 6.95 59.6736 7.13333 60.2402 7.5C60.8136 7.86667 61.2302 8.38333 61.4902 9.05H60.4002ZM68.6195 14.07C68.1595 14.07 67.7461 13.99 67.3795 13.83C67.0195 13.6633 66.7361 13.4367 66.5295 13.15C66.3228 12.8567 66.2161 12.52 66.2095 12.14H67.1795C67.2128 12.4667 67.3461 12.7433 67.5795 12.97C67.8195 13.19 68.1661 13.3 68.6195 13.3C69.0528 13.3 69.3928 13.1933 69.6395 12.98C69.8928 12.76 70.0195 12.48 70.0195 12.14C70.0195 11.8733 69.9461 11.6567 69.7995 11.49C69.6528 11.3233 69.4695 11.1967 69.2495 11.11C69.0295 11.0233 68.7328 10.93 68.3595 10.83C67.8995 10.71 67.5295 10.59 67.2495 10.47C66.9761 10.35 66.7395 10.1633 66.5395 9.91C66.3461 9.65 66.2495 9.30333 66.2495 8.87C66.2495 8.49 66.3461 8.15333 66.5395 7.86C66.7328 7.56667 67.0028 7.34 67.3495 7.18C67.7028 7.02 68.1061 6.94 68.5595 6.94C69.2128 6.94 69.7461 7.10333 70.1595 7.43C70.5795 7.75667 70.8161 8.19 70.8695 8.73H69.8695C69.8361 8.46333 69.6961 8.23 69.4495 8.03C69.2028 7.82333 68.8761 7.72 68.4695 7.72C68.0895 7.72 67.7795 7.82 67.5395 8.02C67.2995 8.21333 67.1795 8.48667 67.1795 8.84C67.1795 9.09333 67.2495 9.3 67.3895 9.46C67.5361 9.62 67.7128 9.74333 67.9195 9.83C68.1328 9.91 68.4295 10.0033 68.8095 10.11C69.2695 10.2367 69.6395 10.3633 69.9195 10.49C70.1995 10.61 70.4395 10.8 70.6395 11.06C70.8395 11.3133 70.9395 11.66 70.9395 12.1C70.9395 12.44 70.8495 12.76 70.6695 13.06C70.4895 13.36 70.2228 13.6033 69.8695 13.79C69.5161 13.9767 69.0995 14.07 68.6195 14.07ZM73.5886 7.03V11.44C73.5886 12.06 73.7386 12.52 74.0386 12.82C74.3453 13.12 74.7686 13.27 75.3086 13.27C75.8419 13.27 76.2586 13.12 76.5586 12.82C76.8653 12.52 77.0186 12.06 77.0186 11.44V7.03H77.9286V11.43C77.9286 12.01 77.8119 12.5 77.5786 12.9C77.3453 13.2933 77.0286 13.5867 76.6286 13.78C76.2353 13.9733 75.7919 14.07 75.2986 14.07C74.8053 14.07 74.3586 13.9733 73.9586 13.78C73.5653 13.5867 73.2519 13.2933 73.0186 12.9C72.7919 12.5 72.6786 12.01 72.6786 11.43V7.03H73.5886ZM84.5266 9.07C84.5266 9.65 84.3266 10.1333 83.9266 10.52C83.5333 10.9 82.93 11.09 82.1166 11.09H80.7766V14H79.8666V7.03H82.1166C82.9033 7.03 83.5 7.22 83.9066 7.6C84.32 7.98 84.5266 8.47 84.5266 9.07ZM82.1166 10.34C82.6233 10.34 82.9966 10.23 83.2366 10.01C83.4766 9.79 83.5966 9.47667 83.5966 9.07C83.5966 8.21 83.1033 7.78 82.1166 7.78H80.7766V10.34H82.1166ZM90.7377 9.07C90.7377 9.65 90.5377 10.1333 90.1377 10.52C89.7443 10.9 89.141 11.09 88.3277 11.09H86.9877V14H86.0777V7.03H88.3277C89.1143 7.03 89.711 7.22 90.1177 7.6C90.531 7.98 90.7377 8.47 90.7377 9.07ZM88.3277 10.34C88.8343 10.34 89.2077 10.23 89.4477 10.01C89.6877 9.79 89.8077 9.47667 89.8077 9.07C89.8077 8.21 89.3143 7.78 88.3277 7.78H86.9877V10.34H88.3277ZM95.4487 14.07C94.802 14.07 94.212 13.92 93.6787 13.62C93.1453 13.3133 92.722 12.89 92.4087 12.35C92.102 11.8033 91.9487 11.19 91.9487 10.51C91.9487 9.83 92.102 9.22 92.4087 8.68C92.722 8.13333 93.1453 7.71 93.6787 7.41C94.212 7.10333 94.802 6.95 95.4487 6.95C96.102 6.95 96.6953 7.10333 97.2287 7.41C97.762 7.71 98.182 8.13 98.4887 8.67C98.7953 9.21 98.9487 9.82333 98.9487 10.51C98.9487 11.1967 98.7953 11.81 98.4887 12.35C98.182 12.89 97.762 13.3133 97.2287 13.62C96.6953 13.92 96.102 14.07 95.4487 14.07ZM95.4487 13.28C95.9353 13.28 96.372 13.1667 96.7587 12.94C97.152 12.7133 97.4587 12.39 97.6787 11.97C97.9053 11.55 98.0187 11.0633 98.0187 10.51C98.0187 9.95 97.9053 9.46333 97.6787 9.05C97.4587 8.63 97.1553 8.30667 96.7687 8.08C96.382 7.85333 95.942 7.74 95.4487 7.74C94.9553 7.74 94.5153 7.85333 94.1287 8.08C93.742 8.30667 93.4353 8.63 93.2087 9.05C92.9887 9.46333 92.8787 9.95 92.8787 10.51C92.8787 11.0633 92.9887 11.55 93.2087 11.97C93.4353 12.39 93.742 12.7133 94.1287 12.94C94.522 13.1667 94.962 13.28 95.4487 13.28ZM104.24 14L102.58 11.15H101.48V14H100.57V7.03H102.82C103.347 7.03 103.79 7.12 104.15 7.3C104.517 7.48 104.79 7.72333 104.97 8.03C105.15 8.33667 105.24 8.68667 105.24 9.08C105.24 9.56 105.1 9.98333 104.82 10.35C104.547 10.7167 104.133 10.96 103.58 11.08L105.33 14H104.24ZM101.48 10.42H102.82C103.313 10.42 103.683 10.3 103.93 10.06C104.177 9.81333 104.3 9.48667 104.3 9.08C104.3 8.66667 104.177 8.34667 103.93 8.12C103.69 7.89333 103.32 7.78 102.82 7.78H101.48V10.42ZM111.364 7.03V7.77H109.464V14H108.554V7.77H106.644V7.03H111.364Z" fill="#5F646A"/>
<path d="M143.14 7.03V14H142.23V10.84H138.68V14H137.77V7.03H138.68V10.09H142.23V7.03H143.14ZM147.854 14.07C147.207 14.07 146.617 13.92 146.084 13.62C145.55 13.3133 145.127 12.89 144.814 12.35C144.507 11.8033 144.354 11.19 144.354 10.51C144.354 9.83 144.507 9.22 144.814 8.68C145.127 8.13333 145.55 7.71 146.084 7.41C146.617 7.10333 147.207 6.95 147.854 6.95C148.507 6.95 149.1 7.10333 149.634 7.41C150.167 7.71 150.587 8.13 150.894 8.67C151.2 9.21 151.354 9.82333 151.354 10.51C151.354 11.1967 151.2 11.81 150.894 12.35C150.587 12.89 150.167 13.3133 149.634 13.62C149.1 13.92 148.507 14.07 147.854 14.07ZM147.854 13.28C148.34 13.28 148.777 13.1667 149.164 12.94C149.557 12.7133 149.864 12.39 150.084 11.97C150.31 11.55 150.424 11.0633 150.424 10.51C150.424 9.95 150.31 9.46333 150.084 9.05C149.864 8.63 149.56 8.30667 149.174 8.08C148.787 7.85333 148.347 7.74 147.854 7.74C147.36 7.74 146.92 7.85333 146.534 8.08C146.147 8.30667 145.84 8.63 145.614 9.05C145.394 9.46333 145.284 9.95 145.284 10.51C145.284 11.0633 145.394 11.55 145.614 11.97C145.84 12.39 146.147 12.7133 146.534 12.94C146.927 13.1667 147.367 13.28 147.854 13.28ZM161.315 7.03L159.295 14H158.275L156.655 8.39L154.975 14L153.965 14.01L152.015 7.03H152.985L154.505 12.94L156.185 7.03H157.205L158.805 12.92L160.335 7.03H161.315ZM169.267 7.03V7.77H167.367V14H166.457V7.77H164.547V7.03H169.267ZM173.547 14.07C172.901 14.07 172.311 13.92 171.777 13.62C171.244 13.3133 170.821 12.89 170.507 12.35C170.201 11.8033 170.047 11.19 170.047 10.51C170.047 9.83 170.201 9.22 170.507 8.68C170.821 8.13333 171.244 7.71 171.777 7.41C172.311 7.10333 172.901 6.95 173.547 6.95C174.201 6.95 174.794 7.10333 175.327 7.41C175.861 7.71 176.281 8.13 176.587 8.67C176.894 9.21 177.047 9.82333 177.047 10.51C177.047 11.1967 176.894 11.81 176.587 12.35C176.281 12.89 175.861 13.3133 175.327 13.62C174.794 13.92 174.201 14.07 173.547 14.07ZM173.547 13.28C174.034 13.28 174.471 13.1667 174.857 12.94C175.251 12.7133 175.557 12.39 175.777 11.97C176.004 11.55 176.117 11.0633 176.117 10.51C176.117 9.95 176.004 9.46333 175.777 9.05C175.557 8.63 175.254 8.30667 174.867 8.08C174.481 7.85333 174.041 7.74 173.547 7.74C173.054 7.74 172.614 7.85333 172.227 8.08C171.841 8.30667 171.534 8.63 171.307 9.05C171.087 9.46333 170.977 9.95 170.977 10.51C170.977 11.0633 171.087 11.55 171.307 11.97C171.534 12.39 171.841 12.7133 172.227 12.94C172.621 13.1667 173.061 13.28 173.547 13.28Z" fill="#5F646A"/>
<path d="M208.05 9.05C207.857 8.64333 207.577 8.33 207.21 8.11C206.843 7.88333 206.417 7.77 205.93 7.77C205.443 7.77 205.003 7.88333 204.61 8.11C204.223 8.33 203.917 8.65 203.69 9.07C203.47 9.48333 203.36 9.96333 203.36 10.51C203.36 11.0567 203.47 11.5367 203.69 11.95C203.917 12.3633 204.223 12.6833 204.61 12.91C205.003 13.13 205.443 13.24 205.93 13.24C206.61 13.24 207.17 13.0367 207.61 12.63C208.05 12.2233 208.307 11.6733 208.38 10.98H205.6V10.24H209.35V10.94C209.297 11.5133 209.117 12.04 208.81 12.52C208.503 12.9933 208.1 13.37 207.6 13.65C207.1 13.9233 206.543 14.06 205.93 14.06C205.283 14.06 204.693 13.91 204.16 13.61C203.627 13.3033 203.203 12.88 202.89 12.34C202.583 11.8 202.43 11.19 202.43 10.51C202.43 9.83 202.583 9.22 202.89 8.68C203.203 8.13333 203.627 7.71 204.16 7.41C204.693 7.10333 205.283 6.95 205.93 6.95C206.67 6.95 207.323 7.13333 207.89 7.5C208.463 7.86667 208.88 8.38333 209.14 9.05H208.05ZM211.463 7.77V10.1H214.003V10.85H211.463V13.25H214.303V14H210.553V7.02H214.303V7.77H211.463ZM219.97 7.03V7.77H218.07V14H217.16V7.77H215.25V7.03H219.97ZM225.966 14.07C225.506 14.07 225.093 13.99 224.726 13.83C224.366 13.6633 224.083 13.4367 223.876 13.15C223.67 12.8567 223.563 12.52 223.556 12.14H224.526C224.56 12.4667 224.693 12.7433 224.926 12.97C225.166 13.19 225.513 13.3 225.966 13.3C226.4 13.3 226.74 13.1933 226.986 12.98C227.24 12.76 227.366 12.48 227.366 12.14C227.366 11.8733 227.293 11.6567 227.146 11.49C227 11.3233 226.816 11.1967 226.596 11.11C226.376 11.0233 226.08 10.93 225.706 10.83C225.246 10.71 224.876 10.59 224.596 10.47C224.323 10.35 224.086 10.1633 223.886 9.91C223.693 9.65 223.596 9.30333 223.596 8.87C223.596 8.49 223.693 8.15333 223.886 7.86C224.08 7.56667 224.35 7.34 224.696 7.18C225.05 7.02 225.453 6.94 225.906 6.94C226.56 6.94 227.093 7.10333 227.506 7.43C227.926 7.75667 228.163 8.19 228.216 8.73H227.216C227.183 8.46333 227.043 8.23 226.796 8.03C226.55 7.82333 226.223 7.72 225.816 7.72C225.436 7.72 225.126 7.82 224.886 8.02C224.646 8.21333 224.526 8.48667 224.526 8.84C224.526 9.09333 224.596 9.3 224.736 9.46C224.883 9.62 225.06 9.74333 225.266 9.83C225.48 9.91 225.776 10.0033 226.156 10.11C226.616 10.2367 226.986 10.3633 227.266 10.49C227.546 10.61 227.786 10.8 227.986 11.06C228.186 11.3133 228.286 11.66 228.286 12.1C228.286 12.44 228.196 12.76 228.016 13.06C227.836 13.36 227.57 13.6033 227.216 13.79C226.863 13.9767 226.446 14.07 225.966 14.07ZM233.915 7.03V7.77H232.015V14H231.105V7.77H229.195V7.03H233.915ZM239.156 12.45H236.116L235.556 14H234.596L237.116 7.07H238.166L240.676 14H239.716L239.156 12.45ZM238.896 11.71L237.636 8.19L236.376 11.71H238.896ZM245.444 14L243.784 11.15H242.684V14H241.774V7.03H244.024C244.551 7.03 244.994 7.12 245.354 7.3C245.721 7.48 245.994 7.72333 246.174 8.03C246.354 8.33667 246.444 8.68667 246.444 9.08C246.444 9.56 246.304 9.98333 246.024 10.35C245.751 10.7167 245.337 10.96 244.784 11.08L246.534 14H245.444ZM242.684 10.42H244.024C244.517 10.42 244.887 10.3 245.134 10.06C245.381 9.81333 245.504 9.48667 245.504 9.08C245.504 8.66667 245.381 8.34667 245.134 8.12C244.894 7.89333 244.524 7.78 244.024 7.78H242.684V10.42ZM252.148 7.03V7.77H250.248V14H249.338V7.77H247.428V7.03H252.148ZM254.178 7.77V10.1H256.718V10.85H254.178V13.25H257.018V14H253.268V7.02H257.018V7.77H254.178ZM260.565 7.03C261.325 7.03 261.982 7.17333 262.535 7.46C263.095 7.74 263.522 8.14333 263.815 8.67C264.115 9.19667 264.265 9.81667 264.265 10.53C264.265 11.2433 264.115 11.8633 263.815 12.39C263.522 12.91 263.095 13.31 262.535 13.59C261.982 13.8633 261.325 14 260.565 14H258.395V7.03H260.565ZM260.565 13.25C261.465 13.25 262.152 13.0133 262.625 12.54C263.098 12.06 263.335 11.39 263.335 10.53C263.335 9.66333 263.095 8.98667 262.615 8.5C262.142 8.01333 261.458 7.77 260.565 7.77H259.305V13.25H260.565Z" fill="#5F646A"/>
<path d="M15.98 34.07C15.52 34.07 15.1067 33.99 14.74 33.83C14.38 33.6633 14.0967 33.4367 13.89 33.15C13.6833 32.8567 13.5767 32.52 13.57 32.14H14.54C14.5733 32.4667 14.7067 32.7433 14.94 32.97C15.18 33.19 15.5267 33.3 15.98 33.3C16.4133 33.3 16.7533 33.1933 17 32.98C17.2533 32.76 17.38 32.48 17.38 32.14C17.38 31.8733 17.3067 31.6567 17.16 31.49C17.0133 31.3233 16.83 31.1967 16.61 31.11C16.39 31.0233 16.0933 30.93 15.72 30.83C15.26 30.71 14.89 30.59 14.61 30.47C14.3367 30.35 14.1 30.1633 13.9 29.91C13.7067 29.65 13.61 29.3033 13.61 28.87C13.61 28.49 13.7067 28.1533 13.9 27.86C14.0933 27.5667 14.3633 27.34 14.71 27.18C15.0633 27.02 15.4667 26.94 15.92 26.94C16.5733 26.94 17.1067 27.1033 17.52 27.43C17.94 27.7567 18.1767 28.19 18.23 28.73H17.23C17.1967 28.4633 17.0567 28.23 16.81 28.03C16.5633 27.8233 16.2367 27.72 15.83 27.72C15.45 27.72 15.14 27.82 14.9 28.02C14.66 28.2133 14.54 28.4867 14.54 28.84C14.54 29.0933 14.61 29.3 14.75 29.46C14.8967 29.62 15.0733 29.7433 15.28 29.83C15.4933 29.91 15.79 30.0033 16.17 30.11C16.63 30.2367 17 30.3633 17.28 30.49C17.56 30.61 17.8 30.8 18 31.06C18.2 31.3133 18.3 31.66 18.3 32.1C18.3 32.44 18.21 32.76 18.03 33.06C17.85 33.36 17.5833 33.6033 17.23 33.79C16.8767 33.9767 16.46 34.07 15.98 34.07ZM20.5491 27.77V30.1H23.0891V30.85H20.5491V33.25H23.3891V34H19.6391V27.02H23.3891V27.77H20.5491ZM29.0561 27.03V27.77H27.1561V34H26.2461V27.77H24.3361V27.03H29.0561ZM33.7323 27.03V31.44C33.7323 32.06 33.8823 32.52 34.1823 32.82C34.4889 33.12 34.9123 33.27 35.4523 33.27C35.9856 33.27 36.4023 33.12 36.7023 32.82C37.0089 32.52 37.1623 32.06 37.1623 31.44V27.03H38.0723V31.43C38.0723 32.01 37.9556 32.5 37.7223 32.9C37.4889 33.2933 37.1723 33.5867 36.7723 33.78C36.3789 33.9733 35.9356 34.07 35.4423 34.07C34.9489 34.07 34.5023 33.9733 34.1023 33.78C33.7089 33.5867 33.3956 33.2933 33.1623 32.9C32.9356 32.5 32.8223 32.01 32.8223 31.43V27.03H33.7323ZM44.2503 29.07C44.2503 29.65 44.0503 30.1333 43.6503 30.52C43.257 30.9 42.6536 31.09 41.8403 31.09H40.5003V34H39.5903V27.03H41.8403C42.627 27.03 43.2236 27.22 43.6303 27.6C44.0436 27.98 44.2503 28.47 44.2503 29.07ZM41.8403 30.34C42.347 30.34 42.7203 30.23 42.9603 30.01C43.2003 29.79 43.3203 29.4767 43.3203 29.07C43.3203 28.21 42.827 27.78 41.8403 27.78H40.5003V30.34H41.8403ZM55.1173 27.08V34H54.2073V28.84L51.9073 34H51.2673L48.9573 28.83V34H48.0473V27.08H49.0273L51.5873 32.8L54.1473 27.08H55.1173ZM61.5406 27.03L59.2706 31.37V34H58.3606V31.37L56.0806 27.03H57.0906L58.8106 30.56L60.5306 27.03H61.5406ZM72.2365 27.08V34H71.3265V28.84L69.0265 34H68.3865L66.0765 28.83V34H65.1665V27.08H66.1465L68.7065 32.8L71.2665 27.08H72.2365ZM77.8998 32.45H74.8598L74.2998 34H73.3398L75.8598 27.07H76.9098L79.4198 34H78.4598L77.8998 32.45ZM77.6398 31.71L76.3798 28.19L75.1198 31.71H77.6398ZM82.728 34.07C82.268 34.07 81.8547 33.99 81.488 33.83C81.128 33.6633 80.8447 33.4367 80.638 33.15C80.4314 32.8567 80.3247 32.52 80.318 32.14H81.288C81.3214 32.4667 81.4547 32.7433 81.688 32.97C81.928 33.19 82.2747 33.3 82.728 33.3C83.1614 33.3 83.5014 33.1933 83.748 32.98C84.0014 32.76 84.128 32.48 84.128 32.14C84.128 31.8733 84.0547 31.6567 83.908 31.49C83.7614 31.3233 83.578 31.1967 83.358 31.11C83.138 31.0233 82.8414 30.93 82.468 30.83C82.008 30.71 81.638 30.59 81.358 30.47C81.0847 30.35 80.848 30.1633 80.648 29.91C80.4547 29.65 80.358 29.3033 80.358 28.87C80.358 28.49 80.4547 28.1533 80.648 27.86C80.8414 27.5667 81.1114 27.34 81.458 27.18C81.8114 27.02 82.2147 26.94 82.668 26.94C83.3214 26.94 83.8547 27.1033 84.268 27.43C84.688 27.7567 84.9247 28.19 84.978 28.73H83.978C83.9447 28.4633 83.8047 28.23 83.558 28.03C83.3114 27.8233 82.9847 27.72 82.578 27.72C82.198 27.72 81.888 27.82 81.648 28.02C81.408 28.2133 81.288 28.4867 81.288 28.84C81.288 29.0933 81.358 29.3 81.498 29.46C81.6447 29.62 81.8214 29.7433 82.028 29.83C82.2414 29.91 82.538 30.0033 82.918 30.11C83.378 30.2367 83.748 30.3633 84.028 30.49C84.308 30.61 84.548 30.8 84.748 31.06C84.948 31.3133 85.048 31.66 85.048 32.1C85.048 32.44 84.958 32.76 84.778 33.06C84.598 33.36 84.3314 33.6033 83.978 33.79C83.6247 33.9767 83.208 34.07 82.728 34.07ZM90.6772 27.03V27.77H88.7772V34H87.8672V27.77H85.9572V27.03H90.6772ZM92.7073 27.77V30.1H95.2473V30.85H92.7073V33.25H95.5473V34H91.7973V27.02H95.5473V27.77H92.7073ZM100.594 34L98.9343 31.15H97.8343V34H96.9243V27.03H99.1743C99.701 27.03 100.144 27.12 100.504 27.3C100.871 27.48 101.144 27.7233 101.324 28.03C101.504 28.3367 101.594 28.6867 101.594 29.08C101.594 29.56 101.454 29.9833 101.174 30.35C100.901 30.7167 100.488 30.96 99.9343 31.08L101.684 34H100.594ZM97.8343 30.42H99.1743C99.6676 30.42 100.038 30.3 100.284 30.06C100.531 29.8133 100.654 29.4867 100.654 29.08C100.654 28.6667 100.531 28.3467 100.284 28.12C100.044 27.8933 99.6743 27.78 99.1743 27.78H97.8343V30.42ZM107.298 27.03V27.77H105.398V34H104.488V27.77H102.578V27.03H107.298ZM112.538 32.45H109.498L108.938 34H107.978L110.498 27.07H111.548L114.058 34H113.098L112.538 32.45ZM112.278 31.71L111.018 28.19L109.758 31.71H112.278ZM120.437 29.05C120.243 28.6433 119.963 28.33 119.597 28.11C119.23 27.8833 118.803 27.77 118.317 27.77C117.83 27.77 117.39 27.8833 116.997 28.11C116.61 28.33 116.303 28.65 116.077 29.07C115.857 29.4833 115.747 29.9633 115.747 30.51C115.747 31.0567 115.857 31.5367 116.077 31.95C116.303 32.3633 116.61 32.6833 116.997 32.91C117.39 33.13 117.83 33.24 118.317 33.24C118.997 33.24 119.557 33.0367 119.997 32.63C120.437 32.2233 120.693 31.6733 120.767 30.98H117.987V30.24H121.737V30.94C121.683 31.5133 121.503 32.04 121.197 32.52C120.89 32.9933 120.487 33.37 119.987 33.65C119.487 33.9233 118.93 34.06 118.317 34.06C117.67 34.06 117.08 33.91 116.547 33.61C116.013 33.3033 115.59 32.88 115.277 32.34C114.97 31.8 114.817 31.19 114.817 30.51C114.817 29.83 114.97 29.22 115.277 28.68C115.59 28.1333 116.013 27.71 116.547 27.41C117.08 27.1033 117.67 26.95 118.317 26.95C119.057 26.95 119.71 27.1333 120.277 27.5C120.85 27.8667 121.267 28.3833 121.527 29.05H120.437Z" fill="#212529"/>
<path fill-rule="evenodd" clip-rule="evenodd" d="M127.019 9.99759L124.623 6.37562C124.556 6.27474 124.554 6.10835 124.619 6.00399C124.683 5.89962 124.79 5.8968 124.856 5.99768L127.377 9.80862C127.446 9.91194 127.446 10.0832 127.377 10.1866L124.856 13.9975C124.79 14.0984 124.683 14.0956 124.619 13.9912C124.554 13.8869 124.556 13.7204 124.623 13.6195L127.019 9.99759Z" stroke="#5F646A"/>
<path fill-rule="evenodd" clip-rule="evenodd" d="M192.447 9.99759L190.051 6.37562C189.985 6.27474 189.983 6.10835 190.047 6.00399C190.112 5.89962 190.218 5.8968 190.285 5.99768L192.806 9.80862C192.874 9.91194 192.874 10.0832 192.806 10.1866L190.285 13.9975C190.218 14.0984 190.112 14.0956 190.047 13.9912C189.983 13.8869 189.985 13.7204 190.051 13.6195L192.447 9.99759Z" stroke="#5F646A"/>
<path fill-rule="evenodd" clip-rule="evenodd" d="M3.44726 29.9976L1.05126 26.3756C0.98452 26.2747 0.982716 26.1083 1.04723 26.004C1.11174 25.8996 1.21814 25.8968 1.28488 25.9977L3.80589 29.8086C3.87423 29.9119 3.87423 30.0832 3.80589 30.1866L1.28488 33.9975C1.21814 34.0984 1.11174 34.0956 1.04723 33.9912C0.982717 33.8869 0.98452 33.7204 1.05126 33.6195L3.44726 29.9976Z" stroke="#5F646A"/>
<rect x="302" y="7" width="13" height="33" fill="white"/>
</svg>
