<svg width="314" height="40" viewBox="0 0 314 40" fill="none" xmlns="http://www.w3.org/2000/svg">
<path d="M8.84 7.08V14H7.93V8.84L5.63 14H4.99L2.68 8.83V14H1.77V7.08H2.75L5.31 12.8L7.87 7.08H8.84ZM14.9233 12.45H11.8833L11.3233 14H10.3633L12.8833 7.07H13.9333L16.4433 14H15.4833L14.9233 12.45ZM14.6633 11.71L13.4033 8.19L12.1433 11.71H14.6633ZM20.1716 14.07C19.7116 14.07 19.2982 13.99 18.9316 13.83C18.5716 13.6633 18.2882 13.4367 18.0816 13.15C17.8749 12.8567 17.7682 12.52 17.7616 12.14H18.7316C18.7649 12.4667 18.8982 12.7433 19.1316 12.97C19.3716 13.19 19.7182 13.3 20.1716 13.3C20.6049 13.3 20.9449 13.1933 21.1916 12.98C21.4449 12.76 21.5716 12.48 21.5716 12.14C21.5716 11.8733 21.4982 11.6567 21.3516 11.49C21.2049 11.3233 21.0216 11.1967 20.8016 11.11C20.5816 11.0233 20.2849 10.93 19.9116 10.83C19.4516 10.71 19.0816 10.59 18.8016 10.47C18.5282 10.35 18.2916 10.1633 18.0916 9.91C17.8982 9.65 17.8016 9.30333 17.8016 8.87C17.8016 8.49 17.8982 8.15333 18.0916 7.86C18.2849 7.56667 18.5549 7.34 18.9016 7.18C19.2549 7.02 19.6582 6.94 20.1116 6.94C20.7649 6.94 21.2982 7.10333 21.7116 7.43C22.1316 7.75667 22.3682 8.19 22.4216 8.73H21.4216C21.3882 8.46333 21.2482 8.23 21.0016 8.03C20.7549 7.82333 20.4282 7.72 20.0216 7.72C19.6416 7.72 19.3316 7.82 19.0916 8.02C18.8516 8.21333 18.7316 8.48667 18.7316 8.84C18.7316 9.09333 18.8016 9.3 18.9416 9.46C19.0882 9.62 19.2649 9.74333 19.4716 9.83C19.6849 9.91 19.9816 10.0033 20.3616 10.11C20.8216 10.2367 21.1916 10.3633 21.4716 10.49C21.7516 10.61 21.9916 10.8 22.1916 11.06C22.3916 11.3133 22.4916 11.66 22.4916 12.1C22.4916 12.44 22.4016 12.76 22.2216 13.06C22.0416 13.36 21.7749 13.6033 21.4216 13.79C21.0682 13.9767 20.6516 14.07 20.1716 14.07ZM28.5407 7.03V7.77H26.6407V14H25.7307V7.77H23.8207V7.03H28.5407ZM30.9909 7.77V10.1H33.5309V10.85H30.9909V13.25H33.8309V14H30.0809V7.02H33.8309V7.77H30.9909ZM39.2978 14L37.6378 11.15H36.5378V14H35.6278V7.03H37.8778C38.4045 7.03 38.8478 7.12 39.2078 7.3C39.5745 7.48 39.8478 7.72333 40.0278 8.03C40.2078 8.33667 40.2978 8.68667 40.2978 9.08C40.2978 9.56 40.1578 9.98333 39.8778 10.35C39.6045 10.7167 39.1911 10.96 38.6378 11.08L40.3878 14H39.2978ZM36.5378 10.42H37.8778C38.3711 10.42 38.7411 10.3 38.9878 10.06C39.2345 9.81333 39.3578 9.48667 39.3578 9.08C39.3578 8.66667 39.2345 8.34667 38.9878 8.12C38.7478 7.89333 38.3778 7.78 37.8778 7.78H36.5378V10.42ZM46.4218 7.03V7.77H44.5218V14H43.6118V7.77H41.7018V7.03H46.4218ZM52.082 12.45H49.042L48.482 14H47.522L50.042 7.07H51.092L53.602 14H52.642L52.082 12.45ZM51.822 11.71L50.562 8.19L49.302 11.71H51.822ZM60.4002 9.05C60.2069 8.64333 59.9269 8.33 59.5602 8.11C59.1936 7.88333 58.7669 7.77 58.2802 7.77C57.7936 7.77 57.3536 7.88333 56.9602 8.11C56.5736 8.33 56.2669 8.65 56.0402 9.07C55.8202 9.48333 55.7102 9.96333 55.7102 10.51C55.7102 11.0567 55.8202 11.5367 56.0402 11.95C56.2669 12.3633 56.5736 12.6833 56.9602 12.91C57.3536 13.13 57.7936 13.24 58.2802 13.24C58.9602 13.24 59.5202 13.0367 59.9602 12.63C60.4002 12.2233 60.6569 11.6733 60.7302 10.98H57.9502V10.24H61.7002V10.94C61.6469 11.5133 61.4669 12.04 61.1602 12.52C60.8536 12.9933 60.4502 13.37 59.9502 13.65C59.4502 13.9233 58.8936 14.06 58.2802 14.06C57.6336 14.06 57.0436 13.91 56.5102 13.61C55.9769 13.3033 55.5536 12.88 55.2402 12.34C54.9336 11.8 54.7802 11.19 54.7802 10.51C54.7802 9.83 54.9336 9.22 55.2402 8.68C55.5536 8.13333 55.9769 7.71 56.5102 7.41C57.0436 7.10333 57.6336 6.95 58.2802 6.95C59.0202 6.95 59.6736 7.13333 60.2402 7.5C60.8136 7.86667 61.2302 8.38333 61.4902 9.05H60.4002ZM68.6195 14.07C68.1595 14.07 67.7461 13.99 67.3795 13.83C67.0195 13.6633 66.7361 13.4367 66.5295 13.15C66.3228 12.8567 66.2161 12.52 66.2095 12.14H67.1795C67.2128 12.4667 67.3461 12.7433 67.5795 12.97C67.8195 13.19 68.1661 13.3 68.6195 13.3C69.0528 13.3 69.3928 13.1933 69.6395 12.98C69.8928 12.76 70.0195 12.48 70.0195 12.14C70.0195 11.8733 69.9461 11.6567 69.7995 11.49C69.6528 11.3233 69.4695 11.1967 69.2495 11.11C69.0295 11.0233 68.7328 10.93 68.3595 10.83C67.8995 10.71 67.5295 10.59 67.2495 10.47C66.9761 10.35 66.7395 10.1633 66.5395 9.91C66.3461 9.65 66.2495 9.30333 66.2495 8.87C66.2495 8.49 66.3461 8.15333 66.5395 7.86C66.7328 7.56667 67.0028 7.34 67.3495 7.18C67.7028 7.02 68.1061 6.94 68.5595 6.94C69.2128 6.94 69.7461 7.10333 70.1595 7.43C70.5795 7.75667 70.8161 8.19 70.8695 8.73H69.8695C69.8361 8.46333 69.6961 8.23 69.4495 8.03C69.2028 7.82333 68.8761 7.72 68.4695 7.72C68.0895 7.72 67.7795 7.82 67.5395 8.02C67.2995 8.21333 67.1795 8.48667 67.1795 8.84C67.1795 9.09333 67.2495 9.3 67.3895 9.46C67.5361 9.62 67.7128 9.74333 67.9195 9.83C68.1328 9.91 68.4295 10.0033 68.8095 10.11C69.2695 10.2367 69.6395 10.3633 69.9195 10.49C70.1995 10.61 70.4395 10.8 70.6395 11.06C70.8395 11.3133 70.9395 11.66 70.9395 12.1C70.9395 12.44 70.8495 12.76 70.6695 13.06C70.4895 13.36 70.2228 13.6033 69.8695 13.79C69.5161 13.9767 69.0995 14.07 68.6195 14.07ZM73.5886 7.03V11.44C73.5886 12.06 73.7386 12.52 74.0386 12.82C74.3453 13.12 74.7686 13.27 75.3086 13.27C75.8419 13.27 76.2586 13.12 76.5586 12.82C76.8653 12.52 77.0186 12.06 77.0186 11.44V7.03H77.9286V11.43C77.9286 12.01 77.8119 12.5 77.5786 12.9C77.3453 13.2933 77.0286 13.5867 76.6286 13.78C76.2353 13.9733 75.7919 14.07 75.2986 14.07C74.8053 14.07 74.3586 13.9733 73.9586 13.78C73.5653 13.5867 73.2519 13.2933 73.0186 12.9C72.7919 12.5 72.6786 12.01 72.6786 11.43V7.03H73.5886ZM84.5266 9.07C84.5266 9.65 84.3266 10.1333 83.9266 10.52C83.5333 10.9 82.93 11.09 82.1166 11.09H80.7766V14H79.8666V7.03H82.1166C82.9033 7.03 83.5 7.22 83.9066 7.6C84.32 7.98 84.5266 8.47 84.5266 9.07ZM82.1166 10.34C82.6233 10.34 82.9966 10.23 83.2366 10.01C83.4766 9.79 83.5966 9.47667 83.5966 9.07C83.5966 8.21 83.1033 7.78 82.1166 7.78H80.7766V10.34H82.1166ZM90.7377 9.07C90.7377 9.65 90.5377 10.1333 90.1377 10.52C89.7443 10.9 89.141 11.09 88.3277 11.09H86.9877V14H86.0777V7.03H88.3277C89.1143 7.03 89.711 7.22 90.1177 7.6C90.531 7.98 90.7377 8.47 90.7377 9.07ZM88.3277 10.34C88.8343 10.34 89.2077 10.23 89.4477 10.01C89.6877 9.79 89.8077 9.47667 89.8077 9.07C89.8077 8.21 89.3143 7.78 88.3277 7.78H86.9877V10.34H88.3277ZM95.4487 14.07C94.802 14.07 94.212 13.92 93.6787 13.62C93.1453 13.3133 92.722 12.89 92.4087 12.35C92.102 11.8033 91.9487 11.19 91.9487 10.51C91.9487 9.83 92.102 9.22 92.4087 8.68C92.722 8.13333 93.1453 7.71 93.6787 7.41C94.212 7.10333 94.802 6.95 95.4487 6.95C96.102 6.95 96.6953 7.10333 97.2287 7.41C97.762 7.71 98.182 8.13 98.4887 8.67C98.7953 9.21 98.9487 9.82333 98.9487 10.51C98.9487 11.1967 98.7953 11.81 98.4887 12.35C98.182 12.89 97.762 13.3133 97.2287 13.62C96.6953 13.92 96.102 14.07 95.4487 14.07ZM95.4487 13.28C95.9353 13.28 96.372 13.1667 96.7587 12.94C97.152 12.7133 97.4587 12.39 97.6787 11.97C97.9053 11.55 98.0187 11.0633 98.0187 10.51C98.0187 9.95 97.9053 9.46333 97.6787 9.05C97.4587 8.63 97.1553 8.30667 96.7687 8.08C96.382 7.85333 95.942 7.74 95.4487 7.74C94.9553 7.74 94.5153 7.85333 94.1287 8.08C93.742 8.30667 93.4353 8.63 93.2087 9.05C92.9887 9.46333 92.8787 9.95 92.8787 10.51C92.8787 11.0633 92.9887 11.55 93.2087 11.97C93.4353 12.39 93.742 12.7133 94.1287 12.94C94.522 13.1667 94.962 13.28 95.4487 13.28ZM104.24 14L102.58 11.15H101.48V14H100.57V7.03H102.82C103.347 7.03 103.79 7.12 104.15 7.3C104.517 7.48 104.79 7.72333 104.97 8.03C105.15 8.33667 105.24 8.68667 105.24 9.08C105.24 9.56 105.1 9.98333 104.82 10.35C104.547 10.7167 104.133 10.96 103.58 11.08L105.33 14H104.24ZM101.48 10.42H102.82C103.313 10.42 103.683 10.3 103.93 10.06C104.177 9.81333 104.3 9.48667 104.3 9.08C104.3 8.66667 104.177 8.34667 103.93 8.12C103.69 7.89333 103.32 7.78 102.82 7.78H101.48V10.42ZM111.364 7.03V7.77H109.464V14H108.554V7.77H106.644V7.03H111.364Z" fill="#5F646A"/>
<path d="M143.14 7.03V14H142.23V10.84H138.68V14H137.77V7.03H138.68V10.09H142.23V7.03H143.14ZM147.854 14.07C147.207 14.07 146.617 13.92 146.084 13.62C145.55 13.3133 145.127 12.89 144.814 12.35C144.507 11.8033 144.354 11.19 144.354 10.51C144.354 9.83 144.507 9.22 144.814 8.68C145.127 8.13333 145.55 7.71 146.084 7.41C146.617 7.10333 147.207 6.95 147.854 6.95C148.507 6.95 149.1 7.10333 149.634 7.41C150.167 7.71 150.587 8.13 150.894 8.67C151.2 9.21 151.354 9.82333 151.354 10.51C151.354 11.1967 151.2 11.81 150.894 12.35C150.587 12.89 150.167 13.3133 149.634 13.62C149.1 13.92 148.507 14.07 147.854 14.07ZM147.854 13.28C148.34 13.28 148.777 13.1667 149.164 12.94C149.557 12.7133 149.864 12.39 150.084 11.97C150.31 11.55 150.424 11.0633 150.424 10.51C150.424 9.95 150.31 9.46333 150.084 9.05C149.864 8.63 149.56 8.30667 149.174 8.08C148.787 7.85333 148.347 7.74 147.854 7.74C147.36 7.74 146.92 7.85333 146.534 8.08C146.147 8.30667 145.84 8.63 145.614 9.05C145.394 9.46333 145.284 9.95 145.284 10.51C145.284 11.0633 145.394 11.55 145.614 11.97C145.84 12.39 146.147 12.7133 146.534 12.94C146.927 13.1667 147.367 13.28 147.854 13.28ZM161.315 7.03L159.295 14H158.275L156.655 8.39L154.975 14L153.965 14.01L152.015 7.03H152.985L154.505 12.94L156.185 7.03H157.205L158.805 12.92L160.335 7.03H161.315ZM169.267 7.03V7.77H167.367V14H166.457V7.77H164.547V7.03H169.267ZM173.547 14.07C172.901 14.07 172.311 13.92 171.777 13.62C171.244 13.3133 170.821 12.89 170.507 12.35C170.201 11.8033 170.047 11.19 170.047 10.51C170.047 9.83 170.201 9.22 170.507 8.68C170.821 8.13333 171.244 7.71 171.777 7.41C172.311 7.10333 172.901 6.95 173.547 6.95C174.201 6.95 174.794 7.10333 175.327 7.41C175.861 7.71 176.281 8.13 176.587 8.67C176.894 9.21 177.047 9.82333 177.047 10.51C177.047 11.1967 176.894 11.81 176.587 12.35C176.281 12.89 175.861 13.3133 175.327 13.62C174.794 13.92 174.201 14.07 173.547 14.07ZM173.547 13.28C174.034 13.28 174.471 13.1667 174.857 12.94C175.251 12.7133 175.557 12.39 175.777 11.97C176.004 11.55 176.117 11.0633 176.117 10.51C176.117 9.95 176.004 9.46333 175.777 9.05C175.557 8.63 175.254 8.30667 174.867 8.08C174.481 7.85333 174.041 7.74 173.547 7.74C173.054 7.74 172.614 7.85333 172.227 8.08C171.841 8.30667 171.534 8.63 171.307 9.05C171.087 9.46333 170.977 9.95 170.977 10.51C170.977 11.0633 171.087 11.55 171.307 11.97C171.534 12.39 171.841 12.7133 172.227 12.94C172.621 13.1667 173.061 13.28 173.547 13.28Z" fill="#5F646A"/>
<path d="M203.66 7.03V11.44C203.66 12.06 203.81 12.52 204.11 12.82C204.417 13.12 204.84 13.27 205.38 13.27C205.913 13.27 206.33 13.12 206.63 12.82C206.937 12.52 207.09 12.06 207.09 11.44V7.03H208V11.43C208 12.01 207.883 12.5 207.65 12.9C207.417 13.2933 207.1 13.5867 206.7 13.78C206.307 13.9733 205.863 14.07 205.37 14.07C204.877 14.07 204.43 13.9733 204.03 13.78C203.637 13.5867 203.323 13.2933 203.09 12.9C202.863 12.5 202.75 12.01 202.75 11.43V7.03H203.66ZM211.728 14.07C211.268 14.07 210.855 13.99 210.488 13.83C210.128 13.6633 209.845 13.4367 209.638 13.15C209.431 12.8567 209.325 12.52 209.318 12.14H210.288C210.321 12.4667 210.455 12.7433 210.688 12.97C210.928 13.19 211.275 13.3 211.728 13.3C212.161 13.3 212.501 13.1933 212.748 12.98C213.001 12.76 213.128 12.48 213.128 12.14C213.128 11.8733 213.055 11.6567 212.908 11.49C212.761 11.3233 212.578 11.1967 212.358 11.11C212.138 11.0233 211.841 10.93 211.468 10.83C211.008 10.71 210.638 10.59 210.358 10.47C210.085 10.35 209.848 10.1633 209.648 9.91C209.455 9.65 209.358 9.30333 209.358 8.87C209.358 8.49 209.455 8.15333 209.648 7.86C209.841 7.56667 210.111 7.34 210.458 7.18C210.811 7.02 211.215 6.94 211.668 6.94C212.321 6.94 212.855 7.10333 213.268 7.43C213.688 7.75667 213.925 8.19 213.978 8.73H212.978C212.945 8.46333 212.805 8.23 212.558 8.03C212.311 7.82333 211.985 7.72 211.578 7.72C211.198 7.72 210.888 7.82 210.648 8.02C210.408 8.21333 210.288 8.48667 210.288 8.84C210.288 9.09333 210.358 9.3 210.498 9.46C210.645 9.62 210.821 9.74333 211.028 9.83C211.241 9.91 211.538 10.0033 211.918 10.11C212.378 10.2367 212.748 10.3633 213.028 10.49C213.308 10.61 213.548 10.8 213.748 11.06C213.948 11.3133 214.048 11.66 214.048 12.1C214.048 12.44 213.958 12.76 213.778 13.06C213.598 13.36 213.331 13.6033 212.978 13.79C212.625 13.9767 212.208 14.07 211.728 14.07ZM216.297 7.77V10.1H218.837V10.85H216.297V13.25H219.137V14H215.387V7.02H219.137V7.77H216.297ZM227.47 7.03V7.77H225.57V14H224.66V7.77H222.75V7.03H227.47ZM233.96 7.03V14H233.05V10.84H229.5V14H228.59V7.03H229.5V10.09H233.05V7.03H233.96ZM236.424 7.77V10.1H238.964V10.85H236.424V13.25H239.264V14H235.514V7.02H239.264V7.77H236.424ZM247.427 12.45H244.387L243.827 14H242.867L245.387 7.07H246.437L248.947 14H247.987L247.427 12.45ZM247.167 11.71L245.907 8.19L244.647 11.71H247.167ZM254.705 9.07C254.705 9.65 254.505 10.1333 254.105 10.52C253.712 10.9 253.109 11.09 252.295 11.09H250.955V14H250.045V7.03H252.295C253.082 7.03 253.679 7.22 254.085 7.6C254.499 7.98 254.705 8.47 254.705 9.07ZM252.295 10.34C252.802 10.34 253.175 10.23 253.415 10.01C253.655 9.79 253.775 9.47667 253.775 9.07C253.775 8.21 253.282 7.78 252.295 7.78H250.955V10.34H252.295ZM260.496 9.07C260.496 9.65 260.296 10.1333 259.896 10.52C259.503 10.9 258.9 11.09 258.086 11.09H256.746V14H255.836V7.03H258.086C258.873 7.03 259.47 7.22 259.876 7.6C260.29 7.98 260.496 8.47 260.496 9.07ZM258.086 10.34C258.593 10.34 258.966 10.23 259.206 10.01C259.446 9.79 259.566 9.47667 259.566 9.07C259.566 8.21 259.073 7.78 258.086 7.78H256.746V10.34H258.086Z" fill="#5F646A"/>
<path d="M17.71 27.03V27.77H14.68V30.12H17.14V30.86H14.68V34H13.77V27.03H17.71ZM19.7191 27.03V34H18.8091V27.03H19.7191ZM26.75 34H25.84L22.18 28.45V34H21.27V27.02H22.18L25.84 32.56V27.02H26.75V34ZM30.4712 27.03C31.2313 27.03 31.8879 27.1733 32.4413 27.46C33.0013 27.74 33.4279 28.1433 33.7213 28.67C34.0213 29.1967 34.1713 29.8167 34.1713 30.53C34.1713 31.2433 34.0213 31.8633 33.7213 32.39C33.4279 32.91 33.0013 33.31 32.4413 33.59C31.8879 33.8633 31.2313 34 30.4712 34H28.3013V27.03H30.4712ZM30.4712 33.25C31.3713 33.25 32.0579 33.0133 32.5312 32.54C33.0046 32.06 33.2413 31.39 33.2413 30.53C33.2413 29.6633 33.0013 28.9867 32.5213 28.5C32.0479 28.0133 31.3646 27.77 30.4712 27.77H29.2113V33.25H30.4712ZM45.1076 27.08V34H44.1976V28.84L41.8976 34H41.2576L38.9476 28.83V34H38.0376V27.08H39.0176L41.5776 32.8L44.1376 27.08H45.1076ZM51.5309 27.03L49.2609 31.37V34H48.3509V31.37L46.0709 27.03H47.0809L48.8009 30.56L50.5209 27.03H51.5309ZM62.2267 27.08V34H61.3167V28.84L59.0167 34H58.3767L56.0667 28.83V34H55.1567V27.08H56.1367L58.6967 32.8L61.2567 27.08H62.2267ZM67.89 32.45H64.85L64.29 34H63.33L65.85 27.07H66.9L69.41 34H68.45L67.89 32.45ZM67.63 31.71L66.37 28.19L65.11 31.71H67.63ZM72.7183 34.07C72.2583 34.07 71.8449 33.99 71.4783 33.83C71.1183 33.6633 70.8349 33.4367 70.6283 33.15C70.4216 32.8567 70.3149 32.52 70.3083 32.14H71.2783C71.3116 32.4667 71.4449 32.7433 71.6783 32.97C71.9183 33.19 72.2649 33.3 72.7183 33.3C73.1516 33.3 73.4916 33.1933 73.7383 32.98C73.9916 32.76 74.1183 32.48 74.1183 32.14C74.1183 31.8733 74.0449 31.6567 73.8983 31.49C73.7516 31.3233 73.5683 31.1967 73.3483 31.11C73.1283 31.0233 72.8316 30.93 72.4583 30.83C71.9983 30.71 71.6283 30.59 71.3483 30.47C71.0749 30.35 70.8383 30.1633 70.6383 29.91C70.4449 29.65 70.3483 29.3033 70.3483 28.87C70.3483 28.49 70.4449 28.1533 70.6383 27.86C70.8316 27.5667 71.1016 27.34 71.4483 27.18C71.8016 27.02 72.2049 26.94 72.6583 26.94C73.3116 26.94 73.8449 27.1033 74.2583 27.43C74.6783 27.7567 74.9149 28.19 74.9683 28.73H73.9683C73.9349 28.4633 73.7949 28.23 73.5483 28.03C73.3016 27.8233 72.9749 27.72 72.5683 27.72C72.1883 27.72 71.8783 27.82 71.6383 28.02C71.3983 28.2133 71.2783 28.4867 71.2783 28.84C71.2783 29.0933 71.3483 29.3 71.4883 29.46C71.6349 29.62 71.8116 29.7433 72.0183 29.83C72.2316 29.91 72.5283 30.0033 72.9083 30.11C73.3683 30.2367 73.7383 30.3633 74.0183 30.49C74.2983 30.61 74.5383 30.8 74.7383 31.06C74.9383 31.3133 75.0383 31.66 75.0383 32.1C75.0383 32.44 74.9483 32.76 74.7683 33.06C74.5883 33.36 74.3216 33.6033 73.9683 33.79C73.6149 33.9767 73.1983 34.07 72.7183 34.07ZM80.6674 27.03V27.77H78.7674V34H77.8574V27.77H75.9474V27.03H80.6674ZM82.6976 27.77V30.1H85.2376V30.85H82.6976V33.25H85.5376V34H81.7876V27.02H85.5376V27.77H82.6976ZM90.5845 34L88.9245 31.15H87.8245V34H86.9145V27.03H89.1645C89.6912 27.03 90.1345 27.12 90.4945 27.3C90.8612 27.48 91.1345 27.7233 91.3145 28.03C91.4945 28.3367 91.5845 28.6867 91.5845 29.08C91.5845 29.56 91.4445 29.9833 91.1645 30.35C90.8912 30.7167 90.4779 30.96 89.9245 31.08L91.6745 34H90.5845ZM87.8245 30.42H89.1645C89.6579 30.42 90.0279 30.3 90.2745 30.06C90.5212 29.8133 90.6445 29.4867 90.6445 29.08C90.6445 28.6667 90.5212 28.3467 90.2745 28.12C90.0345 27.8933 89.6645 27.78 89.1645 27.78H87.8245V30.42ZM97.2885 27.03V27.77H95.3885V34H94.4785V27.77H92.5685V27.03H97.2885ZM102.529 32.45H99.4887L98.9287 34H97.9687L100.489 27.07H101.539L104.049 34H103.089L102.529 32.45ZM102.269 31.71L101.009 28.19L99.7487 31.71H102.269ZM110.427 29.05C110.234 28.6433 109.954 28.33 109.587 28.11C109.22 27.8833 108.794 27.77 108.307 27.77C107.82 27.77 107.38 27.8833 106.987 28.11C106.6 28.33 106.294 28.65 106.067 29.07C105.847 29.4833 105.737 29.9633 105.737 30.51C105.737 31.0567 105.847 31.5367 106.067 31.95C106.294 32.3633 106.6 32.6833 106.987 32.91C107.38 33.13 107.82 33.24 108.307 33.24C108.987 33.24 109.547 33.0367 109.987 32.63C110.427 32.2233 110.684 31.6733 110.757 30.98H107.977V30.24H111.727V30.94C111.674 31.5133 111.494 32.04 111.187 32.52C110.88 32.9933 110.477 33.37 109.977 33.65C109.477 33.9233 108.92 34.06 108.307 34.06C107.66 34.06 107.07 33.91 106.537 33.61C106.004 33.3033 105.58 32.88 105.267 32.34C104.96 31.8 104.807 31.19 104.807 30.51C104.807 29.83 104.96 29.22 105.267 28.68C105.58 28.1333 106.004 27.71 106.537 27.41C107.07 27.1033 107.66 26.95 108.307 26.95C109.047 26.95 109.7 27.1333 110.267 27.5C110.84 27.8667 111.257 28.3833 111.517 29.05H110.427Z" fill="#212529"/>
<path fill-rule="evenodd" clip-rule="evenodd" d="M127.019 9.86258L124.623 6.42837C124.556 6.33272 124.554 6.17495 124.619 6.076C124.683 5.97705 124.79 5.97437 124.856 6.07003L127.377 9.6834C127.446 9.78136 127.446 9.94379 127.377 10.0417L124.856 13.6551C124.79 13.7508 124.683 13.7481 124.619 13.6492C124.554 13.5502 124.556 13.3924 124.623 13.2968L127.019 9.86258Z" stroke="#5F646A"/>
<path fill-rule="evenodd" clip-rule="evenodd" d="M192.447 9.86258L190.051 6.42837C189.985 6.33272 189.983 6.17495 190.047 6.076C190.112 5.97705 190.218 5.97437 190.285 6.07003L192.806 9.6834C192.874 9.78136 192.874 9.94379 192.806 10.0417L190.285 13.6551C190.218 13.7508 190.112 13.7481 190.047 13.6492C189.983 13.5502 189.985 13.3924 190.051 13.2968L192.447 9.86258Z" stroke="#5F646A"/>
<path fill-rule="evenodd" clip-rule="evenodd" d="M3.44726 29.8626L1.05126 26.4284C0.98452 26.3327 0.982716 26.175 1.04723 26.076C1.11174 25.977 1.21814 25.9744 1.28488 26.07L3.80589 29.6834C3.87423 29.7814 3.87423 29.9438 3.80589 30.0417L1.28488 33.6551C1.21814 33.7508 1.11174 33.7481 1.04723 33.6492C0.982717 33.5502 0.98452 33.3924 1.05126 33.2968L3.44726 29.8626Z" stroke="#5F646A"/>
<rect x="301" y="1" width="13" height="33" fill="white"/>
</svg>
