<svg width="314" height="198" viewBox="0 0 314 198" fill="none" xmlns="http://www.w3.org/2000/svg">
<path d="M100.214 37L94.1176 29.536V37H90.7576V20.248H94.1176V27.76L100.214 20.248H104.27L97.3576 28.552L104.462 37H100.214ZM119.032 30.064C119.032 30.544 119 30.976 118.936 31.36H109.216C109.296 32.32 109.632 33.072 110.224 33.616C110.816 34.16 111.544 34.432 112.408 34.432C113.656 34.432 114.544 33.896 115.072 32.824H118.696C118.312 34.104 117.576 35.16 116.488 35.992C115.4 36.808 114.064 37.216 112.48 37.216C111.2 37.216 110.048 36.936 109.024 36.376C108.016 35.8 107.224 34.992 106.648 33.952C106.088 32.912 105.808 31.712 105.808 30.352C105.808 28.976 106.088 27.768 106.648 26.728C107.208 25.688 107.992 24.888 109 24.328C110.008 23.768 111.168 23.488 112.48 23.488C113.744 23.488 114.872 23.76 115.864 24.304C116.872 24.848 117.648 25.624 118.192 26.632C118.752 27.624 119.032 28.768 119.032 30.064ZM115.552 29.104C115.536 28.24 115.224 27.552 114.616 27.04C114.008 26.512 113.264 26.248 112.384 26.248C111.552 26.248 110.848 26.504 110.272 27.016C109.712 27.512 109.368 28.208 109.24 29.104H115.552ZM133.844 30.064C133.844 30.544 133.812 30.976 133.748 31.36H124.028C124.108 32.32 124.444 33.072 125.036 33.616C125.628 34.16 126.356 34.432 127.22 34.432C128.468 34.432 129.356 33.896 129.884 32.824H133.508C133.124 34.104 132.388 35.16 131.3 35.992C130.212 36.808 128.876 37.216 127.292 37.216C126.012 37.216 124.86 36.936 123.836 36.376C122.828 35.8 122.036 34.992 121.46 33.952C120.9 32.912 120.62 31.712 120.62 30.352C120.62 28.976 120.9 27.768 121.46 26.728C122.02 25.688 122.804 24.888 123.812 24.328C124.82 23.768 125.98 23.488 127.292 23.488C128.556 23.488 129.684 23.76 130.676 24.304C131.684 24.848 132.46 25.624 133.004 26.632C133.564 27.624 133.844 28.768 133.844 30.064ZM130.364 29.104C130.348 28.24 130.036 27.552 129.428 27.04C128.82 26.512 128.076 26.248 127.196 26.248C126.364 26.248 125.66 26.504 125.084 27.016C124.524 27.512 124.18 28.208 124.052 29.104H130.364ZM139.657 25.624C140.089 25.016 140.681 24.512 141.433 24.112C142.201 23.696 143.073 23.488 144.049 23.488C145.185 23.488 146.209 23.768 147.121 24.328C148.049 24.888 148.777 25.688 149.305 26.728C149.849 27.752 150.121 28.944 150.121 30.304C150.121 31.664 149.849 32.872 149.305 33.928C148.777 34.968 148.049 35.776 147.121 36.352C146.209 36.928 145.185 37.216 144.049 37.216C143.073 37.216 142.209 37.016 141.457 36.616C140.721 36.216 140.121 35.712 139.657 35.104V43.336H136.297V23.704H139.657V25.624ZM146.689 30.304C146.689 29.504 146.521 28.816 146.185 28.24C145.865 27.648 145.433 27.2 144.889 26.896C144.361 26.592 143.785 26.44 143.161 26.44C142.553 26.44 141.977 26.6 141.433 26.92C140.905 27.224 140.473 27.672 140.137 28.264C139.817 28.856 139.657 29.552 139.657 30.352C139.657 31.152 139.817 31.848 140.137 32.44C140.473 33.032 140.905 33.488 141.433 33.808C141.977 34.112 142.553 34.264 143.161 34.264C143.785 34.264 144.361 34.104 144.889 33.784C145.433 33.464 145.865 33.008 146.185 32.416C146.521 31.824 146.689 31.12 146.689 30.304ZM169.681 20.248V22.96H165.217V37H161.857V22.96H157.393V20.248H169.681ZM175.493 25.768C175.925 25.064 176.485 24.512 177.173 24.112C177.877 23.712 178.677 23.512 179.573 23.512V27.04H178.685C177.629 27.04 176.829 27.288 176.285 27.784C175.757 28.28 175.493 29.144 175.493 30.376V37H172.133V23.704H175.493V25.768ZM180.972 30.304C180.972 28.96 181.236 27.768 181.764 26.728C182.308 25.688 183.036 24.888 183.948 24.328C184.876 23.768 185.908 23.488 187.044 23.488C188.036 23.488 188.9 23.688 189.636 24.088C190.388 24.488 190.988 24.992 191.436 25.6V23.704H194.82V37H191.436V35.056C191.004 35.68 190.404 36.2 189.636 36.616C188.884 37.016 188.012 37.216 187.02 37.216C185.9 37.216 184.876 36.928 183.948 36.352C183.036 35.776 182.308 34.968 181.764 33.928C181.236 32.872 180.972 31.664 180.972 30.304ZM191.436 30.352C191.436 29.536 191.276 28.84 190.956 28.264C190.636 27.672 190.204 27.224 189.66 26.92C189.116 26.6 188.532 26.44 187.908 26.44C187.284 26.44 186.708 26.592 186.18 26.896C185.652 27.2 185.22 27.648 184.884 28.24C184.564 28.816 184.404 29.504 184.404 30.304C184.404 31.104 184.564 31.808 184.884 32.416C185.22 33.008 185.652 33.464 186.18 33.784C186.724 34.104 187.3 34.264 187.908 34.264C188.532 34.264 189.116 34.112 189.66 33.808C190.204 33.488 190.636 33.04 190.956 32.464C191.276 31.872 191.436 31.168 191.436 30.352ZM197.237 30.352C197.237 28.976 197.517 27.776 198.077 26.752C198.637 25.712 199.413 24.912 200.405 24.352C201.397 23.776 202.533 23.488 203.813 23.488C205.461 23.488 206.821 23.904 207.893 24.736C208.981 25.552 209.709 26.704 210.077 28.192H206.453C206.261 27.616 205.933 27.168 205.469 26.848C205.021 26.512 204.461 26.344 203.789 26.344C202.829 26.344 202.069 26.696 201.509 27.4C200.949 28.088 200.669 29.072 200.669 30.352C200.669 31.616 200.949 32.6 201.509 33.304C202.069 33.992 202.829 34.336 203.789 34.336C205.149 34.336 206.037 33.728 206.453 32.512H210.077C209.709 33.952 208.981 35.096 207.893 35.944C206.805 36.792 205.445 37.216 203.813 37.216C202.533 37.216 201.397 36.936 200.405 36.376C199.413 35.8 198.637 35 198.077 33.976C197.517 32.936 197.237 31.728 197.237 30.352ZM220.411 37L215.899 31.336V37H212.539V19.24H215.899V29.344L220.363 23.704H224.731L218.875 30.376L224.779 37H220.411Z" fill="#1E2A39"/>
<path d="M33.4503 66.928V78H31.9943V69.744L28.3143 78H27.2903L23.5943 69.728V78H22.1383V66.928H23.7063L27.8023 76.08L31.8983 66.928H33.4503ZM35.3755 73.584C35.3755 72.688 35.5568 71.904 35.9195 71.232C36.2822 70.5493 36.7782 70.0213 37.4075 69.648C38.0475 69.2747 38.7568 69.088 39.5355 69.088C40.3035 69.088 40.9702 69.2533 41.5355 69.584C42.1008 69.9147 42.5222 70.3307 42.7995 70.832V69.232H44.2715V78H42.7995V76.368C42.5115 76.88 42.0795 77.3067 41.5035 77.648C40.9382 77.9787 40.2768 78.144 39.5195 78.144C38.7408 78.144 38.0368 77.952 37.4075 77.568C36.7782 77.184 36.2822 76.6453 35.9195 75.952C35.5568 75.2587 35.3755 74.4693 35.3755 73.584ZM42.7995 73.6C42.7995 72.9387 42.6662 72.3627 42.3995 71.872C42.1328 71.3813 41.7702 71.008 41.3115 70.752C40.8635 70.4853 40.3675 70.352 39.8235 70.352C39.2795 70.352 38.7835 70.48 38.3355 70.736C37.8875 70.992 37.5302 71.3653 37.2635 71.856C36.9968 72.3467 36.8635 72.9227 36.8635 73.584C36.8635 74.256 36.9968 74.8427 37.2635 75.344C37.5302 75.8347 37.8875 76.2133 38.3355 76.48C38.7835 76.736 39.2795 76.864 39.8235 76.864C40.3675 76.864 40.8635 76.736 41.3115 76.48C41.7702 76.2133 42.1328 75.8347 42.3995 75.344C42.6662 74.8427 42.7995 74.2613 42.7995 73.6ZM49.836 78.144C49.164 78.144 48.5613 78.032 48.028 77.808C47.4947 77.5733 47.0733 77.2533 46.764 76.848C46.4547 76.432 46.284 75.9573 46.252 75.424H47.756C47.7987 75.8613 48.0013 76.2187 48.364 76.496C48.7373 76.7733 49.2227 76.912 49.82 76.912C50.3747 76.912 50.812 76.7893 51.132 76.544C51.452 76.2987 51.612 75.9893 51.612 75.616C51.612 75.232 51.4413 74.9493 51.1 74.768C50.7587 74.576 50.2307 74.3893 49.516 74.208C48.8653 74.0373 48.332 73.8667 47.916 73.696C47.5107 73.5147 47.1587 73.2533 46.86 72.912C46.572 72.56 46.428 72.1013 46.428 71.536C46.428 71.088 46.5613 70.6773 46.828 70.304C47.0947 69.9307 47.4733 69.6373 47.964 69.424C48.4547 69.2 49.0147 69.088 49.644 69.088C50.6147 69.088 51.3987 69.3333 51.996 69.824C52.5933 70.3147 52.9133 70.9867 52.956 71.84H51.5C51.468 71.3813 51.2813 71.0133 50.94 70.736C50.6093 70.4587 50.1613 70.32 49.596 70.32C49.0733 70.32 48.6573 70.432 48.348 70.656C48.0387 70.88 47.884 71.1733 47.884 71.536C47.884 71.824 47.9747 72.064 48.156 72.256C48.348 72.4373 48.5827 72.5867 48.86 72.704C49.148 72.8107 49.5427 72.9333 50.044 73.072C50.6733 73.2427 51.1853 73.4133 51.58 73.584C51.9747 73.744 52.3107 73.9893 52.588 74.32C52.876 74.6507 53.0253 75.0827 53.036 75.616C53.036 76.096 52.9027 76.528 52.636 76.912C52.3693 77.296 51.9907 77.6 51.5 77.824C51.02 78.0373 50.4653 78.144 49.836 78.144ZM56.8674 70.432V75.6C56.8674 76.0267 56.958 76.3307 57.1394 76.512C57.3207 76.6827 57.6354 76.768 58.0834 76.768H59.1554V78H57.8434C57.0327 78 56.4247 77.8133 56.0194 77.44C55.614 77.0667 55.4114 76.4533 55.4114 75.6V70.432H54.2754V69.232H55.4114V67.024H56.8674V69.232H59.1554V70.432H56.8674ZM68.9195 73.28C68.9195 73.5573 68.9035 73.8507 68.8715 74.16H61.8635C61.9168 75.024 62.2102 75.7013 62.7435 76.192C63.2875 76.672 63.9435 76.912 64.7115 76.912C65.3408 76.912 65.8635 76.768 66.2795 76.48C66.7062 76.1813 67.0048 75.7867 67.1755 75.296H68.7435C68.5088 76.1387 68.0395 76.8267 67.3355 77.36C66.6315 77.8827 65.7568 78.144 64.7115 78.144C63.8795 78.144 63.1328 77.9573 62.4715 77.584C61.8208 77.2107 61.3088 76.6827 60.9355 76C60.5622 75.3067 60.3755 74.5067 60.3755 73.6C60.3755 72.6933 60.5568 71.8987 60.9195 71.216C61.2822 70.5333 61.7888 70.0107 62.4395 69.648C63.1008 69.2747 63.8582 69.088 64.7115 69.088C65.5435 69.088 66.2795 69.2693 66.9195 69.632C67.5595 69.9947 68.0502 70.496 68.3915 71.136C68.7435 71.7653 68.9195 72.48 68.9195 73.28ZM67.4155 72.976C67.4155 72.4213 67.2928 71.9467 67.0475 71.552C66.8022 71.1467 66.4662 70.8427 66.0395 70.64C65.6235 70.4267 65.1595 70.32 64.6475 70.32C63.9115 70.32 63.2822 70.5547 62.7595 71.024C62.2475 71.4933 61.9542 72.144 61.8795 72.976H67.4155ZM72.2974 70.656C72.5534 70.1547 72.916 69.7653 73.3854 69.488C73.8654 69.2107 74.4467 69.072 75.1294 69.072V70.576H74.7454C73.1134 70.576 72.2974 71.4613 72.2974 73.232V78H70.8414V69.232H72.2974V70.656ZM78.5861 70.432V75.6C78.5861 76.0267 78.6768 76.3307 78.8581 76.512C79.0395 76.6827 79.3541 76.768 79.8021 76.768H80.8741V78H79.5621C78.7515 78 78.1435 77.8133 77.7381 77.44C77.3328 77.0667 77.1301 76.4533 77.1301 75.6V70.432H75.9941V69.232H77.1301V67.024H78.5861V69.232H80.8741V70.432H78.5861ZM82.0943 73.584C82.0943 72.688 82.2756 71.904 82.6383 71.232C83.0009 70.5493 83.4969 70.0213 84.1263 69.648C84.7663 69.2747 85.4756 69.088 86.2543 69.088C87.0223 69.088 87.6889 69.2533 88.2543 69.584C88.8196 69.9147 89.2409 70.3307 89.5183 70.832V69.232H90.9903V78H89.5183V76.368C89.2303 76.88 88.7983 77.3067 88.2223 77.648C87.6569 77.9787 86.9956 78.144 86.2383 78.144C85.4596 78.144 84.7556 77.952 84.1263 77.568C83.4969 77.184 83.0009 76.6453 82.6383 75.952C82.2756 75.2587 82.0943 74.4693 82.0943 73.584ZM89.5183 73.6C89.5183 72.9387 89.3849 72.3627 89.1183 71.872C88.8516 71.3813 88.4889 71.008 88.0303 70.752C87.5823 70.4853 87.0863 70.352 86.5423 70.352C85.9983 70.352 85.5023 70.48 85.0543 70.736C84.6063 70.992 84.2489 71.3653 83.9823 71.856C83.7156 72.3467 83.5823 72.9227 83.5823 73.584C83.5823 74.256 83.7156 74.8427 83.9823 75.344C84.2489 75.8347 84.6063 76.2133 85.0543 76.48C85.5023 76.736 85.9983 76.864 86.5423 76.864C87.0863 76.864 87.5823 76.736 88.0303 76.48C88.4889 76.2133 88.8516 75.8347 89.1183 75.344C89.3849 74.8427 89.5183 74.2613 89.5183 73.6ZM97.0668 69.088C97.8241 69.088 98.4854 69.2533 99.0508 69.584C99.6268 69.9147 100.053 70.3307 100.331 70.832V69.232H101.803V78.192C101.803 78.992 101.632 79.7013 101.291 80.32C100.949 80.9493 100.459 81.44 99.8188 81.792C99.1894 82.144 98.4534 82.32 97.6108 82.32C96.4588 82.32 95.4988 82.048 94.7308 81.504C93.9628 80.96 93.5094 80.2187 93.3708 79.28H94.8108C94.9708 79.8133 95.3014 80.24 95.8028 80.56C96.3041 80.8907 96.9068 81.056 97.6108 81.056C98.4108 81.056 99.0614 80.8053 99.5628 80.304C100.075 79.8027 100.331 79.0987 100.331 78.192V76.352C100.043 76.864 99.6161 77.2907 99.0508 77.632C98.4854 77.9733 97.8241 78.144 97.0668 78.144C96.2881 78.144 95.5788 77.952 94.9388 77.568C94.3094 77.184 93.8134 76.6453 93.4508 75.952C93.0881 75.2587 92.9068 74.4693 92.9068 73.584C92.9068 72.688 93.0881 71.904 93.4508 71.232C93.8134 70.5493 94.3094 70.0213 94.9388 69.648C95.5788 69.2747 96.2881 69.088 97.0668 69.088ZM100.331 73.6C100.331 72.9387 100.197 72.3627 99.9308 71.872C99.6641 71.3813 99.3014 71.008 98.8428 70.752C98.3948 70.4853 97.8988 70.352 97.3548 70.352C96.8108 70.352 96.3148 70.48 95.8668 70.736C95.4188 70.992 95.0614 71.3653 94.7948 71.856C94.5281 72.3467 94.3948 72.9227 94.3948 73.584C94.3948 74.256 94.5281 74.8427 94.7948 75.344C95.0614 75.8347 95.4188 76.2133 95.8668 76.48C96.3148 76.736 96.8108 76.864 97.3548 76.864C97.8988 76.864 98.3948 76.736 98.8428 76.48C99.3014 76.2133 99.6641 75.8347 99.9308 75.344C100.197 74.8427 100.331 74.2613 100.331 73.6ZM109.281 67.808C109.004 67.808 108.769 67.712 108.577 67.52C108.385 67.328 108.289 67.0933 108.289 66.816C108.289 66.5387 108.385 66.304 108.577 66.112C108.769 65.92 109.004 65.824 109.281 65.824C109.548 65.824 109.772 65.92 109.953 66.112C110.145 66.304 110.241 66.5387 110.241 66.816C110.241 67.0933 110.145 67.328 109.953 67.52C109.772 67.712 109.548 67.808 109.281 67.808ZM109.985 69.232V78H108.529V69.232H109.985ZM115.57 78.144C114.898 78.144 114.296 78.032 113.762 77.808C113.229 77.5733 112.808 77.2533 112.498 76.848C112.189 76.432 112.018 75.9573 111.986 75.424H113.49C113.533 75.8613 113.736 76.2187 114.098 76.496C114.472 76.7733 114.957 76.912 115.554 76.912C116.109 76.912 116.546 76.7893 116.866 76.544C117.186 76.2987 117.346 75.9893 117.346 75.616C117.346 75.232 117.176 74.9493 116.834 74.768C116.493 74.576 115.965 74.3893 115.25 74.208C114.6 74.0373 114.066 73.8667 113.65 73.696C113.245 73.5147 112.893 73.2533 112.594 72.912C112.306 72.56 112.162 72.1013 112.162 71.536C112.162 71.088 112.296 70.6773 112.562 70.304C112.829 69.9307 113.208 69.6373 113.698 69.424C114.189 69.2 114.749 69.088 115.378 69.088C116.349 69.088 117.133 69.3333 117.73 69.824C118.328 70.3147 118.648 70.9867 118.69 71.84H117.234C117.202 71.3813 117.016 71.0133 116.674 70.736C116.344 70.4587 115.896 70.32 115.33 70.32C114.808 70.32 114.392 70.432 114.082 70.656C113.773 70.88 113.618 71.1733 113.618 71.536C113.618 71.824 113.709 72.064 113.89 72.256C114.082 72.4373 114.317 72.5867 114.594 72.704C114.882 72.8107 115.277 72.9333 115.778 73.072C116.408 73.2427 116.92 73.4133 117.314 73.584C117.709 73.744 118.045 73.9893 118.322 74.32C118.61 74.6507 118.76 75.0827 118.77 75.616C118.77 76.096 118.637 76.528 118.37 76.912C118.104 77.296 117.725 77.6 117.234 77.824C116.754 78.0373 116.2 78.144 115.57 78.144ZM124.547 73.584C124.547 72.688 124.729 71.904 125.091 71.232C125.454 70.5493 125.95 70.0213 126.579 69.648C127.219 69.2747 127.929 69.088 128.707 69.088C129.475 69.088 130.142 69.2533 130.707 69.584C131.273 69.9147 131.694 70.3307 131.971 70.832V69.232H133.443V78H131.971V76.368C131.683 76.88 131.251 77.3067 130.675 77.648C130.11 77.9787 129.449 78.144 128.691 78.144C127.913 78.144 127.209 77.952 126.579 77.568C125.95 77.184 125.454 76.6453 125.091 75.952C124.729 75.2587 124.547 74.4693 124.547 73.584ZM131.971 73.6C131.971 72.9387 131.838 72.3627 131.571 71.872C131.305 71.3813 130.942 71.008 130.483 70.752C130.035 70.4853 129.539 70.352 128.995 70.352C128.451 70.352 127.955 70.48 127.507 70.736C127.059 70.992 126.702 71.3653 126.435 71.856C126.169 72.3467 126.035 72.9227 126.035 73.584C126.035 74.256 126.169 74.8427 126.435 75.344C126.702 75.8347 127.059 76.2133 127.507 76.48C127.955 76.736 128.451 76.864 128.995 76.864C129.539 76.864 130.035 76.736 130.483 76.48C130.942 76.2133 131.305 75.8347 131.571 75.344C131.838 74.8427 131.971 74.2613 131.971 73.6ZM143.274 78.144C142.602 78.144 141.999 78.032 141.466 77.808C140.932 77.5733 140.511 77.2533 140.202 76.848C139.892 76.432 139.722 75.9573 139.69 75.424H141.194C141.236 75.8613 141.439 76.2187 141.802 76.496C142.175 76.7733 142.66 76.912 143.258 76.912C143.812 76.912 144.25 76.7893 144.57 76.544C144.89 76.2987 145.05 75.9893 145.05 75.616C145.05 75.232 144.879 74.9493 144.538 74.768C144.196 74.576 143.668 74.3893 142.954 74.208C142.303 74.0373 141.77 73.8667 141.354 73.696C140.948 73.5147 140.596 73.2533 140.298 72.912C140.01 72.56 139.866 72.1013 139.866 71.536C139.866 71.088 139.999 70.6773 140.266 70.304C140.532 69.9307 140.911 69.6373 141.402 69.424C141.892 69.2 142.452 69.088 143.082 69.088C144.052 69.088 144.836 69.3333 145.434 69.824C146.031 70.3147 146.351 70.9867 146.394 71.84H144.938C144.906 71.3813 144.719 71.0133 144.378 70.736C144.047 70.4587 143.599 70.32 143.034 70.32C142.511 70.32 142.095 70.432 141.786 70.656C141.476 70.88 141.322 71.1733 141.322 71.536C141.322 71.824 141.412 72.064 141.594 72.256C141.786 72.4373 142.02 72.5867 142.298 72.704C142.586 72.8107 142.98 72.9333 143.482 73.072C144.111 73.2427 144.623 73.4133 145.018 73.584C145.412 73.744 145.748 73.9893 146.026 74.32C146.314 74.6507 146.463 75.0827 146.474 75.616C146.474 76.096 146.34 76.528 146.074 76.912C145.807 77.296 145.428 77.6 144.938 77.824C144.458 78.0373 143.903 78.144 143.274 78.144ZM149.281 67.808C149.004 67.808 148.769 67.712 148.577 67.52C148.385 67.328 148.289 67.0933 148.289 66.816C148.289 66.5387 148.385 66.304 148.577 66.112C148.769 65.92 149.004 65.824 149.281 65.824C149.548 65.824 149.772 65.92 149.953 66.112C150.145 66.304 150.241 66.5387 150.241 66.816C150.241 67.0933 150.145 67.328 149.953 67.52C149.772 67.712 149.548 67.808 149.281 67.808ZM149.985 69.232V78H148.529V69.232H149.985ZM163.01 69.072C163.693 69.072 164.301 69.216 164.834 69.504C165.368 69.7813 165.789 70.2027 166.098 70.768C166.408 71.3333 166.562 72.0213 166.562 72.832V78H165.122V73.04C165.122 72.1653 164.904 71.4987 164.466 71.04C164.04 70.5707 163.458 70.336 162.722 70.336C161.965 70.336 161.362 70.5813 160.914 71.072C160.466 71.552 160.242 72.2507 160.242 73.168V78H158.802V73.04C158.802 72.1653 158.584 71.4987 158.146 71.04C157.72 70.5707 157.138 70.336 156.402 70.336C155.645 70.336 155.042 70.5813 154.594 71.072C154.146 71.552 153.922 72.2507 153.922 73.168V78H152.466V69.232H153.922V70.496C154.21 70.0373 154.594 69.6853 155.074 69.44C155.565 69.1947 156.104 69.072 156.69 69.072C157.426 69.072 158.077 69.2373 158.642 69.568C159.208 69.8987 159.629 70.384 159.906 71.024C160.152 70.4053 160.557 69.9253 161.122 69.584C161.688 69.2427 162.317 69.072 163.01 69.072ZM170.407 70.848C170.695 70.3467 171.121 69.9307 171.687 69.6C172.263 69.2587 172.929 69.088 173.687 69.088C174.465 69.088 175.169 69.2747 175.799 69.648C176.439 70.0213 176.94 70.5493 177.303 71.232C177.665 71.904 177.847 72.688 177.847 73.584C177.847 74.4693 177.665 75.2587 177.303 75.952C176.94 76.6453 176.439 77.184 175.799 77.568C175.169 77.952 174.465 78.144 173.687 78.144C172.94 78.144 172.279 77.9787 171.703 77.648C171.137 77.3067 170.705 76.8853 170.407 76.384V82.16H168.951V69.232H170.407V70.848ZM176.359 73.584C176.359 72.9227 176.225 72.3467 175.959 71.856C175.692 71.3653 175.329 70.992 174.871 70.736C174.423 70.48 173.927 70.352 173.383 70.352C172.849 70.352 172.353 70.4853 171.895 70.752C171.447 71.008 171.084 71.3867 170.807 71.888C170.54 72.3787 170.407 72.9493 170.407 73.6C170.407 74.2613 170.54 74.8427 170.807 75.344C171.084 75.8347 171.447 76.2133 171.895 76.48C172.353 76.736 172.849 76.864 173.383 76.864C173.927 76.864 174.423 76.736 174.871 76.48C175.329 76.2133 175.692 75.8347 175.959 75.344C176.225 74.8427 176.359 74.256 176.359 73.584ZM181.219 66.16V78H179.763V66.16H181.219ZM191.701 73.28C191.701 73.5573 191.685 73.8507 191.653 74.16H184.645C184.698 75.024 184.991 75.7013 185.525 76.192C186.069 76.672 186.725 76.912 187.493 76.912C188.122 76.912 188.645 76.768 189.061 76.48C189.487 76.1813 189.786 75.7867 189.957 75.296H191.525C191.29 76.1387 190.821 76.8267 190.117 77.36C189.413 77.8827 188.538 78.144 187.493 78.144C186.661 78.144 185.914 77.9573 185.253 77.584C184.602 77.2107 184.09 76.6827 183.717 76C183.343 75.3067 183.157 74.5067 183.157 73.6C183.157 72.6933 183.338 71.8987 183.701 71.216C184.063 70.5333 184.57 70.0107 185.221 69.648C185.882 69.2747 186.639 69.088 187.493 69.088C188.325 69.088 189.061 69.2693 189.701 69.632C190.341 69.9947 190.831 70.496 191.173 71.136C191.525 71.7653 191.701 72.48 191.701 73.28ZM190.197 72.976C190.197 72.4213 190.074 71.9467 189.829 71.552C189.583 71.1467 189.247 70.8427 188.821 70.64C188.405 70.4267 187.941 70.32 187.429 70.32C186.693 70.32 186.063 70.5547 185.541 71.024C185.029 71.4933 184.735 72.144 184.661 72.976H190.197ZM209.568 69.232L206.832 78H205.328L203.216 71.04L201.104 78H199.6L196.848 69.232H198.336L200.352 76.592L202.528 69.232H204.016L206.144 76.608L208.128 69.232H209.568ZM210.469 73.584C210.469 72.688 210.651 71.904 211.013 71.232C211.376 70.5493 211.872 70.0213 212.501 69.648C213.141 69.2747 213.851 69.088 214.629 69.088C215.397 69.088 216.064 69.2533 216.629 69.584C217.195 69.9147 217.616 70.3307 217.893 70.832V69.232H219.365V78H217.893V76.368C217.605 76.88 217.173 77.3067 216.597 77.648C216.032 77.9787 215.371 78.144 214.613 78.144C213.835 78.144 213.131 77.952 212.501 77.568C211.872 77.184 211.376 76.6453 211.013 75.952C210.651 75.2587 210.469 74.4693 210.469 73.584ZM217.893 73.6C217.893 72.9387 217.76 72.3627 217.493 71.872C217.227 71.3813 216.864 71.008 216.405 70.752C215.957 70.4853 215.461 70.352 214.917 70.352C214.373 70.352 213.877 70.48 213.429 70.736C212.981 70.992 212.624 71.3653 212.357 71.856C212.091 72.3467 211.957 72.9227 211.957 73.584C211.957 74.256 212.091 74.8427 212.357 75.344C212.624 75.8347 212.981 76.2133 213.429 76.48C213.877 76.736 214.373 76.864 214.917 76.864C215.461 76.864 215.957 76.736 216.405 76.48C216.864 76.2133 217.227 75.8347 217.493 75.344C217.76 74.8427 217.893 74.2613 217.893 73.6ZM229.378 69.232L224.098 82.128H222.594L224.322 77.904L220.786 69.232H222.402L225.154 76.336L227.874 69.232H229.378ZM236.883 70.432V75.6C236.883 76.0267 236.974 76.3307 237.155 76.512C237.336 76.6827 237.651 76.768 238.099 76.768H239.171V78H237.859C237.048 78 236.44 77.8133 236.035 77.44C235.63 77.0667 235.427 76.4533 235.427 75.6V70.432H234.291V69.232H235.427V67.024H236.883V69.232H239.171V70.432H236.883ZM244.759 78.144C243.938 78.144 243.191 77.9573 242.519 77.584C241.858 77.2107 241.335 76.6827 240.951 76C240.578 75.3067 240.391 74.5067 240.391 73.6C240.391 72.704 240.583 71.9147 240.967 71.232C241.362 70.5387 241.895 70.0107 242.567 69.648C243.239 69.2747 243.991 69.088 244.823 69.088C245.655 69.088 246.407 69.2747 247.079 69.648C247.751 70.0107 248.279 70.5333 248.663 71.216C249.058 71.8987 249.255 72.6933 249.255 73.6C249.255 74.5067 249.052 75.3067 248.647 76C248.252 76.6827 247.714 77.2107 247.031 77.584C246.348 77.9573 245.591 78.144 244.759 78.144ZM244.759 76.864C245.282 76.864 245.772 76.7413 246.231 76.496C246.69 76.2507 247.058 75.8827 247.335 75.392C247.623 74.9013 247.767 74.304 247.767 73.6C247.767 72.896 247.628 72.2987 247.351 71.808C247.074 71.3173 246.711 70.9547 246.263 70.72C245.815 70.4747 245.33 70.352 244.807 70.352C244.274 70.352 243.783 70.4747 243.335 70.72C242.898 70.9547 242.546 71.3173 242.279 71.808C242.012 72.2987 241.879 72.896 241.879 73.6C241.879 74.3147 242.007 74.9173 242.263 75.408C242.53 75.8987 242.882 76.2667 243.319 76.512C243.756 76.7467 244.236 76.864 244.759 76.864ZM260.331 78L256.891 74.128V78H255.435V66.16H256.891V73.12L260.267 69.232H262.299L258.171 73.6L262.315 78H260.331ZM271.67 73.28C271.67 73.5573 271.654 73.8507 271.622 74.16H264.614C264.667 75.024 264.96 75.7013 265.494 76.192C266.038 76.672 266.694 76.912 267.462 76.912C268.091 76.912 268.614 76.768 269.03 76.48C269.456 76.1813 269.755 75.7867 269.926 75.296H271.494C271.259 76.1387 270.79 76.8267 270.086 77.36C269.382 77.8827 268.507 78.144 267.462 78.144C266.63 78.144 265.883 77.9573 265.222 77.584C264.571 77.2107 264.059 76.6827 263.686 76C263.312 75.3067 263.126 74.5067 263.126 73.6C263.126 72.6933 263.307 71.8987 263.67 71.216C264.032 70.5333 264.539 70.0107 265.19 69.648C265.851 69.2747 266.608 69.088 267.462 69.088C268.294 69.088 269.03 69.2693 269.67 69.632C270.31 69.9947 270.8 70.496 271.142 71.136C271.494 71.7653 271.67 72.48 271.67 73.28ZM270.166 72.976C270.166 72.4213 270.043 71.9467 269.798 71.552C269.552 71.1467 269.216 70.8427 268.79 70.64C268.374 70.4267 267.91 70.32 267.398 70.32C266.662 70.32 266.032 70.5547 265.51 71.024C264.998 71.4933 264.704 72.144 264.63 72.976H270.166ZM281.591 73.28C281.591 73.5573 281.575 73.8507 281.543 74.16H274.535C274.589 75.024 274.882 75.7013 275.415 76.192C275.959 76.672 276.615 76.912 277.383 76.912C278.013 76.912 278.535 76.768 278.951 76.48C279.378 76.1813 279.677 75.7867 279.847 75.296H281.415C281.181 76.1387 280.711 76.8267 280.007 77.36C279.303 77.8827 278.429 78.144 277.383 78.144C276.551 78.144 275.805 77.9573 275.143 77.584C274.493 77.2107 273.981 76.6827 273.607 76C273.234 75.3067 273.047 74.5067 273.047 73.6C273.047 72.6933 273.229 71.8987 273.591 71.216C273.954 70.5333 274.461 70.0107 275.111 69.648C275.773 69.2747 276.53 69.088 277.383 69.088C278.215 69.088 278.951 69.2693 279.591 69.632C280.231 69.9947 280.722 70.496 281.063 71.136C281.415 71.7653 281.591 72.48 281.591 73.28ZM280.087 72.976C280.087 72.4213 279.965 71.9467 279.719 71.552C279.474 71.1467 279.138 70.8427 278.711 70.64C278.295 70.4267 277.831 70.32 277.319 70.32C276.583 70.32 275.954 70.5547 275.431 71.024C274.919 71.4933 274.626 72.144 274.551 72.976H280.087ZM284.969 70.848C285.257 70.3467 285.684 69.9307 286.249 69.6C286.825 69.2587 287.492 69.088 288.249 69.088C289.028 69.088 289.732 69.2747 290.361 69.648C291.001 70.0213 291.503 70.5493 291.865 71.232C292.228 71.904 292.409 72.688 292.409 73.584C292.409 74.4693 292.228 75.2587 291.865 75.952C291.503 76.6453 291.001 77.184 290.361 77.568C289.732 77.952 289.028 78.144 288.249 78.144C287.503 78.144 286.841 77.9787 286.265 77.648C285.7 77.3067 285.268 76.8853 284.969 76.384V82.16H283.513V69.232H284.969V70.848ZM290.921 73.584C290.921 72.9227 290.788 72.3467 290.521 71.856C290.255 71.3653 289.892 70.992 289.433 70.736C288.985 70.48 288.489 70.352 287.945 70.352C287.412 70.352 286.916 70.4853 286.457 70.752C286.009 71.008 285.647 71.3867 285.369 71.888C285.103 72.3787 284.969 72.9493 284.969 73.6C284.969 74.2613 285.103 74.8427 285.369 75.344C285.647 75.8347 286.009 76.2133 286.457 76.48C286.916 76.736 287.412 76.864 287.945 76.864C288.489 76.864 288.985 76.736 289.433 76.48C289.892 76.2133 290.255 75.8347 290.521 75.344C290.788 74.8427 290.921 74.256 290.921 73.584ZM21.1955 98.432V103.6C21.1955 104.027 21.2862 104.331 21.4675 104.512C21.6488 104.683 21.9635 104.768 22.4115 104.768H23.4835V106H22.1715C21.3608 106 20.7528 105.813 20.3475 105.44C19.9422 105.067 19.7395 104.453 19.7395 103.6V98.432H18.6035V97.232H19.7395V95.024H21.1955V97.232H23.4835V98.432H21.1955ZM26.7036 98.656C26.9596 98.1547 27.3223 97.7653 27.7916 97.488C28.2716 97.2107 28.853 97.072 29.5356 97.072V98.576H29.1516C27.5196 98.576 26.7036 99.4613 26.7036 101.232V106H25.2476V97.232H26.7036V98.656ZM30.6724 101.584C30.6724 100.688 30.8537 99.904 31.2164 99.232C31.579 98.5493 32.075 98.0213 32.7044 97.648C33.3444 97.2747 34.0537 97.088 34.8324 97.088C35.6004 97.088 36.267 97.2533 36.8324 97.584C37.3977 97.9147 37.819 98.3307 38.0964 98.832V97.232H39.5684V106H38.0964V104.368C37.8084 104.88 37.3764 105.307 36.8004 105.648C36.235 105.979 35.5737 106.144 34.8164 106.144C34.0377 106.144 33.3337 105.952 32.7044 105.568C32.075 105.184 31.579 104.645 31.2164 103.952C30.8537 103.259 30.6724 102.469 30.6724 101.584ZM38.0964 101.6C38.0964 100.939 37.963 100.363 37.6964 99.872C37.4297 99.3813 37.067 99.008 36.6084 98.752C36.1604 98.4853 35.6644 98.352 35.1204 98.352C34.5764 98.352 34.0804 98.48 33.6324 98.736C33.1844 98.992 32.827 99.3653 32.5604 99.856C32.2937 100.347 32.1604 100.923 32.1604 101.584C32.1604 102.256 32.2937 102.843 32.5604 103.344C32.827 103.835 33.1844 104.213 33.6324 104.48C34.0804 104.736 34.5764 104.864 35.1204 104.864C35.6644 104.864 36.1604 104.736 36.6084 104.48C37.067 104.213 37.4297 103.835 37.6964 103.344C37.963 102.843 38.0964 102.261 38.0964 101.6ZM41.4849 101.6C41.4849 100.693 41.6662 99.904 42.0289 99.232C42.3915 98.5493 42.8929 98.0213 43.5329 97.648C44.1835 97.2747 44.9249 97.088 45.7569 97.088C46.8342 97.088 47.7195 97.3493 48.4129 97.872C49.1169 98.3947 49.5809 99.12 49.8049 100.048H48.2369C48.0875 99.5147 47.7942 99.0933 47.3569 98.784C46.9302 98.4747 46.3969 98.32 45.7569 98.32C44.9249 98.32 44.2529 98.608 43.7409 99.184C43.2289 99.7493 42.9729 100.555 42.9729 101.6C42.9729 102.656 43.2289 103.472 43.7409 104.048C44.2529 104.624 44.9249 104.912 45.7569 104.912C46.3969 104.912 46.9302 104.763 47.3569 104.464C47.7835 104.165 48.0769 103.739 48.2369 103.184H49.8049C49.5702 104.08 49.1009 104.8 48.3969 105.344C47.6929 105.877 46.8129 106.144 45.7569 106.144C44.9249 106.144 44.1835 105.957 43.5329 105.584C42.8929 105.211 42.3915 104.683 42.0289 104C41.6662 103.317 41.4849 102.517 41.4849 101.6ZM56.6436 106L53.2036 102.128V106H51.7476V94.16H53.2036V101.12L56.5796 97.232H58.6116L54.4836 101.6L58.6276 106H56.6436ZM68.0716 106.144C67.2503 106.144 66.5036 105.957 65.8316 105.584C65.1703 105.211 64.6476 104.683 64.2636 104C63.8903 103.307 63.7036 102.507 63.7036 101.6C63.7036 100.704 63.8956 99.9147 64.2796 99.232C64.6743 98.5387 65.2076 98.0107 65.8796 97.648C66.5516 97.2747 67.3036 97.088 68.1356 97.088C68.9676 97.088 69.7196 97.2747 70.3916 97.648C71.0636 98.0107 71.5916 98.5333 71.9756 99.216C72.3703 99.8987 72.5676 100.693 72.5676 101.6C72.5676 102.507 72.365 103.307 71.9596 104C71.565 104.683 71.0263 105.211 70.3436 105.584C69.661 105.957 68.9036 106.144 68.0716 106.144ZM68.0716 104.864C68.5943 104.864 69.085 104.741 69.5436 104.496C70.0023 104.251 70.3703 103.883 70.6476 103.392C70.9356 102.901 71.0796 102.304 71.0796 101.6C71.0796 100.896 70.941 100.299 70.6636 99.808C70.3863 99.3173 70.0236 98.9547 69.5756 98.72C69.1276 98.4747 68.6423 98.352 68.1196 98.352C67.5863 98.352 67.0956 98.4747 66.6476 98.72C66.2103 98.9547 65.8583 99.3173 65.5916 99.808C65.325 100.299 65.1916 100.896 65.1916 101.6C65.1916 102.315 65.3196 102.917 65.5756 103.408C65.8423 103.899 66.1943 104.267 66.6316 104.512C67.069 104.747 67.549 104.864 68.0716 104.864ZM78.05 98.432H76.21V106H74.754V98.432H73.618V97.232H74.754V96.608C74.754 95.6267 75.0047 94.912 75.506 94.464C76.018 94.0053 76.834 93.776 77.954 93.776V94.992C77.314 94.992 76.8607 95.12 76.594 95.376C76.338 95.6213 76.21 96.032 76.21 96.608V97.232H78.05V98.432ZM91.5653 97.232L86.2853 110.128H84.7812L86.5093 105.904L82.9733 97.232H84.5893L87.3413 104.336L90.0613 97.232H91.5653ZM96.8529 106.144C96.0315 106.144 95.2849 105.957 94.6129 105.584C93.9515 105.211 93.4289 104.683 93.0449 104C92.6715 103.307 92.4849 102.507 92.4849 101.6C92.4849 100.704 92.6769 99.9147 93.0609 99.232C93.4555 98.5387 93.9889 98.0107 94.6609 97.648C95.3329 97.2747 96.0849 97.088 96.9169 97.088C97.7489 97.088 98.5009 97.2747 99.1729 97.648C99.8449 98.0107 100.373 98.5333 100.757 99.216C101.152 99.8987 101.349 100.693 101.349 101.6C101.349 102.507 101.146 103.307 100.741 104C100.346 104.683 99.8075 105.211 99.1249 105.584C98.4422 105.957 97.6849 106.144 96.8529 106.144ZM96.8529 104.864C97.3755 104.864 97.8662 104.741 98.3249 104.496C98.7835 104.251 99.1515 103.883 99.4289 103.392C99.7169 102.901 99.8609 102.304 99.8609 101.6C99.8609 100.896 99.7222 100.299 99.4449 99.808C99.1675 99.3173 98.8049 98.9547 98.3569 98.72C97.9089 98.4747 97.4235 98.352 96.9009 98.352C96.3675 98.352 95.8769 98.4747 95.4289 98.72C94.9915 98.9547 94.6395 99.3173 94.3729 99.808C94.1062 100.299 93.9729 100.896 93.9729 101.6C93.9729 102.315 94.1009 102.917 94.3569 103.408C94.6235 103.899 94.9755 104.267 95.4129 104.512C95.8502 104.747 96.3302 104.864 96.8529 104.864ZM111.039 97.232V106H109.583V104.704C109.306 105.152 108.917 105.504 108.415 105.76C107.925 106.005 107.381 106.128 106.783 106.128C106.101 106.128 105.487 105.989 104.943 105.712C104.399 105.424 103.967 104.997 103.647 104.432C103.338 103.867 103.183 103.179 103.183 102.368V97.232H104.623V102.176C104.623 103.04 104.842 103.707 105.279 104.176C105.717 104.635 106.314 104.864 107.071 104.864C107.85 104.864 108.463 104.624 108.911 104.144C109.359 103.664 109.583 102.965 109.583 102.048V97.232H111.039ZM114.954 98.656C115.21 98.1547 115.572 97.7653 116.042 97.488C116.522 97.2107 117.103 97.072 117.786 97.072V98.576H117.402C115.77 98.576 114.954 99.4613 114.954 101.232V106H113.498V97.232H114.954V98.656ZM126.836 106.144C126.164 106.144 125.561 106.032 125.028 105.808C124.495 105.573 124.073 105.253 123.764 104.848C123.455 104.432 123.284 103.957 123.252 103.424H124.756C124.799 103.861 125.001 104.219 125.364 104.496C125.737 104.773 126.223 104.912 126.82 104.912C127.375 104.912 127.812 104.789 128.132 104.544C128.452 104.299 128.612 103.989 128.612 103.616C128.612 103.232 128.441 102.949 128.1 102.768C127.759 102.576 127.231 102.389 126.516 102.208C125.865 102.037 125.332 101.867 124.916 101.696C124.511 101.515 124.159 101.253 123.86 100.912C123.572 100.56 123.428 100.101 123.428 99.536C123.428 99.088 123.561 98.6773 123.828 98.304C124.095 97.9307 124.473 97.6373 124.964 97.424C125.455 97.2 126.015 97.088 126.644 97.088C127.615 97.088 128.399 97.3333 128.996 97.824C129.593 98.3147 129.913 98.9867 129.956 99.84H128.5C128.468 99.3813 128.281 99.0133 127.94 98.736C127.609 98.4587 127.161 98.32 126.596 98.32C126.073 98.32 125.657 98.432 125.348 98.656C125.039 98.88 124.884 99.1733 124.884 99.536C124.884 99.824 124.975 100.064 125.156 100.256C125.348 100.437 125.583 100.587 125.86 100.704C126.148 100.811 126.543 100.933 127.044 101.072C127.673 101.243 128.185 101.413 128.58 101.584C128.975 101.744 129.311 101.989 129.588 102.32C129.876 102.651 130.025 103.083 130.036 103.616C130.036 104.096 129.903 104.528 129.636 104.912C129.369 105.296 128.991 105.6 128.5 105.824C128.02 106.037 127.465 106.144 126.836 106.144ZM133.867 98.432V103.6C133.867 104.027 133.958 104.331 134.139 104.512C134.321 104.683 134.635 104.768 135.083 104.768H136.155V106H134.843C134.033 106 133.425 105.813 133.019 105.44C132.614 105.067 132.411 104.453 132.411 103.6V98.432H131.275V97.232H132.411V95.024H133.867V97.232H136.155V98.432H133.867ZM145.696 97.232V106H144.24V104.704C143.962 105.152 143.573 105.504 143.072 105.76C142.581 106.005 142.037 106.128 141.44 106.128C140.757 106.128 140.144 105.989 139.6 105.712C139.056 105.424 138.624 104.997 138.304 104.432C137.994 103.867 137.84 103.179 137.84 102.368V97.232H139.28V102.176C139.28 103.04 139.498 103.707 139.936 104.176C140.373 104.635 140.97 104.864 141.728 104.864C142.506 104.864 143.12 104.624 143.568 104.144C144.016 103.664 144.24 102.965 144.24 102.048V97.232H145.696ZM151.722 98.432H149.882V106H148.426V98.432H147.29V97.232H148.426V96.608C148.426 95.6267 148.677 94.912 149.178 94.464C149.69 94.0053 150.506 93.776 151.626 93.776V94.992C150.986 94.992 150.533 95.12 150.266 95.376C150.01 95.6213 149.882 96.032 149.882 96.608V97.232H151.722V98.432ZM156.988 98.432H155.148V106H153.692V98.432H152.556V97.232H153.692V96.608C153.692 95.6267 153.942 94.912 154.444 94.464C154.956 94.0053 155.772 93.776 156.891 93.776V94.992C156.252 94.992 155.798 95.12 155.532 95.376C155.276 95.6213 155.148 96.032 155.148 96.608V97.232H156.988V98.432ZM159.149 106.096C158.872 106.096 158.637 106 158.445 105.808C158.253 105.616 158.157 105.381 158.157 105.104C158.157 104.827 158.253 104.592 158.445 104.4C158.637 104.208 158.872 104.112 159.149 104.112C159.416 104.112 159.64 104.208 159.821 104.4C160.013 104.592 160.109 104.827 160.109 105.104C160.109 105.381 160.013 105.616 159.821 105.808C159.64 106 159.416 106.096 159.149 106.096ZM173.782 94.832V96.64H170.806V106H168.566V96.64H165.59V94.832H173.782ZM174.84 101.536C174.84 100.64 175.016 99.8453 175.368 99.152C175.731 98.4587 176.217 97.9253 176.825 97.552C177.443 97.1787 178.131 96.992 178.889 96.992C179.55 96.992 180.126 97.1253 180.617 97.392C181.118 97.6587 181.518 97.9947 181.817 98.4V97.136H184.073V106H181.817V104.704C181.529 105.12 181.129 105.467 180.617 105.744C180.115 106.011 179.534 106.144 178.873 106.144C178.126 106.144 177.443 105.952 176.825 105.568C176.217 105.184 175.731 104.645 175.368 103.952C175.016 103.248 174.84 102.443 174.84 101.536ZM181.817 101.568C181.817 101.024 181.71 100.56 181.497 100.176C181.283 99.7813 180.995 99.4827 180.633 99.28C180.27 99.0667 179.881 98.96 179.465 98.96C179.049 98.96 178.665 99.0613 178.312 99.264C177.961 99.4667 177.673 99.7653 177.449 100.16C177.235 100.544 177.129 101.003 177.129 101.536C177.129 102.069 177.235 102.539 177.449 102.944C177.673 103.339 177.961 103.643 178.312 103.856C178.675 104.069 179.059 104.176 179.465 104.176C179.881 104.176 180.27 104.075 180.633 103.872C180.995 103.659 181.283 103.36 181.497 102.976C181.71 102.581 181.817 102.112 181.817 101.568ZM189.732 96.992C190.394 96.992 190.975 97.1253 191.476 97.392C191.978 97.648 192.372 97.984 192.66 98.4V97.136H194.916V106.064C194.916 106.885 194.751 107.616 194.42 108.256C194.09 108.907 193.594 109.419 192.932 109.792C192.271 110.176 191.471 110.368 190.532 110.368C189.274 110.368 188.239 110.075 187.428 109.488C186.628 108.901 186.175 108.101 186.068 107.088H188.292C188.41 107.493 188.66 107.813 189.044 108.048C189.439 108.293 189.914 108.416 190.468 108.416C191.119 108.416 191.647 108.219 192.052 107.824C192.458 107.44 192.66 106.853 192.66 106.064V104.688C192.372 105.104 191.972 105.451 191.46 105.728C190.959 106.005 190.383 106.144 189.732 106.144C188.986 106.144 188.303 105.952 187.684 105.568C187.066 105.184 186.575 104.645 186.212 103.952C185.86 103.248 185.684 102.443 185.684 101.536C185.684 100.64 185.86 99.8453 186.212 99.152C186.575 98.4587 187.06 97.9253 187.668 97.552C188.287 97.1787 188.975 96.992 189.732 96.992ZM192.66 101.568C192.66 101.024 192.554 100.56 192.34 100.176C192.127 99.7813 191.839 99.4827 191.476 99.28C191.114 99.0667 190.724 98.96 190.308 98.96C189.892 98.96 189.508 99.0613 189.156 99.264C188.804 99.4667 188.516 99.7653 188.292 100.16C188.079 100.544 187.972 101.003 187.972 101.536C187.972 102.069 188.079 102.539 188.292 102.944C188.516 103.339 188.804 103.643 189.156 103.856C189.519 104.069 189.903 104.176 190.308 104.176C190.724 104.176 191.114 104.075 191.476 103.872C191.839 103.659 192.127 103.36 192.34 102.976C192.554 102.581 192.66 102.112 192.66 101.568ZM204.853 106.144C203.999 106.144 203.231 105.957 202.549 105.584C201.866 105.2 201.327 104.661 200.933 103.968C200.549 103.275 200.357 102.475 200.357 101.568C200.357 100.661 200.554 99.8613 200.949 99.168C201.354 98.4747 201.903 97.9413 202.597 97.568C203.29 97.184 204.063 96.992 204.917 96.992C205.77 96.992 206.543 97.184 207.237 97.568C207.93 97.9413 208.474 98.4747 208.869 99.168C209.274 99.8613 209.477 100.661 209.477 101.568C209.477 102.475 209.269 103.275 208.852 103.968C208.447 104.661 207.893 105.2 207.189 105.584C206.495 105.957 205.717 106.144 204.853 106.144ZM204.853 104.192C205.258 104.192 205.637 104.096 205.989 103.904C206.351 103.701 206.639 103.403 206.853 103.008C207.066 102.613 207.173 102.133 207.173 101.568C207.173 100.725 206.949 100.08 206.501 99.632C206.063 99.1733 205.525 98.944 204.885 98.944C204.245 98.944 203.706 99.1733 203.269 99.632C202.842 100.08 202.629 100.725 202.629 101.568C202.629 102.411 202.837 103.061 203.253 103.52C203.679 103.968 204.213 104.192 204.853 104.192ZM216.032 97.008C217.088 97.008 217.941 97.344 218.592 98.016C219.242 98.6773 219.568 99.6053 219.568 100.8V106H217.328V101.104C217.328 100.4 217.152 99.8613 216.8 99.488C216.448 99.104 215.968 98.912 215.36 98.912C214.741 98.912 214.25 99.104 213.888 99.488C213.536 99.8613 213.36 100.4 213.36 101.104V106H211.12V97.136H213.36V98.24C213.658 97.856 214.037 97.5573 214.496 97.344C214.965 97.12 215.477 97.008 216.032 97.008ZM229.938 101.376C229.938 101.696 229.916 101.984 229.874 102.24H223.394C223.447 102.88 223.671 103.381 224.066 103.744C224.46 104.107 224.946 104.288 225.522 104.288C226.354 104.288 226.946 103.931 227.298 103.216H229.714C229.458 104.069 228.967 104.773 228.242 105.328C227.516 105.872 226.626 106.144 225.57 106.144C224.716 106.144 223.948 105.957 223.266 105.584C222.594 105.2 222.066 104.661 221.682 103.968C221.308 103.275 221.122 102.475 221.122 101.568C221.122 100.651 221.308 99.8453 221.682 99.152C222.055 98.4587 222.578 97.9253 223.25 97.552C223.922 97.1787 224.695 96.992 225.57 96.992C226.412 96.992 227.164 97.1733 227.826 97.536C228.498 97.8987 229.015 98.416 229.378 99.088C229.751 99.7493 229.938 100.512 229.938 101.376ZM227.618 100.736C227.607 100.16 227.399 99.7013 226.994 99.36C226.588 99.008 226.092 98.832 225.506 98.832C224.951 98.832 224.482 99.0027 224.098 99.344C223.724 99.6747 223.495 100.139 223.41 100.736H227.618ZM239.321 106.144C238.468 106.144 237.7 105.957 237.017 105.584C236.335 105.2 235.796 104.661 235.401 103.968C235.017 103.275 234.825 102.475 234.825 101.568C234.825 100.661 235.023 99.8613 235.417 99.168C235.823 98.4747 236.372 97.9413 237.065 97.568C237.759 97.184 238.532 96.992 239.385 96.992C240.239 96.992 241.012 97.184 241.705 97.568C242.399 97.9413 242.943 98.4747 243.337 99.168C243.743 99.8613 243.945 100.661 243.945 101.568C243.945 102.475 243.737 103.275 243.321 103.968C242.916 104.661 242.361 105.2 241.657 105.584C240.964 105.957 240.185 106.144 239.321 106.144ZM239.321 104.192C239.727 104.192 240.105 104.096 240.457 103.904C240.82 103.701 241.108 103.403 241.321 103.008C241.535 102.613 241.641 102.133 241.641 101.568C241.641 100.725 241.417 100.08 240.969 99.632C240.532 99.1733 239.993 98.944 239.353 98.944C238.713 98.944 238.175 99.1733 237.737 99.632C237.311 100.08 237.097 100.725 237.097 101.568C237.097 102.411 237.305 103.061 237.721 103.52C238.148 103.968 238.681 104.192 239.321 104.192ZM250.5 97.008C251.556 97.008 252.41 97.344 253.06 98.016C253.711 98.6773 254.036 99.6053 254.036 100.8V106H251.796V101.104C251.796 100.4 251.62 99.8613 251.268 99.488C250.916 99.104 250.436 98.912 249.828 98.912C249.21 98.912 248.719 99.104 248.356 99.488C248.004 99.8613 247.828 100.4 247.828 101.104V106H245.588V97.136H247.828V98.24C248.127 97.856 248.506 97.5573 248.964 97.344C249.434 97.12 249.946 97.008 250.5 97.008ZM268.459 97.136L262.971 110.192H260.587L262.507 105.776L258.955 97.136H261.467L263.755 103.328L266.075 97.136H268.459ZM273.603 106.144C272.749 106.144 271.981 105.957 271.299 105.584C270.616 105.2 270.077 104.661 269.683 103.968C269.299 103.275 269.107 102.475 269.107 101.568C269.107 100.661 269.304 99.8613 269.699 99.168C270.104 98.4747 270.653 97.9413 271.347 97.568C272.04 97.184 272.813 96.992 273.667 96.992C274.52 96.992 275.293 97.184 275.987 97.568C276.68 97.9413 277.224 98.4747 277.619 99.168C278.024 99.8613 278.227 100.661 278.227 101.568C278.227 102.475 278.019 103.275 277.602 103.968C277.197 104.661 276.643 105.2 275.939 105.584C275.245 105.957 274.467 106.144 273.603 106.144ZM273.603 104.192C274.008 104.192 274.387 104.096 274.739 103.904C275.101 103.701 275.389 103.403 275.603 103.008C275.816 102.613 275.923 102.133 275.923 101.568C275.923 100.725 275.699 100.08 275.251 99.632C274.813 99.1733 274.275 98.944 273.635 98.944C272.995 98.944 272.456 99.1733 272.019 99.632C271.592 100.08 271.379 100.725 271.379 101.568C271.379 102.411 271.587 103.061 272.003 103.52C272.429 103.968 272.963 104.192 273.603 104.192ZM288.238 97.136V106H285.982V104.88C285.694 105.264 285.315 105.568 284.846 105.792C284.387 106.005 283.886 106.112 283.342 106.112C282.648 106.112 282.035 105.968 281.502 105.68C280.968 105.381 280.547 104.949 280.238 104.384C279.939 103.808 279.79 103.125 279.79 102.336V97.136H282.03V102.016C282.03 102.72 282.206 103.264 282.558 103.648C282.91 104.021 283.39 104.208 283.998 104.208C284.616 104.208 285.102 104.021 285.454 103.648C285.806 103.264 285.982 102.72 285.982 102.016V97.136H288.238ZM292.688 98.512C292.976 98.0427 293.349 97.6747 293.808 97.408C294.277 97.1413 294.81 97.008 295.408 97.008V99.36H294.816C294.112 99.36 293.578 99.5253 293.216 99.856C292.864 100.187 292.688 100.763 292.688 101.584V106H290.448V97.136H292.688V98.512ZM14.0317 134L11.0237 130.224V134H8.78369V122.16H11.0237V128.896L13.9997 125.136H16.9117L13.0077 129.584L16.9437 134H14.0317ZM26.3674 129.376C26.3674 129.696 26.3461 129.984 26.3034 130.24H19.8234C19.8768 130.88 20.1008 131.381 20.4954 131.744C20.8901 132.107 21.3754 132.288 21.9514 132.288C22.7834 132.288 23.3754 131.931 23.7274 131.216H26.1434C25.8874 132.069 25.3968 132.773 24.6714 133.328C23.9461 133.872 23.0554 134.144 21.9994 134.144C21.1461 134.144 20.3781 133.957 19.6954 133.584C19.0234 133.2 18.4954 132.661 18.1114 131.968C17.7381 131.275 17.5514 130.475 17.5514 129.568C17.5514 128.651 17.7381 127.845 18.1114 127.152C18.4848 126.459 19.0074 125.925 19.6794 125.552C20.3514 125.179 21.1248 124.992 21.9994 124.992C22.8421 124.992 23.5941 125.173 24.2554 125.536C24.9274 125.899 25.4448 126.416 25.8074 127.088C26.1808 127.749 26.3674 128.512 26.3674 129.376ZM24.0474 128.736C24.0368 128.16 23.8288 127.701 23.4234 127.36C23.0181 127.008 22.5221 126.832 21.9354 126.832C21.3808 126.832 20.9114 127.003 20.5274 127.344C20.1541 127.675 19.9248 128.139 19.8394 128.736H24.0474ZM36.4824 125.136L30.9944 138.192H28.6104L30.5304 133.776L26.9784 125.136H29.4904L31.7784 131.328L34.0984 125.136H36.4824ZM41.0819 134.144C40.3566 134.144 39.7059 134.016 39.1299 133.76C38.5539 133.493 38.0953 133.136 37.7539 132.688C37.4233 132.24 37.2419 131.744 37.2099 131.2H39.4659C39.5086 131.541 39.6739 131.824 39.9619 132.048C40.2606 132.272 40.6286 132.384 41.0659 132.384C41.4926 132.384 41.8233 132.299 42.0579 132.128C42.3033 131.957 42.4259 131.739 42.4259 131.472C42.4259 131.184 42.2766 130.971 41.9779 130.832C41.6899 130.683 41.2259 130.523 40.5859 130.352C39.9246 130.192 39.3806 130.027 38.9539 129.856C38.5379 129.685 38.1753 129.424 37.8659 129.072C37.5673 128.72 37.4179 128.245 37.4179 127.648C37.4179 127.157 37.5566 126.709 37.8339 126.304C38.1219 125.899 38.5273 125.579 39.0499 125.344C39.5833 125.109 40.2073 124.992 40.9219 124.992C41.9779 124.992 42.8206 125.259 43.4499 125.792C44.0793 126.315 44.4259 127.024 44.4899 127.92H42.3459C42.3139 127.568 42.1646 127.291 41.8979 127.088C41.6419 126.875 41.2953 126.768 40.8579 126.768C40.4526 126.768 40.1379 126.843 39.9139 126.992C39.7006 127.141 39.5939 127.349 39.5939 127.616C39.5939 127.915 39.7433 128.144 40.0419 128.304C40.3406 128.453 40.8046 128.608 41.4339 128.768C42.0739 128.928 42.6019 129.093 43.0179 129.264C43.4339 129.435 43.7913 129.701 44.0899 130.064C44.3993 130.416 44.5593 130.885 44.5699 131.472C44.5699 131.984 44.4259 132.443 44.1379 132.848C43.8606 133.253 43.4553 133.573 42.9219 133.808C42.3993 134.032 41.7859 134.144 41.0819 134.144ZM47.4007 134.112C46.9954 134.112 46.6594 133.989 46.3927 133.744C46.1367 133.488 46.0087 133.173 46.0087 132.8C46.0087 132.427 46.1367 132.117 46.3927 131.872C46.6594 131.616 46.9954 131.488 47.4007 131.488C47.7954 131.488 48.1207 131.616 48.3767 131.872C48.6327 132.117 48.7607 132.427 48.7607 132.8C48.7607 133.173 48.6327 133.488 48.3767 133.744C48.1207 133.989 47.7954 134.112 47.4007 134.112ZM62.5214 126.288C62.5214 126.885 62.3774 127.445 62.0894 127.968C61.8121 128.491 61.3694 128.912 60.7614 129.232C60.1641 129.552 59.4068 129.712 58.4894 129.712H56.6174V134H54.3774V122.832H58.4894C59.3534 122.832 60.0894 122.981 60.6974 123.28C61.3054 123.579 61.7588 123.989 62.0574 124.512C62.3668 125.035 62.5214 125.627 62.5214 126.288ZM58.3934 127.904C59.0121 127.904 59.4708 127.765 59.7694 127.488C60.0681 127.2 60.2174 126.8 60.2174 126.288C60.2174 125.2 59.6094 124.656 58.3934 124.656H56.6174V127.904H58.3934ZM72.4798 125.136V134H70.2238V132.88C69.9358 133.264 69.5571 133.568 69.0878 133.792C68.6291 134.005 68.1278 134.112 67.5838 134.112C66.8905 134.112 66.2771 133.968 65.7438 133.68C65.2105 133.381 64.7891 132.949 64.4798 132.384C64.1811 131.808 64.0318 131.125 64.0318 130.336V125.136H66.2718V130.016C66.2718 130.72 66.4478 131.264 66.7998 131.648C67.1518 132.021 67.6318 132.208 68.2398 132.208C68.8585 132.208 69.3438 132.021 69.6958 131.648C70.0478 131.264 70.2238 130.72 70.2238 130.016V125.136H72.4798ZM77.2979 126.976V131.264C77.2979 131.563 77.3673 131.781 77.5059 131.92C77.6553 132.048 77.9006 132.112 78.2419 132.112H79.2819V134H77.8739C75.9859 134 75.0419 133.083 75.0419 131.248V126.976H73.9859V125.136H75.0419V122.944H77.2979V125.136H79.2819V126.976H77.2979ZM88.6416 134.144C87.7882 134.144 87.0202 133.957 86.3376 133.584C85.6549 133.2 85.1162 132.661 84.7216 131.968C84.3376 131.275 84.1456 130.475 84.1456 129.568C84.1456 128.661 84.3429 127.861 84.7376 127.168C85.1429 126.475 85.6922 125.941 86.3856 125.568C87.0789 125.184 87.8522 124.992 88.7056 124.992C89.5589 124.992 90.3322 125.184 91.0256 125.568C91.7189 125.941 92.2629 126.475 92.6576 127.168C93.0629 127.861 93.2656 128.661 93.2656 129.568C93.2656 130.475 93.0576 131.275 92.6416 131.968C92.2362 132.661 91.6816 133.2 90.9776 133.584C90.2842 133.957 89.5056 134.144 88.6416 134.144ZM88.6416 132.192C89.0469 132.192 89.4256 132.096 89.7776 131.904C90.1402 131.701 90.4282 131.403 90.6416 131.008C90.8549 130.613 90.9616 130.133 90.9616 129.568C90.9616 128.725 90.7376 128.08 90.2896 127.632C89.8522 127.173 89.3136 126.944 88.6736 126.944C88.0336 126.944 87.4949 127.173 87.0576 127.632C86.6309 128.08 86.4176 128.725 86.4176 129.568C86.4176 130.411 86.6256 131.061 87.0416 131.52C87.4682 131.968 88.0016 132.192 88.6416 132.192ZM99.8207 125.008C100.877 125.008 101.73 125.344 102.381 126.016C103.031 126.677 103.357 127.605 103.357 128.8V134H101.117V129.104C101.117 128.4 100.941 127.861 100.589 127.488C100.237 127.104 99.7567 126.912 99.1487 126.912C98.53 126.912 98.0394 127.104 97.6767 127.488C97.3247 127.861 97.1487 128.4 97.1487 129.104V134H94.9087V125.136H97.1487V126.24C97.4474 125.856 97.826 125.557 98.2847 125.344C98.754 125.12 99.266 125.008 99.8207 125.008ZM113.727 129.376C113.727 129.696 113.705 129.984 113.663 130.24H107.183C107.236 130.88 107.46 131.381 107.855 131.744C108.249 132.107 108.735 132.288 109.311 132.288C110.143 132.288 110.735 131.931 111.087 131.216H113.503C113.247 132.069 112.756 132.773 112.031 133.328C111.305 133.872 110.415 134.144 109.359 134.144C108.505 134.144 107.737 133.957 107.055 133.584C106.383 133.2 105.855 132.661 105.471 131.968C105.097 131.275 104.911 130.475 104.911 129.568C104.911 128.651 105.097 127.845 105.471 127.152C105.844 126.459 106.367 125.925 107.039 125.552C107.711 125.179 108.484 124.992 109.359 124.992C110.201 124.992 110.953 125.173 111.615 125.536C112.287 125.899 112.804 126.416 113.167 127.088C113.54 127.749 113.727 128.512 113.727 129.376ZM111.407 128.736C111.396 128.16 111.188 127.701 110.783 127.36C110.377 127.008 109.881 126.832 109.295 126.832C108.74 126.832 108.271 127.003 107.887 127.344C107.513 127.675 107.284 128.139 107.199 128.736H111.407ZM120.31 124.08C119.916 124.08 119.585 123.957 119.318 123.712C119.062 123.456 118.934 123.141 118.934 122.768C118.934 122.395 119.062 122.085 119.318 121.84C119.585 121.584 119.916 121.456 120.31 121.456C120.705 121.456 121.03 121.584 121.286 121.84C121.553 122.085 121.686 122.395 121.686 122.768C121.686 123.141 121.553 123.456 121.286 123.712C121.03 123.957 120.705 124.08 120.31 124.08ZM121.414 125.136V134H119.174V125.136H121.414ZM128.539 125.008C129.595 125.008 130.449 125.344 131.099 126.016C131.75 126.677 132.075 127.605 132.075 128.8V134H129.835V129.104C129.835 128.4 129.659 127.861 129.307 127.488C128.955 127.104 128.475 126.912 127.867 126.912C127.249 126.912 126.758 127.104 126.395 127.488C126.043 127.861 125.867 128.4 125.867 129.104V134H123.627V125.136H125.867V126.24C126.166 125.856 126.545 125.557 127.003 125.344C127.473 125.12 127.985 125.008 128.539 125.008ZM146.498 125.136L141.01 138.192H138.626L140.546 133.776L136.994 125.136H139.506L141.794 131.328L144.114 125.136H146.498ZM151.642 134.144C150.788 134.144 150.02 133.957 149.338 133.584C148.655 133.2 148.116 132.661 147.722 131.968C147.338 131.275 147.146 130.475 147.146 129.568C147.146 128.661 147.343 127.861 147.738 127.168C148.143 126.475 148.692 125.941 149.386 125.568C150.079 125.184 150.852 124.992 151.706 124.992C152.559 124.992 153.332 125.184 154.026 125.568C154.719 125.941 155.263 126.475 155.658 127.168C156.063 127.861 156.266 128.661 156.266 129.568C156.266 130.475 156.058 131.275 155.642 131.968C155.236 132.661 154.682 133.2 153.978 133.584C153.284 133.957 152.506 134.144 151.642 134.144ZM151.642 132.192C152.047 132.192 152.426 132.096 152.778 131.904C153.14 131.701 153.428 131.403 153.642 131.008C153.855 130.613 153.962 130.133 153.962 129.568C153.962 128.725 153.738 128.08 153.29 127.632C152.852 127.173 152.314 126.944 151.674 126.944C151.034 126.944 150.495 127.173 150.058 127.632C149.631 128.08 149.418 128.725 149.418 129.568C149.418 130.411 149.626 131.061 150.042 131.52C150.468 131.968 151.002 132.192 151.642 132.192ZM166.277 125.136V134H164.021V132.88C163.733 133.264 163.354 133.568 162.885 133.792C162.426 134.005 161.925 134.112 161.381 134.112C160.687 134.112 160.074 133.968 159.541 133.68C159.007 133.381 158.586 132.949 158.277 132.384C157.978 131.808 157.829 131.125 157.829 130.336V125.136H160.069V130.016C160.069 130.72 160.245 131.264 160.597 131.648C160.949 132.021 161.429 132.208 162.037 132.208C162.655 132.208 163.141 132.021 163.493 131.648C163.845 131.264 164.021 130.72 164.021 130.016V125.136H166.277ZM170.727 126.512C171.015 126.043 171.388 125.675 171.847 125.408C172.316 125.141 172.849 125.008 173.447 125.008V127.36H172.855C172.151 127.36 171.617 127.525 171.255 127.856C170.903 128.187 170.727 128.763 170.727 129.584V134H168.487V125.136H170.727V126.512ZM181.008 126.432C181.296 126.005 181.691 125.659 182.192 125.392C182.704 125.125 183.285 124.992 183.936 124.992C184.693 124.992 185.376 125.179 185.984 125.552C186.603 125.925 187.088 126.459 187.44 127.152C187.803 127.835 187.984 128.629 187.984 129.536C187.984 130.443 187.803 131.248 187.44 131.952C187.088 132.645 186.603 133.184 185.984 133.568C185.376 133.952 184.693 134.144 183.936 134.144C183.275 134.144 182.693 134.016 182.192 133.76C181.701 133.493 181.307 133.152 181.008 132.736V134H178.768V122.16H181.008V126.432ZM185.696 129.536C185.696 129.003 185.584 128.544 185.36 128.16C185.147 127.765 184.859 127.467 184.496 127.264C184.144 127.061 183.76 126.96 183.344 126.96C182.939 126.96 182.555 127.067 182.192 127.28C181.84 127.483 181.552 127.781 181.328 128.176C181.115 128.571 181.008 129.035 181.008 129.568C181.008 130.101 181.115 130.565 181.328 130.96C181.552 131.355 181.84 131.659 182.192 131.872C182.555 132.075 182.939 132.176 183.344 132.176C183.76 132.176 184.144 132.069 184.496 131.856C184.859 131.643 185.147 131.339 185.36 130.944C185.584 130.549 185.696 130.08 185.696 129.536ZM189.036 129.536C189.036 128.64 189.212 127.845 189.564 127.152C189.926 126.459 190.412 125.925 191.02 125.552C191.638 125.179 192.326 124.992 193.084 124.992C193.745 124.992 194.321 125.125 194.812 125.392C195.313 125.659 195.713 125.995 196.012 126.4V125.136H198.268V134H196.012V132.704C195.724 133.12 195.324 133.467 194.812 133.744C194.31 134.011 193.729 134.144 193.068 134.144C192.321 134.144 191.638 133.952 191.02 133.568C190.412 133.184 189.926 132.645 189.564 131.952C189.212 131.248 189.036 130.443 189.036 129.536ZM196.012 129.568C196.012 129.024 195.905 128.56 195.692 128.176C195.478 127.781 195.19 127.483 194.828 127.28C194.465 127.067 194.076 126.96 193.66 126.96C193.244 126.96 192.86 127.061 192.508 127.264C192.156 127.467 191.868 127.765 191.644 128.16C191.43 128.544 191.324 129.003 191.324 129.536C191.324 130.069 191.43 130.539 191.644 130.944C191.868 131.339 192.156 131.643 192.508 131.856C192.87 132.069 193.254 132.176 193.66 132.176C194.076 132.176 194.465 132.075 194.828 131.872C195.19 131.659 195.478 131.36 195.692 130.976C195.905 130.581 196.012 130.112 196.012 129.568ZM199.88 129.568C199.88 128.651 200.066 127.851 200.44 127.168C200.813 126.475 201.33 125.941 201.992 125.568C202.653 125.184 203.41 124.992 204.264 124.992C205.362 124.992 206.269 125.269 206.984 125.824C207.709 126.368 208.194 127.136 208.44 128.128H206.024C205.896 127.744 205.677 127.445 205.368 127.232C205.069 127.008 204.696 126.896 204.248 126.896C203.608 126.896 203.101 127.131 202.728 127.6C202.354 128.059 202.168 128.715 202.168 129.568C202.168 130.411 202.354 131.067 202.728 131.536C203.101 131.995 203.608 132.224 204.248 132.224C205.154 132.224 205.746 131.819 206.024 131.008H208.44C208.194 131.968 207.709 132.731 206.984 133.296C206.258 133.861 205.352 134.144 204.264 134.144C203.41 134.144 202.653 133.957 201.992 133.584C201.33 133.2 200.813 132.667 200.44 131.984C200.066 131.291 199.88 130.485 199.88 129.568ZM215.329 134L212.321 130.224V134H210.081V122.16H212.321V128.896L215.297 125.136H218.209L214.305 129.584L218.241 134H215.329ZM221.664 126.416C221.952 126.011 222.347 125.675 222.848 125.408C223.36 125.131 223.942 124.992 224.592 124.992C225.35 124.992 226.032 125.179 226.64 125.552C227.259 125.925 227.744 126.459 228.096 127.152C228.459 127.835 228.64 128.629 228.64 129.536C228.64 130.443 228.459 131.248 228.096 131.952C227.744 132.645 227.259 133.184 226.64 133.568C226.032 133.952 225.35 134.144 224.592 134.144C223.942 134.144 223.366 134.011 222.864 133.744C222.374 133.477 221.974 133.141 221.664 132.736V138.224H219.424V125.136H221.664V126.416ZM226.352 129.536C226.352 129.003 226.24 128.544 226.016 128.16C225.803 127.765 225.515 127.467 225.152 127.264C224.8 127.061 224.416 126.96 224 126.96C223.595 126.96 223.211 127.067 222.848 127.28C222.496 127.483 222.208 127.781 221.984 128.176C221.771 128.571 221.664 129.035 221.664 129.568C221.664 130.101 221.771 130.565 221.984 130.96C222.208 131.355 222.496 131.659 222.848 131.872C223.211 132.075 223.595 132.176 224 132.176C224.416 132.176 224.8 132.069 225.152 131.856C225.515 131.643 225.803 131.339 226.016 130.944C226.24 130.549 226.352 130.08 226.352 129.536ZM229.692 129.536C229.692 128.64 229.868 127.845 230.22 127.152C230.583 126.459 231.068 125.925 231.676 125.552C232.295 125.179 232.983 124.992 233.74 124.992C234.401 124.992 234.977 125.125 235.468 125.392C235.969 125.659 236.369 125.995 236.668 126.4V125.136H238.924V134H236.668V132.704C236.38 133.12 235.98 133.467 235.468 133.744C234.967 134.011 234.385 134.144 233.724 134.144C232.977 134.144 232.295 133.952 231.676 133.568C231.068 133.184 230.583 132.645 230.22 131.952C229.868 131.248 229.692 130.443 229.692 129.536ZM236.668 129.568C236.668 129.024 236.561 128.56 236.348 128.176C236.135 127.781 235.847 127.483 235.484 127.28C235.121 127.067 234.732 126.96 234.316 126.96C233.9 126.96 233.516 127.061 233.164 127.264C232.812 127.467 232.524 127.765 232.3 128.16C232.087 128.544 231.98 129.003 231.98 129.536C231.98 130.069 232.087 130.539 232.3 130.944C232.524 131.339 232.812 131.643 233.164 131.856C233.527 132.069 233.911 132.176 234.316 132.176C234.732 132.176 235.121 132.075 235.484 131.872C235.847 131.659 236.135 131.36 236.348 130.976C236.561 130.581 236.668 130.112 236.668 129.568ZM240.536 129.568C240.536 128.651 240.722 127.851 241.096 127.168C241.469 126.475 241.986 125.941 242.648 125.568C243.309 125.184 244.066 124.992 244.92 124.992C246.018 124.992 246.925 125.269 247.64 125.824C248.365 126.368 248.85 127.136 249.096 128.128H246.68C246.552 127.744 246.333 127.445 246.024 127.232C245.725 127.008 245.352 126.896 244.904 126.896C244.264 126.896 243.757 127.131 243.384 127.6C243.01 128.059 242.824 128.715 242.824 129.568C242.824 130.411 243.01 131.067 243.384 131.536C243.757 131.995 244.264 132.224 244.904 132.224C245.81 132.224 246.402 131.819 246.68 131.008H249.096C248.85 131.968 248.365 132.731 247.64 133.296C246.914 133.861 246.008 134.144 244.92 134.144C244.066 134.144 243.309 133.957 242.648 133.584C241.986 133.2 241.469 132.667 241.096 131.984C240.722 131.291 240.536 130.485 240.536 129.568ZM255.985 134L252.977 130.224V134H250.737V122.16H252.977V128.896L255.953 125.136H258.865L254.961 129.584L258.897 134H255.985ZM261.073 134.112C260.667 134.112 260.331 133.989 260.065 133.744C259.809 133.488 259.681 133.173 259.681 132.8C259.681 132.427 259.809 132.117 260.065 131.872C260.331 131.616 260.667 131.488 261.073 131.488C261.467 131.488 261.793 131.616 262.049 131.872C262.305 132.117 262.433 132.427 262.433 132.8C262.433 133.173 262.305 133.488 262.049 133.744C261.793 133.989 261.467 134.112 261.073 134.112ZM271.905 134.112C271.127 134.112 270.423 133.979 269.793 133.712C269.175 133.445 268.684 133.061 268.321 132.56C267.959 132.059 267.772 131.467 267.761 130.784H270.161C270.193 131.243 270.353 131.605 270.641 131.872C270.94 132.139 271.345 132.272 271.857 132.272C272.38 132.272 272.791 132.149 273.089 131.904C273.388 131.648 273.537 131.317 273.537 130.912C273.537 130.581 273.436 130.309 273.233 130.096C273.031 129.883 272.775 129.717 272.465 129.6C272.167 129.472 271.751 129.333 271.217 129.184C270.492 128.971 269.9 128.763 269.441 128.56C268.993 128.347 268.604 128.032 268.273 127.616C267.953 127.189 267.793 126.624 267.793 125.92C267.793 125.259 267.959 124.683 268.289 124.192C268.62 123.701 269.084 123.328 269.681 123.072C270.279 122.805 270.961 122.672 271.729 122.672C272.881 122.672 273.815 122.955 274.529 123.52C275.255 124.075 275.655 124.853 275.729 125.856H273.265C273.244 125.472 273.079 125.157 272.769 124.912C272.471 124.656 272.071 124.528 271.569 124.528C271.132 124.528 270.78 124.64 270.513 124.864C270.257 125.088 270.129 125.413 270.129 125.84C270.129 126.139 270.225 126.389 270.417 126.592C270.62 126.784 270.865 126.944 271.153 127.072C271.452 127.189 271.868 127.328 272.401 127.488C273.127 127.701 273.719 127.915 274.177 128.128C274.636 128.341 275.031 128.661 275.361 129.088C275.692 129.515 275.857 130.075 275.857 130.768C275.857 131.365 275.703 131.92 275.393 132.432C275.084 132.944 274.631 133.355 274.033 133.664C273.436 133.963 272.727 134.112 271.905 134.112ZM280.407 126.976V131.264C280.407 131.563 280.477 131.781 280.615 131.92C280.765 132.048 281.01 132.112 281.351 132.112H282.391V134H280.983C279.095 134 278.151 133.083 278.151 131.248V126.976H277.095V125.136H278.151V122.944H280.407V125.136H282.391V126.976H280.407ZM285.138 124.08C284.744 124.08 284.413 123.957 284.146 123.712C283.89 123.456 283.762 123.141 283.762 122.768C283.762 122.395 283.89 122.085 284.146 121.84C284.413 121.584 284.744 121.456 285.138 121.456C285.533 121.456 285.858 121.584 286.114 121.84C286.381 122.085 286.514 122.395 286.514 122.768C286.514 123.141 286.381 123.456 286.114 123.712C285.858 123.957 285.533 124.08 285.138 124.08ZM286.242 125.136V134H284.002V125.136H286.242ZM287.88 129.568C287.88 128.651 288.066 127.851 288.44 127.168C288.813 126.475 289.33 125.941 289.992 125.568C290.653 125.184 291.41 124.992 292.264 124.992C293.362 124.992 294.269 125.269 294.984 125.824C295.709 126.368 296.194 127.136 296.44 128.128H294.024C293.896 127.744 293.677 127.445 293.368 127.232C293.069 127.008 292.696 126.896 292.248 126.896C291.608 126.896 291.101 127.131 290.728 127.6C290.354 128.059 290.168 128.715 290.168 129.568C290.168 130.411 290.354 131.067 290.728 131.536C291.101 131.995 291.608 132.224 292.248 132.224C293.154 132.224 293.746 131.819 294.024 131.008H296.44C296.194 131.968 295.709 132.731 294.984 133.296C294.258 133.861 293.352 134.144 292.264 134.144C291.41 134.144 290.653 133.957 289.992 133.584C289.33 133.2 288.813 132.667 288.44 131.984C288.066 131.291 287.88 130.485 287.88 129.568ZM303.329 134L300.321 130.224V134H298.081V122.16H300.321V128.896L303.297 125.136H306.209L302.305 129.584L306.241 134H303.329ZM4.8405 157.536C4.8405 156.64 5.0165 155.845 5.3685 155.152C5.73117 154.459 6.2165 153.925 6.8245 153.552C7.44317 153.179 8.13117 152.992 8.8885 152.992C9.54983 152.992 10.1258 153.125 10.6165 153.392C11.1178 153.659 11.5178 153.995 11.8165 154.4V153.136H14.0725V162H11.8165V160.704C11.5285 161.12 11.1285 161.467 10.6165 161.744C10.1152 162.011 9.53383 162.144 8.8725 162.144C8.12583 162.144 7.44317 161.952 6.8245 161.568C6.2165 161.184 5.73117 160.645 5.3685 159.952C5.0165 159.248 4.8405 158.443 4.8405 157.536ZM11.8165 157.568C11.8165 157.024 11.7098 156.56 11.4965 156.176C11.2832 155.781 10.9952 155.483 10.6325 155.28C10.2698 155.067 9.8805 154.96 9.4645 154.96C9.0485 154.96 8.6645 155.061 8.3125 155.264C7.9605 155.467 7.6725 155.765 7.4485 156.16C7.23517 156.544 7.1285 157.003 7.1285 157.536C7.1285 158.069 7.23517 158.539 7.4485 158.944C7.6725 159.339 7.9605 159.643 8.3125 159.856C8.67517 160.069 9.05917 160.176 9.4645 160.176C9.8805 160.176 10.2698 160.075 10.6325 159.872C10.9952 159.659 11.2832 159.36 11.4965 158.976C11.7098 158.581 11.8165 158.112 11.8165 157.568ZM21.1723 153.008C22.2283 153.008 23.0816 153.344 23.7323 154.016C24.3829 154.677 24.7083 155.605 24.7083 156.8V162H22.4683V157.104C22.4683 156.4 22.2923 155.861 21.9403 155.488C21.5883 155.104 21.1083 154.912 20.5003 154.912C19.8816 154.912 19.3909 155.104 19.0283 155.488C18.6763 155.861 18.5003 156.4 18.5003 157.104V162H16.2603V153.136H18.5003V154.24C18.7989 153.856 19.1776 153.557 19.6363 153.344C20.1056 153.12 20.6176 153.008 21.1723 153.008ZM30.7744 162.144C29.921 162.144 29.153 161.957 28.4704 161.584C27.7877 161.2 27.249 160.661 26.8544 159.968C26.4704 159.275 26.2784 158.475 26.2784 157.568C26.2784 156.661 26.4757 155.861 26.8704 155.168C27.2757 154.475 27.825 153.941 28.5184 153.568C29.2117 153.184 29.985 152.992 30.8384 152.992C31.6917 152.992 32.465 153.184 33.1584 153.568C33.8517 153.941 34.3957 154.475 34.7904 155.168C35.1957 155.861 35.3984 156.661 35.3984 157.568C35.3984 158.475 35.1904 159.275 34.7744 159.968C34.369 160.661 33.8144 161.2 33.1104 161.584C32.417 161.957 31.6384 162.144 30.7744 162.144ZM30.7744 160.192C31.1797 160.192 31.5584 160.096 31.9104 159.904C32.273 159.701 32.561 159.403 32.7744 159.008C32.9877 158.613 33.0944 158.133 33.0944 157.568C33.0944 156.725 32.8704 156.08 32.4224 155.632C31.985 155.173 31.4464 154.944 30.8064 154.944C30.1664 154.944 29.6277 155.173 29.1904 155.632C28.7637 156.08 28.5504 156.725 28.5504 157.568C28.5504 158.411 28.7584 159.061 29.1744 159.52C29.601 159.968 30.1344 160.192 30.7744 160.192ZM39.6495 154.976V159.264C39.6495 159.563 39.7188 159.781 39.8575 159.92C40.0068 160.048 40.2522 160.112 40.5935 160.112H41.6335V162H40.2255C38.3375 162 37.3935 161.083 37.3935 159.248V154.976H36.3375V153.136H37.3935V150.944H39.6495V153.136H41.6335V154.976H39.6495ZM48.2366 153.008C48.9086 153.008 49.506 153.157 50.0286 153.456C50.5513 153.744 50.9566 154.176 51.2446 154.752C51.5433 155.317 51.6926 156 51.6926 156.8V162H49.4526V157.104C49.4526 156.4 49.2766 155.861 48.9246 155.488C48.5726 155.104 48.0926 154.912 47.4846 154.912C46.866 154.912 46.3753 155.104 46.0126 155.488C45.6606 155.861 45.4846 156.4 45.4846 157.104V162H43.2446V150.16H45.4846V154.24C45.7726 153.856 46.1566 153.557 46.6366 153.344C47.1166 153.12 47.65 153.008 48.2366 153.008ZM62.0628 157.376C62.0628 157.696 62.0414 157.984 61.9988 158.24H55.5188C55.5721 158.88 55.7961 159.381 56.1908 159.744C56.5854 160.107 57.0708 160.288 57.6468 160.288C58.4788 160.288 59.0708 159.931 59.4228 159.216H61.8388C61.5828 160.069 61.0921 160.773 60.3668 161.328C59.6414 161.872 58.7508 162.144 57.6948 162.144C56.8414 162.144 56.0734 161.957 55.3908 161.584C54.7188 161.2 54.1908 160.661 53.8068 159.968C53.4334 159.275 53.2467 158.475 53.2467 157.568C53.2467 156.651 53.4334 155.845 53.8068 155.152C54.1801 154.459 54.7028 153.925 55.3748 153.552C56.0468 153.179 56.8201 152.992 57.6948 152.992C58.5374 152.992 59.2894 153.173 59.9508 153.536C60.6228 153.899 61.1401 154.416 61.5028 155.088C61.8761 155.749 62.0628 156.512 62.0628 157.376ZM59.7428 156.736C59.7321 156.16 59.5241 155.701 59.1188 155.36C58.7134 155.008 58.2174 154.832 57.6308 154.832C57.0761 154.832 56.6068 155.003 56.2228 155.344C55.8494 155.675 55.6201 156.139 55.5348 156.736H59.7428ZM65.9378 154.512C66.2258 154.043 66.5991 153.675 67.0578 153.408C67.5271 153.141 68.0604 153.008 68.6578 153.008V155.36H68.0658C67.3618 155.36 66.8284 155.525 66.4658 155.856C66.1138 156.187 65.9378 156.763 65.9378 157.584V162H63.6978V153.136H65.9378V154.512ZM77.915 162.144C77.0617 162.144 76.2937 161.957 75.611 161.584C74.9283 161.2 74.3897 160.661 73.995 159.968C73.611 159.275 73.419 158.475 73.419 157.568C73.419 156.661 73.6163 155.861 74.011 155.168C74.4163 154.475 74.9657 153.941 75.659 153.568C76.3523 153.184 77.1257 152.992 77.979 152.992C78.8323 152.992 79.6057 153.184 80.299 153.568C80.9923 153.941 81.5363 154.475 81.931 155.168C82.3363 155.861 82.539 156.661 82.539 157.568C82.539 158.475 82.331 159.275 81.915 159.968C81.5097 160.661 80.955 161.2 80.251 161.584C79.5577 161.957 78.779 162.144 77.915 162.144ZM77.915 160.192C78.3203 160.192 78.699 160.096 79.051 159.904C79.4137 159.701 79.7017 159.403 79.915 159.008C80.1283 158.613 80.235 158.133 80.235 157.568C80.235 156.725 80.011 156.08 79.563 155.632C79.1257 155.173 78.587 154.944 77.947 154.944C77.307 154.944 76.7683 155.173 76.331 155.632C75.9043 156.08 75.691 156.725 75.691 157.568C75.691 158.411 75.899 159.061 76.315 159.52C76.7417 159.968 77.275 160.192 77.915 160.192ZM89.0941 153.008C90.1501 153.008 91.0035 153.344 91.6541 154.016C92.3048 154.677 92.6301 155.605 92.6301 156.8V162H90.3901V157.104C90.3901 156.4 90.2141 155.861 89.8621 155.488C89.5101 155.104 89.0301 154.912 88.4221 154.912C87.8035 154.912 87.3128 155.104 86.9501 155.488C86.5981 155.861 86.4221 156.4 86.4221 157.104V162H84.1821V153.136H86.4221V154.24C86.7208 153.856 87.0995 153.557 87.5581 153.344C88.0275 153.12 88.5395 153.008 89.0941 153.008ZM107.053 153.136L101.565 166.192H99.1808L101.101 161.776L97.5488 153.136H100.061L102.349 159.328L104.669 153.136H107.053ZM112.196 162.144C111.343 162.144 110.575 161.957 109.892 161.584C109.21 161.2 108.671 160.661 108.276 159.968C107.892 159.275 107.7 158.475 107.7 157.568C107.7 156.661 107.898 155.861 108.292 155.168C108.698 154.475 109.247 153.941 109.94 153.568C110.634 153.184 111.407 152.992 112.26 152.992C113.114 152.992 113.887 153.184 114.58 153.568C115.274 153.941 115.818 154.475 116.212 155.168C116.618 155.861 116.82 156.661 116.82 157.568C116.82 158.475 116.612 159.275 116.196 159.968C115.791 160.661 115.236 161.2 114.532 161.584C113.839 161.957 113.06 162.144 112.196 162.144ZM112.196 160.192C112.602 160.192 112.98 160.096 113.332 159.904C113.695 159.701 113.983 159.403 114.196 159.008C114.41 158.613 114.516 158.133 114.516 157.568C114.516 156.725 114.292 156.08 113.844 155.632C113.407 155.173 112.868 154.944 112.228 154.944C111.588 154.944 111.05 155.173 110.612 155.632C110.186 156.08 109.972 156.725 109.972 157.568C109.972 158.411 110.18 159.061 110.596 159.52C111.023 159.968 111.556 160.192 112.196 160.192ZM126.831 153.136V162H124.575V160.88C124.287 161.264 123.909 161.568 123.439 161.792C122.981 162.005 122.479 162.112 121.935 162.112C121.242 162.112 120.629 161.968 120.095 161.68C119.562 161.381 119.141 160.949 118.831 160.384C118.533 159.808 118.383 159.125 118.383 158.336V153.136H120.623V158.016C120.623 158.72 120.799 159.264 121.151 159.648C121.503 160.021 121.983 160.208 122.591 160.208C123.21 160.208 123.695 160.021 124.047 159.648C124.399 159.264 124.575 158.72 124.575 158.016V153.136H126.831ZM131.282 154.512C131.57 154.043 131.943 153.675 132.402 153.408C132.871 153.141 133.404 153.008 134.002 153.008V155.36H133.41C132.706 155.36 132.172 155.525 131.81 155.856C131.458 156.187 131.282 156.763 131.282 157.584V162H129.042V153.136H131.282V154.512ZM146.923 150.832V152.64H143.947V162H141.707V152.64H138.731V150.832H146.923ZM158.589 150.832L154.493 162H151.773L147.677 150.832H150.077L153.149 159.712L156.205 150.832H158.589ZM165.985 154.512C166.273 154.043 166.646 153.675 167.105 153.408C167.574 153.141 168.107 153.008 168.705 153.008V155.36H168.113C167.409 155.36 166.875 155.525 166.513 155.856C166.161 156.187 165.985 156.763 165.985 157.584V162H163.745V153.136H165.985V154.512ZM178.453 157.376C178.453 157.696 178.432 157.984 178.389 158.24H171.909C171.963 158.88 172.187 159.381 172.581 159.744C172.976 160.107 173.461 160.288 174.037 160.288C174.869 160.288 175.461 159.931 175.813 159.216H178.229C177.973 160.069 177.483 160.773 176.757 161.328C176.032 161.872 175.141 162.144 174.085 162.144C173.232 162.144 172.464 161.957 171.781 161.584C171.109 161.2 170.581 160.661 170.197 159.968C169.824 159.275 169.637 158.475 169.637 157.568C169.637 156.651 169.824 155.845 170.197 155.152C170.571 154.459 171.093 153.925 171.765 153.552C172.437 153.179 173.211 152.992 174.085 152.992C174.928 152.992 175.68 153.173 176.341 153.536C177.013 153.899 177.531 154.416 177.893 155.088C178.267 155.749 178.453 156.512 178.453 157.376ZM176.133 156.736C176.123 156.16 175.915 155.701 175.509 155.36C175.104 155.008 174.608 154.832 174.021 154.832C173.467 154.832 172.997 155.003 172.613 155.344C172.24 155.675 172.011 156.139 171.925 156.736H176.133ZM191.096 153.008C192.184 153.008 193.059 153.344 193.72 154.016C194.392 154.677 194.728 155.605 194.728 156.8V162H192.488V157.104C192.488 156.411 192.312 155.883 191.96 155.52C191.608 155.147 191.128 154.96 190.52 154.96C189.912 154.96 189.427 155.147 189.064 155.52C188.712 155.883 188.536 156.411 188.536 157.104V162H186.296V157.104C186.296 156.411 186.12 155.883 185.768 155.52C185.416 155.147 184.936 154.96 184.328 154.96C183.71 154.96 183.219 155.147 182.856 155.52C182.504 155.883 182.328 156.411 182.328 157.104V162H180.088V153.136H182.328V154.208C182.616 153.835 182.984 153.541 183.432 153.328C183.891 153.115 184.392 153.008 184.936 153.008C185.63 153.008 186.248 153.157 186.792 153.456C187.336 153.744 187.758 154.16 188.056 154.704C188.344 154.192 188.76 153.781 189.304 153.472C189.859 153.163 190.456 153.008 191.096 153.008ZM200.79 162.144C199.937 162.144 199.169 161.957 198.486 161.584C197.803 161.2 197.265 160.661 196.87 159.968C196.486 159.275 196.294 158.475 196.294 157.568C196.294 156.661 196.491 155.861 196.886 155.168C197.291 154.475 197.841 153.941 198.534 153.568C199.227 153.184 200.001 152.992 200.854 152.992C201.707 152.992 202.481 153.184 203.174 153.568C203.867 153.941 204.411 154.475 204.806 155.168C205.211 155.861 205.414 156.661 205.414 157.568C205.414 158.475 205.206 159.275 204.79 159.968C204.385 160.661 203.83 161.2 203.126 161.584C202.433 161.957 201.654 162.144 200.79 162.144ZM200.79 160.192C201.195 160.192 201.574 160.096 201.926 159.904C202.289 159.701 202.577 159.403 202.79 159.008C203.003 158.613 203.11 158.133 203.11 157.568C203.11 156.725 202.886 156.08 202.438 155.632C202.001 155.173 201.462 154.944 200.822 154.944C200.182 154.944 199.643 155.173 199.206 155.632C198.779 156.08 198.566 156.725 198.566 157.568C198.566 158.411 198.774 159.061 199.19 159.52C199.617 159.968 200.15 160.192 200.79 160.192ZM209.665 154.976V159.264C209.665 159.563 209.734 159.781 209.873 159.92C210.022 160.048 210.268 160.112 210.609 160.112H211.649V162H210.241C208.353 162 207.409 161.083 207.409 159.248V154.976H206.353V153.136H207.409V150.944H209.665V153.136H211.649V154.976H209.665ZM221.5 157.376C221.5 157.696 221.479 157.984 221.436 158.24H214.956C215.01 158.88 215.234 159.381 215.628 159.744C216.023 160.107 216.508 160.288 217.084 160.288C217.916 160.288 218.508 159.931 218.86 159.216H221.276C221.02 160.069 220.53 160.773 219.804 161.328C219.079 161.872 218.188 162.144 217.132 162.144C216.279 162.144 215.511 161.957 214.828 161.584C214.156 161.2 213.628 160.661 213.244 159.968C212.871 159.275 212.684 158.475 212.684 157.568C212.684 156.651 212.871 155.845 213.244 155.152C213.618 154.459 214.14 153.925 214.812 153.552C215.484 153.179 216.258 152.992 217.132 152.992C217.975 152.992 218.727 153.173 219.388 153.536C220.06 153.899 220.578 154.416 220.94 155.088C221.314 155.749 221.5 156.512 221.5 157.376ZM219.18 156.736C219.17 156.16 218.962 155.701 218.556 155.36C218.151 155.008 217.655 154.832 217.068 154.832C216.514 154.832 216.044 155.003 215.66 155.344C215.287 155.675 215.058 156.139 214.972 156.736H219.18ZM224.127 162.112C223.722 162.112 223.386 161.989 223.119 161.744C222.863 161.488 222.735 161.173 222.735 160.8C222.735 160.427 222.863 160.117 223.119 159.872C223.386 159.616 223.722 159.488 224.127 159.488C224.522 159.488 224.847 159.616 225.103 159.872C225.359 160.117 225.487 160.427 225.487 160.8C225.487 161.173 225.359 161.488 225.103 161.744C224.847 161.989 224.522 162.112 224.127 162.112ZM237.952 159.872H233.504L232.768 162H230.416L234.432 150.816H237.04L241.056 162H238.688L237.952 159.872ZM237.344 158.08L235.728 153.408L234.112 158.08H237.344ZM247.469 153.008C248.525 153.008 249.378 153.344 250.029 154.016C250.68 154.677 251.005 155.605 251.005 156.8V162H248.765V157.104C248.765 156.4 248.589 155.861 248.237 155.488C247.885 155.104 247.405 154.912 246.797 154.912C246.178 154.912 245.688 155.104 245.325 155.488C244.973 155.861 244.797 156.4 244.797 157.104V162H242.557V153.136H244.797V154.24C245.096 153.856 245.474 153.557 245.933 153.344C246.402 153.12 246.914 153.008 247.469 153.008ZM252.559 157.536C252.559 156.64 252.735 155.845 253.087 155.152C253.45 154.459 253.941 153.925 254.559 153.552C255.178 153.179 255.866 152.992 256.623 152.992C257.199 152.992 257.749 153.12 258.271 153.376C258.794 153.621 259.21 153.952 259.519 154.368V150.16H261.791V162H259.519V160.688C259.242 161.125 258.853 161.477 258.351 161.744C257.85 162.011 257.269 162.144 256.607 162.144C255.861 162.144 255.178 161.952 254.559 161.568C253.941 161.184 253.45 160.645 253.087 159.952C252.735 159.248 252.559 158.443 252.559 157.536ZM259.535 157.568C259.535 157.024 259.429 156.56 259.215 156.176C259.002 155.781 258.714 155.483 258.351 155.28C257.989 155.067 257.599 154.96 257.183 154.96C256.767 154.96 256.383 155.061 256.031 155.264C255.679 155.467 255.391 155.765 255.167 156.16C254.954 156.544 254.847 157.003 254.847 157.536C254.847 158.069 254.954 158.539 255.167 158.944C255.391 159.339 255.679 159.643 256.031 159.856C256.394 160.069 256.778 160.176 257.183 160.176C257.599 160.176 257.989 160.075 258.351 159.872C258.714 159.659 259.002 159.36 259.215 158.976C259.429 158.581 259.535 158.112 259.535 157.568ZM270.4 154.976V159.264C270.4 159.563 270.469 159.781 270.608 159.92C270.757 160.048 271.002 160.112 271.344 160.112H272.384V162H270.976C269.088 162 268.144 161.083 268.144 159.248V154.976H267.088V153.136H268.144V150.944H270.4V153.136H272.384V154.976H270.4ZM278.987 153.008C279.659 153.008 280.256 153.157 280.779 153.456C281.301 153.744 281.707 154.176 281.995 154.752C282.293 155.317 282.443 156 282.443 156.8V162H280.203V157.104C280.203 156.4 280.027 155.861 279.675 155.488C279.323 155.104 278.843 154.912 278.235 154.912C277.616 154.912 277.125 155.104 276.763 155.488C276.411 155.861 276.235 156.4 276.235 157.104V162H273.995V150.16H276.235V154.24C276.523 153.856 276.907 153.557 277.387 153.344C277.867 153.12 278.4 153.008 278.987 153.008ZM292.813 157.376C292.813 157.696 292.791 157.984 292.749 158.24H286.269C286.322 158.88 286.546 159.381 286.941 159.744C287.335 160.107 287.821 160.288 288.397 160.288C289.229 160.288 289.821 159.931 290.173 159.216H292.589C292.333 160.069 291.842 160.773 291.117 161.328C290.391 161.872 289.501 162.144 288.445 162.144C287.591 162.144 286.823 161.957 286.141 161.584C285.469 161.2 284.941 160.661 284.557 159.968C284.183 159.275 283.997 158.475 283.997 157.568C283.997 156.651 284.183 155.845 284.557 155.152C284.93 154.459 285.453 153.925 286.125 153.552C286.797 153.179 287.57 152.992 288.445 152.992C289.287 152.992 290.039 153.173 290.701 153.536C291.373 153.899 291.89 154.416 292.253 155.088C292.626 155.749 292.813 156.512 292.813 157.376ZM290.493 156.736C290.482 156.16 290.274 155.701 289.869 155.36C289.463 155.008 288.967 154.832 288.381 154.832C287.826 154.832 287.357 155.003 286.973 155.344C286.599 155.675 286.37 156.139 286.285 156.736H290.493ZM296.688 154.512C296.976 154.043 297.349 153.675 297.808 153.408C298.277 153.141 298.81 153.008 299.408 153.008V155.36H298.816C298.112 155.36 297.578 155.525 297.216 155.856C296.864 156.187 296.688 156.763 296.688 157.584V162H294.448V153.136H296.688V154.512ZM309.157 157.376C309.157 157.696 309.135 157.984 309.093 158.24H302.613C302.666 158.88 302.89 159.381 303.285 159.744C303.679 160.107 304.165 160.288 304.741 160.288C305.573 160.288 306.165 159.931 306.517 159.216H308.933C308.677 160.069 308.186 160.773 307.461 161.328C306.735 161.872 305.845 162.144 304.789 162.144C303.935 162.144 303.167 161.957 302.485 161.584C301.813 161.2 301.285 160.661 300.901 159.968C300.527 159.275 300.34 158.475 300.34 157.568C300.34 156.651 300.527 155.845 300.901 155.152C301.274 154.459 301.797 153.925 302.469 153.552C303.141 153.179 303.914 152.992 304.789 152.992C305.631 152.992 306.383 153.173 307.045 153.536C307.717 153.899 308.234 154.416 308.597 155.088C308.97 155.749 309.157 156.512 309.157 157.376ZM306.837 156.736C306.826 156.16 306.618 155.701 306.213 155.36C305.807 155.008 305.311 154.832 304.725 154.832C304.17 154.832 303.701 155.003 303.317 155.344C302.943 155.675 302.714 156.139 302.629 156.736H306.837ZM36.9151 182.976V187.264C36.9151 187.563 36.9845 187.781 37.1231 187.92C37.2725 188.048 37.5178 188.112 37.8591 188.112H38.8991V190H37.4911C35.6031 190 34.6591 189.083 34.6591 187.248V182.976H33.6031V181.136H34.6591V178.944H36.9151V181.136H38.8991V182.976H36.9151ZM45.5023 181.008C46.1743 181.008 46.7716 181.157 47.2943 181.456C47.8169 181.744 48.2223 182.176 48.5103 182.752C48.8089 183.317 48.9583 184 48.9583 184.8V190H46.7183V185.104C46.7183 184.4 46.5423 183.861 46.1903 183.488C45.8383 183.104 45.3583 182.912 44.7503 182.912C44.1316 182.912 43.6409 183.104 43.2783 183.488C42.9263 183.861 42.7503 184.4 42.7503 185.104V190H40.5103V178.16H42.7503V182.24C43.0383 181.856 43.4223 181.557 43.9023 181.344C44.3823 181.12 44.9156 181.008 45.5023 181.008ZM59.3284 185.376C59.3284 185.696 59.307 185.984 59.2644 186.24H52.7844C52.8377 186.88 53.0617 187.381 53.4564 187.744C53.851 188.107 54.3364 188.288 54.9124 188.288C55.7444 188.288 56.3364 187.931 56.6884 187.216H59.1044C58.8484 188.069 58.3577 188.773 57.6324 189.328C56.907 189.872 56.0164 190.144 54.9604 190.144C54.107 190.144 53.339 189.957 52.6564 189.584C51.9844 189.2 51.4564 188.661 51.0724 187.968C50.699 187.275 50.5124 186.475 50.5124 185.568C50.5124 184.651 50.699 183.845 51.0724 183.152C51.4457 182.459 51.9684 181.925 52.6404 181.552C53.3124 181.179 54.0857 180.992 54.9604 180.992C55.803 180.992 56.555 181.173 57.2164 181.536C57.8884 181.899 58.4057 182.416 58.7684 183.088C59.1417 183.749 59.3284 184.512 59.3284 185.376ZM57.0084 184.736C56.9977 184.16 56.7897 183.701 56.3844 183.36C55.979 183.008 55.483 182.832 54.8964 182.832C54.3417 182.832 53.8724 183.003 53.4884 183.344C53.115 183.675 52.8857 184.139 52.8004 184.736H57.0084ZM69.4434 181.136L63.9554 194.192H61.5714L63.4914 189.776L59.9394 181.136H62.4514L64.7394 187.328L67.0594 181.136H69.4434ZM73.8874 185.536C73.8874 184.64 74.0634 183.845 74.4154 183.152C74.778 182.459 75.2634 181.925 75.8714 181.552C76.49 181.179 77.178 180.992 77.9354 180.992C78.5967 180.992 79.1727 181.125 79.6634 181.392C80.1647 181.659 80.5647 181.995 80.8634 182.4V181.136H83.1194V190H80.8634V188.704C80.5754 189.12 80.1754 189.467 79.6634 189.744C79.162 190.011 78.5807 190.144 77.9194 190.144C77.1727 190.144 76.49 189.952 75.8714 189.568C75.2634 189.184 74.778 188.645 74.4154 187.952C74.0634 187.248 73.8874 186.443 73.8874 185.536ZM80.8634 185.568C80.8634 185.024 80.7567 184.56 80.5434 184.176C80.33 183.781 80.042 183.483 79.6794 183.28C79.3167 183.067 78.9274 182.96 78.5114 182.96C78.0954 182.96 77.7114 183.061 77.3594 183.264C77.0074 183.467 76.7194 183.765 76.4954 184.16C76.282 184.544 76.1754 185.003 76.1754 185.536C76.1754 186.069 76.282 186.539 76.4954 186.944C76.7194 187.339 77.0074 187.643 77.3594 187.856C77.722 188.069 78.106 188.176 78.5114 188.176C78.9274 188.176 79.3167 188.075 79.6794 187.872C80.042 187.659 80.33 187.36 80.5434 186.976C80.7567 186.581 80.8634 186.112 80.8634 185.568ZM87.5471 182.512C87.8351 182.043 88.2085 181.675 88.6671 181.408C89.1365 181.141 89.6698 181.008 90.2671 181.008V183.36H89.6751C88.9711 183.36 88.4378 183.525 88.0751 183.856C87.7231 184.187 87.5471 184.763 87.5471 185.584V190H85.3071V181.136H87.5471V182.512ZM100.016 185.376C100.016 185.696 99.9945 185.984 99.9519 186.24H93.4719C93.5252 186.88 93.7492 187.381 94.1439 187.744C94.5385 188.107 95.0239 188.288 95.5999 188.288C96.4319 188.288 97.0239 187.931 97.3759 187.216H99.7919C99.5359 188.069 99.0452 188.773 98.3199 189.328C97.5945 189.872 96.7039 190.144 95.6479 190.144C94.7945 190.144 94.0265 189.957 93.3439 189.584C92.6719 189.2 92.1439 188.661 91.7599 187.968C91.3865 187.275 91.1999 186.475 91.1999 185.568C91.1999 184.651 91.3865 183.845 91.7599 183.152C92.1332 182.459 92.6559 181.925 93.3279 181.552C93.9999 181.179 94.7732 180.992 95.6479 180.992C96.4905 180.992 97.2425 181.173 97.9039 181.536C98.5759 181.899 99.0932 182.416 99.4559 183.088C99.8292 183.749 100.016 184.512 100.016 185.376ZM97.6959 184.736C97.6852 184.16 97.4772 183.701 97.0719 183.36C96.6665 183.008 96.1705 182.832 95.5839 182.832C95.0292 182.832 94.5599 183.003 94.1759 183.344C93.8025 183.675 93.5732 184.139 93.4879 184.736H97.6959ZM106.599 180.08C106.205 180.08 105.874 179.957 105.607 179.712C105.351 179.456 105.223 179.141 105.223 178.768C105.223 178.395 105.351 178.085 105.607 177.84C105.874 177.584 106.205 177.456 106.599 177.456C106.994 177.456 107.319 177.584 107.575 177.84C107.842 178.085 107.975 178.395 107.975 178.768C107.975 179.141 107.842 179.456 107.575 179.712C107.319 179.957 106.994 180.08 106.599 180.08ZM107.703 181.136V190H105.463V181.136H107.703ZM114.829 181.008C115.885 181.008 116.738 181.344 117.389 182.016C118.039 182.677 118.365 183.605 118.365 184.8V190H116.125V185.104C116.125 184.4 115.949 183.861 115.597 183.488C115.245 183.104 114.765 182.912 114.157 182.912C113.538 182.912 113.047 183.104 112.685 183.488C112.333 183.861 112.157 184.4 112.157 185.104V190H109.917V181.136H112.157V182.24C112.455 181.856 112.834 181.557 113.293 181.344C113.762 181.12 114.274 181.008 114.829 181.008ZM126.915 182.976V187.264C126.915 187.563 126.984 187.781 127.123 187.92C127.272 188.048 127.518 188.112 127.859 188.112H128.899V190H127.491C125.603 190 124.659 189.083 124.659 187.248V182.976H123.603V181.136H124.659V178.944H126.915V181.136H128.899V182.976H126.915ZM135.502 181.008C136.174 181.008 136.772 181.157 137.294 181.456C137.817 181.744 138.222 182.176 138.51 182.752C138.809 183.317 138.958 184 138.958 184.8V190H136.718V185.104C136.718 184.4 136.542 183.861 136.19 183.488C135.838 183.104 135.358 182.912 134.75 182.912C134.132 182.912 133.641 183.104 133.278 183.488C132.926 183.861 132.75 184.4 132.75 185.104V190H130.51V178.16H132.75V182.24C133.038 181.856 133.422 181.557 133.902 181.344C134.382 181.12 134.916 181.008 135.502 181.008ZM149.328 185.376C149.328 185.696 149.307 185.984 149.264 186.24H142.784C142.838 186.88 143.062 187.381 143.456 187.744C143.851 188.107 144.336 188.288 144.912 188.288C145.744 188.288 146.336 187.931 146.688 187.216H149.104C148.848 188.069 148.358 188.773 147.632 189.328C146.907 189.872 146.016 190.144 144.96 190.144C144.107 190.144 143.339 189.957 142.656 189.584C141.984 189.2 141.456 188.661 141.072 187.968C140.699 187.275 140.512 186.475 140.512 185.568C140.512 184.651 140.699 183.845 141.072 183.152C141.446 182.459 141.968 181.925 142.64 181.552C143.312 181.179 144.086 180.992 144.96 180.992C145.803 180.992 146.555 181.173 147.216 181.536C147.888 181.899 148.406 182.416 148.768 183.088C149.142 183.749 149.328 184.512 149.328 185.376ZM147.008 184.736C146.998 184.16 146.79 183.701 146.384 183.36C145.979 183.008 145.483 182.832 144.896 182.832C144.342 182.832 143.872 183.003 143.488 183.344C143.115 183.675 142.886 184.139 142.8 184.736H147.008ZM166.952 178.832V190H164.712V182.736L161.72 190H160.024L157.016 182.736V190H154.776V178.832H157.32L160.872 187.136L164.424 178.832H166.952ZM168.59 185.536C168.59 184.64 168.766 183.845 169.118 183.152C169.481 182.459 169.967 181.925 170.575 181.552C171.193 181.179 171.881 180.992 172.639 180.992C173.3 180.992 173.876 181.125 174.367 181.392C174.868 181.659 175.268 181.995 175.567 182.4V181.136H177.823V190H175.567V188.704C175.279 189.12 174.879 189.467 174.367 189.744C173.865 190.011 173.284 190.144 172.623 190.144C171.876 190.144 171.193 189.952 170.575 189.568C169.967 189.184 169.481 188.645 169.118 187.952C168.766 187.248 168.59 186.443 168.59 185.536ZM175.567 185.568C175.567 185.024 175.46 184.56 175.247 184.176C175.033 183.781 174.745 183.483 174.383 183.28C174.02 183.067 173.631 182.96 173.215 182.96C172.799 182.96 172.415 183.061 172.062 183.264C171.711 183.467 171.423 183.765 171.199 184.16C170.985 184.544 170.879 185.003 170.879 185.536C170.879 186.069 170.985 186.539 171.199 186.944C171.423 187.339 171.711 187.643 172.062 187.856C172.425 188.069 172.809 188.176 173.215 188.176C173.631 188.176 174.02 188.075 174.383 187.872C174.745 187.659 175.033 187.36 175.247 186.976C175.46 186.581 175.567 186.112 175.567 185.568ZM183.402 190.144C182.677 190.144 182.026 190.016 181.45 189.76C180.874 189.493 180.416 189.136 180.074 188.688C179.744 188.24 179.562 187.744 179.53 187.2H181.786C181.829 187.541 181.994 187.824 182.282 188.048C182.581 188.272 182.949 188.384 183.386 188.384C183.813 188.384 184.144 188.299 184.378 188.128C184.624 187.957 184.746 187.739 184.746 187.472C184.746 187.184 184.597 186.971 184.298 186.832C184.01 186.683 183.546 186.523 182.906 186.352C182.245 186.192 181.701 186.027 181.274 185.856C180.858 185.685 180.496 185.424 180.186 185.072C179.888 184.72 179.738 184.245 179.738 183.648C179.738 183.157 179.877 182.709 180.154 182.304C180.442 181.899 180.848 181.579 181.37 181.344C181.904 181.109 182.528 180.992 183.242 180.992C184.298 180.992 185.141 181.259 185.77 181.792C186.4 182.315 186.746 183.024 186.81 183.92H184.666C184.634 183.568 184.485 183.291 184.218 183.088C183.962 182.875 183.616 182.768 183.178 182.768C182.773 182.768 182.458 182.843 182.234 182.992C182.021 183.141 181.914 183.349 181.914 183.616C181.914 183.915 182.064 184.144 182.362 184.304C182.661 184.453 183.125 184.608 183.754 184.768C184.394 184.928 184.922 185.093 185.338 185.264C185.754 185.435 186.112 185.701 186.41 186.064C186.72 186.416 186.88 186.885 186.89 187.472C186.89 187.984 186.746 188.443 186.458 188.848C186.181 189.253 185.776 189.573 185.242 189.808C184.72 190.032 184.106 190.144 183.402 190.144ZM191.337 182.976V187.264C191.337 187.563 191.406 187.781 191.545 187.92C191.694 188.048 191.94 188.112 192.281 188.112H193.321V190H191.913C190.025 190 189.081 189.083 189.081 187.248V182.976H188.025V181.136H189.081V178.944H191.337V181.136H193.321V182.976H191.337ZM203.172 185.376C203.172 185.696 203.151 185.984 203.108 186.24H196.628C196.681 186.88 196.905 187.381 197.3 187.744C197.695 188.107 198.18 188.288 198.756 188.288C199.588 188.288 200.18 187.931 200.532 187.216H202.948C202.692 188.069 202.201 188.773 201.476 189.328C200.751 189.872 199.86 190.144 198.804 190.144C197.951 190.144 197.183 189.957 196.5 189.584C195.828 189.2 195.3 188.661 194.916 187.968C194.543 187.275 194.356 186.475 194.356 185.568C194.356 184.651 194.543 183.845 194.916 183.152C195.289 182.459 195.812 181.925 196.484 181.552C197.156 181.179 197.929 180.992 198.804 180.992C199.647 180.992 200.399 181.173 201.06 181.536C201.732 181.899 202.249 182.416 202.612 183.088C202.985 183.749 203.172 184.512 203.172 185.376ZM200.852 184.736C200.841 184.16 200.633 183.701 200.228 183.36C199.823 183.008 199.327 182.832 198.74 182.832C198.185 182.832 197.716 183.003 197.332 183.344C196.959 183.675 196.729 184.139 196.644 184.736H200.852ZM207.047 182.512C207.335 182.043 207.708 181.675 208.167 181.408C208.636 181.141 209.17 181.008 209.767 181.008V183.36H209.175C208.471 183.36 207.938 183.525 207.575 183.856C207.223 184.187 207.047 184.763 207.047 185.584V190H204.807V181.136H207.047V182.512ZM218.876 178.832V180.64H215.9V190H213.66V180.64H210.684V178.832H218.876ZM219.934 185.536C219.934 184.64 220.11 183.845 220.462 183.152C220.825 182.459 221.31 181.925 221.918 181.552C222.537 181.179 223.225 180.992 223.982 180.992C224.644 180.992 225.22 181.125 225.71 181.392C226.212 181.659 226.612 181.995 226.91 182.4V181.136H229.166V190H226.91V188.704C226.622 189.12 226.222 189.467 225.71 189.744C225.209 190.011 224.628 190.144 223.966 190.144C223.22 190.144 222.537 189.952 221.918 189.568C221.31 189.184 220.825 188.645 220.462 187.952C220.11 187.248 219.934 186.443 219.934 185.536ZM226.91 185.568C226.91 185.024 226.804 184.56 226.59 184.176C226.377 183.781 226.089 183.483 225.726 183.28C225.364 183.067 224.974 182.96 224.558 182.96C224.142 182.96 223.758 183.061 223.406 183.264C223.054 183.467 222.766 183.765 222.542 184.16C222.329 184.544 222.222 185.003 222.222 185.536C222.222 186.069 222.329 186.539 222.542 186.944C222.766 187.339 223.054 187.643 223.406 187.856C223.769 188.069 224.153 188.176 224.558 188.176C224.974 188.176 225.364 188.075 225.726 187.872C226.089 187.659 226.377 187.36 226.59 186.976C226.804 186.581 226.91 186.112 226.91 185.568ZM234.826 180.992C235.487 180.992 236.069 181.125 236.57 181.392C237.071 181.648 237.466 181.984 237.754 182.4V181.136H240.01V190.064C240.01 190.885 239.845 191.616 239.514 192.256C239.183 192.907 238.687 193.419 238.026 193.792C237.365 194.176 236.565 194.368 235.626 194.368C234.367 194.368 233.333 194.075 232.522 193.488C231.722 192.901 231.269 192.101 231.162 191.088H233.386C233.503 191.493 233.754 191.813 234.138 192.048C234.533 192.293 235.007 192.416 235.562 192.416C236.213 192.416 236.741 192.219 237.146 191.824C237.551 191.44 237.754 190.853 237.754 190.064V188.688C237.466 189.104 237.066 189.451 236.554 189.728C236.053 190.005 235.477 190.144 234.826 190.144C234.079 190.144 233.397 189.952 232.778 189.568C232.159 189.184 231.669 188.645 231.306 187.952C230.954 187.248 230.778 186.443 230.778 185.536C230.778 184.64 230.954 183.845 231.306 183.152C231.669 182.459 232.154 181.925 232.762 181.552C233.381 181.179 234.069 180.992 234.826 180.992ZM237.754 185.568C237.754 185.024 237.647 184.56 237.434 184.176C237.221 183.781 236.933 183.483 236.57 183.28C236.207 183.067 235.818 182.96 235.402 182.96C234.986 182.96 234.602 183.061 234.25 183.264C233.898 183.467 233.61 183.765 233.386 184.16C233.173 184.544 233.066 185.003 233.066 185.536C233.066 186.069 233.173 186.539 233.386 186.944C233.61 187.339 233.898 187.643 234.25 187.856C234.613 188.069 234.997 188.176 235.402 188.176C235.818 188.176 236.207 188.075 236.57 187.872C236.933 187.659 237.221 187.36 237.434 186.976C237.647 186.581 237.754 186.112 237.754 185.568ZM245.434 185.536C245.434 184.64 245.61 183.845 245.962 183.152C246.325 182.459 246.81 181.925 247.418 181.552C248.037 181.179 248.725 180.992 249.482 180.992C250.144 180.992 250.72 181.125 251.21 181.392C251.712 181.659 252.112 181.995 252.41 182.4V181.136H254.666V190H252.41V188.704C252.122 189.12 251.722 189.467 251.21 189.744C250.709 190.011 250.128 190.144 249.466 190.144C248.72 190.144 248.037 189.952 247.418 189.568C246.81 189.184 246.325 188.645 245.962 187.952C245.61 187.248 245.434 186.443 245.434 185.536ZM252.41 185.568C252.41 185.024 252.304 184.56 252.09 184.176C251.877 183.781 251.589 183.483 251.226 183.28C250.864 183.067 250.474 182.96 250.058 182.96C249.642 182.96 249.258 183.061 248.906 183.264C248.554 183.467 248.266 183.765 248.042 184.16C247.829 184.544 247.722 185.003 247.722 185.536C247.722 186.069 247.829 186.539 248.042 186.944C248.266 187.339 248.554 187.643 248.906 187.856C249.269 188.069 249.653 188.176 250.058 188.176C250.474 188.176 250.864 188.075 251.226 187.872C251.589 187.659 251.877 187.36 252.09 186.976C252.304 186.581 252.41 186.112 252.41 185.568ZM259.094 182.416C259.382 182.011 259.777 181.675 260.278 181.408C260.79 181.131 261.371 180.992 262.022 180.992C262.779 180.992 263.462 181.179 264.07 181.552C264.689 181.925 265.174 182.459 265.526 183.152C265.889 183.835 266.07 184.629 266.07 185.536C266.07 186.443 265.889 187.248 265.526 187.952C265.174 188.645 264.689 189.184 264.07 189.568C263.462 189.952 262.779 190.144 262.022 190.144C261.371 190.144 260.795 190.011 260.294 189.744C259.803 189.477 259.403 189.141 259.094 188.736V194.224H256.854V181.136H259.094V182.416ZM263.782 185.536C263.782 185.003 263.67 184.544 263.446 184.16C263.233 183.765 262.945 183.467 262.582 183.264C262.23 183.061 261.846 182.96 261.43 182.96C261.025 182.96 260.641 183.067 260.278 183.28C259.926 183.483 259.638 183.781 259.414 184.176C259.201 184.571 259.094 185.035 259.094 185.568C259.094 186.101 259.201 186.565 259.414 186.96C259.638 187.355 259.926 187.659 260.278 187.872C260.641 188.075 261.025 188.176 261.43 188.176C261.846 188.176 262.23 188.069 262.582 187.856C262.945 187.643 263.233 187.339 263.446 186.944C263.67 186.549 263.782 186.08 263.782 185.536ZM269.938 182.416C270.226 182.011 270.62 181.675 271.122 181.408C271.634 181.131 272.215 180.992 272.866 180.992C273.623 180.992 274.306 181.179 274.914 181.552C275.532 181.925 276.018 182.459 276.37 183.152C276.732 183.835 276.914 184.629 276.914 185.536C276.914 186.443 276.732 187.248 276.37 187.952C276.018 188.645 275.532 189.184 274.914 189.568C274.306 189.952 273.623 190.144 272.866 190.144C272.215 190.144 271.639 190.011 271.138 189.744C270.647 189.477 270.247 189.141 269.938 188.736V194.224H267.698V181.136H269.938V182.416ZM274.626 185.536C274.626 185.003 274.514 184.544 274.29 184.16C274.076 183.765 273.788 183.467 273.426 183.264C273.074 183.061 272.69 182.96 272.274 182.96C271.868 182.96 271.484 183.067 271.122 183.28C270.77 183.483 270.482 183.781 270.258 184.176C270.044 184.571 269.938 185.035 269.938 185.568C269.938 186.101 270.044 186.565 270.258 186.96C270.482 187.355 270.77 187.659 271.122 187.872C271.484 188.075 271.868 188.176 272.274 188.176C272.69 188.176 273.074 188.069 273.426 187.856C273.788 187.643 274.076 187.339 274.29 186.944C274.514 186.549 274.626 186.08 274.626 185.536ZM279.134 190.096C278.856 190.096 278.622 190 278.43 189.808C278.238 189.616 278.142 189.381 278.142 189.104C278.142 188.827 278.238 188.592 278.43 188.4C278.622 188.208 278.856 188.112 279.134 188.112C279.4 188.112 279.624 188.208 279.806 188.4C279.998 188.592 280.094 188.827 280.094 189.104C280.094 189.381 279.998 189.616 279.806 189.808C279.624 190 279.4 190.096 279.134 190.096Z" fill="#5C6272"/>
</svg>
