<svg width="313" height="198" viewBox="0 0 313 198" fill="none" xmlns="http://www.w3.org/2000/svg">
<path d="M71.2188 20.248V22.96H64.2348V27.256H69.5868V29.92H64.2348V37H60.8748V20.248H71.2188ZM75.3053 22.12C74.7133 22.12 74.2173 21.936 73.8173 21.568C73.4333 21.184 73.2413 20.712 73.2413 20.152C73.2413 19.592 73.4333 19.128 73.8173 18.76C74.2173 18.376 74.7133 18.184 75.3053 18.184C75.8973 18.184 76.3853 18.376 76.7693 18.76C77.1693 19.128 77.3693 19.592 77.3693 20.152C77.3693 20.712 77.1693 21.184 76.7693 21.568C76.3853 21.936 75.8973 22.12 75.3053 22.12ZM76.9613 23.704V37H73.6013V23.704H76.9613ZM87.649 23.512C89.233 23.512 90.513 24.016 91.489 25.024C92.465 26.016 92.953 27.408 92.953 29.2V37H89.593V29.656C89.593 28.6 89.329 27.792 88.801 27.232C88.273 26.656 87.553 26.368 86.641 26.368C85.713 26.368 84.977 26.656 84.433 27.232C83.905 27.792 83.641 28.6 83.641 29.656V37H80.281V23.704H83.641V25.36C84.089 24.784 84.657 24.336 85.345 24.016C86.049 23.68 86.817 23.512 87.649 23.512ZM95.2842 30.304C95.2842 28.96 95.5482 27.768 96.0762 26.728C96.6202 25.688 97.3562 24.888 98.2842 24.328C99.2122 23.768 100.244 23.488 101.38 23.488C102.244 23.488 103.068 23.68 103.852 24.064C104.636 24.432 105.26 24.928 105.724 25.552V19.24H109.132V37H105.724V35.032C105.308 35.688 104.724 36.216 103.972 36.616C103.22 37.016 102.348 37.216 101.356 37.216C100.236 37.216 99.2122 36.928 98.2842 36.352C97.3562 35.776 96.6202 34.968 96.0762 33.928C95.5482 32.872 95.2842 31.664 95.2842 30.304ZM105.748 30.352C105.748 29.536 105.588 28.84 105.268 28.264C104.948 27.672 104.516 27.224 103.972 26.92C103.428 26.6 102.844 26.44 102.22 26.44C101.596 26.44 101.02 26.592 100.492 26.896C99.9642 27.2 99.5322 27.648 99.1962 28.24C98.8762 28.816 98.7162 29.504 98.7162 30.304C98.7162 31.104 98.8762 31.808 99.1962 32.416C99.5322 33.008 99.9642 33.464 100.492 33.784C101.036 34.104 101.612 34.264 102.22 34.264C102.844 34.264 103.428 34.112 103.972 33.808C104.516 33.488 104.948 33.04 105.268 32.464C105.588 31.872 105.748 31.168 105.748 30.352ZM131.453 20.248L125.789 31.168V37H122.429V31.168L116.741 20.248H120.533L124.133 27.904L127.709 20.248H131.453ZM139.294 37.216C138.014 37.216 136.862 36.936 135.838 36.376C134.814 35.8 134.006 34.992 133.414 33.952C132.838 32.912 132.55 31.712 132.55 30.352C132.55 28.992 132.846 27.792 133.438 26.752C134.046 25.712 134.87 24.912 135.91 24.352C136.95 23.776 138.11 23.488 139.39 23.488C140.67 23.488 141.83 23.776 142.87 24.352C143.91 24.912 144.726 25.712 145.318 26.752C145.926 27.792 146.23 28.992 146.23 30.352C146.23 31.712 145.918 32.912 145.294 33.952C144.686 34.992 143.854 35.8 142.798 36.376C141.758 36.936 140.59 37.216 139.294 37.216ZM139.294 34.288C139.902 34.288 140.47 34.144 140.998 33.856C141.542 33.552 141.974 33.104 142.294 32.512C142.614 31.92 142.774 31.2 142.774 30.352C142.774 29.088 142.438 28.12 141.766 27.448C141.11 26.76 140.302 26.416 139.342 26.416C138.382 26.416 137.574 26.76 136.918 27.448C136.278 28.12 135.958 29.088 135.958 30.352C135.958 31.616 136.27 32.592 136.894 33.28C137.534 33.952 138.334 34.288 139.294 34.288ZM161.247 23.704V37H157.863V35.32C157.431 35.896 156.863 36.352 156.159 36.688C155.471 37.008 154.719 37.168 153.903 37.168C152.863 37.168 151.943 36.952 151.143 36.52C150.343 36.072 149.711 35.424 149.247 34.576C148.799 33.712 148.575 32.688 148.575 31.504V23.704H151.935V31.024C151.935 32.08 152.199 32.896 152.727 33.472C153.255 34.032 153.975 34.312 154.887 34.312C155.815 34.312 156.543 34.032 157.071 33.472C157.599 32.896 157.863 32.08 157.863 31.024V23.704H161.247ZM167.922 25.768C168.354 25.064 168.914 24.512 169.602 24.112C170.306 23.712 171.106 23.512 172.002 23.512V27.04H171.114C170.058 27.04 169.258 27.288 168.714 27.784C168.186 28.28 167.922 29.144 167.922 30.376V37H164.562V23.704H167.922V25.768ZM192.2 25.432C192.2 26.328 191.984 27.168 191.552 27.952C191.136 28.736 190.472 29.368 189.56 29.848C188.664 30.328 187.528 30.568 186.152 30.568H183.344V37H179.984V20.248H186.152C187.448 20.248 188.552 20.472 189.464 20.92C190.376 21.368 191.056 21.984 191.504 22.768C191.968 23.552 192.2 24.44 192.2 25.432ZM186.008 27.856C186.936 27.856 187.624 27.648 188.072 27.232C188.52 26.8 188.744 26.2 188.744 25.432C188.744 23.8 187.832 22.984 186.008 22.984H183.344V27.856H186.008ZM202.074 23.512C203.082 23.512 203.978 23.736 204.762 24.184C205.546 24.616 206.154 25.264 206.586 26.128C207.034 26.976 207.258 28 207.258 29.2V37H203.898V29.656C203.898 28.6 203.634 27.792 203.106 27.232C202.578 26.656 201.858 26.368 200.946 26.368C200.018 26.368 199.282 26.656 198.738 27.232C198.21 27.792 197.946 28.6 197.946 29.656V37H194.586V19.24H197.946V25.36C198.378 24.784 198.954 24.336 199.674 24.016C200.394 23.68 201.194 23.512 202.074 23.512ZM216.357 37.216C215.077 37.216 213.925 36.936 212.901 36.376C211.877 35.8 211.069 34.992 210.477 33.952C209.901 32.912 209.613 31.712 209.613 30.352C209.613 28.992 209.909 27.792 210.501 26.752C211.109 25.712 211.933 24.912 212.973 24.352C214.013 23.776 215.173 23.488 216.453 23.488C217.733 23.488 218.893 23.776 219.933 24.352C220.973 24.912 221.789 25.712 222.381 26.752C222.989 27.792 223.293 28.992 223.293 30.352C223.293 31.712 222.981 32.912 222.357 33.952C221.749 34.992 220.917 35.8 219.861 36.376C218.821 36.936 217.653 37.216 216.357 37.216ZM216.357 34.288C216.965 34.288 217.533 34.144 218.061 33.856C218.605 33.552 219.037 33.104 219.357 32.512C219.677 31.92 219.837 31.2 219.837 30.352C219.837 29.088 219.501 28.12 218.829 27.448C218.173 26.76 217.365 26.416 216.405 26.416C215.445 26.416 214.637 26.76 213.981 27.448C213.341 28.12 213.021 29.088 213.021 30.352C213.021 31.616 213.333 32.592 213.957 33.28C214.597 33.952 215.397 34.288 216.357 34.288ZM233.126 23.512C234.71 23.512 235.99 24.016 236.966 25.024C237.942 26.016 238.43 27.408 238.43 29.2V37H235.07V29.656C235.07 28.6 234.806 27.792 234.278 27.232C233.75 26.656 233.03 26.368 232.118 26.368C231.19 26.368 230.454 26.656 229.91 27.232C229.382 27.792 229.118 28.6 229.118 29.656V37H225.758V23.704H229.118V25.36C229.566 24.784 230.134 24.336 230.822 24.016C231.526 23.68 232.294 23.512 233.126 23.512ZM253.985 30.064C253.985 30.544 253.953 30.976 253.889 31.36H244.169C244.249 32.32 244.585 33.072 245.177 33.616C245.769 34.16 246.497 34.432 247.361 34.432C248.609 34.432 249.497 33.896 250.025 32.824H253.649C253.265 34.104 252.529 35.16 251.441 35.992C250.353 36.808 249.017 37.216 247.433 37.216C246.153 37.216 245.001 36.936 243.977 36.376C242.969 35.8 242.177 34.992 241.601 33.952C241.041 32.912 240.761 31.712 240.761 30.352C240.761 28.976 241.041 27.768 241.601 26.728C242.161 25.688 242.945 24.888 243.953 24.328C244.961 23.768 246.121 23.488 247.433 23.488C248.697 23.488 249.825 23.76 250.817 24.304C251.825 24.848 252.601 25.624 253.145 26.632C253.705 27.624 253.985 28.768 253.985 30.064ZM250.505 29.104C250.489 28.24 250.177 27.552 249.569 27.04C248.961 26.512 248.217 26.248 247.337 26.248C246.505 26.248 245.801 26.504 245.225 27.016C244.665 27.512 244.321 28.208 244.193 29.104H250.505Z" fill="#1E2A39"/>
<path d="M18.938 76.816H22.842V78H17.482V66.848H18.938V76.816ZM28.2123 78.144C27.3909 78.144 26.6443 77.9573 25.9723 77.584C25.3109 77.2107 24.7883 76.6827 24.4043 76C24.0309 75.3067 23.8443 74.5067 23.8443 73.6C23.8443 72.704 24.0363 71.9147 24.4203 71.232C24.8149 70.5387 25.3483 70.0107 26.0203 69.648C26.6923 69.2747 27.4443 69.088 28.2763 69.088C29.1083 69.088 29.8603 69.2747 30.5323 69.648C31.2043 70.0107 31.7323 70.5333 32.1163 71.216C32.5109 71.8987 32.7083 72.6933 32.7083 73.6C32.7083 74.5067 32.5056 75.3067 32.1003 76C31.7056 76.6827 31.1669 77.2107 30.4843 77.584C29.8016 77.9573 29.0443 78.144 28.2123 78.144ZM28.2123 76.864C28.7349 76.864 29.2256 76.7413 29.6843 76.496C30.1429 76.2507 30.5109 75.8827 30.7883 75.392C31.0763 74.9013 31.2203 74.304 31.2203 73.6C31.2203 72.896 31.0816 72.2987 30.8043 71.808C30.5269 71.3173 30.1643 70.9547 29.7163 70.72C29.2683 70.4747 28.7829 70.352 28.2603 70.352C27.7269 70.352 27.2363 70.4747 26.7883 70.72C26.3509 70.9547 25.9989 71.3173 25.7323 71.808C25.4656 72.2987 25.3323 72.896 25.3323 73.6C25.3323 74.3147 25.4603 74.9173 25.7163 75.408C25.9829 75.8987 26.3349 76.2667 26.7723 76.512C27.2096 76.7467 27.6896 76.864 28.2123 76.864ZM37.7266 78.144C37.0546 78.144 36.452 78.032 35.9186 77.808C35.3853 77.5733 34.964 77.2533 34.6546 76.848C34.3453 76.432 34.1746 75.9573 34.1426 75.424H35.6466C35.6893 75.8613 35.892 76.2187 36.2546 76.496C36.628 76.7733 37.1133 76.912 37.7106 76.912C38.2653 76.912 38.7026 76.7893 39.0226 76.544C39.3426 76.2987 39.5026 75.9893 39.5026 75.616C39.5026 75.232 39.332 74.9493 38.9906 74.768C38.6493 74.576 38.1213 74.3893 37.4066 74.208C36.756 74.0373 36.2226 73.8667 35.8066 73.696C35.4013 73.5147 35.0493 73.2533 34.7506 72.912C34.4626 72.56 34.3186 72.1013 34.3186 71.536C34.3186 71.088 34.452 70.6773 34.7186 70.304C34.9853 69.9307 35.364 69.6373 35.8546 69.424C36.3453 69.2 36.9053 69.088 37.5346 69.088C38.5053 69.088 39.2893 69.3333 39.8866 69.824C40.484 70.3147 40.804 70.9867 40.8466 71.84H39.3906C39.3586 71.3813 39.172 71.0133 38.8306 70.736C38.5 70.4587 38.052 70.32 37.4866 70.32C36.964 70.32 36.548 70.432 36.2386 70.656C35.9293 70.88 35.7746 71.1733 35.7746 71.536C35.7746 71.824 35.8653 72.064 36.0466 72.256C36.2386 72.4373 36.4733 72.5867 36.7506 72.704C37.0386 72.8107 37.4333 72.9333 37.9346 73.072C38.564 73.2427 39.076 73.4133 39.4706 73.584C39.8653 73.744 40.2013 73.9893 40.4786 74.32C40.7666 74.6507 40.916 75.0827 40.9266 75.616C40.9266 76.096 40.7933 76.528 40.5266 76.912C40.26 77.296 39.8813 77.6 39.3906 77.824C38.9106 78.0373 38.356 78.144 37.7266 78.144ZM44.758 70.432V75.6C44.758 76.0267 44.8487 76.3307 45.03 76.512C45.2113 76.6827 45.526 76.768 45.974 76.768H47.046V78H45.734C44.9233 78 44.3153 77.8133 43.91 77.44C43.5047 77.0667 43.302 76.4533 43.302 75.6V70.432H42.166V69.232H43.302V67.024H44.758V69.232H47.046V70.432H44.758ZM60.6278 69.232L55.3478 82.128H53.8438L55.5718 77.904L52.0358 69.232H53.6518L56.4038 76.336L59.1238 69.232H60.6278ZM65.9154 78.144C65.094 78.144 64.3474 77.9573 63.6754 77.584C63.014 77.2107 62.4914 76.6827 62.1074 76C61.734 75.3067 61.5474 74.5067 61.5474 73.6C61.5474 72.704 61.7394 71.9147 62.1234 71.232C62.518 70.5387 63.0514 70.0107 63.7234 69.648C64.3954 69.2747 65.1474 69.088 65.9794 69.088C66.8114 69.088 67.5634 69.2747 68.2354 69.648C68.9074 70.0107 69.4354 70.5333 69.8194 71.216C70.214 71.8987 70.4114 72.6933 70.4114 73.6C70.4114 74.5067 70.2087 75.3067 69.8034 76C69.4087 76.6827 68.87 77.2107 68.1874 77.584C67.5047 77.9573 66.7474 78.144 65.9154 78.144ZM65.9154 76.864C66.438 76.864 66.9287 76.7413 67.3874 76.496C67.846 76.2507 68.214 75.8827 68.4914 75.392C68.7794 74.9013 68.9234 74.304 68.9234 73.6C68.9234 72.896 68.7847 72.2987 68.5074 71.808C68.23 71.3173 67.8674 70.9547 67.4194 70.72C66.9714 70.4747 66.486 70.352 65.9634 70.352C65.43 70.352 64.9394 70.4747 64.4914 70.72C64.054 70.9547 63.702 71.3173 63.4354 71.808C63.1687 72.2987 63.0354 72.896 63.0354 73.6C63.0354 74.3147 63.1634 74.9173 63.4194 75.408C63.686 75.8987 64.038 76.2667 64.4754 76.512C64.9127 76.7467 65.3927 76.864 65.9154 76.864ZM80.1018 69.232V78H78.6458V76.704C78.3684 77.152 77.9791 77.504 77.4778 77.76C76.9871 78.0053 76.4431 78.128 75.8458 78.128C75.1631 78.128 74.5498 77.9893 74.0058 77.712C73.4618 77.424 73.0298 76.9973 72.7098 76.432C72.4004 75.8667 72.2458 75.1787 72.2458 74.368V69.232H73.6858V74.176C73.6858 75.04 73.9044 75.7067 74.3418 76.176C74.7791 76.6347 75.3764 76.864 76.1338 76.864C76.9124 76.864 77.5258 76.624 77.9738 76.144C78.4218 75.664 78.6458 74.9653 78.6458 74.048V69.232H80.1018ZM84.0161 70.656C84.2721 70.1547 84.6348 69.7653 85.1041 69.488C85.5841 69.2107 86.1655 69.072 86.8481 69.072V70.576H86.4641C84.8321 70.576 84.0161 71.4613 84.0161 73.232V78H82.5601V69.232H84.0161V70.656ZM94.2505 70.848C94.5385 70.3467 94.9652 69.9307 95.5305 69.6C96.1065 69.2587 96.7732 69.088 97.5305 69.088C98.3092 69.088 99.0132 69.2747 99.6425 69.648C100.282 70.0213 100.784 70.5493 101.147 71.232C101.509 71.904 101.691 72.688 101.691 73.584C101.691 74.4693 101.509 75.2587 101.147 75.952C100.784 76.6453 100.282 77.184 99.6425 77.568C99.0132 77.952 98.3092 78.144 97.5305 78.144C96.7838 78.144 96.1225 77.9787 95.5465 77.648C94.9812 77.3067 94.5492 76.8853 94.2505 76.384V82.16H92.7945V69.232H94.2505V70.848ZM100.203 73.584C100.203 72.9227 100.069 72.3467 99.8025 71.856C99.5358 71.3653 99.1732 70.992 98.7145 70.736C98.2665 70.48 97.7705 70.352 97.2265 70.352C96.6932 70.352 96.1972 70.4853 95.7385 70.752C95.2905 71.008 94.9278 71.3867 94.6505 71.888C94.3838 72.3787 94.2505 72.9493 94.2505 73.6C94.2505 74.2613 94.3838 74.8427 94.6505 75.344C94.9278 75.8347 95.2905 76.2133 95.7385 76.48C96.1972 76.736 96.6932 76.864 97.2265 76.864C97.7705 76.864 98.2665 76.736 98.7145 76.48C99.1732 76.2133 99.5358 75.8347 99.8025 75.344C100.069 74.8427 100.203 74.256 100.203 73.584ZM107.959 69.072C108.62 69.072 109.218 69.216 109.751 69.504C110.284 69.7813 110.7 70.2027 110.999 70.768C111.308 71.3333 111.463 72.0213 111.463 72.832V78H110.023V73.04C110.023 72.1653 109.804 71.4987 109.367 71.04C108.93 70.5707 108.332 70.336 107.575 70.336C106.807 70.336 106.194 70.576 105.735 71.056C105.287 71.536 105.063 72.2347 105.063 73.152V78H103.607V66.16H105.063V70.48C105.351 70.032 105.746 69.6853 106.247 69.44C106.759 69.1947 107.33 69.072 107.959 69.072ZM117.665 78.144C116.844 78.144 116.097 77.9573 115.425 77.584C114.764 77.2107 114.241 76.6827 113.857 76C113.484 75.3067 113.297 74.5067 113.297 73.6C113.297 72.704 113.489 71.9147 113.873 71.232C114.268 70.5387 114.801 70.0107 115.473 69.648C116.145 69.2747 116.897 69.088 117.729 69.088C118.561 69.088 119.313 69.2747 119.985 69.648C120.657 70.0107 121.185 70.5333 121.569 71.216C121.964 71.8987 122.161 72.6933 122.161 73.6C122.161 74.5067 121.959 75.3067 121.553 76C121.159 76.6827 120.62 77.2107 119.937 77.584C119.255 77.9573 118.497 78.144 117.665 78.144ZM117.665 76.864C118.188 76.864 118.679 76.7413 119.137 76.496C119.596 76.2507 119.964 75.8827 120.241 75.392C120.529 74.9013 120.673 74.304 120.673 73.6C120.673 72.896 120.535 72.2987 120.257 71.808C119.98 71.3173 119.617 70.9547 119.169 70.72C118.721 70.4747 118.236 70.352 117.713 70.352C117.18 70.352 116.689 70.4747 116.241 70.72C115.804 70.9547 115.452 71.3173 115.185 71.808C114.919 72.2987 114.785 72.896 114.785 73.6C114.785 74.3147 114.913 74.9173 115.169 75.408C115.436 75.8987 115.788 76.2667 116.225 76.512C116.663 76.7467 117.143 76.864 117.665 76.864ZM128.348 69.072C129.414 69.072 130.278 69.3973 130.94 70.048C131.601 70.688 131.932 71.616 131.932 72.832V78H130.492V73.04C130.492 72.1653 130.273 71.4987 129.836 71.04C129.398 70.5707 128.801 70.336 128.044 70.336C127.276 70.336 126.662 70.576 126.204 71.056C125.756 71.536 125.532 72.2347 125.532 73.152V78H124.076V69.232H125.532V70.48C125.82 70.032 126.209 69.6853 126.7 69.44C127.201 69.1947 127.75 69.072 128.348 69.072ZM142.31 73.28C142.31 73.5573 142.294 73.8507 142.262 74.16H135.254C135.307 75.024 135.601 75.7013 136.134 76.192C136.678 76.672 137.334 76.912 138.102 76.912C138.731 76.912 139.254 76.768 139.67 76.48C140.097 76.1813 140.395 75.7867 140.566 75.296H142.134C141.899 76.1387 141.43 76.8267 140.726 77.36C140.022 77.8827 139.147 78.144 138.102 78.144C137.27 78.144 136.523 77.9573 135.862 77.584C135.211 77.2107 134.699 76.6827 134.326 76C133.953 75.3067 133.766 74.5067 133.766 73.6C133.766 72.6933 133.947 71.8987 134.31 71.216C134.673 70.5333 135.179 70.0107 135.83 69.648C136.491 69.2747 137.249 69.088 138.102 69.088C138.934 69.088 139.67 69.2693 140.31 69.632C140.95 69.9947 141.441 70.496 141.782 71.136C142.134 71.7653 142.31 72.48 142.31 73.28ZM140.806 72.976C140.806 72.4213 140.683 71.9467 140.438 71.552C140.193 71.1467 139.857 70.8427 139.43 70.64C139.014 70.4267 138.55 70.32 138.038 70.32C137.302 70.32 136.673 70.5547 136.15 71.024C135.638 71.4933 135.345 72.144 135.27 72.976H140.806ZM147.08 66.704C148.136 66.704 148.989 67.0027 149.64 67.6C150.291 68.1973 150.616 68.9973 150.616 70C150.616 71.12 150.269 71.952 149.576 72.496C148.883 73.0293 147.944 73.296 146.76 73.296L146.712 74.816H145.448L145.384 72.288H145.848C146.904 72.288 147.731 72.128 148.328 71.808C148.925 71.488 149.224 70.8853 149.224 70C149.224 69.36 149.032 68.8533 148.648 68.48C148.264 68.1067 147.747 67.92 147.096 67.92C146.435 67.92 145.912 68.1013 145.528 68.464C145.155 68.816 144.968 69.3013 144.968 69.92H143.592C143.592 69.28 143.736 68.72 144.024 68.24C144.312 67.7493 144.717 67.3707 145.24 67.104C145.773 66.8373 146.387 66.704 147.08 66.704ZM146.072 78.096C145.795 78.096 145.56 78 145.368 77.808C145.176 77.616 145.08 77.3813 145.08 77.104C145.08 76.8267 145.176 76.592 145.368 76.4C145.56 76.208 145.795 76.112 146.072 76.112C146.339 76.112 146.563 76.208 146.744 76.4C146.936 76.592 147.032 76.8267 147.032 77.104C147.032 77.3813 146.936 77.616 146.744 77.808C146.563 78 146.339 78.096 146.072 78.096ZM168.936 66.832V78H166.696V70.736L163.704 78H162.008L159 70.736V78H156.76V66.832H159.304L162.856 75.136L166.408 66.832H168.936ZM170.575 73.536C170.575 72.64 170.751 71.8453 171.103 71.152C171.466 70.4587 171.951 69.9253 172.559 69.552C173.178 69.1787 173.866 68.992 174.623 68.992C175.284 68.992 175.86 69.1253 176.351 69.392C176.852 69.6587 177.252 69.9947 177.551 70.4V69.136H179.807V78H177.551V76.704C177.263 77.12 176.863 77.4667 176.351 77.744C175.85 78.0107 175.268 78.144 174.607 78.144C173.86 78.144 173.178 77.952 172.559 77.568C171.951 77.184 171.466 76.6453 171.103 75.952C170.751 75.248 170.575 74.4427 170.575 73.536ZM177.551 73.568C177.551 73.024 177.444 72.56 177.231 72.176C177.018 71.7813 176.73 71.4827 176.367 71.28C176.004 71.0667 175.615 70.96 175.199 70.96C174.783 70.96 174.399 71.0613 174.047 71.264C173.695 71.4667 173.407 71.7653 173.183 72.16C172.97 72.544 172.863 73.0027 172.863 73.536C172.863 74.0693 172.97 74.5387 173.183 74.944C173.407 75.3387 173.695 75.6427 174.047 75.856C174.41 76.0693 174.794 76.176 175.199 76.176C175.615 76.176 176.004 76.0747 176.367 75.872C176.73 75.6587 177.018 75.36 177.231 74.976C177.444 74.5813 177.551 74.112 177.551 73.568ZM187.243 78L184.235 74.224V78H181.995V66.16H184.235V72.896L187.211 69.136H190.123L186.219 73.584L190.155 78H187.243ZM199.578 73.376C199.578 73.696 199.557 73.984 199.514 74.24H193.034C193.088 74.88 193.312 75.3813 193.706 75.744C194.101 76.1067 194.586 76.288 195.162 76.288C195.994 76.288 196.586 75.9307 196.938 75.216H199.354C199.098 76.0693 198.608 76.7733 197.882 77.328C197.157 77.872 196.266 78.144 195.21 78.144C194.357 78.144 193.589 77.9573 192.906 77.584C192.234 77.2 191.706 76.6613 191.322 75.968C190.949 75.2747 190.762 74.4747 190.762 73.568C190.762 72.6507 190.949 71.8453 191.322 71.152C191.696 70.4587 192.218 69.9253 192.89 69.552C193.562 69.1787 194.336 68.992 195.21 68.992C196.053 68.992 196.805 69.1733 197.466 69.536C198.138 69.8987 198.656 70.416 199.018 71.088C199.392 71.7493 199.578 72.512 199.578 73.376ZM197.258 72.736C197.248 72.16 197.04 71.7013 196.634 71.36C196.229 71.008 195.733 70.832 195.146 70.832C194.592 70.832 194.122 71.0027 193.738 71.344C193.365 71.6747 193.136 72.1387 193.05 72.736H197.258ZM213.506 69.136L208.018 82.192H205.634L207.554 77.776L204.002 69.136H206.514L208.802 75.328L211.122 69.136H213.506ZM218.649 78.144C217.796 78.144 217.028 77.9573 216.345 77.584C215.663 77.2 215.124 76.6613 214.729 75.968C214.345 75.2747 214.153 74.4747 214.153 73.568C214.153 72.6613 214.351 71.8613 214.745 71.168C215.151 70.4747 215.7 69.9413 216.393 69.568C217.087 69.184 217.86 68.992 218.713 68.992C219.567 68.992 220.34 69.184 221.033 69.568C221.727 69.9413 222.271 70.4747 222.665 71.168C223.071 71.8613 223.273 72.6613 223.273 73.568C223.273 74.4747 223.065 75.2747 222.649 75.968C222.244 76.6613 221.689 77.2 220.985 77.584C220.292 77.9573 219.513 78.144 218.649 78.144ZM218.649 76.192C219.055 76.192 219.433 76.096 219.785 75.904C220.148 75.7013 220.436 75.4027 220.649 75.008C220.863 74.6133 220.969 74.1333 220.969 73.568C220.969 72.7253 220.745 72.08 220.297 71.632C219.86 71.1733 219.321 70.944 218.681 70.944C218.041 70.944 217.503 71.1733 217.065 71.632C216.639 72.08 216.425 72.7253 216.425 73.568C216.425 74.4107 216.633 75.0613 217.049 75.52C217.476 75.968 218.009 76.192 218.649 76.192ZM233.285 69.136V78H231.029V76.88C230.741 77.264 230.362 77.568 229.893 77.792C229.434 78.0053 228.933 78.112 228.389 78.112C227.695 78.112 227.082 77.968 226.549 77.68C226.015 77.3813 225.594 76.9493 225.285 76.384C224.986 75.808 224.837 75.1253 224.837 74.336V69.136H227.077V74.016C227.077 74.72 227.253 75.264 227.605 75.648C227.957 76.0213 228.437 76.208 229.045 76.208C229.663 76.208 230.149 76.0213 230.501 75.648C230.853 75.264 231.029 74.72 231.029 74.016V69.136H233.285ZM237.735 70.512C238.023 70.0427 238.396 69.6747 238.855 69.408C239.324 69.1413 239.857 69.008 240.455 69.008V71.36H239.863C239.159 71.36 238.625 71.5253 238.263 71.856C237.911 72.1867 237.735 72.7627 237.735 73.584V78H235.495V69.136H237.735V70.512ZM248.016 70.416C248.304 70.0107 248.699 69.6747 249.2 69.408C249.712 69.1307 250.293 68.992 250.944 68.992C251.701 68.992 252.384 69.1787 252.992 69.552C253.611 69.9253 254.096 70.4587 254.448 71.152C254.811 71.8347 254.992 72.6293 254.992 73.536C254.992 74.4427 254.811 75.248 254.448 75.952C254.096 76.6453 253.611 77.184 252.992 77.568C252.384 77.952 251.701 78.144 250.944 78.144C250.293 78.144 249.717 78.0107 249.216 77.744C248.725 77.4773 248.325 77.1413 248.016 76.736V82.224H245.776V69.136H248.016V70.416ZM252.704 73.536C252.704 73.0027 252.592 72.544 252.368 72.16C252.155 71.7653 251.867 71.4667 251.504 71.264C251.152 71.0613 250.768 70.96 250.352 70.96C249.947 70.96 249.563 71.0667 249.2 71.28C248.848 71.4827 248.56 71.7813 248.336 72.176C248.123 72.5707 248.016 73.0347 248.016 73.568C248.016 74.1013 248.123 74.5653 248.336 74.96C248.56 75.3547 248.848 75.6587 249.2 75.872C249.563 76.0747 249.947 76.176 250.352 76.176C250.768 76.176 251.152 76.0693 251.504 75.856C251.867 75.6427 252.155 75.3387 252.368 74.944C252.592 74.5493 252.704 74.08 252.704 73.536ZM261.612 69.008C262.284 69.008 262.881 69.1573 263.404 69.456C263.926 69.744 264.332 70.176 264.62 70.752C264.918 71.3173 265.068 72 265.068 72.8V78H262.828V73.104C262.828 72.4 262.652 71.8613 262.3 71.488C261.948 71.104 261.468 70.912 260.86 70.912C260.241 70.912 259.75 71.104 259.388 71.488C259.036 71.8613 258.86 72.4 258.86 73.104V78H256.62V66.16H258.86V70.24C259.148 69.856 259.532 69.5573 260.012 69.344C260.492 69.12 261.025 69.008 261.612 69.008ZM271.134 78.144C270.28 78.144 269.512 77.9573 268.83 77.584C268.147 77.2 267.608 76.6613 267.214 75.968C266.83 75.2747 266.638 74.4747 266.638 73.568C266.638 72.6613 266.835 71.8613 267.23 71.168C267.635 70.4747 268.184 69.9413 268.878 69.568C269.571 69.184 270.344 68.992 271.198 68.992C272.051 68.992 272.824 69.184 273.518 69.568C274.211 69.9413 274.755 70.4747 275.15 71.168C275.555 71.8613 275.758 72.6613 275.758 73.568C275.758 74.4747 275.55 75.2747 275.134 75.968C274.728 76.6613 274.174 77.2 273.47 77.584C272.776 77.9573 271.998 78.144 271.134 78.144ZM271.134 76.192C271.539 76.192 271.918 76.096 272.27 75.904C272.632 75.7013 272.92 75.4027 273.134 75.008C273.347 74.6133 273.454 74.1333 273.454 73.568C273.454 72.7253 273.23 72.08 272.782 71.632C272.344 71.1733 271.806 70.944 271.166 70.944C270.526 70.944 269.987 71.1733 269.55 71.632C269.123 72.08 268.91 72.7253 268.91 73.568C268.91 74.4107 269.118 75.0613 269.534 75.52C269.96 75.968 270.494 76.192 271.134 76.192ZM282.313 69.008C283.369 69.008 284.222 69.344 284.873 70.016C285.524 70.6773 285.849 71.6053 285.849 72.8V78H283.609V73.104C283.609 72.4 283.433 71.8613 283.081 71.488C282.729 71.104 282.249 70.912 281.641 70.912C281.022 70.912 280.532 71.104 280.169 71.488C279.817 71.8613 279.641 72.4 279.641 73.104V78H277.401V69.136H279.641V70.24C279.94 69.856 280.318 69.5573 280.777 69.344C281.246 69.12 281.758 69.008 282.313 69.008ZM296.219 73.376C296.219 73.696 296.198 73.984 296.155 74.24H289.675C289.728 74.88 289.952 75.3813 290.347 75.744C290.742 76.1067 291.227 76.288 291.803 76.288C292.635 76.288 293.227 75.9307 293.579 75.216H295.995C295.739 76.0693 295.248 76.7733 294.523 77.328C293.798 77.872 292.907 78.144 291.851 78.144C290.998 78.144 290.23 77.9573 289.547 77.584C288.875 77.2 288.347 76.6613 287.963 75.968C287.59 75.2747 287.403 74.4747 287.403 73.568C287.403 72.6507 287.59 71.8453 287.963 71.152C288.336 70.4587 288.859 69.9253 289.531 69.552C290.203 69.1787 290.976 68.992 291.851 68.992C292.694 68.992 293.446 69.1733 294.107 69.536C294.779 69.8987 295.296 70.416 295.659 71.088C296.032 71.7493 296.219 72.512 296.219 73.376ZM293.899 72.736C293.888 72.16 293.68 71.7013 293.275 71.36C292.87 71.008 292.374 70.832 291.787 70.832C291.232 70.832 290.763 71.0027 290.379 71.344C290.006 71.6747 289.776 72.1387 289.691 72.736H293.899ZM8.02369 98.512C8.31169 98.0427 8.68502 97.6747 9.14369 97.408C9.61302 97.1413 10.1464 97.008 10.7437 97.008V99.36H10.1517C9.44769 99.36 8.91435 99.5253 8.55169 99.856C8.19969 100.187 8.02369 100.763 8.02369 101.584V106H5.78369V97.136H8.02369V98.512ZM13.3884 96.08C12.9938 96.08 12.6631 95.9573 12.3964 95.712C12.1404 95.456 12.0124 95.1413 12.0124 94.768C12.0124 94.3947 12.1404 94.0853 12.3964 93.84C12.6631 93.584 12.9938 93.456 13.3884 93.456C13.7831 93.456 14.1084 93.584 14.3644 93.84C14.6311 94.0853 14.7644 94.3947 14.7644 94.768C14.7644 95.1413 14.6311 95.456 14.3644 95.712C14.1084 95.9573 13.7831 96.08 13.3884 96.08ZM14.4924 97.136V106H12.2524V97.136H14.4924ZM21.6176 97.008C22.6736 97.008 23.5269 97.344 24.1776 98.016C24.8282 98.6773 25.1536 99.6053 25.1536 100.8V106H22.9136V101.104C22.9136 100.4 22.7376 99.8613 22.3856 99.488C22.0336 99.104 21.5536 98.912 20.9456 98.912C20.3269 98.912 19.8362 99.104 19.4736 99.488C19.1216 99.8613 18.9456 100.4 18.9456 101.104V106H16.7056V97.136H18.9456V98.24C19.2442 97.856 19.6229 97.5573 20.0816 97.344C20.5509 97.12 21.0629 97.008 21.6176 97.008ZM30.7557 96.992C31.417 96.992 31.9984 97.1253 32.4997 97.392C33.001 97.648 33.3957 97.984 33.6837 98.4V97.136H35.9397V106.064C35.9397 106.885 35.7744 107.616 35.4437 108.256C35.113 108.907 34.617 109.419 33.9557 109.792C33.2944 110.176 32.4944 110.368 31.5557 110.368C30.297 110.368 29.2624 110.075 28.4517 109.488C27.6517 108.901 27.1984 108.101 27.0917 107.088H29.3157C29.433 107.493 29.6837 107.813 30.0677 108.048C30.4624 108.293 30.937 108.416 31.4917 108.416C32.1424 108.416 32.6704 108.219 33.0757 107.824C33.481 107.44 33.6837 106.853 33.6837 106.064V104.688C33.3957 105.104 32.9957 105.451 32.4837 105.728C31.9824 106.005 31.4064 106.144 30.7557 106.144C30.009 106.144 29.3264 105.952 28.7077 105.568C28.089 105.184 27.5984 104.645 27.2357 103.952C26.8837 103.248 26.7077 102.443 26.7077 101.536C26.7077 100.64 26.8837 99.8453 27.2357 99.152C27.5984 98.4587 28.0837 97.9253 28.6917 97.552C29.3104 97.1787 29.9984 96.992 30.7557 96.992ZM33.6837 101.568C33.6837 101.024 33.577 100.56 33.3637 100.176C33.1504 99.7813 32.8624 99.4827 32.4997 99.28C32.137 99.0667 31.7477 98.96 31.3317 98.96C30.9157 98.96 30.5317 99.0613 30.1797 99.264C29.8277 99.4667 29.5397 99.7653 29.3157 100.16C29.1024 100.544 28.9957 101.003 28.9957 101.536C28.9957 102.069 29.1024 102.539 29.3157 102.944C29.5397 103.339 29.8277 103.643 30.1797 103.856C30.5424 104.069 30.9264 104.176 31.3317 104.176C31.7477 104.176 32.137 104.075 32.4997 103.872C32.8624 103.659 33.1504 103.36 33.3637 102.976C33.577 102.581 33.6837 102.112 33.6837 101.568ZM44.1799 98.432C44.4679 98.0053 44.8626 97.6587 45.3639 97.392C45.8759 97.1253 46.4573 96.992 47.1079 96.992C47.8653 96.992 48.5479 97.1787 49.1559 97.552C49.7746 97.9253 50.2599 98.4587 50.6119 99.152C50.9746 99.8347 51.1559 100.629 51.1559 101.536C51.1559 102.443 50.9746 103.248 50.6119 103.952C50.2599 104.645 49.7746 105.184 49.1559 105.568C48.5479 105.952 47.8653 106.144 47.1079 106.144C46.4466 106.144 45.8653 106.016 45.3639 105.76C44.8733 105.493 44.4786 105.152 44.1799 104.736V106H41.9399V94.16H44.1799V98.432ZM48.8679 101.536C48.8679 101.003 48.7559 100.544 48.5319 100.16C48.3186 99.7653 48.0306 99.4667 47.6679 99.264C47.3159 99.0613 46.9319 98.96 46.5159 98.96C46.1106 98.96 45.7266 99.0667 45.3639 99.28C45.0119 99.4827 44.7239 99.7813 44.4999 100.176C44.2866 100.571 44.1799 101.035 44.1799 101.568C44.1799 102.101 44.2866 102.565 44.4999 102.96C44.7239 103.355 45.0119 103.659 45.3639 103.872C45.7266 104.075 46.1106 104.176 46.5159 104.176C46.9319 104.176 47.3159 104.069 47.6679 103.856C48.0306 103.643 48.3186 103.339 48.5319 102.944C48.7559 102.549 48.8679 102.08 48.8679 101.536ZM61.2637 97.136L55.7757 110.192H53.3917L55.3117 105.776L51.7597 97.136H54.2717L56.5597 103.328L58.8797 97.136H61.2637ZM74.6517 97.136V106H72.3957V104.88C72.1077 105.264 71.729 105.568 71.2597 105.792C70.801 106.005 70.2997 106.112 69.7557 106.112C69.0624 106.112 68.449 105.968 67.9157 105.68C67.3824 105.381 66.961 104.949 66.6517 104.384C66.353 103.808 66.2037 103.125 66.2037 102.336V97.136H68.4437V102.016C68.4437 102.72 68.6197 103.264 68.9717 103.648C69.3237 104.021 69.8037 104.208 70.4117 104.208C71.0304 104.208 71.5157 104.021 71.8677 103.648C72.2197 103.264 72.3957 102.72 72.3957 102.016V97.136H74.6517ZM80.2538 106.144C79.5285 106.144 78.8778 106.016 78.3018 105.76C77.7258 105.493 77.2671 105.136 76.9258 104.688C76.5951 104.24 76.4138 103.744 76.3818 103.2H78.6378C78.6805 103.541 78.8458 103.824 79.1338 104.048C79.4325 104.272 79.8005 104.384 80.2378 104.384C80.6645 104.384 80.9951 104.299 81.2298 104.128C81.4751 103.957 81.5978 103.739 81.5978 103.472C81.5978 103.184 81.4485 102.971 81.1498 102.832C80.8618 102.683 80.3978 102.523 79.7578 102.352C79.0965 102.192 78.5525 102.027 78.1258 101.856C77.7098 101.685 77.3471 101.424 77.0378 101.072C76.7391 100.72 76.5898 100.245 76.5898 99.648C76.5898 99.1573 76.7285 98.7093 77.0058 98.304C77.2938 97.8987 77.6991 97.5787 78.2218 97.344C78.7551 97.1093 79.3791 96.992 80.0938 96.992C81.1498 96.992 81.9925 97.2587 82.6218 97.792C83.2511 98.3147 83.5978 99.024 83.6618 99.92H81.5178C81.4858 99.568 81.3365 99.2907 81.0698 99.088C80.8138 98.8747 80.4671 98.768 80.0298 98.768C79.6245 98.768 79.3098 98.8427 79.0858 98.992C78.8725 99.1413 78.7658 99.3493 78.7658 99.616C78.7658 99.9147 78.9151 100.144 79.2138 100.304C79.5125 100.453 79.9765 100.608 80.6058 100.768C81.2458 100.928 81.7738 101.093 82.1898 101.264C82.6058 101.435 82.9631 101.701 83.2618 102.064C83.5711 102.416 83.7311 102.885 83.7418 103.472C83.7418 103.984 83.5978 104.443 83.3098 104.848C83.0325 105.253 82.6271 105.573 82.0938 105.808C81.5711 106.032 80.9578 106.144 80.2538 106.144ZM86.7166 96.08C86.3219 96.08 85.9912 95.9573 85.7246 95.712C85.4686 95.456 85.3406 95.1413 85.3406 94.768C85.3406 94.3947 85.4686 94.0853 85.7246 93.84C85.9912 93.584 86.3219 93.456 86.7166 93.456C87.1112 93.456 87.4366 93.584 87.6926 93.84C87.9592 94.0853 88.0926 94.3947 88.0926 94.768C88.0926 95.1413 87.9592 95.456 87.6926 95.712C87.4366 95.9573 87.1112 96.08 86.7166 96.08ZM87.8206 97.136V106H85.5806V97.136H87.8206ZM94.9457 97.008C96.0017 97.008 96.855 97.344 97.5057 98.016C98.1564 98.6773 98.4817 99.6053 98.4817 100.8V106H96.2417V101.104C96.2417 100.4 96.0657 99.8613 95.7137 99.488C95.3617 99.104 94.8817 98.912 94.2737 98.912C93.655 98.912 93.1644 99.104 92.8017 99.488C92.4497 99.8613 92.2737 100.4 92.2737 101.104V106H90.0337V97.136H92.2737V98.24C92.5724 97.856 92.951 97.5573 93.4097 97.344C93.879 97.12 94.391 97.008 94.9457 97.008ZM104.084 96.992C104.745 96.992 105.326 97.1253 105.828 97.392C106.329 97.648 106.724 97.984 107.012 98.4V97.136H109.268V106.064C109.268 106.885 109.102 107.616 108.772 108.256C108.441 108.907 107.945 109.419 107.284 109.792C106.622 110.176 105.822 110.368 104.884 110.368C103.625 110.368 102.59 110.075 101.78 109.488C100.98 108.901 100.526 108.101 100.42 107.088H102.644C102.761 107.493 103.012 107.813 103.396 108.048C103.79 108.293 104.265 108.416 104.82 108.416C105.47 108.416 105.998 108.219 106.404 107.824C106.809 107.44 107.012 106.853 107.012 106.064V104.688C106.724 105.104 106.324 105.451 105.812 105.728C105.31 106.005 104.734 106.144 104.084 106.144C103.337 106.144 102.654 105.952 102.036 105.568C101.417 105.184 100.926 104.645 100.564 103.952C100.212 103.248 100.036 102.443 100.036 101.536C100.036 100.64 100.212 99.8453 100.564 99.152C100.926 98.4587 101.412 97.9253 102.02 97.552C102.638 97.1787 103.326 96.992 104.084 96.992ZM107.012 101.568C107.012 101.024 106.905 100.56 106.692 100.176C106.478 99.7813 106.19 99.4827 105.828 99.28C105.465 99.0667 105.076 98.96 104.66 98.96C104.244 98.96 103.86 99.0613 103.508 99.264C103.156 99.4667 102.868 99.7653 102.644 100.16C102.43 100.544 102.324 101.003 102.324 101.536C102.324 102.069 102.43 102.539 102.644 102.944C102.868 103.339 103.156 103.643 103.508 103.856C103.87 104.069 104.254 104.176 104.66 104.176C105.076 104.176 105.465 104.075 105.828 103.872C106.19 103.659 106.478 103.36 106.692 102.976C106.905 102.581 107.012 102.112 107.012 101.568ZM127.444 94.832V106H125.204V98.736L122.212 106H120.516L117.508 98.736V106H115.268V94.832H117.812L121.364 103.136L124.916 94.832H127.444ZM129.083 101.536C129.083 100.64 129.259 99.8453 129.611 99.152C129.973 98.4587 130.459 97.9253 131.067 97.552C131.685 97.1787 132.373 96.992 133.131 96.992C133.792 96.992 134.368 97.1253 134.859 97.392C135.36 97.6587 135.76 97.9947 136.059 98.4V97.136H138.315V106H136.059V104.704C135.771 105.12 135.371 105.467 134.859 105.744C134.357 106.011 133.776 106.144 133.115 106.144C132.368 106.144 131.685 105.952 131.067 105.568C130.459 105.184 129.973 104.645 129.611 103.952C129.259 103.248 129.083 102.443 129.083 101.536ZM136.059 101.568C136.059 101.024 135.952 100.56 135.739 100.176C135.525 99.7813 135.237 99.4827 134.875 99.28C134.512 99.0667 134.123 98.96 133.707 98.96C133.291 98.96 132.907 99.0613 132.555 99.264C132.203 99.4667 131.915 99.7653 131.691 100.16C131.477 100.544 131.371 101.003 131.371 101.536C131.371 102.069 131.477 102.539 131.691 102.944C131.915 103.339 132.203 103.643 132.555 103.856C132.917 104.069 133.301 104.176 133.707 104.176C134.123 104.176 134.512 104.075 134.875 103.872C135.237 103.659 135.525 103.36 135.739 102.976C135.952 102.581 136.059 102.112 136.059 101.568ZM143.894 106.144C143.169 106.144 142.518 106.016 141.942 105.76C141.366 105.493 140.908 105.136 140.566 104.688C140.236 104.24 140.054 103.744 140.022 103.2H142.278C142.321 103.541 142.486 103.824 142.774 104.048C143.073 104.272 143.441 104.384 143.878 104.384C144.305 104.384 144.636 104.299 144.87 104.128C145.116 103.957 145.238 103.739 145.238 103.472C145.238 103.184 145.089 102.971 144.79 102.832C144.502 102.683 144.038 102.523 143.398 102.352C142.737 102.192 142.193 102.027 141.766 101.856C141.35 101.685 140.988 101.424 140.678 101.072C140.38 100.72 140.23 100.245 140.23 99.648C140.23 99.1573 140.369 98.7093 140.646 98.304C140.934 97.8987 141.34 97.5787 141.862 97.344C142.396 97.1093 143.02 96.992 143.734 96.992C144.79 96.992 145.633 97.2587 146.262 97.792C146.892 98.3147 147.238 99.024 147.302 99.92H145.158C145.126 99.568 144.977 99.2907 144.71 99.088C144.454 98.8747 144.108 98.768 143.67 98.768C143.265 98.768 142.95 98.8427 142.726 98.992C142.513 99.1413 142.406 99.3493 142.406 99.616C142.406 99.9147 142.556 100.144 142.854 100.304C143.153 100.453 143.617 100.608 144.246 100.768C144.886 100.928 145.414 101.093 145.83 101.264C146.246 101.435 146.604 101.701 146.902 102.064C147.212 102.416 147.372 102.885 147.382 103.472C147.382 103.984 147.238 104.443 146.95 104.848C146.673 105.253 146.268 105.573 145.734 105.808C145.212 106.032 144.598 106.144 143.894 106.144ZM151.829 98.976V103.264C151.829 103.563 151.899 103.781 152.037 103.92C152.187 104.048 152.432 104.112 152.773 104.112H153.813V106H152.405C150.517 106 149.573 105.083 149.573 103.248V98.976H148.517V97.136H149.573V94.944H151.829V97.136H153.813V98.976H151.829ZM163.664 101.376C163.664 101.696 163.643 101.984 163.6 102.24H157.12C157.174 102.88 157.398 103.381 157.792 103.744C158.187 104.107 158.672 104.288 159.248 104.288C160.08 104.288 160.672 103.931 161.024 103.216H163.44C163.184 104.069 162.694 104.773 161.968 105.328C161.243 105.872 160.352 106.144 159.296 106.144C158.443 106.144 157.675 105.957 156.992 105.584C156.32 105.2 155.792 104.661 155.408 103.968C155.035 103.275 154.848 102.475 154.848 101.568C154.848 100.651 155.035 99.8453 155.408 99.152C155.782 98.4587 156.304 97.9253 156.976 97.552C157.648 97.1787 158.422 96.992 159.296 96.992C160.139 96.992 160.891 97.1733 161.552 97.536C162.224 97.8987 162.742 98.416 163.104 99.088C163.478 99.7493 163.664 100.512 163.664 101.376ZM161.344 100.736C161.334 100.16 161.126 99.7013 160.72 99.36C160.315 99.008 159.819 98.832 159.232 98.832C158.678 98.832 158.208 99.0027 157.824 99.344C157.451 99.6747 157.222 100.139 157.136 100.736H161.344ZM167.539 98.512C167.827 98.0427 168.201 97.6747 168.659 97.408C169.129 97.1413 169.662 97.008 170.259 97.008V99.36H169.667C168.963 99.36 168.43 99.5253 168.067 99.856C167.715 100.187 167.539 100.763 167.539 101.584V106H165.299V97.136H167.539V98.512ZM179.368 94.832V96.64H176.392V106H174.152V96.64H171.176V94.832H179.368ZM180.426 101.536C180.426 100.64 180.602 99.8453 180.954 99.152C181.317 98.4587 181.802 97.9253 182.41 97.552C183.029 97.1787 183.717 96.992 184.474 96.992C185.136 96.992 185.712 97.1253 186.202 97.392C186.704 97.6587 187.104 97.9947 187.402 98.4V97.136H189.658V106H187.402V104.704C187.114 105.12 186.714 105.467 186.202 105.744C185.701 106.011 185.12 106.144 184.458 106.144C183.712 106.144 183.029 105.952 182.41 105.568C181.802 105.184 181.317 104.645 180.954 103.952C180.602 103.248 180.426 102.443 180.426 101.536ZM187.402 101.568C187.402 101.024 187.296 100.56 187.082 100.176C186.869 99.7813 186.581 99.4827 186.218 99.28C185.856 99.0667 185.466 98.96 185.05 98.96C184.634 98.96 184.25 99.0613 183.898 99.264C183.546 99.4667 183.258 99.7653 183.034 100.16C182.821 100.544 182.714 101.003 182.714 101.536C182.714 102.069 182.821 102.539 183.034 102.944C183.258 103.339 183.546 103.643 183.898 103.856C184.261 104.069 184.645 104.176 185.05 104.176C185.466 104.176 185.856 104.075 186.218 103.872C186.581 103.659 186.869 103.36 187.082 102.976C187.296 102.581 187.402 102.112 187.402 101.568ZM195.318 96.992C195.98 96.992 196.561 97.1253 197.062 97.392C197.564 97.648 197.958 97.984 198.246 98.4V97.136H200.502V106.064C200.502 106.885 200.337 107.616 200.006 108.256C199.676 108.907 199.18 109.419 198.518 109.792C197.857 110.176 197.057 110.368 196.118 110.368C194.86 110.368 193.825 110.075 193.014 109.488C192.214 108.901 191.761 108.101 191.654 107.088H193.878C193.996 107.493 194.246 107.813 194.63 108.048C195.025 108.293 195.5 108.416 196.054 108.416C196.705 108.416 197.233 108.219 197.638 107.824C198.044 107.44 198.246 106.853 198.246 106.064V104.688C197.958 105.104 197.558 105.451 197.046 105.728C196.545 106.005 195.969 106.144 195.318 106.144C194.572 106.144 193.889 105.952 193.27 105.568C192.652 105.184 192.161 104.645 191.798 103.952C191.446 103.248 191.27 102.443 191.27 101.536C191.27 100.64 191.446 99.8453 191.798 99.152C192.161 98.4587 192.646 97.9253 193.254 97.552C193.873 97.1787 194.561 96.992 195.318 96.992ZM198.246 101.568C198.246 101.024 198.14 100.56 197.926 100.176C197.713 99.7813 197.425 99.4827 197.062 99.28C196.7 99.0667 196.31 98.96 195.894 98.96C195.478 98.96 195.094 99.0613 194.742 99.264C194.39 99.4667 194.102 99.7653 193.878 100.16C193.665 100.544 193.558 101.003 193.558 101.536C193.558 102.069 193.665 102.539 193.878 102.944C194.102 103.339 194.39 103.643 194.742 103.856C195.105 104.069 195.489 104.176 195.894 104.176C196.31 104.176 196.7 104.075 197.062 103.872C197.425 103.659 197.713 103.36 197.926 102.976C198.14 102.581 198.246 102.112 198.246 101.568ZM204.322 103.984L202.53 108.288H201.554L202.722 103.984H204.322ZM211.711 94.16V106H210.255V94.16H211.711ZM214.945 95.808C214.668 95.808 214.433 95.712 214.241 95.52C214.049 95.328 213.953 95.0933 213.953 94.816C213.953 94.5387 214.049 94.304 214.241 94.112C214.433 93.92 214.668 93.824 214.945 93.824C215.212 93.824 215.436 93.92 215.617 94.112C215.809 94.304 215.905 94.5387 215.905 94.816C215.905 95.0933 215.809 95.328 215.617 95.52C215.436 95.712 215.212 95.808 214.945 95.808ZM215.649 97.232V106H214.193V97.232H215.649ZM223.026 106L219.586 102.128V106H218.13V94.16H219.586V101.12L222.962 97.232H224.994L220.866 101.6L225.01 106H223.026ZM234.365 101.28C234.365 101.557 234.349 101.851 234.317 102.16H227.309C227.362 103.024 227.655 103.701 228.189 104.192C228.733 104.672 229.389 104.912 230.157 104.912C230.786 104.912 231.309 104.768 231.725 104.48C232.151 104.181 232.45 103.787 232.621 103.296H234.189C233.954 104.139 233.485 104.827 232.781 105.36C232.077 105.883 231.202 106.144 230.157 106.144C229.325 106.144 228.578 105.957 227.917 105.584C227.266 105.211 226.754 104.683 226.381 104C226.007 103.307 225.821 102.507 225.821 101.6C225.821 100.693 226.002 99.8987 226.365 99.216C226.727 98.5333 227.234 98.0107 227.885 97.648C228.546 97.2747 229.303 97.088 230.157 97.088C230.989 97.088 231.725 97.2693 232.365 97.632C233.005 97.9947 233.495 98.496 233.837 99.136C234.189 99.7653 234.365 100.48 234.365 101.28ZM232.861 100.976C232.861 100.421 232.738 99.9467 232.493 99.552C232.247 99.1467 231.911 98.8427 231.485 98.64C231.069 98.4267 230.605 98.32 230.093 98.32C229.357 98.32 228.727 98.5547 228.205 99.024C227.693 99.4933 227.399 100.144 227.325 100.976H232.861ZM242.328 98.432V103.6C242.328 104.027 242.419 104.331 242.6 104.512C242.782 104.683 243.096 104.768 243.544 104.768H244.616V106H243.304C242.494 106 241.886 105.813 241.48 105.44C241.075 105.067 240.872 104.453 240.872 103.6V98.432H239.736V97.232H240.872V95.024H242.328V97.232H244.616V98.432H242.328ZM250.732 97.072C251.394 97.072 251.991 97.216 252.524 97.504C253.058 97.7813 253.474 98.2027 253.772 98.768C254.082 99.3333 254.236 100.021 254.236 100.832V106H252.796V101.04C252.796 100.165 252.578 99.4987 252.14 99.04C251.703 98.5707 251.106 98.336 250.348 98.336C249.58 98.336 248.967 98.576 248.508 99.056C248.06 99.536 247.836 100.235 247.836 101.152V106H246.38V94.16H247.836V98.48C248.124 98.032 248.519 97.6853 249.02 97.44C249.532 97.1947 250.103 97.072 250.732 97.072ZM264.615 101.28C264.615 101.557 264.599 101.851 264.567 102.16H257.559C257.612 103.024 257.905 103.701 258.439 104.192C258.983 104.672 259.639 104.912 260.407 104.912C261.036 104.912 261.559 104.768 261.975 104.48C262.401 104.181 262.7 103.787 262.871 103.296H264.439C264.204 104.139 263.735 104.827 263.031 105.36C262.327 105.883 261.452 106.144 260.407 106.144C259.575 106.144 258.828 105.957 258.167 105.584C257.516 105.211 257.004 104.683 256.631 104C256.257 103.307 256.071 102.507 256.071 101.6C256.071 100.693 256.252 99.8987 256.615 99.216C256.977 98.5333 257.484 98.0107 258.135 97.648C258.796 97.2747 259.553 97.088 260.407 97.088C261.239 97.088 261.975 97.2693 262.615 97.632C263.255 97.9947 263.745 98.496 264.087 99.136C264.439 99.7653 264.615 100.48 264.615 101.28ZM263.111 100.976C263.111 100.421 262.988 99.9467 262.743 99.552C262.497 99.1467 262.161 98.8427 261.735 98.64C261.319 98.4267 260.855 98.32 260.343 98.32C259.607 98.32 258.977 98.5547 258.455 99.024C257.943 99.4933 257.649 100.144 257.575 100.976H263.111ZM274.626 106.144C273.805 106.144 273.058 105.957 272.386 105.584C271.725 105.211 271.202 104.683 270.818 104C270.445 103.307 270.258 102.507 270.258 101.6C270.258 100.704 270.45 99.9147 270.834 99.232C271.229 98.5387 271.762 98.0107 272.434 97.648C273.106 97.2747 273.858 97.088 274.69 97.088C275.522 97.088 276.274 97.2747 276.946 97.648C277.618 98.0107 278.146 98.5333 278.53 99.216C278.925 99.8987 279.122 100.693 279.122 101.6C279.122 102.507 278.92 103.307 278.514 104C278.12 104.683 277.581 105.211 276.898 105.584C276.216 105.957 275.458 106.144 274.626 106.144ZM274.626 104.864C275.149 104.864 275.64 104.741 276.098 104.496C276.557 104.251 276.925 103.883 277.202 103.392C277.49 102.901 277.634 102.304 277.634 101.6C277.634 100.896 277.496 100.299 277.218 99.808C276.941 99.3173 276.578 98.9547 276.13 98.72C275.682 98.4747 275.197 98.352 274.674 98.352C274.141 98.352 273.65 98.4747 273.202 98.72C272.765 98.9547 272.413 99.3173 272.146 99.808C271.88 100.299 271.746 100.896 271.746 101.6C271.746 102.315 271.874 102.917 272.13 103.408C272.397 103.899 272.749 104.267 273.186 104.512C273.624 104.747 274.104 104.864 274.626 104.864ZM285.309 97.072C286.375 97.072 287.239 97.3973 287.901 98.048C288.562 98.688 288.893 99.616 288.893 100.832V106H287.453V101.04C287.453 100.165 287.234 99.4987 286.797 99.04C286.359 98.5707 285.762 98.336 285.005 98.336C284.237 98.336 283.623 98.576 283.165 99.056C282.717 99.536 282.493 100.235 282.493 101.152V106H281.037V97.232H282.493V98.48C282.781 98.032 283.17 97.6853 283.661 97.44C284.162 97.1947 284.711 97.072 285.309 97.072ZM299.271 101.28C299.271 101.557 299.255 101.851 299.223 102.16H292.215C292.268 103.024 292.562 103.701 293.095 104.192C293.639 104.672 294.295 104.912 295.063 104.912C295.692 104.912 296.215 104.768 296.631 104.48C297.058 104.181 297.356 103.787 297.527 103.296H299.095C298.86 104.139 298.391 104.827 297.687 105.36C296.983 105.883 296.108 106.144 295.063 106.144C294.231 106.144 293.484 105.957 292.823 105.584C292.172 105.211 291.66 104.683 291.287 104C290.914 103.307 290.727 102.507 290.727 101.6C290.727 100.693 290.908 99.8987 291.271 99.216C291.634 98.5333 292.14 98.0107 292.791 97.648C293.452 97.2747 294.21 97.088 295.063 97.088C295.895 97.088 296.631 97.2693 297.271 97.632C297.911 97.9947 298.402 98.496 298.743 99.136C299.095 99.7653 299.271 100.48 299.271 101.28ZM297.767 100.976C297.767 100.421 297.644 99.9467 297.399 99.552C297.154 99.1467 296.818 98.8427 296.391 98.64C295.975 98.4267 295.511 98.32 294.999 98.32C294.263 98.32 293.634 98.5547 293.111 99.024C292.599 99.4933 292.306 100.144 292.231 100.976H297.767ZM304.297 106.144C303.625 106.144 303.022 106.032 302.489 105.808C301.956 105.573 301.534 105.253 301.225 104.848C300.916 104.432 300.745 103.957 300.713 103.424H302.217C302.26 103.861 302.462 104.219 302.825 104.496C303.198 104.773 303.684 104.912 304.281 104.912C304.836 104.912 305.273 104.789 305.593 104.544C305.913 104.299 306.073 103.989 306.073 103.616C306.073 103.232 305.902 102.949 305.561 102.768C305.22 102.576 304.692 102.389 303.977 102.208C303.326 102.037 302.793 101.867 302.377 101.696C301.972 101.515 301.62 101.253 301.321 100.912C301.033 100.56 300.889 100.101 300.889 99.536C300.889 99.088 301.022 98.6773 301.289 98.304C301.556 97.9307 301.934 97.6373 302.425 97.424C302.916 97.2 303.476 97.088 304.105 97.088C305.076 97.088 305.86 97.3333 306.457 97.824C307.054 98.3147 307.374 98.9867 307.417 99.84H305.961C305.929 99.3813 305.742 99.0133 305.401 98.736C305.07 98.4587 304.622 98.32 304.057 98.32C303.534 98.32 303.118 98.432 302.809 98.656C302.5 98.88 302.345 99.1733 302.345 99.536C302.345 99.824 302.436 100.064 302.617 100.256C302.809 100.437 303.044 100.587 303.321 100.704C303.609 100.811 304.004 100.933 304.505 101.072C305.134 101.243 305.646 101.413 306.041 101.584C306.436 101.744 306.772 101.989 307.049 102.32C307.337 102.651 307.486 103.083 307.497 103.616C307.497 104.096 307.364 104.528 307.097 104.912C306.83 105.296 306.452 105.6 305.961 105.824C305.481 106.037 304.926 106.144 304.297 106.144ZM35.5404 134.144C34.719 134.144 33.9724 133.957 33.3004 133.584C32.639 133.211 32.1164 132.683 31.7324 132C31.359 131.307 31.1724 130.507 31.1724 129.6C31.1724 128.704 31.3644 127.915 31.7484 127.232C32.143 126.539 32.6764 126.011 33.3484 125.648C34.0204 125.275 34.7724 125.088 35.6044 125.088C36.4364 125.088 37.1884 125.275 37.8604 125.648C38.5324 126.011 39.0604 126.533 39.4444 127.216C39.839 127.899 40.0364 128.693 40.0364 129.6C40.0364 130.507 39.8337 131.307 39.4284 132C39.0337 132.683 38.495 133.211 37.8124 133.584C37.1297 133.957 36.3724 134.144 35.5404 134.144ZM35.5404 132.864C36.063 132.864 36.5537 132.741 37.0124 132.496C37.471 132.251 37.839 131.883 38.1164 131.392C38.4044 130.901 38.5484 130.304 38.5484 129.6C38.5484 128.896 38.4097 128.299 38.1324 127.808C37.855 127.317 37.4924 126.955 37.0444 126.72C36.5964 126.475 36.111 126.352 35.5884 126.352C35.055 126.352 34.5644 126.475 34.1164 126.72C33.679 126.955 33.327 127.317 33.0604 127.808C32.7937 128.299 32.6604 128.896 32.6604 129.6C32.6604 130.315 32.7884 130.917 33.0444 131.408C33.311 131.899 33.663 132.267 34.1004 132.512C34.5377 132.747 35.0177 132.864 35.5404 132.864ZM46.2228 125.072C47.2894 125.072 48.1534 125.397 48.8148 126.048C49.4761 126.688 49.8068 127.616 49.8068 128.832V134H48.3668V129.04C48.3668 128.165 48.1481 127.499 47.7108 127.04C47.2734 126.571 46.6761 126.336 45.9188 126.336C45.1508 126.336 44.5374 126.576 44.0788 127.056C43.6308 127.536 43.4068 128.235 43.4068 129.152V134H41.9508V125.232H43.4068V126.48C43.6948 126.032 44.0841 125.685 44.5748 125.44C45.0761 125.195 45.6254 125.072 46.2228 125.072ZM64.0028 125.232L58.7228 138.128H57.2188L58.9468 133.904L55.4108 125.232H57.0268L59.7788 132.336L62.4988 125.232H64.0028ZM69.2904 134.144C68.469 134.144 67.7224 133.957 67.0504 133.584C66.389 133.211 65.8664 132.683 65.4824 132C65.109 131.307 64.9224 130.507 64.9224 129.6C64.9224 128.704 65.1144 127.915 65.4984 127.232C65.893 126.539 66.4264 126.011 67.0984 125.648C67.7704 125.275 68.5224 125.088 69.3544 125.088C70.1864 125.088 70.9384 125.275 71.6104 125.648C72.2824 126.011 72.8104 126.533 73.1944 127.216C73.589 127.899 73.7864 128.693 73.7864 129.6C73.7864 130.507 73.5837 131.307 73.1784 132C72.7837 132.683 72.245 133.211 71.5624 133.584C70.8797 133.957 70.1224 134.144 69.2904 134.144ZM69.2904 132.864C69.813 132.864 70.3037 132.741 70.7624 132.496C71.221 132.251 71.589 131.883 71.8664 131.392C72.1544 130.901 72.2984 130.304 72.2984 129.6C72.2984 128.896 72.1597 128.299 71.8824 127.808C71.605 127.317 71.2424 126.955 70.7944 126.72C70.3464 126.475 69.861 126.352 69.3384 126.352C68.805 126.352 68.3144 126.475 67.8664 126.72C67.429 126.955 67.077 127.317 66.8104 127.808C66.5437 128.299 66.4104 128.896 66.4104 129.6C66.4104 130.315 66.5384 130.917 66.7944 131.408C67.061 131.899 67.413 132.267 67.8504 132.512C68.2877 132.747 68.7677 132.864 69.2904 132.864ZM83.4768 125.232V134H82.0208V132.704C81.7434 133.152 81.3541 133.504 80.8528 133.76C80.3621 134.005 79.8181 134.128 79.2208 134.128C78.5381 134.128 77.9248 133.989 77.3808 133.712C76.8368 133.424 76.4048 132.997 76.0848 132.432C75.7754 131.867 75.6208 131.179 75.6208 130.368V125.232H77.0608V130.176C77.0608 131.04 77.2794 131.707 77.7168 132.176C78.1541 132.635 78.7514 132.864 79.5088 132.864C80.2874 132.864 80.9008 132.624 81.3488 132.144C81.7968 131.664 82.0208 130.965 82.0208 130.048V125.232H83.4768ZM87.3911 126.656C87.6471 126.155 88.0098 125.765 88.4791 125.488C88.9591 125.211 89.5405 125.072 90.2231 125.072V126.576H89.8391C88.2071 126.576 87.3911 127.461 87.3911 129.232V134H85.9351V125.232H87.3911V126.656ZM101.066 134L97.6255 130.128V134H96.1695V122.16H97.6255V129.12L101.002 125.232H103.034L98.9055 129.6L103.05 134H101.066ZM112.404 129.28C112.404 129.557 112.388 129.851 112.356 130.16H105.348C105.401 131.024 105.695 131.701 106.228 132.192C106.772 132.672 107.428 132.912 108.196 132.912C108.825 132.912 109.348 132.768 109.764 132.48C110.191 132.181 110.489 131.787 110.66 131.296H112.228C111.993 132.139 111.524 132.827 110.82 133.36C110.116 133.883 109.241 134.144 108.196 134.144C107.364 134.144 106.617 133.957 105.956 133.584C105.305 133.211 104.793 132.683 104.42 132C104.047 131.307 103.86 130.507 103.86 129.6C103.86 128.693 104.041 127.899 104.404 127.216C104.767 126.533 105.273 126.011 105.924 125.648C106.585 125.275 107.343 125.088 108.196 125.088C109.028 125.088 109.764 125.269 110.404 125.632C111.044 125.995 111.535 126.496 111.876 127.136C112.228 127.765 112.404 128.48 112.404 129.28ZM110.9 128.976C110.9 128.421 110.777 127.947 110.532 127.552C110.287 127.147 109.951 126.843 109.524 126.64C109.108 126.427 108.644 126.32 108.132 126.32C107.396 126.32 106.767 126.555 106.244 127.024C105.732 127.493 105.439 128.144 105.364 128.976H110.9ZM121.878 125.232L116.598 138.128H115.094L116.822 133.904L113.286 125.232H114.902L117.654 132.336L120.374 125.232H121.878ZM126.445 134.144C125.773 134.144 125.171 134.032 124.637 133.808C124.104 133.573 123.683 133.253 123.373 132.848C123.064 132.432 122.893 131.957 122.861 131.424H124.365C124.408 131.861 124.611 132.219 124.973 132.496C125.347 132.773 125.832 132.912 126.429 132.912C126.984 132.912 127.421 132.789 127.741 132.544C128.061 132.299 128.221 131.989 128.221 131.616C128.221 131.232 128.051 130.949 127.709 130.768C127.368 130.576 126.84 130.389 126.125 130.208C125.475 130.037 124.941 129.867 124.525 129.696C124.12 129.515 123.768 129.253 123.469 128.912C123.181 128.56 123.037 128.101 123.037 127.536C123.037 127.088 123.171 126.677 123.437 126.304C123.704 125.931 124.083 125.637 124.573 125.424C125.064 125.2 125.624 125.088 126.253 125.088C127.224 125.088 128.008 125.333 128.605 125.824C129.203 126.315 129.523 126.987 129.565 127.84H128.109C128.077 127.381 127.891 127.013 127.549 126.736C127.219 126.459 126.771 126.32 126.205 126.32C125.683 126.32 125.267 126.432 124.957 126.656C124.648 126.88 124.493 127.173 124.493 127.536C124.493 127.824 124.584 128.064 124.765 128.256C124.957 128.437 125.192 128.587 125.469 128.704C125.757 128.811 126.152 128.933 126.653 129.072C127.283 129.243 127.795 129.413 128.189 129.584C128.584 129.744 128.92 129.989 129.197 130.32C129.485 130.651 129.635 131.083 129.645 131.616C129.645 132.096 129.512 132.528 129.245 132.912C128.979 133.296 128.6 133.6 128.109 133.824C127.629 134.037 127.075 134.144 126.445 134.144ZM139.79 134.144C138.969 134.144 138.222 133.957 137.55 133.584C136.889 133.211 136.366 132.683 135.982 132C135.609 131.307 135.422 130.507 135.422 129.6C135.422 128.704 135.614 127.915 135.998 127.232C136.393 126.539 136.926 126.011 137.598 125.648C138.27 125.275 139.022 125.088 139.854 125.088C140.686 125.088 141.438 125.275 142.11 125.648C142.782 126.011 143.31 126.533 143.694 127.216C144.089 127.899 144.286 128.693 144.286 129.6C144.286 130.507 144.084 131.307 143.678 132C143.284 132.683 142.745 133.211 142.062 133.584C141.38 133.957 140.622 134.144 139.79 134.144ZM139.79 132.864C140.313 132.864 140.804 132.741 141.262 132.496C141.721 132.251 142.089 131.883 142.366 131.392C142.654 130.901 142.798 130.304 142.798 129.6C142.798 128.896 142.66 128.299 142.382 127.808C142.105 127.317 141.742 126.955 141.294 126.72C140.846 126.475 140.361 126.352 139.838 126.352C139.305 126.352 138.814 126.475 138.366 126.72C137.929 126.955 137.577 127.317 137.31 127.808C137.044 128.299 136.91 128.896 136.91 129.6C136.91 130.315 137.038 130.917 137.294 131.408C137.561 131.899 137.913 132.267 138.35 132.512C138.788 132.747 139.268 132.864 139.79 132.864ZM147.657 126.656C147.913 126.155 148.275 125.765 148.745 125.488C149.225 125.211 149.806 125.072 150.489 125.072V126.576H150.105C148.473 126.576 147.657 127.461 147.657 129.232V134H146.201V125.232H147.657V126.656ZM168.115 125.232L165.379 134H163.875L161.763 127.04L159.651 134H158.147L155.395 125.232H156.883L158.899 132.592L161.075 125.232H162.563L164.691 132.608L166.675 125.232H168.115ZM169.016 129.584C169.016 128.688 169.197 127.904 169.56 127.232C169.923 126.549 170.419 126.021 171.048 125.648C171.688 125.275 172.397 125.088 173.176 125.088C173.944 125.088 174.611 125.253 175.176 125.584C175.741 125.915 176.163 126.331 176.44 126.832V125.232H177.912V134H176.44V132.368C176.152 132.88 175.72 133.307 175.144 133.648C174.579 133.979 173.917 134.144 173.16 134.144C172.381 134.144 171.677 133.952 171.048 133.568C170.419 133.184 169.923 132.645 169.56 131.952C169.197 131.259 169.016 130.469 169.016 129.584ZM176.44 129.6C176.44 128.939 176.307 128.363 176.04 127.872C175.773 127.381 175.411 127.008 174.952 126.752C174.504 126.485 174.008 126.352 173.464 126.352C172.92 126.352 172.424 126.48 171.976 126.736C171.528 126.992 171.171 127.365 170.904 127.856C170.637 128.347 170.504 128.923 170.504 129.584C170.504 130.256 170.637 130.843 170.904 131.344C171.171 131.835 171.528 132.213 171.976 132.48C172.424 132.736 172.92 132.864 173.464 132.864C174.008 132.864 174.504 132.736 174.952 132.48C175.411 132.213 175.773 131.835 176.04 131.344C176.307 130.843 176.44 130.261 176.44 129.6ZM181.829 122.16V134H180.373V122.16H181.829ZM185.766 122.16V134H184.31V122.16H185.766ZM196.248 129.28C196.248 129.557 196.232 129.851 196.2 130.16H189.192C189.245 131.024 189.538 131.701 190.072 132.192C190.616 132.672 191.272 132.912 192.04 132.912C192.669 132.912 193.192 132.768 193.608 132.48C194.034 132.181 194.333 131.787 194.504 131.296H196.072C195.837 132.139 195.368 132.827 194.664 133.36C193.96 133.883 193.085 134.144 192.04 134.144C191.208 134.144 190.461 133.957 189.8 133.584C189.149 133.211 188.637 132.683 188.264 132C187.89 131.307 187.704 130.507 187.704 129.6C187.704 128.693 187.885 127.899 188.248 127.216C188.61 126.533 189.117 126.011 189.768 125.648C190.429 125.275 191.186 125.088 192.04 125.088C192.872 125.088 193.608 125.269 194.248 125.632C194.888 125.995 195.378 126.496 195.72 127.136C196.072 127.765 196.248 128.48 196.248 129.28ZM194.744 128.976C194.744 128.421 194.621 127.947 194.376 127.552C194.13 127.147 193.794 126.843 193.368 126.64C192.952 126.427 192.488 126.32 191.976 126.32C191.24 126.32 190.61 126.555 190.088 127.024C189.576 127.493 189.282 128.144 189.208 128.976H194.744ZM199.946 126.432V131.6C199.946 132.027 200.036 132.331 200.218 132.512C200.399 132.683 200.714 132.768 201.161 132.768H202.234V134H200.922C200.111 134 199.503 133.813 199.098 133.44C198.692 133.067 198.49 132.453 198.49 131.6V126.432H197.354V125.232H198.49V123.024H199.946V125.232H202.234V126.432H199.946ZM204.462 134.096C204.184 134.096 203.95 134 203.758 133.808C203.566 133.616 203.47 133.381 203.47 133.104C203.47 132.827 203.566 132.592 203.758 132.4C203.95 132.208 204.184 132.112 204.462 132.112C204.728 132.112 204.952 132.208 205.134 132.4C205.326 132.592 205.422 132.827 205.422 133.104C205.422 133.381 205.326 133.616 205.134 133.808C204.952 134 204.728 134.096 204.462 134.096ZM219.079 126.112C219.079 127.04 218.759 127.813 218.119 128.432C217.489 129.04 216.524 129.344 215.223 129.344H213.079V134H211.623V122.848H215.223C216.481 122.848 217.436 123.152 218.087 123.76C218.748 124.368 219.079 125.152 219.079 126.112ZM215.223 128.144C216.033 128.144 216.631 127.968 217.015 127.616C217.399 127.264 217.591 126.763 217.591 126.112C217.591 124.736 216.801 124.048 215.223 124.048H213.079V128.144H215.223ZM222.344 126.656C222.6 126.155 222.963 125.765 223.432 125.488C223.912 125.211 224.494 125.072 225.176 125.072V126.576H224.792C223.16 126.576 222.344 127.461 222.344 129.232V134H220.888V125.232H222.344V126.656ZM234.857 129.28C234.857 129.557 234.841 129.851 234.809 130.16H227.801C227.854 131.024 228.148 131.701 228.681 132.192C229.225 132.672 229.881 132.912 230.649 132.912C231.278 132.912 231.801 132.768 232.217 132.48C232.644 132.181 232.942 131.787 233.113 131.296H234.681C234.446 132.139 233.977 132.827 233.273 133.36C232.569 133.883 231.694 134.144 230.649 134.144C229.817 134.144 229.07 133.957 228.409 133.584C227.758 133.211 227.246 132.683 226.873 132C226.5 131.307 226.313 130.507 226.313 129.6C226.313 128.693 226.494 127.899 226.857 127.216C227.22 126.533 227.726 126.011 228.377 125.648C229.038 125.275 229.796 125.088 230.649 125.088C231.481 125.088 232.217 125.269 232.857 125.632C233.497 125.995 233.988 126.496 234.329 127.136C234.681 127.765 234.857 128.48 234.857 129.28ZM233.353 128.976C233.353 128.421 233.23 127.947 232.985 127.552C232.74 127.147 232.404 126.843 231.977 126.64C231.561 126.427 231.097 126.32 230.585 126.32C229.849 126.32 229.22 126.555 228.697 127.024C228.185 127.493 227.892 128.144 227.817 128.976H233.353ZM239.883 134.144C239.211 134.144 238.608 134.032 238.075 133.808C237.542 133.573 237.12 133.253 236.811 132.848C236.502 132.432 236.331 131.957 236.299 131.424H237.803C237.846 131.861 238.048 132.219 238.411 132.496C238.784 132.773 239.27 132.912 239.867 132.912C240.422 132.912 240.859 132.789 241.179 132.544C241.499 132.299 241.659 131.989 241.659 131.616C241.659 131.232 241.488 130.949 241.147 130.768C240.806 130.576 240.278 130.389 239.563 130.208C238.912 130.037 238.379 129.867 237.963 129.696C237.558 129.515 237.206 129.253 236.907 128.912C236.619 128.56 236.475 128.101 236.475 127.536C236.475 127.088 236.608 126.677 236.875 126.304C237.142 125.931 237.52 125.637 238.011 125.424C238.502 125.2 239.062 125.088 239.691 125.088C240.662 125.088 241.446 125.333 242.043 125.824C242.64 126.315 242.96 126.987 243.003 127.84H241.547C241.515 127.381 241.328 127.013 240.987 126.736C240.656 126.459 240.208 126.32 239.643 126.32C239.12 126.32 238.704 126.432 238.395 126.656C238.086 126.88 237.931 127.173 237.931 127.536C237.931 127.824 238.022 128.064 238.203 128.256C238.395 128.437 238.63 128.587 238.907 128.704C239.195 128.811 239.59 128.933 240.091 129.072C240.72 129.243 241.232 129.413 241.627 129.584C242.022 129.744 242.358 129.989 242.635 130.32C242.923 130.651 243.072 131.083 243.083 131.616C243.083 132.096 242.95 132.528 242.683 132.912C242.416 133.296 242.038 133.6 241.547 133.824C241.067 134.037 240.512 134.144 239.883 134.144ZM248.242 134.144C247.57 134.144 246.968 134.032 246.434 133.808C245.901 133.573 245.48 133.253 245.17 132.848C244.861 132.432 244.69 131.957 244.658 131.424H246.162C246.205 131.861 246.408 132.219 246.77 132.496C247.144 132.773 247.629 132.912 248.226 132.912C248.781 132.912 249.218 132.789 249.538 132.544C249.858 132.299 250.018 131.989 250.018 131.616C250.018 131.232 249.848 130.949 249.506 130.768C249.165 130.576 248.637 130.389 247.922 130.208C247.272 130.037 246.738 129.867 246.322 129.696C245.917 129.515 245.565 129.253 245.266 128.912C244.978 128.56 244.834 128.101 244.834 127.536C244.834 127.088 244.968 126.677 245.234 126.304C245.501 125.931 245.88 125.637 246.37 125.424C246.861 125.2 247.421 125.088 248.05 125.088C249.021 125.088 249.805 125.333 250.402 125.824C251 126.315 251.32 126.987 251.362 127.84H249.906C249.874 127.381 249.688 127.013 249.346 126.736C249.016 126.459 248.568 126.32 248.002 126.32C247.48 126.32 247.064 126.432 246.754 126.656C246.445 126.88 246.29 127.173 246.29 127.536C246.29 127.824 246.381 128.064 246.562 128.256C246.754 128.437 246.989 128.587 247.266 128.704C247.554 128.811 247.949 128.933 248.45 129.072C249.08 129.243 249.592 129.413 249.986 129.584C250.381 129.744 250.717 129.989 250.994 130.32C251.282 130.651 251.432 131.083 251.442 131.616C251.442 132.096 251.309 132.528 251.042 132.912C250.776 133.296 250.397 133.6 249.906 133.824C249.426 134.037 248.872 134.144 248.242 134.144ZM259.539 126.432V131.6C259.539 132.027 259.63 132.331 259.811 132.512C259.993 132.683 260.307 132.768 260.755 132.768H261.827V134H260.515C259.705 134 259.097 133.813 258.691 133.44C258.286 133.067 258.083 132.453 258.083 131.6V126.432H256.947V125.232H258.083V123.024H259.539V125.232H261.827V126.432H259.539ZM267.943 125.072C268.605 125.072 269.202 125.216 269.735 125.504C270.269 125.781 270.685 126.203 270.983 126.768C271.293 127.333 271.447 128.021 271.447 128.832V134H270.007V129.04C270.007 128.165 269.789 127.499 269.351 127.04C268.914 126.571 268.317 126.336 267.559 126.336C266.791 126.336 266.178 126.576 265.719 127.056C265.271 127.536 265.047 128.235 265.047 129.152V134H263.591V122.16H265.047V126.48C265.335 126.032 265.73 125.685 266.231 125.44C266.743 125.195 267.314 125.072 267.943 125.072ZM281.826 129.28C281.826 129.557 281.81 129.851 281.778 130.16H274.77C274.823 131.024 275.116 131.701 275.65 132.192C276.194 132.672 276.85 132.912 277.618 132.912C278.247 132.912 278.77 132.768 279.186 132.48C279.612 132.181 279.911 131.787 280.082 131.296H281.65C281.415 132.139 280.946 132.827 280.242 133.36C279.538 133.883 278.663 134.144 277.618 134.144C276.786 134.144 276.039 133.957 275.378 133.584C274.727 133.211 274.215 132.683 273.842 132C273.468 131.307 273.282 130.507 273.282 129.6C273.282 128.693 273.463 127.899 273.826 127.216C274.188 126.533 274.695 126.011 275.346 125.648C276.007 125.275 276.764 125.088 277.618 125.088C278.45 125.088 279.186 125.269 279.826 125.632C280.466 125.995 280.956 126.496 281.298 127.136C281.65 127.765 281.826 128.48 281.826 129.28ZM280.322 128.976C280.322 128.421 280.199 127.947 279.954 127.552C279.708 127.147 279.372 126.843 278.946 126.64C278.53 126.427 278.066 126.32 277.554 126.32C276.818 126.32 276.188 126.555 275.666 127.024C275.154 127.493 274.86 128.144 274.786 128.976H280.322ZM19.0049 150.928V162H17.5489V153.744L13.8689 162H12.8449L9.14894 153.728V162H7.69294V150.928H9.26094L13.3569 160.08L17.4529 150.928H19.0049ZM20.9302 157.584C20.9302 156.688 21.1115 155.904 21.4742 155.232C21.8369 154.549 22.3329 154.021 22.9622 153.648C23.6022 153.275 24.3115 153.088 25.0902 153.088C25.8582 153.088 26.5249 153.253 27.0902 153.584C27.6555 153.915 28.0769 154.331 28.3542 154.832V153.232H29.8262V162H28.3542V160.368C28.0662 160.88 27.6342 161.307 27.0582 161.648C26.4929 161.979 25.8315 162.144 25.0742 162.144C24.2955 162.144 23.5915 161.952 22.9622 161.568C22.3329 161.184 21.8369 160.645 21.4742 159.952C21.1115 159.259 20.9302 158.469 20.9302 157.584ZM28.3542 157.6C28.3542 156.939 28.2209 156.363 27.9542 155.872C27.6875 155.381 27.3249 155.008 26.8662 154.752C26.4182 154.485 25.9222 154.352 25.3782 154.352C24.8342 154.352 24.3382 154.48 23.8902 154.736C23.4422 154.992 23.0849 155.365 22.8182 155.856C22.5515 156.347 22.4182 156.923 22.4182 157.584C22.4182 158.256 22.5515 158.843 22.8182 159.344C23.0849 159.835 23.4422 160.213 23.8902 160.48C24.3382 160.736 24.8342 160.864 25.3782 160.864C25.9222 160.864 26.4182 160.736 26.8662 160.48C27.3249 160.213 27.6875 159.835 27.9542 159.344C28.2209 158.843 28.3542 158.261 28.3542 157.6ZM35.3907 162.144C34.7187 162.144 34.116 162.032 33.5827 161.808C33.0494 161.573 32.628 161.253 32.3187 160.848C32.0094 160.432 31.8387 159.957 31.8067 159.424H33.3107C33.3534 159.861 33.556 160.219 33.9187 160.496C34.292 160.773 34.7774 160.912 35.3747 160.912C35.9294 160.912 36.3667 160.789 36.6867 160.544C37.0067 160.299 37.1667 159.989 37.1667 159.616C37.1667 159.232 36.996 158.949 36.6547 158.768C36.3134 158.576 35.7854 158.389 35.0707 158.208C34.42 158.037 33.8867 157.867 33.4707 157.696C33.0654 157.515 32.7134 157.253 32.4147 156.912C32.1267 156.56 31.9827 156.101 31.9827 155.536C31.9827 155.088 32.116 154.677 32.3827 154.304C32.6494 153.931 33.028 153.637 33.5187 153.424C34.0094 153.2 34.5694 153.088 35.1987 153.088C36.1694 153.088 36.9534 153.333 37.5507 153.824C38.148 154.315 38.468 154.987 38.5107 155.84H37.0547C37.0227 155.381 36.836 155.013 36.4947 154.736C36.164 154.459 35.716 154.32 35.1507 154.32C34.628 154.32 34.212 154.432 33.9027 154.656C33.5934 154.88 33.4387 155.173 33.4387 155.536C33.4387 155.824 33.5294 156.064 33.7107 156.256C33.9027 156.437 34.1374 156.587 34.4147 156.704C34.7027 156.811 35.0974 156.933 35.5987 157.072C36.228 157.243 36.74 157.413 37.1347 157.584C37.5294 157.744 37.8654 157.989 38.1427 158.32C38.4307 158.651 38.58 159.083 38.5907 159.616C38.5907 160.096 38.4574 160.528 38.1907 160.912C37.924 161.296 37.5454 161.6 37.0547 161.824C36.5747 162.037 36.02 162.144 35.3907 162.144ZM42.4221 154.432V159.6C42.4221 160.027 42.5127 160.331 42.6941 160.512C42.8754 160.683 43.1901 160.768 43.6381 160.768H44.7101V162H43.3981C42.5874 162 41.9794 161.813 41.5741 161.44C41.1687 161.067 40.9661 160.453 40.9661 159.6V154.432H39.8301V153.232H40.9661V151.024H42.4221V153.232H44.7101V154.432H42.4221ZM54.4742 157.28C54.4742 157.557 54.4582 157.851 54.4262 158.16H47.4182C47.4715 159.024 47.7649 159.701 48.2982 160.192C48.8422 160.672 49.4982 160.912 50.2662 160.912C50.8955 160.912 51.4182 160.768 51.8342 160.48C52.2609 160.181 52.5595 159.787 52.7302 159.296H54.2982C54.0635 160.139 53.5942 160.827 52.8902 161.36C52.1862 161.883 51.3115 162.144 50.2662 162.144C49.4342 162.144 48.6875 161.957 48.0262 161.584C47.3755 161.211 46.8635 160.683 46.4902 160C46.1169 159.307 45.9302 158.507 45.9302 157.6C45.9302 156.693 46.1115 155.899 46.4742 155.216C46.8369 154.533 47.3435 154.011 47.9942 153.648C48.6555 153.275 49.4129 153.088 50.2662 153.088C51.0982 153.088 51.8342 153.269 52.4742 153.632C53.1142 153.995 53.6049 154.496 53.9462 155.136C54.2982 155.765 54.4742 156.48 54.4742 157.28ZM52.9702 156.976C52.9702 156.421 52.8475 155.947 52.6022 155.552C52.3569 155.147 52.0209 154.843 51.5942 154.64C51.1782 154.427 50.7142 154.32 50.2022 154.32C49.4662 154.32 48.8369 154.555 48.3142 155.024C47.8022 155.493 47.5089 156.144 47.4342 156.976H52.9702ZM57.8521 154.656C58.1081 154.155 58.4707 153.765 58.9401 153.488C59.4201 153.211 60.0014 153.072 60.6841 153.072V154.576H60.3001C58.6681 154.576 57.8521 155.461 57.8521 157.232V162H56.3961V153.232H57.8521V154.656ZM69.2288 150.848V152.032H66.1888V162H64.7328V152.032H61.6768V150.848H69.2288ZM70.4771 157.584C70.4771 156.688 70.6584 155.904 71.0211 155.232C71.3837 154.549 71.8797 154.021 72.5091 153.648C73.1491 153.275 73.8584 153.088 74.6371 153.088C75.4051 153.088 76.0717 153.253 76.6371 153.584C77.2024 153.915 77.6237 154.331 77.9011 154.832V153.232H79.3731V162H77.9011V160.368C77.6131 160.88 77.1811 161.307 76.6051 161.648C76.0397 161.979 75.3784 162.144 74.6211 162.144C73.8424 162.144 73.1384 161.952 72.5091 161.568C71.8797 161.184 71.3837 160.645 71.0211 159.952C70.6584 159.259 70.4771 158.469 70.4771 157.584ZM77.9011 157.6C77.9011 156.939 77.7677 156.363 77.5011 155.872C77.2344 155.381 76.8717 155.008 76.4131 154.752C75.9651 154.485 75.4691 154.352 74.9251 154.352C74.3811 154.352 73.8851 154.48 73.4371 154.736C72.9891 154.992 72.6317 155.365 72.3651 155.856C72.0984 156.347 71.9651 156.923 71.9651 157.584C71.9651 158.256 72.0984 158.843 72.3651 159.344C72.6317 159.835 72.9891 160.213 73.4371 160.48C73.8851 160.736 74.3811 160.864 74.9251 160.864C75.4691 160.864 75.9651 160.736 76.4131 160.48C76.8717 160.213 77.2344 159.835 77.5011 159.344C77.7677 158.843 77.9011 158.261 77.9011 157.6ZM85.4496 153.088C86.2069 153.088 86.8682 153.253 87.4336 153.584C88.0096 153.915 88.4362 154.331 88.7136 154.832V153.232H90.1856V162.192C90.1856 162.992 90.0149 163.701 89.6736 164.32C89.3322 164.949 88.8416 165.44 88.2016 165.792C87.5722 166.144 86.8362 166.32 85.9936 166.32C84.8416 166.32 83.8816 166.048 83.1136 165.504C82.3456 164.96 81.8922 164.219 81.7536 163.28H83.1936C83.3536 163.813 83.6842 164.24 84.1856 164.56C84.6869 164.891 85.2896 165.056 85.9936 165.056C86.7936 165.056 87.4442 164.805 87.9456 164.304C88.4576 163.803 88.7136 163.099 88.7136 162.192V160.352C88.4256 160.864 87.9989 161.291 87.4336 161.632C86.8682 161.973 86.2069 162.144 85.4496 162.144C84.6709 162.144 83.9616 161.952 83.3216 161.568C82.6922 161.184 82.1962 160.645 81.8336 159.952C81.4709 159.259 81.2896 158.469 81.2896 157.584C81.2896 156.688 81.4709 155.904 81.8336 155.232C82.1962 154.549 82.6922 154.021 83.3216 153.648C83.9616 153.275 84.6709 153.088 85.4496 153.088ZM88.7136 157.6C88.7136 156.939 88.5802 156.363 88.3136 155.872C88.0469 155.381 87.6842 155.008 87.2256 154.752C86.7776 154.485 86.2816 154.352 85.7376 154.352C85.1936 154.352 84.6976 154.48 84.2496 154.736C83.8016 154.992 83.4442 155.365 83.1776 155.856C82.9109 156.347 82.7776 156.923 82.7776 157.584C82.7776 158.256 82.9109 158.843 83.1776 159.344C83.4442 159.835 83.8016 160.213 84.2496 160.48C84.6976 160.736 85.1936 160.864 85.7376 160.864C86.2816 160.864 86.7776 160.736 87.2256 160.48C87.6842 160.213 88.0469 159.835 88.3136 159.344C88.5802 158.843 88.7136 158.261 88.7136 157.6ZM98.3677 154.864C98.6664 154.341 99.1037 153.915 99.6797 153.584C100.256 153.253 100.912 153.088 101.648 153.088C102.437 153.088 103.146 153.275 103.776 153.648C104.405 154.021 104.901 154.549 105.264 155.232C105.626 155.904 105.808 156.688 105.808 157.584C105.808 158.469 105.626 159.259 105.264 159.952C104.901 160.645 104.4 161.184 103.76 161.568C103.13 161.952 102.426 162.144 101.648 162.144C100.89 162.144 100.224 161.979 99.6477 161.648C99.0824 161.317 98.6557 160.896 98.3677 160.384V162H96.9117V150.16H98.3677V154.864ZM104.32 157.584C104.32 156.923 104.186 156.347 103.92 155.856C103.653 155.365 103.29 154.992 102.832 154.736C102.384 154.48 101.888 154.352 101.344 154.352C100.81 154.352 100.314 154.485 99.8557 154.752C99.4077 155.008 99.045 155.387 98.7677 155.888C98.501 156.379 98.3677 156.949 98.3677 157.6C98.3677 158.261 98.501 158.843 98.7677 159.344C99.045 159.835 99.4077 160.213 99.8557 160.48C100.314 160.736 100.81 160.864 101.344 160.864C101.888 160.864 102.384 160.736 102.832 160.48C103.29 160.213 103.653 159.835 103.92 159.344C104.186 158.843 104.32 158.256 104.32 157.584ZM115.5 153.232V162H114.044V160.704C113.767 161.152 113.378 161.504 112.876 161.76C112.386 162.005 111.842 162.128 111.244 162.128C110.562 162.128 109.948 161.989 109.404 161.712C108.86 161.424 108.428 160.997 108.108 160.432C107.799 159.867 107.644 159.179 107.644 158.368V153.232H109.084V158.176C109.084 159.04 109.303 159.707 109.74 160.176C110.178 160.635 110.775 160.864 111.532 160.864C112.311 160.864 112.924 160.624 113.372 160.144C113.82 159.664 114.044 158.965 114.044 158.048V153.232H115.5ZM119.735 154.432V159.6C119.735 160.027 119.825 160.331 120.007 160.512C120.188 160.683 120.503 160.768 120.951 160.768H122.023V162H120.711C119.9 162 119.292 161.813 118.887 161.44C118.481 161.067 118.279 160.453 118.279 159.6V154.432H117.143V153.232H118.279V151.024H119.735V153.232H122.023V154.432H119.735ZM125.563 154.432V159.6C125.563 160.027 125.653 160.331 125.835 160.512C126.016 160.683 126.331 160.768 126.779 160.768H127.851V162H126.539C125.728 162 125.12 161.813 124.715 161.44C124.309 161.067 124.107 160.453 124.107 159.6V154.432H122.971V153.232H124.107V151.024H125.563V153.232H127.851V154.432H125.563ZM133.439 162.144C132.617 162.144 131.871 161.957 131.199 161.584C130.537 161.211 130.015 160.683 129.631 160C129.257 159.307 129.071 158.507 129.071 157.6C129.071 156.704 129.263 155.915 129.647 155.232C130.041 154.539 130.575 154.011 131.247 153.648C131.919 153.275 132.671 153.088 133.503 153.088C134.335 153.088 135.087 153.275 135.759 153.648C136.431 154.011 136.959 154.533 137.343 155.216C137.737 155.899 137.935 156.693 137.935 157.6C137.935 158.507 137.732 159.307 137.327 160C136.932 160.683 136.393 161.211 135.711 161.584C135.028 161.957 134.271 162.144 133.439 162.144ZM133.439 160.864C133.961 160.864 134.452 160.741 134.911 160.496C135.369 160.251 135.737 159.883 136.015 159.392C136.303 158.901 136.447 158.304 136.447 157.6C136.447 156.896 136.308 156.299 136.031 155.808C135.753 155.317 135.391 154.955 134.943 154.72C134.495 154.475 134.009 154.352 133.487 154.352C132.953 154.352 132.463 154.475 132.015 154.72C131.577 154.955 131.225 155.317 130.959 155.808C130.692 156.299 130.559 156.896 130.559 157.6C130.559 158.315 130.687 158.917 130.943 159.408C131.209 159.899 131.561 160.267 131.999 160.512C132.436 160.747 132.916 160.864 133.439 160.864ZM144.121 153.072C145.188 153.072 146.052 153.397 146.713 154.048C147.375 154.688 147.705 155.616 147.705 156.832V162H146.265V157.04C146.265 156.165 146.047 155.499 145.609 155.04C145.172 154.571 144.575 154.336 143.817 154.336C143.049 154.336 142.436 154.576 141.977 155.056C141.529 155.536 141.305 156.235 141.305 157.152V162H139.849V153.232H141.305V154.48C141.593 154.032 141.983 153.685 142.473 153.44C142.975 153.195 143.524 153.072 144.121 153.072ZM156.125 154.432V159.6C156.125 160.027 156.216 160.331 156.397 160.512C156.579 160.683 156.893 160.768 157.341 160.768H158.413V162H157.101C156.291 162 155.683 161.813 155.277 161.44C154.872 161.067 154.669 160.453 154.669 159.6V154.432H153.533V153.232H154.669V151.024H156.125V153.232H158.413V154.432H156.125ZM171.857 153.232L169.121 162H167.617L165.505 155.04L163.393 162H161.889L159.137 153.232H160.625L162.641 160.592L164.817 153.232H166.305L168.433 160.608L170.417 153.232H171.857ZM174.054 151.808C173.777 151.808 173.542 151.712 173.35 151.52C173.158 151.328 173.062 151.093 173.062 150.816C173.062 150.539 173.158 150.304 173.35 150.112C173.542 149.92 173.777 149.824 174.054 149.824C174.321 149.824 174.545 149.92 174.726 150.112C174.918 150.304 175.014 150.539 175.014 150.816C175.014 151.093 174.918 151.328 174.726 151.52C174.545 151.712 174.321 151.808 174.054 151.808ZM174.758 153.232V162H173.302V153.232H174.758ZM176.696 157.6C176.696 156.693 176.877 155.904 177.24 155.232C177.602 154.549 178.104 154.021 178.744 153.648C179.394 153.275 180.136 153.088 180.968 153.088C182.045 153.088 182.93 153.349 183.624 153.872C184.328 154.395 184.792 155.12 185.016 156.048H183.448C183.298 155.515 183.005 155.093 182.568 154.784C182.141 154.475 181.608 154.32 180.968 154.32C180.136 154.32 179.464 154.608 178.952 155.184C178.44 155.749 178.184 156.555 178.184 157.6C178.184 158.656 178.44 159.472 178.952 160.048C179.464 160.624 180.136 160.912 180.968 160.912C181.608 160.912 182.141 160.763 182.568 160.464C182.994 160.165 183.288 159.739 183.448 159.184H185.016C184.781 160.08 184.312 160.8 183.608 161.344C182.904 161.877 182.024 162.144 180.968 162.144C180.136 162.144 179.394 161.957 178.744 161.584C178.104 161.211 177.602 160.683 177.24 160C176.877 159.317 176.696 158.517 176.696 157.6ZM194.959 157.28C194.959 157.557 194.943 157.851 194.911 158.16H187.903C187.956 159.024 188.249 159.701 188.783 160.192C189.327 160.672 189.983 160.912 190.751 160.912C191.38 160.912 191.903 160.768 192.319 160.48C192.745 160.181 193.044 159.787 193.215 159.296H194.783C194.548 160.139 194.079 160.827 193.375 161.36C192.671 161.883 191.796 162.144 190.751 162.144C189.919 162.144 189.172 161.957 188.511 161.584C187.86 161.211 187.348 160.683 186.975 160C186.601 159.307 186.415 158.507 186.415 157.6C186.415 156.693 186.596 155.899 186.959 155.216C187.321 154.533 187.828 154.011 188.479 153.648C189.14 153.275 189.897 153.088 190.751 153.088C191.583 153.088 192.319 153.269 192.959 153.632C193.599 153.995 194.089 154.496 194.431 155.136C194.783 155.765 194.959 156.48 194.959 157.28ZM193.455 156.976C193.455 156.421 193.332 155.947 193.087 155.552C192.841 155.147 192.505 154.843 192.079 154.64C191.663 154.427 191.199 154.32 190.687 154.32C189.951 154.32 189.321 154.555 188.799 155.024C188.287 155.493 187.993 156.144 187.919 156.976H193.455ZM197.344 162.096C197.067 162.096 196.832 162 196.64 161.808C196.448 161.616 196.352 161.381 196.352 161.104C196.352 160.827 196.448 160.592 196.64 160.4C196.832 160.208 197.067 160.112 197.344 160.112C197.611 160.112 197.835 160.208 198.016 160.4C198.208 160.592 198.304 160.827 198.304 161.104C198.304 161.381 198.208 161.616 198.016 161.808C197.835 162 197.611 162.096 197.344 162.096ZM205.961 150.848V162H204.505V150.848H205.961ZM210.219 154.432V159.6C210.219 160.027 210.31 160.331 210.491 160.512C210.672 160.683 210.987 160.768 211.435 160.768H212.507V162H211.195C210.384 162 209.776 161.813 209.371 161.44C208.966 161.067 208.763 160.453 208.763 159.6V154.432H207.627V153.232H208.763V151.024H210.219V153.232H212.507V154.432H210.219ZM230.217 153.232L227.481 162H225.977L223.865 155.04L221.753 162H220.249L217.497 153.232H218.985L221.001 160.592L223.177 153.232H224.665L226.793 160.608L228.777 153.232H230.217ZM235.486 162.144C234.664 162.144 233.918 161.957 233.246 161.584C232.584 161.211 232.062 160.683 231.678 160C231.304 159.307 231.118 158.507 231.118 157.6C231.118 156.704 231.31 155.915 231.694 155.232C232.088 154.539 232.622 154.011 233.294 153.648C233.966 153.275 234.718 153.088 235.55 153.088C236.382 153.088 237.134 153.275 237.806 153.648C238.478 154.011 239.006 154.533 239.39 155.216C239.784 155.899 239.982 156.693 239.982 157.6C239.982 158.507 239.779 159.307 239.374 160C238.979 160.683 238.44 161.211 237.758 161.584C237.075 161.957 236.318 162.144 235.486 162.144ZM235.486 160.864C236.008 160.864 236.499 160.741 236.958 160.496C237.416 160.251 237.784 159.883 238.062 159.392C238.35 158.901 238.494 158.304 238.494 157.6C238.494 156.896 238.355 156.299 238.078 155.808C237.8 155.317 237.438 154.955 236.99 154.72C236.542 154.475 236.056 154.352 235.534 154.352C235 154.352 234.51 154.475 234.062 154.72C233.624 154.955 233.272 155.317 233.006 155.808C232.739 156.299 232.606 156.896 232.606 157.6C232.606 158.315 232.734 158.917 232.99 159.408C233.256 159.899 233.608 160.267 234.046 160.512C234.483 160.747 234.963 160.864 235.486 160.864ZM243.352 154.656C243.608 154.155 243.971 153.765 244.44 153.488C244.92 153.211 245.501 153.072 246.184 153.072V154.576H245.8C244.168 154.576 243.352 155.461 243.352 157.232V162H241.896V153.232H243.352V154.656ZM252.761 162L249.321 158.128V162H247.865V150.16H249.321V157.12L252.697 153.232H254.729L250.601 157.6L254.745 162H252.761ZM259.203 162.144C258.531 162.144 257.929 162.032 257.395 161.808C256.862 161.573 256.441 161.253 256.131 160.848C255.822 160.432 255.651 159.957 255.619 159.424H257.123C257.166 159.861 257.369 160.219 257.731 160.496C258.105 160.773 258.59 160.912 259.187 160.912C259.742 160.912 260.179 160.789 260.499 160.544C260.819 160.299 260.979 159.989 260.979 159.616C260.979 159.232 260.809 158.949 260.467 158.768C260.126 158.576 259.598 158.389 258.883 158.208C258.233 158.037 257.699 157.867 257.283 157.696C256.878 157.515 256.526 157.253 256.227 156.912C255.939 156.56 255.795 156.101 255.795 155.536C255.795 155.088 255.929 154.677 256.195 154.304C256.462 153.931 256.841 153.637 257.331 153.424C257.822 153.2 258.382 153.088 259.011 153.088C259.982 153.088 260.766 153.333 261.363 153.824C261.961 154.315 262.281 154.987 262.323 155.84H260.867C260.835 155.381 260.649 155.013 260.307 154.736C259.977 154.459 259.529 154.32 258.963 154.32C258.441 154.32 258.025 154.432 257.715 154.656C257.406 154.88 257.251 155.173 257.251 155.536C257.251 155.824 257.342 156.064 257.523 156.256C257.715 156.437 257.95 156.587 258.227 156.704C258.515 156.811 258.91 156.933 259.411 157.072C260.041 157.243 260.553 157.413 260.947 157.584C261.342 157.744 261.678 157.989 261.955 158.32C262.243 158.651 262.393 159.083 262.403 159.616C262.403 160.096 262.27 160.528 262.003 160.912C261.737 161.296 261.358 161.6 260.867 161.824C260.387 162.037 259.833 162.144 259.203 162.144ZM276.724 157.28C276.724 157.557 276.708 157.851 276.676 158.16H269.668C269.722 159.024 270.015 159.701 270.548 160.192C271.092 160.672 271.748 160.912 272.516 160.912C273.146 160.912 273.668 160.768 274.084 160.48C274.511 160.181 274.81 159.787 274.98 159.296H276.548C276.314 160.139 275.844 160.827 275.14 161.36C274.436 161.883 273.562 162.144 272.516 162.144C271.684 162.144 270.938 161.957 270.276 161.584C269.626 161.211 269.114 160.683 268.74 160C268.367 159.307 268.18 158.507 268.18 157.6C268.18 156.693 268.362 155.899 268.724 155.216C269.087 154.533 269.594 154.011 270.244 153.648C270.906 153.275 271.663 153.088 272.516 153.088C273.348 153.088 274.084 153.269 274.724 153.632C275.364 153.995 275.855 154.496 276.196 155.136C276.548 155.765 276.724 156.48 276.724 157.28ZM275.22 156.976C275.22 156.421 275.098 155.947 274.852 155.552C274.607 155.147 274.271 154.843 273.844 154.64C273.428 154.427 272.964 154.32 272.452 154.32C271.716 154.32 271.087 154.555 270.564 155.024C270.052 155.493 269.759 156.144 269.684 156.976H275.22ZM281.91 160.656L284.63 153.232H286.182L282.742 162H281.046L277.606 153.232H279.174L281.91 160.656ZM295.615 157.28C295.615 157.557 295.599 157.851 295.567 158.16H288.559C288.612 159.024 288.905 159.701 289.439 160.192C289.983 160.672 290.639 160.912 291.407 160.912C292.036 160.912 292.559 160.768 292.975 160.48C293.401 160.181 293.7 159.787 293.871 159.296H295.439C295.204 160.139 294.735 160.827 294.031 161.36C293.327 161.883 292.452 162.144 291.407 162.144C290.575 162.144 289.828 161.957 289.167 161.584C288.516 161.211 288.004 160.683 287.631 160C287.257 159.307 287.071 158.507 287.071 157.6C287.071 156.693 287.252 155.899 287.615 155.216C287.977 154.533 288.484 154.011 289.135 153.648C289.796 153.275 290.553 153.088 291.407 153.088C292.239 153.088 292.975 153.269 293.615 153.632C294.255 153.995 294.745 154.496 295.087 155.136C295.439 155.765 295.615 156.48 295.615 157.28ZM294.111 156.976C294.111 156.421 293.988 155.947 293.743 155.552C293.497 155.147 293.161 154.843 292.735 154.64C292.319 154.427 291.855 154.32 291.343 154.32C290.607 154.32 289.977 154.555 289.455 155.024C288.943 155.493 288.649 156.144 288.575 156.976H294.111ZM301.809 153.072C302.875 153.072 303.739 153.397 304.401 154.048C305.062 154.688 305.393 155.616 305.393 156.832V162H303.953V157.04C303.953 156.165 303.734 155.499 303.297 155.04C302.859 154.571 302.262 154.336 301.505 154.336C300.737 154.336 300.123 154.576 299.665 155.056C299.217 155.536 298.993 156.235 298.993 157.152V162H297.537V153.232H298.993V154.48C299.281 154.032 299.67 153.685 300.161 153.44C300.662 153.195 301.211 153.072 301.809 153.072ZM60.6012 179.808C60.3239 179.808 60.0892 179.712 59.8972 179.52C59.7052 179.328 59.6092 179.093 59.6092 178.816C59.6092 178.539 59.7052 178.304 59.8972 178.112C60.0892 177.92 60.3239 177.824 60.6012 177.824C60.8679 177.824 61.0919 177.92 61.2732 178.112C61.4652 178.304 61.5612 178.539 61.5612 178.816C61.5612 179.093 61.4652 179.328 61.2732 179.52C61.0919 179.712 60.8679 179.808 60.6012 179.808ZM61.3052 181.232V190H59.8492V181.232H61.3052ZM67.3547 182.432H65.5147V190H64.0587V182.432H62.9227V181.232H64.0587V180.608C64.0587 179.627 64.3094 178.912 64.8107 178.464C65.3227 178.005 66.1387 177.776 67.2587 177.776V178.992C66.6187 178.992 66.1654 179.12 65.8987 179.376C65.6427 179.621 65.5147 180.032 65.5147 180.608V181.232H67.3547V182.432ZM80.8699 181.232L75.5899 194.128H74.0859L75.8139 189.904L72.2779 181.232H73.8939L76.6459 188.336L79.3659 181.232H80.8699ZM86.1576 190.144C85.3362 190.144 84.5896 189.957 83.9176 189.584C83.2562 189.211 82.7336 188.683 82.3496 188C81.9762 187.307 81.7896 186.507 81.7896 185.6C81.7896 184.704 81.9816 183.915 82.3656 183.232C82.7602 182.539 83.2936 182.011 83.9656 181.648C84.6376 181.275 85.3896 181.088 86.2216 181.088C87.0536 181.088 87.8056 181.275 88.4776 181.648C89.1496 182.011 89.6776 182.533 90.0616 183.216C90.4562 183.899 90.6536 184.693 90.6536 185.6C90.6536 186.507 90.4509 187.307 90.0456 188C89.6509 188.683 89.1122 189.211 88.4296 189.584C87.7469 189.957 86.9896 190.144 86.1576 190.144ZM86.1576 188.864C86.6802 188.864 87.1709 188.741 87.6296 188.496C88.0882 188.251 88.4562 187.883 88.7336 187.392C89.0216 186.901 89.1656 186.304 89.1656 185.6C89.1656 184.896 89.0269 184.299 88.7496 183.808C88.4722 183.317 88.1096 182.955 87.6616 182.72C87.2136 182.475 86.7282 182.352 86.2056 182.352C85.6722 182.352 85.1816 182.475 84.7336 182.72C84.2962 182.955 83.9442 183.317 83.6776 183.808C83.4109 184.299 83.2776 184.896 83.2776 185.6C83.2776 186.315 83.4056 186.917 83.6616 187.408C83.9282 187.899 84.2802 188.267 84.7176 188.512C85.1549 188.747 85.6349 188.864 86.1576 188.864ZM100.344 181.232V190H98.8879V188.704C98.6106 189.152 98.2213 189.504 97.7199 189.76C97.2293 190.005 96.6853 190.128 96.0879 190.128C95.4053 190.128 94.7919 189.989 94.2479 189.712C93.7039 189.424 93.2719 188.997 92.9519 188.432C92.6426 187.867 92.4879 187.179 92.4879 186.368V181.232H93.9279V186.176C93.9279 187.04 94.1466 187.707 94.5839 188.176C95.0213 188.635 95.6186 188.864 96.3759 188.864C97.1546 188.864 97.7679 188.624 98.2159 188.144C98.6639 187.664 98.8879 186.965 98.8879 186.048V181.232H100.344ZM104.258 182.656C104.514 182.155 104.877 181.765 105.346 181.488C105.826 181.211 106.408 181.072 107.09 181.072V182.576H106.706C105.074 182.576 104.258 183.461 104.258 185.232V190H102.802V181.232H104.258V182.656ZM114.493 182.848C114.781 182.347 115.207 181.931 115.773 181.6C116.349 181.259 117.015 181.088 117.773 181.088C118.551 181.088 119.255 181.275 119.885 181.648C120.525 182.021 121.026 182.549 121.389 183.232C121.751 183.904 121.933 184.688 121.933 185.584C121.933 186.469 121.751 187.259 121.389 187.952C121.026 188.645 120.525 189.184 119.885 189.568C119.255 189.952 118.551 190.144 117.773 190.144C117.026 190.144 116.365 189.979 115.789 189.648C115.223 189.307 114.791 188.885 114.493 188.384V194.16H113.037V181.232H114.493V182.848ZM120.445 185.584C120.445 184.923 120.311 184.347 120.045 183.856C119.778 183.365 119.415 182.992 118.957 182.736C118.509 182.48 118.013 182.352 117.469 182.352C116.935 182.352 116.439 182.485 115.981 182.752C115.533 183.008 115.17 183.387 114.893 183.888C114.626 184.379 114.493 184.949 114.493 185.6C114.493 186.261 114.626 186.843 114.893 187.344C115.17 187.835 115.533 188.213 115.981 188.48C116.439 188.736 116.935 188.864 117.469 188.864C118.013 188.864 118.509 188.736 118.957 188.48C119.415 188.213 119.778 187.835 120.045 187.344C120.311 186.843 120.445 186.256 120.445 185.584ZM128.201 181.072C128.863 181.072 129.46 181.216 129.993 181.504C130.527 181.781 130.943 182.203 131.241 182.768C131.551 183.333 131.705 184.021 131.705 184.832V190H130.265V185.04C130.265 184.165 130.047 183.499 129.609 183.04C129.172 182.571 128.575 182.336 127.817 182.336C127.049 182.336 126.436 182.576 125.977 183.056C125.529 183.536 125.305 184.235 125.305 185.152V190H123.849V178.16H125.305V182.48C125.593 182.032 125.988 181.685 126.489 181.44C127.001 181.195 127.572 181.072 128.201 181.072ZM137.908 190.144C137.086 190.144 136.34 189.957 135.668 189.584C135.006 189.211 134.484 188.683 134.1 188C133.726 187.307 133.54 186.507 133.54 185.6C133.54 184.704 133.732 183.915 134.116 183.232C134.51 182.539 135.044 182.011 135.716 181.648C136.388 181.275 137.14 181.088 137.972 181.088C138.804 181.088 139.556 181.275 140.228 181.648C140.9 182.011 141.428 182.533 141.812 183.216C142.206 183.899 142.404 184.693 142.404 185.6C142.404 186.507 142.201 187.307 141.796 188C141.401 188.683 140.862 189.211 140.18 189.584C139.497 189.957 138.74 190.144 137.908 190.144ZM137.908 188.864C138.43 188.864 138.921 188.741 139.38 188.496C139.838 188.251 140.206 187.883 140.484 187.392C140.772 186.901 140.916 186.304 140.916 185.6C140.916 184.896 140.777 184.299 140.5 183.808C140.222 183.317 139.86 182.955 139.412 182.72C138.964 182.475 138.478 182.352 137.956 182.352C137.422 182.352 136.932 182.475 136.484 182.72C136.046 182.955 135.694 183.317 135.428 183.808C135.161 184.299 135.028 184.896 135.028 185.6C135.028 186.315 135.156 186.917 135.412 187.408C135.678 187.899 136.03 188.267 136.468 188.512C136.905 188.747 137.385 188.864 137.908 188.864ZM148.59 181.072C149.657 181.072 150.521 181.397 151.182 182.048C151.843 182.688 152.174 183.616 152.174 184.832V190H150.734V185.04C150.734 184.165 150.515 183.499 150.078 183.04C149.641 182.571 149.043 182.336 148.286 182.336C147.518 182.336 146.905 182.576 146.446 183.056C145.998 183.536 145.774 184.235 145.774 185.152V190H144.318V181.232H145.774V182.48C146.062 182.032 146.451 181.685 146.942 181.44C147.443 181.195 147.993 181.072 148.59 181.072ZM162.552 185.28C162.552 185.557 162.536 185.851 162.504 186.16H155.496C155.55 187.024 155.843 187.701 156.376 188.192C156.92 188.672 157.576 188.912 158.344 188.912C158.974 188.912 159.496 188.768 159.912 188.48C160.339 188.181 160.638 187.787 160.808 187.296H162.376C162.142 188.139 161.672 188.827 160.968 189.36C160.264 189.883 159.39 190.144 158.344 190.144C157.512 190.144 156.766 189.957 156.104 189.584C155.454 189.211 154.942 188.683 154.568 188C154.195 187.307 154.008 186.507 154.008 185.6C154.008 184.693 154.19 183.899 154.552 183.216C154.915 182.533 155.422 182.011 156.072 181.648C156.734 181.275 157.491 181.088 158.344 181.088C159.176 181.088 159.912 181.269 160.552 181.632C161.192 181.995 161.683 182.496 162.024 183.136C162.376 183.765 162.552 184.48 162.552 185.28ZM161.048 184.976C161.048 184.421 160.926 183.947 160.68 183.552C160.435 183.147 160.099 182.843 159.672 182.64C159.256 182.427 158.792 182.32 158.28 182.32C157.544 182.32 156.915 182.555 156.392 183.024C155.88 183.493 155.587 184.144 155.512 184.976H161.048ZM169.492 179.808C169.214 179.808 168.98 179.712 168.788 179.52C168.596 179.328 168.5 179.093 168.5 178.816C168.5 178.539 168.596 178.304 168.788 178.112C168.98 177.92 169.214 177.824 169.492 177.824C169.758 177.824 169.982 177.92 170.164 178.112C170.356 178.304 170.452 178.539 170.452 178.816C170.452 179.093 170.356 179.328 170.164 179.52C169.982 179.712 169.758 179.808 169.492 179.808ZM170.196 181.232V190H168.74V181.232H170.196ZM175.781 190.144C175.109 190.144 174.507 190.032 173.973 189.808C173.44 189.573 173.019 189.253 172.709 188.848C172.4 188.432 172.229 187.957 172.197 187.424H173.701C173.744 187.861 173.947 188.219 174.309 188.496C174.683 188.773 175.168 188.912 175.765 188.912C176.32 188.912 176.757 188.789 177.077 188.544C177.397 188.299 177.557 187.989 177.557 187.616C177.557 187.232 177.387 186.949 177.045 186.768C176.704 186.576 176.176 186.389 175.461 186.208C174.811 186.037 174.277 185.867 173.861 185.696C173.456 185.515 173.104 185.253 172.805 184.912C172.517 184.56 172.373 184.101 172.373 183.536C172.373 183.088 172.507 182.677 172.773 182.304C173.04 181.931 173.419 181.637 173.909 181.424C174.4 181.2 174.96 181.088 175.589 181.088C176.56 181.088 177.344 181.333 177.941 181.824C178.539 182.315 178.859 182.987 178.901 183.84H177.445C177.413 183.381 177.227 183.013 176.885 182.736C176.555 182.459 176.107 182.32 175.541 182.32C175.019 182.32 174.603 182.432 174.293 182.656C173.984 182.88 173.829 183.173 173.829 183.536C173.829 183.824 173.92 184.064 174.101 184.256C174.293 184.437 174.528 184.587 174.805 184.704C175.093 184.811 175.488 184.933 175.989 185.072C176.619 185.243 177.131 185.413 177.525 185.584C177.92 185.744 178.256 185.989 178.533 186.32C178.821 186.651 178.971 187.083 178.981 187.616C178.981 188.096 178.848 188.528 178.581 188.912C178.315 189.296 177.936 189.6 177.445 189.824C176.965 190.037 176.411 190.144 175.781 190.144ZM189.126 190.144C188.305 190.144 187.558 189.957 186.886 189.584C186.225 189.211 185.702 188.683 185.318 188C184.945 187.307 184.758 186.507 184.758 185.6C184.758 184.704 184.95 183.915 185.334 183.232C185.729 182.539 186.262 182.011 186.934 181.648C187.606 181.275 188.358 181.088 189.19 181.088C190.022 181.088 190.774 181.275 191.446 181.648C192.118 182.011 192.646 182.533 193.03 183.216C193.425 183.899 193.622 184.693 193.622 185.6C193.622 186.507 193.42 187.307 193.014 188C192.62 188.683 192.081 189.211 191.398 189.584C190.716 189.957 189.958 190.144 189.126 190.144ZM189.126 188.864C189.649 188.864 190.14 188.741 190.598 188.496C191.057 188.251 191.425 187.883 191.702 187.392C191.99 186.901 192.134 186.304 192.134 185.6C192.134 184.896 191.996 184.299 191.718 183.808C191.441 183.317 191.078 182.955 190.63 182.72C190.182 182.475 189.697 182.352 189.174 182.352C188.641 182.352 188.15 182.475 187.702 182.72C187.265 182.955 186.913 183.317 186.646 183.808C186.38 184.299 186.246 184.896 186.246 185.6C186.246 186.315 186.374 186.917 186.63 187.408C186.897 187.899 187.249 188.267 187.686 188.512C188.124 188.747 188.604 188.864 189.126 188.864ZM199.809 181.072C200.875 181.072 201.739 181.397 202.401 182.048C203.062 182.688 203.393 183.616 203.393 184.832V190H201.953V185.04C201.953 184.165 201.734 183.499 201.297 183.04C200.859 182.571 200.262 182.336 199.505 182.336C198.737 182.336 198.123 182.576 197.665 183.056C197.217 183.536 196.993 184.235 196.993 185.152V190H195.537V181.232H196.993V182.48C197.281 182.032 197.67 181.685 198.161 181.44C198.662 181.195 199.211 181.072 199.809 181.072ZM213.141 190.144C212.469 190.144 211.866 190.032 211.333 189.808C210.799 189.573 210.378 189.253 210.069 188.848C209.759 188.432 209.589 187.957 209.557 187.424H211.061C211.103 187.861 211.306 188.219 211.669 188.496C212.042 188.773 212.527 188.912 213.125 188.912C213.679 188.912 214.117 188.789 214.437 188.544C214.757 188.299 214.917 187.989 214.917 187.616C214.917 187.232 214.746 186.949 214.405 186.768C214.063 186.576 213.535 186.389 212.821 186.208C212.17 186.037 211.637 185.867 211.221 185.696C210.815 185.515 210.463 185.253 210.165 184.912C209.877 184.56 209.733 184.101 209.733 183.536C209.733 183.088 209.866 182.677 210.133 182.304C210.399 181.931 210.778 181.637 211.269 181.424C211.759 181.2 212.319 181.088 212.949 181.088C213.919 181.088 214.703 181.333 215.301 181.824C215.898 182.315 216.218 182.987 216.261 183.84H214.805C214.773 183.381 214.586 183.013 214.245 182.736C213.914 182.459 213.466 182.32 212.901 182.32C212.378 182.32 211.962 182.432 211.653 182.656C211.343 182.88 211.189 183.173 211.189 183.536C211.189 183.824 211.279 184.064 211.461 184.256C211.653 184.437 211.887 184.587 212.165 184.704C212.453 184.811 212.847 184.933 213.349 185.072C213.978 185.243 214.49 185.413 214.885 185.584C215.279 185.744 215.615 185.989 215.893 186.32C216.181 186.651 216.33 187.083 216.341 187.616C216.341 188.096 216.207 188.528 215.941 188.912C215.674 189.296 215.295 189.6 214.805 189.824C214.325 190.037 213.77 190.144 213.141 190.144ZM219.148 179.808C218.871 179.808 218.636 179.712 218.444 179.52C218.252 179.328 218.156 179.093 218.156 178.816C218.156 178.539 218.252 178.304 218.444 178.112C218.636 177.92 218.871 177.824 219.148 177.824C219.415 177.824 219.639 177.92 219.82 178.112C220.012 178.304 220.108 178.539 220.108 178.816C220.108 179.093 220.012 179.328 219.82 179.52C219.639 179.712 219.415 179.808 219.148 179.808ZM219.852 181.232V190H218.396V181.232H219.852ZM223.79 178.16V190H222.334V178.16H223.79ZM234.271 185.28C234.271 185.557 234.255 185.851 234.223 186.16H227.215C227.268 187.024 227.562 187.701 228.095 188.192C228.639 188.672 229.295 188.912 230.063 188.912C230.692 188.912 231.215 188.768 231.631 188.48C232.058 188.181 232.356 187.787 232.527 187.296H234.095C233.86 188.139 233.391 188.827 232.687 189.36C231.983 189.883 231.108 190.144 230.063 190.144C229.231 190.144 228.484 189.957 227.823 189.584C227.172 189.211 226.66 188.683 226.287 188C225.914 187.307 225.727 186.507 225.727 185.6C225.727 184.693 225.908 183.899 226.271 183.216C226.634 182.533 227.14 182.011 227.791 181.648C228.452 181.275 229.21 181.088 230.063 181.088C230.895 181.088 231.631 181.269 232.271 181.632C232.911 181.995 233.402 182.496 233.743 183.136C234.095 183.765 234.271 184.48 234.271 185.28ZM232.767 184.976C232.767 184.421 232.644 183.947 232.399 183.552C232.154 183.147 231.818 182.843 231.391 182.64C230.975 182.427 230.511 182.32 229.999 182.32C229.263 182.32 228.634 182.555 228.111 183.024C227.599 183.493 227.306 184.144 227.231 184.976H232.767ZM240.465 181.072C241.532 181.072 242.396 181.397 243.057 182.048C243.718 182.688 244.049 183.616 244.049 184.832V190H242.609V185.04C242.609 184.165 242.39 183.499 241.953 183.04C241.516 182.571 240.918 182.336 240.161 182.336C239.393 182.336 238.78 182.576 238.321 183.056C237.873 183.536 237.649 184.235 237.649 185.152V190H236.193V181.232H237.649V182.48C237.937 182.032 238.326 181.685 238.817 181.44C239.318 181.195 239.868 181.072 240.465 181.072ZM248.203 182.432V187.6C248.203 188.027 248.294 188.331 248.475 188.512C248.657 188.683 248.971 188.768 249.419 188.768H250.491V190H249.179C248.369 190 247.761 189.813 247.355 189.44C246.95 189.067 246.747 188.453 246.747 187.6V182.432H245.611V181.232H246.747V179.024H248.203V181.232H250.491V182.432H248.203ZM252.719 190.096C252.442 190.096 252.207 190 252.015 189.808C251.823 189.616 251.727 189.381 251.727 189.104C251.727 188.827 251.823 188.592 252.015 188.4C252.207 188.208 252.442 188.112 252.719 188.112C252.986 188.112 253.21 188.208 253.391 188.4C253.583 188.592 253.679 188.827 253.679 189.104C253.679 189.381 253.583 189.616 253.391 189.808C253.21 190 252.986 190.096 252.719 190.096Z" fill="#5C6272"/>
</svg>
