<svg width="615" height="88" viewBox="0 0 615 88" fill="none" xmlns="http://www.w3.org/2000/svg">
<path d="M160.961 16.57V41H156.061V30.605H145.596V41H140.696V16.57H145.596V26.615H156.061V16.57H160.961ZM164.524 31.235C164.524 29.275 164.909 27.5367 165.679 26.02C166.472 24.5033 167.534 23.3367 168.864 22.52C170.217 21.7033 171.722 21.295 173.379 21.295C174.825 21.295 176.085 21.5867 177.159 22.17C178.255 22.7533 179.13 23.4883 179.784 24.375V21.61H184.719V41H179.784V38.165C179.154 39.075 178.279 39.8333 177.159 40.44C176.062 41.0233 174.79 41.315 173.344 41.315C171.71 41.315 170.217 40.895 168.864 40.055C167.534 39.215 166.472 38.0367 165.679 36.52C164.909 34.98 164.524 33.2183 164.524 31.235ZM179.784 31.305C179.784 30.115 179.55 29.1 179.084 28.26C178.617 27.3967 177.987 26.7433 177.194 26.3C176.4 25.8333 175.549 25.6 174.639 25.6C173.729 25.6 172.889 25.8217 172.119 26.265C171.349 26.7083 170.719 27.3617 170.229 28.225C169.762 29.065 169.529 30.0683 169.529 31.235C169.529 32.4017 169.762 33.4283 170.229 34.315C170.719 35.1783 171.349 35.8433 172.119 36.31C172.912 36.7767 173.752 37.01 174.639 37.01C175.549 37.01 176.4 36.7883 177.194 36.345C177.987 35.8783 178.617 35.225 179.084 34.385C179.55 33.5217 179.784 32.495 179.784 31.305ZM194.404 24.62C195.034 23.5933 195.851 22.7883 196.854 22.205C197.881 21.6217 199.048 21.33 200.354 21.33V26.475H199.059C197.519 26.475 196.353 26.8367 195.559 27.56C194.789 28.2833 194.404 29.5433 194.404 31.34V41H189.504V21.61H194.404V24.62ZM202.395 31.235C202.395 29.275 202.78 27.5367 203.55 26.02C204.343 24.5033 205.416 23.3367 206.77 22.52C208.123 21.7033 209.628 21.295 211.285 21.295C212.545 21.295 213.746 21.575 214.89 22.135C216.033 22.6717 216.943 23.395 217.62 24.305V15.1H222.59V41H217.62V38.13C217.013 39.0867 216.161 39.8567 215.065 40.44C213.968 41.0233 212.696 41.315 211.25 41.315C209.616 41.315 208.123 40.895 206.77 40.055C205.416 39.215 204.343 38.0367 203.55 36.52C202.78 34.98 202.395 33.2183 202.395 31.235ZM217.655 31.305C217.655 30.115 217.421 29.1 216.955 28.26C216.488 27.3967 215.858 26.7433 215.065 26.3C214.271 25.8333 213.42 25.6 212.51 25.6C211.6 25.6 210.76 25.8217 209.99 26.265C209.22 26.7083 208.59 27.3617 208.1 28.225C207.633 29.065 207.4 30.0683 207.4 31.235C207.4 32.4017 207.633 33.4283 208.1 34.315C208.59 35.1783 209.22 35.8433 209.99 36.31C210.783 36.7767 211.623 37.01 212.51 37.01C213.42 37.01 214.271 36.7883 215.065 36.345C215.858 35.8783 216.488 35.225 216.955 34.385C217.421 33.5217 217.655 32.495 217.655 31.305ZM254.255 21.61L248.585 41H243.3L239.765 27.455L236.23 41H230.91L225.205 21.61H230.175L233.605 36.38L237.315 21.61H242.495L246.135 36.345L249.565 21.61H254.255ZM255.647 31.235C255.647 29.275 256.032 27.5367 256.802 26.02C257.595 24.5033 258.657 23.3367 259.987 22.52C261.34 21.7033 262.845 21.295 264.502 21.295C265.948 21.295 267.208 21.5867 268.282 22.17C269.378 22.7533 270.253 23.4883 270.907 24.375V21.61H275.842V41H270.907V38.165C270.277 39.075 269.402 39.8333 268.282 40.44C267.185 41.0233 265.913 41.315 264.467 41.315C262.833 41.315 261.34 40.895 259.987 40.055C258.657 39.215 257.595 38.0367 256.802 36.52C256.032 34.98 255.647 33.2183 255.647 31.235ZM270.907 31.305C270.907 30.115 270.673 29.1 270.207 28.26C269.74 27.3967 269.11 26.7433 268.317 26.3C267.523 25.8333 266.672 25.6 265.762 25.6C264.852 25.6 264.012 25.8217 263.242 26.265C262.472 26.7083 261.842 27.3617 261.352 28.225C260.885 29.065 260.652 30.0683 260.652 31.235C260.652 32.4017 260.885 33.4283 261.352 34.315C261.842 35.1783 262.472 35.8433 263.242 36.31C264.035 36.7767 264.875 37.01 265.762 37.01C266.672 37.01 267.523 36.7883 268.317 36.345C269.11 35.8783 269.74 35.225 270.207 34.385C270.673 33.5217 270.907 32.495 270.907 31.305ZM285.527 24.62C286.157 23.5933 286.974 22.7883 287.977 22.205C289.004 21.6217 290.171 21.33 291.477 21.33V26.475H290.182C288.642 26.475 287.476 26.8367 286.682 27.56C285.912 28.2833 285.527 29.5433 285.527 31.34V41H280.627V21.61H285.527V24.62ZM312.803 30.885C312.803 31.585 312.756 32.215 312.663 32.775H298.488C298.604 34.175 299.094 35.2717 299.958 36.065C300.821 36.8583 301.883 37.255 303.143 37.255C304.963 37.255 306.258 36.4733 307.028 34.91H312.313C311.753 36.7767 310.679 38.3167 309.093 39.53C307.506 40.72 305.558 41.315 303.248 41.315C301.381 41.315 299.701 40.9067 298.208 40.09C296.738 39.25 295.583 38.0717 294.743 36.555C293.926 35.0383 293.518 33.2883 293.518 31.305C293.518 29.2983 293.926 27.5367 294.743 26.02C295.559 24.5033 296.703 23.3367 298.173 22.52C299.643 21.7033 301.334 21.295 303.248 21.295C305.091 21.295 306.736 21.6917 308.183 22.485C309.653 23.2783 310.784 24.41 311.578 25.88C312.394 27.3267 312.803 28.995 312.803 30.885ZM307.728 29.485C307.704 28.225 307.249 27.2217 306.363 26.475C305.476 25.705 304.391 25.32 303.108 25.32C301.894 25.32 300.868 25.6933 300.028 26.44C299.211 27.1633 298.709 28.1783 298.523 29.485H307.728ZM339.804 16.57V20.525H329.619V26.79H337.424V30.675H329.619V41H324.719V16.57H339.804ZM361.304 30.885C361.304 31.585 361.257 32.215 361.164 32.775H346.989C347.105 34.175 347.595 35.2717 348.459 36.065C349.322 36.8583 350.384 37.255 351.644 37.255C353.464 37.255 354.759 36.4733 355.529 34.91H360.814C360.254 36.7767 359.18 38.3167 357.594 39.53C356.007 40.72 354.059 41.315 351.749 41.315C349.882 41.315 348.202 40.9067 346.709 40.09C345.239 39.25 344.084 38.0717 343.244 36.555C342.427 35.0383 342.019 33.2883 342.019 31.305C342.019 29.2983 342.427 27.5367 343.244 26.02C344.06 24.5033 345.204 23.3367 346.674 22.52C348.144 21.7033 349.835 21.295 351.749 21.295C353.592 21.295 355.237 21.6917 356.684 22.485C358.154 23.2783 359.285 24.41 360.079 25.88C360.895 27.3267 361.304 28.995 361.304 30.885ZM356.229 29.485C356.205 28.225 355.75 27.2217 354.864 26.475C353.977 25.705 352.892 25.32 351.609 25.32C350.395 25.32 349.369 25.6933 348.529 26.44C347.712 27.1633 347.21 28.1783 347.024 29.485H356.229ZM363.62 31.235C363.62 29.275 364.005 27.5367 364.775 26.02C365.569 24.5033 366.63 23.3367 367.96 22.52C369.314 21.7033 370.819 21.295 372.475 21.295C373.922 21.295 375.182 21.5867 376.255 22.17C377.352 22.7533 378.227 23.4883 378.88 24.375V21.61H383.815V41H378.88V38.165C378.25 39.075 377.375 39.8333 376.255 40.44C375.159 41.0233 373.887 41.315 372.44 41.315C370.807 41.315 369.314 40.895 367.96 40.055C366.63 39.215 365.569 38.0367 364.775 36.52C364.005 34.98 363.62 33.2183 363.62 31.235ZM378.88 31.305C378.88 30.115 378.647 29.1 378.18 28.26C377.714 27.3967 377.084 26.7433 376.29 26.3C375.497 25.8333 374.645 25.6 373.735 25.6C372.825 25.6 371.985 25.8217 371.215 26.265C370.445 26.7083 369.815 27.3617 369.325 28.225C368.859 29.065 368.625 30.0683 368.625 31.235C368.625 32.4017 368.859 33.4283 369.325 34.315C369.815 35.1783 370.445 35.8433 371.215 36.31C372.009 36.7767 372.849 37.01 373.735 37.01C374.645 37.01 375.497 36.7883 376.29 36.345C377.084 35.8783 377.714 35.225 378.18 34.385C378.647 33.5217 378.88 32.495 378.88 31.305ZM394.306 25.635V35.015C394.306 35.6683 394.458 36.1467 394.761 36.45C395.088 36.73 395.624 36.87 396.371 36.87H398.646V41H395.566C391.436 41 389.371 38.9933 389.371 34.98V25.635H387.061V21.61H389.371V16.815H394.306V21.61H398.646V25.635H394.306ZM420.475 21.61V41H415.54V38.55C414.91 39.39 414.082 40.055 413.055 40.545C412.052 41.0117 410.955 41.245 409.765 41.245C408.249 41.245 406.907 40.93 405.74 40.3C404.574 39.6467 403.652 38.7017 402.975 37.465C402.322 36.205 401.995 34.7117 401.995 32.985V21.61H406.895V32.285C406.895 33.825 407.28 35.015 408.05 35.855C408.82 36.6717 409.87 37.08 411.2 37.08C412.554 37.08 413.615 36.6717 414.385 35.855C415.155 35.015 415.54 33.825 415.54 32.285V21.61H420.475ZM430.21 24.62C430.84 23.5933 431.657 22.7883 432.66 22.205C433.687 21.6217 434.853 21.33 436.16 21.33V26.475H434.865C433.325 26.475 432.158 26.8367 431.365 27.56C430.595 28.2833 430.21 29.5433 430.21 31.34V41H425.31V21.61H430.21V24.62ZM457.485 30.885C457.485 31.585 457.439 32.215 457.345 32.775H443.17C443.287 34.175 443.777 35.2717 444.64 36.065C445.504 36.8583 446.565 37.255 447.825 37.255C449.645 37.255 450.94 36.4733 451.71 34.91H456.995C456.435 36.7767 455.362 38.3167 453.775 39.53C452.189 40.72 450.24 41.315 447.93 41.315C446.064 41.315 444.384 40.9067 442.89 40.09C441.42 39.25 440.265 38.0717 439.425 36.555C438.609 35.0383 438.2 33.2883 438.2 31.305C438.2 29.2983 438.609 27.5367 439.425 26.02C440.242 24.5033 441.385 23.3367 442.855 22.52C444.325 21.7033 446.017 21.295 447.93 21.295C449.774 21.295 451.419 21.6917 452.865 22.485C454.335 23.2783 455.467 24.41 456.26 25.88C457.077 27.3267 457.485 28.995 457.485 30.885ZM452.41 29.485C452.387 28.225 451.932 27.2217 451.045 26.475C450.159 25.705 449.074 25.32 447.79 25.32C446.577 25.32 445.55 25.6933 444.71 26.44C443.894 27.1633 443.392 28.1783 443.205 29.485H452.41ZM468.482 41.315C466.895 41.315 465.472 41.035 464.212 40.475C462.952 39.8917 461.949 39.11 461.202 38.13C460.479 37.15 460.082 36.065 460.012 34.875H464.947C465.04 35.6217 465.402 36.24 466.032 36.73C466.685 37.22 467.49 37.465 468.447 37.465C469.38 37.465 470.104 37.2783 470.617 36.905C471.154 36.5317 471.422 36.0533 471.422 35.47C471.422 34.84 471.095 34.3733 470.442 34.07C469.812 33.7433 468.797 33.3933 467.397 33.02C465.95 32.67 464.76 32.3083 463.827 31.935C462.917 31.5617 462.124 30.99 461.447 30.22C460.794 29.45 460.467 28.4117 460.467 27.105C460.467 26.0317 460.77 25.0517 461.377 24.165C462.007 23.2783 462.894 22.5783 464.037 22.065C465.204 21.5517 466.569 21.295 468.132 21.295C470.442 21.295 472.285 21.8783 473.662 23.045C475.039 24.1883 475.797 25.74 475.937 27.7H471.247C471.177 26.93 470.85 26.3233 470.267 25.88C469.707 25.4133 468.949 25.18 467.992 25.18C467.105 25.18 466.417 25.3433 465.927 25.67C465.46 25.9967 465.227 26.4517 465.227 27.035C465.227 27.6883 465.554 28.19 466.207 28.54C466.86 28.8667 467.875 29.205 469.252 29.555C470.652 29.905 471.807 30.2667 472.717 30.64C473.627 31.0133 474.409 31.5967 475.062 32.39C475.739 33.16 476.089 34.1867 476.112 35.47C476.112 36.59 475.797 37.5933 475.167 38.48C474.56 39.3667 473.674 40.0667 472.507 40.58C471.364 41.07 470.022 41.315 468.482 41.315Z" fill="#1E2A39"/>
<path d="M137.721 68.848V70.032H134.681V80H133.225V70.032H130.169V68.848H137.721ZM143.865 71.072C144.527 71.072 145.124 71.216 145.657 71.504C146.191 71.7813 146.607 72.2027 146.905 72.768C147.215 73.3333 147.369 74.0213 147.369 74.832V80H145.929V75.04C145.929 74.1653 145.711 73.4987 145.273 73.04C144.836 72.5707 144.239 72.336 143.481 72.336C142.713 72.336 142.1 72.576 141.641 73.056C141.193 73.536 140.969 74.2347 140.969 75.152V80H139.513V68.16H140.969V72.48C141.257 72.032 141.652 71.6853 142.153 71.44C142.665 71.1947 143.236 71.072 143.865 71.072ZM157.748 75.28C157.748 75.5573 157.732 75.8507 157.7 76.16H150.692C150.745 77.024 151.038 77.7013 151.572 78.192C152.116 78.672 152.772 78.912 153.54 78.912C154.169 78.912 154.692 78.768 155.108 78.48C155.534 78.1813 155.833 77.7867 156.004 77.296H157.572C157.337 78.1387 156.868 78.8267 156.164 79.36C155.46 79.8827 154.585 80.144 153.54 80.144C152.708 80.144 151.961 79.9573 151.3 79.584C150.649 79.2107 150.137 78.6827 149.764 78C149.39 77.3067 149.204 76.5067 149.204 75.6C149.204 74.6933 149.385 73.8987 149.748 73.216C150.11 72.5333 150.617 72.0107 151.268 71.648C151.929 71.2747 152.686 71.088 153.54 71.088C154.372 71.088 155.108 71.2693 155.748 71.632C156.388 71.9947 156.878 72.496 157.22 73.136C157.572 73.7653 157.748 74.48 157.748 75.28ZM156.244 74.976C156.244 74.4213 156.121 73.9467 155.876 73.552C155.63 73.1467 155.294 72.8427 154.868 72.64C154.452 72.4267 153.988 72.32 153.476 72.32C152.74 72.32 152.11 72.5547 151.588 73.024C151.076 73.4933 150.782 74.144 150.708 74.976H156.244ZM167.503 72.432H165.663V80H164.207V72.432H163.071V71.232H164.207V70.608C164.207 69.6267 164.458 68.912 164.959 68.464C165.471 68.0053 166.287 67.776 167.407 67.776V68.992C166.767 68.992 166.314 69.12 166.047 69.376C165.791 69.6213 165.663 70.032 165.663 70.608V71.232H167.503V72.432ZM177.201 75.28C177.201 75.5573 177.185 75.8507 177.153 76.16H170.145C170.198 77.024 170.491 77.7013 171.025 78.192C171.569 78.672 172.225 78.912 172.993 78.912C173.622 78.912 174.145 78.768 174.561 78.48C174.987 78.1813 175.286 77.7867 175.457 77.296H177.025C176.79 78.1387 176.321 78.8267 175.617 79.36C174.913 79.8827 174.038 80.144 172.993 80.144C172.161 80.144 171.414 79.9573 170.753 79.584C170.102 79.2107 169.59 78.6827 169.217 78C168.843 77.3067 168.657 76.5067 168.657 75.6C168.657 74.6933 168.838 73.8987 169.201 73.216C169.563 72.5333 170.07 72.0107 170.721 71.648C171.382 71.2747 172.139 71.088 172.993 71.088C173.825 71.088 174.561 71.2693 175.201 71.632C175.841 71.9947 176.331 72.496 176.673 73.136C177.025 73.7653 177.201 74.48 177.201 75.28ZM175.697 74.976C175.697 74.4213 175.574 73.9467 175.329 73.552C175.083 73.1467 174.747 72.8427 174.321 72.64C173.905 72.4267 173.441 72.32 172.929 72.32C172.193 72.32 171.563 72.5547 171.041 73.024C170.529 73.4933 170.235 74.144 170.161 74.976H175.697ZM178.579 75.584C178.579 74.688 178.76 73.904 179.123 73.232C179.485 72.5493 179.981 72.0213 180.611 71.648C181.251 71.2747 181.96 71.088 182.739 71.088C183.507 71.088 184.173 71.2533 184.739 71.584C185.304 71.9147 185.725 72.3307 186.003 72.832V71.232H187.475V80H186.003V78.368C185.715 78.88 185.283 79.3067 184.707 79.648C184.141 79.9787 183.48 80.144 182.723 80.144C181.944 80.144 181.24 79.952 180.611 79.568C179.981 79.184 179.485 78.6453 179.123 77.952C178.76 77.2587 178.579 76.4693 178.579 75.584ZM186.003 75.6C186.003 74.9387 185.869 74.3627 185.603 73.872C185.336 73.3813 184.973 73.008 184.515 72.752C184.067 72.4853 183.571 72.352 183.027 72.352C182.483 72.352 181.987 72.48 181.539 72.736C181.091 72.992 180.733 73.3653 180.467 73.856C180.2 74.3467 180.067 74.9227 180.067 75.584C180.067 76.256 180.2 76.8427 180.467 77.344C180.733 77.8347 181.091 78.2133 181.539 78.48C181.987 78.736 182.483 78.864 183.027 78.864C183.571 78.864 184.067 78.736 184.515 78.48C184.973 78.2133 185.336 77.8347 185.603 77.344C185.869 76.8427 186.003 76.2613 186.003 75.6ZM191.711 72.432V77.6C191.711 78.0267 191.802 78.3307 191.983 78.512C192.164 78.6827 192.479 78.768 192.927 78.768H193.999V80H192.687C191.876 80 191.268 79.8133 190.863 79.44C190.458 79.0667 190.255 78.4533 190.255 77.6V72.432H189.119V71.232H190.255V69.024H191.711V71.232H193.999V72.432H191.711ZM203.539 71.232V80H202.083V78.704C201.806 79.152 201.417 79.504 200.915 79.76C200.425 80.0053 199.881 80.128 199.283 80.128C198.601 80.128 197.987 79.9893 197.443 79.712C196.899 79.424 196.467 78.9973 196.147 78.432C195.838 77.8667 195.683 77.1787 195.683 76.368V71.232H197.123V76.176C197.123 77.04 197.342 77.7067 197.779 78.176C198.217 78.6347 198.814 78.864 199.571 78.864C200.35 78.864 200.963 78.624 201.411 78.144C201.859 77.664 202.083 76.9653 202.083 76.048V71.232H203.539ZM207.454 72.656C207.71 72.1547 208.072 71.7653 208.542 71.488C209.022 71.2107 209.603 71.072 210.286 71.072V72.576H209.902C208.27 72.576 207.454 73.4613 207.454 75.232V80H205.998V71.232H207.454V72.656ZM219.966 75.28C219.966 75.5573 219.95 75.8507 219.918 76.16H212.91C212.964 77.024 213.257 77.7013 213.79 78.192C214.334 78.672 214.99 78.912 215.758 78.912C216.388 78.912 216.91 78.768 217.326 78.48C217.753 78.1813 218.052 77.7867 218.222 77.296H219.79C219.556 78.1387 219.086 78.8267 218.382 79.36C217.678 79.8827 216.804 80.144 215.758 80.144C214.926 80.144 214.18 79.9573 213.518 79.584C212.868 79.2107 212.356 78.6827 211.982 78C211.609 77.3067 211.422 76.5067 211.422 75.6C211.422 74.6933 211.604 73.8987 211.966 73.216C212.329 72.5333 212.836 72.0107 213.486 71.648C214.148 71.2747 214.905 71.088 215.758 71.088C216.59 71.088 217.326 71.2693 217.966 71.632C218.606 71.9947 219.097 72.496 219.438 73.136C219.79 73.7653 219.966 74.48 219.966 75.28ZM218.462 74.976C218.462 74.4213 218.34 73.9467 218.094 73.552C217.849 73.1467 217.513 72.8427 217.086 72.64C216.67 72.4267 216.206 72.32 215.694 72.32C214.958 72.32 214.329 72.5547 213.806 73.024C213.294 73.4933 213.001 74.144 212.926 74.976H218.462ZM224.992 80.144C224.32 80.144 223.718 80.032 223.184 79.808C222.651 79.5733 222.23 79.2533 221.92 78.848C221.611 78.432 221.44 77.9573 221.408 77.424H222.912C222.955 77.8613 223.158 78.2187 223.52 78.496C223.894 78.7733 224.379 78.912 224.976 78.912C225.531 78.912 225.968 78.7893 226.288 78.544C226.608 78.2987 226.768 77.9893 226.768 77.616C226.768 77.232 226.598 76.9493 226.256 76.768C225.915 76.576 225.387 76.3893 224.672 76.208C224.022 76.0373 223.488 75.8667 223.072 75.696C222.667 75.5147 222.315 75.2533 222.016 74.912C221.728 74.56 221.584 74.1013 221.584 73.536C221.584 73.088 221.718 72.6773 221.984 72.304C222.251 71.9307 222.63 71.6373 223.12 71.424C223.611 71.2 224.171 71.088 224.8 71.088C225.771 71.088 226.555 71.3333 227.152 71.824C227.75 72.3147 228.07 72.9867 228.112 73.84H226.656C226.624 73.3813 226.438 73.0133 226.096 72.736C225.766 72.4587 225.318 72.32 224.752 72.32C224.23 72.32 223.814 72.432 223.504 72.656C223.195 72.88 223.04 73.1733 223.04 73.536C223.04 73.824 223.131 74.064 223.312 74.256C223.504 74.4373 223.739 74.5867 224.016 74.704C224.304 74.8107 224.699 74.9333 225.2 75.072C225.83 75.2427 226.342 75.4133 226.736 75.584C227.131 75.744 227.467 75.9893 227.744 76.32C228.032 76.6507 228.182 77.0827 228.192 77.616C228.192 78.096 228.059 78.528 227.792 78.912C227.526 79.296 227.147 79.6 226.656 79.824C226.176 80.0373 225.622 80.144 224.992 80.144ZM246.193 71.232L243.457 80H241.953L239.841 73.04L237.729 80H236.225L233.473 71.232H234.961L236.977 78.592L239.153 71.232H240.641L242.769 78.608L244.753 71.232H246.193ZM251.99 71.072C252.652 71.072 253.249 71.216 253.782 71.504C254.316 71.7813 254.732 72.2027 255.03 72.768C255.34 73.3333 255.494 74.0213 255.494 74.832V80H254.054V75.04C254.054 74.1653 253.836 73.4987 253.398 73.04C252.961 72.5707 252.364 72.336 251.606 72.336C250.838 72.336 250.225 72.576 249.766 73.056C249.318 73.536 249.094 74.2347 249.094 75.152V80H247.638V68.16H249.094V72.48C249.382 72.032 249.777 71.6853 250.278 71.44C250.79 71.1947 251.361 71.072 251.99 71.072ZM258.625 69.808C258.347 69.808 258.113 69.712 257.921 69.52C257.729 69.328 257.633 69.0933 257.633 68.816C257.633 68.5387 257.729 68.304 257.921 68.112C258.113 67.92 258.347 67.824 258.625 67.824C258.891 67.824 259.115 67.92 259.297 68.112C259.489 68.304 259.585 68.5387 259.585 68.816C259.585 69.0933 259.489 69.328 259.297 69.52C259.115 69.712 258.891 69.808 258.625 69.808ZM259.329 71.232V80H257.873V71.232H259.329ZM261.266 75.6C261.266 74.6933 261.447 73.904 261.81 73.232C262.173 72.5493 262.674 72.0213 263.314 71.648C263.965 71.2747 264.706 71.088 265.538 71.088C266.615 71.088 267.501 71.3493 268.194 71.872C268.898 72.3947 269.362 73.12 269.586 74.048H268.018C267.869 73.5147 267.575 73.0933 267.138 72.784C266.711 72.4747 266.178 72.32 265.538 72.32C264.706 72.32 264.034 72.608 263.522 73.184C263.01 73.7493 262.754 74.5547 262.754 75.6C262.754 76.656 263.01 77.472 263.522 78.048C264.034 78.624 264.706 78.912 265.538 78.912C266.178 78.912 266.711 78.7627 267.138 78.464C267.565 78.1653 267.858 77.7387 268.018 77.184H269.586C269.351 78.08 268.882 78.8 268.178 79.344C267.474 79.8773 266.594 80.144 265.538 80.144C264.706 80.144 263.965 79.9573 263.314 79.584C262.674 79.2107 262.173 78.6827 261.81 78C261.447 77.3173 261.266 76.5173 261.266 75.6ZM275.881 71.072C276.542 71.072 277.14 71.216 277.673 71.504C278.206 71.7813 278.622 72.2027 278.921 72.768C279.23 73.3333 279.385 74.0213 279.385 74.832V80H277.945V75.04C277.945 74.1653 277.726 73.4987 277.289 73.04C276.852 72.5707 276.254 72.336 275.497 72.336C274.729 72.336 274.116 72.576 273.657 73.056C273.209 73.536 272.985 74.2347 272.985 75.152V80H271.529V68.16H272.985V72.48C273.273 72.032 273.668 71.6853 274.169 71.44C274.681 71.1947 275.252 71.072 275.881 71.072ZM296.573 71.072C297.256 71.072 297.864 71.216 298.397 71.504C298.93 71.7813 299.352 72.2027 299.661 72.768C299.97 73.3333 300.125 74.0213 300.125 74.832V80H298.685V75.04C298.685 74.1653 298.466 73.4987 298.029 73.04C297.602 72.5707 297.021 72.336 296.285 72.336C295.528 72.336 294.925 72.5813 294.477 73.072C294.029 73.552 293.805 74.2507 293.805 75.168V80H292.365V75.04C292.365 74.1653 292.146 73.4987 291.709 73.04C291.282 72.5707 290.701 72.336 289.965 72.336C289.208 72.336 288.605 72.5813 288.157 73.072C287.709 73.552 287.485 74.2507 287.485 75.168V80H286.029V71.232H287.485V72.496C287.773 72.0373 288.157 71.6853 288.637 71.44C289.128 71.1947 289.666 71.072 290.253 71.072C290.989 71.072 291.64 71.2373 292.205 71.568C292.77 71.8987 293.192 72.384 293.469 73.024C293.714 72.4053 294.12 71.9253 294.685 71.584C295.25 71.2427 295.88 71.072 296.573 71.072ZM301.969 75.584C301.969 74.688 302.151 73.904 302.513 73.232C302.876 72.5493 303.372 72.0213 304.001 71.648C304.641 71.2747 305.351 71.088 306.129 71.088C306.897 71.088 307.564 71.2533 308.129 71.584C308.695 71.9147 309.116 72.3307 309.393 72.832V71.232H310.865V80H309.393V78.368C309.105 78.88 308.673 79.3067 308.097 79.648C307.532 79.9787 306.871 80.144 306.113 80.144C305.335 80.144 304.631 79.952 304.001 79.568C303.372 79.184 302.876 78.6453 302.513 77.952C302.151 77.2587 301.969 76.4693 301.969 75.584ZM309.393 75.6C309.393 74.9387 309.26 74.3627 308.993 73.872C308.727 73.3813 308.364 73.008 307.905 72.752C307.457 72.4853 306.961 72.352 306.417 72.352C305.873 72.352 305.377 72.48 304.929 72.736C304.481 72.992 304.124 73.3653 303.857 73.856C303.591 74.3467 303.457 74.9227 303.457 75.584C303.457 76.256 303.591 76.8427 303.857 77.344C304.124 77.8347 304.481 78.2133 304.929 78.48C305.377 78.736 305.873 78.864 306.417 78.864C306.961 78.864 307.457 78.736 307.905 78.48C308.364 78.2133 308.727 77.8347 308.993 77.344C309.26 76.8427 309.393 76.2613 309.393 75.6ZM318.222 80L314.782 76.128V80H313.326V68.16H314.782V75.12L318.158 71.232H320.19L316.062 75.6L320.206 80H318.222ZM329.56 75.28C329.56 75.5573 329.544 75.8507 329.512 76.16H322.504C322.557 77.024 322.851 77.7013 323.384 78.192C323.928 78.672 324.584 78.912 325.352 78.912C325.981 78.912 326.504 78.768 326.92 78.48C327.347 78.1813 327.645 77.7867 327.816 77.296H329.384C329.149 78.1387 328.68 78.8267 327.976 79.36C327.272 79.8827 326.397 80.144 325.352 80.144C324.52 80.144 323.773 79.9573 323.112 79.584C322.461 79.2107 321.949 78.6827 321.576 78C321.203 77.3067 321.016 76.5067 321.016 75.6C321.016 74.6933 321.197 73.8987 321.56 73.216C321.923 72.5333 322.429 72.0107 323.08 71.648C323.741 71.2747 324.499 71.088 325.352 71.088C326.184 71.088 326.92 71.2693 327.56 71.632C328.2 71.9947 328.691 72.496 329.032 73.136C329.384 73.7653 329.56 74.48 329.56 75.28ZM328.056 74.976C328.056 74.4213 327.933 73.9467 327.688 73.552C327.443 73.1467 327.107 72.8427 326.68 72.64C326.264 72.4267 325.8 72.32 325.288 72.32C324.552 72.32 323.923 72.5547 323.4 73.024C322.888 73.4933 322.595 74.144 322.52 74.976H328.056ZM334.586 80.144C333.914 80.144 333.311 80.032 332.778 79.808C332.245 79.5733 331.823 79.2533 331.514 78.848C331.205 78.432 331.034 77.9573 331.002 77.424H332.506C332.549 77.8613 332.751 78.2187 333.114 78.496C333.487 78.7733 333.973 78.912 334.57 78.912C335.125 78.912 335.562 78.7893 335.882 78.544C336.202 78.2987 336.362 77.9893 336.362 77.616C336.362 77.232 336.191 76.9493 335.85 76.768C335.509 76.576 334.981 76.3893 334.266 76.208C333.615 76.0373 333.082 75.8667 332.666 75.696C332.261 75.5147 331.909 75.2533 331.61 74.912C331.322 74.56 331.178 74.1013 331.178 73.536C331.178 73.088 331.311 72.6773 331.578 72.304C331.845 71.9307 332.223 71.6373 332.714 71.424C333.205 71.2 333.765 71.088 334.394 71.088C335.365 71.088 336.149 71.3333 336.746 71.824C337.343 72.3147 337.663 72.9867 337.706 73.84H336.25C336.218 73.3813 336.031 73.0133 335.69 72.736C335.359 72.4587 334.911 72.32 334.346 72.32C333.823 72.32 333.407 72.432 333.098 72.656C332.789 72.88 332.634 73.1733 332.634 73.536C332.634 73.824 332.725 74.064 332.906 74.256C333.098 74.4373 333.333 74.5867 333.61 74.704C333.898 74.8107 334.293 74.9333 334.794 75.072C335.423 75.2427 335.935 75.4133 336.33 75.584C336.725 75.744 337.061 75.9893 337.338 76.32C337.626 76.6507 337.775 77.0827 337.786 77.616C337.786 78.096 337.653 78.528 337.386 78.912C337.119 79.296 336.741 79.6 336.25 79.824C335.77 80.0373 335.215 80.144 334.586 80.144ZM355.419 68.928V80H353.963V71.744L350.283 80H349.259L345.563 71.728V80H344.107V68.928H345.675L349.771 78.08L353.867 68.928H355.419ZM357.344 75.584C357.344 74.688 357.526 73.904 357.888 73.232C358.251 72.5493 358.747 72.0213 359.376 71.648C360.016 71.2747 360.726 71.088 361.504 71.088C362.272 71.088 362.939 71.2533 363.504 71.584C364.07 71.9147 364.491 72.3307 364.768 72.832V71.232H366.24V80H364.768V78.368C364.48 78.88 364.048 79.3067 363.472 79.648C362.907 79.9787 362.246 80.144 361.488 80.144C360.71 80.144 360.006 79.952 359.376 79.568C358.747 79.184 358.251 78.6453 357.888 77.952C357.526 77.2587 357.344 76.4693 357.344 75.584ZM364.768 75.6C364.768 74.9387 364.635 74.3627 364.368 73.872C364.102 73.3813 363.739 73.008 363.28 72.752C362.832 72.4853 362.336 72.352 361.792 72.352C361.248 72.352 360.752 72.48 360.304 72.736C359.856 72.992 359.499 73.3653 359.232 73.856C358.966 74.3467 358.832 74.9227 358.832 75.584C358.832 76.256 358.966 76.8427 359.232 77.344C359.499 77.8347 359.856 78.2133 360.304 78.48C360.752 78.736 361.248 78.864 361.792 78.864C362.336 78.864 362.832 78.736 363.28 78.48C363.739 78.2133 364.102 77.8347 364.368 77.344C364.635 76.8427 364.768 76.2613 364.768 75.6ZM371.805 80.144C371.133 80.144 370.53 80.032 369.997 79.808C369.463 79.5733 369.042 79.2533 368.733 78.848C368.423 78.432 368.253 77.9573 368.221 77.424H369.725C369.767 77.8613 369.97 78.2187 370.333 78.496C370.706 78.7733 371.191 78.912 371.789 78.912C372.343 78.912 372.781 78.7893 373.101 78.544C373.421 78.2987 373.581 77.9893 373.581 77.616C373.581 77.232 373.41 76.9493 373.069 76.768C372.727 76.576 372.199 76.3893 371.485 76.208C370.834 76.0373 370.301 75.8667 369.885 75.696C369.479 75.5147 369.127 75.2533 368.829 74.912C368.541 74.56 368.397 74.1013 368.397 73.536C368.397 73.088 368.53 72.6773 368.797 72.304C369.063 71.9307 369.442 71.6373 369.933 71.424C370.423 71.2 370.983 71.088 371.613 71.088C372.583 71.088 373.367 71.3333 373.965 71.824C374.562 72.3147 374.882 72.9867 374.925 73.84H373.469C373.437 73.3813 373.25 73.0133 372.909 72.736C372.578 72.4587 372.13 72.32 371.565 72.32C371.042 72.32 370.626 72.432 370.317 72.656C370.007 72.88 369.853 73.1733 369.853 73.536C369.853 73.824 369.943 74.064 370.125 74.256C370.317 74.4373 370.551 74.5867 370.829 74.704C371.117 74.8107 371.511 74.9333 372.013 75.072C372.642 75.2427 373.154 75.4133 373.549 75.584C373.943 75.744 374.279 75.9893 374.557 76.32C374.845 76.6507 374.994 77.0827 375.005 77.616C375.005 78.096 374.871 78.528 374.605 78.912C374.338 79.296 373.959 79.6 373.469 79.824C372.989 80.0373 372.434 80.144 371.805 80.144ZM378.836 72.432V77.6C378.836 78.0267 378.927 78.3307 379.108 78.512C379.289 78.6827 379.604 78.768 380.052 78.768H381.124V80H379.812C379.001 80 378.393 79.8133 377.988 79.44C377.583 79.0667 377.38 78.4533 377.38 77.6V72.432H376.244V71.232H377.38V69.024H378.836V71.232H381.124V72.432H378.836ZM390.888 75.28C390.888 75.5573 390.872 75.8507 390.84 76.16H383.832C383.886 77.024 384.179 77.7013 384.712 78.192C385.256 78.672 385.912 78.912 386.68 78.912C387.31 78.912 387.832 78.768 388.248 78.48C388.675 78.1813 388.974 77.7867 389.144 77.296H390.712C390.478 78.1387 390.008 78.8267 389.304 79.36C388.6 79.8827 387.726 80.144 386.68 80.144C385.848 80.144 385.102 79.9573 384.44 79.584C383.79 79.2107 383.278 78.6827 382.904 78C382.531 77.3067 382.344 76.5067 382.344 75.6C382.344 74.6933 382.526 73.8987 382.888 73.216C383.251 72.5333 383.758 72.0107 384.408 71.648C385.07 71.2747 385.827 71.088 386.68 71.088C387.512 71.088 388.248 71.2693 388.888 71.632C389.528 71.9947 390.019 72.496 390.36 73.136C390.712 73.7653 390.888 74.48 390.888 75.28ZM389.384 74.976C389.384 74.4213 389.262 73.9467 389.016 73.552C388.771 73.1467 388.435 72.8427 388.008 72.64C387.592 72.4267 387.128 72.32 386.616 72.32C385.88 72.32 385.251 72.5547 384.728 73.024C384.216 73.4933 383.923 74.144 383.848 74.976H389.384ZM394.266 72.656C394.522 72.1547 394.885 71.7653 395.354 71.488C395.834 71.2107 396.415 71.072 397.098 71.072V72.576H396.714C395.082 72.576 394.266 73.4613 394.266 75.232V80H392.81V71.232H394.266V72.656ZM405.643 68.848V70.032H402.603V80H401.147V70.032H398.091V68.848H405.643ZM406.891 75.584C406.891 74.688 407.072 73.904 407.435 73.232C407.798 72.5493 408.294 72.0213 408.923 71.648C409.563 71.2747 410.272 71.088 411.051 71.088C411.819 71.088 412.486 71.2533 413.051 71.584C413.616 71.9147 414.038 72.3307 414.315 72.832V71.232H415.787V80H414.315V78.368C414.027 78.88 413.595 79.3067 413.019 79.648C412.454 79.9787 411.792 80.144 411.035 80.144C410.256 80.144 409.552 79.952 408.923 79.568C408.294 79.184 407.798 78.6453 407.435 77.952C407.072 77.2587 406.891 76.4693 406.891 75.584ZM414.315 75.6C414.315 74.9387 414.182 74.3627 413.915 73.872C413.648 73.3813 413.286 73.008 412.827 72.752C412.379 72.4853 411.883 72.352 411.339 72.352C410.795 72.352 410.299 72.48 409.851 72.736C409.403 72.992 409.046 73.3653 408.779 73.856C408.512 74.3467 408.379 74.9227 408.379 75.584C408.379 76.256 408.512 76.8427 408.779 77.344C409.046 77.8347 409.403 78.2133 409.851 78.48C410.299 78.736 410.795 78.864 411.339 78.864C411.883 78.864 412.379 78.736 412.827 78.48C413.286 78.2133 413.648 77.8347 413.915 77.344C414.182 76.8427 414.315 76.2613 414.315 75.6ZM421.864 71.088C422.621 71.088 423.282 71.2533 423.848 71.584C424.424 71.9147 424.85 72.3307 425.128 72.832V71.232H426.6V80.192C426.6 80.992 426.429 81.7013 426.088 82.32C425.746 82.9493 425.256 83.44 424.616 83.792C423.986 84.144 423.25 84.32 422.408 84.32C421.256 84.32 420.296 84.048 419.528 83.504C418.76 82.96 418.306 82.2187 418.168 81.28H419.608C419.768 81.8133 420.098 82.24 420.6 82.56C421.101 82.8907 421.704 83.056 422.408 83.056C423.208 83.056 423.858 82.8053 424.36 82.304C424.872 81.8027 425.128 81.0987 425.128 80.192V78.352C424.84 78.864 424.413 79.2907 423.848 79.632C423.282 79.9733 422.621 80.144 421.864 80.144C421.085 80.144 420.376 79.952 419.736 79.568C419.106 79.184 418.61 78.6453 418.248 77.952C417.885 77.2587 417.704 76.4693 417.704 75.584C417.704 74.688 417.885 73.904 418.248 73.232C418.61 72.5493 419.106 72.0213 419.736 71.648C420.376 71.2747 421.085 71.088 421.864 71.088ZM425.128 75.6C425.128 74.9387 424.994 74.3627 424.728 73.872C424.461 73.3813 424.098 73.008 423.64 72.752C423.192 72.4853 422.696 72.352 422.152 72.352C421.608 72.352 421.112 72.48 420.664 72.736C420.216 72.992 419.858 73.3653 419.592 73.856C419.325 74.3467 419.192 74.9227 419.192 75.584C419.192 76.256 419.325 76.8427 419.592 77.344C419.858 77.8347 420.216 78.2133 420.664 78.48C421.112 78.736 421.608 78.864 422.152 78.864C422.696 78.864 423.192 78.736 423.64 78.48C424.098 78.2133 424.461 77.8347 424.728 77.344C424.994 76.8427 425.128 76.2613 425.128 75.6ZM432.782 75.584C432.782 74.688 432.963 73.904 433.326 73.232C433.688 72.5493 434.184 72.0213 434.814 71.648C435.454 71.2747 436.168 71.088 436.958 71.088C437.64 71.088 438.275 71.248 438.862 71.568C439.448 71.8773 439.896 72.288 440.206 72.8V68.16H441.678V80H440.206V78.352C439.918 78.8747 439.491 79.3067 438.926 79.648C438.36 79.9787 437.699 80.144 436.942 80.144C436.163 80.144 435.454 79.952 434.814 79.568C434.184 79.184 433.688 78.6453 433.326 77.952C432.963 77.2587 432.782 76.4693 432.782 75.584ZM440.206 75.6C440.206 74.9387 440.072 74.3627 439.806 73.872C439.539 73.3813 439.176 73.008 438.718 72.752C438.27 72.4853 437.774 72.352 437.23 72.352C436.686 72.352 436.19 72.48 435.742 72.736C435.294 72.992 434.936 73.3653 434.67 73.856C434.403 74.3467 434.27 74.9227 434.27 75.584C434.27 76.256 434.403 76.8427 434.67 77.344C434.936 77.8347 435.294 78.2133 435.742 78.48C436.19 78.736 436.686 78.864 437.23 78.864C437.774 78.864 438.27 78.736 438.718 78.48C439.176 78.2133 439.539 77.8347 439.806 77.344C440.072 76.8427 440.206 76.2613 440.206 75.6ZM452.138 75.28C452.138 75.5573 452.122 75.8507 452.09 76.16H445.082C445.136 77.024 445.429 77.7013 445.962 78.192C446.506 78.672 447.162 78.912 447.93 78.912C448.56 78.912 449.082 78.768 449.498 78.48C449.925 78.1813 450.224 77.7867 450.394 77.296H451.962C451.728 78.1387 451.258 78.8267 450.554 79.36C449.85 79.8827 448.976 80.144 447.93 80.144C447.098 80.144 446.352 79.9573 445.69 79.584C445.04 79.2107 444.528 78.6827 444.154 78C443.781 77.3067 443.594 76.5067 443.594 75.6C443.594 74.6933 443.776 73.8987 444.138 73.216C444.501 72.5333 445.008 72.0107 445.658 71.648C446.32 71.2747 447.077 71.088 447.93 71.088C448.762 71.088 449.498 71.2693 450.138 71.632C450.778 71.9947 451.269 72.496 451.61 73.136C451.962 73.7653 452.138 74.48 452.138 75.28ZM450.634 74.976C450.634 74.4213 450.512 73.9467 450.266 73.552C450.021 73.1467 449.685 72.8427 449.258 72.64C448.842 72.4267 448.378 72.32 447.866 72.32C447.13 72.32 446.501 72.5547 445.978 73.024C445.466 73.4933 445.173 74.144 445.098 74.976H450.634ZM457.324 78.656L460.044 71.232H461.596L458.156 80H456.46L453.02 71.232H454.588L457.324 78.656ZM463.781 69.808C463.504 69.808 463.269 69.712 463.077 69.52C462.885 69.328 462.789 69.0933 462.789 68.816C462.789 68.5387 462.885 68.304 463.077 68.112C463.269 67.92 463.504 67.824 463.781 67.824C464.048 67.824 464.272 67.92 464.453 68.112C464.645 68.304 464.741 68.5387 464.741 68.816C464.741 69.0933 464.645 69.328 464.453 69.52C464.272 69.712 464.048 69.808 463.781 69.808ZM464.485 71.232V80H463.029V71.232H464.485ZM466.422 75.6C466.422 74.6933 466.604 73.904 466.966 73.232C467.329 72.5493 467.83 72.0213 468.47 71.648C469.121 71.2747 469.862 71.088 470.694 71.088C471.772 71.088 472.657 71.3493 473.35 71.872C474.054 72.3947 474.518 73.12 474.742 74.048H473.174C473.025 73.5147 472.732 73.0933 472.294 72.784C471.868 72.4747 471.334 72.32 470.694 72.32C469.862 72.32 469.19 72.608 468.678 73.184C468.166 73.7493 467.91 74.5547 467.91 75.6C467.91 76.656 468.166 77.472 468.678 78.048C469.19 78.624 469.862 78.912 470.694 78.912C471.334 78.912 471.868 78.7627 472.294 78.464C472.721 78.1653 473.014 77.7387 473.174 77.184H474.742C474.508 78.08 474.038 78.8 473.334 79.344C472.63 79.8773 471.75 80.144 470.694 80.144C469.862 80.144 469.121 79.9573 468.47 79.584C467.83 79.2107 467.329 78.6827 466.966 78C466.604 77.3173 466.422 76.5173 466.422 75.6ZM484.685 75.28C484.685 75.5573 484.669 75.8507 484.637 76.16H477.629C477.682 77.024 477.976 77.7013 478.509 78.192C479.053 78.672 479.709 78.912 480.477 78.912C481.106 78.912 481.629 78.768 482.045 78.48C482.472 78.1813 482.77 77.7867 482.941 77.296H484.509C484.274 78.1387 483.805 78.8267 483.101 79.36C482.397 79.8827 481.522 80.144 480.477 80.144C479.645 80.144 478.898 79.9573 478.237 79.584C477.586 79.2107 477.074 78.6827 476.701 78C476.328 77.3067 476.141 76.5067 476.141 75.6C476.141 74.6933 476.322 73.8987 476.685 73.216C477.048 72.5333 477.554 72.0107 478.205 71.648C478.866 71.2747 479.624 71.088 480.477 71.088C481.309 71.088 482.045 71.2693 482.685 71.632C483.325 71.9947 483.816 72.496 484.157 73.136C484.509 73.7653 484.685 74.48 484.685 75.28ZM483.181 74.976C483.181 74.4213 483.058 73.9467 482.813 73.552C482.568 73.1467 482.232 72.8427 481.805 72.64C481.389 72.4267 480.925 72.32 480.413 72.32C479.677 72.32 479.048 72.5547 478.525 73.024C478.013 73.4933 477.72 74.144 477.645 74.976H483.181Z" fill="#5C6272"/>
</svg>
