<svg width="360" height="74" viewBox="0 0 360 74" fill="none" xmlns="http://www.w3.org/2000/svg">
<path d="M85.6731 20.248V37H82.3131V29.872H75.1371V37H71.7771V20.248H75.1371V27.136H82.3131V20.248H85.6731ZM88.1162 30.304C88.1162 28.96 88.3802 27.768 88.9082 26.728C89.4522 25.688 90.1802 24.888 91.0922 24.328C92.0202 23.768 93.0522 23.488 94.1882 23.488C95.1802 23.488 96.0442 23.688 96.7802 24.088C97.5322 24.488 98.1322 24.992 98.5802 25.6V23.704H101.964V37H98.5802V35.056C98.1482 35.68 97.5482 36.2 96.7802 36.616C96.0282 37.016 95.1562 37.216 94.1642 37.216C93.0442 37.216 92.0202 36.928 91.0922 36.352C90.1802 35.776 89.4522 34.968 88.9082 33.928C88.3802 32.872 88.1162 31.664 88.1162 30.304ZM98.5802 30.352C98.5802 29.536 98.4202 28.84 98.1002 28.264C97.7802 27.672 97.3482 27.224 96.8042 26.92C96.2602 26.6 95.6762 26.44 95.0522 26.44C94.4282 26.44 93.8522 26.592 93.3242 26.896C92.7962 27.2 92.3642 27.648 92.0282 28.24C91.7082 28.816 91.5482 29.504 91.5482 30.304C91.5482 31.104 91.7082 31.808 92.0282 32.416C92.3642 33.008 92.7962 33.464 93.3242 33.784C93.8682 34.104 94.4442 34.264 95.0522 34.264C95.6762 34.264 96.2602 34.112 96.8042 33.808C97.3482 33.488 97.7802 33.04 98.1002 32.464C98.4202 31.872 98.5802 31.168 98.5802 30.352ZM108.606 25.768C109.038 25.064 109.598 24.512 110.286 24.112C110.99 23.712 111.79 23.512 112.686 23.512V27.04H111.798C110.742 27.04 109.942 27.288 109.398 27.784C108.87 28.28 108.606 29.144 108.606 30.376V37H105.246V23.704H108.606V25.768ZM114.085 30.304C114.085 28.96 114.349 27.768 114.877 26.728C115.421 25.688 116.157 24.888 117.085 24.328C118.013 23.768 119.045 23.488 120.181 23.488C121.045 23.488 121.869 23.68 122.653 24.064C123.437 24.432 124.061 24.928 124.525 25.552V19.24H127.933V37H124.525V35.032C124.109 35.688 123.525 36.216 122.773 36.616C122.021 37.016 121.149 37.216 120.157 37.216C119.037 37.216 118.013 36.928 117.085 36.352C116.157 35.776 115.421 34.968 114.877 33.928C114.349 32.872 114.085 31.664 114.085 30.304ZM124.549 30.352C124.549 29.536 124.389 28.84 124.069 28.264C123.749 27.672 123.317 27.224 122.773 26.92C122.229 26.6 121.645 26.44 121.021 26.44C120.397 26.44 119.821 26.592 119.293 26.896C118.765 27.2 118.333 27.648 117.997 28.24C117.677 28.816 117.517 29.504 117.517 30.304C117.517 31.104 117.677 31.808 117.997 32.416C118.333 33.008 118.765 33.464 119.293 33.784C119.837 34.104 120.413 34.264 121.021 34.264C121.645 34.264 122.229 34.112 122.773 33.808C123.317 33.488 123.749 33.04 124.069 32.464C124.389 31.872 124.549 31.168 124.549 30.352ZM149.647 23.704L145.759 37H142.135L139.711 27.712L137.287 37H133.639L129.727 23.704H133.135L135.487 33.832L138.031 23.704H141.583L144.079 33.808L146.431 23.704H149.647ZM150.601 30.304C150.601 28.96 150.865 27.768 151.393 26.728C151.937 25.688 152.665 24.888 153.577 24.328C154.505 23.768 155.537 23.488 156.673 23.488C157.665 23.488 158.529 23.688 159.265 24.088C160.017 24.488 160.617 24.992 161.065 25.6V23.704H164.449V37H161.065V35.056C160.633 35.68 160.033 36.2 159.265 36.616C158.513 37.016 157.641 37.216 156.649 37.216C155.529 37.216 154.505 36.928 153.577 36.352C152.665 35.776 151.937 34.968 151.393 33.928C150.865 32.872 150.601 31.664 150.601 30.304ZM161.065 30.352C161.065 29.536 160.905 28.84 160.585 28.264C160.265 27.672 159.833 27.224 159.289 26.92C158.745 26.6 158.161 26.44 157.537 26.44C156.913 26.44 156.337 26.592 155.809 26.896C155.281 27.2 154.849 27.648 154.513 28.24C154.193 28.816 154.033 29.504 154.033 30.304C154.033 31.104 154.193 31.808 154.513 32.416C154.849 33.008 155.281 33.464 155.809 33.784C156.353 34.104 156.929 34.264 157.537 34.264C158.161 34.264 158.745 34.112 159.289 33.808C159.833 33.488 160.265 33.04 160.585 32.464C160.905 31.872 161.065 31.168 161.065 30.352ZM171.09 25.768C171.522 25.064 172.082 24.512 172.77 24.112C173.474 23.712 174.274 23.512 175.17 23.512V27.04H174.282C173.226 27.04 172.426 27.288 171.882 27.784C171.354 28.28 171.09 29.144 171.09 30.376V37H167.73V23.704H171.09V25.768ZM189.793 30.064C189.793 30.544 189.761 30.976 189.697 31.36H179.977C180.057 32.32 180.393 33.072 180.985 33.616C181.577 34.16 182.305 34.432 183.169 34.432C184.417 34.432 185.305 33.896 185.833 32.824H189.457C189.073 34.104 188.337 35.16 187.249 35.992C186.161 36.808 184.825 37.216 183.241 37.216C181.961 37.216 180.809 36.936 179.785 36.376C178.777 35.8 177.985 34.992 177.409 33.952C176.849 32.912 176.569 31.712 176.569 30.352C176.569 28.976 176.849 27.768 177.409 26.728C177.969 25.688 178.753 24.888 179.761 24.328C180.769 23.768 181.929 23.488 183.241 23.488C184.505 23.488 185.633 23.76 186.625 24.304C187.633 24.848 188.409 25.624 188.953 26.632C189.513 27.624 189.793 28.768 189.793 30.064ZM186.313 29.104C186.297 28.24 185.985 27.552 185.377 27.04C184.769 26.512 184.025 26.248 183.145 26.248C182.313 26.248 181.609 26.504 181.033 27.016C180.473 27.512 180.129 28.208 180.001 29.104H186.313ZM208.309 20.248V22.96H201.325V27.256H206.677V29.92H201.325V37H197.965V20.248H208.309ZM223.051 30.064C223.051 30.544 223.019 30.976 222.955 31.36H213.235C213.315 32.32 213.651 33.072 214.243 33.616C214.835 34.16 215.563 34.432 216.427 34.432C217.675 34.432 218.563 33.896 219.091 32.824H222.715C222.331 34.104 221.595 35.16 220.507 35.992C219.419 36.808 218.083 37.216 216.499 37.216C215.219 37.216 214.067 36.936 213.043 36.376C212.035 35.8 211.243 34.992 210.667 33.952C210.107 32.912 209.827 31.712 209.827 30.352C209.827 28.976 210.107 27.768 210.667 26.728C211.227 25.688 212.011 24.888 213.019 24.328C214.027 23.768 215.187 23.488 216.499 23.488C217.763 23.488 218.891 23.76 219.883 24.304C220.891 24.848 221.667 25.624 222.211 26.632C222.771 27.624 223.051 28.768 223.051 30.064ZM219.571 29.104C219.555 28.24 219.243 27.552 218.635 27.04C218.027 26.512 217.283 26.248 216.403 26.248C215.571 26.248 214.867 26.504 214.291 27.016C213.731 27.512 213.387 28.208 213.259 29.104H219.571ZM224.64 30.304C224.64 28.96 224.904 27.768 225.432 26.728C225.976 25.688 226.704 24.888 227.616 24.328C228.544 23.768 229.576 23.488 230.712 23.488C231.704 23.488 232.568 23.688 233.304 24.088C234.056 24.488 234.656 24.992 235.104 25.6V23.704H238.488V37H235.104V35.056C234.672 35.68 234.072 36.2 233.304 36.616C232.552 37.016 231.68 37.216 230.688 37.216C229.568 37.216 228.544 36.928 227.616 36.352C226.704 35.776 225.976 34.968 225.432 33.928C224.904 32.872 224.64 31.664 224.64 30.304ZM235.104 30.352C235.104 29.536 234.944 28.84 234.624 28.264C234.304 27.672 233.872 27.224 233.328 26.92C232.784 26.6 232.2 26.44 231.576 26.44C230.952 26.44 230.376 26.592 229.848 26.896C229.32 27.2 228.888 27.648 228.552 28.24C228.232 28.816 228.072 29.504 228.072 30.304C228.072 31.104 228.232 31.808 228.552 32.416C228.888 33.008 229.32 33.464 229.848 33.784C230.392 34.104 230.968 34.264 231.576 34.264C232.2 34.264 232.784 34.112 233.328 33.808C233.872 33.488 234.304 33.04 234.624 32.464C234.944 31.872 235.104 31.168 235.104 30.352ZM245.681 26.464V32.896C245.681 33.344 245.785 33.672 245.993 33.88C246.217 34.072 246.585 34.168 247.097 34.168H248.657V37H246.545C243.713 37 242.297 35.624 242.297 32.872V26.464H240.713V23.704H242.297V20.416H245.681V23.704H248.657V26.464H245.681ZM263.626 23.704V37H260.242V35.32C259.81 35.896 259.242 36.352 258.538 36.688C257.85 37.008 257.098 37.168 256.282 37.168C255.242 37.168 254.322 36.952 253.522 36.52C252.722 36.072 252.09 35.424 251.626 34.576C251.178 33.712 250.954 32.688 250.954 31.504V23.704H254.314V31.024C254.314 32.08 254.578 32.896 255.106 33.472C255.634 34.032 256.354 34.312 257.266 34.312C258.194 34.312 258.922 34.032 259.45 33.472C259.978 32.896 260.242 32.08 260.242 31.024V23.704H263.626ZM270.301 25.768C270.733 25.064 271.293 24.512 271.981 24.112C272.685 23.712 273.485 23.512 274.381 23.512V27.04H273.493C272.437 27.04 271.637 27.288 271.093 27.784C270.565 28.28 270.301 29.144 270.301 30.376V37H266.941V23.704H270.301V25.768ZM289.004 30.064C289.004 30.544 288.972 30.976 288.908 31.36H279.188C279.268 32.32 279.604 33.072 280.196 33.616C280.788 34.16 281.516 34.432 282.38 34.432C283.628 34.432 284.516 33.896 285.044 32.824H288.668C288.284 34.104 287.548 35.16 286.46 35.992C285.372 36.808 284.036 37.216 282.452 37.216C281.172 37.216 280.02 36.936 278.996 36.376C277.988 35.8 277.196 34.992 276.62 33.952C276.06 32.912 275.78 31.712 275.78 30.352C275.78 28.976 276.06 27.768 276.62 26.728C277.18 25.688 277.964 24.888 278.972 24.328C279.98 23.768 281.14 23.488 282.452 23.488C283.716 23.488 284.844 23.76 285.836 24.304C286.844 24.848 287.62 25.624 288.164 26.632C288.724 27.624 289.004 28.768 289.004 30.064ZM285.524 29.104C285.508 28.24 285.196 27.552 284.588 27.04C283.98 26.512 283.236 26.248 282.356 26.248C281.524 26.248 280.82 26.504 280.244 27.016C279.684 27.512 279.34 28.208 279.212 29.104H285.524ZM296.545 37.216C295.457 37.216 294.481 37.024 293.617 36.64C292.753 36.24 292.065 35.704 291.553 35.032C291.057 34.36 290.785 33.616 290.737 32.8H294.121C294.185 33.312 294.433 33.736 294.865 34.072C295.313 34.408 295.865 34.576 296.521 34.576C297.161 34.576 297.657 34.448 298.009 34.192C298.377 33.936 298.561 33.608 298.561 33.208C298.561 32.776 298.337 32.456 297.889 32.248C297.457 32.024 296.761 31.784 295.801 31.528C294.809 31.288 293.993 31.04 293.353 30.784C292.729 30.528 292.185 30.136 291.721 29.608C291.273 29.08 291.049 28.368 291.049 27.472C291.049 26.736 291.257 26.064 291.673 25.456C292.105 24.848 292.713 24.368 293.497 24.016C294.297 23.664 295.233 23.488 296.305 23.488C297.889 23.488 299.153 23.888 300.097 24.688C301.041 25.472 301.561 26.536 301.657 27.88H298.441C298.393 27.352 298.169 26.936 297.769 26.632C297.385 26.312 296.865 26.152 296.209 26.152C295.601 26.152 295.129 26.264 294.793 26.488C294.473 26.712 294.313 27.024 294.313 27.424C294.313 27.872 294.537 28.216 294.985 28.456C295.433 28.68 296.129 28.912 297.073 29.152C298.033 29.392 298.825 29.64 299.449 29.896C300.073 30.152 300.609 30.552 301.057 31.096C301.521 31.624 301.761 32.328 301.777 33.208C301.777 33.976 301.561 34.664 301.129 35.272C300.713 35.88 300.105 36.36 299.305 36.712C298.521 37.048 297.601 37.216 296.545 37.216Z" fill="#1E2A39"/>
<path d="M59.1658 55.636V56.524H56.8858V64H55.7938V56.524H53.5018V55.636H59.1658ZM63.7739 57.304C64.2699 57.304 64.7179 57.412 65.1179 57.628C65.5179 57.836 65.8299 58.152 66.0539 58.576C66.2859 59 66.4019 59.516 66.4019 60.124V64H65.3219V60.28C65.3219 59.624 65.1579 59.124 64.8299 58.78C64.5019 58.428 64.0539 58.252 63.4859 58.252C62.9099 58.252 62.4499 58.432 62.1059 58.792C61.7699 59.152 61.6019 59.676 61.6019 60.364V64H60.5099V55.12H61.6019V58.36C61.8179 58.024 62.1139 57.764 62.4899 57.58C62.8739 57.396 63.3019 57.304 63.7739 57.304ZM74.1857 60.46C74.1857 60.668 74.1737 60.888 74.1497 61.12H68.8937C68.9337 61.768 69.1537 62.276 69.5537 62.644C69.9617 63.004 70.4537 63.184 71.0297 63.184C71.5017 63.184 71.8937 63.076 72.2057 62.86C72.5257 62.636 72.7497 62.34 72.8777 61.972H74.0537C73.8777 62.604 73.5257 63.12 72.9977 63.52C72.4697 63.912 71.8137 64.108 71.0297 64.108C70.4057 64.108 69.8457 63.968 69.3497 63.688C68.8617 63.408 68.4777 63.012 68.1977 62.5C67.9177 61.98 67.7777 61.38 67.7777 60.7C67.7777 60.02 67.9137 59.424 68.1857 58.912C68.4577 58.4 68.8377 58.008 69.3257 57.736C69.8217 57.456 70.3897 57.316 71.0297 57.316C71.6537 57.316 72.2057 57.452 72.6857 57.724C73.1657 57.996 73.5337 58.372 73.7897 58.852C74.0537 59.324 74.1857 59.86 74.1857 60.46ZM73.0577 60.232C73.0577 59.816 72.9657 59.46 72.7817 59.164C72.5977 58.86 72.3457 58.632 72.0257 58.48C71.7137 58.32 71.3657 58.24 70.9817 58.24C70.4297 58.24 69.9577 58.416 69.5657 58.768C69.1817 59.12 68.9617 59.608 68.9057 60.232H73.0577ZM81.5023 58.324H80.1223V64H79.0303V58.324H78.1783V57.424H79.0303V56.956C79.0303 56.22 79.2183 55.684 79.5943 55.348C79.9783 55.004 80.5903 54.832 81.4303 54.832V55.744C80.9503 55.744 80.6103 55.84 80.4103 56.032C80.2183 56.216 80.1223 56.524 80.1223 56.956V57.424H81.5023V58.324ZM88.7756 60.46C88.7756 60.668 88.7636 60.888 88.7396 61.12H83.4836C83.5236 61.768 83.7436 62.276 84.1436 62.644C84.5516 63.004 85.0436 63.184 85.6196 63.184C86.0916 63.184 86.4836 63.076 86.7956 62.86C87.1156 62.636 87.3396 62.34 87.4676 61.972H88.6436C88.4676 62.604 88.1156 63.12 87.5876 63.52C87.0596 63.912 86.4036 64.108 85.6196 64.108C84.9956 64.108 84.4356 63.968 83.9396 63.688C83.4516 63.408 83.0676 63.012 82.7876 62.5C82.5076 61.98 82.3676 61.38 82.3676 60.7C82.3676 60.02 82.5036 59.424 82.7756 58.912C83.0476 58.4 83.4276 58.008 83.9156 57.736C84.4116 57.456 84.9796 57.316 85.6196 57.316C86.2436 57.316 86.7956 57.452 87.2756 57.724C87.7556 57.996 88.1236 58.372 88.3796 58.852C88.6436 59.324 88.7756 59.86 88.7756 60.46ZM87.6476 60.232C87.6476 59.816 87.5556 59.46 87.3716 59.164C87.1876 58.86 86.9356 58.632 86.6156 58.48C86.3036 58.32 85.9556 58.24 85.5716 58.24C85.0196 58.24 84.5476 58.416 84.1556 58.768C83.7716 59.12 83.5516 59.608 83.4956 60.232H87.6476ZM89.809 60.688C89.809 60.016 89.945 59.428 90.217 58.924C90.489 58.412 90.861 58.016 91.333 57.736C91.813 57.456 92.345 57.316 92.929 57.316C93.505 57.316 94.005 57.44 94.429 57.688C94.853 57.936 95.169 58.248 95.377 58.624V57.424H96.481V64H95.377V62.776C95.161 63.16 94.837 63.48 94.405 63.736C93.981 63.984 93.485 64.108 92.917 64.108C92.333 64.108 91.805 63.964 91.333 63.676C90.861 63.388 90.489 62.984 90.217 62.464C89.945 61.944 89.809 61.352 89.809 60.688ZM95.377 60.7C95.377 60.204 95.277 59.772 95.077 59.404C94.877 59.036 94.605 58.756 94.261 58.564C93.925 58.364 93.553 58.264 93.145 58.264C92.737 58.264 92.365 58.36 92.029 58.552C91.693 58.744 91.425 59.024 91.225 59.392C91.025 59.76 90.925 60.192 90.925 60.688C90.925 61.192 91.025 61.632 91.225 62.008C91.425 62.376 91.693 62.66 92.029 62.86C92.365 63.052 92.737 63.148 93.145 63.148C93.553 63.148 93.925 63.052 94.261 62.86C94.605 62.66 94.877 62.376 95.077 62.008C95.277 61.632 95.377 61.196 95.377 60.7ZM99.6583 58.324V62.2C99.6583 62.52 99.7263 62.748 99.8623 62.884C99.9983 63.012 100.234 63.076 100.57 63.076H101.374V64H100.39C99.7823 64 99.3263 63.86 99.0223 63.58C98.7183 63.3 98.5663 62.84 98.5663 62.2V58.324H97.7143V57.424H98.5663V55.768H99.6583V57.424H101.374V58.324H99.6583ZM108.529 57.424V64H107.437V63.028C107.229 63.364 106.937 63.628 106.561 63.82C106.193 64.004 105.785 64.096 105.337 64.096C104.825 64.096 104.365 63.992 103.957 63.784C103.549 63.568 103.225 63.248 102.985 62.824C102.753 62.4 102.637 61.884 102.637 61.276V57.424H103.717V61.132C103.717 61.78 103.881 62.28 104.209 62.632C104.537 62.976 104.985 63.148 105.553 63.148C106.137 63.148 106.597 62.968 106.933 62.608C107.269 62.248 107.437 61.724 107.437 61.036V57.424H108.529ZM111.465 58.492C111.657 58.116 111.929 57.824 112.281 57.616C112.641 57.408 113.077 57.304 113.589 57.304V58.432H113.301C112.077 58.432 111.465 59.096 111.465 60.424V64H110.373V57.424H111.465V58.492ZM120.85 60.46C120.85 60.668 120.838 60.888 120.814 61.12H115.558C115.598 61.768 115.818 62.276 116.218 62.644C116.626 63.004 117.118 63.184 117.694 63.184C118.166 63.184 118.558 63.076 118.87 62.86C119.19 62.636 119.414 62.34 119.542 61.972H120.718C120.542 62.604 120.19 63.12 119.662 63.52C119.134 63.912 118.478 64.108 117.694 64.108C117.07 64.108 116.51 63.968 116.014 63.688C115.526 63.408 115.142 63.012 114.862 62.5C114.582 61.98 114.442 61.38 114.442 60.7C114.442 60.02 114.578 59.424 114.85 58.912C115.122 58.4 115.502 58.008 115.99 57.736C116.486 57.456 117.054 57.316 117.694 57.316C118.318 57.316 118.87 57.452 119.35 57.724C119.83 57.996 120.198 58.372 120.454 58.852C120.718 59.324 120.85 59.86 120.85 60.46ZM119.722 60.232C119.722 59.816 119.63 59.46 119.446 59.164C119.262 58.86 119.01 58.632 118.69 58.48C118.378 58.32 118.03 58.24 117.646 58.24C117.094 58.24 116.622 58.416 116.23 58.768C115.846 59.12 115.626 59.608 115.57 60.232H119.722ZM124.619 64.108C124.115 64.108 123.663 64.024 123.263 63.856C122.863 63.68 122.547 63.44 122.315 63.136C122.083 62.824 121.955 62.468 121.931 62.068H123.059C123.091 62.396 123.243 62.664 123.515 62.872C123.795 63.08 124.159 63.184 124.607 63.184C125.023 63.184 125.351 63.092 125.591 62.908C125.831 62.724 125.951 62.492 125.951 62.212C125.951 61.924 125.823 61.712 125.567 61.576C125.311 61.432 124.915 61.292 124.379 61.156C123.891 61.028 123.491 60.9 123.179 60.772C122.875 60.636 122.611 60.44 122.387 60.184C122.171 59.92 122.063 59.576 122.063 59.152C122.063 58.816 122.163 58.508 122.363 58.228C122.563 57.948 122.847 57.728 123.215 57.568C123.583 57.4 124.003 57.316 124.475 57.316C125.203 57.316 125.791 57.5 126.239 57.868C126.687 58.236 126.927 58.74 126.959 59.38H125.867C125.843 59.036 125.703 58.76 125.447 58.552C125.199 58.344 124.863 58.24 124.439 58.24C124.047 58.24 123.735 58.324 123.503 58.492C123.271 58.66 123.155 58.88 123.155 59.152C123.155 59.368 123.223 59.548 123.359 59.692C123.503 59.828 123.679 59.94 123.887 60.028C124.103 60.108 124.399 60.2 124.775 60.304C125.247 60.432 125.631 60.56 125.927 60.688C126.223 60.808 126.475 60.992 126.683 61.24C126.899 61.488 127.011 61.812 127.019 62.212C127.019 62.572 126.919 62.896 126.719 63.184C126.519 63.472 126.235 63.7 125.867 63.868C125.507 64.028 125.091 64.108 124.619 64.108ZM140.52 57.424L138.468 64H137.34L135.756 58.78L134.172 64H133.044L130.98 57.424H132.096L133.608 62.944L135.24 57.424H136.356L137.952 62.956L139.44 57.424H140.52ZM144.868 57.304C145.364 57.304 145.812 57.412 146.212 57.628C146.612 57.836 146.924 58.152 147.148 58.576C147.38 59 147.496 59.516 147.496 60.124V64H146.416V60.28C146.416 59.624 146.252 59.124 145.924 58.78C145.596 58.428 145.148 58.252 144.58 58.252C144.004 58.252 143.544 58.432 143.2 58.792C142.864 59.152 142.696 59.676 142.696 60.364V64H141.604V55.12H142.696V58.36C142.912 58.024 143.208 57.764 143.584 57.58C143.968 57.396 144.396 57.304 144.868 57.304ZM149.843 56.356C149.635 56.356 149.459 56.284 149.315 56.14C149.171 55.996 149.099 55.82 149.099 55.612C149.099 55.404 149.171 55.228 149.315 55.084C149.459 54.94 149.635 54.868 149.843 54.868C150.043 54.868 150.211 54.94 150.347 55.084C150.491 55.228 150.563 55.404 150.563 55.612C150.563 55.82 150.491 55.996 150.347 56.14C150.211 56.284 150.043 56.356 149.843 56.356ZM150.371 57.424V64H149.279V57.424H150.371ZM151.825 60.7C151.825 60.02 151.961 59.428 152.233 58.924C152.505 58.412 152.881 58.016 153.361 57.736C153.849 57.456 154.405 57.316 155.029 57.316C155.837 57.316 156.501 57.512 157.021 57.904C157.549 58.296 157.897 58.84 158.065 59.536H156.889C156.777 59.136 156.557 58.82 156.229 58.588C155.909 58.356 155.509 58.24 155.029 58.24C154.405 58.24 153.901 58.456 153.517 58.888C153.133 59.312 152.941 59.916 152.941 60.7C152.941 61.492 153.133 62.104 153.517 62.536C153.901 62.968 154.405 63.184 155.029 63.184C155.509 63.184 155.909 63.072 156.229 62.848C156.549 62.624 156.769 62.304 156.889 61.888H158.065C157.889 62.56 157.537 63.1 157.009 63.508C156.481 63.908 155.821 64.108 155.029 64.108C154.405 64.108 153.849 63.968 153.361 63.688C152.881 63.408 152.505 63.012 152.233 62.5C151.961 61.988 151.825 61.388 151.825 60.7ZM162.786 57.304C163.282 57.304 163.73 57.412 164.13 57.628C164.53 57.836 164.842 58.152 165.066 58.576C165.298 59 165.414 59.516 165.414 60.124V64H164.334V60.28C164.334 59.624 164.17 59.124 163.842 58.78C163.514 58.428 163.066 58.252 162.498 58.252C161.922 58.252 161.462 58.432 161.118 58.792C160.782 59.152 160.614 59.676 160.614 60.364V64H159.522V55.12H160.614V58.36C160.83 58.024 161.126 57.764 161.502 57.58C161.886 57.396 162.314 57.304 162.786 57.304ZM178.305 57.304C178.817 57.304 179.273 57.412 179.673 57.628C180.073 57.836 180.389 58.152 180.621 58.576C180.853 59 180.969 59.516 180.969 60.124V64H179.889V60.28C179.889 59.624 179.725 59.124 179.397 58.78C179.077 58.428 178.641 58.252 178.089 58.252C177.521 58.252 177.069 58.436 176.733 58.804C176.397 59.164 176.229 59.688 176.229 60.376V64H175.149V60.28C175.149 59.624 174.985 59.124 174.657 58.78C174.337 58.428 173.901 58.252 173.349 58.252C172.781 58.252 172.329 58.436 171.993 58.804C171.657 59.164 171.489 59.688 171.489 60.376V64H170.397V57.424H171.489V58.372C171.705 58.028 171.993 57.764 172.353 57.58C172.721 57.396 173.125 57.304 173.565 57.304C174.117 57.304 174.605 57.428 175.029 57.676C175.453 57.924 175.769 58.288 175.977 58.768C176.161 58.304 176.465 57.944 176.889 57.688C177.313 57.432 177.785 57.304 178.305 57.304ZM182.352 60.688C182.352 60.016 182.488 59.428 182.76 58.924C183.032 58.412 183.404 58.016 183.876 57.736C184.356 57.456 184.888 57.316 185.472 57.316C186.048 57.316 186.548 57.44 186.972 57.688C187.396 57.936 187.712 58.248 187.92 58.624V57.424H189.024V64H187.92V62.776C187.704 63.16 187.38 63.48 186.948 63.736C186.524 63.984 186.028 64.108 185.46 64.108C184.876 64.108 184.348 63.964 183.876 63.676C183.404 63.388 183.032 62.984 182.76 62.464C182.488 61.944 182.352 61.352 182.352 60.688ZM187.92 60.7C187.92 60.204 187.82 59.772 187.62 59.404C187.42 59.036 187.148 58.756 186.804 58.564C186.468 58.364 186.096 58.264 185.688 58.264C185.28 58.264 184.908 58.36 184.572 58.552C184.236 58.744 183.968 59.024 183.768 59.392C183.568 59.76 183.468 60.192 183.468 60.688C183.468 61.192 183.568 61.632 183.768 62.008C183.968 62.376 184.236 62.66 184.572 62.86C184.908 63.052 185.28 63.148 185.688 63.148C186.096 63.148 186.468 63.052 186.804 62.86C187.148 62.66 187.42 62.376 187.62 62.008C187.82 61.632 187.92 61.196 187.92 60.7ZM194.541 64L191.961 61.096V64H190.869V55.12H191.961V60.34L194.493 57.424H196.017L192.921 60.7L196.029 64H194.541ZM203.045 60.46C203.045 60.668 203.033 60.888 203.009 61.12H197.753C197.793 61.768 198.013 62.276 198.413 62.644C198.821 63.004 199.313 63.184 199.889 63.184C200.361 63.184 200.753 63.076 201.065 62.86C201.385 62.636 201.609 62.34 201.737 61.972H202.913C202.737 62.604 202.385 63.12 201.857 63.52C201.329 63.912 200.673 64.108 199.889 64.108C199.265 64.108 198.705 63.968 198.209 63.688C197.721 63.408 197.337 63.012 197.057 62.5C196.777 61.98 196.637 61.38 196.637 60.7C196.637 60.02 196.773 59.424 197.045 58.912C197.317 58.4 197.697 58.008 198.185 57.736C198.681 57.456 199.249 57.316 199.889 57.316C200.513 57.316 201.065 57.452 201.545 57.724C202.025 57.996 202.393 58.372 202.649 58.852C202.913 59.324 203.045 59.86 203.045 60.46ZM201.917 60.232C201.917 59.816 201.825 59.46 201.641 59.164C201.457 58.86 201.205 58.632 200.885 58.48C200.573 58.32 200.225 58.24 199.841 58.24C199.289 58.24 198.817 58.416 198.425 58.768C198.041 59.12 197.821 59.608 197.765 60.232H201.917ZM206.815 64.108C206.311 64.108 205.859 64.024 205.459 63.856C205.059 63.68 204.743 63.44 204.511 63.136C204.279 62.824 204.151 62.468 204.127 62.068H205.255C205.287 62.396 205.439 62.664 205.711 62.872C205.991 63.08 206.355 63.184 206.803 63.184C207.219 63.184 207.547 63.092 207.787 62.908C208.027 62.724 208.147 62.492 208.147 62.212C208.147 61.924 208.019 61.712 207.763 61.576C207.507 61.432 207.111 61.292 206.575 61.156C206.087 61.028 205.687 60.9 205.375 60.772C205.071 60.636 204.807 60.44 204.583 60.184C204.367 59.92 204.259 59.576 204.259 59.152C204.259 58.816 204.359 58.508 204.559 58.228C204.759 57.948 205.043 57.728 205.411 57.568C205.779 57.4 206.199 57.316 206.671 57.316C207.399 57.316 207.987 57.5 208.435 57.868C208.883 58.236 209.123 58.74 209.155 59.38H208.063C208.039 59.036 207.899 58.76 207.643 58.552C207.395 58.344 207.059 58.24 206.635 58.24C206.243 58.24 205.931 58.324 205.699 58.492C205.467 58.66 205.351 58.88 205.351 59.152C205.351 59.368 205.419 59.548 205.555 59.692C205.699 59.828 205.875 59.94 206.083 60.028C206.299 60.108 206.595 60.2 206.971 60.304C207.443 60.432 207.827 60.56 208.123 60.688C208.419 60.808 208.671 60.992 208.879 61.24C209.095 61.488 209.207 61.812 209.215 62.212C209.215 62.572 209.115 62.896 208.915 63.184C208.715 63.472 208.431 63.7 208.063 63.868C207.703 64.028 207.287 64.108 206.815 64.108ZM222.439 55.696V64H221.347V57.808L218.587 64H217.819L215.047 57.796V64H213.955V55.696H215.131L218.203 62.56L221.275 55.696H222.439ZM223.883 60.688C223.883 60.016 224.019 59.428 224.291 58.924C224.563 58.412 224.935 58.016 225.407 57.736C225.887 57.456 226.419 57.316 227.003 57.316C227.579 57.316 228.079 57.44 228.503 57.688C228.927 57.936 229.243 58.248 229.451 58.624V57.424H230.555V64H229.451V62.776C229.235 63.16 228.911 63.48 228.479 63.736C228.055 63.984 227.559 64.108 226.991 64.108C226.407 64.108 225.879 63.964 225.407 63.676C224.935 63.388 224.563 62.984 224.291 62.464C224.019 61.944 223.883 61.352 223.883 60.688ZM229.451 60.7C229.451 60.204 229.351 59.772 229.151 59.404C228.951 59.036 228.679 58.756 228.335 58.564C227.999 58.364 227.627 58.264 227.219 58.264C226.811 58.264 226.439 58.36 226.103 58.552C225.767 58.744 225.499 59.024 225.299 59.392C225.099 59.76 224.999 60.192 224.999 60.688C224.999 61.192 225.099 61.632 225.299 62.008C225.499 62.376 225.767 62.66 226.103 62.86C226.439 63.052 226.811 63.148 227.219 63.148C227.627 63.148 227.999 63.052 228.335 62.86C228.679 62.66 228.951 62.376 229.151 62.008C229.351 61.632 229.451 61.196 229.451 60.7ZM234.729 64.108C234.225 64.108 233.773 64.024 233.373 63.856C232.973 63.68 232.657 63.44 232.425 63.136C232.193 62.824 232.065 62.468 232.041 62.068H233.169C233.201 62.396 233.353 62.664 233.625 62.872C233.905 63.08 234.269 63.184 234.717 63.184C235.133 63.184 235.461 63.092 235.701 62.908C235.941 62.724 236.061 62.492 236.061 62.212C236.061 61.924 235.933 61.712 235.677 61.576C235.421 61.432 235.025 61.292 234.489 61.156C234.001 61.028 233.601 60.9 233.289 60.772C232.985 60.636 232.721 60.44 232.497 60.184C232.281 59.92 232.173 59.576 232.173 59.152C232.173 58.816 232.273 58.508 232.473 58.228C232.673 57.948 232.957 57.728 233.325 57.568C233.693 57.4 234.113 57.316 234.585 57.316C235.313 57.316 235.901 57.5 236.349 57.868C236.797 58.236 237.037 58.74 237.069 59.38H235.977C235.953 59.036 235.813 58.76 235.557 58.552C235.309 58.344 234.973 58.24 234.549 58.24C234.157 58.24 233.845 58.324 233.613 58.492C233.381 58.66 233.265 58.88 233.265 59.152C233.265 59.368 233.333 59.548 233.469 59.692C233.613 59.828 233.789 59.94 233.997 60.028C234.213 60.108 234.509 60.2 234.885 60.304C235.357 60.432 235.741 60.56 236.037 60.688C236.333 60.808 236.585 60.992 236.793 61.24C237.009 61.488 237.121 61.812 237.129 62.212C237.129 62.572 237.029 62.896 236.829 63.184C236.629 63.472 236.345 63.7 235.977 63.868C235.617 64.028 235.201 64.108 234.729 64.108ZM240.002 58.324V62.2C240.002 62.52 240.07 62.748 240.206 62.884C240.342 63.012 240.578 63.076 240.914 63.076H241.718V64H240.734C240.126 64 239.67 63.86 239.366 63.58C239.062 63.3 238.91 62.84 238.91 62.2V58.324H238.058V57.424H238.91V55.768H240.002V57.424H241.718V58.324H240.002ZM249.041 60.46C249.041 60.668 249.029 60.888 249.005 61.12H243.749C243.789 61.768 244.009 62.276 244.409 62.644C244.817 63.004 245.309 63.184 245.885 63.184C246.357 63.184 246.749 63.076 247.061 62.86C247.381 62.636 247.605 62.34 247.733 61.972H248.909C248.733 62.604 248.381 63.12 247.853 63.52C247.325 63.912 246.669 64.108 245.885 64.108C245.261 64.108 244.701 63.968 244.205 63.688C243.717 63.408 243.333 63.012 243.053 62.5C242.773 61.98 242.633 61.38 242.633 60.7C242.633 60.02 242.769 59.424 243.041 58.912C243.313 58.4 243.693 58.008 244.181 57.736C244.677 57.456 245.245 57.316 245.885 57.316C246.509 57.316 247.061 57.452 247.541 57.724C248.021 57.996 248.389 58.372 248.645 58.852C248.909 59.324 249.041 59.86 249.041 60.46ZM247.913 60.232C247.913 59.816 247.821 59.46 247.637 59.164C247.453 58.86 247.201 58.632 246.881 58.48C246.569 58.32 246.221 58.24 245.837 58.24C245.285 58.24 244.813 58.416 244.421 58.768C244.037 59.12 243.817 59.608 243.761 60.232H247.913ZM251.575 58.492C251.767 58.116 252.039 57.824 252.391 57.616C252.751 57.408 253.187 57.304 253.699 57.304V58.432H253.411C252.187 58.432 251.575 59.096 251.575 60.424V64H250.483V57.424H251.575V58.492ZM260.107 55.636V56.524H257.827V64H256.735V56.524H254.443V55.636H260.107ZM261.043 60.688C261.043 60.016 261.179 59.428 261.451 58.924C261.723 58.412 262.095 58.016 262.567 57.736C263.047 57.456 263.579 57.316 264.163 57.316C264.739 57.316 265.239 57.44 265.663 57.688C266.087 57.936 266.403 58.248 266.611 58.624V57.424H267.715V64H266.611V62.776C266.395 63.16 266.071 63.48 265.639 63.736C265.215 63.984 264.719 64.108 264.151 64.108C263.567 64.108 263.039 63.964 262.567 63.676C262.095 63.388 261.723 62.984 261.451 62.464C261.179 61.944 261.043 61.352 261.043 60.688ZM266.611 60.7C266.611 60.204 266.511 59.772 266.311 59.404C266.111 59.036 265.839 58.756 265.495 58.564C265.159 58.364 264.787 58.264 264.379 58.264C263.971 58.264 263.599 58.36 263.263 58.552C262.927 58.744 262.659 59.024 262.459 59.392C262.259 59.76 262.159 60.192 262.159 60.688C262.159 61.192 262.259 61.632 262.459 62.008C262.659 62.376 262.927 62.66 263.263 62.86C263.599 63.052 263.971 63.148 264.379 63.148C264.787 63.148 265.159 63.052 265.495 62.86C265.839 62.66 266.111 62.376 266.311 62.008C266.511 61.632 266.611 61.196 266.611 60.7ZM272.273 57.316C272.841 57.316 273.337 57.44 273.761 57.688C274.193 57.936 274.513 58.248 274.721 58.624V57.424H275.825V64.144C275.825 64.744 275.697 65.276 275.441 65.74C275.185 66.212 274.817 66.58 274.337 66.844C273.865 67.108 273.313 67.24 272.681 67.24C271.817 67.24 271.097 67.036 270.521 66.628C269.945 66.22 269.605 65.664 269.501 64.96H270.581C270.701 65.36 270.949 65.68 271.325 65.92C271.701 66.168 272.153 66.292 272.681 66.292C273.281 66.292 273.769 66.104 274.145 65.728C274.529 65.352 274.721 64.824 274.721 64.144V62.764C274.505 63.148 274.185 63.468 273.761 63.724C273.337 63.98 272.841 64.108 272.273 64.108C271.689 64.108 271.157 63.964 270.677 63.676C270.205 63.388 269.833 62.984 269.561 62.464C269.289 61.944 269.153 61.352 269.153 60.688C269.153 60.016 269.289 59.428 269.561 58.924C269.833 58.412 270.205 58.016 270.677 57.736C271.157 57.456 271.689 57.316 272.273 57.316ZM274.721 60.7C274.721 60.204 274.621 59.772 274.421 59.404C274.221 59.036 273.949 58.756 273.605 58.564C273.269 58.364 272.897 58.264 272.489 58.264C272.081 58.264 271.709 58.36 271.373 58.552C271.037 58.744 270.769 59.024 270.569 59.392C270.369 59.76 270.269 60.192 270.269 60.688C270.269 61.192 270.369 61.632 270.569 62.008C270.769 62.376 271.037 62.66 271.373 62.86C271.709 63.052 272.081 63.148 272.489 63.148C272.897 63.148 273.269 63.052 273.605 62.86C273.949 62.66 274.221 62.376 274.421 62.008C274.621 61.632 274.721 61.196 274.721 60.7ZM280.461 60.688C280.461 60.016 280.597 59.428 280.869 58.924C281.141 58.412 281.513 58.016 281.985 57.736C282.465 57.456 283.001 57.316 283.593 57.316C284.105 57.316 284.581 57.436 285.021 57.676C285.461 57.908 285.797 58.216 286.029 58.6V55.12H287.133V64H286.029V62.764C285.813 63.156 285.493 63.48 285.069 63.736C284.645 63.984 284.149 64.108 283.581 64.108C282.997 64.108 282.465 63.964 281.985 63.676C281.513 63.388 281.141 62.984 280.869 62.464C280.597 61.944 280.461 61.352 280.461 60.688ZM286.029 60.7C286.029 60.204 285.929 59.772 285.729 59.404C285.529 59.036 285.257 58.756 284.913 58.564C284.577 58.364 284.205 58.264 283.797 58.264C283.389 58.264 283.017 58.36 282.681 58.552C282.345 58.744 282.077 59.024 281.877 59.392C281.677 59.76 281.577 60.192 281.577 60.688C281.577 61.192 281.677 61.632 281.877 62.008C282.077 62.376 282.345 62.66 282.681 62.86C283.017 63.052 283.389 63.148 283.797 63.148C284.205 63.148 284.577 63.052 284.913 62.86C285.257 62.66 285.529 62.376 285.729 62.008C285.929 61.632 286.029 61.196 286.029 60.7ZM294.979 60.46C294.979 60.668 294.967 60.888 294.943 61.12H289.687C289.727 61.768 289.947 62.276 290.347 62.644C290.755 63.004 291.247 63.184 291.823 63.184C292.295 63.184 292.687 63.076 292.999 62.86C293.319 62.636 293.543 62.34 293.671 61.972H294.847C294.671 62.604 294.319 63.12 293.791 63.52C293.263 63.912 292.607 64.108 291.823 64.108C291.199 64.108 290.639 63.968 290.143 63.688C289.655 63.408 289.271 63.012 288.991 62.5C288.711 61.98 288.571 61.38 288.571 60.7C288.571 60.02 288.707 59.424 288.979 58.912C289.251 58.4 289.631 58.008 290.119 57.736C290.615 57.456 291.183 57.316 291.823 57.316C292.447 57.316 292.999 57.452 293.479 57.724C293.959 57.996 294.327 58.372 294.583 58.852C294.847 59.324 294.979 59.86 294.979 60.46ZM293.851 60.232C293.851 59.816 293.759 59.46 293.575 59.164C293.391 58.86 293.139 58.632 292.819 58.48C292.507 58.32 292.159 58.24 291.775 58.24C291.223 58.24 290.751 58.416 290.359 58.768C289.975 59.12 289.755 59.608 289.699 60.232H293.851ZM298.868 62.992L300.908 57.424H302.072L299.492 64H298.22L295.64 57.424H296.816L298.868 62.992ZM303.711 56.356C303.503 56.356 303.327 56.284 303.183 56.14C303.039 55.996 302.967 55.82 302.967 55.612C302.967 55.404 303.039 55.228 303.183 55.084C303.327 54.94 303.503 54.868 303.711 54.868C303.911 54.868 304.079 54.94 304.215 55.084C304.359 55.228 304.431 55.404 304.431 55.612C304.431 55.82 304.359 55.996 304.215 56.14C304.079 56.284 303.911 56.356 303.711 56.356ZM304.239 57.424V64H303.147V57.424H304.239ZM305.692 60.7C305.692 60.02 305.828 59.428 306.1 58.924C306.372 58.412 306.748 58.016 307.228 57.736C307.716 57.456 308.272 57.316 308.896 57.316C309.704 57.316 310.368 57.512 310.888 57.904C311.416 58.296 311.764 58.84 311.932 59.536H310.756C310.644 59.136 310.424 58.82 310.096 58.588C309.776 58.356 309.376 58.24 308.896 58.24C308.272 58.24 307.768 58.456 307.384 58.888C307 59.312 306.808 59.916 306.808 60.7C306.808 61.492 307 62.104 307.384 62.536C307.768 62.968 308.272 63.184 308.896 63.184C309.376 63.184 309.776 63.072 310.096 62.848C310.416 62.624 310.636 62.304 310.756 61.888H311.932C311.756 62.56 311.404 63.1 310.876 63.508C310.348 63.908 309.688 64.108 308.896 64.108C308.272 64.108 307.716 63.968 307.228 63.688C306.748 63.408 306.372 63.012 306.1 62.5C305.828 61.988 305.692 61.388 305.692 60.7ZM319.389 60.46C319.389 60.668 319.377 60.888 319.353 61.12H314.097C314.137 61.768 314.357 62.276 314.757 62.644C315.165 63.004 315.657 63.184 316.233 63.184C316.705 63.184 317.097 63.076 317.409 62.86C317.729 62.636 317.953 62.34 318.081 61.972H319.257C319.081 62.604 318.729 63.12 318.201 63.52C317.673 63.912 317.017 64.108 316.233 64.108C315.609 64.108 315.049 63.968 314.553 63.688C314.065 63.408 313.681 63.012 313.401 62.5C313.121 61.98 312.981 61.38 312.981 60.7C312.981 60.02 313.117 59.424 313.389 58.912C313.661 58.4 314.041 58.008 314.529 57.736C315.025 57.456 315.593 57.316 316.233 57.316C316.857 57.316 317.409 57.452 317.889 57.724C318.369 57.996 318.737 58.372 318.993 58.852C319.257 59.324 319.389 59.86 319.389 60.46ZM318.261 60.232C318.261 59.816 318.169 59.46 317.985 59.164C317.801 58.86 317.549 58.632 317.229 58.48C316.917 58.32 316.569 58.24 316.185 58.24C315.633 58.24 315.161 58.416 314.769 58.768C314.385 59.12 314.165 59.608 314.109 60.232H318.261Z" fill="#5C6272"/>
</svg>
