<svg width="314" height="148" viewBox="0 0 314 148" fill="none" xmlns="http://www.w3.org/2000/svg">
<path d="M32.2636 59.848L29.0316 71H27.3996L24.8076 62.024L22.1196 71L20.5036 71.016L17.3836 59.848H18.9356L21.3676 69.304L24.0556 59.848H25.6876L28.2476 69.272L30.6956 59.848H32.2636ZM41.857 66.28C41.857 66.5573 41.841 66.8507 41.809 67.16H34.801C34.8543 68.024 35.1477 68.7013 35.681 69.192C36.225 69.672 36.881 69.912 37.649 69.912C38.2783 69.912 38.801 69.768 39.217 69.48C39.6437 69.1813 39.9423 68.7867 40.113 68.296H41.681C41.4463 69.1387 40.977 69.8267 40.273 70.36C39.569 70.8827 38.6943 71.144 37.649 71.144C36.817 71.144 36.0703 70.9573 35.409 70.584C34.7583 70.2107 34.2463 69.6827 33.873 69C33.4997 68.3067 33.313 67.5067 33.313 66.6C33.313 65.6933 33.4943 64.8987 33.857 64.216C34.2197 63.5333 34.7263 63.0107 35.377 62.648C36.0383 62.2747 36.7957 62.088 37.649 62.088C38.481 62.088 39.217 62.2693 39.857 62.632C40.497 62.9947 40.9877 63.496 41.329 64.136C41.681 64.7653 41.857 65.48 41.857 66.28ZM40.353 65.976C40.353 65.4213 40.2303 64.9467 39.985 64.552C39.7397 64.1467 39.4037 63.8427 38.977 63.64C38.561 63.4267 38.097 63.32 37.585 63.32C36.849 63.32 36.2197 63.5547 35.697 64.024C35.185 64.4933 34.8917 65.144 34.817 65.976H40.353ZM47.5005 66.584C47.5005 65.688 47.6818 64.904 48.0445 64.232C48.4072 63.5493 48.9032 63.0213 49.5325 62.648C50.1725 62.2747 50.8818 62.088 51.6605 62.088C52.4285 62.088 53.0952 62.2533 53.6605 62.584C54.2258 62.9147 54.6472 63.3307 54.9245 63.832V62.232H56.3965V71H54.9245V69.368C54.6365 69.88 54.2045 70.3067 53.6285 70.648C53.0632 70.9787 52.4018 71.144 51.6445 71.144C50.8658 71.144 50.1618 70.952 49.5325 70.568C48.9032 70.184 48.4072 69.6453 48.0445 68.952C47.6818 68.2587 47.5005 67.4693 47.5005 66.584ZM54.9245 66.6C54.9245 65.9387 54.7912 65.3627 54.5245 64.872C54.2578 64.3813 53.8952 64.008 53.4365 63.752C52.9885 63.4853 52.4925 63.352 51.9485 63.352C51.4045 63.352 50.9085 63.48 50.4605 63.736C50.0125 63.992 49.6552 64.3653 49.3885 64.856C49.1218 65.3467 48.9885 65.9227 48.9885 66.584C48.9885 67.256 49.1218 67.8427 49.3885 68.344C49.6552 68.8347 50.0125 69.2133 50.4605 69.48C50.9085 69.736 51.4045 69.864 51.9485 69.864C52.4925 69.864 52.9885 69.736 53.4365 69.48C53.8952 69.2133 54.2578 68.8347 54.5245 68.344C54.7912 67.8427 54.9245 67.2613 54.9245 66.6ZM60.313 63.656C60.569 63.1547 60.9317 62.7653 61.401 62.488C61.881 62.2107 62.4623 62.072 63.145 62.072V63.576H62.761C61.129 63.576 60.313 64.4613 60.313 66.232V71H58.857V62.232H60.313V63.656ZM72.8258 66.28C72.8258 66.5573 72.8098 66.8507 72.7778 67.16H65.7698C65.8231 68.024 66.1164 68.7013 66.6498 69.192C67.1938 69.672 67.8498 69.912 68.6178 69.912C69.2471 69.912 69.7698 69.768 70.1858 69.48C70.6124 69.1813 70.9111 68.7867 71.0818 68.296H72.6498C72.4151 69.1387 71.9458 69.8267 71.2418 70.36C70.5378 70.8827 69.6631 71.144 68.6178 71.144C67.7858 71.144 67.0391 70.9573 66.3778 70.584C65.7271 70.2107 65.2151 69.6827 64.8418 69C64.4684 68.3067 64.2818 67.5067 64.2818 66.6C64.2818 65.6933 64.4631 64.8987 64.8258 64.216C65.1884 63.5333 65.6951 63.0107 66.3458 62.648C67.0071 62.2747 67.7644 62.088 68.6178 62.088C69.4498 62.088 70.1858 62.2693 70.8258 62.632C71.4658 62.9947 71.9564 63.496 72.2978 64.136C72.6498 64.7653 72.8258 65.48 72.8258 66.28ZM71.3218 65.976C71.3218 65.4213 71.1991 64.9467 70.9538 64.552C70.7084 64.1467 70.3724 63.8427 69.9458 63.64C69.5298 63.4267 69.0658 63.32 68.5538 63.32C67.8178 63.32 67.1884 63.5547 66.6658 64.024C66.1538 64.4933 65.8604 65.144 65.7858 65.976H71.3218ZM82.8373 71.144C82.0159 71.144 81.2693 70.9573 80.5973 70.584C79.9359 70.2107 79.4133 69.6827 79.0293 69C78.6559 68.3067 78.4693 67.5067 78.4693 66.6C78.4693 65.704 78.6613 64.9147 79.0453 64.232C79.4399 63.5387 79.9733 63.0107 80.6453 62.648C81.3173 62.2747 82.0693 62.088 82.9013 62.088C83.7333 62.088 84.4853 62.2747 85.1573 62.648C85.8293 63.0107 86.3573 63.5333 86.7413 64.216C87.1359 64.8987 87.3333 65.6933 87.3333 66.6C87.3333 67.5067 87.1306 68.3067 86.7253 69C86.3306 69.6827 85.7919 70.2107 85.1093 70.584C84.4266 70.9573 83.6693 71.144 82.8373 71.144ZM82.8373 69.864C83.3599 69.864 83.8506 69.7413 84.3093 69.496C84.7679 69.2507 85.1359 68.8827 85.4133 68.392C85.7013 67.9013 85.8453 67.304 85.8453 66.6C85.8453 65.896 85.7066 65.2987 85.4293 64.808C85.1519 64.3173 84.7893 63.9547 84.3413 63.72C83.8933 63.4747 83.4079 63.352 82.8853 63.352C82.3519 63.352 81.8613 63.4747 81.4133 63.72C80.9759 63.9547 80.6239 64.3173 80.3573 64.808C80.0906 65.2987 79.9573 65.896 79.9573 66.6C79.9573 67.3147 80.0853 67.9173 80.3413 68.408C80.6079 68.8987 80.9599 69.2667 81.3973 69.512C81.8346 69.7467 82.3146 69.864 82.8373 69.864ZM93.5196 62.072C94.5863 62.072 95.4503 62.3973 96.1116 63.048C96.773 63.688 97.1036 64.616 97.1036 65.832V71H95.6636V66.04C95.6636 65.1653 95.445 64.4987 95.0076 64.04C94.5703 63.5707 93.973 63.336 93.2156 63.336C92.4476 63.336 91.8343 63.576 91.3756 64.056C90.9276 64.536 90.7036 65.2347 90.7036 66.152V71H89.2476V62.232H90.7036V63.48C90.9916 63.032 91.381 62.6853 91.8716 62.44C92.373 62.1947 92.9223 62.072 93.5196 62.072ZM103.204 66.584C103.204 65.688 103.385 64.904 103.748 64.232C104.11 63.5493 104.606 63.0213 105.236 62.648C105.876 62.2747 106.585 62.088 107.364 62.088C108.132 62.088 108.798 62.2533 109.364 62.584C109.929 62.9147 110.35 63.3307 110.628 63.832V62.232H112.1V71H110.628V69.368C110.34 69.88 109.908 70.3067 109.332 70.648C108.766 70.9787 108.105 71.144 107.348 71.144C106.569 71.144 105.865 70.952 105.236 70.568C104.606 70.184 104.11 69.6453 103.748 68.952C103.385 68.2587 103.204 67.4693 103.204 66.584ZM110.628 66.6C110.628 65.9387 110.494 65.3627 110.228 64.872C109.961 64.3813 109.598 64.008 109.14 63.752C108.692 63.4853 108.196 63.352 107.652 63.352C107.108 63.352 106.612 63.48 106.164 63.736C105.716 63.992 105.358 64.3653 105.092 64.856C104.825 65.3467 104.692 65.9227 104.692 66.584C104.692 67.256 104.825 67.8427 105.092 68.344C105.358 68.8347 105.716 69.2133 106.164 69.48C106.612 69.736 107.108 69.864 107.652 69.864C108.196 69.864 108.692 69.736 109.14 69.48C109.598 69.2133 109.961 68.8347 110.228 68.344C110.494 67.8427 110.628 67.2613 110.628 66.6ZM118.832 62.072C119.899 62.072 120.763 62.3973 121.424 63.048C122.085 63.688 122.416 64.616 122.416 65.832V71H120.976V66.04C120.976 65.1653 120.757 64.4987 120.32 64.04C119.883 63.5707 119.285 63.336 118.528 63.336C117.76 63.336 117.147 63.576 116.688 64.056C116.24 64.536 116.016 65.2347 116.016 66.152V71H114.56V62.232H116.016V63.48C116.304 63.032 116.693 62.6853 117.184 62.44C117.685 62.1947 118.235 62.072 118.832 62.072ZM129.812 60.808C129.535 60.808 129.3 60.712 129.108 60.52C128.916 60.328 128.82 60.0933 128.82 59.816C128.82 59.5387 128.916 59.304 129.108 59.112C129.3 58.92 129.535 58.824 129.812 58.824C130.079 58.824 130.303 58.92 130.484 59.112C130.676 59.304 130.772 59.5387 130.772 59.816C130.772 60.0933 130.676 60.328 130.484 60.52C130.303 60.712 130.079 60.808 129.812 60.808ZM130.516 62.232V71H129.06V62.232H130.516ZM137.27 62.072C138.336 62.072 139.2 62.3973 139.862 63.048C140.523 63.688 140.854 64.616 140.854 65.832V71H139.414V66.04C139.414 65.1653 139.195 64.4987 138.758 64.04C138.32 63.5707 137.723 63.336 136.966 63.336C136.198 63.336 135.584 63.576 135.126 64.056C134.678 64.536 134.454 65.2347 134.454 66.152V71H132.998V62.232H134.454V63.48C134.742 63.032 135.131 62.6853 135.622 62.44C136.123 62.1947 136.672 62.072 137.27 62.072ZM145.008 63.432V68.6C145.008 69.0267 145.099 69.3307 145.28 69.512C145.461 69.6827 145.776 69.768 146.224 69.768H147.296V71H145.984C145.173 71 144.565 70.8133 144.16 70.44C143.755 70.0667 143.552 69.4533 143.552 68.6V63.432H142.416V62.232H143.552V60.024H145.008V62.232H147.296V63.432H145.008ZM157.06 66.28C157.06 66.5573 157.044 66.8507 157.012 67.16H150.004C150.057 68.024 150.351 68.7013 150.884 69.192C151.428 69.672 152.084 69.912 152.852 69.912C153.481 69.912 154.004 69.768 154.42 69.48C154.847 69.1813 155.145 68.7867 155.316 68.296H156.884C156.649 69.1387 156.18 69.8267 155.476 70.36C154.772 70.8827 153.897 71.144 152.852 71.144C152.02 71.144 151.273 70.9573 150.612 70.584C149.961 70.2107 149.449 69.6827 149.076 69C148.703 68.3067 148.516 67.5067 148.516 66.6C148.516 65.6933 148.697 64.8987 149.06 64.216C149.423 63.5333 149.929 63.0107 150.58 62.648C151.241 62.2747 151.999 62.088 152.852 62.088C153.684 62.088 154.42 62.2693 155.06 62.632C155.7 62.9947 156.191 63.496 156.532 64.136C156.884 64.7653 157.06 65.48 157.06 66.28ZM155.556 65.976C155.556 65.4213 155.433 64.9467 155.188 64.552C154.943 64.1467 154.607 63.8427 154.18 63.64C153.764 63.4267 153.3 63.32 152.788 63.32C152.052 63.32 151.423 63.5547 150.9 64.024C150.388 64.4933 150.095 65.144 150.02 65.976H155.556ZM160.438 63.656C160.694 63.1547 161.057 62.7653 161.526 62.488C162.006 62.2107 162.587 62.072 163.27 62.072V63.576H162.886C161.254 63.576 160.438 64.4613 160.438 66.232V71H158.982V62.232H160.438V63.656ZM172.951 66.28C172.951 66.5573 172.935 66.8507 172.903 67.16H165.895C165.948 68.024 166.241 68.7013 166.775 69.192C167.319 69.672 167.975 69.912 168.743 69.912C169.372 69.912 169.895 69.768 170.311 69.48C170.737 69.1813 171.036 68.7867 171.207 68.296H172.775C172.54 69.1387 172.071 69.8267 171.367 70.36C170.663 70.8827 169.788 71.144 168.743 71.144C167.911 71.144 167.164 70.9573 166.503 70.584C165.852 70.2107 165.34 69.6827 164.967 69C164.593 68.3067 164.407 67.5067 164.407 66.6C164.407 65.6933 164.588 64.8987 164.951 64.216C165.313 63.5333 165.82 63.0107 166.471 62.648C167.132 62.2747 167.889 62.088 168.743 62.088C169.575 62.088 170.311 62.2693 170.951 62.632C171.591 62.9947 172.081 63.496 172.423 64.136C172.775 64.7653 172.951 65.48 172.951 66.28ZM171.447 65.976C171.447 65.4213 171.324 64.9467 171.079 64.552C170.833 64.1467 170.497 63.8427 170.071 63.64C169.655 63.4267 169.191 63.32 168.679 63.32C167.943 63.32 167.313 63.5547 166.791 64.024C166.279 64.4933 165.985 65.144 165.911 65.976H171.447ZM177.977 71.144C177.305 71.144 176.702 71.032 176.169 70.808C175.635 70.5733 175.214 70.2533 174.905 69.848C174.595 69.432 174.425 68.9573 174.393 68.424H175.897C175.939 68.8613 176.142 69.2187 176.505 69.496C176.878 69.7733 177.363 69.912 177.961 69.912C178.515 69.912 178.953 69.7893 179.273 69.544C179.593 69.2987 179.753 68.9893 179.753 68.616C179.753 68.232 179.582 67.9493 179.241 67.768C178.899 67.576 178.371 67.3893 177.657 67.208C177.006 67.0373 176.473 66.8667 176.057 66.696C175.651 66.5147 175.299 66.2533 175.001 65.912C174.713 65.56 174.569 65.1013 174.569 64.536C174.569 64.088 174.702 63.6773 174.969 63.304C175.235 62.9307 175.614 62.6373 176.105 62.424C176.595 62.2 177.155 62.088 177.785 62.088C178.755 62.088 179.539 62.3333 180.137 62.824C180.734 63.3147 181.054 63.9867 181.097 64.84H179.641C179.609 64.3813 179.422 64.0133 179.081 63.736C178.75 63.4587 178.302 63.32 177.737 63.32C177.214 63.32 176.798 63.432 176.489 63.656C176.179 63.88 176.025 64.1733 176.025 64.536C176.025 64.824 176.115 65.064 176.297 65.256C176.489 65.4373 176.723 65.5867 177.001 65.704C177.289 65.8107 177.683 65.9333 178.185 66.072C178.814 66.2427 179.326 66.4133 179.721 66.584C180.115 66.744 180.451 66.9893 180.729 67.32C181.017 67.6507 181.166 68.0827 181.177 68.616C181.177 69.096 181.043 69.528 180.777 69.912C180.51 70.296 180.131 70.6 179.641 70.824C179.161 71.0373 178.606 71.144 177.977 71.144ZM185.008 63.432V68.6C185.008 69.0267 185.099 69.3307 185.28 69.512C185.461 69.6827 185.776 69.768 186.224 69.768H187.296V71H185.984C185.173 71 184.565 70.8133 184.16 70.44C183.755 70.0667 183.552 69.4533 183.552 68.6V63.432H182.416V62.232H183.552V60.024H185.008V62.232H187.296V63.432H185.008ZM189.812 60.808C189.535 60.808 189.3 60.712 189.108 60.52C188.916 60.328 188.82 60.0933 188.82 59.816C188.82 59.5387 188.916 59.304 189.108 59.112C189.3 58.92 189.535 58.824 189.812 58.824C190.079 58.824 190.303 58.92 190.484 59.112C190.676 59.304 190.772 59.5387 190.772 59.816C190.772 60.0933 190.676 60.328 190.484 60.52C190.303 60.712 190.079 60.808 189.812 60.808ZM190.516 62.232V71H189.06V62.232H190.516ZM197.27 62.072C198.336 62.072 199.2 62.3973 199.862 63.048C200.523 63.688 200.854 64.616 200.854 65.832V71H199.414V66.04C199.414 65.1653 199.195 64.4987 198.758 64.04C198.32 63.5707 197.723 63.336 196.966 63.336C196.198 63.336 195.584 63.576 195.126 64.056C194.678 64.536 194.454 65.2347 194.454 66.152V71H192.998V62.232H194.454V63.48C194.742 63.032 195.131 62.6853 195.622 62.44C196.123 62.1947 196.672 62.072 197.27 62.072ZM206.848 62.088C207.605 62.088 208.267 62.2533 208.832 62.584C209.408 62.9147 209.835 63.3307 210.112 63.832V62.232H211.584V71.192C211.584 71.992 211.413 72.7013 211.072 73.32C210.731 73.9493 210.24 74.44 209.6 74.792C208.971 75.144 208.235 75.32 207.392 75.32C206.24 75.32 205.28 75.048 204.512 74.504C203.744 73.96 203.291 73.2187 203.152 72.28H204.592C204.752 72.8133 205.083 73.24 205.584 73.56C206.085 73.8907 206.688 74.056 207.392 74.056C208.192 74.056 208.843 73.8053 209.344 73.304C209.856 72.8027 210.112 72.0987 210.112 71.192V69.352C209.824 69.864 209.397 70.2907 208.832 70.632C208.267 70.9733 207.605 71.144 206.848 71.144C206.069 71.144 205.36 70.952 204.72 70.568C204.091 70.184 203.595 69.6453 203.232 68.952C202.869 68.2587 202.688 67.4693 202.688 66.584C202.688 65.688 202.869 64.904 203.232 64.232C203.595 63.5493 204.091 63.0213 204.72 62.648C205.36 62.2747 206.069 62.088 206.848 62.088ZM210.112 66.6C210.112 65.9387 209.979 65.3627 209.712 64.872C209.445 64.3813 209.083 64.008 208.624 63.752C208.176 63.4853 207.68 63.352 207.136 63.352C206.592 63.352 206.096 63.48 205.648 63.736C205.2 63.992 204.843 64.3653 204.576 64.856C204.309 65.3467 204.176 65.9227 204.176 66.584C204.176 67.256 204.309 67.8427 204.576 68.344C204.843 68.8347 205.2 69.2133 205.648 69.48C206.096 69.736 206.592 69.864 207.136 69.864C207.68 69.864 208.176 69.736 208.624 69.48C209.083 69.2133 209.445 68.8347 209.712 68.344C209.979 67.8427 210.112 67.2613 210.112 66.6ZM219.094 60.808C218.817 60.808 218.582 60.712 218.39 60.52C218.209 60.328 218.118 60.0933 218.118 59.816C218.118 59.5387 218.209 59.304 218.39 59.112C218.582 58.92 218.817 58.824 219.094 58.824C219.371 58.824 219.601 58.92 219.782 59.112C219.974 59.304 220.07 59.5387 220.07 59.816C220.07 60.0933 219.974 60.328 219.782 60.52C219.601 60.712 219.371 60.808 219.094 60.808ZM219.814 72.904C219.814 73.6827 219.617 74.2533 219.222 74.616C218.827 74.9787 218.251 75.16 217.494 75.16H216.646V73.928H217.254C217.659 73.928 217.942 73.848 218.102 73.688C218.273 73.528 218.358 73.256 218.358 72.872V62.232H219.814V72.904ZM226.103 71.144C225.282 71.144 224.535 70.9573 223.863 70.584C223.202 70.2107 222.679 69.6827 222.295 69C221.922 68.3067 221.735 67.5067 221.735 66.6C221.735 65.704 221.927 64.9147 222.311 64.232C222.706 63.5387 223.239 63.0107 223.911 62.648C224.583 62.2747 225.335 62.088 226.167 62.088C226.999 62.088 227.751 62.2747 228.423 62.648C229.095 63.0107 229.623 63.5333 230.007 64.216C230.402 64.8987 230.599 65.6933 230.599 66.6C230.599 67.5067 230.396 68.3067 229.991 69C229.596 69.6827 229.058 70.2107 228.375 70.584C227.692 70.9573 226.935 71.144 226.103 71.144ZM226.103 69.864C226.626 69.864 227.116 69.7413 227.575 69.496C228.034 69.2507 228.402 68.8827 228.679 68.392C228.967 67.9013 229.111 67.304 229.111 66.6C229.111 65.896 228.972 65.2987 228.695 64.808C228.418 64.3173 228.055 63.9547 227.607 63.72C227.159 63.4747 226.674 63.352 226.151 63.352C225.618 63.352 225.127 63.4747 224.679 63.72C224.242 63.9547 223.89 64.3173 223.623 64.808C223.356 65.2987 223.223 65.896 223.223 66.6C223.223 67.3147 223.351 67.9173 223.607 68.408C223.874 68.8987 224.226 69.2667 224.663 69.512C225.1 69.7467 225.58 69.864 226.103 69.864ZM240.289 62.232V71H238.833V69.704C238.556 70.152 238.167 70.504 237.665 70.76C237.175 71.0053 236.631 71.128 236.033 71.128C235.351 71.128 234.737 70.9893 234.193 70.712C233.649 70.424 233.217 69.9973 232.897 69.432C232.588 68.8667 232.433 68.1787 232.433 67.368V62.232H233.873V67.176C233.873 68.04 234.092 68.7067 234.529 69.176C234.967 69.6347 235.564 69.864 236.321 69.864C237.1 69.864 237.713 69.624 238.161 69.144C238.609 68.664 238.833 67.9653 238.833 67.048V62.232H240.289ZM244.204 63.656C244.46 63.1547 244.822 62.7653 245.292 62.488C245.772 62.2107 246.353 62.072 247.036 62.072V63.576H246.652C245.02 63.576 244.204 64.4613 244.204 66.232V71H242.748V62.232H244.204V63.656ZM252.988 62.072C254.055 62.072 254.919 62.3973 255.58 63.048C256.242 63.688 256.572 64.616 256.572 65.832V71H255.132V66.04C255.132 65.1653 254.914 64.4987 254.476 64.04C254.039 63.5707 253.442 63.336 252.684 63.336C251.916 63.336 251.303 63.576 250.844 64.056C250.396 64.536 250.172 65.2347 250.172 66.152V71H248.716V62.232H250.172V63.48C250.46 63.032 250.85 62.6853 251.34 62.44C251.842 62.1947 252.391 62.072 252.988 62.072ZM266.951 66.28C266.951 66.5573 266.935 66.8507 266.903 67.16H259.895C259.948 68.024 260.241 68.7013 260.775 69.192C261.319 69.672 261.975 69.912 262.743 69.912C263.372 69.912 263.895 69.768 264.311 69.48C264.737 69.1813 265.036 68.7867 265.207 68.296H266.775C266.54 69.1387 266.071 69.8267 265.367 70.36C264.663 70.8827 263.788 71.144 262.743 71.144C261.911 71.144 261.164 70.9573 260.503 70.584C259.852 70.2107 259.34 69.6827 258.967 69C258.593 68.3067 258.407 67.5067 258.407 66.6C258.407 65.6933 258.588 64.8987 258.951 64.216C259.313 63.5333 259.82 63.0107 260.471 62.648C261.132 62.2747 261.889 62.088 262.743 62.088C263.575 62.088 264.311 62.2693 264.951 62.632C265.591 62.9947 266.081 63.496 266.423 64.136C266.775 64.7653 266.951 65.48 266.951 66.28ZM265.447 65.976C265.447 65.4213 265.324 64.9467 265.079 64.552C264.833 64.1467 264.497 63.8427 264.071 63.64C263.655 63.4267 263.191 63.32 262.679 63.32C261.943 63.32 261.313 63.5547 260.791 64.024C260.279 64.4933 259.985 65.144 259.911 65.976H265.447ZM276.425 62.232L271.145 75.128H269.641L271.369 70.904L267.833 62.232H269.449L272.201 69.336L274.921 62.232H276.425ZM283.93 63.432V68.6C283.93 69.0267 284.021 69.3307 284.202 69.512C284.383 69.6827 284.698 69.768 285.146 69.768H286.218V71H284.906C284.095 71 283.487 70.8133 283.082 70.44C282.677 70.0667 282.474 69.4533 282.474 68.6V63.432H281.338V62.232H282.474V60.024H283.93V62.232H286.218V63.432H283.93ZM291.806 71.144C290.985 71.144 290.238 70.9573 289.566 70.584C288.905 70.2107 288.382 69.6827 287.998 69C287.625 68.3067 287.438 67.5067 287.438 66.6C287.438 65.704 287.63 64.9147 288.014 64.232C288.409 63.5387 288.942 63.0107 289.614 62.648C290.286 62.2747 291.038 62.088 291.87 62.088C292.702 62.088 293.454 62.2747 294.126 62.648C294.798 63.0107 295.326 63.5333 295.71 64.216C296.105 64.8987 296.302 65.6933 296.302 66.6C296.302 67.5067 296.099 68.3067 295.694 69C295.299 69.6827 294.761 70.2107 294.078 70.584C293.395 70.9573 292.638 71.144 291.806 71.144ZM291.806 69.864C292.329 69.864 292.819 69.7413 293.278 69.496C293.737 69.2507 294.105 68.8827 294.382 68.392C294.67 67.9013 294.814 67.304 294.814 66.6C294.814 65.896 294.675 65.2987 294.398 64.808C294.121 64.3173 293.758 63.9547 293.31 63.72C292.862 63.4747 292.377 63.352 291.854 63.352C291.321 63.352 290.83 63.4747 290.382 63.72C289.945 63.9547 289.593 64.3173 289.326 64.808C289.059 65.2987 288.926 65.896 288.926 66.6C288.926 67.3147 289.054 67.9173 289.31 68.408C289.577 68.8987 289.929 69.2667 290.366 69.512C290.803 69.7467 291.283 69.864 291.806 69.864ZM21.0121 84.088C21.7694 84.088 22.4307 84.2533 22.9961 84.584C23.5721 84.9147 23.9987 85.3307 24.2761 85.832V84.232H25.7481V93.192C25.7481 93.992 25.5774 94.7013 25.2361 95.32C24.8947 95.9493 24.4041 96.44 23.7641 96.792C23.1347 97.144 22.3987 97.32 21.5561 97.32C20.4041 97.32 19.4441 97.048 18.6761 96.504C17.9081 95.96 17.4547 95.2187 17.3161 94.28H18.7561C18.9161 94.8133 19.2467 95.24 19.7481 95.56C20.2494 95.8907 20.8521 96.056 21.5561 96.056C22.3561 96.056 23.0067 95.8053 23.5081 95.304C24.0201 94.8027 24.2761 94.0987 24.2761 93.192V91.352C23.9881 91.864 23.5614 92.2907 22.9961 92.632C22.4307 92.9733 21.7694 93.144 21.0121 93.144C20.2334 93.144 19.5241 92.952 18.8841 92.568C18.2547 92.184 17.7587 91.6453 17.3961 90.952C17.0334 90.2587 16.8521 89.4693 16.8521 88.584C16.8521 87.688 17.0334 86.904 17.3961 86.232C17.7587 85.5493 18.2547 85.0213 18.8841 84.648C19.5241 84.2747 20.2334 84.088 21.0121 84.088ZM24.2761 88.6C24.2761 87.9387 24.1427 87.3627 23.8761 86.872C23.6094 86.3813 23.2467 86.008 22.7881 85.752C22.3401 85.4853 21.8441 85.352 21.3001 85.352C20.7561 85.352 20.2601 85.48 19.8121 85.736C19.3641 85.992 19.0067 86.3653 18.7401 86.856C18.4734 87.3467 18.3401 87.9227 18.3401 88.584C18.3401 89.256 18.4734 89.8427 18.7401 90.344C19.0067 90.8347 19.3641 91.2133 19.8121 91.48C20.2601 91.736 20.7561 91.864 21.3001 91.864C21.8441 91.864 22.3401 91.736 22.7881 91.48C23.2467 91.2133 23.6094 90.8347 23.8761 90.344C24.1427 89.8427 24.2761 89.2613 24.2761 88.6ZM28.9606 82.808C28.6832 82.808 28.4486 82.712 28.2566 82.52C28.0646 82.328 27.9686 82.0933 27.9686 81.816C27.9686 81.5387 28.0646 81.304 28.2566 81.112C28.4486 80.92 28.6832 80.824 28.9606 80.824C29.2272 80.824 29.4512 80.92 29.6326 81.112C29.8246 81.304 29.9206 81.5387 29.9206 81.816C29.9206 82.0933 29.8246 82.328 29.6326 82.52C29.4512 82.712 29.2272 82.808 28.9606 82.808ZM29.6646 84.232V93H28.2086V84.232H29.6646ZM35.4101 91.656L38.1301 84.232H39.6821L36.2421 93H34.5461L31.1061 84.232H32.6741L35.4101 91.656ZM49.1148 88.28C49.1148 88.5573 49.0988 88.8507 49.0668 89.16H42.0588C42.1121 90.024 42.4055 90.7013 42.9388 91.192C43.4828 91.672 44.1388 91.912 44.9068 91.912C45.5361 91.912 46.0588 91.768 46.4748 91.48C46.9015 91.1813 47.2001 90.7867 47.3708 90.296H48.9388C48.7041 91.1387 48.2348 91.8267 47.5308 92.36C46.8268 92.8827 45.9521 93.144 44.9068 93.144C44.0748 93.144 43.3281 92.9573 42.6668 92.584C42.0161 92.2107 41.5041 91.6827 41.1308 91C40.7575 90.3067 40.5708 89.5067 40.5708 88.6C40.5708 87.6933 40.7521 86.8987 41.1148 86.216C41.4775 85.5333 41.9841 85.0107 42.6348 84.648C43.2961 84.2747 44.0535 84.088 44.9068 84.088C45.7388 84.088 46.4748 84.2693 47.1148 84.632C47.7548 84.9947 48.2455 85.496 48.5868 86.136C48.9388 86.7653 49.1148 87.48 49.1148 88.28ZM47.6108 87.976C47.6108 87.4213 47.4881 86.9467 47.2428 86.552C46.9975 86.1467 46.6615 85.8427 46.2348 85.64C45.8188 85.4267 45.3548 85.32 44.8428 85.32C44.1068 85.32 43.4775 85.5547 42.9548 86.024C42.4428 86.4933 42.1495 87.144 42.0748 87.976H47.6108ZM54.7583 88.584C54.7583 87.688 54.9396 86.904 55.3023 86.232C55.665 85.5493 56.161 85.0213 56.7903 84.648C57.4303 84.2747 58.1396 84.088 58.9183 84.088C59.6863 84.088 60.353 84.2533 60.9183 84.584C61.4836 84.9147 61.905 85.3307 62.1823 85.832V84.232H63.6543V93H62.1823V91.368C61.8943 91.88 61.4623 92.3067 60.8863 92.648C60.321 92.9787 59.6596 93.144 58.9023 93.144C58.1236 93.144 57.4196 92.952 56.7903 92.568C56.161 92.184 55.665 91.6453 55.3023 90.952C54.9396 90.2587 54.7583 89.4693 54.7583 88.584ZM62.1823 88.6C62.1823 87.9387 62.049 87.3627 61.7823 86.872C61.5156 86.3813 61.153 86.008 60.6943 85.752C60.2463 85.4853 59.7503 85.352 59.2063 85.352C58.6623 85.352 58.1663 85.48 57.7183 85.736C57.2703 85.992 56.913 86.3653 56.6463 86.856C56.3796 87.3467 56.2463 87.9227 56.2463 88.584C56.2463 89.256 56.3796 89.8427 56.6463 90.344C56.913 90.8347 57.2703 91.2133 57.7183 91.48C58.1663 91.736 58.6623 91.864 59.2063 91.864C59.7503 91.864 60.2463 91.736 60.6943 91.48C61.153 91.2133 61.5156 90.8347 61.7823 90.344C62.049 89.8427 62.1823 89.2613 62.1823 88.6ZM70.3868 84.072C71.4535 84.072 72.3175 84.3973 72.9788 85.048C73.6401 85.688 73.9708 86.616 73.9708 87.832V93H72.5308V88.04C72.5308 87.1653 72.3121 86.4987 71.8748 86.04C71.4375 85.5707 70.8401 85.336 70.0828 85.336C69.3148 85.336 68.7015 85.576 68.2428 86.056C67.7948 86.536 67.5708 87.2347 67.5708 88.152V93H66.1148V84.232H67.5708V85.48C67.8588 85.032 68.2481 84.6853 68.7388 84.44C69.2401 84.1947 69.7895 84.072 70.3868 84.072ZM80.0708 88.584C80.0708 87.688 80.2521 86.904 80.6148 86.232C80.9775 85.5493 81.4735 85.0213 82.1028 84.648C82.7428 84.2747 83.4521 84.088 84.2308 84.088C84.9988 84.088 85.6655 84.2533 86.2308 84.584C86.7961 84.9147 87.2175 85.3307 87.4948 85.832V84.232H88.9668V93H87.4948V91.368C87.2068 91.88 86.7748 92.3067 86.1988 92.648C85.6335 92.9787 84.9721 93.144 84.2148 93.144C83.4361 93.144 82.7321 92.952 82.1028 92.568C81.4735 92.184 80.9775 91.6453 80.6148 90.952C80.2521 90.2587 80.0708 89.4693 80.0708 88.584ZM87.4948 88.6C87.4948 87.9387 87.3615 87.3627 87.0948 86.872C86.8281 86.3813 86.4655 86.008 86.0068 85.752C85.5588 85.4853 85.0628 85.352 84.5188 85.352C83.9748 85.352 83.4788 85.48 83.0308 85.736C82.5828 85.992 82.2255 86.3653 81.9588 86.856C81.6921 87.3467 81.5588 87.9227 81.5588 88.584C81.5588 89.256 81.6921 89.8427 81.9588 90.344C82.2255 90.8347 82.5828 91.2133 83.0308 91.48C83.4788 91.736 83.9748 91.864 84.5188 91.864C85.0628 91.864 85.5588 91.736 86.0068 91.48C86.4655 91.2133 86.8281 90.8347 87.0948 90.344C87.3615 89.8427 87.4948 89.2613 87.4948 88.6ZM92.8833 85.864C93.182 85.3413 93.6193 84.9147 94.1953 84.584C94.7713 84.2533 95.4273 84.088 96.1633 84.088C96.9526 84.088 97.662 84.2747 98.2913 84.648C98.9206 85.0213 99.4166 85.5493 99.7793 86.232C100.142 86.904 100.323 87.688 100.323 88.584C100.323 89.4693 100.142 90.2587 99.7793 90.952C99.4166 91.6453 98.9153 92.184 98.2753 92.568C97.646 92.952 96.942 93.144 96.1633 93.144C95.406 93.144 94.7393 92.9787 94.1633 92.648C93.598 92.3173 93.1713 91.896 92.8833 91.384V93H91.4273V81.16H92.8833V85.864ZM98.8353 88.584C98.8353 87.9227 98.702 87.3467 98.4353 86.856C98.1686 86.3653 97.806 85.992 97.3473 85.736C96.8993 85.48 96.4033 85.352 95.8593 85.352C95.326 85.352 94.83 85.4853 94.3713 85.752C93.9233 86.008 93.5606 86.3867 93.2833 86.888C93.0166 87.3787 92.8833 87.9493 92.8833 88.6C92.8833 89.2613 93.0166 89.8427 93.2833 90.344C93.5606 90.8347 93.9233 91.2133 94.3713 91.48C94.83 91.736 95.326 91.864 95.8593 91.864C96.4033 91.864 96.8993 91.736 97.3473 91.48C97.806 91.2133 98.1686 90.8347 98.4353 90.344C98.702 89.8427 98.8353 89.256 98.8353 88.584ZM102.992 82.808C102.714 82.808 102.48 82.712 102.288 82.52C102.096 82.328 102 82.0933 102 81.816C102 81.5387 102.096 81.304 102.288 81.112C102.48 80.92 102.714 80.824 102.992 80.824C103.258 80.824 103.482 80.92 103.664 81.112C103.856 81.304 103.952 81.5387 103.952 81.816C103.952 82.0933 103.856 82.328 103.664 82.52C103.482 82.712 103.258 82.808 102.992 82.808ZM103.696 84.232V93H102.24V84.232H103.696ZM107.633 81.16V93H106.177V81.16H107.633ZM110.867 82.808C110.589 82.808 110.355 82.712 110.163 82.52C109.971 82.328 109.875 82.0933 109.875 81.816C109.875 81.5387 109.971 81.304 110.163 81.112C110.355 80.92 110.589 80.824 110.867 80.824C111.133 80.824 111.357 80.92 111.539 81.112C111.731 81.304 111.827 81.5387 111.827 81.816C111.827 82.0933 111.731 82.328 111.539 82.52C111.357 82.712 111.133 82.808 110.867 82.808ZM111.571 84.232V93H110.115V84.232H111.571ZM115.828 85.432V90.6C115.828 91.0267 115.919 91.3307 116.1 91.512C116.282 91.6827 116.596 91.768 117.044 91.768H118.116V93H116.804C115.994 93 115.386 92.8133 114.98 92.44C114.575 92.0667 114.372 91.4533 114.372 90.6V85.432H113.236V84.232H114.372V82.024H115.828V84.232H118.116V85.432H115.828ZM127.432 84.232L122.152 97.128H120.648L122.376 92.904L118.84 84.232H120.456L123.208 91.336L125.928 84.232H127.432ZM134.938 85.432V90.6C134.938 91.0267 135.028 91.3307 135.21 91.512C135.391 91.6827 135.706 91.768 136.154 91.768H137.226V93H135.914C135.103 93 134.495 92.8133 134.09 92.44C133.684 92.0667 133.482 91.4533 133.482 90.6V85.432H132.346V84.232H133.482V82.024H134.938V84.232H137.226V85.432H134.938ZM142.814 93.144C141.992 93.144 141.246 92.9573 140.574 92.584C139.912 92.2107 139.39 91.6827 139.006 91C138.632 90.3067 138.446 89.5067 138.446 88.6C138.446 87.704 138.638 86.9147 139.022 86.232C139.416 85.5387 139.95 85.0107 140.622 84.648C141.294 84.2747 142.046 84.088 142.878 84.088C143.71 84.088 144.462 84.2747 145.134 84.648C145.806 85.0107 146.334 85.5333 146.718 86.216C147.112 86.8987 147.31 87.6933 147.31 88.6C147.31 89.5067 147.107 90.3067 146.702 91C146.307 91.6827 145.768 92.2107 145.086 92.584C144.403 92.9573 143.646 93.144 142.814 93.144ZM142.814 91.864C143.336 91.864 143.827 91.7413 144.286 91.496C144.744 91.2507 145.112 90.8827 145.39 90.392C145.678 89.9013 145.822 89.304 145.822 88.6C145.822 87.896 145.683 87.2987 145.406 86.808C145.128 86.3173 144.766 85.9547 144.318 85.72C143.87 85.4747 143.384 85.352 142.862 85.352C142.328 85.352 141.838 85.4747 141.39 85.72C140.952 85.9547 140.6 86.3173 140.334 86.808C140.067 87.2987 139.934 87.896 139.934 88.6C139.934 89.3147 140.062 89.9173 140.318 90.408C140.584 90.8987 140.936 91.2667 141.374 91.512C141.811 91.7467 142.291 91.864 142.814 91.864ZM154.946 85.864C155.244 85.3413 155.682 84.9147 156.258 84.584C156.834 84.2533 157.49 84.088 158.226 84.088C159.015 84.088 159.724 84.2747 160.354 84.648C160.983 85.0213 161.479 85.5493 161.842 86.232C162.204 86.904 162.386 87.688 162.386 88.584C162.386 89.4693 162.204 90.2587 161.842 90.952C161.479 91.6453 160.978 92.184 160.338 92.568C159.708 92.952 159.004 93.144 158.226 93.144C157.468 93.144 156.802 92.9787 156.226 92.648C155.66 92.3173 155.234 91.896 154.946 91.384V93H153.49V81.16H154.946V85.864ZM160.898 88.584C160.898 87.9227 160.764 87.3467 160.498 86.856C160.231 86.3653 159.868 85.992 159.41 85.736C158.962 85.48 158.466 85.352 157.922 85.352C157.388 85.352 156.892 85.4853 156.434 85.752C155.986 86.008 155.623 86.3867 155.346 86.888C155.079 87.3787 154.946 87.9493 154.946 88.6C154.946 89.2613 155.079 89.8427 155.346 90.344C155.623 90.8347 155.986 91.2133 156.434 91.48C156.892 91.736 157.388 91.864 157.922 91.864C158.466 91.864 158.962 91.736 159.41 91.48C159.868 91.2133 160.231 90.8347 160.498 90.344C160.764 89.8427 160.898 89.256 160.898 88.584ZM172.302 88.28C172.302 88.5573 172.286 88.8507 172.254 89.16H165.246C165.3 90.024 165.593 90.7013 166.126 91.192C166.67 91.672 167.326 91.912 168.094 91.912C168.724 91.912 169.246 91.768 169.662 91.48C170.089 91.1813 170.388 90.7867 170.558 90.296H172.126C171.892 91.1387 171.422 91.8267 170.718 92.36C170.014 92.8827 169.14 93.144 168.094 93.144C167.262 93.144 166.516 92.9573 165.854 92.584C165.204 92.2107 164.692 91.6827 164.318 91C163.945 90.3067 163.758 89.5067 163.758 88.6C163.758 87.6933 163.94 86.8987 164.302 86.216C164.665 85.5333 165.172 85.0107 165.822 84.648C166.484 84.2747 167.241 84.088 168.094 84.088C168.926 84.088 169.662 84.2693 170.302 84.632C170.942 84.9947 171.433 85.496 171.774 86.136C172.126 86.7653 172.302 87.48 172.302 88.28ZM170.798 87.976C170.798 87.4213 170.676 86.9467 170.43 86.552C170.185 86.1467 169.849 85.8427 169.422 85.64C169.006 85.4267 168.542 85.32 168.03 85.32C167.294 85.32 166.665 85.5547 166.142 86.024C165.63 86.4933 165.337 87.144 165.262 87.976H170.798ZM182.058 85.432H180.218V93H178.762V85.432H177.626V84.232H178.762V83.608C178.762 82.6267 179.012 81.912 179.514 81.464C180.026 81.0053 180.842 80.776 181.962 80.776V81.992C181.322 81.992 180.868 82.12 180.602 82.376C180.346 82.6213 180.218 83.032 180.218 83.608V84.232H182.058V85.432ZM187.579 93.144C186.758 93.144 186.011 92.9573 185.339 92.584C184.678 92.2107 184.155 91.6827 183.771 91C183.398 90.3067 183.211 89.5067 183.211 88.6C183.211 87.704 183.403 86.9147 183.787 86.232C184.182 85.5387 184.715 85.0107 185.387 84.648C186.059 84.2747 186.811 84.088 187.643 84.088C188.475 84.088 189.227 84.2747 189.899 84.648C190.571 85.0107 191.099 85.5333 191.483 86.216C191.878 86.8987 192.075 87.6933 192.075 88.6C192.075 89.5067 191.873 90.3067 191.467 91C191.073 91.6827 190.534 92.2107 189.851 92.584C189.169 92.9573 188.411 93.144 187.579 93.144ZM187.579 91.864C188.102 91.864 188.593 91.7413 189.051 91.496C189.51 91.2507 189.878 90.8827 190.155 90.392C190.443 89.9013 190.587 89.304 190.587 88.6C190.587 87.896 190.449 87.2987 190.171 86.808C189.894 86.3173 189.531 85.9547 189.083 85.72C188.635 85.4747 188.15 85.352 187.627 85.352C187.094 85.352 186.603 85.4747 186.155 85.72C185.718 85.9547 185.366 86.3173 185.099 86.808C184.833 87.2987 184.699 87.896 184.699 88.6C184.699 89.3147 184.827 89.9173 185.083 90.408C185.35 90.8987 185.702 91.2667 186.139 91.512C186.577 91.7467 187.057 91.864 187.579 91.864ZM201.766 84.232V93H200.31V91.704C200.032 92.152 199.643 92.504 199.142 92.76C198.651 93.0053 198.107 93.128 197.51 93.128C196.827 93.128 196.214 92.9893 195.67 92.712C195.126 92.424 194.694 91.9973 194.374 91.432C194.064 90.8667 193.91 90.1787 193.91 89.368V84.232H195.35V89.176C195.35 90.04 195.568 90.7067 196.006 91.176C196.443 91.6347 197.04 91.864 197.798 91.864C198.576 91.864 199.19 91.624 199.638 91.144C200.086 90.664 200.31 89.9653 200.31 89.048V84.232H201.766ZM208.496 84.072C209.563 84.072 210.427 84.3973 211.088 85.048C211.75 85.688 212.08 86.616 212.08 87.832V93H210.64V88.04C210.64 87.1653 210.422 86.4987 209.984 86.04C209.547 85.5707 208.95 85.336 208.192 85.336C207.424 85.336 206.811 85.576 206.352 86.056C205.904 86.536 205.68 87.2347 205.68 88.152V93H204.224V84.232H205.68V85.48C205.968 85.032 206.358 84.6853 206.848 84.44C207.35 84.1947 207.899 84.072 208.496 84.072ZM213.915 88.584C213.915 87.688 214.096 86.904 214.459 86.232C214.821 85.5493 215.317 85.0213 215.947 84.648C216.587 84.2747 217.301 84.088 218.091 84.088C218.773 84.088 219.408 84.248 219.995 84.568C220.581 84.8773 221.029 85.288 221.339 85.8V81.16H222.811V93H221.339V91.352C221.051 91.8747 220.624 92.3067 220.059 92.648C219.493 92.9787 218.832 93.144 218.075 93.144C217.296 93.144 216.587 92.952 215.947 92.568C215.317 92.184 214.821 91.6453 214.459 90.952C214.096 90.2587 213.915 89.4693 213.915 88.584ZM221.339 88.6C221.339 87.9387 221.205 87.3627 220.939 86.872C220.672 86.3813 220.309 86.008 219.851 85.752C219.403 85.4853 218.907 85.352 218.363 85.352C217.819 85.352 217.323 85.48 216.875 85.736C216.427 85.992 216.069 86.3653 215.803 86.856C215.536 87.3467 215.403 87.9227 215.403 88.584C215.403 89.256 215.536 89.8427 215.803 90.344C216.069 90.8347 216.427 91.2133 216.875 91.48C217.323 91.736 217.819 91.864 218.363 91.864C218.907 91.864 219.403 91.736 219.851 91.48C220.309 91.2133 220.672 90.8347 220.939 90.344C221.205 89.8427 221.339 89.2613 221.339 88.6ZM233.105 85.432H231.265V93H229.809V85.432H228.673V84.232H229.809V83.608C229.809 82.6267 230.059 81.912 230.561 81.464C231.073 81.0053 231.889 80.776 233.009 80.776V81.992C232.369 81.992 231.915 82.12 231.649 82.376C231.393 82.6213 231.265 83.032 231.265 83.608V84.232H233.105V85.432ZM238.626 93.144C237.805 93.144 237.058 92.9573 236.386 92.584C235.725 92.2107 235.202 91.6827 234.818 91C234.445 90.3067 234.258 89.5067 234.258 88.6C234.258 87.704 234.45 86.9147 234.834 86.232C235.229 85.5387 235.762 85.0107 236.434 84.648C237.106 84.2747 237.858 84.088 238.69 84.088C239.522 84.088 240.274 84.2747 240.946 84.648C241.618 85.0107 242.146 85.5333 242.53 86.216C242.925 86.8987 243.122 87.6933 243.122 88.6C243.122 89.5067 242.92 90.3067 242.514 91C242.12 91.6827 241.581 92.2107 240.898 92.584C240.216 92.9573 239.458 93.144 238.626 93.144ZM238.626 91.864C239.149 91.864 239.64 91.7413 240.098 91.496C240.557 91.2507 240.925 90.8827 241.202 90.392C241.49 89.9013 241.634 89.304 241.634 88.6C241.634 87.896 241.496 87.2987 241.218 86.808C240.941 86.3173 240.578 85.9547 240.13 85.72C239.682 85.4747 239.197 85.352 238.674 85.352C238.141 85.352 237.65 85.4747 237.202 85.72C236.765 85.9547 236.413 86.3173 236.146 86.808C235.88 87.2987 235.746 87.896 235.746 88.6C235.746 89.3147 235.874 89.9173 236.13 90.408C236.397 90.8987 236.749 91.2667 237.186 91.512C237.624 91.7467 238.104 91.864 238.626 91.864ZM246.493 85.656C246.749 85.1547 247.111 84.7653 247.581 84.488C248.061 84.2107 248.642 84.072 249.325 84.072V85.576H248.941C247.309 85.576 246.493 86.4613 246.493 88.232V93H245.037V84.232H246.493V85.656ZM263.271 88.28C263.271 88.5573 263.255 88.8507 263.223 89.16H256.215C256.268 90.024 256.562 90.7013 257.095 91.192C257.639 91.672 258.295 91.912 259.063 91.912C259.692 91.912 260.215 91.768 260.631 91.48C261.058 91.1813 261.356 90.7867 261.527 90.296H263.095C262.86 91.1387 262.391 91.8267 261.687 92.36C260.983 92.8827 260.108 93.144 259.063 93.144C258.231 93.144 257.484 92.9573 256.823 92.584C256.172 92.2107 255.66 91.6827 255.287 91C254.914 90.3067 254.727 89.5067 254.727 88.6C254.727 87.6933 254.908 86.8987 255.271 86.216C255.634 85.5333 256.14 85.0107 256.791 84.648C257.452 84.2747 258.21 84.088 259.063 84.088C259.895 84.088 260.631 84.2693 261.271 84.632C261.911 84.9947 262.402 85.496 262.743 86.136C263.095 86.7653 263.271 87.48 263.271 88.28ZM261.767 87.976C261.767 87.4213 261.644 86.9467 261.399 86.552C261.154 86.1467 260.818 85.8427 260.391 85.64C259.975 85.4267 259.511 85.32 258.999 85.32C258.263 85.32 257.634 85.5547 257.111 86.024C256.599 86.4933 256.306 87.144 256.231 87.976H261.767ZM268.457 91.656L271.177 84.232H272.729L269.289 93H267.593L264.153 84.232H265.721L268.457 91.656ZM282.162 88.28C282.162 88.5573 282.146 88.8507 282.114 89.16H275.106C275.159 90.024 275.452 90.7013 275.986 91.192C276.53 91.672 277.186 91.912 277.954 91.912C278.583 91.912 279.106 91.768 279.522 91.48C279.948 91.1813 280.247 90.7867 280.418 90.296H281.986C281.751 91.1387 281.282 91.8267 280.578 92.36C279.874 92.8827 278.999 93.144 277.954 93.144C277.122 93.144 276.375 92.9573 275.714 92.584C275.063 92.2107 274.551 91.6827 274.178 91C273.804 90.3067 273.618 89.5067 273.618 88.6C273.618 87.6933 273.799 86.8987 274.162 86.216C274.524 85.5333 275.031 85.0107 275.682 84.648C276.343 84.2747 277.1 84.088 277.954 84.088C278.786 84.088 279.522 84.2693 280.162 84.632C280.802 84.9947 281.292 85.496 281.634 86.136C281.986 86.7653 282.162 87.48 282.162 88.28ZM280.658 87.976C280.658 87.4213 280.535 86.9467 280.29 86.552C280.044 86.1467 279.708 85.8427 279.282 85.64C278.866 85.4267 278.402 85.32 277.89 85.32C277.154 85.32 276.524 85.5547 276.002 86.024C275.49 86.4933 275.196 87.144 275.122 87.976H280.658ZM285.54 85.656C285.796 85.1547 286.158 84.7653 286.628 84.488C287.108 84.2107 287.689 84.072 288.372 84.072V85.576H287.988C286.356 85.576 285.54 86.4613 285.54 88.232V93H284.084V84.232H285.54V85.656ZM297.604 84.232L292.324 97.128H290.82L292.548 92.904L289.012 84.232H290.628L293.38 91.336L296.1 84.232H297.604ZM19.4181 106.072C20.4847 106.072 21.3487 106.397 22.0101 107.048C22.6714 107.688 23.0021 108.616 23.0021 109.832V115H21.5621V110.04C21.5621 109.165 21.3434 108.499 20.9061 108.04C20.4687 107.571 19.8714 107.336 19.1141 107.336C18.3461 107.336 17.7327 107.576 17.2741 108.056C16.8261 108.536 16.6021 109.235 16.6021 110.152V115H15.1461V106.232H16.6021V107.48C16.8901 107.032 17.2794 106.685 17.7701 106.44C18.2714 106.195 18.8207 106.072 19.4181 106.072ZM29.2044 115.144C28.3831 115.144 27.6364 114.957 26.9644 114.584C26.3031 114.211 25.7804 113.683 25.3964 113C25.0231 112.307 24.8364 111.507 24.8364 110.6C24.8364 109.704 25.0284 108.915 25.4124 108.232C25.8071 107.539 26.3404 107.011 27.0124 106.648C27.6844 106.275 28.4364 106.088 29.2684 106.088C30.1004 106.088 30.8524 106.275 31.5244 106.648C32.1964 107.011 32.7244 107.533 33.1084 108.216C33.5031 108.899 33.7004 109.693 33.7004 110.6C33.7004 111.507 33.4978 112.307 33.0924 113C32.6978 113.683 32.1591 114.211 31.4764 114.584C30.7938 114.957 30.0364 115.144 29.2044 115.144ZM29.2044 113.864C29.7271 113.864 30.2178 113.741 30.6764 113.496C31.1351 113.251 31.5031 112.883 31.7804 112.392C32.0684 111.901 32.2124 111.304 32.2124 110.6C32.2124 109.896 32.0738 109.299 31.7964 108.808C31.5191 108.317 31.1564 107.955 30.7084 107.72C30.2604 107.475 29.7751 107.352 29.2524 107.352C28.7191 107.352 28.2284 107.475 27.7804 107.72C27.3431 107.955 26.9911 108.317 26.7244 108.808C26.4578 109.299 26.3244 109.896 26.3244 110.6C26.3244 111.315 26.4524 111.917 26.7084 112.408C26.9751 112.899 27.3271 113.267 27.7644 113.512C28.2018 113.747 28.6818 113.864 29.2044 113.864ZM39.8868 106.072C40.9535 106.072 41.8175 106.397 42.4788 107.048C43.1401 107.688 43.4708 108.616 43.4708 109.832V115H42.0308V110.04C42.0308 109.165 41.8121 108.499 41.3748 108.04C40.9375 107.571 40.3401 107.336 39.5828 107.336C38.8148 107.336 38.2015 107.576 37.7428 108.056C37.2948 108.536 37.0708 109.235 37.0708 110.152V115H35.6148V106.232H37.0708V107.48C37.3588 107.032 37.7481 106.685 38.2388 106.44C38.7401 106.195 39.2895 106.072 39.8868 106.072ZM51.9292 108.52V109.752H45.5452V108.52H51.9292ZM56.1177 103.16V115H54.6617V103.16H56.1177ZM59.3512 104.808C59.0739 104.808 58.8392 104.712 58.6472 104.52C58.4552 104.328 58.3592 104.093 58.3592 103.816C58.3592 103.539 58.4552 103.304 58.6472 103.112C58.8392 102.92 59.0739 102.824 59.3512 102.824C59.6179 102.824 59.8419 102.92 60.0232 103.112C60.2152 103.304 60.3112 103.539 60.3112 103.816C60.3112 104.093 60.2152 104.328 60.0232 104.52C59.8419 104.712 59.6179 104.808 59.3512 104.808ZM60.0552 106.232V115H58.5992V106.232H60.0552ZM65.8007 113.656L68.5207 106.232H70.0727L66.6327 115H64.9367L61.4967 106.232H63.0647L65.8007 113.656ZM72.2574 104.808C71.9801 104.808 71.7454 104.712 71.5534 104.52C71.3614 104.328 71.2654 104.093 71.2654 103.816C71.2654 103.539 71.3614 103.304 71.5534 103.112C71.7454 102.92 71.9801 102.824 72.2574 102.824C72.5241 102.824 72.7481 102.92 72.9294 103.112C73.1214 103.304 73.2174 103.539 73.2174 103.816C73.2174 104.093 73.1214 104.328 72.9294 104.52C72.7481 104.712 72.5241 104.808 72.2574 104.808ZM72.9614 106.232V115H71.5054V106.232H72.9614ZM79.7149 106.072C80.7816 106.072 81.6456 106.397 82.3069 107.048C82.9683 107.688 83.2989 108.616 83.2989 109.832V115H81.8589V110.04C81.8589 109.165 81.6403 108.499 81.2029 108.04C80.7656 107.571 80.1683 107.336 79.4109 107.336C78.6429 107.336 78.0296 107.576 77.5709 108.056C77.1229 108.536 76.8989 109.235 76.8989 110.152V115H75.4429V106.232H76.8989V107.48C77.1869 107.032 77.5763 106.685 78.0669 106.44C78.5683 106.195 79.1176 106.072 79.7149 106.072ZM89.2933 106.088C90.0506 106.088 90.712 106.253 91.2773 106.584C91.8533 106.915 92.28 107.331 92.5573 107.832V106.232H94.0293V115.192C94.0293 115.992 93.8586 116.701 93.5173 117.32C93.176 117.949 92.6853 118.44 92.0453 118.792C91.416 119.144 90.68 119.32 89.8373 119.32C88.6853 119.32 87.7253 119.048 86.9573 118.504C86.1893 117.96 85.736 117.219 85.5973 116.28H87.0373C87.1973 116.813 87.528 117.24 88.0293 117.56C88.5306 117.891 89.1333 118.056 89.8373 118.056C90.6373 118.056 91.288 117.805 91.7893 117.304C92.3013 116.803 92.5573 116.099 92.5573 115.192V113.352C92.2693 113.864 91.8426 114.291 91.2773 114.632C90.712 114.973 90.0506 115.144 89.2933 115.144C88.5146 115.144 87.8053 114.952 87.1653 114.568C86.536 114.184 86.04 113.645 85.6773 112.952C85.3146 112.259 85.1333 111.469 85.1333 110.584C85.1333 109.688 85.3146 108.904 85.6773 108.232C86.04 107.549 86.536 107.021 87.1653 106.648C87.8053 106.275 88.5146 106.088 89.2933 106.088ZM92.5573 110.6C92.5573 109.939 92.424 109.363 92.1573 108.872C91.8906 108.381 91.528 108.008 91.0693 107.752C90.6213 107.485 90.1253 107.352 89.5813 107.352C89.0373 107.352 88.5413 107.48 88.0933 107.736C87.6453 107.992 87.288 108.365 87.0213 108.856C86.7546 109.347 86.6213 109.923 86.6213 110.584C86.6213 111.256 86.7546 111.843 87.0213 112.344C87.288 112.835 87.6453 113.213 88.0933 113.48C88.5413 113.736 89.0373 113.864 89.5813 113.864C90.1253 113.864 90.6213 113.736 91.0693 113.48C91.528 113.213 91.8906 112.835 92.1573 112.344C92.424 111.843 92.5573 111.261 92.5573 110.6ZM102.531 107.432V112.6C102.531 113.027 102.622 113.331 102.803 113.512C102.985 113.683 103.299 113.768 103.747 113.768H104.819V115H103.507C102.697 115 102.089 114.813 101.683 114.44C101.278 114.067 101.075 113.453 101.075 112.6V107.432H99.9394V106.232H101.075V104.024H102.531V106.232H104.819V107.432H102.531ZM110.936 106.072C111.597 106.072 112.194 106.216 112.728 106.504C113.261 106.781 113.677 107.203 113.976 107.768C114.285 108.333 114.44 109.021 114.44 109.832V115H113V110.04C113 109.165 112.781 108.499 112.344 108.04C111.906 107.571 111.309 107.336 110.552 107.336C109.784 107.336 109.17 107.576 108.712 108.056C108.264 108.536 108.04 109.235 108.04 110.152V115H106.584V103.16H108.04V107.48C108.328 107.032 108.722 106.685 109.224 106.44C109.736 106.195 110.306 106.072 110.936 106.072ZM117.57 104.808C117.293 104.808 117.058 104.712 116.866 104.52C116.674 104.328 116.578 104.093 116.578 103.816C116.578 103.539 116.674 103.304 116.866 103.112C117.058 102.92 117.293 102.824 117.57 102.824C117.837 102.824 118.061 102.92 118.242 103.112C118.434 103.304 118.53 103.539 118.53 103.816C118.53 104.093 118.434 104.328 118.242 104.52C118.061 104.712 117.837 104.808 117.57 104.808ZM118.274 106.232V115H116.818V106.232H118.274ZM125.027 106.072C126.094 106.072 126.958 106.397 127.619 107.048C128.281 107.688 128.611 108.616 128.611 109.832V115H127.171V110.04C127.171 109.165 126.953 108.499 126.515 108.04C126.078 107.571 125.481 107.336 124.723 107.336C123.955 107.336 123.342 107.576 122.883 108.056C122.435 108.536 122.211 109.235 122.211 110.152V115H120.755V106.232H122.211V107.48C122.499 107.032 122.889 106.685 123.379 106.44C123.881 106.195 124.43 106.072 125.027 106.072ZM134.606 106.088C135.363 106.088 136.024 106.253 136.59 106.584C137.166 106.915 137.592 107.331 137.87 107.832V106.232H139.342V115.192C139.342 115.992 139.171 116.701 138.83 117.32C138.488 117.949 137.998 118.44 137.358 118.792C136.728 119.144 135.992 119.32 135.15 119.32C133.998 119.32 133.038 119.048 132.27 118.504C131.502 117.96 131.048 117.219 130.91 116.28H132.35C132.51 116.813 132.84 117.24 133.342 117.56C133.843 117.891 134.446 118.056 135.15 118.056C135.95 118.056 136.6 117.805 137.102 117.304C137.614 116.803 137.87 116.099 137.87 115.192V113.352C137.582 113.864 137.155 114.291 136.59 114.632C136.024 114.973 135.363 115.144 134.606 115.144C133.827 115.144 133.118 114.952 132.478 114.568C131.848 114.184 131.352 113.645 130.99 112.952C130.627 112.259 130.446 111.469 130.446 110.584C130.446 109.688 130.627 108.904 130.99 108.232C131.352 107.549 131.848 107.021 132.478 106.648C133.118 106.275 133.827 106.088 134.606 106.088ZM137.87 110.6C137.87 109.939 137.736 109.363 137.47 108.872C137.203 108.381 136.84 108.008 136.382 107.752C135.934 107.485 135.438 107.352 134.894 107.352C134.35 107.352 133.854 107.48 133.406 107.736C132.958 107.992 132.6 108.365 132.334 108.856C132.067 109.347 131.934 109.923 131.934 110.584C131.934 111.256 132.067 111.843 132.334 112.344C132.6 112.835 132.958 113.213 133.406 113.48C133.854 113.736 134.35 113.864 134.894 113.864C135.438 113.864 135.934 113.736 136.382 113.48C136.84 113.213 137.203 112.835 137.47 112.344C137.736 111.843 137.87 111.261 137.87 110.6ZM144.906 115.144C144.234 115.144 143.632 115.032 143.098 114.808C142.565 114.573 142.144 114.253 141.834 113.848C141.525 113.432 141.354 112.957 141.322 112.424H142.826C142.869 112.861 143.072 113.219 143.434 113.496C143.808 113.773 144.293 113.912 144.89 113.912C145.445 113.912 145.882 113.789 146.202 113.544C146.522 113.299 146.682 112.989 146.682 112.616C146.682 112.232 146.512 111.949 146.17 111.768C145.829 111.576 145.301 111.389 144.586 111.208C143.936 111.037 143.402 110.867 142.986 110.696C142.581 110.515 142.229 110.253 141.93 109.912C141.642 109.56 141.498 109.101 141.498 108.536C141.498 108.088 141.632 107.677 141.898 107.304C142.165 106.931 142.544 106.637 143.034 106.424C143.525 106.2 144.085 106.088 144.714 106.088C145.685 106.088 146.469 106.333 147.066 106.824C147.664 107.315 147.984 107.987 148.026 108.84H146.57C146.538 108.381 146.352 108.013 146.01 107.736C145.68 107.459 145.232 107.32 144.666 107.32C144.144 107.32 143.728 107.432 143.418 107.656C143.109 107.88 142.954 108.173 142.954 108.536C142.954 108.824 143.045 109.064 143.226 109.256C143.418 109.437 143.653 109.587 143.93 109.704C144.218 109.811 144.613 109.933 145.114 110.072C145.744 110.243 146.256 110.413 146.65 110.584C147.045 110.744 147.381 110.989 147.658 111.32C147.946 111.651 148.096 112.083 148.106 112.616C148.106 113.096 147.973 113.528 147.706 113.912C147.44 114.296 147.061 114.6 146.57 114.824C146.09 115.037 145.536 115.144 144.906 115.144ZM166.107 106.232L163.371 115H161.867L159.755 108.04L157.643 115H156.139L153.387 106.232H154.875L156.891 113.592L159.067 106.232H160.555L162.683 113.608L164.667 106.232H166.107ZM171.904 106.072C172.566 106.072 173.163 106.216 173.696 106.504C174.23 106.781 174.646 107.203 174.944 107.768C175.254 108.333 175.408 109.021 175.408 109.832V115H173.968V110.04C173.968 109.165 173.75 108.499 173.312 108.04C172.875 107.571 172.278 107.336 171.52 107.336C170.752 107.336 170.139 107.576 169.68 108.056C169.232 108.536 169.008 109.235 169.008 110.152V115H167.552V103.16H169.008V107.48C169.296 107.032 169.691 106.685 170.192 106.44C170.704 106.195 171.275 106.072 171.904 106.072ZM178.539 104.808C178.261 104.808 178.027 104.712 177.835 104.52C177.643 104.328 177.547 104.093 177.547 103.816C177.547 103.539 177.643 103.304 177.835 103.112C178.027 102.92 178.261 102.824 178.539 102.824C178.805 102.824 179.029 102.92 179.211 103.112C179.403 103.304 179.499 103.539 179.499 103.816C179.499 104.093 179.403 104.328 179.211 104.52C179.029 104.712 178.805 104.808 178.539 104.808ZM179.243 106.232V115H177.787V106.232H179.243ZM181.18 110.6C181.18 109.693 181.362 108.904 181.724 108.232C182.087 107.549 182.588 107.021 183.228 106.648C183.879 106.275 184.62 106.088 185.452 106.088C186.53 106.088 187.415 106.349 188.108 106.872C188.812 107.395 189.276 108.12 189.5 109.048H187.932C187.783 108.515 187.49 108.093 187.052 107.784C186.626 107.475 186.092 107.32 185.452 107.32C184.62 107.32 183.948 107.608 183.436 108.184C182.924 108.749 182.668 109.555 182.668 110.6C182.668 111.656 182.924 112.472 183.436 113.048C183.948 113.624 184.62 113.912 185.452 113.912C186.092 113.912 186.626 113.763 187.052 113.464C187.479 113.165 187.772 112.739 187.932 112.184H189.5C189.266 113.08 188.796 113.8 188.092 114.344C187.388 114.877 186.508 115.144 185.452 115.144C184.62 115.144 183.879 114.957 183.228 114.584C182.588 114.211 182.087 113.683 181.724 113C181.362 112.317 181.18 111.517 181.18 110.6ZM195.795 106.072C196.456 106.072 197.054 106.216 197.587 106.504C198.12 106.781 198.536 107.203 198.835 107.768C199.144 108.333 199.299 109.021 199.299 109.832V115H197.859V110.04C197.859 109.165 197.64 108.499 197.203 108.04C196.766 107.571 196.168 107.336 195.411 107.336C194.643 107.336 194.03 107.576 193.571 108.056C193.123 108.536 192.899 109.235 192.899 110.152V115H191.443V103.16H192.899V107.48C193.187 107.032 193.582 106.685 194.083 106.44C194.595 106.195 195.166 106.072 195.795 106.072ZM207.399 103.16V115H205.943V103.16H207.399ZM210.632 104.808C210.355 104.808 210.12 104.712 209.928 104.52C209.736 104.328 209.64 104.093 209.64 103.816C209.64 103.539 209.736 103.304 209.928 103.112C210.12 102.92 210.355 102.824 210.632 102.824C210.899 102.824 211.123 102.92 211.304 103.112C211.496 103.304 211.592 103.539 211.592 103.816C211.592 104.093 211.496 104.328 211.304 104.52C211.123 104.712 210.899 104.808 210.632 104.808ZM211.336 106.232V115H209.88V106.232H211.336ZM217.082 113.656L219.802 106.232H221.354L217.914 115H216.218L212.778 106.232H214.346L217.082 113.656ZM230.787 110.28C230.787 110.557 230.771 110.851 230.739 111.16H223.731C223.784 112.024 224.077 112.701 224.611 113.192C225.155 113.672 225.811 113.912 226.579 113.912C227.208 113.912 227.731 113.768 228.147 113.48C228.573 113.181 228.872 112.787 229.043 112.296H230.611C230.376 113.139 229.907 113.827 229.203 114.36C228.499 114.883 227.624 115.144 226.579 115.144C225.747 115.144 225 114.957 224.339 114.584C223.688 114.211 223.176 113.683 222.803 113C222.429 112.307 222.243 111.507 222.243 110.6C222.243 109.693 222.424 108.899 222.787 108.216C223.149 107.533 223.656 107.011 224.307 106.648C224.968 106.275 225.725 106.088 226.579 106.088C227.411 106.088 228.147 106.269 228.787 106.632C229.427 106.995 229.917 107.496 230.259 108.136C230.611 108.765 230.787 109.48 230.787 110.28ZM229.283 109.976C229.283 109.421 229.16 108.947 228.915 108.552C228.669 108.147 228.333 107.843 227.907 107.64C227.491 107.427 227.027 107.32 226.515 107.32C225.779 107.32 225.149 107.555 224.627 108.024C224.115 108.493 223.821 109.144 223.747 109.976H229.283ZM235.813 115.144C235.141 115.144 234.538 115.032 234.005 114.808C233.471 114.573 233.05 114.253 232.741 113.848C232.431 113.432 232.261 112.957 232.229 112.424H233.733C233.775 112.861 233.978 113.219 234.341 113.496C234.714 113.773 235.199 113.912 235.797 113.912C236.351 113.912 236.789 113.789 237.109 113.544C237.429 113.299 237.589 112.989 237.589 112.616C237.589 112.232 237.418 111.949 237.077 111.768C236.735 111.576 236.207 111.389 235.493 111.208C234.842 111.037 234.309 110.867 233.893 110.696C233.487 110.515 233.135 110.253 232.837 109.912C232.549 109.56 232.405 109.101 232.405 108.536C232.405 108.088 232.538 107.677 232.805 107.304C233.071 106.931 233.45 106.637 233.941 106.424C234.431 106.2 234.991 106.088 235.621 106.088C236.591 106.088 237.375 106.333 237.973 106.824C238.57 107.315 238.89 107.987 238.933 108.84H237.477C237.445 108.381 237.258 108.013 236.917 107.736C236.586 107.459 236.138 107.32 235.573 107.32C235.05 107.32 234.634 107.432 234.325 107.656C234.015 107.88 233.861 108.173 233.861 108.536C233.861 108.824 233.951 109.064 234.133 109.256C234.325 109.437 234.559 109.587 234.837 109.704C235.125 109.811 235.519 109.933 236.021 110.072C236.65 110.243 237.162 110.413 237.557 110.584C237.951 110.744 238.287 110.989 238.565 111.32C238.853 111.651 239.002 112.083 239.013 112.616C239.013 113.096 238.879 113.528 238.613 113.912C238.346 114.296 237.967 114.6 237.477 114.824C236.997 115.037 236.442 115.144 235.813 115.144ZM257.014 106.232L254.278 115H252.774L250.662 108.04L248.55 115H247.046L244.294 106.232H245.782L247.798 113.592L249.974 106.232H251.462L253.59 113.608L255.574 106.232H257.014ZM259.211 104.808C258.933 104.808 258.699 104.712 258.507 104.52C258.315 104.328 258.219 104.093 258.219 103.816C258.219 103.539 258.315 103.304 258.507 103.112C258.699 102.92 258.933 102.824 259.211 102.824C259.477 102.824 259.701 102.92 259.883 103.112C260.075 103.304 260.171 103.539 260.171 103.816C260.171 104.093 260.075 104.328 259.883 104.52C259.701 104.712 259.477 104.808 259.211 104.808ZM259.915 106.232V115H258.459V106.232H259.915ZM264.172 107.432V112.6C264.172 113.027 264.263 113.331 264.444 113.512C264.625 113.683 264.94 113.768 265.388 113.768H266.46V115H265.148C264.337 115 263.729 114.813 263.324 114.44C262.919 114.067 262.716 113.453 262.716 112.6V107.432H261.58V106.232H262.716V104.024H264.172V106.232H266.46V107.432H264.172ZM272.576 106.072C273.238 106.072 273.835 106.216 274.368 106.504C274.902 106.781 275.318 107.203 275.616 107.768C275.926 108.333 276.08 109.021 276.08 109.832V115H274.64V110.04C274.64 109.165 274.422 108.499 273.984 108.04C273.547 107.571 272.95 107.336 272.192 107.336C271.424 107.336 270.811 107.576 270.352 108.056C269.904 108.536 269.68 109.235 269.68 110.152V115H268.224V103.16H269.68V107.48C269.968 107.032 270.363 106.685 270.864 106.44C271.376 106.195 271.947 106.072 272.576 106.072ZM290.5 106.232V115H289.044V113.704C288.767 114.152 288.378 114.504 287.876 114.76C287.386 115.005 286.842 115.128 286.244 115.128C285.562 115.128 284.948 114.989 284.404 114.712C283.86 114.424 283.428 113.997 283.108 113.432C282.799 112.867 282.644 112.179 282.644 111.368V106.232H284.084V111.176C284.084 112.04 284.303 112.707 284.74 113.176C285.178 113.635 285.775 113.864 286.532 113.864C287.311 113.864 287.924 113.624 288.372 113.144C288.82 112.664 289.044 111.965 289.044 111.048V106.232H290.5ZM296.063 115.144C295.391 115.144 294.788 115.032 294.255 114.808C293.721 114.573 293.3 114.253 292.991 113.848C292.681 113.432 292.511 112.957 292.479 112.424H293.983C294.025 112.861 294.228 113.219 294.591 113.496C294.964 113.773 295.449 113.912 296.047 113.912C296.601 113.912 297.039 113.789 297.359 113.544C297.679 113.299 297.839 112.989 297.839 112.616C297.839 112.232 297.668 111.949 297.327 111.768C296.985 111.576 296.457 111.389 295.743 111.208C295.092 111.037 294.559 110.867 294.143 110.696C293.737 110.515 293.385 110.253 293.087 109.912C292.799 109.56 292.655 109.101 292.655 108.536C292.655 108.088 292.788 107.677 293.055 107.304C293.321 106.931 293.7 106.637 294.191 106.424C294.681 106.2 295.241 106.088 295.871 106.088C296.841 106.088 297.625 106.333 298.223 106.824C298.82 107.315 299.14 107.987 299.183 108.84H297.727C297.695 108.381 297.508 108.013 297.167 107.736C296.836 107.459 296.388 107.32 295.823 107.32C295.3 107.32 294.884 107.432 294.575 107.656C294.265 107.88 294.111 108.173 294.111 108.536C294.111 108.824 294.201 109.064 294.383 109.256C294.575 109.437 294.809 109.587 295.087 109.704C295.375 109.811 295.769 109.933 296.271 110.072C296.9 110.243 297.412 110.413 297.807 110.584C298.201 110.744 298.537 110.989 298.815 111.32C299.103 111.651 299.252 112.083 299.263 112.616C299.263 113.096 299.129 113.528 298.863 113.912C298.596 114.296 298.217 114.6 297.727 114.824C297.247 115.037 296.692 115.144 296.063 115.144ZM66.2661 132.584C66.2661 131.688 66.4475 130.904 66.8101 130.232C67.1728 129.549 67.6688 129.021 68.2981 128.648C68.9381 128.275 69.6475 128.088 70.4261 128.088C71.1941 128.088 71.8608 128.253 72.4261 128.584C72.9915 128.915 73.4128 129.331 73.6901 129.832V128.232H75.1621V137H73.6901V135.368C73.4021 135.88 72.9701 136.307 72.3941 136.648C71.8288 136.979 71.1675 137.144 70.4101 137.144C69.6315 137.144 68.9275 136.952 68.2981 136.568C67.6688 136.184 67.1728 135.645 66.8101 134.952C66.4475 134.259 66.2661 133.469 66.2661 132.584ZM73.6901 132.6C73.6901 131.939 73.5568 131.363 73.2901 130.872C73.0235 130.381 72.6608 130.008 72.2021 129.752C71.7541 129.485 71.2581 129.352 70.7141 129.352C70.1701 129.352 69.6741 129.48 69.2261 129.736C68.7781 129.992 68.4208 130.365 68.1541 130.856C67.8875 131.347 67.7541 131.923 67.7541 132.584C67.7541 133.256 67.8875 133.843 68.1541 134.344C68.4208 134.835 68.7781 135.213 69.2261 135.48C69.6741 135.736 70.1701 135.864 70.7141 135.864C71.2581 135.864 71.7541 135.736 72.2021 135.48C72.6608 135.213 73.0235 134.835 73.2901 134.344C73.5568 133.843 73.6901 133.261 73.6901 132.6ZM81.8946 128.072C82.9613 128.072 83.8253 128.397 84.4866 129.048C85.148 129.688 85.4786 130.616 85.4786 131.832V137H84.0386V132.04C84.0386 131.165 83.82 130.499 83.3826 130.04C82.9453 129.571 82.348 129.336 81.5906 129.336C80.8226 129.336 80.2093 129.576 79.7506 130.056C79.3026 130.536 79.0786 131.235 79.0786 132.152V137H77.6226V128.232H79.0786V129.48C79.3666 129.032 79.756 128.685 80.2466 128.44C80.748 128.195 81.2973 128.072 81.8946 128.072ZM87.313 132.584C87.313 131.688 87.4943 130.904 87.857 130.232C88.2197 129.549 88.7157 129.021 89.345 128.648C89.985 128.275 90.6997 128.088 91.489 128.088C92.1717 128.088 92.8063 128.248 93.393 128.568C93.9797 128.877 94.4277 129.288 94.737 129.8V125.16H96.209V137H94.737V135.352C94.449 135.875 94.0223 136.307 93.457 136.648C92.8917 136.979 92.2303 137.144 91.473 137.144C90.6943 137.144 89.985 136.952 89.345 136.568C88.7157 136.184 88.2197 135.645 87.857 134.952C87.4943 134.259 87.313 133.469 87.313 132.584ZM94.737 132.6C94.737 131.939 94.6037 131.363 94.337 130.872C94.0703 130.381 93.7077 130.008 93.249 129.752C92.801 129.485 92.305 129.352 91.761 129.352C91.217 129.352 90.721 129.48 90.273 129.736C89.825 129.992 89.4677 130.365 89.201 130.856C88.9343 131.347 88.801 131.923 88.801 132.584C88.801 133.256 88.9343 133.843 89.201 134.344C89.4677 134.835 89.825 135.213 90.273 135.48C90.721 135.736 91.217 135.864 91.761 135.864C92.305 135.864 92.801 135.736 93.249 135.48C93.7077 135.213 94.0703 134.835 94.337 134.344C94.6037 133.843 94.737 133.261 94.737 132.6ZM104.711 129.432V134.6C104.711 135.027 104.802 135.331 104.983 135.512C105.164 135.683 105.479 135.768 105.927 135.768H106.999V137H105.687C104.876 137 104.268 136.813 103.863 136.44C103.458 136.067 103.255 135.453 103.255 134.6V129.432H102.119V128.232H103.255V126.024H104.711V128.232H106.999V129.432H104.711ZM113.115 128.072C113.777 128.072 114.374 128.216 114.907 128.504C115.441 128.781 115.857 129.203 116.155 129.768C116.465 130.333 116.619 131.021 116.619 131.832V137H115.179V132.04C115.179 131.165 114.961 130.499 114.523 130.04C114.086 129.571 113.489 129.336 112.731 129.336C111.963 129.336 111.35 129.576 110.891 130.056C110.443 130.536 110.219 131.235 110.219 132.152V137H108.763V125.16H110.219V129.48C110.507 129.032 110.902 128.685 111.403 128.44C111.915 128.195 112.486 128.072 113.115 128.072ZM118.454 132.584C118.454 131.688 118.635 130.904 118.998 130.232C119.36 129.549 119.856 129.021 120.486 128.648C121.126 128.275 121.835 128.088 122.614 128.088C123.382 128.088 124.048 128.253 124.614 128.584C125.179 128.915 125.6 129.331 125.878 129.832V128.232H127.35V137H125.878V135.368C125.59 135.88 125.158 136.307 124.582 136.648C124.016 136.979 123.355 137.144 122.598 137.144C121.819 137.144 121.115 136.952 120.486 136.568C119.856 136.184 119.36 135.645 118.998 134.952C118.635 134.259 118.454 133.469 118.454 132.584ZM125.878 132.6C125.878 131.939 125.744 131.363 125.478 130.872C125.211 130.381 124.848 130.008 124.39 129.752C123.942 129.485 123.446 129.352 122.902 129.352C122.358 129.352 121.862 129.48 121.414 129.736C120.966 129.992 120.608 130.365 120.342 130.856C120.075 131.347 119.942 131.923 119.942 132.584C119.942 133.256 120.075 133.843 120.342 134.344C120.608 134.835 120.966 135.213 121.414 135.48C121.862 135.736 122.358 135.864 122.902 135.864C123.446 135.864 123.942 135.736 124.39 135.48C124.848 135.213 125.211 134.835 125.478 134.344C125.744 133.843 125.878 133.261 125.878 132.6ZM131.586 129.432V134.6C131.586 135.027 131.677 135.331 131.858 135.512C132.039 135.683 132.354 135.768 132.802 135.768H133.874V137H132.562C131.751 137 131.143 136.813 130.738 136.44C130.333 136.067 130.13 135.453 130.13 134.6V129.432H128.994V128.232H130.13V126.024H131.586V128.232H133.874V129.432H131.586ZM150.448 128.072C151.131 128.072 151.739 128.216 152.272 128.504C152.805 128.781 153.227 129.203 153.536 129.768C153.845 130.333 154 131.021 154 131.832V137H152.56V132.04C152.56 131.165 152.341 130.499 151.904 130.04C151.477 129.571 150.896 129.336 150.16 129.336C149.403 129.336 148.8 129.581 148.352 130.072C147.904 130.552 147.68 131.251 147.68 132.168V137H146.24V132.04C146.24 131.165 146.021 130.499 145.584 130.04C145.157 129.571 144.576 129.336 143.84 129.336C143.083 129.336 142.48 129.581 142.032 130.072C141.584 130.552 141.36 131.251 141.36 132.168V137H139.904V128.232H141.36V129.496C141.648 129.037 142.032 128.685 142.512 128.44C143.003 128.195 143.541 128.072 144.128 128.072C144.864 128.072 145.515 128.237 146.08 128.568C146.645 128.899 147.067 129.384 147.344 130.024C147.589 129.405 147.995 128.925 148.56 128.584C149.125 128.243 149.755 128.072 150.448 128.072ZM155.844 132.584C155.844 131.688 156.026 130.904 156.388 130.232C156.751 129.549 157.247 129.021 157.876 128.648C158.516 128.275 159.226 128.088 160.004 128.088C160.772 128.088 161.439 128.253 162.004 128.584C162.57 128.915 162.991 129.331 163.268 129.832V128.232H164.74V137H163.268V135.368C162.98 135.88 162.548 136.307 161.972 136.648C161.407 136.979 160.746 137.144 159.988 137.144C159.21 137.144 158.506 136.952 157.876 136.568C157.247 136.184 156.751 135.645 156.388 134.952C156.026 134.259 155.844 133.469 155.844 132.584ZM163.268 132.6C163.268 131.939 163.135 131.363 162.868 130.872C162.602 130.381 162.239 130.008 161.78 129.752C161.332 129.485 160.836 129.352 160.292 129.352C159.748 129.352 159.252 129.48 158.804 129.736C158.356 129.992 157.999 130.365 157.732 130.856C157.466 131.347 157.332 131.923 157.332 132.584C157.332 133.256 157.466 133.843 157.732 134.344C157.999 134.835 158.356 135.213 158.804 135.48C159.252 135.736 159.748 135.864 160.292 135.864C160.836 135.864 161.332 135.736 161.78 135.48C162.239 135.213 162.602 134.835 162.868 134.344C163.135 133.843 163.268 133.261 163.268 132.6ZM168.977 129.432V134.6C168.977 135.027 169.067 135.331 169.249 135.512C169.43 135.683 169.745 135.768 170.193 135.768H171.265V137H169.953C169.142 137 168.534 136.813 168.129 136.44C167.723 136.067 167.521 135.453 167.521 134.6V129.432H166.385V128.232H167.521V126.024H168.977V128.232H171.265V129.432H168.977ZM174.805 129.432V134.6C174.805 135.027 174.896 135.331 175.077 135.512C175.258 135.683 175.573 135.768 176.021 135.768H177.093V137H175.781C174.97 137 174.362 136.813 173.957 136.44C173.552 136.067 173.349 135.453 173.349 134.6V129.432H172.213V128.232H173.349V126.024H174.805V128.232H177.093V129.432H174.805ZM186.857 132.28C186.857 132.557 186.841 132.851 186.809 133.16H179.801C179.854 134.024 180.148 134.701 180.681 135.192C181.225 135.672 181.881 135.912 182.649 135.912C183.278 135.912 183.801 135.768 184.217 135.48C184.644 135.181 184.942 134.787 185.113 134.296H186.681C186.446 135.139 185.977 135.827 185.273 136.36C184.569 136.883 183.694 137.144 182.649 137.144C181.817 137.144 181.07 136.957 180.409 136.584C179.758 136.211 179.246 135.683 178.873 135C178.5 134.307 178.313 133.507 178.313 132.6C178.313 131.693 178.494 130.899 178.857 130.216C179.22 129.533 179.726 129.011 180.377 128.648C181.038 128.275 181.796 128.088 182.649 128.088C183.481 128.088 184.217 128.269 184.857 128.632C185.497 128.995 185.988 129.496 186.329 130.136C186.681 130.765 186.857 131.48 186.857 132.28ZM185.353 131.976C185.353 131.421 185.23 130.947 184.985 130.552C184.74 130.147 184.404 129.843 183.977 129.64C183.561 129.427 183.097 129.32 182.585 129.32C181.849 129.32 181.22 129.555 180.697 130.024C180.185 130.493 179.892 131.144 179.817 131.976H185.353ZM190.235 129.656C190.491 129.155 190.854 128.765 191.323 128.488C191.803 128.211 192.384 128.072 193.067 128.072V129.576H192.683C191.051 129.576 190.235 130.461 190.235 132.232V137H188.779V128.232H190.235V129.656ZM197.852 137.144C197.18 137.144 196.577 137.032 196.044 136.808C195.51 136.573 195.089 136.253 194.78 135.848C194.47 135.432 194.3 134.957 194.268 134.424H195.772C195.814 134.861 196.017 135.219 196.38 135.496C196.753 135.773 197.238 135.912 197.836 135.912C198.39 135.912 198.828 135.789 199.148 135.544C199.468 135.299 199.628 134.989 199.628 134.616C199.628 134.232 199.457 133.949 199.116 133.768C198.774 133.576 198.246 133.389 197.532 133.208C196.881 133.037 196.348 132.867 195.932 132.696C195.526 132.515 195.174 132.253 194.876 131.912C194.588 131.56 194.444 131.101 194.444 130.536C194.444 130.088 194.577 129.677 194.844 129.304C195.11 128.931 195.489 128.637 195.98 128.424C196.47 128.2 197.03 128.088 197.66 128.088C198.63 128.088 199.414 128.333 200.012 128.824C200.609 129.315 200.929 129.987 200.972 130.84H199.516C199.484 130.381 199.297 130.013 198.956 129.736C198.625 129.459 198.177 129.32 197.612 129.32C197.089 129.32 196.673 129.432 196.364 129.656C196.054 129.88 195.9 130.173 195.9 130.536C195.9 130.824 195.99 131.064 196.172 131.256C196.364 131.437 196.598 131.587 196.876 131.704C197.164 131.811 197.558 131.933 198.06 132.072C198.689 132.243 199.201 132.413 199.596 132.584C199.99 132.744 200.326 132.989 200.604 133.32C200.892 133.651 201.041 134.083 201.052 134.616C201.052 135.096 200.918 135.528 200.652 135.912C200.385 136.296 200.006 136.6 199.516 136.824C199.036 137.037 198.481 137.144 197.852 137.144ZM209.149 129.432V134.6C209.149 135.027 209.239 135.331 209.421 135.512C209.602 135.683 209.917 135.768 210.365 135.768H211.437V137H210.125C209.314 137 208.706 136.813 208.301 136.44C207.895 136.067 207.693 135.453 207.693 134.6V129.432H206.557V128.232H207.693V126.024H209.149V128.232H211.437V129.432H209.149ZM217.025 137.144C216.203 137.144 215.457 136.957 214.785 136.584C214.123 136.211 213.601 135.683 213.217 135C212.843 134.307 212.657 133.507 212.657 132.6C212.657 131.704 212.849 130.915 213.233 130.232C213.627 129.539 214.161 129.011 214.833 128.648C215.505 128.275 216.257 128.088 217.089 128.088C217.921 128.088 218.673 128.275 219.345 128.648C220.017 129.011 220.545 129.533 220.929 130.216C221.323 130.899 221.521 131.693 221.521 132.6C221.521 133.507 221.318 134.307 220.913 135C220.518 135.683 219.979 136.211 219.297 136.584C218.614 136.957 217.857 137.144 217.025 137.144ZM217.025 135.864C217.547 135.864 218.038 135.741 218.497 135.496C218.955 135.251 219.323 134.883 219.601 134.392C219.889 133.901 220.033 133.304 220.033 132.6C220.033 131.896 219.894 131.299 219.617 130.808C219.339 130.317 218.977 129.955 218.529 129.72C218.081 129.475 217.595 129.352 217.073 129.352C216.539 129.352 216.049 129.475 215.601 129.72C215.163 129.955 214.811 130.317 214.545 130.808C214.278 131.299 214.145 131.896 214.145 132.6C214.145 133.315 214.273 133.917 214.529 134.408C214.795 134.899 215.147 135.267 215.585 135.512C216.022 135.747 216.502 135.864 217.025 135.864ZM235.477 128.232V137H234.021V135.704C233.743 136.152 233.354 136.504 232.853 136.76C232.362 137.005 231.818 137.128 231.221 137.128C230.538 137.128 229.925 136.989 229.381 136.712C228.837 136.424 228.405 135.997 228.085 135.432C227.775 134.867 227.621 134.179 227.621 133.368V128.232H229.061V133.176C229.061 134.04 229.279 134.707 229.717 135.176C230.154 135.635 230.751 135.864 231.509 135.864C232.287 135.864 232.901 135.624 233.349 135.144C233.797 134.664 234.021 133.965 234.021 133.048V128.232H235.477ZM241.039 137.144C240.367 137.144 239.764 137.032 239.231 136.808C238.698 136.573 238.276 136.253 237.967 135.848C237.658 135.432 237.487 134.957 237.455 134.424H238.959C239.002 134.861 239.204 135.219 239.567 135.496C239.94 135.773 240.426 135.912 241.023 135.912C241.578 135.912 242.015 135.789 242.335 135.544C242.655 135.299 242.815 134.989 242.815 134.616C242.815 134.232 242.644 133.949 242.303 133.768C241.962 133.576 241.434 133.389 240.719 133.208C240.068 133.037 239.535 132.867 239.119 132.696C238.714 132.515 238.362 132.253 238.063 131.912C237.775 131.56 237.631 131.101 237.631 130.536C237.631 130.088 237.764 129.677 238.031 129.304C238.298 128.931 238.676 128.637 239.167 128.424C239.658 128.2 240.218 128.088 240.847 128.088C241.818 128.088 242.602 128.333 243.199 128.824C243.796 129.315 244.116 129.987 244.159 130.84H242.703C242.671 130.381 242.484 130.013 242.143 129.736C241.812 129.459 241.364 129.32 240.799 129.32C240.276 129.32 239.86 129.432 239.551 129.656C239.242 129.88 239.087 130.173 239.087 130.536C239.087 130.824 239.178 131.064 239.359 131.256C239.551 131.437 239.786 131.587 240.063 131.704C240.351 131.811 240.746 131.933 241.247 132.072C241.876 132.243 242.388 132.413 242.783 132.584C243.178 132.744 243.514 132.989 243.791 133.32C244.079 133.651 244.228 134.083 244.239 134.616C244.239 135.096 244.106 135.528 243.839 135.912C243.572 136.296 243.194 136.6 242.703 136.824C242.223 137.037 241.668 137.144 241.039 137.144ZM246.759 137.096C246.481 137.096 246.247 137 246.055 136.808C245.863 136.616 245.767 136.381 245.767 136.104C245.767 135.827 245.863 135.592 246.055 135.4C246.247 135.208 246.481 135.112 246.759 135.112C247.025 135.112 247.249 135.208 247.431 135.4C247.623 135.592 247.719 135.827 247.719 136.104C247.719 136.381 247.623 136.616 247.431 136.808C247.249 137 247.025 137.096 246.759 137.096Z" fill="black" fill-opacity="0.58"/>
<path d="M94.7289 37.9385C93.1609 37.9385 91.7209 37.5705 90.4089 36.8345C89.0969 36.0985 88.0569 35.0825 87.2889 33.7865C86.5209 32.4745 86.1369 30.9945 86.1369 29.3465C86.1369 27.7145 86.5209 26.2505 87.2889 24.9545C88.0569 23.6425 89.0969 22.6185 90.4089 21.8825C91.7209 21.1465 93.1609 20.7785 94.7289 20.7785C96.3129 20.7785 97.7529 21.1465 99.0489 21.8825C100.361 22.6185 101.393 23.6425 102.145 24.9545C102.913 26.2505 103.297 27.7145 103.297 29.3465C103.297 30.9945 102.913 32.4745 102.145 33.7865C101.393 35.0825 100.361 36.0985 99.0489 36.8345C97.7369 37.5705 96.2969 37.9385 94.7289 37.9385ZM94.7289 34.9385C95.7369 34.9385 96.6249 34.7145 97.3929 34.2665C98.1609 33.8025 98.7609 33.1465 99.1929 32.2985C99.6249 31.4505 99.8409 30.4665 99.8409 29.3465C99.8409 28.2265 99.6249 27.2505 99.1929 26.4185C98.7609 25.5705 98.1609 24.9225 97.3929 24.4745C96.6249 24.0265 95.7369 23.8025 94.7289 23.8025C93.7209 23.8025 92.8249 24.0265 92.0409 24.4745C91.2729 24.9225 90.6729 25.5705 90.2409 26.4185C89.8089 27.2505 89.5929 28.2265 89.5929 29.3465C89.5929 30.4665 89.8089 31.4505 90.2409 32.2985C90.6729 33.1465 91.2729 33.8025 92.0409 34.2665C92.8249 34.7145 93.7209 34.9385 94.7289 34.9385ZM118.349 24.4745V37.7705H114.965V36.0905C114.533 36.6665 113.965 37.1225 113.261 37.4585C112.573 37.7785 111.821 37.9385 111.005 37.9385C109.965 37.9385 109.045 37.7225 108.245 37.2905C107.445 36.8425 106.813 36.1945 106.349 35.3465C105.901 34.4825 105.677 33.4585 105.677 32.2745V24.4745H109.037V31.7945C109.037 32.8505 109.301 33.6665 109.829 34.2425C110.357 34.8025 111.077 35.0825 111.989 35.0825C112.917 35.0825 113.645 34.8025 114.173 34.2425C114.701 33.6665 114.965 32.8505 114.965 31.7945V24.4745H118.349ZM125.024 26.5385C125.456 25.8345 126.016 25.2825 126.704 24.8825C127.408 24.4825 128.208 24.2825 129.104 24.2825V27.8105H128.216C127.16 27.8105 126.36 28.0585 125.816 28.5545C125.288 29.0505 125.024 29.9145 125.024 31.1465V37.7705H121.664V24.4745H125.024V26.5385ZM155.35 21.0185V37.7705H151.99V26.8745L147.502 37.7705H144.958L140.446 26.8745V37.7705H137.086V21.0185H140.902L146.23 33.4745L151.558 21.0185H155.35ZM160.376 22.8905C159.784 22.8905 159.288 22.7065 158.888 22.3385C158.504 21.9545 158.312 21.4825 158.312 20.9225C158.312 20.3625 158.504 19.8985 158.888 19.5305C159.288 19.1465 159.784 18.9545 160.376 18.9545C160.968 18.9545 161.456 19.1465 161.84 19.5305C162.24 19.8985 162.44 20.3625 162.44 20.9225C162.44 21.4825 162.24 21.9545 161.84 22.3385C161.456 22.7065 160.968 22.8905 160.376 22.8905ZM162.032 24.4745V37.7705H158.672V24.4745H162.032ZM170.439 37.9865C169.351 37.9865 168.375 37.7945 167.511 37.4105C166.647 37.0105 165.959 36.4745 165.447 35.8025C164.951 35.1305 164.679 34.3865 164.631 33.5705H168.015C168.079 34.0825 168.327 34.5065 168.759 34.8425C169.207 35.1785 169.759 35.3465 170.415 35.3465C171.055 35.3465 171.551 35.2185 171.903 34.9625C172.271 34.7065 172.455 34.3785 172.455 33.9785C172.455 33.5465 172.231 33.2265 171.783 33.0185C171.351 32.7945 170.655 32.5545 169.695 32.2985C168.703 32.0585 167.887 31.8105 167.247 31.5545C166.623 31.2985 166.079 30.9065 165.615 30.3785C165.167 29.8505 164.943 29.1385 164.943 28.2425C164.943 27.5065 165.151 26.8345 165.567 26.2265C165.999 25.6185 166.607 25.1385 167.391 24.7865C168.191 24.4345 169.127 24.2585 170.199 24.2585C171.783 24.2585 173.047 24.6585 173.991 25.4585C174.935 26.2425 175.455 27.3065 175.551 28.6505H172.335C172.287 28.1225 172.063 27.7065 171.663 27.4025C171.279 27.0825 170.759 26.9225 170.103 26.9225C169.495 26.9225 169.023 27.0345 168.687 27.2585C168.367 27.4825 168.207 27.7945 168.207 28.1945C168.207 28.6425 168.431 28.9865 168.879 29.2265C169.327 29.4505 170.023 29.6825 170.967 29.9225C171.927 30.1625 172.719 30.4105 173.343 30.6665C173.967 30.9225 174.503 31.3225 174.951 31.8665C175.415 32.3945 175.655 33.0985 175.671 33.9785C175.671 34.7465 175.455 35.4345 175.023 36.0425C174.607 36.6505 173.999 37.1305 173.199 37.4825C172.415 37.8185 171.495 37.9865 170.439 37.9865ZM183.517 37.9865C182.429 37.9865 181.453 37.7945 180.589 37.4105C179.725 37.0105 179.037 36.4745 178.525 35.8025C178.029 35.1305 177.757 34.3865 177.709 33.5705H181.093C181.157 34.0825 181.405 34.5065 181.837 34.8425C182.285 35.1785 182.837 35.3465 183.493 35.3465C184.133 35.3465 184.629 35.2185 184.981 34.9625C185.349 34.7065 185.533 34.3785 185.533 33.9785C185.533 33.5465 185.309 33.2265 184.861 33.0185C184.429 32.7945 183.733 32.5545 182.773 32.2985C181.781 32.0585 180.965 31.8105 180.325 31.5545C179.701 31.2985 179.157 30.9065 178.693 30.3785C178.245 29.8505 178.021 29.1385 178.021 28.2425C178.021 27.5065 178.229 26.8345 178.645 26.2265C179.077 25.6185 179.685 25.1385 180.469 24.7865C181.269 24.4345 182.205 24.2585 183.277 24.2585C184.861 24.2585 186.125 24.6585 187.069 25.4585C188.013 26.2425 188.533 27.3065 188.629 28.6505H185.413C185.365 28.1225 185.141 27.7065 184.741 27.4025C184.357 27.0825 183.837 26.9225 183.181 26.9225C182.573 26.9225 182.101 27.0345 181.765 27.2585C181.445 27.4825 181.285 27.7945 181.285 28.1945C181.285 28.6425 181.509 28.9865 181.957 29.2265C182.405 29.4505 183.101 29.6825 184.045 29.9225C185.005 30.1625 185.797 30.4105 186.421 30.6665C187.045 30.9225 187.581 31.3225 188.029 31.8665C188.493 32.3945 188.733 33.0985 188.749 33.9785C188.749 34.7465 188.533 35.4345 188.101 36.0425C187.685 36.6505 187.077 37.1305 186.277 37.4825C185.493 37.8185 184.573 37.9865 183.517 37.9865ZM193.212 22.8905C192.62 22.8905 192.124 22.7065 191.724 22.3385C191.34 21.9545 191.148 21.4825 191.148 20.9225C191.148 20.3625 191.34 19.8985 191.724 19.5305C192.124 19.1465 192.62 18.9545 193.212 18.9545C193.804 18.9545 194.292 19.1465 194.676 19.5305C195.076 19.8985 195.276 20.3625 195.276 20.9225C195.276 21.4825 195.076 21.9545 194.676 22.3385C194.292 22.7065 193.804 22.8905 193.212 22.8905ZM194.868 24.4745V37.7705H191.508V24.4745H194.868ZM204.091 37.9865C202.811 37.9865 201.659 37.7065 200.635 37.1465C199.611 36.5705 198.803 35.7625 198.211 34.7225C197.635 33.6825 197.347 32.4825 197.347 31.1225C197.347 29.7625 197.643 28.5625 198.235 27.5225C198.843 26.4825 199.667 25.6825 200.707 25.1225C201.747 24.5465 202.907 24.2585 204.187 24.2585C205.467 24.2585 206.627 24.5465 207.667 25.1225C208.707 25.6825 209.523 26.4825 210.115 27.5225C210.723 28.5625 211.027 29.7625 211.027 31.1225C211.027 32.4825 210.715 33.6825 210.091 34.7225C209.483 35.7625 208.651 36.5705 207.595 37.1465C206.555 37.7065 205.387 37.9865 204.091 37.9865ZM204.091 35.0585C204.699 35.0585 205.267 34.9145 205.795 34.6265C206.339 34.3225 206.771 33.8745 207.091 33.2825C207.411 32.6905 207.571 31.9705 207.571 31.1225C207.571 29.8585 207.235 28.8905 206.563 28.2185C205.907 27.5305 205.099 27.1865 204.139 27.1865C203.179 27.1865 202.371 27.5305 201.715 28.2185C201.075 28.8905 200.755 29.8585 200.755 31.1225C200.755 32.3865 201.067 33.3625 201.691 34.0505C202.331 34.7225 203.131 35.0585 204.091 35.0585ZM220.86 24.2825C222.444 24.2825 223.724 24.7865 224.7 25.7945C225.676 26.7865 226.164 28.1785 226.164 29.9705V37.7705H222.804V30.4265C222.804 29.3705 222.54 28.5625 222.012 28.0025C221.484 27.4265 220.764 27.1385 219.852 27.1385C218.924 27.1385 218.188 27.4265 217.644 28.0025C217.116 28.5625 216.852 29.3705 216.852 30.4265V37.7705H213.492V24.4745H216.852V26.1305C217.3 25.5545 217.868 25.1065 218.556 24.7865C219.26 24.4505 220.028 24.2825 220.86 24.2825Z" fill="#1E2A39"/>
</svg>
