<svg width="259" height="58" viewBox="0 0 259 58" fill="none" xmlns="http://www.w3.org/2000/svg">
<path d="M11.6483 28.408C12.5923 28.584 13.3683 29.056 13.9763 29.824C14.5843 30.592 14.8883 31.472 14.8883 32.464C14.8883 33.36 14.6643 34.152 14.2163 34.84C13.7843 35.512 13.1523 36.04 12.3203 36.424C11.4883 36.808 10.5043 37 9.36828 37H2.14428V20.248H9.05628C10.1923 20.248 11.1683 20.432 11.9843 20.8C12.8163 21.168 13.4403 21.68 13.8563 22.336C14.2883 22.992 14.5043 23.736 14.5043 24.568C14.5043 25.544 14.2403 26.36 13.7123 27.016C13.2003 27.672 12.5123 28.136 11.6483 28.408ZM5.50428 27.16H8.57628C9.37628 27.16 9.99228 26.984 10.4243 26.632C10.8563 26.264 11.0723 25.744 11.0723 25.072C11.0723 24.4 10.8563 23.88 10.4243 23.512C9.99228 23.144 9.37628 22.96 8.57628 22.96H5.50428V27.16ZM8.88828 34.264C9.70428 34.264 10.3363 34.072 10.7843 33.688C11.2483 33.304 11.4803 32.76 11.4803 32.056C11.4803 31.336 11.2403 30.776 10.7603 30.376C10.2803 29.96 9.63228 29.752 8.81628 29.752H5.50428V34.264H8.88828ZM23.4702 37.216C22.1902 37.216 21.0382 36.936 20.0142 36.376C18.9902 35.8 18.1822 34.992 17.5902 33.952C17.0142 32.912 16.7262 31.712 16.7262 30.352C16.7262 28.992 17.0222 27.792 17.6142 26.752C18.2222 25.712 19.0462 24.912 20.0862 24.352C21.1262 23.776 22.2862 23.488 23.5662 23.488C24.8462 23.488 26.0062 23.776 27.0462 24.352C28.0862 24.912 28.9022 25.712 29.4942 26.752C30.1022 27.792 30.4062 28.992 30.4062 30.352C30.4062 31.712 30.0942 32.912 29.4702 33.952C28.8622 34.992 28.0302 35.8 26.9742 36.376C25.9342 36.936 24.7662 37.216 23.4702 37.216ZM23.4702 34.288C24.0782 34.288 24.6462 34.144 25.1742 33.856C25.7182 33.552 26.1502 33.104 26.4702 32.512C26.7902 31.92 26.9502 31.2 26.9502 30.352C26.9502 29.088 26.6142 28.12 25.9422 27.448C25.2862 26.76 24.4782 26.416 23.5182 26.416C22.5582 26.416 21.7502 26.76 21.0942 27.448C20.4542 28.12 20.1342 29.088 20.1342 30.352C20.1342 31.616 20.4462 32.592 21.0702 33.28C21.7102 33.952 22.5102 34.288 23.4702 34.288ZM38.7748 37.216C37.4948 37.216 36.3428 36.936 35.3188 36.376C34.2948 35.8 33.4868 34.992 32.8948 33.952C32.3188 32.912 32.0308 31.712 32.0308 30.352C32.0308 28.992 32.3268 27.792 32.9188 26.752C33.5268 25.712 34.3508 24.912 35.3908 24.352C36.4308 23.776 37.5908 23.488 38.8708 23.488C40.1508 23.488 41.3108 23.776 42.3508 24.352C43.3908 24.912 44.2068 25.712 44.7988 26.752C45.4068 27.792 45.7108 28.992 45.7108 30.352C45.7108 31.712 45.3988 32.912 44.7748 33.952C44.1668 34.992 43.3348 35.8 42.2788 36.376C41.2388 36.936 40.0708 37.216 38.7748 37.216ZM38.7748 34.288C39.3828 34.288 39.9508 34.144 40.4788 33.856C41.0228 33.552 41.4548 33.104 41.7748 32.512C42.0948 31.92 42.2548 31.2 42.2548 30.352C42.2548 29.088 41.9188 28.12 41.2468 27.448C40.5908 26.76 39.7828 26.416 38.8228 26.416C37.8628 26.416 37.0548 26.76 36.3988 27.448C35.7588 28.12 35.4388 29.088 35.4388 30.352C35.4388 31.616 35.7508 32.592 36.3748 33.28C37.0148 33.952 37.8148 34.288 38.7748 34.288ZM56.0475 37L51.5355 31.336V37H48.1755V19.24H51.5355V29.344L55.9995 23.704H60.3675L54.5115 30.376L60.4155 37H56.0475ZM80.6299 23.704L72.3979 43.288H68.8219L71.7019 36.664L66.3739 23.704H70.1419L73.5739 32.992L77.0539 23.704H80.6299ZM88.3452 37.216C87.0652 37.216 85.9132 36.936 84.8892 36.376C83.8652 35.8 83.0572 34.992 82.4652 33.952C81.8892 32.912 81.6012 31.712 81.6012 30.352C81.6012 28.992 81.8972 27.792 82.4892 26.752C83.0972 25.712 83.9212 24.912 84.9612 24.352C86.0012 23.776 87.1612 23.488 88.4412 23.488C89.7212 23.488 90.8812 23.776 91.9212 24.352C92.9612 24.912 93.7772 25.712 94.3692 26.752C94.9772 27.792 95.2812 28.992 95.2812 30.352C95.2812 31.712 94.9692 32.912 94.3452 33.952C93.7372 34.992 92.9052 35.8 91.8492 36.376C90.8092 36.936 89.6412 37.216 88.3452 37.216ZM88.3452 34.288C88.9532 34.288 89.5212 34.144 90.0492 33.856C90.5932 33.552 91.0252 33.104 91.3452 32.512C91.6652 31.92 91.8252 31.2 91.8252 30.352C91.8252 29.088 91.4892 28.12 90.8172 27.448C90.1612 26.76 89.3532 26.416 88.3932 26.416C87.4332 26.416 86.6252 26.76 85.9692 27.448C85.3292 28.12 85.0092 29.088 85.0092 30.352C85.0092 31.616 85.3212 32.592 85.9452 33.28C86.5852 33.952 87.3852 34.288 88.3452 34.288ZM110.298 23.704V37H106.914V35.32C106.482 35.896 105.914 36.352 105.21 36.688C104.522 37.008 103.77 37.168 102.954 37.168C101.914 37.168 100.994 36.952 100.194 36.52C99.3938 36.072 98.7618 35.424 98.2978 34.576C97.8498 33.712 97.6258 32.688 97.6258 31.504V23.704H100.986V31.024C100.986 32.08 101.25 32.896 101.778 33.472C102.306 34.032 103.026 34.312 103.938 34.312C104.866 34.312 105.594 34.032 106.122 33.472C106.65 32.896 106.914 32.08 106.914 31.024V23.704H110.298ZM116.973 25.768C117.405 25.064 117.965 24.512 118.653 24.112C119.357 23.712 120.157 23.512 121.053 23.512V27.04H120.165C119.109 27.04 118.309 27.288 117.765 27.784C117.237 28.28 116.973 29.144 116.973 30.376V37H113.613V23.704H116.973V25.768ZM147.299 20.248V37H143.939V26.104L139.451 37H136.907L132.395 26.104V37H129.035V20.248H132.851L138.179 32.704L143.507 20.248H147.299ZM149.757 30.304C149.757 28.96 150.021 27.768 150.549 26.728C151.093 25.688 151.821 24.888 152.733 24.328C153.661 23.768 154.693 23.488 155.829 23.488C156.821 23.488 157.685 23.688 158.421 24.088C159.173 24.488 159.773 24.992 160.221 25.6V23.704H163.605V37H160.221V35.056C159.789 35.68 159.189 36.2 158.421 36.616C157.669 37.016 156.797 37.216 155.805 37.216C154.685 37.216 153.661 36.928 152.733 36.352C151.821 35.776 151.093 34.968 150.549 33.928C150.021 32.872 149.757 31.664 149.757 30.304ZM160.221 30.352C160.221 29.536 160.061 28.84 159.741 28.264C159.421 27.672 158.989 27.224 158.445 26.92C157.901 26.6 157.317 26.44 156.693 26.44C156.069 26.44 155.493 26.592 154.965 26.896C154.437 27.2 154.005 27.648 153.669 28.24C153.349 28.816 153.189 29.504 153.189 30.304C153.189 31.104 153.349 31.808 153.669 32.416C154.005 33.008 154.437 33.464 154.965 33.784C155.509 34.104 156.085 34.264 156.693 34.264C157.317 34.264 157.901 34.112 158.445 33.808C158.989 33.488 159.421 33.04 159.741 32.464C160.061 31.872 160.221 31.168 160.221 30.352ZM171.974 37.216C170.886 37.216 169.91 37.024 169.046 36.64C168.182 36.24 167.494 35.704 166.982 35.032C166.486 34.36 166.214 33.616 166.166 32.8H169.55C169.614 33.312 169.862 33.736 170.294 34.072C170.742 34.408 171.294 34.576 171.95 34.576C172.59 34.576 173.086 34.448 173.438 34.192C173.806 33.936 173.99 33.608 173.99 33.208C173.99 32.776 173.766 32.456 173.318 32.248C172.886 32.024 172.19 31.784 171.23 31.528C170.238 31.288 169.422 31.04 168.782 30.784C168.158 30.528 167.614 30.136 167.15 29.608C166.702 29.08 166.478 28.368 166.478 27.472C166.478 26.736 166.686 26.064 167.102 25.456C167.534 24.848 168.142 24.368 168.926 24.016C169.726 23.664 170.662 23.488 171.734 23.488C173.318 23.488 174.582 23.888 175.526 24.688C176.47 25.472 176.99 26.536 177.086 27.88H173.87C173.822 27.352 173.598 26.936 173.198 26.632C172.814 26.312 172.294 26.152 171.638 26.152C171.03 26.152 170.558 26.264 170.222 26.488C169.902 26.712 169.742 27.024 169.742 27.424C169.742 27.872 169.966 28.216 170.414 28.456C170.862 28.68 171.558 28.912 172.502 29.152C173.462 29.392 174.254 29.64 174.878 29.896C175.502 30.152 176.038 30.552 176.486 31.096C176.95 31.624 177.19 32.328 177.206 33.208C177.206 33.976 176.99 34.664 176.558 35.272C176.142 35.88 175.534 36.36 174.734 36.712C173.95 37.048 173.03 37.216 171.974 37.216ZM183.877 26.464V32.896C183.877 33.344 183.981 33.672 184.189 33.88C184.413 34.072 184.781 34.168 185.293 34.168H186.853V37H184.741C181.909 37 180.493 35.624 180.493 32.872V26.464H178.909V23.704H180.493V20.416H183.877V23.704H186.853V26.464H183.877ZM201.629 30.064C201.629 30.544 201.597 30.976 201.533 31.36H191.813C191.893 32.32 192.229 33.072 192.821 33.616C193.413 34.16 194.141 34.432 195.005 34.432C196.253 34.432 197.141 33.896 197.669 32.824H201.293C200.909 34.104 200.173 35.16 199.085 35.992C197.997 36.808 196.661 37.216 195.077 37.216C193.797 37.216 192.645 36.936 191.621 36.376C190.613 35.8 189.821 34.992 189.245 33.952C188.685 32.912 188.405 31.712 188.405 30.352C188.405 28.976 188.685 27.768 189.245 26.728C189.805 25.688 190.589 24.888 191.597 24.328C192.605 23.768 193.765 23.488 195.077 23.488C196.341 23.488 197.469 23.76 198.461 24.304C199.469 24.848 200.245 25.624 200.789 26.632C201.349 27.624 201.629 28.768 201.629 30.064ZM198.149 29.104C198.133 28.24 197.821 27.552 197.213 27.04C196.605 26.512 195.861 26.248 194.981 26.248C194.149 26.248 193.445 26.504 192.869 27.016C192.309 27.512 191.965 28.208 191.837 29.104H198.149ZM207.442 25.768C207.874 25.064 208.434 24.512 209.122 24.112C209.826 23.712 210.626 23.512 211.522 23.512V27.04H210.634C209.578 27.04 208.778 27.288 208.234 27.784C207.706 28.28 207.442 29.144 207.442 30.376V37H204.082V23.704H207.442V25.768ZM225.185 20.248V22.96H220.721V37H217.361V22.96H212.897V20.248H225.185ZM226.772 30.304C226.772 28.96 227.036 27.768 227.564 26.728C228.108 25.688 228.836 24.888 229.748 24.328C230.676 23.768 231.708 23.488 232.844 23.488C233.836 23.488 234.7 23.688 235.436 24.088C236.188 24.488 236.788 24.992 237.236 25.6V23.704H240.62V37H237.236V35.056C236.804 35.68 236.204 36.2 235.436 36.616C234.684 37.016 233.812 37.216 232.82 37.216C231.7 37.216 230.676 36.928 229.748 36.352C228.836 35.776 228.108 34.968 227.564 33.928C227.036 32.872 226.772 31.664 226.772 30.304ZM237.236 30.352C237.236 29.536 237.076 28.84 236.756 28.264C236.436 27.672 236.004 27.224 235.46 26.92C234.916 26.6 234.332 26.44 233.708 26.44C233.084 26.44 232.508 26.592 231.98 26.896C231.452 27.2 231.02 27.648 230.684 28.24C230.364 28.816 230.204 29.504 230.204 30.304C230.204 31.104 230.364 31.808 230.684 32.416C231.02 33.008 231.452 33.464 231.98 33.784C232.524 34.104 233.1 34.264 233.708 34.264C234.332 34.264 234.916 34.112 235.46 33.808C236.004 33.488 236.436 33.04 236.756 32.464C237.076 31.872 237.236 31.168 237.236 30.352ZM249.11 23.488C250.102 23.488 250.974 23.688 251.726 24.088C252.478 24.472 253.07 24.976 253.502 25.6V23.704H256.886V37.096C256.886 38.328 256.638 39.424 256.142 40.384C255.646 41.36 254.902 42.128 253.91 42.688C252.918 43.264 251.718 43.552 250.31 43.552C248.422 43.552 246.87 43.112 245.654 42.232C244.454 41.352 243.774 40.152 243.614 38.632H246.95C247.126 39.24 247.502 39.72 248.078 40.072C248.67 40.44 249.382 40.624 250.214 40.624C251.19 40.624 251.982 40.328 252.59 39.736C253.198 39.16 253.502 38.28 253.502 37.096V35.032C253.07 35.656 252.47 36.176 251.702 36.592C250.95 37.008 250.086 37.216 249.11 37.216C247.99 37.216 246.966 36.928 246.038 36.352C245.11 35.776 244.374 34.968 243.83 33.928C243.302 32.872 243.038 31.664 243.038 30.304C243.038 28.96 243.302 27.768 243.83 26.728C244.374 25.688 245.102 24.888 246.014 24.328C246.942 23.768 247.974 23.488 249.11 23.488ZM253.502 30.352C253.502 29.536 253.342 28.84 253.022 28.264C252.702 27.672 252.27 27.224 251.726 26.92C251.182 26.6 250.598 26.44 249.974 26.44C249.35 26.44 248.774 26.592 248.246 26.896C247.718 27.2 247.286 27.648 246.95 28.24C246.63 28.816 246.47 29.504 246.47 30.304C246.47 31.104 246.63 31.808 246.95 32.416C247.286 33.008 247.718 33.464 248.246 33.784C248.79 34.104 249.366 34.264 249.974 34.264C250.598 34.264 251.182 34.112 251.726 33.808C252.27 33.488 252.702 33.04 253.022 32.464C253.342 31.872 253.502 31.168 253.502 30.352Z" fill="#1E2A39"/>
</svg>
