<svg width="198" height="58" viewBox="0 0 198 58" fill="none" xmlns="http://www.w3.org/2000/svg">
<path d="M20.873 20.55V38H17.373V26.65L12.698 38H10.048L5.34805 26.65V38H1.84805V20.55H5.82305L11.373 33.525L16.923 20.55H20.873ZM23.4334 31.025C23.4334 29.625 23.7084 28.3833 24.2584 27.3C24.8251 26.2167 25.5834 25.3833 26.5334 24.8C27.5001 24.2167 28.5751 23.925 29.7584 23.925C30.7917 23.925 31.6917 24.1333 32.4584 24.55C33.2417 24.9667 33.8667 25.4917 34.3334 26.125V24.15H37.8584V38H34.3334V35.975C33.8834 36.625 33.2584 37.1667 32.4584 37.6C31.6751 38.0167 30.7667 38.225 29.7334 38.225C28.5667 38.225 27.5001 37.925 26.5334 37.325C25.5834 36.725 24.8251 35.8833 24.2584 34.8C23.7084 33.7 23.4334 32.4417 23.4334 31.025ZM34.3334 31.075C34.3334 30.225 34.1667 29.5 33.8334 28.9C33.5001 28.2833 33.0501 27.8167 32.4834 27.5C31.9167 27.1667 31.3084 27 30.6584 27C30.0084 27 29.4084 27.1583 28.8584 27.475C28.3084 27.7917 27.8584 28.2583 27.5084 28.875C27.1751 29.475 27.0084 30.1917 27.0084 31.025C27.0084 31.8583 27.1751 32.5917 27.5084 33.225C27.8584 33.8417 28.3084 34.3167 28.8584 34.65C29.4251 34.9833 30.0251 35.15 30.6584 35.15C31.3084 35.15 31.9167 34.9917 32.4834 34.675C33.0501 34.3417 33.5001 33.875 33.8334 33.275C34.1667 32.6583 34.3334 31.925 34.3334 31.075ZM46.5768 38.225C45.4434 38.225 44.4268 38.025 43.5268 37.625C42.6268 37.2083 41.9101 36.65 41.3768 35.95C40.8601 35.25 40.5768 34.475 40.5268 33.625H44.0518C44.1184 34.1583 44.3768 34.6 44.8268 34.95C45.2934 35.3 45.8684 35.475 46.5518 35.475C47.2184 35.475 47.7351 35.3417 48.1018 35.075C48.4851 34.8083 48.6768 34.4667 48.6768 34.05C48.6768 33.6 48.4434 33.2667 47.9768 33.05C47.5268 32.8167 46.8018 32.5667 45.8018 32.3C44.7684 32.05 43.9184 31.7917 43.2518 31.525C42.6018 31.2583 42.0351 30.85 41.5518 30.3C41.0851 29.75 40.8518 29.0083 40.8518 28.075C40.8518 27.3083 41.0684 26.6083 41.5018 25.975C41.9518 25.3417 42.5851 24.8417 43.4018 24.475C44.2351 24.1083 45.2101 23.925 46.3268 23.925C47.9768 23.925 49.2934 24.3417 50.2768 25.175C51.2601 25.9917 51.8018 27.1 51.9018 28.5H48.5518C48.5018 27.95 48.2684 27.5167 47.8518 27.2C47.4518 26.8667 46.9101 26.7 46.2268 26.7C45.5934 26.7 45.1018 26.8167 44.7518 27.05C44.4184 27.2833 44.2518 27.6083 44.2518 28.025C44.2518 28.4917 44.4851 28.85 44.9518 29.1C45.4184 29.3333 46.1434 29.575 47.1268 29.825C48.1268 30.075 48.9518 30.3333 49.6018 30.6C50.2518 30.8667 50.8101 31.2833 51.2768 31.85C51.7601 32.4 52.0101 33.1333 52.0268 34.05C52.0268 34.85 51.8018 35.5667 51.3518 36.2C50.9184 36.8333 50.2851 37.3333 49.4518 37.7C48.6351 38.05 47.6768 38.225 46.5768 38.225ZM58.9748 27.025V33.725C58.9748 34.1917 59.0831 34.5333 59.2998 34.75C59.5331 34.95 59.9165 35.05 60.4498 35.05H62.0748V38H59.8748C56.9248 38 55.4498 36.5667 55.4498 33.7V27.025H53.7998V24.15H55.4498V20.725H58.9748V24.15H62.0748V27.025H58.9748ZM77.4672 30.775C77.4672 31.275 77.4339 31.725 77.3672 32.125H67.2422C67.3255 33.125 67.6755 33.9083 68.2922 34.475C68.9089 35.0417 69.6672 35.325 70.5672 35.325C71.8672 35.325 72.7922 34.7667 73.3422 33.65H77.1172C76.7172 34.9833 75.9505 36.0833 74.8172 36.95C73.6839 37.8 72.2922 38.225 70.6422 38.225C69.3089 38.225 68.1089 37.9333 67.0422 37.35C65.9922 36.75 65.1672 35.9083 64.5672 34.825C63.9839 33.7417 63.6922 32.4917 63.6922 31.075C63.6922 29.6417 63.9839 28.3833 64.5672 27.3C65.1505 26.2167 65.9672 25.3833 67.0172 24.8C68.0672 24.2167 69.2755 23.925 70.6422 23.925C71.9589 23.925 73.1339 24.2083 74.1672 24.775C75.2172 25.3417 76.0255 26.15 76.5922 27.2C77.1755 28.2333 77.4672 29.425 77.4672 30.775ZM73.8422 29.775C73.8255 28.875 73.5005 28.1583 72.8672 27.625C72.2339 27.075 71.4589 26.8 70.5422 26.8C69.6755 26.8 68.9422 27.0667 68.3422 27.6C67.7589 28.1167 67.4005 28.8417 67.2672 29.775H73.8422ZM83.5219 26.3C83.9719 25.5667 84.5552 24.9917 85.2719 24.575C86.0052 24.1583 86.8385 23.95 87.7719 23.95V27.625H86.8469C85.7469 27.625 84.9135 27.8833 84.3469 28.4C83.7969 28.9167 83.5219 29.8167 83.5219 31.1V38H80.0219V24.15H83.5219V26.3ZM105.086 38L101.236 31.2H99.5863V38H96.0863V20.55H102.636C103.986 20.55 105.136 20.7917 106.086 21.275C107.036 21.7417 107.745 22.3833 108.211 23.2C108.695 24 108.936 24.9 108.936 25.9C108.936 27.05 108.603 28.0917 107.936 29.025C107.27 29.9417 106.278 30.575 104.961 30.925L109.136 38H105.086ZM99.5863 28.575H102.511C103.461 28.575 104.17 28.35 104.636 27.9C105.103 27.4333 105.336 26.7917 105.336 25.975C105.336 25.175 105.103 24.5583 104.636 24.125C104.17 23.675 103.461 23.45 102.511 23.45H99.5863V28.575ZM124.977 30.775C124.977 31.275 124.944 31.725 124.877 32.125H114.752C114.835 33.125 115.185 33.9083 115.802 34.475C116.419 35.0417 117.177 35.325 118.077 35.325C119.377 35.325 120.302 34.7667 120.852 33.65H124.627C124.227 34.9833 123.46 36.0833 122.327 36.95C121.194 37.8 119.802 38.225 118.152 38.225C116.819 38.225 115.619 37.9333 114.552 37.35C113.502 36.75 112.677 35.9083 112.077 34.825C111.494 33.7417 111.202 32.4917 111.202 31.075C111.202 29.6417 111.494 28.3833 112.077 27.3C112.66 26.2167 113.477 25.3833 114.527 24.8C115.577 24.2167 116.785 23.925 118.152 23.925C119.469 23.925 120.644 24.2083 121.677 24.775C122.727 25.3417 123.535 26.15 124.102 27.2C124.685 28.2333 124.977 29.425 124.977 30.775ZM121.352 29.775C121.335 28.875 121.01 28.1583 120.377 27.625C119.744 27.075 118.969 26.8 118.052 26.8C117.185 26.8 116.452 27.0667 115.852 27.6C115.269 28.1167 114.91 28.8417 114.777 29.775H121.352ZM133.307 34.775L136.807 24.15H140.532L135.407 38H131.157L126.057 24.15H129.807L133.307 34.775ZM144.272 22.5C143.656 22.5 143.139 22.3083 142.722 21.925C142.322 21.525 142.122 21.0333 142.122 20.45C142.122 19.8667 142.322 19.3833 142.722 19C143.139 18.6 143.656 18.4 144.272 18.4C144.889 18.4 145.397 18.6 145.797 19C146.214 19.3833 146.422 19.8667 146.422 20.45C146.422 21.0333 146.214 21.525 145.797 21.925C145.397 22.3083 144.889 22.5 144.272 22.5ZM145.997 24.15V38H142.497V24.15H145.997ZM162.33 30.775C162.33 31.275 162.297 31.725 162.23 32.125H152.105C152.189 33.125 152.539 33.9083 153.155 34.475C153.772 35.0417 154.53 35.325 155.43 35.325C156.73 35.325 157.655 34.7667 158.205 33.65H161.98C161.58 34.9833 160.814 36.0833 159.68 36.95C158.547 37.8 157.155 38.225 155.505 38.225C154.172 38.225 152.972 37.9333 151.905 37.35C150.855 36.75 150.03 35.9083 149.43 34.825C148.847 33.7417 148.555 32.4917 148.555 31.075C148.555 29.6417 148.847 28.3833 149.43 27.3C150.014 26.2167 150.83 25.3833 151.88 24.8C152.93 24.2167 154.139 23.925 155.505 23.925C156.822 23.925 157.997 24.2083 159.03 24.775C160.08 25.3417 160.889 26.15 161.455 27.2C162.039 28.2333 162.33 29.425 162.33 30.775ZM158.705 29.775C158.689 28.875 158.364 28.1583 157.73 27.625C157.097 27.075 156.322 26.8 155.405 26.8C154.539 26.8 153.805 27.0667 153.205 27.6C152.622 28.1167 152.264 28.8417 152.13 29.775H158.705ZM184.085 24.15L180.035 38H176.26L173.735 28.325L171.21 38H167.41L163.335 24.15H166.885L169.335 34.7L171.985 24.15H175.685L178.285 34.675L180.735 24.15H184.085ZM191.279 38.225C190.146 38.225 189.129 38.025 188.229 37.625C187.329 37.2083 186.612 36.65 186.079 35.95C185.562 35.25 185.279 34.475 185.229 33.625H188.754C188.821 34.1583 189.079 34.6 189.529 34.95C189.996 35.3 190.571 35.475 191.254 35.475C191.921 35.475 192.437 35.3417 192.804 35.075C193.187 34.8083 193.379 34.4667 193.379 34.05C193.379 33.6 193.146 33.2667 192.679 33.05C192.229 32.8167 191.504 32.5667 190.504 32.3C189.471 32.05 188.621 31.7917 187.954 31.525C187.304 31.2583 186.737 30.85 186.254 30.3C185.787 29.75 185.554 29.0083 185.554 28.075C185.554 27.3083 185.771 26.6083 186.204 25.975C186.654 25.3417 187.287 24.8417 188.104 24.475C188.937 24.1083 189.912 23.925 191.029 23.925C192.679 23.925 193.996 24.3417 194.979 25.175C195.962 25.9917 196.504 27.1 196.604 28.5H193.254C193.204 27.95 192.971 27.5167 192.554 27.2C192.154 26.8667 191.612 26.7 190.929 26.7C190.296 26.7 189.804 26.8167 189.454 27.05C189.121 27.2833 188.954 27.6083 188.954 28.025C188.954 28.4917 189.187 28.85 189.654 29.1C190.121 29.3333 190.846 29.575 191.829 29.825C192.829 30.075 193.654 30.3333 194.304 30.6C194.954 30.8667 195.512 31.2833 195.979 31.85C196.462 32.4 196.712 33.1333 196.729 34.05C196.729 34.85 196.504 35.5667 196.054 36.2C195.621 36.8333 194.987 37.3333 194.154 37.7C193.337 38.05 192.379 38.225 191.279 38.225Z" fill="#1E2A39"/>
</svg>
