<svg width="182" height="61" viewBox="0 0 182 61" fill="none" xmlns="http://www.w3.org/2000/svg">
<path d="M68.8981 46.586V47.65H70.3121V48.938H68.8141C68.6647 49.8247 68.2961 50.4687 67.7081 50.87C67.1294 51.2713 66.2521 51.472 65.0761 51.472V52.214C65.0761 52.6527 65.1647 52.998 65.3421 53.25C65.5287 53.502 65.8414 53.628 66.2801 53.628C66.7001 53.628 67.0034 53.5113 67.1901 53.278C67.3767 53.0353 67.4701 52.6853 67.4701 52.228H69.2901C69.2714 53.1707 69.0054 53.894 68.4921 54.398C67.9787 54.8927 67.2461 55.14 66.2941 55.14C65.3047 55.14 64.5487 54.874 64.0261 54.342C63.5034 53.81 63.2421 53.0353 63.2421 52.018V50.156C64.2407 50.156 64.9781 50.1327 65.4541 50.086C65.9301 50.03 66.2847 49.918 66.5181 49.75C66.7514 49.582 66.9054 49.3113 66.9801 48.938H62.7941V47.65H67.0501V46.586H62.7941V45.214H70.3121V46.586H68.8981ZM73.7746 52.13C73.8493 52.5407 74.0173 52.858 74.2786 53.082C74.5493 53.2967 74.9086 53.404 75.3566 53.404C75.9353 53.404 76.3553 53.166 76.6166 52.69C76.878 52.2047 77.0086 51.3927 77.0086 50.254C76.794 50.5527 76.4906 50.786 76.0986 50.954C75.716 51.122 75.3006 51.206 74.8526 51.206C74.2553 51.206 73.714 51.0847 73.2286 50.842C72.7526 50.59 72.3746 50.2213 72.0946 49.736C71.8146 49.2413 71.6746 48.644 71.6746 47.944C71.6746 46.908 71.9826 46.0867 72.5986 45.48C73.2146 44.864 74.0546 44.556 75.1186 44.556C76.444 44.556 77.3773 44.9807 77.9186 45.83C78.4693 46.6793 78.7446 47.958 78.7446 49.666C78.7446 50.8793 78.6373 51.8733 78.4226 52.648C78.2173 53.4227 77.858 54.0107 77.3446 54.412C76.8406 54.8133 76.15 55.014 75.2726 55.014C74.582 55.014 73.994 54.8833 73.5086 54.622C73.0233 54.3513 72.65 54.0013 72.3886 53.572C72.1366 53.1333 71.992 52.6527 71.9546 52.13H73.7746ZM75.2586 49.61C75.744 49.61 76.1266 49.4607 76.4066 49.162C76.6866 48.8633 76.8266 48.462 76.8266 47.958C76.8266 47.4073 76.6773 46.9827 76.3786 46.684C76.0893 46.376 75.6926 46.222 75.1886 46.222C74.6846 46.222 74.2833 46.3807 73.9846 46.698C73.6953 47.006 73.5506 47.4167 73.5506 47.93C73.5506 48.4247 73.6906 48.8307 73.9706 49.148C74.26 49.456 74.6893 49.61 75.2586 49.61ZM82.5383 52.13C82.613 52.5407 82.781 52.858 83.0423 53.082C83.313 53.2967 83.6723 53.404 84.1203 53.404C84.699 53.404 85.119 53.166 85.3803 52.69C85.6417 52.2047 85.7723 51.3927 85.7723 50.254C85.5577 50.5527 85.2543 50.786 84.8623 50.954C84.4797 51.122 84.0643 51.206 83.6163 51.206C83.019 51.206 82.4777 51.0847 81.9923 50.842C81.5163 50.59 81.1383 50.2213 80.8583 49.736C80.5783 49.2413 80.4383 48.644 80.4383 47.944C80.4383 46.908 80.7463 46.0867 81.3623 45.48C81.9783 44.864 82.8183 44.556 83.8823 44.556C85.2077 44.556 86.141 44.9807 86.6823 45.83C87.233 46.6793 87.5083 47.958 87.5083 49.666C87.5083 50.8793 87.401 51.8733 87.1863 52.648C86.981 53.4227 86.6217 54.0107 86.1083 54.412C85.6043 54.8133 84.9137 55.014 84.0363 55.014C83.3457 55.014 82.7577 54.8833 82.2723 54.622C81.787 54.3513 81.4137 54.0013 81.1523 53.572C80.9003 53.1333 80.7557 52.6527 80.7183 52.13H82.5383ZM84.0223 49.61C84.5077 49.61 84.8903 49.4607 85.1703 49.162C85.4503 48.8633 85.5903 48.462 85.5903 47.958C85.5903 47.4073 85.441 46.9827 85.1423 46.684C84.853 46.376 84.4563 46.222 83.9523 46.222C83.4483 46.222 83.047 46.3807 82.7483 46.698C82.459 47.006 82.3143 47.4167 82.3143 47.93C82.3143 48.4247 82.4543 48.8307 82.7343 49.148C83.0237 49.456 83.453 49.61 84.0223 49.61ZM91.302 52.13C91.3767 52.5407 91.5447 52.858 91.806 53.082C92.0767 53.2967 92.436 53.404 92.884 53.404C93.4627 53.404 93.8827 53.166 94.144 52.69C94.4053 52.2047 94.536 51.3927 94.536 50.254C94.3213 50.5527 94.018 50.786 93.626 50.954C93.2433 51.122 92.828 51.206 92.38 51.206C91.7827 51.206 91.2413 51.0847 90.756 50.842C90.28 50.59 89.902 50.2213 89.622 49.736C89.342 49.2413 89.202 48.644 89.202 47.944C89.202 46.908 89.51 46.0867 90.126 45.48C90.742 44.864 91.582 44.556 92.646 44.556C93.9713 44.556 94.9047 44.9807 95.446 45.83C95.9967 46.6793 96.272 47.958 96.272 49.666C96.272 50.8793 96.1647 51.8733 95.95 52.648C95.7447 53.4227 95.3853 54.0107 94.872 54.412C94.368 54.8133 93.6773 55.014 92.8 55.014C92.1093 55.014 91.5213 54.8833 91.036 54.622C90.5507 54.3513 90.1773 54.0013 89.916 53.572C89.664 53.1333 89.5193 52.6527 89.482 52.13H91.302ZM92.786 49.61C93.2713 49.61 93.654 49.4607 93.934 49.162C94.214 48.8633 94.354 48.462 94.354 47.958C94.354 47.4073 94.2047 46.9827 93.906 46.684C93.6167 46.376 93.22 46.222 92.716 46.222C92.212 46.222 91.8107 46.3807 91.512 46.698C91.2227 47.006 91.078 47.4167 91.078 47.93C91.078 48.4247 91.218 48.8307 91.498 49.148C91.7873 49.456 92.2167 49.61 92.786 49.61ZM98.8897 55.098C98.535 55.098 98.241 54.9907 98.0077 54.776C97.7837 54.552 97.6717 54.2767 97.6717 53.95C97.6717 53.6233 97.7837 53.3527 98.0077 53.138C98.241 52.914 98.535 52.802 98.8897 52.802C99.235 52.802 99.5197 52.914 99.7437 53.138C99.9677 53.3527 100.08 53.6233 100.08 53.95C100.08 54.2767 99.9677 54.552 99.7437 54.776C99.5197 54.9907 99.235 55.098 98.8897 55.098ZM101.434 49.764C101.434 48.1493 101.724 46.8847 102.302 45.97C102.89 45.0553 103.861 44.598 105.214 44.598C106.568 44.598 107.534 45.0553 108.112 45.97C108.7 46.8847 108.994 48.1493 108.994 49.764C108.994 51.388 108.7 52.662 108.112 53.586C107.534 54.51 106.568 54.972 105.214 54.972C103.861 54.972 102.89 54.51 102.302 53.586C101.724 52.662 101.434 51.388 101.434 49.764ZM107.062 49.764C107.062 49.0733 107.016 48.4947 106.922 48.028C106.838 47.552 106.661 47.1647 106.39 46.866C106.129 46.5673 105.737 46.418 105.214 46.418C104.692 46.418 104.295 46.5673 104.024 46.866C103.763 47.1647 103.586 47.552 103.492 48.028C103.408 48.4947 103.366 49.0733 103.366 49.764C103.366 50.4733 103.408 51.0707 103.492 51.556C103.576 52.032 103.754 52.4193 104.024 52.718C104.295 53.0073 104.692 53.152 105.214 53.152C105.737 53.152 106.134 53.0073 106.404 52.718C106.675 52.4193 106.852 52.032 106.936 51.556C107.02 51.0707 107.062 50.4733 107.062 49.764ZM110.485 49.764C110.485 48.1493 110.774 46.8847 111.353 45.97C111.941 45.0553 112.912 44.598 114.265 44.598C115.618 44.598 116.584 45.0553 117.163 45.97C117.751 46.8847 118.045 48.1493 118.045 49.764C118.045 51.388 117.751 52.662 117.163 53.586C116.584 54.51 115.618 54.972 114.265 54.972C112.912 54.972 111.941 54.51 111.353 53.586C110.774 52.662 110.485 51.388 110.485 49.764ZM116.113 49.764C116.113 49.0733 116.066 48.4947 115.973 48.028C115.889 47.552 115.712 47.1647 115.441 46.866C115.18 46.5673 114.788 46.418 114.265 46.418C113.742 46.418 113.346 46.5673 113.075 46.866C112.814 47.1647 112.636 47.552 112.543 48.028C112.459 48.4947 112.417 49.0733 112.417 49.764C112.417 50.4733 112.459 51.0707 112.543 51.556C112.627 52.032 112.804 52.4193 113.075 52.718C113.346 53.0073 113.742 53.152 114.265 53.152C114.788 53.152 115.184 53.0073 115.455 52.718C115.726 52.4193 115.903 52.032 115.987 51.556C116.071 51.0707 116.113 50.4733 116.113 49.764Z" fill="#5C6272"/>
<path d="M15.4985 3.03V3.77H13.5985V10H12.6885V3.77H10.7785V3.03H15.4985ZM19.3386 4.42C19.752 4.42 20.1253 4.51 20.4586 4.69C20.792 4.86333 21.052 5.12667 21.2386 5.48C21.432 5.83333 21.5286 6.26333 21.5286 6.77V10H20.6286V6.9C20.6286 6.35333 20.492 5.93667 20.2186 5.65C19.9453 5.35667 19.572 5.21 19.0986 5.21C18.6186 5.21 18.2353 5.36 17.9486 5.66C17.6686 5.96 17.5286 6.39667 17.5286 6.97V10H16.6186V2.6H17.5286V5.3C17.7086 5.02 17.9553 4.80333 18.2686 4.65C18.5886 4.49667 18.9453 4.42 19.3386 4.42ZM28.0151 7.05C28.0151 7.22333 28.0051 7.40667 27.9851 7.6H23.6051C23.6385 8.14 23.8218 8.56333 24.1551 8.87C24.4951 9.17 24.9051 9.32 25.3851 9.32C25.7785 9.32 26.1051 9.23 26.3651 9.05C26.6318 8.86333 26.8185 8.61667 26.9251 8.31H27.9051C27.7585 8.83667 27.4651 9.26667 27.0251 9.6C26.5851 9.92667 26.0385 10.09 25.3851 10.09C24.8651 10.09 24.3985 9.97333 23.9851 9.74C23.5785 9.50667 23.2585 9.17667 23.0251 8.75C22.7918 8.31667 22.6751 7.81667 22.6751 7.25C22.6751 6.68333 22.7885 6.18667 23.0151 5.76C23.2418 5.33333 23.5585 5.00667 23.9651 4.78C24.3785 4.54667 24.8518 4.43 25.3851 4.43C25.9051 4.43 26.3651 4.54333 26.7651 4.77C27.1651 4.99667 27.4718 5.31 27.6851 5.71C27.9051 6.10333 28.0151 6.55 28.0151 7.05ZM27.0751 6.86C27.0751 6.51333 26.9985 6.21667 26.8451 5.97C26.6918 5.71667 26.4818 5.52667 26.2151 5.4C25.9551 5.26667 25.6651 5.2 25.3451 5.2C24.8851 5.2 24.4918 5.34667 24.1651 5.64C23.8451 5.93333 23.6618 6.34 23.6151 6.86H27.0751ZM38.4723 4.42C38.899 4.42 39.279 4.51 39.6123 4.69C39.9456 4.86333 40.209 5.12667 40.4023 5.48C40.5956 5.83333 40.6923 6.26333 40.6923 6.77V10H39.7923V6.9C39.7923 6.35333 39.6556 5.93667 39.3823 5.65C39.1156 5.35667 38.7523 5.21 38.2923 5.21C37.819 5.21 37.4423 5.36333 37.1623 5.67C36.8823 5.97 36.7423 6.40667 36.7423 6.98V10H35.8423V6.9C35.8423 6.35333 35.7056 5.93667 35.4323 5.65C35.1656 5.35667 34.8023 5.21 34.3423 5.21C33.869 5.21 33.4923 5.36333 33.2123 5.67C32.9323 5.97 32.7923 6.40667 32.7923 6.98V10H31.8823V4.52H32.7923V5.31C32.9723 5.02333 33.2123 4.80333 33.5123 4.65C33.819 4.49667 34.1556 4.42 34.5223 4.42C34.9823 4.42 35.389 4.52333 35.7423 4.73C36.0956 4.93667 36.359 5.24 36.5323 5.64C36.6856 5.25333 36.939 4.95333 37.2923 4.74C37.6456 4.52667 38.039 4.42 38.4723 4.42ZM44.575 10.09C44.0617 10.09 43.595 9.97333 43.175 9.74C42.7617 9.50667 42.435 9.17667 42.195 8.75C41.9617 8.31667 41.845 7.81667 41.845 7.25C41.845 6.69 41.965 6.19667 42.205 5.77C42.4517 5.33667 42.785 5.00667 43.205 4.78C43.625 4.54667 44.095 4.43 44.615 4.43C45.135 4.43 45.605 4.54667 46.025 4.78C46.445 5.00667 46.775 5.33333 47.015 5.76C47.2617 6.18667 47.385 6.68333 47.385 7.25C47.385 7.81667 47.2584 8.31667 47.005 8.75C46.7584 9.17667 46.4217 9.50667 45.995 9.74C45.5684 9.97333 45.095 10.09 44.575 10.09ZM44.575 9.29C44.9017 9.29 45.2084 9.21333 45.495 9.06C45.7817 8.90667 46.0117 8.67667 46.185 8.37C46.365 8.06333 46.455 7.69 46.455 7.25C46.455 6.81 46.3684 6.43667 46.195 6.13C46.0217 5.82333 45.795 5.59667 45.515 5.45C45.235 5.29667 44.9317 5.22 44.605 5.22C44.2717 5.22 43.965 5.29667 43.685 5.45C43.4117 5.59667 43.1917 5.82333 43.025 6.13C42.8584 6.43667 42.775 6.81 42.775 7.25C42.775 7.69667 42.855 8.07333 43.015 8.38C43.1817 8.68667 43.4017 8.91667 43.675 9.07C43.9484 9.21667 44.2484 9.29 44.575 9.29ZM50.5215 10.09C50.1015 10.09 49.7249 10.02 49.3915 9.88C49.0582 9.73333 48.7949 9.53333 48.6015 9.28C48.4082 9.02 48.3015 8.72333 48.2815 8.39H49.2215C49.2482 8.66333 49.3749 8.88667 49.6015 9.06C49.8349 9.23333 50.1382 9.32 50.5115 9.32C50.8582 9.32 51.1315 9.24333 51.3315 9.09C51.5315 8.93667 51.6315 8.74333 51.6315 8.51C51.6315 8.27 51.5249 8.09333 51.3115 7.98C51.0982 7.86 50.7682 7.74333 50.3215 7.63C49.9149 7.52333 49.5815 7.41667 49.3215 7.31C49.0682 7.19667 48.8482 7.03333 48.6615 6.82C48.4815 6.6 48.3915 6.31333 48.3915 5.96C48.3915 5.68 48.4749 5.42333 48.6415 5.19C48.8082 4.95667 49.0449 4.77333 49.3515 4.64C49.6582 4.5 50.0082 4.43 50.4015 4.43C51.0082 4.43 51.4982 4.58333 51.8715 4.89C52.2449 5.19667 52.4449 5.61667 52.4715 6.15H51.5615C51.5415 5.86333 51.4249 5.63333 51.2115 5.46C51.0049 5.28667 50.7249 5.2 50.3715 5.2C50.0449 5.2 49.7849 5.27 49.5915 5.41C49.3982 5.55 49.3015 5.73333 49.3015 5.96C49.3015 6.14 49.3582 6.29 49.4715 6.41C49.5915 6.52333 49.7382 6.61667 49.9115 6.69C50.0915 6.75667 50.3382 6.83333 50.6515 6.92C51.0449 7.02667 51.3649 7.13333 51.6115 7.24C51.8582 7.34 52.0682 7.49333 52.2415 7.7C52.4215 7.90667 52.5149 8.17667 52.5215 8.51C52.5215 8.81 52.4382 9.08 52.2715 9.32C52.1049 9.56 51.8682 9.75 51.5615 9.89C51.2615 10.0233 50.9149 10.09 50.5215 10.09ZM54.9161 5.27V8.5C54.9161 8.76667 54.9728 8.95667 55.0861 9.07C55.1995 9.17667 55.3961 9.23 55.6761 9.23H56.3461V10H55.5261C55.0195 10 54.6395 9.88333 54.3861 9.65C54.1328 9.41667 54.0061 9.03333 54.0061 8.5V5.27H53.2961V4.52H54.0061V3.14H54.9161V4.52H56.3461V5.27H54.9161ZM61.0247 2.6V10H60.1147V2.6H61.0247ZM67.4357 4.52V10H66.5257V9.19C66.3523 9.47 66.109 9.69 65.7957 9.85C65.489 10.0033 65.149 10.08 64.7757 10.08C64.349 10.08 63.9657 9.99333 63.6257 9.82C63.2857 9.64 63.0157 9.37333 62.8157 9.02C62.6223 8.66667 62.5257 8.23667 62.5257 7.73V4.52H63.4257V7.61C63.4257 8.15 63.5623 8.56667 63.8357 8.86C64.109 9.14667 64.4823 9.29 64.9557 9.29C65.4423 9.29 65.8257 9.14 66.1057 8.84C66.3857 8.54 66.5257 8.10333 66.5257 7.53V4.52H67.4357ZM71.8321 10L70.5321 7.96L69.2821 10H68.3321L70.1021 7.28L68.3321 4.52H69.3621L70.6621 6.55L71.9021 4.52H72.8521L71.0921 7.23L72.8621 10H71.8321ZM78.6173 4.52V10H77.7073V9.19C77.534 9.47 77.2906 9.69 76.9773 9.85C76.6706 10.0033 76.3306 10.08 75.9573 10.08C75.5306 10.08 75.1473 9.99333 74.8073 9.82C74.4673 9.64 74.1973 9.37333 73.9973 9.02C73.804 8.66667 73.7073 8.23667 73.7073 7.73V4.52H74.6073V7.61C74.6073 8.15 74.744 8.56667 75.0173 8.86C75.2906 9.14667 75.664 9.29 76.1373 9.29C76.624 9.29 77.0073 9.14 77.2873 8.84C77.5673 8.54 77.7073 8.10333 77.7073 7.53V4.52H78.6173ZM81.0638 5.41C81.2238 5.09667 81.4505 4.85333 81.7438 4.68C82.0438 4.50667 82.4071 4.42 82.8338 4.42V5.36H82.5938C81.5738 5.36 81.0638 5.91333 81.0638 7.02V10H80.1538V4.52H81.0638V5.41ZM84.3543 3.63C84.1809 3.63 84.0343 3.57 83.9143 3.45C83.7943 3.33 83.7343 3.18333 83.7343 3.01C83.7343 2.83667 83.7943 2.69 83.9143 2.57C84.0343 2.45 84.1809 2.39 84.3543 2.39C84.5209 2.39 84.6609 2.45 84.7743 2.57C84.8943 2.69 84.9543 2.83667 84.9543 3.01C84.9543 3.18333 84.8943 3.33 84.7743 3.45C84.6609 3.57 84.5209 3.63 84.3543 3.63ZM84.7943 4.52V10H83.8843V4.52H84.7943ZM88.7352 10.09C88.2219 10.09 87.7552 9.97333 87.3352 9.74C86.9219 9.50667 86.5952 9.17667 86.3552 8.75C86.1219 8.31667 86.0052 7.81667 86.0052 7.25C86.0052 6.69 86.1252 6.19667 86.3652 5.77C86.6119 5.33667 86.9452 5.00667 87.3652 4.78C87.7852 4.54667 88.2552 4.43 88.7752 4.43C89.2952 4.43 89.7652 4.54667 90.1852 4.78C90.6052 5.00667 90.9352 5.33333 91.1752 5.76C91.4219 6.18667 91.5452 6.68333 91.5452 7.25C91.5452 7.81667 91.4185 8.31667 91.1652 8.75C90.9185 9.17667 90.5819 9.50667 90.1552 9.74C89.7285 9.97333 89.2552 10.09 88.7352 10.09ZM88.7352 9.29C89.0619 9.29 89.3685 9.21333 89.6552 9.06C89.9419 8.90667 90.1719 8.67667 90.3452 8.37C90.5252 8.06333 90.6152 7.69 90.6152 7.25C90.6152 6.81 90.5285 6.43667 90.3552 6.13C90.1819 5.82333 89.9552 5.59667 89.6752 5.45C89.3952 5.29667 89.0919 5.22 88.7652 5.22C88.4319 5.22 88.1252 5.29667 87.8452 5.45C87.5719 5.59667 87.3519 5.82333 87.1852 6.13C87.0185 6.43667 86.9352 6.81 86.9352 7.25C86.9352 7.69667 87.0152 8.07333 87.1752 8.38C87.3419 8.68667 87.5619 8.91667 87.8352 9.07C88.1085 9.21667 88.4085 9.29 88.7352 9.29ZM97.6017 4.52V10H96.6917V9.19C96.5183 9.47 96.275 9.69 95.9617 9.85C95.655 10.0033 95.315 10.08 94.9417 10.08C94.515 10.08 94.1317 9.99333 93.7917 9.82C93.4517 9.64 93.1817 9.37333 92.9817 9.02C92.7883 8.66667 92.6917 8.23667 92.6917 7.73V4.52H93.5917V7.61C93.5917 8.15 93.7283 8.56667 94.0017 8.86C94.275 9.14667 94.6483 9.29 95.1217 9.29C95.6083 9.29 95.9917 9.14 96.2717 8.84C96.5517 8.54 96.6917 8.10333 96.6917 7.53V4.52H97.6017ZM101.078 10.09C100.658 10.09 100.281 10.02 99.9482 9.88C99.6148 9.73333 99.3515 9.53333 99.1582 9.28C98.9648 9.02 98.8582 8.72333 98.8382 8.39H99.7782C99.8048 8.66333 99.9315 8.88667 100.158 9.06C100.391 9.23333 100.695 9.32 101.068 9.32C101.415 9.32 101.688 9.24333 101.888 9.09C102.088 8.93667 102.188 8.74333 102.188 8.51C102.188 8.27 102.081 8.09333 101.868 7.98C101.655 7.86 101.325 7.74333 100.878 7.63C100.471 7.52333 100.138 7.41667 99.8782 7.31C99.6248 7.19667 99.4048 7.03333 99.2182 6.82C99.0382 6.6 98.9482 6.31333 98.9482 5.96C98.9482 5.68 99.0315 5.42333 99.1982 5.19C99.3648 4.95667 99.6015 4.77333 99.9082 4.64C100.215 4.5 100.565 4.43 100.958 4.43C101.565 4.43 102.055 4.58333 102.428 4.89C102.801 5.19667 103.001 5.61667 103.028 6.15H102.118C102.098 5.86333 101.981 5.63333 101.768 5.46C101.561 5.28667 101.281 5.2 100.928 5.2C100.601 5.2 100.341 5.27 100.148 5.41C99.9548 5.55 99.8582 5.73333 99.8582 5.96C99.8582 6.14 99.9148 6.29 100.028 6.41C100.148 6.52333 100.295 6.61667 100.468 6.69C100.648 6.75667 100.895 6.83333 101.208 6.92C101.601 7.02667 101.921 7.13333 102.168 7.24C102.415 7.34 102.625 7.49333 102.798 7.7C102.978 7.90667 103.071 8.17667 103.078 8.51C103.078 8.81 102.995 9.08 102.828 9.32C102.661 9.56 102.425 9.75 102.118 9.89C101.818 10.0233 101.471 10.09 101.078 10.09ZM109.259 5.27H108.109V10H107.199V5.27H106.489V4.52H107.199V4.13C107.199 3.51667 107.355 3.07 107.669 2.79C107.989 2.50333 108.499 2.36 109.199 2.36V3.12C108.799 3.12 108.515 3.2 108.349 3.36C108.189 3.51333 108.109 3.77 108.109 4.13V4.52H109.259V5.27ZM111.23 5.41C111.39 5.09667 111.616 4.85333 111.91 4.68C112.21 4.50667 112.573 4.42 113 4.42V5.36H112.76C111.74 5.36 111.23 5.91333 111.23 7.02V10H110.32V4.52H111.23V5.41ZM119.05 7.05C119.05 7.22333 119.04 7.40667 119.02 7.6H114.64C114.674 8.14 114.857 8.56333 115.19 8.87C115.53 9.17 115.94 9.32 116.42 9.32C116.814 9.32 117.14 9.23 117.4 9.05C117.667 8.86333 117.854 8.61667 117.96 8.31H118.94C118.794 8.83667 118.5 9.26667 118.06 9.6C117.62 9.92667 117.074 10.09 116.42 10.09C115.9 10.09 115.434 9.97333 115.02 9.74C114.614 9.50667 114.294 9.17667 114.06 8.75C113.827 8.31667 113.71 7.81667 113.71 7.25C113.71 6.68333 113.824 6.18667 114.05 5.76C114.277 5.33333 114.594 5.00667 115 4.78C115.414 4.54667 115.887 4.43 116.42 4.43C116.94 4.43 117.4 4.54333 117.8 4.77C118.2 4.99667 118.507 5.31 118.72 5.71C118.94 6.10333 119.05 6.55 119.05 7.05ZM118.11 6.86C118.11 6.51333 118.034 6.21667 117.88 5.97C117.727 5.71667 117.517 5.52667 117.25 5.4C116.99 5.26667 116.7 5.2 116.38 5.2C115.92 5.2 115.527 5.34667 115.2 5.64C114.88 5.93333 114.697 6.34 114.65 6.86H118.11ZM125.251 7.05C125.251 7.22333 125.241 7.40667 125.221 7.6H120.841C120.875 8.14 121.058 8.56333 121.391 8.87C121.731 9.17 122.141 9.32 122.621 9.32C123.015 9.32 123.341 9.23 123.601 9.05C123.868 8.86333 124.055 8.61667 124.161 8.31H125.141C124.995 8.83667 124.701 9.26667 124.261 9.6C123.821 9.92667 123.275 10.09 122.621 10.09C122.101 10.09 121.635 9.97333 121.221 9.74C120.815 9.50667 120.495 9.17667 120.261 8.75C120.028 8.31667 119.911 7.81667 119.911 7.25C119.911 6.68333 120.025 6.18667 120.251 5.76C120.478 5.33333 120.795 5.00667 121.201 4.78C121.615 4.54667 122.088 4.43 122.621 4.43C123.141 4.43 123.601 4.54333 124.001 4.77C124.401 4.99667 124.708 5.31 124.921 5.71C125.141 6.10333 125.251 6.55 125.251 7.05ZM124.311 6.86C124.311 6.51333 124.235 6.21667 124.081 5.97C123.928 5.71667 123.718 5.52667 123.451 5.4C123.191 5.26667 122.901 5.2 122.581 5.2C122.121 5.2 121.728 5.34667 121.401 5.64C121.081 5.93333 120.898 6.34 120.851 6.86H124.311ZM131.059 10.09C130.639 10.09 130.262 10.02 129.929 9.88C129.595 9.73333 129.332 9.53333 129.139 9.28C128.945 9.02 128.839 8.72333 128.819 8.39H129.759C129.785 8.66333 129.912 8.88667 130.139 9.06C130.372 9.23333 130.675 9.32 131.049 9.32C131.395 9.32 131.669 9.24333 131.869 9.09C132.069 8.93667 132.169 8.74333 132.169 8.51C132.169 8.27 132.062 8.09333 131.849 7.98C131.635 7.86 131.305 7.74333 130.859 7.63C130.452 7.52333 130.119 7.41667 129.859 7.31C129.605 7.19667 129.385 7.03333 129.199 6.82C129.019 6.6 128.929 6.31333 128.929 5.96C128.929 5.68 129.012 5.42333 129.179 5.19C129.345 4.95667 129.582 4.77333 129.889 4.64C130.195 4.5 130.545 4.43 130.939 4.43C131.545 4.43 132.035 4.58333 132.409 4.89C132.782 5.19667 132.982 5.61667 133.009 6.15H132.099C132.079 5.86333 131.962 5.63333 131.749 5.46C131.542 5.28667 131.262 5.2 130.909 5.2C130.582 5.2 130.322 5.27 130.129 5.41C129.935 5.55 129.839 5.73333 129.839 5.96C129.839 6.14 129.895 6.29 130.009 6.41C130.129 6.52333 130.275 6.61667 130.449 6.69C130.629 6.75667 130.875 6.83333 131.189 6.92C131.582 7.02667 131.902 7.13333 132.149 7.24C132.395 7.34 132.605 7.49333 132.779 7.7C132.959 7.90667 133.052 8.17667 133.059 8.51C133.059 8.81 132.975 9.08 132.809 9.32C132.642 9.56 132.405 9.75 132.099 9.89C131.799 10.0233 131.452 10.09 131.059 10.09ZM137.063 4.42C137.477 4.42 137.85 4.51 138.183 4.69C138.517 4.86333 138.777 5.12667 138.963 5.48C139.157 5.83333 139.253 6.26333 139.253 6.77V10H138.353V6.9C138.353 6.35333 138.217 5.93667 137.943 5.65C137.67 5.35667 137.297 5.21 136.823 5.21C136.343 5.21 135.96 5.36 135.673 5.66C135.393 5.96 135.253 6.39667 135.253 6.97V10H134.343V2.6H135.253V5.3C135.433 5.02 135.68 4.80333 135.993 4.65C136.313 4.49667 136.67 4.42 137.063 4.42ZM141.21 3.63C141.036 3.63 140.89 3.57 140.77 3.45C140.65 3.33 140.59 3.18333 140.59 3.01C140.59 2.83667 140.65 2.69 140.77 2.57C140.89 2.45 141.036 2.39 141.21 2.39C141.376 2.39 141.516 2.45 141.63 2.57C141.75 2.69 141.81 2.83667 141.81 3.01C141.81 3.18333 141.75 3.33 141.63 3.45C141.516 3.57 141.376 3.63 141.21 3.63ZM141.65 4.52V10H140.74V4.52H141.65ZM144.111 5.53C144.291 5.21667 144.557 4.95667 144.911 4.75C145.271 4.53667 145.687 4.43 146.161 4.43C146.647 4.43 147.087 4.54667 147.481 4.78C147.881 5.01333 148.194 5.34333 148.421 5.77C148.647 6.19 148.761 6.68 148.761 7.24C148.761 7.79333 148.647 8.28667 148.421 8.72C148.194 9.15333 147.881 9.49 147.481 9.73C147.087 9.97 146.647 10.09 146.161 10.09C145.694 10.09 145.281 9.98667 144.921 9.78C144.567 9.56667 144.297 9.30333 144.111 8.99V12.6H143.201V4.52H144.111V5.53ZM147.831 7.24C147.831 6.82667 147.747 6.46667 147.581 6.16C147.414 5.85333 147.187 5.62 146.901 5.46C146.621 5.3 146.311 5.22 145.971 5.22C145.637 5.22 145.327 5.30333 145.041 5.47C144.761 5.63 144.534 5.86667 144.361 6.18C144.194 6.48667 144.111 6.84333 144.111 7.25C144.111 7.66333 144.194 8.02667 144.361 8.34C144.534 8.64667 144.761 8.88333 145.041 9.05C145.327 9.21 145.637 9.29 145.971 9.29C146.311 9.29 146.621 9.21 146.901 9.05C147.187 8.88333 147.414 8.64667 147.581 8.34C147.747 8.02667 147.831 7.66 147.831 7.24ZM150.868 5.53C151.048 5.21667 151.315 4.95667 151.668 4.75C152.028 4.53667 152.445 4.43 152.918 4.43C153.405 4.43 153.845 4.54667 154.238 4.78C154.638 5.01333 154.952 5.34333 155.178 5.77C155.405 6.19 155.518 6.68 155.518 7.24C155.518 7.79333 155.405 8.28667 155.178 8.72C154.952 9.15333 154.638 9.49 154.238 9.73C153.845 9.97 153.405 10.09 152.918 10.09C152.452 10.09 152.038 9.98667 151.678 9.78C151.325 9.56667 151.055 9.30333 150.868 8.99V12.6H149.958V4.52H150.868V5.53ZM154.588 7.24C154.588 6.82667 154.505 6.46667 154.338 6.16C154.172 5.85333 153.945 5.62 153.658 5.46C153.378 5.3 153.068 5.22 152.728 5.22C152.395 5.22 152.085 5.30333 151.798 5.47C151.518 5.63 151.292 5.86667 151.118 6.18C150.952 6.48667 150.868 6.84333 150.868 7.25C150.868 7.66333 150.952 8.02667 151.118 8.34C151.292 8.64667 151.518 8.88333 151.798 9.05C152.085 9.21 152.395 9.29 152.728 9.29C153.068 9.29 153.378 9.21 153.658 9.05C153.945 8.88333 154.172 8.64667 154.338 8.34C154.505 8.02667 154.588 7.66 154.588 7.24ZM157.186 3.63C157.013 3.63 156.866 3.57 156.746 3.45C156.626 3.33 156.566 3.18333 156.566 3.01C156.566 2.83667 156.626 2.69 156.746 2.57C156.866 2.45 157.013 2.39 157.186 2.39C157.353 2.39 157.493 2.45 157.606 2.57C157.726 2.69 157.786 2.83667 157.786 3.01C157.786 3.18333 157.726 3.33 157.606 3.45C157.493 3.57 157.353 3.63 157.186 3.63ZM157.626 4.52V10H156.716V4.52H157.626ZM161.847 4.42C162.514 4.42 163.054 4.62333 163.467 5.03C163.881 5.43 164.087 6.01 164.087 6.77V10H163.187V6.9C163.187 6.35333 163.051 5.93667 162.777 5.65C162.504 5.35667 162.131 5.21 161.657 5.21C161.177 5.21 160.794 5.36 160.507 5.66C160.227 5.96 160.087 6.39667 160.087 6.97V10H159.177V4.52H160.087V5.3C160.267 5.02 160.511 4.80333 160.817 4.65C161.131 4.49667 161.474 4.42 161.847 4.42ZM167.834 4.43C168.307 4.43 168.72 4.53333 169.074 4.74C169.434 4.94667 169.7 5.20667 169.874 5.52V4.52H170.794V10.12C170.794 10.62 170.687 11.0633 170.474 11.45C170.26 11.8433 169.954 12.15 169.554 12.37C169.16 12.59 168.7 12.7 168.174 12.7C167.454 12.7 166.854 12.53 166.374 12.19C165.894 11.85 165.61 11.3867 165.524 10.8H166.424C166.524 11.1333 166.73 11.4 167.044 11.6C167.357 11.8067 167.734 11.91 168.174 11.91C168.674 11.91 169.08 11.7533 169.394 11.44C169.714 11.1267 169.874 10.6867 169.874 10.12V8.97C169.694 9.29 169.427 9.55667 169.074 9.77C168.72 9.98333 168.307 10.09 167.834 10.09C167.347 10.09 166.904 9.97 166.504 9.73C166.11 9.49 165.8 9.15333 165.574 8.72C165.347 8.28667 165.234 7.79333 165.234 7.24C165.234 6.68 165.347 6.19 165.574 5.77C165.8 5.34333 166.11 5.01333 166.504 4.78C166.904 4.54667 167.347 4.43 167.834 4.43ZM169.874 7.25C169.874 6.83667 169.79 6.47667 169.624 6.17C169.457 5.86333 169.23 5.63 168.944 5.47C168.664 5.30333 168.354 5.22 168.014 5.22C167.674 5.22 167.364 5.3 167.084 5.46C166.804 5.62 166.58 5.85333 166.414 6.16C166.247 6.46667 166.164 6.82667 166.164 7.24C166.164 7.66 166.247 8.02667 166.414 8.34C166.58 8.64667 166.804 8.88333 167.084 9.05C167.364 9.21 167.674 9.29 168.014 9.29C168.354 9.29 168.664 9.21 168.944 9.05C169.23 8.88333 169.457 8.64667 169.624 8.34C169.79 8.02667 169.874 7.66333 169.874 7.25ZM24.3384 19.05C24.3384 19.2233 24.3284 19.4067 24.3084 19.6H19.9284C19.9617 20.14 20.145 20.5633 20.4784 20.87C20.8184 21.17 21.2284 21.32 21.7084 21.32C22.1017 21.32 22.4284 21.23 22.6884 21.05C22.955 20.8633 23.1417 20.6167 23.2484 20.31H24.2284C24.0817 20.8367 23.7884 21.2667 23.3484 21.6C22.9084 21.9267 22.3617 22.09 21.7084 22.09C21.1884 22.09 20.7217 21.9733 20.3084 21.74C19.9017 21.5067 19.5817 21.1767 19.3484 20.75C19.115 20.3167 18.9984 19.8167 18.9984 19.25C18.9984 18.6833 19.1117 18.1867 19.3384 17.76C19.565 17.3333 19.8817 17.0067 20.2884 16.78C20.7017 16.5467 21.175 16.43 21.7084 16.43C22.2284 16.43 22.6884 16.5433 23.0884 16.77C23.4884 16.9967 23.795 17.31 24.0084 17.71C24.2284 18.1033 24.3384 18.55 24.3384 19.05ZM23.3984 18.86C23.3984 18.5133 23.3217 18.2167 23.1684 17.97C23.015 17.7167 22.805 17.5267 22.5384 17.4C22.2784 17.2667 21.9884 17.2 21.6684 17.2C21.2084 17.2 20.815 17.3467 20.4884 17.64C20.1684 17.9333 19.985 18.34 19.9384 18.86H23.3984ZM28.3995 22L27.0995 19.96L25.8495 22H24.8995L26.6695 19.28L24.8995 16.52H25.9295L27.2295 18.55L28.4695 16.52H29.4195L27.6595 19.23L29.4295 22H28.3995ZM31.2347 17.53C31.4147 17.2167 31.6814 16.9567 32.0347 16.75C32.3947 16.5367 32.8114 16.43 33.2847 16.43C33.7714 16.43 34.2114 16.5467 34.6047 16.78C35.0047 17.0133 35.318 17.3433 35.5447 17.77C35.7714 18.19 35.8847 18.68 35.8847 19.24C35.8847 19.7933 35.7714 20.2867 35.5447 20.72C35.318 21.1533 35.0047 21.49 34.6047 21.73C34.2114 21.97 33.7714 22.09 33.2847 22.09C32.818 22.09 32.4047 21.9867 32.0447 21.78C31.6914 21.5667 31.4214 21.3033 31.2347 20.99V24.6H30.3247V16.52H31.2347V17.53ZM34.9547 19.24C34.9547 18.8267 34.8714 18.4667 34.7047 18.16C34.538 17.8533 34.3114 17.62 34.0247 17.46C33.7447 17.3 33.4347 17.22 33.0947 17.22C32.7614 17.22 32.4514 17.3033 32.1647 17.47C31.8847 17.63 31.658 17.8667 31.4847 18.18C31.318 18.4867 31.2347 18.8433 31.2347 19.25C31.2347 19.6633 31.318 20.0267 31.4847 20.34C31.658 20.6467 31.8847 20.8833 32.1647 21.05C32.4514 21.21 32.7614 21.29 33.0947 21.29C33.4347 21.29 33.7447 21.21 34.0247 21.05C34.3114 20.8833 34.538 20.6467 34.7047 20.34C34.8714 20.0267 34.9547 19.66 34.9547 19.24ZM42.0825 19.05C42.0825 19.2233 42.0725 19.4067 42.0525 19.6H37.6725C37.7058 20.14 37.8892 20.5633 38.2225 20.87C38.5625 21.17 38.9725 21.32 39.4525 21.32C39.8458 21.32 40.1725 21.23 40.4325 21.05C40.6992 20.8633 40.8858 20.6167 40.9925 20.31H41.9725C41.8258 20.8367 41.5325 21.2667 41.0925 21.6C40.6525 21.9267 40.1058 22.09 39.4525 22.09C38.9325 22.09 38.4658 21.9733 38.0525 21.74C37.6458 21.5067 37.3258 21.1767 37.0925 20.75C36.8592 20.3167 36.7425 19.8167 36.7425 19.25C36.7425 18.6833 36.8558 18.1867 37.0825 17.76C37.3092 17.3333 37.6258 17.0067 38.0325 16.78C38.4458 16.5467 38.9192 16.43 39.4525 16.43C39.9725 16.43 40.4325 16.5433 40.8325 16.77C41.2325 16.9967 41.5392 17.31 41.7525 17.71C41.9725 18.1033 42.0825 18.55 42.0825 19.05ZM41.1425 18.86C41.1425 18.5133 41.0658 18.2167 40.9125 17.97C40.7592 17.7167 40.5492 17.5267 40.2825 17.4C40.0225 17.2667 39.7325 17.2 39.4125 17.2C38.9525 17.2 38.5592 17.3467 38.2325 17.64C37.9125 17.9333 37.7292 18.34 37.6825 18.86H41.1425ZM44.1937 17.41C44.3537 17.0967 44.5803 16.8533 44.8737 16.68C45.1737 16.5067 45.537 16.42 45.9637 16.42V17.36H45.7237C44.7037 17.36 44.1937 17.9133 44.1937 19.02V22H43.2837V16.52H44.1937V17.41ZM47.4841 15.63C47.3108 15.63 47.1641 15.57 47.0441 15.45C46.9241 15.33 46.8641 15.1833 46.8641 15.01C46.8641 14.8367 46.9241 14.69 47.0441 14.57C47.1641 14.45 47.3108 14.39 47.4841 14.39C47.6508 14.39 47.7908 14.45 47.9041 14.57C48.0241 14.69 48.0841 14.8367 48.0841 15.01C48.0841 15.1833 48.0241 15.33 47.9041 15.45C47.7908 15.57 47.6508 15.63 47.4841 15.63ZM47.9241 16.52V22H47.0141V16.52H47.9241ZM54.4751 19.05C54.4751 19.2233 54.4651 19.4067 54.4451 19.6H50.0651C50.0984 20.14 50.2817 20.5633 50.6151 20.87C50.9551 21.17 51.3651 21.32 51.8451 21.32C52.2384 21.32 52.5651 21.23 52.8251 21.05C53.0917 20.8633 53.2784 20.6167 53.3851 20.31H54.3651C54.2184 20.8367 53.9251 21.2667 53.4851 21.6C53.0451 21.9267 52.4984 22.09 51.8451 22.09C51.3251 22.09 50.8584 21.9733 50.4451 21.74C50.0384 21.5067 49.7184 21.1767 49.4851 20.75C49.2517 20.3167 49.1351 19.8167 49.1351 19.25C49.1351 18.6833 49.2484 18.1867 49.4751 17.76C49.7017 17.3333 50.0184 17.0067 50.4251 16.78C50.8384 16.5467 51.3117 16.43 51.8451 16.43C52.3651 16.43 52.8251 16.5433 53.2251 16.77C53.6251 16.9967 53.9317 17.31 54.1451 17.71C54.3651 18.1033 54.4751 18.55 54.4751 19.05ZM53.5351 18.86C53.5351 18.5133 53.4584 18.2167 53.3051 17.97C53.1517 17.7167 52.9417 17.5267 52.6751 17.4C52.4151 17.2667 52.1251 17.2 51.8051 17.2C51.3451 17.2 50.9517 17.3467 50.6251 17.64C50.3051 17.9333 50.1217 18.34 50.0751 18.86H53.5351ZM58.3463 16.42C59.0129 16.42 59.5529 16.6233 59.9663 17.03C60.3796 17.43 60.5863 18.01 60.5863 18.77V22H59.6863V18.9C59.6863 18.3533 59.5496 17.9367 59.2763 17.65C59.0029 17.3567 58.6296 17.21 58.1563 17.21C57.6763 17.21 57.2929 17.36 57.0063 17.66C56.7263 17.96 56.5863 18.3967 56.5863 18.97V22H55.6763V16.52H56.5863V17.3C56.7663 17.02 57.0096 16.8033 57.3163 16.65C57.6296 16.4967 57.9729 16.42 58.3463 16.42ZM61.7327 19.25C61.7327 18.6833 61.8461 18.19 62.0727 17.77C62.2994 17.3433 62.6127 17.0133 63.0127 16.78C63.4194 16.5467 63.8827 16.43 64.4027 16.43C65.0761 16.43 65.6294 16.5933 66.0627 16.92C66.5027 17.2467 66.7927 17.7 66.9327 18.28H65.9527C65.8594 17.9467 65.6761 17.6833 65.4027 17.49C65.1361 17.2967 64.8027 17.2 64.4027 17.2C63.8827 17.2 63.4627 17.38 63.1427 17.74C62.8227 18.0933 62.6627 18.5967 62.6627 19.25C62.6627 19.91 62.8227 20.42 63.1427 20.78C63.4627 21.14 63.8827 21.32 64.4027 21.32C64.8027 21.32 65.1361 21.2267 65.4027 21.04C65.6694 20.8533 65.8527 20.5867 65.9527 20.24H66.9327C66.7861 20.8 66.4927 21.25 66.0527 21.59C65.6127 21.9233 65.0627 22.09 64.4027 22.09C63.8827 22.09 63.4194 21.9733 63.0127 21.74C62.6127 21.5067 62.2994 21.1767 62.0727 20.75C61.8461 20.3233 61.7327 19.8233 61.7327 19.25ZM73.147 19.05C73.147 19.2233 73.137 19.4067 73.117 19.6H68.737C68.7703 20.14 68.9536 20.5633 69.287 20.87C69.627 21.17 70.037 21.32 70.517 21.32C70.9103 21.32 71.237 21.23 71.497 21.05C71.7636 20.8633 71.9503 20.6167 72.057 20.31H73.037C72.8903 20.8367 72.597 21.2667 72.157 21.6C71.717 21.9267 71.1703 22.09 70.517 22.09C69.997 22.09 69.5303 21.9733 69.117 21.74C68.7103 21.5067 68.3903 21.1767 68.157 20.75C67.9236 20.3167 67.807 19.8167 67.807 19.25C67.807 18.6833 67.9203 18.1867 68.147 17.76C68.3736 17.3333 68.6903 17.0067 69.097 16.78C69.5103 16.5467 69.9836 16.43 70.517 16.43C71.037 16.43 71.497 16.5433 71.897 16.77C72.297 16.9967 72.6036 17.31 72.817 17.71C73.037 18.1033 73.147 18.55 73.147 19.05ZM72.207 18.86C72.207 18.5133 72.1303 18.2167 71.977 17.97C71.8236 17.7167 71.6136 17.5267 71.347 17.4C71.087 17.2667 70.797 17.2 70.477 17.2C70.017 17.2 69.6236 17.3467 69.297 17.64C68.977 17.9333 68.7936 18.34 68.747 18.86H72.207ZM77.4841 15.63C77.3108 15.63 77.1641 15.57 77.0441 15.45C76.9241 15.33 76.8641 15.1833 76.8641 15.01C76.8641 14.8367 76.9241 14.69 77.0441 14.57C77.1641 14.45 77.3108 14.39 77.4841 14.39C77.6508 14.39 77.7908 14.45 77.9041 14.57C78.0241 14.69 78.0841 14.8367 78.0841 15.01C78.0841 15.1833 78.0241 15.33 77.9041 15.45C77.7908 15.57 77.6508 15.63 77.4841 15.63ZM77.9241 16.52V22H77.0141V16.52H77.9241ZM81.4151 22.09C80.9951 22.09 80.6184 22.02 80.2851 21.88C79.9517 21.7333 79.6884 21.5333 79.4951 21.28C79.3017 21.02 79.1951 20.7233 79.1751 20.39H80.1151C80.1417 20.6633 80.2684 20.8867 80.4951 21.06C80.7284 21.2333 81.0317 21.32 81.4051 21.32C81.7517 21.32 82.0251 21.2433 82.2251 21.09C82.4251 20.9367 82.5251 20.7433 82.5251 20.51C82.5251 20.27 82.4184 20.0933 82.2051 19.98C81.9917 19.86 81.6617 19.7433 81.2151 19.63C80.8084 19.5233 80.4751 19.4167 80.2151 19.31C79.9617 19.1967 79.7417 19.0333 79.5551 18.82C79.3751 18.6 79.2851 18.3133 79.2851 17.96C79.2851 17.68 79.3684 17.4233 79.5351 17.19C79.7017 16.9567 79.9384 16.7733 80.2451 16.64C80.5517 16.5 80.9017 16.43 81.2951 16.43C81.9017 16.43 82.3917 16.5833 82.7651 16.89C83.1384 17.1967 83.3384 17.6167 83.3651 18.15H82.4551C82.4351 17.8633 82.3184 17.6333 82.1051 17.46C81.8984 17.2867 81.6184 17.2 81.2651 17.2C80.9384 17.2 80.6784 17.27 80.4851 17.41C80.2917 17.55 80.1951 17.7333 80.1951 17.96C80.1951 18.14 80.2517 18.29 80.3651 18.41C80.4851 18.5233 80.6317 18.6167 80.8051 18.69C80.9851 18.7567 81.2317 18.8333 81.5451 18.92C81.9384 19.0267 82.2584 19.1333 82.5051 19.24C82.7517 19.34 82.9617 19.4933 83.1351 19.7C83.3151 19.9067 83.4084 20.1767 83.4151 20.51C83.4151 20.81 83.3317 21.08 83.1651 21.32C82.9984 21.56 82.7617 21.75 82.4551 21.89C82.1551 22.0233 81.8084 22.09 81.4151 22.09ZM94.6657 16.52L92.9557 22H92.0157L90.6957 17.65L89.3757 22H88.4357L86.7157 16.52H87.6457L88.9057 21.12L90.2657 16.52H91.1957L92.5257 21.13L93.7657 16.52H94.6657ZM95.2288 19.24C95.2288 18.68 95.3422 18.19 95.5688 17.77C95.7955 17.3433 96.1055 17.0133 96.4988 16.78C96.8988 16.5467 97.3422 16.43 97.8288 16.43C98.3088 16.43 98.7255 16.5333 99.0788 16.74C99.4322 16.9467 99.6955 17.2067 99.8688 17.52V16.52H100.789V22H99.8688V20.98C99.6888 21.3 99.4188 21.5667 99.0588 21.78C98.7055 21.9867 98.2922 22.09 97.8188 22.09C97.3322 22.09 96.8922 21.97 96.4988 21.73C96.1055 21.49 95.7955 21.1533 95.5688 20.72C95.3422 20.2867 95.2288 19.7933 95.2288 19.24ZM99.8688 19.25C99.8688 18.8367 99.7855 18.4767 99.6188 18.17C99.4522 17.8633 99.2255 17.63 98.9388 17.47C98.6588 17.3033 98.3488 17.22 98.0088 17.22C97.6688 17.22 97.3588 17.3 97.0788 17.46C96.7988 17.62 96.5755 17.8533 96.4088 18.16C96.2422 18.4667 96.1588 18.8267 96.1588 19.24C96.1588 19.66 96.2422 20.0267 96.4088 20.34C96.5755 20.6467 96.7988 20.8833 97.0788 21.05C97.3588 21.21 97.6688 21.29 98.0088 21.29C98.3488 21.29 98.6588 21.21 98.9388 21.05C99.2255 20.8833 99.4522 20.6467 99.6188 20.34C99.7855 20.0267 99.8688 19.6633 99.8688 19.25ZM102.797 15.63C102.623 15.63 102.477 15.57 102.357 15.45C102.237 15.33 102.177 15.1833 102.177 15.01C102.177 14.8367 102.237 14.69 102.357 14.57C102.477 14.45 102.623 14.39 102.797 14.39C102.963 14.39 103.103 14.45 103.217 14.57C103.337 14.69 103.397 14.8367 103.397 15.01C103.397 15.1833 103.337 15.33 103.217 15.45C103.103 15.57 102.963 15.63 102.797 15.63ZM103.237 16.52V22H102.327V16.52H103.237ZM105.898 17.27V20.5C105.898 20.7667 105.954 20.9567 106.068 21.07C106.181 21.1767 106.378 21.23 106.658 21.23H107.328V22H106.508C106.001 22 105.621 21.8833 105.368 21.65C105.114 21.4167 104.988 21.0333 104.988 20.5V17.27H104.278V16.52H104.988V15.14H105.898V16.52H107.328V17.27H105.898ZM108.9 15.63C108.727 15.63 108.58 15.57 108.46 15.45C108.34 15.33 108.28 15.1833 108.28 15.01C108.28 14.8367 108.34 14.69 108.46 14.57C108.58 14.45 108.727 14.39 108.9 14.39C109.067 14.39 109.207 14.45 109.32 14.57C109.44 14.69 109.5 14.8367 109.5 15.01C109.5 15.1833 109.44 15.33 109.32 15.45C109.207 15.57 109.067 15.63 108.9 15.63ZM109.34 16.52V22H108.43V16.52H109.34ZM113.561 16.42C114.228 16.42 114.768 16.6233 115.181 17.03C115.594 17.43 115.801 18.01 115.801 18.77V22H114.901V18.9C114.901 18.3533 114.764 17.9367 114.491 17.65C114.218 17.3567 113.844 17.21 113.371 17.21C112.891 17.21 112.508 17.36 112.221 17.66C111.941 17.96 111.801 18.3967 111.801 18.97V22H110.891V16.52H111.801V17.3C111.981 17.02 112.224 16.8033 112.531 16.65C112.844 16.4967 113.188 16.42 113.561 16.42ZM119.548 16.43C120.021 16.43 120.434 16.5333 120.788 16.74C121.148 16.9467 121.414 17.2067 121.588 17.52V16.52H122.508V22.12C122.508 22.62 122.401 23.0633 122.188 23.45C121.974 23.8433 121.668 24.15 121.268 24.37C120.874 24.59 120.414 24.7 119.888 24.7C119.168 24.7 118.568 24.53 118.088 24.19C117.608 23.85 117.324 23.3867 117.238 22.8H118.138C118.238 23.1333 118.444 23.4 118.758 23.6C119.071 23.8067 119.448 23.91 119.888 23.91C120.388 23.91 120.794 23.7533 121.108 23.44C121.428 23.1267 121.588 22.6867 121.588 22.12V20.97C121.408 21.29 121.141 21.5567 120.788 21.77C120.434 21.9833 120.021 22.09 119.548 22.09C119.061 22.09 118.618 21.97 118.218 21.73C117.824 21.49 117.514 21.1533 117.288 20.72C117.061 20.2867 116.948 19.7933 116.948 19.24C116.948 18.68 117.061 18.19 117.288 17.77C117.514 17.3433 117.824 17.0133 118.218 16.78C118.618 16.5467 119.061 16.43 119.548 16.43ZM121.588 19.25C121.588 18.8367 121.504 18.4767 121.338 18.17C121.171 17.8633 120.944 17.63 120.658 17.47C120.378 17.3033 120.068 17.22 119.728 17.22C119.388 17.22 119.078 17.3 118.798 17.46C118.518 17.62 118.294 17.8533 118.128 18.16C117.961 18.4667 117.878 18.8267 117.878 19.24C117.878 19.66 117.961 20.0267 118.128 20.34C118.294 20.6467 118.518 20.8833 118.798 21.05C119.078 21.21 119.388 21.29 119.728 21.29C120.068 21.29 120.378 21.21 120.658 21.05C120.944 20.8833 121.171 20.6467 121.338 20.34C121.504 20.0267 121.588 19.6633 121.588 19.25ZM128.941 17.27H127.791V22H126.881V17.27H126.171V16.52H126.881V16.13C126.881 15.5167 127.038 15.07 127.351 14.79C127.671 14.5033 128.181 14.36 128.881 14.36V15.12C128.481 15.12 128.198 15.2 128.031 15.36C127.871 15.5133 127.791 15.77 127.791 16.13V16.52H128.941V17.27ZM132.392 22.09C131.879 22.09 131.412 21.9733 130.992 21.74C130.579 21.5067 130.252 21.1767 130.012 20.75C129.779 20.3167 129.662 19.8167 129.662 19.25C129.662 18.69 129.782 18.1967 130.022 17.77C130.269 17.3367 130.602 17.0067 131.022 16.78C131.442 16.5467 131.912 16.43 132.432 16.43C132.952 16.43 133.422 16.5467 133.842 16.78C134.262 17.0067 134.592 17.3333 134.832 17.76C135.079 18.1867 135.202 18.6833 135.202 19.25C135.202 19.8167 135.076 20.3167 134.822 20.75C134.576 21.1767 134.239 21.5067 133.812 21.74C133.386 21.9733 132.912 22.09 132.392 22.09ZM132.392 21.29C132.719 21.29 133.026 21.2133 133.312 21.06C133.599 20.9067 133.829 20.6767 134.002 20.37C134.182 20.0633 134.272 19.69 134.272 19.25C134.272 18.81 134.186 18.4367 134.012 18.13C133.839 17.8233 133.612 17.5967 133.332 17.45C133.052 17.2967 132.749 17.22 132.422 17.22C132.089 17.22 131.782 17.2967 131.502 17.45C131.229 17.5967 131.009 17.8233 130.842 18.13C130.676 18.4367 130.592 18.81 130.592 19.25C130.592 19.6967 130.672 20.0733 130.832 20.38C130.999 20.6867 131.219 20.9167 131.492 21.07C131.766 21.2167 132.066 21.29 132.392 21.29ZM137.309 17.41C137.469 17.0967 137.696 16.8533 137.989 16.68C138.289 16.5067 138.652 16.42 139.079 16.42V17.36H138.839C137.819 17.36 137.309 17.9133 137.309 19.02V22H136.399V16.52H137.309V17.41ZM147.515 16.52L144.215 24.58H143.275L144.355 21.94L142.145 16.52H143.155L144.875 20.96L146.575 16.52H147.515ZM150.82 22.09C150.307 22.09 149.84 21.9733 149.42 21.74C149.007 21.5067 148.68 21.1767 148.44 20.75C148.207 20.3167 148.09 19.8167 148.09 19.25C148.09 18.69 148.21 18.1967 148.45 17.77C148.697 17.3367 149.03 17.0067 149.45 16.78C149.87 16.5467 150.34 16.43 150.86 16.43C151.38 16.43 151.85 16.5467 152.27 16.78C152.69 17.0067 153.02 17.3333 153.26 17.76C153.507 18.1867 153.63 18.6833 153.63 19.25C153.63 19.8167 153.503 20.3167 153.25 20.75C153.003 21.1767 152.667 21.5067 152.24 21.74C151.813 21.9733 151.34 22.09 150.82 22.09ZM150.82 21.29C151.147 21.29 151.453 21.2133 151.74 21.06C152.027 20.9067 152.257 20.6767 152.43 20.37C152.61 20.0633 152.7 19.69 152.7 19.25C152.7 18.81 152.613 18.4367 152.44 18.13C152.267 17.8233 152.04 17.5967 151.76 17.45C151.48 17.2967 151.177 17.22 150.85 17.22C150.517 17.22 150.21 17.2967 149.93 17.45C149.657 17.5967 149.437 17.8233 149.27 18.13C149.103 18.4367 149.02 18.81 149.02 19.25C149.02 19.6967 149.1 20.0733 149.26 20.38C149.427 20.6867 149.647 20.9167 149.92 21.07C150.193 21.2167 150.493 21.29 150.82 21.29ZM159.687 16.52V22H158.777V21.19C158.603 21.47 158.36 21.69 158.047 21.85C157.74 22.0033 157.4 22.08 157.027 22.08C156.6 22.08 156.217 21.9933 155.877 21.82C155.537 21.64 155.267 21.3733 155.067 21.02C154.873 20.6667 154.777 20.2367 154.777 19.73V16.52H155.677V19.61C155.677 20.15 155.813 20.5667 156.087 20.86C156.36 21.1467 156.733 21.29 157.207 21.29C157.693 21.29 158.077 21.14 158.357 20.84C158.637 20.54 158.777 20.1033 158.777 19.53V16.52H159.687ZM162.403 15.03L162.293 20.03H161.533L161.423 15.03H162.403ZM161.953 22.06C161.78 22.06 161.633 22 161.513 21.88C161.393 21.76 161.333 21.6133 161.333 21.44C161.333 21.2667 161.393 21.12 161.513 21C161.633 20.88 161.78 20.82 161.953 20.82C162.12 20.82 162.26 20.88 162.373 21C162.493 21.12 162.553 21.2667 162.553 21.44C162.553 21.6133 162.493 21.76 162.373 21.88C162.26 22 162.12 22.06 161.953 22.06Z" fill="#5C6272"/>
</svg>
