<svg width="182" height="61" viewBox="0 0 182 61" fill="none" xmlns="http://www.w3.org/2000/svg">
<path d="M68.8024 46.586V47.65H70.2164V48.938H68.7184C68.569 49.8247 68.2004 50.4687 67.6124 50.87C67.0337 51.2713 66.1564 51.472 64.9804 51.472V52.214C64.9804 52.6527 65.069 52.998 65.2464 53.25C65.433 53.502 65.7457 53.628 66.1844 53.628C66.6044 53.628 66.9077 53.5113 67.0944 53.278C67.281 53.0353 67.3744 52.6853 67.3744 52.228H69.1944C69.1757 53.1707 68.9097 53.894 68.3964 54.398C67.883 54.8927 67.1504 55.14 66.1984 55.14C65.209 55.14 64.453 54.874 63.9304 54.342C63.4077 53.81 63.1464 53.0353 63.1464 52.018V50.156C64.145 50.156 64.8824 50.1327 65.3584 50.086C65.8344 50.03 66.189 49.918 66.4224 49.75C66.6557 49.582 66.8097 49.3113 66.8844 48.938H62.6984V47.65H66.9544V46.586H62.6984V45.214H70.2164V46.586H68.8024ZM76.7029 47.342C76.6096 46.95 76.4463 46.656 76.2129 46.46C75.9889 46.264 75.6623 46.166 75.2329 46.166C74.5889 46.166 74.1129 46.4273 73.8049 46.95C73.5063 47.4633 73.3523 48.3033 73.3429 49.47C73.5669 49.0967 73.8936 48.8073 74.3229 48.602C74.7523 48.3873 75.2189 48.28 75.7229 48.28C76.3296 48.28 76.8663 48.4107 77.3329 48.672C77.7996 48.9333 78.1636 49.316 78.4249 49.82C78.6863 50.3147 78.8169 50.912 78.8169 51.612C78.8169 52.2747 78.6816 52.8673 78.4109 53.39C78.1496 53.9033 77.7623 54.3047 77.2489 54.594C76.7356 54.8833 76.1243 55.028 75.4149 55.028C74.4443 55.028 73.6789 54.8133 73.1189 54.384C72.5683 53.9547 72.1809 53.3573 71.9569 52.592C71.7423 51.8173 71.6349 50.8653 71.6349 49.736C71.6349 48.028 71.9289 46.74 72.5169 45.872C73.1049 44.9947 74.0336 44.556 75.3029 44.556C76.2829 44.556 77.0436 44.822 77.5849 45.354C78.1263 45.886 78.4389 46.5487 78.5229 47.342H76.7029ZM75.2749 49.89C74.7803 49.89 74.3649 50.0347 74.0289 50.324C73.6929 50.6133 73.5249 51.0333 73.5249 51.584C73.5249 52.1347 73.6789 52.5687 73.9869 52.886C74.3043 53.2033 74.7476 53.362 75.3169 53.362C75.8209 53.362 76.2176 53.208 76.5069 52.9C76.8056 52.592 76.9549 52.1767 76.9549 51.654C76.9549 51.1127 76.8103 50.6833 76.5209 50.366C76.2409 50.0487 75.8256 49.89 75.2749 49.89ZM82.634 52.13C82.7087 52.5407 82.8767 52.858 83.138 53.082C83.4087 53.2967 83.768 53.404 84.216 53.404C84.7947 53.404 85.2147 53.166 85.476 52.69C85.7374 52.2047 85.868 51.3927 85.868 50.254C85.6534 50.5527 85.35 50.786 84.958 50.954C84.5754 51.122 84.16 51.206 83.712 51.206C83.1147 51.206 82.5734 51.0847 82.088 50.842C81.612 50.59 81.234 50.2213 80.954 49.736C80.674 49.2413 80.534 48.644 80.534 47.944C80.534 46.908 80.842 46.0867 81.458 45.48C82.074 44.864 82.914 44.556 83.978 44.556C85.3034 44.556 86.2367 44.9807 86.778 45.83C87.3287 46.6793 87.604 47.958 87.604 49.666C87.604 50.8793 87.4967 51.8733 87.282 52.648C87.0767 53.4227 86.7174 54.0107 86.204 54.412C85.7 54.8133 85.0094 55.014 84.132 55.014C83.4414 55.014 82.8534 54.8833 82.368 54.622C81.8827 54.3513 81.5094 54.0013 81.248 53.572C80.996 53.1333 80.8514 52.6527 80.814 52.13H82.634ZM84.118 49.61C84.6034 49.61 84.986 49.4607 85.266 49.162C85.546 48.8633 85.686 48.462 85.686 47.958C85.686 47.4073 85.5367 46.9827 85.238 46.684C84.9487 46.376 84.552 46.222 84.048 46.222C83.544 46.222 83.1427 46.3807 82.844 46.698C82.5547 47.006 82.41 47.4167 82.41 47.93C82.41 48.4247 82.55 48.8307 82.83 49.148C83.1194 49.456 83.5487 49.61 84.118 49.61ZM91.3977 52.13C91.4724 52.5407 91.6404 52.858 91.9017 53.082C92.1724 53.2967 92.5317 53.404 92.9797 53.404C93.5584 53.404 93.9784 53.166 94.2397 52.69C94.501 52.2047 94.6317 51.3927 94.6317 50.254C94.417 50.5527 94.1137 50.786 93.7217 50.954C93.339 51.122 92.9237 51.206 92.4757 51.206C91.8784 51.206 91.337 51.0847 90.8517 50.842C90.3757 50.59 89.9977 50.2213 89.7177 49.736C89.4377 49.2413 89.2977 48.644 89.2977 47.944C89.2977 46.908 89.6057 46.0867 90.2217 45.48C90.8377 44.864 91.6777 44.556 92.7417 44.556C94.067 44.556 95.0004 44.9807 95.5417 45.83C96.0924 46.6793 96.3677 47.958 96.3677 49.666C96.3677 50.8793 96.2604 51.8733 96.0457 52.648C95.8404 53.4227 95.481 54.0107 94.9677 54.412C94.4637 54.8133 93.773 55.014 92.8957 55.014C92.205 55.014 91.617 54.8833 91.1317 54.622C90.6464 54.3513 90.273 54.0013 90.0117 53.572C89.7597 53.1333 89.615 52.6527 89.5777 52.13H91.3977ZM92.8817 49.61C93.367 49.61 93.7497 49.4607 94.0297 49.162C94.3097 48.8633 94.4497 48.462 94.4497 47.958C94.4497 47.4073 94.3004 46.9827 94.0017 46.684C93.7124 46.376 93.3157 46.222 92.8117 46.222C92.3077 46.222 91.9064 46.3807 91.6077 46.698C91.3184 47.006 91.1737 47.4167 91.1737 47.93C91.1737 48.4247 91.3137 48.8307 91.5937 49.148C91.883 49.456 92.3124 49.61 92.8817 49.61ZM98.9854 55.098C98.6307 55.098 98.3367 54.9907 98.1034 54.776C97.8794 54.552 97.7674 54.2767 97.7674 53.95C97.7674 53.6233 97.8794 53.3527 98.1034 53.138C98.3367 52.914 98.6307 52.802 98.9854 52.802C99.3307 52.802 99.6154 52.914 99.8394 53.138C100.063 53.3527 100.175 53.6233 100.175 53.95C100.175 54.2767 100.063 54.552 99.8394 54.776C99.6154 54.9907 99.3307 55.098 98.9854 55.098ZM101.53 49.764C101.53 48.1493 101.819 46.8847 102.398 45.97C102.986 45.0553 103.957 44.598 105.31 44.598C106.663 44.598 107.629 45.0553 108.208 45.97C108.796 46.8847 109.09 48.1493 109.09 49.764C109.09 51.388 108.796 52.662 108.208 53.586C107.629 54.51 106.663 54.972 105.31 54.972C103.957 54.972 102.986 54.51 102.398 53.586C101.819 52.662 101.53 51.388 101.53 49.764ZM107.158 49.764C107.158 49.0733 107.111 48.4947 107.018 48.028C106.934 47.552 106.757 47.1647 106.486 46.866C106.225 46.5673 105.833 46.418 105.31 46.418C104.787 46.418 104.391 46.5673 104.12 46.866C103.859 47.1647 103.681 47.552 103.588 48.028C103.504 48.4947 103.462 49.0733 103.462 49.764C103.462 50.4733 103.504 51.0707 103.588 51.556C103.672 52.032 103.849 52.4193 104.12 52.718C104.391 53.0073 104.787 53.152 105.31 53.152C105.833 53.152 106.229 53.0073 106.5 52.718C106.771 52.4193 106.948 52.032 107.032 51.556C107.116 51.0707 107.158 50.4733 107.158 49.764ZM110.581 49.764C110.581 48.1493 110.87 46.8847 111.449 45.97C112.037 45.0553 113.008 44.598 114.361 44.598C115.714 44.598 116.68 45.0553 117.259 45.97C117.847 46.8847 118.141 48.1493 118.141 49.764C118.141 51.388 117.847 52.662 117.259 53.586C116.68 54.51 115.714 54.972 114.361 54.972C113.008 54.972 112.037 54.51 111.449 53.586C110.87 52.662 110.581 51.388 110.581 49.764ZM116.209 49.764C116.209 49.0733 116.162 48.4947 116.069 48.028C115.985 47.552 115.808 47.1647 115.537 46.866C115.276 46.5673 114.884 46.418 114.361 46.418C113.838 46.418 113.442 46.5673 113.171 46.866C112.91 47.1647 112.732 47.552 112.639 48.028C112.555 48.4947 112.513 49.0733 112.513 49.764C112.513 50.4733 112.555 51.0707 112.639 51.556C112.723 52.032 112.9 52.4193 113.171 52.718C113.442 53.0073 113.838 53.152 114.361 53.152C114.884 53.152 115.28 53.0073 115.551 52.718C115.822 52.4193 115.999 52.032 116.083 51.556C116.167 51.0707 116.209 50.4733 116.209 49.764Z" fill="#5C6272"/>
<path d="M11.0454 3.03V3.77H9.14535V10H8.23535V3.77H6.32535V3.03H11.0454ZM14.8855 4.42C15.2988 4.42 15.6722 4.51 16.0055 4.69C16.3388 4.86333 16.5988 5.12667 16.7855 5.48C16.9788 5.83333 17.0755 6.26333 17.0755 6.77V10H16.1755V6.9C16.1755 6.35333 16.0388 5.93667 15.7655 5.65C15.4922 5.35667 15.1188 5.21 14.6455 5.21C14.1655 5.21 13.7822 5.36 13.4955 5.66C13.2155 5.96 13.0755 6.39667 13.0755 6.97V10H12.1655V2.6H13.0755V5.3C13.2555 5.02 13.5022 4.80333 13.8155 4.65C14.1355 4.49667 14.4922 4.42 14.8855 4.42ZM23.562 7.05C23.562 7.22333 23.552 7.40667 23.532 7.6H19.152C19.1853 8.14 19.3687 8.56333 19.702 8.87C20.042 9.17 20.452 9.32 20.932 9.32C21.3253 9.32 21.652 9.23 21.912 9.05C22.1787 8.86333 22.3653 8.61667 22.472 8.31H23.452C23.3053 8.83667 23.012 9.26667 22.572 9.6C22.132 9.92667 21.5853 10.09 20.932 10.09C20.412 10.09 19.9453 9.97333 19.532 9.74C19.1253 9.50667 18.8053 9.17667 18.572 8.75C18.3387 8.31667 18.222 7.81667 18.222 7.25C18.222 6.68333 18.3353 6.18667 18.562 5.76C18.7887 5.33333 19.1053 5.00667 19.512 4.78C19.9253 4.54667 20.3987 4.43 20.932 4.43C21.452 4.43 21.912 4.54333 22.312 4.77C22.712 4.99667 23.0187 5.31 23.232 5.71C23.452 6.10333 23.562 6.55 23.562 7.05ZM22.622 6.86C22.622 6.51333 22.5453 6.21667 22.392 5.97C22.2387 5.71667 22.0287 5.52667 21.762 5.4C21.502 5.26667 21.212 5.2 20.892 5.2C20.432 5.2 20.0387 5.34667 19.712 5.64C19.392 5.93333 19.2087 6.34 19.162 6.86H22.622ZM32.2892 4.52V10H31.3792V9.19C31.2058 9.47 30.9625 9.69 30.6492 9.85C30.3425 10.0033 30.0025 10.08 29.6292 10.08C29.2025 10.08 28.8192 9.99333 28.4792 9.82C28.1392 9.64 27.8692 9.37333 27.6692 9.02C27.4758 8.66667 27.3792 8.23667 27.3792 7.73V4.52H28.2792V7.61C28.2792 8.15 28.4158 8.56667 28.6892 8.86C28.9625 9.14667 29.3358 9.29 29.8092 9.29C30.2958 9.29 30.6792 9.14 30.9592 8.84C31.2392 8.54 31.3792 8.10333 31.3792 7.53V4.52H32.2892ZM34.7357 2.6V10H33.8257V2.6H34.7357ZM37.3966 5.27V8.5C37.3966 8.76667 37.4533 8.95667 37.5666 9.07C37.6799 9.17667 37.8766 9.23 38.1566 9.23H38.8266V10H38.0066C37.4999 10 37.1199 9.88333 36.8666 9.65C36.6133 9.41667 36.4866 9.03333 36.4866 8.5V5.27H35.7766V4.52H36.4866V3.14H37.3966V4.52H38.8266V5.27H37.3966ZM40.3992 3.63C40.2258 3.63 40.0792 3.57 39.9592 3.45C39.8392 3.33 39.7792 3.18333 39.7792 3.01C39.7792 2.83667 39.8392 2.69 39.9592 2.57C40.0792 2.45 40.2258 2.39 40.3992 2.39C40.5658 2.39 40.7058 2.45 40.8192 2.57C40.9392 2.69 40.9992 2.83667 40.9992 3.01C40.9992 3.18333 40.9392 3.33 40.8192 3.45C40.7058 3.57 40.5658 3.63 40.3992 3.63ZM40.8392 4.52V10H39.9292V4.52H40.8392ZM48.9801 4.42C49.4068 4.42 49.7868 4.51 50.1201 4.69C50.4535 4.86333 50.7168 5.12667 50.9101 5.48C51.1035 5.83333 51.2001 6.26333 51.2001 6.77V10H50.3001V6.9C50.3001 6.35333 50.1635 5.93667 49.8901 5.65C49.6235 5.35667 49.2601 5.21 48.8001 5.21C48.3268 5.21 47.9501 5.36333 47.6701 5.67C47.3901 5.97 47.2501 6.40667 47.2501 6.98V10H46.3501V6.9C46.3501 6.35333 46.2135 5.93667 45.9401 5.65C45.6735 5.35667 45.3101 5.21 44.8501 5.21C44.3768 5.21 44.0001 5.36333 43.7201 5.67C43.4401 5.97 43.3001 6.40667 43.3001 6.98V10H42.3901V4.52H43.3001V5.31C43.4801 5.02333 43.7201 4.80333 44.0201 4.65C44.3268 4.49667 44.6635 4.42 45.0301 4.42C45.4901 4.42 45.8968 4.52333 46.2501 4.73C46.6035 4.93667 46.8668 5.24 47.0401 5.64C47.1935 5.25333 47.4468 4.95333 47.8001 4.74C48.1535 4.52667 48.5468 4.42 48.9801 4.42ZM52.3529 7.24C52.3529 6.68 52.4662 6.19 52.6929 5.77C52.9195 5.34333 53.2295 5.01333 53.6229 4.78C54.0229 4.54667 54.4662 4.43 54.9529 4.43C55.4329 4.43 55.8495 4.53333 56.2029 4.74C56.5562 4.94667 56.8195 5.20667 56.9929 5.52V4.52H57.9129V10H56.9929V8.98C56.8129 9.3 56.5429 9.56667 56.1829 9.78C55.8295 9.98667 55.4162 10.09 54.9429 10.09C54.4562 10.09 54.0162 9.97 53.6229 9.73C53.2295 9.49 52.9195 9.15333 52.6929 8.72C52.4662 8.28667 52.3529 7.79333 52.3529 7.24ZM56.9929 7.25C56.9929 6.83667 56.9095 6.47667 56.7429 6.17C56.5762 5.86333 56.3495 5.63 56.0629 5.47C55.7829 5.30333 55.4729 5.22 55.1329 5.22C54.7929 5.22 54.4829 5.3 54.2029 5.46C53.9229 5.62 53.6995 5.85333 53.5329 6.16C53.3662 6.46667 53.2829 6.82667 53.2829 7.24C53.2829 7.66 53.3662 8.02667 53.5329 8.34C53.6995 8.64667 53.9229 8.88333 54.2029 9.05C54.4829 9.21 54.7929 9.29 55.1329 9.29C55.4729 9.29 55.7829 9.21 56.0629 9.05C56.3495 8.88333 56.5762 8.64667 56.7429 8.34C56.9095 8.02667 56.9929 7.66333 56.9929 7.25ZM60.5607 5.27V8.5C60.5607 8.76667 60.6173 8.95667 60.7307 9.07C60.844 9.17667 61.0407 9.23 61.3207 9.23H61.9907V10H61.1707C60.664 10 60.284 9.88333 60.0307 9.65C59.7773 9.41667 59.6507 9.03333 59.6507 8.5V5.27H58.9407V4.52H59.6507V3.14H60.5607V4.52H61.9907V5.27H60.5607ZM68.0932 7.05C68.0932 7.22333 68.0832 7.40667 68.0632 7.6H63.6832C63.7166 8.14 63.8999 8.56333 64.2332 8.87C64.5732 9.17 64.9832 9.32 65.4632 9.32C65.8566 9.32 66.1832 9.23 66.4432 9.05C66.7099 8.86333 66.8966 8.61667 67.0032 8.31H67.9832C67.8366 8.83667 67.5432 9.26667 67.1032 9.6C66.6632 9.92667 66.1166 10.09 65.4632 10.09C64.9432 10.09 64.4766 9.97333 64.0632 9.74C63.6566 9.50667 63.3366 9.17667 63.1032 8.75C62.8699 8.31667 62.7532 7.81667 62.7532 7.25C62.7532 6.68333 62.8666 6.18667 63.0932 5.76C63.3199 5.33333 63.6366 5.00667 64.0432 4.78C64.4566 4.54667 64.9299 4.43 65.4632 4.43C65.9832 4.43 66.4432 4.54333 66.8432 4.77C67.2432 4.99667 67.5499 5.31 67.7632 5.71C67.9832 6.10333 68.0932 6.55 68.0932 7.05ZM67.1532 6.86C67.1532 6.51333 67.0766 6.21667 66.9232 5.97C66.7699 5.71667 66.5599 5.52667 66.2932 5.4C66.0332 5.26667 65.7432 5.2 65.4232 5.2C64.9632 5.2 64.5699 5.34667 64.2432 5.64C63.9232 5.93333 63.7399 6.34 63.6932 6.86H67.1532ZM73.0704 5.27V8.5C73.0704 8.76667 73.1271 8.95667 73.2404 9.07C73.3538 9.17667 73.5504 9.23 73.8304 9.23H74.5004V10H73.6804C73.1738 10 72.7938 9.88333 72.5404 9.65C72.2871 9.41667 72.1604 9.03333 72.1604 8.5V5.27H71.4504V4.52H72.1604V3.14H73.0704V4.52H74.5004V5.27H73.0704ZM80.603 7.05C80.603 7.22333 80.593 7.40667 80.573 7.6H76.193C76.2263 8.14 76.4097 8.56333 76.743 8.87C77.083 9.17 77.493 9.32 77.973 9.32C78.3663 9.32 78.693 9.23 78.953 9.05C79.2197 8.86333 79.4063 8.61667 79.513 8.31H80.493C80.3463 8.83667 80.053 9.26667 79.613 9.6C79.173 9.92667 78.6263 10.09 77.973 10.09C77.453 10.09 76.9863 9.97333 76.573 9.74C76.1663 9.50667 75.8463 9.17667 75.613 8.75C75.3797 8.31667 75.263 7.81667 75.263 7.25C75.263 6.68333 75.3763 6.18667 75.603 5.76C75.8297 5.33333 76.1463 5.00667 76.553 4.78C76.9663 4.54667 77.4397 4.43 77.973 4.43C78.493 4.43 78.953 4.54333 79.353 4.77C79.753 4.99667 80.0597 5.31 80.273 5.71C80.493 6.10333 80.603 6.55 80.603 7.05ZM79.663 6.86C79.663 6.51333 79.5863 6.21667 79.433 5.97C79.2797 5.71667 79.0697 5.52667 78.803 5.4C78.543 5.26667 78.253 5.2 77.933 5.2C77.473 5.2 77.0797 5.34667 76.753 5.64C76.433 5.93333 76.2497 6.34 76.203 6.86H79.663ZM81.4642 7.25C81.4642 6.68333 81.5775 6.19 81.8042 5.77C82.0308 5.34333 82.3442 5.01333 82.7442 4.78C83.1508 4.54667 83.6142 4.43 84.1342 4.43C84.8075 4.43 85.3608 4.59333 85.7942 4.92C86.2342 5.24667 86.5242 5.7 86.6642 6.28H85.6842C85.5908 5.94667 85.4075 5.68333 85.1342 5.49C84.8675 5.29667 84.5342 5.2 84.1342 5.2C83.6142 5.2 83.1942 5.38 82.8742 5.74C82.5542 6.09333 82.3942 6.59667 82.3942 7.25C82.3942 7.91 82.5542 8.42 82.8742 8.78C83.1942 9.14 83.6142 9.32 84.1342 9.32C84.5342 9.32 84.8675 9.22667 85.1342 9.04C85.4008 8.85333 85.5842 8.58667 85.6842 8.24H86.6642C86.5175 8.8 86.2242 9.25 85.7842 9.59C85.3442 9.92333 84.7942 10.09 84.1342 10.09C83.6142 10.09 83.1508 9.97333 82.7442 9.74C82.3442 9.50667 82.0308 9.17667 81.8042 8.75C81.5775 8.32333 81.4642 7.82333 81.4642 7.25ZM90.5984 4.42C91.0117 4.42 91.3851 4.51 91.7184 4.69C92.0517 4.86333 92.3117 5.12667 92.4984 5.48C92.6917 5.83333 92.7884 6.26333 92.7884 6.77V10H91.8884V6.9C91.8884 6.35333 91.7517 5.93667 91.4784 5.65C91.2051 5.35667 90.8317 5.21 90.3584 5.21C89.8784 5.21 89.4951 5.36 89.2084 5.66C88.9284 5.96 88.7884 6.39667 88.7884 6.97V10H87.8784V2.6H88.7884V5.3C88.9684 5.02 89.2151 4.80333 89.5284 4.65C89.8484 4.49667 90.2051 4.42 90.5984 4.42ZM99.2009 4.43C99.6742 4.43 100.088 4.53333 100.441 4.74C100.801 4.94667 101.068 5.20667 101.241 5.52V4.52H102.161V10.12C102.161 10.62 102.054 11.0633 101.841 11.45C101.628 11.8433 101.321 12.15 100.921 12.37C100.528 12.59 100.068 12.7 99.5409 12.7C98.8209 12.7 98.2209 12.53 97.7409 12.19C97.2609 11.85 96.9776 11.3867 96.8909 10.8H97.7909C97.8909 11.1333 98.0976 11.4 98.4109 11.6C98.7242 11.8067 99.1009 11.91 99.5409 11.91C100.041 11.91 100.448 11.7533 100.761 11.44C101.081 11.1267 101.241 10.6867 101.241 10.12V8.97C101.061 9.29 100.794 9.55667 100.441 9.77C100.088 9.98333 99.6742 10.09 99.2009 10.09C98.7142 10.09 98.2709 9.97 97.8709 9.73C97.4776 9.49 97.1676 9.15333 96.9409 8.72C96.7142 8.28667 96.6009 7.79333 96.6009 7.24C96.6009 6.68 96.7142 6.19 96.9409 5.77C97.1676 5.34333 97.4776 5.01333 97.8709 4.78C98.2709 4.54667 98.7142 4.43 99.2009 4.43ZM101.241 7.25C101.241 6.83667 101.158 6.47667 100.991 6.17C100.824 5.86333 100.598 5.63 100.311 5.47C100.031 5.30333 99.7209 5.22 99.3809 5.22C99.0409 5.22 98.7309 5.3 98.4509 5.46C98.1709 5.62 97.9476 5.85333 97.7809 6.16C97.6142 6.46667 97.5309 6.82667 97.5309 7.24C97.5309 7.66 97.6142 8.02667 97.7809 8.34C97.9476 8.64667 98.1709 8.88333 98.4509 9.05C98.7309 9.21 99.0409 9.29 99.3809 9.29C99.7209 9.29 100.031 9.21 100.311 9.05C100.598 8.88333 100.824 8.64667 100.991 8.34C101.158 8.02667 101.241 7.66333 101.241 7.25ZM103.359 7.24C103.359 6.68 103.472 6.19 103.699 5.77C103.925 5.34333 104.235 5.01333 104.629 4.78C105.029 4.54667 105.472 4.43 105.959 4.43C106.439 4.43 106.855 4.53333 107.209 4.74C107.562 4.94667 107.825 5.20667 107.999 5.52V4.52H108.919V10H107.999V8.98C107.819 9.3 107.549 9.56667 107.189 9.78C106.835 9.98667 106.422 10.09 105.949 10.09C105.462 10.09 105.022 9.97 104.629 9.73C104.235 9.49 103.925 9.15333 103.699 8.72C103.472 8.28667 103.359 7.79333 103.359 7.24ZM107.999 7.25C107.999 6.83667 107.915 6.47667 107.749 6.17C107.582 5.86333 107.355 5.63 107.069 5.47C106.789 5.30333 106.479 5.22 106.139 5.22C105.799 5.22 105.489 5.3 105.209 5.46C104.929 5.62 104.705 5.85333 104.539 6.16C104.372 6.46667 104.289 6.82667 104.289 7.24C104.289 7.66 104.372 8.02667 104.539 8.34C104.705 8.64667 104.929 8.88333 105.209 9.05C105.489 9.21 105.799 9.29 106.139 9.29C106.479 9.29 106.789 9.21 107.069 9.05C107.355 8.88333 107.582 8.64667 107.749 8.34C107.915 8.02667 107.999 7.66333 107.999 7.25ZM110.117 7.24C110.117 6.68 110.23 6.19 110.457 5.77C110.683 5.34333 110.993 5.01333 111.387 4.78C111.787 4.54667 112.233 4.43 112.727 4.43C113.153 4.43 113.55 4.53 113.917 4.73C114.283 4.92333 114.563 5.18 114.757 5.5V2.6H115.677V10H114.757V8.97C114.577 9.29667 114.31 9.56667 113.957 9.78C113.603 9.98667 113.19 10.09 112.717 10.09C112.23 10.09 111.787 9.97 111.387 9.73C110.993 9.49 110.683 9.15333 110.457 8.72C110.23 8.28667 110.117 7.79333 110.117 7.24ZM114.757 7.25C114.757 6.83667 114.673 6.47667 114.507 6.17C114.34 5.86333 114.113 5.63 113.827 5.47C113.547 5.30333 113.237 5.22 112.897 5.22C112.557 5.22 112.247 5.3 111.967 5.46C111.687 5.62 111.463 5.85333 111.297 6.16C111.13 6.46667 111.047 6.82667 111.047 7.24C111.047 7.66 111.13 8.02667 111.297 8.34C111.463 8.64667 111.687 8.88333 111.967 9.05C112.247 9.21 112.557 9.29 112.897 9.29C113.237 9.29 113.547 9.21 113.827 9.05C114.113 8.88333 114.34 8.64667 114.507 8.34C114.673 8.02667 114.757 7.66333 114.757 7.25ZM119.474 4.43C119.948 4.43 120.361 4.53333 120.714 4.74C121.074 4.94667 121.341 5.20667 121.514 5.52V4.52H122.434V10.12C122.434 10.62 122.328 11.0633 122.114 11.45C121.901 11.8433 121.594 12.15 121.194 12.37C120.801 12.59 120.341 12.7 119.814 12.7C119.094 12.7 118.494 12.53 118.014 12.19C117.534 11.85 117.251 11.3867 117.164 10.8H118.064C118.164 11.1333 118.371 11.4 118.684 11.6C118.998 11.8067 119.374 11.91 119.814 11.91C120.314 11.91 120.721 11.7533 121.034 11.44C121.354 11.1267 121.514 10.6867 121.514 10.12V8.97C121.334 9.29 121.068 9.55667 120.714 9.77C120.361 9.98333 119.948 10.09 119.474 10.09C118.988 10.09 118.544 9.97 118.144 9.73C117.751 9.49 117.441 9.15333 117.214 8.72C116.988 8.28667 116.874 7.79333 116.874 7.24C116.874 6.68 116.988 6.19 117.214 5.77C117.441 5.34333 117.751 5.01333 118.144 4.78C118.544 4.54667 118.988 4.43 119.474 4.43ZM121.514 7.25C121.514 6.83667 121.431 6.47667 121.264 6.17C121.098 5.86333 120.871 5.63 120.584 5.47C120.304 5.30333 119.994 5.22 119.654 5.22C119.314 5.22 119.004 5.3 118.724 5.46C118.444 5.62 118.221 5.85333 118.054 6.16C117.888 6.46667 117.804 6.82667 117.804 7.24C117.804 7.66 117.888 8.02667 118.054 8.34C118.221 8.64667 118.444 8.88333 118.724 9.05C119.004 9.21 119.314 9.29 119.654 9.29C119.994 9.29 120.304 9.21 120.584 9.05C120.871 8.88333 121.098 8.64667 121.264 8.34C121.431 8.02667 121.514 7.66333 121.514 7.25ZM128.972 7.05C128.972 7.22333 128.962 7.40667 128.942 7.6H124.562C124.595 8.14 124.779 8.56333 125.112 8.87C125.452 9.17 125.862 9.32 126.342 9.32C126.735 9.32 127.062 9.23 127.322 9.05C127.589 8.86333 127.775 8.61667 127.882 8.31H128.862C128.715 8.83667 128.422 9.26667 127.982 9.6C127.542 9.92667 126.995 10.09 126.342 10.09C125.822 10.09 125.355 9.97333 124.942 9.74C124.535 9.50667 124.215 9.17667 123.982 8.75C123.749 8.31667 123.632 7.81667 123.632 7.25C123.632 6.68333 123.745 6.18667 123.972 5.76C124.199 5.33333 124.515 5.00667 124.922 4.78C125.335 4.54667 125.809 4.43 126.342 4.43C126.862 4.43 127.322 4.54333 127.722 4.77C128.122 4.99667 128.429 5.31 128.642 5.71C128.862 6.10333 128.972 6.55 128.972 7.05ZM128.032 6.86C128.032 6.51333 127.955 6.21667 127.802 5.97C127.649 5.71667 127.439 5.52667 127.172 5.4C126.912 5.26667 126.622 5.2 126.302 5.2C125.842 5.2 125.449 5.34667 125.122 5.64C124.802 5.93333 124.619 6.34 124.572 6.86H128.032ZM131.283 5.27V8.5C131.283 8.76667 131.34 8.95667 131.453 9.07C131.567 9.17667 131.763 9.23 132.043 9.23H132.713V10H131.893C131.387 10 131.007 9.88333 130.753 9.65C130.5 9.41667 130.373 9.03333 130.373 8.5V5.27H129.663V4.52H130.373V3.14H131.283V4.52H132.713V5.27H131.283ZM136.952 3.63C136.779 3.63 136.632 3.57 136.512 3.45C136.392 3.33 136.332 3.18333 136.332 3.01C136.332 2.83667 136.392 2.69 136.512 2.57C136.632 2.45 136.779 2.39 136.952 2.39C137.119 2.39 137.259 2.45 137.372 2.57C137.492 2.69 137.552 2.83667 137.552 3.01C137.552 3.18333 137.492 3.33 137.372 3.45C137.259 3.57 137.119 3.63 136.952 3.63ZM137.392 4.52V10H136.482V4.52H137.392ZM140.883 10.09C140.463 10.09 140.086 10.02 139.753 9.88C139.42 9.73333 139.156 9.53333 138.963 9.28C138.77 9.02 138.663 8.72333 138.643 8.39H139.583C139.61 8.66333 139.736 8.88667 139.963 9.06C140.196 9.23333 140.5 9.32 140.873 9.32C141.22 9.32 141.493 9.24333 141.693 9.09C141.893 8.93667 141.993 8.74333 141.993 8.51C141.993 8.27 141.886 8.09333 141.673 7.98C141.46 7.86 141.13 7.74333 140.683 7.63C140.276 7.52333 139.943 7.41667 139.683 7.31C139.43 7.19667 139.21 7.03333 139.023 6.82C138.843 6.6 138.753 6.31333 138.753 5.96C138.753 5.68 138.836 5.42333 139.003 5.19C139.17 4.95667 139.406 4.77333 139.713 4.64C140.02 4.5 140.37 4.43 140.763 4.43C141.37 4.43 141.86 4.58333 142.233 4.89C142.606 5.19667 142.806 5.61667 142.833 6.15H141.923C141.903 5.86333 141.786 5.63333 141.573 5.46C141.366 5.28667 141.086 5.2 140.733 5.2C140.406 5.2 140.146 5.27 139.953 5.41C139.76 5.55 139.663 5.73333 139.663 5.96C139.663 6.14 139.72 6.29 139.833 6.41C139.953 6.52333 140.1 6.61667 140.273 6.69C140.453 6.75667 140.7 6.83333 141.013 6.92C141.406 7.02667 141.726 7.13333 141.973 7.24C142.22 7.34 142.43 7.49333 142.603 7.7C142.783 7.90667 142.876 8.17667 142.883 8.51C142.883 8.81 142.8 9.08 142.633 9.32C142.466 9.56 142.23 9.75 141.923 9.89C141.623 10.0233 141.276 10.09 140.883 10.09ZM146.493 7.24C146.493 6.68 146.607 6.19 146.833 5.77C147.06 5.34333 147.37 5.01333 147.763 4.78C148.163 4.54667 148.607 4.43 149.093 4.43C149.573 4.43 149.99 4.53333 150.343 4.74C150.697 4.94667 150.96 5.20667 151.133 5.52V4.52H152.053V10H151.133V8.98C150.953 9.3 150.683 9.56667 150.323 9.78C149.97 9.98667 149.557 10.09 149.083 10.09C148.597 10.09 148.157 9.97 147.763 9.73C147.37 9.49 147.06 9.15333 146.833 8.72C146.607 8.28667 146.493 7.79333 146.493 7.24ZM151.133 7.25C151.133 6.83667 151.05 6.47667 150.883 6.17C150.717 5.86333 150.49 5.63 150.203 5.47C149.923 5.30333 149.613 5.22 149.273 5.22C148.933 5.22 148.623 5.3 148.343 5.46C148.063 5.62 147.84 5.85333 147.673 6.16C147.507 6.46667 147.423 6.82667 147.423 7.24C147.423 7.66 147.507 8.02667 147.673 8.34C147.84 8.64667 148.063 8.88333 148.343 9.05C148.623 9.21 148.933 9.29 149.273 9.29C149.613 9.29 149.923 9.21 150.203 9.05C150.49 8.88333 150.717 8.64667 150.883 8.34C151.05 8.02667 151.133 7.66333 151.133 7.25ZM154.501 5.54C154.688 5.21333 154.961 4.94667 155.321 4.74C155.681 4.53333 156.091 4.43 156.551 4.43C157.045 4.43 157.488 4.54667 157.881 4.78C158.275 5.01333 158.585 5.34333 158.811 5.77C159.038 6.19 159.151 6.68 159.151 7.24C159.151 7.79333 159.038 8.28667 158.811 8.72C158.585 9.15333 158.271 9.49 157.871 9.73C157.478 9.97 157.038 10.09 156.551 10.09C156.078 10.09 155.661 9.98667 155.301 9.78C154.948 9.57333 154.681 9.31 154.501 8.99V10H153.591V2.6H154.501V5.54ZM158.221 7.24C158.221 6.82667 158.138 6.46667 157.971 6.16C157.805 5.85333 157.578 5.62 157.291 5.46C157.011 5.3 156.701 5.22 156.361 5.22C156.028 5.22 155.718 5.30333 155.431 5.47C155.151 5.63 154.925 5.86667 154.751 6.18C154.585 6.48667 154.501 6.84333 154.501 7.25C154.501 7.66333 154.585 8.02667 154.751 8.34C154.925 8.64667 155.151 8.88333 155.431 9.05C155.718 9.21 156.028 9.29 156.361 9.29C156.701 9.29 157.011 9.21 157.291 9.05C157.578 8.88333 157.805 8.64667 157.971 8.34C158.138 8.02667 158.221 7.66 158.221 7.24ZM162.739 10.09C162.226 10.09 161.759 9.97333 161.339 9.74C160.926 9.50667 160.599 9.17667 160.359 8.75C160.126 8.31667 160.009 7.81667 160.009 7.25C160.009 6.69 160.129 6.19667 160.369 5.77C160.616 5.33667 160.949 5.00667 161.369 4.78C161.789 4.54667 162.259 4.43 162.779 4.43C163.299 4.43 163.769 4.54667 164.189 4.78C164.609 5.00667 164.939 5.33333 165.179 5.76C165.426 6.18667 165.549 6.68333 165.549 7.25C165.549 7.81667 165.422 8.31667 165.169 8.75C164.922 9.17667 164.586 9.50667 164.159 9.74C163.732 9.97333 163.259 10.09 162.739 10.09ZM162.739 9.29C163.066 9.29 163.372 9.21333 163.659 9.06C163.946 8.90667 164.176 8.67667 164.349 8.37C164.529 8.06333 164.619 7.69 164.619 7.25C164.619 6.81 164.532 6.43667 164.359 6.13C164.186 5.82333 163.959 5.59667 163.679 5.45C163.399 5.29667 163.096 5.22 162.769 5.22C162.436 5.22 162.129 5.29667 161.849 5.45C161.576 5.59667 161.356 5.82333 161.189 6.13C161.022 6.43667 160.939 6.81 160.939 7.25C160.939 7.69667 161.019 8.07333 161.179 8.38C161.346 8.68667 161.566 8.91667 161.839 9.07C162.112 9.21667 162.412 9.29 162.739 9.29ZM171.606 4.52V10H170.696V9.19C170.522 9.47 170.279 9.69 169.966 9.85C169.659 10.0033 169.319 10.08 168.946 10.08C168.519 10.08 168.136 9.99333 167.796 9.82C167.456 9.64 167.186 9.37333 166.986 9.02C166.792 8.66667 166.696 8.23667 166.696 7.73V4.52H167.596V7.61C167.596 8.15 167.732 8.56667 168.006 8.86C168.279 9.14667 168.652 9.29 169.126 9.29C169.612 9.29 169.996 9.14 170.276 8.84C170.556 8.54 170.696 8.10333 170.696 7.53V4.52H171.606ZM174.252 5.27V8.5C174.252 8.76667 174.309 8.95667 174.422 9.07C174.535 9.17667 174.732 9.23 175.012 9.23H175.682V10H174.862C174.355 10 173.975 9.88333 173.722 9.65C173.469 9.41667 173.342 9.03333 173.342 8.5V5.27H172.632V4.52H173.342V3.14H174.252V4.52H175.682V5.27H174.252ZM55.2677 17.27V20.5C55.2677 20.7667 55.3244 20.9567 55.4377 21.07C55.551 21.1767 55.7477 21.23 56.0277 21.23H56.6977V22H55.8777C55.371 22 54.991 21.8833 54.7377 21.65C54.4844 21.4167 54.3577 21.0333 54.3577 20.5V17.27H53.6477V16.52H54.3577V15.14H55.2677V16.52H56.6977V17.27H55.2677ZM60.1903 22.09C59.6769 22.09 59.2103 21.9733 58.7903 21.74C58.3769 21.5067 58.0503 21.1767 57.8103 20.75C57.5769 20.3167 57.4603 19.8167 57.4603 19.25C57.4603 18.69 57.5803 18.1967 57.8203 17.77C58.0669 17.3367 58.4003 17.0067 58.8203 16.78C59.2403 16.5467 59.7103 16.43 60.2303 16.43C60.7503 16.43 61.2203 16.5467 61.6403 16.78C62.0603 17.0067 62.3903 17.3333 62.6303 17.76C62.8769 18.1867 63.0003 18.6833 63.0003 19.25C63.0003 19.8167 62.8736 20.3167 62.6203 20.75C62.3736 21.1767 62.0369 21.5067 61.6103 21.74C61.1836 21.9733 60.7103 22.09 60.1903 22.09ZM60.1903 21.29C60.5169 21.29 60.8236 21.2133 61.1103 21.06C61.3969 20.9067 61.6269 20.6767 61.8003 20.37C61.9803 20.0633 62.0703 19.69 62.0703 19.25C62.0703 18.81 61.9836 18.4367 61.8103 18.13C61.6369 17.8233 61.4103 17.5967 61.1303 17.45C60.8503 17.2967 60.5469 17.22 60.2203 17.22C59.8869 17.22 59.5803 17.2967 59.3003 17.45C59.0269 17.5967 58.8069 17.8233 58.6403 18.13C58.4736 18.4367 58.3903 18.81 58.3903 19.25C58.3903 19.6967 58.4703 20.0733 58.6303 20.38C58.7969 20.6867 59.0169 20.9167 59.2903 21.07C59.5636 21.2167 59.8636 21.29 60.1903 21.29ZM67.7728 17.54C67.9594 17.2133 68.2328 16.9467 68.5928 16.74C68.9528 16.5333 69.3628 16.43 69.8228 16.43C70.3161 16.43 70.7594 16.5467 71.1528 16.78C71.5461 17.0133 71.8561 17.3433 72.0828 17.77C72.3094 18.19 72.4228 18.68 72.4228 19.24C72.4228 19.7933 72.3094 20.2867 72.0828 20.72C71.8561 21.1533 71.5428 21.49 71.1428 21.73C70.7494 21.97 70.3094 22.09 69.8228 22.09C69.3494 22.09 68.9328 21.9867 68.5728 21.78C68.2194 21.5733 67.9528 21.31 67.7728 20.99V22H66.8628V14.6H67.7728V17.54ZM71.4928 19.24C71.4928 18.8267 71.4094 18.4667 71.2428 18.16C71.0761 17.8533 70.8494 17.62 70.5628 17.46C70.2828 17.3 69.9728 17.22 69.6328 17.22C69.2994 17.22 68.9894 17.3033 68.7028 17.47C68.4228 17.63 68.1961 17.8667 68.0228 18.18C67.8561 18.4867 67.7728 18.8433 67.7728 19.25C67.7728 19.6633 67.8561 20.0267 68.0228 20.34C68.1961 20.6467 68.4228 20.8833 68.7028 21.05C68.9894 21.21 69.2994 21.29 69.6328 21.29C69.9728 21.29 70.2828 21.21 70.5628 21.05C70.8494 20.8833 71.0761 20.6467 71.2428 20.34C71.4094 20.0267 71.4928 19.66 71.4928 19.24ZM78.6206 19.05C78.6206 19.2233 78.6106 19.4067 78.5906 19.6H74.2106C74.2439 20.14 74.4273 20.5633 74.7606 20.87C75.1006 21.17 75.5106 21.32 75.9906 21.32C76.3839 21.32 76.7106 21.23 76.9706 21.05C77.2373 20.8633 77.4239 20.6167 77.5306 20.31H78.5106C78.3639 20.8367 78.0706 21.2667 77.6306 21.6C77.1906 21.9267 76.6439 22.09 75.9906 22.09C75.4706 22.09 75.0039 21.9733 74.5906 21.74C74.1839 21.5067 73.8639 21.1767 73.6306 20.75C73.3973 20.3167 73.2806 19.8167 73.2806 19.25C73.2806 18.6833 73.3939 18.1867 73.6206 17.76C73.8473 17.3333 74.1639 17.0067 74.5706 16.78C74.9839 16.5467 75.4573 16.43 75.9906 16.43C76.5106 16.43 76.9706 16.5433 77.3706 16.77C77.7706 16.9967 78.0773 17.31 78.2906 17.71C78.5106 18.1033 78.6206 18.55 78.6206 19.05ZM77.6806 18.86C77.6806 18.5133 77.6039 18.2167 77.4506 17.97C77.2973 17.7167 77.0873 17.5267 76.8206 17.4C76.5606 17.2667 76.2706 17.2 75.9506 17.2C75.4906 17.2 75.0973 17.3467 74.7706 17.64C74.4506 17.9333 74.2673 18.34 74.2206 18.86H77.6806ZM83.3978 17.41C83.5578 17.0967 83.7844 16.8533 84.0778 16.68C84.3778 16.5067 84.7411 16.42 85.1678 16.42V17.36H84.9278C83.9078 17.36 83.3978 17.9133 83.3978 19.02V22H82.4878V16.52H83.3978V17.41ZM91.2182 19.05C91.2182 19.2233 91.2082 19.4067 91.1882 19.6H86.8082C86.8416 20.14 87.0249 20.5633 87.3582 20.87C87.6982 21.17 88.1082 21.32 88.5882 21.32C88.9816 21.32 89.3082 21.23 89.5682 21.05C89.8349 20.8633 90.0216 20.6167 90.1282 20.31H91.1082C90.9616 20.8367 90.6682 21.2667 90.2282 21.6C89.7882 21.9267 89.2416 22.09 88.5882 22.09C88.0682 22.09 87.6016 21.9733 87.1882 21.74C86.7816 21.5067 86.4616 21.1767 86.2282 20.75C85.9949 20.3167 85.8782 19.8167 85.8782 19.25C85.8782 18.6833 85.9916 18.1867 86.2182 17.76C86.4449 17.3333 86.7616 17.0067 87.1682 16.78C87.5816 16.5467 88.0549 16.43 88.5882 16.43C89.1082 16.43 89.5682 16.5433 89.9682 16.77C90.3682 16.9967 90.6749 17.31 90.8882 17.71C91.1082 18.1033 91.2182 18.55 91.2182 19.05ZM90.2782 18.86C90.2782 18.5133 90.2016 18.2167 90.0482 17.97C89.8949 17.7167 89.6849 17.5267 89.4182 17.4C89.1582 17.2667 88.8682 17.2 88.5482 17.2C88.0882 17.2 87.6949 17.3467 87.3682 17.64C87.0482 17.9333 86.8649 18.34 86.8182 18.86H90.2782ZM94.4594 21.16L96.1594 16.52H97.1294L94.9794 22H93.9194L91.7694 16.52H92.7494L94.4594 21.16ZM103.025 19.05C103.025 19.2233 103.015 19.4067 102.995 19.6H98.6149C98.6482 20.14 98.8315 20.5633 99.1649 20.87C99.5049 21.17 99.9149 21.32 100.395 21.32C100.788 21.32 101.115 21.23 101.375 21.05C101.642 20.8633 101.828 20.6167 101.935 20.31H102.915C102.768 20.8367 102.475 21.2667 102.035 21.6C101.595 21.9267 101.048 22.09 100.395 22.09C99.8749 22.09 99.4082 21.9733 98.9949 21.74C98.5882 21.5067 98.2682 21.1767 98.0349 20.75C97.8015 20.3167 97.6849 19.8167 97.6849 19.25C97.6849 18.6833 97.7982 18.1867 98.0249 17.76C98.2515 17.3333 98.5682 17.0067 98.9749 16.78C99.3882 16.5467 99.8615 16.43 100.395 16.43C100.915 16.43 101.375 16.5433 101.775 16.77C102.175 16.9967 102.482 17.31 102.695 17.71C102.915 18.1033 103.025 18.55 103.025 19.05ZM102.085 18.86C102.085 18.5133 102.008 18.2167 101.855 17.97C101.702 17.7167 101.492 17.5267 101.225 17.4C100.965 17.2667 100.675 17.2 100.355 17.2C99.8949 17.2 99.5015 17.3467 99.1749 17.64C98.8549 17.9333 98.6715 18.34 98.6249 18.86H102.085ZM103.886 19.24C103.886 18.68 103.999 18.19 104.226 17.77C104.453 17.3433 104.763 17.0133 105.156 16.78C105.556 16.5467 105.999 16.43 106.486 16.43C106.966 16.43 107.383 16.5333 107.736 16.74C108.089 16.9467 108.353 17.2067 108.526 17.52V16.52H109.446V22H108.526V20.98C108.346 21.3 108.076 21.5667 107.716 21.78C107.363 21.9867 106.949 22.09 106.476 22.09C105.989 22.09 105.549 21.97 105.156 21.73C104.763 21.49 104.453 21.1533 104.226 20.72C103.999 20.2867 103.886 19.7933 103.886 19.24ZM108.526 19.25C108.526 18.8367 108.443 18.4767 108.276 18.17C108.109 17.8633 107.883 17.63 107.596 17.47C107.316 17.3033 107.006 17.22 106.666 17.22C106.326 17.22 106.016 17.3 105.736 17.46C105.456 17.62 105.233 17.8533 105.066 18.16C104.899 18.4667 104.816 18.8267 104.816 19.24C104.816 19.66 104.899 20.0267 105.066 20.34C105.233 20.6467 105.456 20.8833 105.736 21.05C106.016 21.21 106.326 21.29 106.666 21.29C107.006 21.29 107.316 21.21 107.596 21.05C107.883 20.8833 108.109 20.6467 108.276 20.34C108.443 20.0267 108.526 19.6633 108.526 19.25ZM111.894 14.6V22H110.984V14.6H111.894ZM118.445 19.05C118.445 19.2233 118.435 19.4067 118.415 19.6H114.035C114.068 20.14 114.251 20.5633 114.585 20.87C114.925 21.17 115.335 21.32 115.815 21.32C116.208 21.32 116.535 21.23 116.795 21.05C117.061 20.8633 117.248 20.6167 117.355 20.31H118.335C118.188 20.8367 117.895 21.2667 117.455 21.6C117.015 21.9267 116.468 22.09 115.815 22.09C115.295 22.09 114.828 21.9733 114.415 21.74C114.008 21.5067 113.688 21.1767 113.455 20.75C113.221 20.3167 113.105 19.8167 113.105 19.25C113.105 18.6833 113.218 18.1867 113.445 17.76C113.671 17.3333 113.988 17.0067 114.395 16.78C114.808 16.5467 115.281 16.43 115.815 16.43C116.335 16.43 116.795 16.5433 117.195 16.77C117.595 16.9967 117.901 17.31 118.115 17.71C118.335 18.1033 118.445 18.55 118.445 19.05ZM117.505 18.86C117.505 18.5133 117.428 18.2167 117.275 17.97C117.121 17.7167 116.911 17.5267 116.645 17.4C116.385 17.2667 116.095 17.2 115.775 17.2C115.315 17.2 114.921 17.3467 114.595 17.64C114.275 17.9333 114.091 18.34 114.045 18.86H117.505ZM119.306 19.24C119.306 18.68 119.419 18.19 119.646 17.77C119.873 17.3433 120.183 17.0133 120.576 16.78C120.976 16.5467 121.423 16.43 121.916 16.43C122.343 16.43 122.739 16.53 123.106 16.73C123.473 16.9233 123.753 17.18 123.946 17.5V14.6H124.866V22H123.946V20.97C123.766 21.2967 123.499 21.5667 123.146 21.78C122.793 21.9867 122.379 22.09 121.906 22.09C121.419 22.09 120.976 21.97 120.576 21.73C120.183 21.49 119.873 21.1533 119.646 20.72C119.419 20.2867 119.306 19.7933 119.306 19.24ZM123.946 19.25C123.946 18.8367 123.863 18.4767 123.696 18.17C123.529 17.8633 123.303 17.63 123.016 17.47C122.736 17.3033 122.426 17.22 122.086 17.22C121.746 17.22 121.436 17.3 121.156 17.46C120.876 17.62 120.653 17.8533 120.486 18.16C120.319 18.4667 120.236 18.8267 120.236 19.24C120.236 19.66 120.319 20.0267 120.486 20.34C120.653 20.6467 120.876 20.8833 121.156 21.05C121.436 21.21 121.746 21.29 122.086 21.29C122.426 21.29 122.736 21.21 123.016 21.05C123.303 20.8833 123.529 20.6467 123.696 20.34C123.863 20.0267 123.946 19.6633 123.946 19.25ZM127.584 15.03L127.474 20.03H126.714L126.604 15.03H127.584ZM127.134 22.06C126.96 22.06 126.814 22 126.694 21.88C126.574 21.76 126.514 21.6133 126.514 21.44C126.514 21.2667 126.574 21.12 126.694 21C126.814 20.88 126.96 20.82 127.134 20.82C127.3 20.82 127.44 20.88 127.554 21C127.674 21.12 127.734 21.2667 127.734 21.44C127.734 21.6133 127.674 21.76 127.554 21.88C127.44 22 127.3 22.06 127.134 22.06Z" fill="#5C6272"/>
</svg>
