<svg width="314" height="41" viewBox="0 0 314 41" fill="none" xmlns="http://www.w3.org/2000/svg">
<path d="M7.84 8.08V15H6.93V9.84L4.63 15H3.99L1.68 9.83V15H0.77V8.08H1.75L4.31 13.8L6.87 8.08H7.84ZM13.9233 13.45H10.8833L10.3233 15H9.36328L11.8833 8.07H12.9333L15.4433 15H14.4833L13.9233 13.45ZM13.6633 12.71L12.4033 9.19L11.1433 12.71H13.6633ZM19.1716 15.07C18.7116 15.07 18.2982 14.99 17.9316 14.83C17.5716 14.6633 17.2882 14.4367 17.0816 14.15C16.8749 13.8567 16.7682 13.52 16.7616 13.14H17.7316C17.7649 13.4667 17.8982 13.7433 18.1316 13.97C18.3716 14.19 18.7182 14.3 19.1716 14.3C19.6049 14.3 19.9449 14.1933 20.1916 13.98C20.4449 13.76 20.5716 13.48 20.5716 13.14C20.5716 12.8733 20.4982 12.6567 20.3516 12.49C20.2049 12.3233 20.0216 12.1967 19.8016 12.11C19.5816 12.0233 19.2849 11.93 18.9116 11.83C18.4516 11.71 18.0816 11.59 17.8016 11.47C17.5282 11.35 17.2916 11.1633 17.0916 10.91C16.8982 10.65 16.8016 10.3033 16.8016 9.87C16.8016 9.49 16.8982 9.15333 17.0916 8.86C17.2849 8.56667 17.5549 8.34 17.9016 8.18C18.2549 8.02 18.6582 7.94 19.1116 7.94C19.7649 7.94 20.2982 8.10333 20.7116 8.43C21.1316 8.75667 21.3682 9.19 21.4216 9.73H20.4216C20.3882 9.46333 20.2482 9.23 20.0016 9.03C19.7549 8.82333 19.4282 8.72 19.0216 8.72C18.6416 8.72 18.3316 8.82 18.0916 9.02C17.8516 9.21333 17.7316 9.48667 17.7316 9.84C17.7316 10.0933 17.8016 10.3 17.9416 10.46C18.0882 10.62 18.2649 10.7433 18.4716 10.83C18.6849 10.91 18.9816 11.0033 19.3616 11.11C19.8216 11.2367 20.1916 11.3633 20.4716 11.49C20.7516 11.61 20.9916 11.8 21.1916 12.06C21.3916 12.3133 21.4916 12.66 21.4916 13.1C21.4916 13.44 21.4016 13.76 21.2216 14.06C21.0416 14.36 20.7749 14.6033 20.4216 14.79C20.0682 14.9767 19.6516 15.07 19.1716 15.07ZM27.5407 8.03V8.77H25.6407V15H24.7307V8.77H22.8207V8.03H27.5407ZM29.9909 8.77V11.1H32.5309V11.85H29.9909V14.25H32.8309V15H29.0809V8.02H32.8309V8.77H29.9909ZM38.2978 15L36.6378 12.15H35.5378V15H34.6278V8.03H36.8778C37.4045 8.03 37.8478 8.12 38.2078 8.3C38.5745 8.48 38.8478 8.72333 39.0278 9.03C39.2078 9.33667 39.2978 9.68667 39.2978 10.08C39.2978 10.56 39.1578 10.9833 38.8778 11.35C38.6045 11.7167 38.1911 11.96 37.6378 12.08L39.3878 15H38.2978ZM35.5378 11.42H36.8778C37.3711 11.42 37.7411 11.3 37.9878 11.06C38.2345 10.8133 38.3578 10.4867 38.3578 10.08C38.3578 9.66667 38.2345 9.34667 37.9878 9.12C37.7478 8.89333 37.3778 8.78 36.8778 8.78H35.5378V11.42ZM45.4218 8.03V8.77H43.5218V15H42.6118V8.77H40.7018V8.03H45.4218ZM51.082 13.45H48.042L47.482 15H46.522L49.042 8.07H50.092L52.602 15H51.642L51.082 13.45ZM50.822 12.71L49.562 9.19L48.302 12.71H50.822ZM59.4002 10.05C59.2069 9.64333 58.9269 9.33 58.5602 9.11C58.1936 8.88333 57.7669 8.77 57.2802 8.77C56.7936 8.77 56.3536 8.88333 55.9602 9.11C55.5736 9.33 55.2669 9.65 55.0402 10.07C54.8202 10.4833 54.7102 10.9633 54.7102 11.51C54.7102 12.0567 54.8202 12.5367 55.0402 12.95C55.2669 13.3633 55.5736 13.6833 55.9602 13.91C56.3536 14.13 56.7936 14.24 57.2802 14.24C57.9602 14.24 58.5202 14.0367 58.9602 13.63C59.4002 13.2233 59.6569 12.6733 59.7302 11.98H56.9502V11.24H60.7002V11.94C60.6469 12.5133 60.4669 13.04 60.1602 13.52C59.8536 13.9933 59.4502 14.37 58.9502 14.65C58.4502 14.9233 57.8936 15.06 57.2802 15.06C56.6336 15.06 56.0436 14.91 55.5102 14.61C54.9769 14.3033 54.5536 13.88 54.2402 13.34C53.9336 12.8 53.7802 12.19 53.7802 11.51C53.7802 10.83 53.9336 10.22 54.2402 9.68C54.5536 9.13333 54.9769 8.71 55.5102 8.41C56.0436 8.10333 56.6336 7.95 57.2802 7.95C58.0202 7.95 58.6736 8.13333 59.2402 8.5C59.8136 8.86667 60.2302 9.38333 60.4902 10.05H59.4002ZM67.6195 15.07C67.1595 15.07 66.7461 14.99 66.3795 14.83C66.0195 14.6633 65.7361 14.4367 65.5295 14.15C65.3228 13.8567 65.2161 13.52 65.2095 13.14H66.1795C66.2128 13.4667 66.3461 13.7433 66.5795 13.97C66.8195 14.19 67.1661 14.3 67.6195 14.3C68.0528 14.3 68.3928 14.1933 68.6395 13.98C68.8928 13.76 69.0195 13.48 69.0195 13.14C69.0195 12.8733 68.9461 12.6567 68.7995 12.49C68.6528 12.3233 68.4695 12.1967 68.2495 12.11C68.0295 12.0233 67.7328 11.93 67.3595 11.83C66.8995 11.71 66.5295 11.59 66.2495 11.47C65.9761 11.35 65.7395 11.1633 65.5395 10.91C65.3461 10.65 65.2495 10.3033 65.2495 9.87C65.2495 9.49 65.3461 9.15333 65.5395 8.86C65.7328 8.56667 66.0028 8.34 66.3495 8.18C66.7028 8.02 67.1061 7.94 67.5595 7.94C68.2128 7.94 68.7461 8.10333 69.1595 8.43C69.5795 8.75667 69.8161 9.19 69.8695 9.73H68.8695C68.8361 9.46333 68.6961 9.23 68.4495 9.03C68.2028 8.82333 67.8761 8.72 67.4695 8.72C67.0895 8.72 66.7795 8.82 66.5395 9.02C66.2995 9.21333 66.1795 9.48667 66.1795 9.84C66.1795 10.0933 66.2495 10.3 66.3895 10.46C66.5361 10.62 66.7128 10.7433 66.9195 10.83C67.1328 10.91 67.4295 11.0033 67.8095 11.11C68.2695 11.2367 68.6395 11.3633 68.9195 11.49C69.1995 11.61 69.4395 11.8 69.6395 12.06C69.8395 12.3133 69.9395 12.66 69.9395 13.1C69.9395 13.44 69.8495 13.76 69.6695 14.06C69.4895 14.36 69.2228 14.6033 68.8695 14.79C68.5161 14.9767 68.0995 15.07 67.6195 15.07ZM72.5886 8.03V12.44C72.5886 13.06 72.7386 13.52 73.0386 13.82C73.3453 14.12 73.7686 14.27 74.3086 14.27C74.8419 14.27 75.2586 14.12 75.5586 13.82C75.8653 13.52 76.0186 13.06 76.0186 12.44V8.03H76.9286V12.43C76.9286 13.01 76.8119 13.5 76.5786 13.9C76.3453 14.2933 76.0286 14.5867 75.6286 14.78C75.2353 14.9733 74.7919 15.07 74.2986 15.07C73.8053 15.07 73.3586 14.9733 72.9586 14.78C72.5653 14.5867 72.2519 14.2933 72.0186 13.9C71.7919 13.5 71.6786 13.01 71.6786 12.43V8.03H72.5886ZM83.5266 10.07C83.5266 10.65 83.3266 11.1333 82.9266 11.52C82.5333 11.9 81.93 12.09 81.1166 12.09H79.7766V15H78.8666V8.03H81.1166C81.9033 8.03 82.5 8.22 82.9066 8.6C83.32 8.98 83.5266 9.47 83.5266 10.07ZM81.1166 11.34C81.6233 11.34 81.9966 11.23 82.2366 11.01C82.4766 10.79 82.5966 10.4767 82.5966 10.07C82.5966 9.21 82.1033 8.78 81.1166 8.78H79.7766V11.34H81.1166ZM89.7377 10.07C89.7377 10.65 89.5377 11.1333 89.1377 11.52C88.7443 11.9 88.141 12.09 87.3277 12.09H85.9877V15H85.0777V8.03H87.3277C88.1143 8.03 88.711 8.22 89.1177 8.6C89.531 8.98 89.7377 9.47 89.7377 10.07ZM87.3277 11.34C87.8343 11.34 88.2077 11.23 88.4477 11.01C88.6877 10.79 88.8077 10.4767 88.8077 10.07C88.8077 9.21 88.3143 8.78 87.3277 8.78H85.9877V11.34H87.3277ZM94.4487 15.07C93.802 15.07 93.212 14.92 92.6787 14.62C92.1453 14.3133 91.722 13.89 91.4087 13.35C91.102 12.8033 90.9487 12.19 90.9487 11.51C90.9487 10.83 91.102 10.22 91.4087 9.68C91.722 9.13333 92.1453 8.71 92.6787 8.41C93.212 8.10333 93.802 7.95 94.4487 7.95C95.102 7.95 95.6953 8.10333 96.2287 8.41C96.762 8.71 97.182 9.13 97.4887 9.67C97.7953 10.21 97.9487 10.8233 97.9487 11.51C97.9487 12.1967 97.7953 12.81 97.4887 13.35C97.182 13.89 96.762 14.3133 96.2287 14.62C95.6953 14.92 95.102 15.07 94.4487 15.07ZM94.4487 14.28C94.9353 14.28 95.372 14.1667 95.7587 13.94C96.152 13.7133 96.4587 13.39 96.6787 12.97C96.9053 12.55 97.0187 12.0633 97.0187 11.51C97.0187 10.95 96.9053 10.4633 96.6787 10.05C96.4587 9.63 96.1553 9.30667 95.7687 9.08C95.382 8.85333 94.942 8.74 94.4487 8.74C93.9553 8.74 93.5153 8.85333 93.1287 9.08C92.742 9.30667 92.4353 9.63 92.2087 10.05C91.9887 10.4633 91.8787 10.95 91.8787 11.51C91.8787 12.0633 91.9887 12.55 92.2087 12.97C92.4353 13.39 92.742 13.7133 93.1287 13.94C93.522 14.1667 93.962 14.28 94.4487 14.28ZM103.24 15L101.58 12.15H100.48V15H99.57V8.03H101.82C102.347 8.03 102.79 8.12 103.15 8.3C103.517 8.48 103.79 8.72333 103.97 9.03C104.15 9.33667 104.24 9.68667 104.24 10.08C104.24 10.56 104.1 10.9833 103.82 11.35C103.547 11.7167 103.133 11.96 102.58 12.08L104.33 15H103.24ZM100.48 11.42H101.82C102.313 11.42 102.683 11.3 102.93 11.06C103.177 10.8133 103.3 10.4867 103.3 10.08C103.3 9.66667 103.177 9.34667 102.93 9.12C102.69 8.89333 102.32 8.78 101.82 8.78H100.48V11.42ZM110.364 8.03V8.77H108.464V15H107.554V8.77H105.644V8.03H110.364Z" fill="#5F646A"/>
<path d="M141.488 8.03V8.77H139.588V15H138.678V8.77H136.768V8.03H141.488ZM146.279 15L144.619 12.15H143.519V15H142.609V8.03H144.859C145.385 8.03 145.829 8.12 146.189 8.3C146.555 8.48 146.829 8.72333 147.009 9.03C147.189 9.33667 147.279 9.68667 147.279 10.08C147.279 10.56 147.139 10.9833 146.859 11.35C146.585 11.7167 146.172 11.96 145.619 12.08L147.369 15H146.279ZM143.519 11.42H144.859C145.352 11.42 145.722 11.3 145.969 11.06C146.215 10.8133 146.339 10.4867 146.339 10.08C146.339 9.66667 146.215 9.34667 145.969 9.12C145.729 8.89333 145.359 8.78 144.859 8.78H143.519V11.42ZM151.853 15.07C151.206 15.07 150.616 14.92 150.083 14.62C149.549 14.3133 149.126 13.89 148.813 13.35C148.506 12.8033 148.353 12.19 148.353 11.51C148.353 10.83 148.506 10.22 148.813 9.68C149.126 9.13333 149.549 8.71 150.083 8.41C150.616 8.10333 151.206 7.95 151.853 7.95C152.506 7.95 153.099 8.10333 153.633 8.41C154.166 8.71 154.586 9.13 154.893 9.67C155.199 10.21 155.353 10.8233 155.353 11.51C155.353 12.1967 155.199 12.81 154.893 13.35C154.586 13.89 154.166 14.3133 153.633 14.62C153.099 14.92 152.506 15.07 151.853 15.07ZM151.853 14.28C152.339 14.28 152.776 14.1667 153.163 13.94C153.556 13.7133 153.863 13.39 154.083 12.97C154.309 12.55 154.423 12.0633 154.423 11.51C154.423 10.95 154.309 10.4633 154.083 10.05C153.863 9.63 153.559 9.30667 153.173 9.08C152.786 8.85333 152.346 8.74 151.853 8.74C151.359 8.74 150.919 8.85333 150.533 9.08C150.146 9.30667 149.839 9.63 149.613 10.05C149.393 10.4633 149.283 10.95 149.283 11.51C149.283 12.0633 149.393 12.55 149.613 12.97C149.839 13.39 150.146 13.7133 150.533 13.94C150.926 14.1667 151.366 14.28 151.853 14.28ZM157.444 8.03V12.44C157.444 13.06 157.594 13.52 157.894 13.82C158.201 14.12 158.624 14.27 159.164 14.27C159.697 14.27 160.114 14.12 160.414 13.82C160.721 13.52 160.874 13.06 160.874 12.44V8.03H161.784V12.43C161.784 13.01 161.667 13.5 161.434 13.9C161.201 14.2933 160.884 14.5867 160.484 14.78C160.091 14.9733 159.647 15.07 159.154 15.07C158.661 15.07 158.214 14.9733 157.814 14.78C157.421 14.5867 157.107 14.2933 156.874 13.9C156.647 13.5 156.534 13.01 156.534 12.43V8.03H157.444ZM166.792 11.41C167.045 11.45 167.275 11.5533 167.482 11.72C167.695 11.8867 167.862 12.0933 167.982 12.34C168.109 12.5867 168.172 12.85 168.172 13.13C168.172 13.4833 168.082 13.8033 167.902 14.09C167.722 14.37 167.459 14.5933 167.112 14.76C166.772 14.92 166.369 15 165.902 15H163.302V8.03H165.802C166.275 8.03 166.679 8.11 167.012 8.27C167.345 8.42333 167.595 8.63333 167.762 8.9C167.929 9.16667 168.012 9.46667 168.012 9.8C168.012 10.2133 167.899 10.5567 167.672 10.83C167.452 11.0967 167.159 11.29 166.792 11.41ZM164.212 11.04H165.742C166.169 11.04 166.499 10.94 166.732 10.74C166.965 10.54 167.082 10.2633 167.082 9.91C167.082 9.55667 166.965 9.28 166.732 9.08C166.499 8.88 166.162 8.78 165.722 8.78H164.212V11.04ZM165.822 14.25C166.275 14.25 166.629 14.1433 166.882 13.93C167.135 13.7167 167.262 13.42 167.262 13.04C167.262 12.6533 167.129 12.35 166.862 12.13C166.595 11.9033 166.239 11.79 165.792 11.79H164.212V14.25H165.822ZM170.345 14.26H172.785V15H169.435V8.03H170.345V14.26ZM174.661 8.77V11.1H177.201V11.85H174.661V14.25H177.501V15H173.751V8.02H177.501V8.77H174.661ZM181.088 15.07C180.628 15.07 180.215 14.99 179.848 14.83C179.488 14.6633 179.205 14.4367 178.998 14.15C178.791 13.8567 178.685 13.52 178.678 13.14H179.648C179.681 13.4667 179.815 13.7433 180.048 13.97C180.288 14.19 180.635 14.3 181.088 14.3C181.521 14.3 181.861 14.1933 182.108 13.98C182.361 13.76 182.488 13.48 182.488 13.14C182.488 12.8733 182.415 12.6567 182.268 12.49C182.121 12.3233 181.938 12.1967 181.718 12.11C181.498 12.0233 181.201 11.93 180.828 11.83C180.368 11.71 179.998 11.59 179.718 11.47C179.445 11.35 179.208 11.1633 179.008 10.91C178.815 10.65 178.718 10.3033 178.718 9.87C178.718 9.49 178.815 9.15333 179.008 8.86C179.201 8.56667 179.471 8.34 179.818 8.18C180.171 8.02 180.575 7.94 181.028 7.94C181.681 7.94 182.215 8.10333 182.628 8.43C183.048 8.75667 183.285 9.19 183.338 9.73H182.338C182.305 9.46333 182.165 9.23 181.918 9.03C181.671 8.82333 181.345 8.72 180.938 8.72C180.558 8.72 180.248 8.82 180.008 9.02C179.768 9.21333 179.648 9.48667 179.648 9.84C179.648 10.0933 179.718 10.3 179.858 10.46C180.005 10.62 180.181 10.7433 180.388 10.83C180.601 10.91 180.898 11.0033 181.278 11.11C181.738 11.2367 182.108 11.3633 182.388 11.49C182.668 11.61 182.908 11.8 183.108 12.06C183.308 12.3133 183.408 12.66 183.408 13.1C183.408 13.44 183.318 13.76 183.138 14.06C182.958 14.36 182.691 14.6033 182.338 14.79C181.985 14.9767 181.568 15.07 181.088 15.07ZM190.117 8.03V15H189.207V11.84H185.657V15H184.747V8.03H185.657V11.09H189.207V8.03H190.117ZM194.831 15.07C194.184 15.07 193.594 14.92 193.061 14.62C192.528 14.3133 192.104 13.89 191.791 13.35C191.484 12.8033 191.331 12.19 191.331 11.51C191.331 10.83 191.484 10.22 191.791 9.68C192.104 9.13333 192.528 8.71 193.061 8.41C193.594 8.10333 194.184 7.95 194.831 7.95C195.484 7.95 196.078 8.10333 196.611 8.41C197.144 8.71 197.564 9.13 197.871 9.67C198.178 10.21 198.331 10.8233 198.331 11.51C198.331 12.1967 198.178 12.81 197.871 13.35C197.564 13.89 197.144 14.3133 196.611 14.62C196.078 14.92 195.484 15.07 194.831 15.07ZM194.831 14.28C195.318 14.28 195.754 14.1667 196.141 13.94C196.534 13.7133 196.841 13.39 197.061 12.97C197.288 12.55 197.401 12.0633 197.401 11.51C197.401 10.95 197.288 10.4633 197.061 10.05C196.841 9.63 196.538 9.30667 196.151 9.08C195.764 8.85333 195.324 8.74 194.831 8.74C194.338 8.74 193.898 8.85333 193.511 9.08C193.124 9.30667 192.818 9.63 192.591 10.05C192.371 10.4633 192.261 10.95 192.261 11.51C192.261 12.0633 192.371 12.55 192.591 12.97C192.818 13.39 193.124 13.7133 193.511 13.94C193.904 14.1667 194.344 14.28 194.831 14.28ZM202.692 15.07C202.046 15.07 201.456 14.92 200.922 14.62C200.389 14.3133 199.966 13.89 199.652 13.35C199.346 12.8033 199.192 12.19 199.192 11.51C199.192 10.83 199.346 10.22 199.652 9.68C199.966 9.13333 200.389 8.71 200.922 8.41C201.456 8.10333 202.046 7.95 202.692 7.95C203.346 7.95 203.939 8.10333 204.472 8.41C205.006 8.71 205.426 9.13 205.732 9.67C206.039 10.21 206.192 10.8233 206.192 11.51C206.192 12.1967 206.039 12.81 205.732 13.35C205.426 13.89 205.006 14.3133 204.472 14.62C203.939 14.92 203.346 15.07 202.692 15.07ZM202.692 14.28C203.179 14.28 203.616 14.1667 204.002 13.94C204.396 13.7133 204.702 13.39 204.922 12.97C205.149 12.55 205.262 12.0633 205.262 11.51C205.262 10.95 205.149 10.4633 204.922 10.05C204.702 9.63 204.399 9.30667 204.012 9.08C203.626 8.85333 203.186 8.74 202.692 8.74C202.199 8.74 201.759 8.85333 201.372 9.08C200.986 9.30667 200.679 9.63 200.452 10.05C200.232 10.4633 200.122 10.95 200.122 11.51C200.122 12.0633 200.232 12.55 200.452 12.97C200.679 13.39 200.986 13.7133 201.372 13.94C201.766 14.1667 202.206 14.28 202.692 14.28ZM211.684 8.03V8.77H209.784V15H208.874V8.77H206.964V8.03H211.684ZM213.714 8.03V15H212.804V8.03H213.714ZM220.745 15H219.835L216.175 9.45V15H215.265V8.02H216.175L219.835 13.56V8.02H220.745V15ZM227.576 10.05C227.383 9.64333 227.103 9.33 226.736 9.11C226.369 8.88333 225.943 8.77 225.456 8.77C224.969 8.77 224.529 8.88333 224.136 9.11C223.749 9.33 223.443 9.65 223.216 10.07C222.996 10.4833 222.886 10.9633 222.886 11.51C222.886 12.0567 222.996 12.5367 223.216 12.95C223.443 13.3633 223.749 13.6833 224.136 13.91C224.529 14.13 224.969 14.24 225.456 14.24C226.136 14.24 226.696 14.0367 227.136 13.63C227.576 13.2233 227.833 12.6733 227.906 11.98H225.126V11.24H228.876V11.94C228.823 12.5133 228.643 13.04 228.336 13.52C228.029 13.9933 227.626 14.37 227.126 14.65C226.626 14.9233 226.069 15.06 225.456 15.06C224.809 15.06 224.219 14.91 223.686 14.61C223.153 14.3033 222.729 13.88 222.416 13.34C222.109 12.8 221.956 12.19 221.956 11.51C221.956 10.83 222.109 10.22 222.416 9.68C222.729 9.13333 223.153 8.71 223.686 8.41C224.219 8.10333 224.809 7.95 225.456 7.95C226.196 7.95 226.849 8.13333 227.416 8.5C227.989 8.86667 228.406 9.38333 228.666 10.05H227.576Z" fill="#5F646A"/>
<path fill-rule="evenodd" clip-rule="evenodd" d="M125.447 10.2753L123.051 7.36323C122.985 7.28213 122.983 7.14835 123.047 7.06445C123.112 6.98054 123.218 6.97827 123.285 7.05938L125.806 10.1233C125.874 10.2064 125.874 10.3441 125.806 10.4272L123.285 13.4912C123.218 13.5723 123.112 13.57 123.047 13.4861C122.983 13.4022 122.985 13.2684 123.051 13.1873L125.447 10.2753Z" stroke="#5F646A"/>
<path fill-rule="evenodd" clip-rule="evenodd" d="M241.447 10.2753L239.051 7.36323C238.985 7.28213 238.983 7.14835 239.047 7.06445C239.112 6.98054 239.218 6.97827 239.285 7.05938L241.806 10.1233C241.874 10.2064 241.874 10.3441 241.806 10.4272L239.285 13.4912C239.218 13.5723 239.112 13.57 239.047 13.4861C238.983 13.4022 238.985 13.2684 239.051 13.1873L241.447 10.2753Z" stroke="#5F646A"/>
<path fill-rule="evenodd" clip-rule="evenodd" d="M3.44726 31.2753L1.05126 28.3632C0.98452 28.2821 0.982716 28.1484 1.04723 28.0644C1.11174 27.9805 1.21814 27.9783 1.28488 28.0594L3.80589 31.1233C3.87423 31.2064 3.87423 31.3441 3.80589 31.4272L1.28488 34.4912C1.21814 34.5723 1.11174 34.57 1.04723 34.4861C0.982717 34.4022 0.98452 34.2684 1.05126 34.1873L3.44726 31.2753Z" stroke="#5F646A"/>
<path d="M16.93 35.07C16.2833 35.07 15.6933 34.92 15.16 34.62C14.6267 34.3133 14.2033 33.89 13.89 33.35C13.5833 32.8033 13.43 32.19 13.43 31.51C13.43 30.83 13.5833 30.22 13.89 29.68C14.2033 29.1333 14.6267 28.71 15.16 28.41C15.6933 28.1033 16.2833 27.95 16.93 27.95C17.5833 27.95 18.1767 28.1033 18.71 28.41C19.2433 28.71 19.6633 29.13 19.97 29.67C20.2767 30.21 20.43 30.8233 20.43 31.51C20.43 32.1967 20.2767 32.81 19.97 33.35C19.6633 33.89 19.2433 34.3133 18.71 34.62C18.1767 34.92 17.5833 35.07 16.93 35.07ZM16.93 34.28C17.4167 34.28 17.8533 34.1667 18.24 33.94C18.6333 33.7133 18.94 33.39 19.16 32.97C19.3867 32.55 19.5 32.0633 19.5 31.51C19.5 30.95 19.3867 30.4633 19.16 30.05C18.94 29.63 18.6367 29.3067 18.25 29.08C17.8633 28.8533 17.4233 28.74 16.93 28.74C16.4367 28.74 15.9967 28.8533 15.61 29.08C15.2233 29.3067 14.9167 29.63 14.69 30.05C14.47 30.4633 14.36 30.95 14.36 31.51C14.36 32.0633 14.47 32.55 14.69 32.97C14.9167 33.39 15.2233 33.7133 15.61 33.94C16.0033 34.1667 16.4433 34.28 16.93 34.28ZM25.3013 35L23.6413 32.15H22.5413V35H21.6313V28.03H23.8813C24.408 28.03 24.8513 28.12 25.2113 28.3C25.578 28.48 25.8513 28.7233 26.0313 29.03C26.2113 29.3367 26.3013 29.6867 26.3013 30.08C26.3013 30.56 26.1613 30.9833 25.8813 31.35C25.608 31.7167 25.1947 31.96 24.6413 32.08L26.3913 35H25.3013ZM22.5413 31.42H23.8813C24.3747 31.42 24.7447 31.3 24.9913 31.06C25.238 30.8133 25.3613 30.4867 25.3613 30.08C25.3613 29.6667 25.238 29.3467 24.9913 29.12C24.7513 28.8933 24.3813 28.78 23.8813 28.78H22.5413V31.42ZM29.8853 28.03C30.6453 28.03 31.302 28.1733 31.8553 28.46C32.4153 28.74 32.842 29.1433 33.1353 29.67C33.4353 30.1967 33.5853 30.8167 33.5853 31.53C33.5853 32.2433 33.4353 32.8633 33.1353 33.39C32.842 33.91 32.4153 34.31 31.8553 34.59C31.302 34.8633 30.6453 35 29.8853 35H27.7153V28.03H29.8853ZM29.8853 34.25C30.7853 34.25 31.472 34.0133 31.9453 33.54C32.4186 33.06 32.6553 32.39 32.6553 31.53C32.6553 30.6633 32.4153 29.9867 31.9353 29.5C31.462 29.0133 30.7786 28.77 29.8853 28.77H28.6253V34.25H29.8853ZM35.6956 28.77V31.1H38.2356V31.85H35.6956V34.25H38.5356V35H34.7856V28.02H38.5356V28.77H35.6956ZM43.5826 35L41.9226 32.15H40.8226V35H39.9126V28.03H42.1626C42.6892 28.03 43.1326 28.12 43.4926 28.3C43.8592 28.48 44.1326 28.7233 44.3126 29.03C44.4926 29.3367 44.5826 29.6867 44.5826 30.08C44.5826 30.56 44.4426 30.9833 44.1626 31.35C43.8892 31.7167 43.4759 31.96 42.9226 32.08L44.6726 35H43.5826ZM40.8226 31.42H42.1626C42.6559 31.42 43.0259 31.3 43.2726 31.06C43.5192 30.8133 43.6426 30.4867 43.6426 30.08C43.6426 29.6667 43.5192 29.3467 43.2726 29.12C43.0326 28.8933 42.6626 28.78 42.1626 28.78H40.8226V31.42ZM48.2066 35.07C47.7466 35.07 47.3332 34.99 46.9666 34.83C46.6066 34.6633 46.3232 34.4367 46.1166 34.15C45.9099 33.8567 45.8032 33.52 45.7966 33.14H46.7666C46.7999 33.4667 46.9332 33.7433 47.1666 33.97C47.4066 34.19 47.7532 34.3 48.2066 34.3C48.6399 34.3 48.9799 34.1933 49.2266 33.98C49.4799 33.76 49.6066 33.48 49.6066 33.14C49.6066 32.8733 49.5332 32.6567 49.3866 32.49C49.2399 32.3233 49.0566 32.1967 48.8366 32.11C48.6166 32.0233 48.3199 31.93 47.9466 31.83C47.4866 31.71 47.1166 31.59 46.8366 31.47C46.5632 31.35 46.3266 31.1633 46.1266 30.91C45.9332 30.65 45.8366 30.3033 45.8366 29.87C45.8366 29.49 45.9332 29.1533 46.1266 28.86C46.3199 28.5667 46.5899 28.34 46.9366 28.18C47.2899 28.02 47.6932 27.94 48.1466 27.94C48.7999 27.94 49.3332 28.1033 49.7466 28.43C50.1666 28.7567 50.4032 29.19 50.4566 29.73H49.4566C49.4232 29.4633 49.2832 29.23 49.0366 29.03C48.7899 28.8233 48.4632 28.72 48.0566 28.72C47.6766 28.72 47.3666 28.82 47.1266 29.02C46.8866 29.2133 46.7666 29.4867 46.7666 29.84C46.7666 30.0933 46.8366 30.3 46.9766 30.46C47.1232 30.62 47.2999 30.7433 47.5066 30.83C47.7199 30.91 48.0166 31.0033 48.3966 31.11C48.8566 31.2367 49.2266 31.3633 49.5066 31.49C49.7866 31.61 50.0266 31.8 50.2266 32.06C50.4266 32.3133 50.5266 32.66 50.5266 33.1C50.5266 33.44 50.4366 33.76 50.2566 34.06C50.0766 34.36 49.8099 34.6033 49.4566 34.79C49.1032 34.9767 48.6866 35.07 48.2066 35.07ZM58.6517 33.45H55.6117L55.0517 35H54.0917L56.6117 28.07H57.6617L60.1717 35H59.2117L58.6517 33.45ZM58.3917 32.71L57.1317 29.19L55.8717 32.71H58.3917ZM66.75 35H65.84L62.18 29.45V35H61.27V28.02H62.18L65.84 33.56V28.02H66.75V35ZM70.4712 28.03C71.2313 28.03 71.8879 28.1733 72.4413 28.46C73.0013 28.74 73.4279 29.1433 73.7213 29.67C74.0213 30.1967 74.1713 30.8167 74.1713 31.53C74.1713 32.2433 74.0213 32.8633 73.7213 33.39C73.4279 33.91 73.0013 34.31 72.4413 34.59C71.8879 34.8633 71.2313 35 70.4712 35H68.3013V28.03H70.4712ZM70.4712 34.25C71.3713 34.25 72.0579 34.0133 72.5312 33.54C73.0046 33.06 73.2413 32.39 73.2413 31.53C73.2413 30.6633 73.0013 29.9867 72.5213 29.5C72.0479 29.0133 71.3646 28.77 70.4712 28.77H69.2113V34.25H70.4712ZM80.2476 35.07C79.7876 35.07 79.3742 34.99 79.0076 34.83C78.6476 34.6633 78.3642 34.4367 78.1576 34.15C77.9509 33.8567 77.8442 33.52 77.8376 33.14H78.8076C78.8409 33.4667 78.9742 33.7433 79.2076 33.97C79.4476 34.19 79.7942 34.3 80.2476 34.3C80.6809 34.3 81.0209 34.1933 81.2676 33.98C81.5209 33.76 81.6476 33.48 81.6476 33.14C81.6476 32.8733 81.5742 32.6567 81.4276 32.49C81.2809 32.3233 81.0976 32.1967 80.8776 32.11C80.6576 32.0233 80.3609 31.93 79.9876 31.83C79.5276 31.71 79.1576 31.59 78.8776 31.47C78.6042 31.35 78.3676 31.1633 78.1676 30.91C77.9742 30.65 77.8776 30.3033 77.8776 29.87C77.8776 29.49 77.9742 29.1533 78.1676 28.86C78.3609 28.5667 78.6309 28.34 78.9776 28.18C79.3309 28.02 79.7342 27.94 80.1876 27.94C80.8409 27.94 81.3742 28.1033 81.7876 28.43C82.2076 28.7567 82.4442 29.19 82.4976 29.73H81.4976C81.4642 29.4633 81.3242 29.23 81.0776 29.03C80.8309 28.8233 80.5042 28.72 80.0976 28.72C79.7176 28.72 79.4076 28.82 79.1676 29.02C78.9276 29.2133 78.8076 29.4867 78.8076 29.84C78.8076 30.0933 78.8776 30.3 79.0176 30.46C79.1642 30.62 79.3409 30.7433 79.5476 30.83C79.7609 30.91 80.0576 31.0033 80.4376 31.11C80.8976 31.2367 81.2676 31.3633 81.5476 31.49C81.8276 31.61 82.0676 31.8 82.2676 32.06C82.4676 32.3133 82.5676 32.66 82.5676 33.1C82.5676 33.44 82.4776 33.76 82.2976 34.06C82.1176 34.36 81.8509 34.6033 81.4976 34.79C81.1442 34.9767 80.7276 35.07 80.2476 35.07ZM89.2767 28.03V35H88.3667V31.84H84.8167V35H83.9067V28.03H84.8167V31.09H88.3667V28.03H89.2767ZM91.7405 28.03V35H90.8305V28.03H91.7405ZM97.9515 30.07C97.9515 30.65 97.7515 31.1333 97.3515 31.52C96.9582 31.9 96.3548 32.09 95.5415 32.09H94.2015V35H93.2915V28.03H95.5415C96.3282 28.03 96.9248 28.22 97.3315 28.6C97.7448 28.98 97.9515 29.47 97.9515 30.07ZM95.5415 31.34C96.0482 31.34 96.4215 31.23 96.6615 31.01C96.9015 30.79 97.0215 30.4767 97.0215 30.07C97.0215 29.21 96.5282 28.78 95.5415 28.78H94.2015V31.34H95.5415ZM103.743 30.07C103.743 30.65 103.543 31.1333 103.143 31.52C102.749 31.9 102.146 32.09 101.333 32.09H99.9925V35H99.0825V28.03H101.333C102.119 28.03 102.716 28.22 103.123 28.6C103.536 28.98 103.743 29.47 103.743 30.07ZM101.333 31.34C101.839 31.34 102.213 31.23 102.453 31.01C102.693 30.79 102.813 30.4767 102.813 30.07C102.813 29.21 102.319 28.78 101.333 28.78H99.9925V31.34H101.333ZM105.784 28.03V35H104.874V28.03H105.784ZM112.814 35H111.904L108.244 29.45V35H107.334V28.02H108.244L111.904 33.56V28.02H112.814V35ZM119.646 30.05C119.452 29.6433 119.172 29.33 118.806 29.11C118.439 28.8833 118.012 28.77 117.526 28.77C117.039 28.77 116.599 28.8833 116.206 29.11C115.819 29.33 115.512 29.65 115.286 30.07C115.066 30.4833 114.956 30.9633 114.956 31.51C114.956 32.0567 115.066 32.5367 115.286 32.95C115.512 33.3633 115.819 33.6833 116.206 33.91C116.599 34.13 117.039 34.24 117.526 34.24C118.206 34.24 118.766 34.0367 119.206 33.63C119.646 33.2233 119.902 32.6733 119.976 31.98H117.196V31.24H120.946V31.94C120.892 32.5133 120.712 33.04 120.406 33.52C120.099 33.9933 119.696 34.37 119.196 34.65C118.696 34.9233 118.139 35.06 117.526 35.06C116.879 35.06 116.289 34.91 115.756 34.61C115.222 34.3033 114.799 33.88 114.486 33.34C114.179 32.8 114.026 32.19 114.026 31.51C114.026 30.83 114.179 30.22 114.486 29.68C114.799 29.1333 115.222 28.71 115.756 28.41C116.289 28.1033 116.879 27.95 117.526 27.95C118.266 27.95 118.919 28.1333 119.486 28.5C120.059 28.8667 120.476 29.3833 120.736 30.05H119.646Z" fill="#212529"/>
<path d="M255.93 14.07C255.283 14.07 254.693 13.92 254.16 13.62C253.627 13.3133 253.203 12.89 252.89 12.35C252.583 11.8033 252.43 11.19 252.43 10.51C252.43 9.83 252.583 9.22 252.89 8.68C253.203 8.13333 253.627 7.71 254.16 7.41C254.693 7.10333 255.283 6.95 255.93 6.95C256.583 6.95 257.177 7.10333 257.71 7.41C258.243 7.71 258.663 8.13 258.97 8.67C259.277 9.21 259.43 9.82333 259.43 10.51C259.43 11.1967 259.277 11.81 258.97 12.35C258.663 12.89 258.243 13.3133 257.71 13.62C257.177 13.92 256.583 14.07 255.93 14.07ZM255.93 13.28C256.417 13.28 256.853 13.1667 257.24 12.94C257.633 12.7133 257.94 12.39 258.16 11.97C258.387 11.55 258.5 11.0633 258.5 10.51C258.5 9.95 258.387 9.46333 258.16 9.05C257.94 8.63 257.637 8.30667 257.25 8.08C256.863 7.85333 256.423 7.74 255.93 7.74C255.437 7.74 254.997 7.85333 254.61 8.08C254.223 8.30667 253.917 8.63 253.69 9.05C253.47 9.46333 253.36 9.95 253.36 10.51C253.36 11.0633 253.47 11.55 253.69 11.97C253.917 12.39 254.223 12.7133 254.61 12.94C255.003 13.1667 255.443 13.28 255.93 13.28ZM264.301 14L262.641 11.15H261.541V14H260.631V7.03H262.881C263.408 7.03 263.851 7.12 264.211 7.3C264.578 7.48 264.851 7.72333 265.031 8.03C265.211 8.33667 265.301 8.68667 265.301 9.08C265.301 9.56 265.161 9.98333 264.881 10.35C264.608 10.7167 264.195 10.96 263.641 11.08L265.391 14H264.301ZM261.541 10.42H262.881C263.375 10.42 263.745 10.3 263.991 10.06C264.238 9.81333 264.361 9.48667 264.361 9.08C264.361 8.66667 264.238 8.34667 263.991 8.12C263.751 7.89333 263.381 7.78 262.881 7.78H261.541V10.42ZM268.885 7.03C269.645 7.03 270.302 7.17333 270.855 7.46C271.415 7.74 271.842 8.14333 272.135 8.67C272.435 9.19667 272.585 9.81667 272.585 10.53C272.585 11.2433 272.435 11.8633 272.135 12.39C271.842 12.91 271.415 13.31 270.855 13.59C270.302 13.8633 269.645 14 268.885 14H266.715V7.03H268.885ZM268.885 13.25C269.785 13.25 270.472 13.0133 270.945 12.54C271.419 12.06 271.655 11.39 271.655 10.53C271.655 9.66333 271.415 8.98667 270.935 8.5C270.462 8.01333 269.779 7.77 268.885 7.77H267.625V13.25H268.885ZM274.696 7.77V10.1H277.236V10.85H274.696V13.25H277.536V14H273.786V7.02H277.536V7.77H274.696ZM282.583 14L280.923 11.15H279.823V14H278.913V7.03H281.163C281.689 7.03 282.133 7.12 282.493 7.3C282.859 7.48 283.133 7.72333 283.313 8.03C283.493 8.33667 283.583 8.68667 283.583 9.08C283.583 9.56 283.443 9.98333 283.163 10.35C282.889 10.7167 282.476 10.96 281.923 11.08L283.673 14H282.583ZM279.823 10.42H281.163C281.656 10.42 282.026 10.3 282.273 10.06C282.519 9.81333 282.643 9.48667 282.643 9.08C282.643 8.66667 282.519 8.34667 282.273 8.12C282.033 7.89333 281.663 7.78 281.163 7.78H279.823V10.42ZM287.207 14.07C286.747 14.07 286.333 13.99 285.967 13.83C285.607 13.6633 285.323 13.4367 285.117 13.15C284.91 12.8567 284.803 12.52 284.797 12.14H285.767C285.8 12.4667 285.933 12.7433 286.167 12.97C286.407 13.19 286.753 13.3 287.207 13.3C287.64 13.3 287.98 13.1933 288.227 12.98C288.48 12.76 288.607 12.48 288.607 12.14C288.607 11.8733 288.533 11.6567 288.387 11.49C288.24 11.3233 288.057 11.1967 287.837 11.11C287.617 11.0233 287.32 10.93 286.947 10.83C286.487 10.71 286.117 10.59 285.837 10.47C285.563 10.35 285.327 10.1633 285.127 9.91C284.933 9.65 284.837 9.30333 284.837 8.87C284.837 8.49 284.933 8.15333 285.127 7.86C285.32 7.56667 285.59 7.34 285.937 7.18C286.29 7.02 286.693 6.94 287.147 6.94C287.8 6.94 288.333 7.10333 288.747 7.43C289.167 7.75667 289.403 8.19 289.457 8.73H288.457C288.423 8.46333 288.283 8.23 288.037 8.03C287.79 7.82333 287.463 7.72 287.057 7.72C286.677 7.72 286.367 7.82 286.127 8.02C285.887 8.21333 285.767 8.48667 285.767 8.84C285.767 9.09333 285.837 9.3 285.977 9.46C286.123 9.62 286.3 9.74333 286.507 9.83C286.72 9.91 287.017 10.0033 287.397 10.11C287.857 10.2367 288.227 10.3633 288.507 10.49C288.787 10.61 289.027 10.8 289.227 11.06C289.427 11.3133 289.527 11.66 289.527 12.1C289.527 12.44 289.437 12.76 289.257 13.06C289.077 13.36 288.81 13.6033 288.457 13.79C288.103 13.9767 287.687 14.07 287.207 14.07Z" fill="#5F646A"/>
<rect x="301" y="8" width="13" height="33" fill="white"/>
</svg>
