<svg width="360" height="88" viewBox="0 0 360 88" fill="none" xmlns="http://www.w3.org/2000/svg">
<path d="M46.5203 39C46.2036 38.4167 45.7453 37.975 45.1453 37.675C44.562 37.3583 43.8703 37.2 43.0703 37.2C41.687 37.2 40.5786 37.6583 39.7453 38.575C38.912 39.475 38.4953 40.6833 38.4953 42.2C38.4953 43.8167 38.9286 45.0833 39.7953 46C40.6786 46.9 41.887 47.35 43.4203 47.35C44.4703 47.35 45.3536 47.0833 46.0703 46.55C46.8036 46.0167 47.337 45.25 47.6703 44.25H42.2453V41.1H51.5453V45.075C51.2286 46.1417 50.687 47.1333 49.9203 48.05C49.1703 48.9667 48.212 49.7083 47.0453 50.275C45.8786 50.8417 44.562 51.125 43.0953 51.125C41.362 51.125 39.812 50.75 38.4453 50C37.0953 49.2333 36.037 48.175 35.2703 46.825C34.5203 45.475 34.1453 43.9333 34.1453 42.2C34.1453 40.4667 34.5203 38.925 35.2703 37.575C36.037 36.2083 37.0953 35.15 38.4453 34.4C39.7953 33.6333 41.337 33.25 43.0703 33.25C45.1703 33.25 46.937 33.7583 48.3703 34.775C49.8203 35.7917 50.7786 37.2 51.2453 39H46.5203ZM67.0633 43.8C67.0633 44.2 67.0383 44.6167 66.9883 45.05H57.3133C57.3799 45.9167 57.6549 46.5833 58.1383 47.05C58.6383 47.5 59.2466 47.725 59.9633 47.725C61.0299 47.725 61.7716 47.275 62.1883 46.375H66.7383C66.5049 47.2917 66.0799 48.1167 65.4633 48.85C64.8633 49.5833 64.1049 50.1583 63.1883 50.575C62.2716 50.9917 61.2466 51.2 60.1133 51.2C58.7466 51.2 57.5299 50.9083 56.4633 50.325C55.3966 49.7417 54.5633 48.9083 53.9633 47.825C53.3633 46.7417 53.0633 45.475 53.0633 44.025C53.0633 42.575 53.3549 41.3083 53.9383 40.225C54.5383 39.1417 55.3716 38.3083 56.4383 37.725C57.5049 37.1417 58.7299 36.85 60.1133 36.85C61.4633 36.85 62.6633 37.1333 63.7133 37.7C64.7633 38.2667 65.5799 39.075 66.1633 40.125C66.7633 41.175 67.0633 42.4 67.0633 43.8ZM62.6883 42.675C62.6883 41.9417 62.4383 41.3583 61.9383 40.925C61.4383 40.4917 60.8133 40.275 60.0633 40.275C59.3466 40.275 58.7383 40.4833 58.2383 40.9C57.7549 41.3167 57.4549 41.9083 57.3383 42.675H62.6883ZM77.0936 47.375V51H74.9186C73.3686 51 72.1602 50.625 71.2936 49.875C70.4269 49.1083 69.9936 47.8667 69.9936 46.15V40.6H68.2936V37.05H69.9936V33.65H74.2686V37.05H77.0686V40.6H74.2686V46.2C74.2686 46.6167 74.3686 46.9167 74.5686 47.1C74.7686 47.2833 75.1019 47.375 75.5686 47.375H77.0936ZM89.0477 39.375C89.5477 38.6083 90.1727 38.0083 90.9227 37.575C91.6727 37.125 92.506 36.9 93.4227 36.9V41.425H92.2477C91.181 41.425 90.381 41.6583 89.8477 42.125C89.3143 42.575 89.0477 43.375 89.0477 44.525V51H84.7727V37.05H89.0477V39.375ZM97.616 35.6C96.866 35.6 96.2493 35.3833 95.766 34.95C95.2993 34.5 95.066 33.95 95.066 33.3C95.066 32.6333 95.2993 32.0833 95.766 31.65C96.2493 31.2 96.866 30.975 97.616 30.975C98.3493 30.975 98.9493 31.2 99.416 31.65C99.8993 32.0833 100.141 32.6333 100.141 33.3C100.141 33.95 99.8993 34.5 99.416 34.95C98.9493 35.3833 98.3493 35.6 97.616 35.6ZM99.741 37.05V51H95.466V37.05H99.741ZM101.989 44C101.989 42.5667 102.256 41.3083 102.789 40.225C103.339 39.1417 104.081 38.3083 105.014 37.725C105.947 37.1417 106.989 36.85 108.139 36.85C109.056 36.85 109.889 37.0417 110.639 37.425C111.406 37.8083 112.006 38.325 112.439 38.975V32.5H116.714V51H112.439V49C112.039 49.6667 111.464 50.2 110.714 50.6C109.981 51 109.122 51.2 108.139 51.2C106.989 51.2 105.947 50.9083 105.014 50.325C104.081 49.725 103.339 48.8833 102.789 47.8C102.256 46.7 101.989 45.4333 101.989 44ZM112.439 44.025C112.439 42.9583 112.139 42.1167 111.539 41.5C110.956 40.8833 110.239 40.575 109.389 40.575C108.539 40.575 107.814 40.8833 107.214 41.5C106.631 42.1 106.339 42.9333 106.339 44C106.339 45.0667 106.631 45.9167 107.214 46.55C107.814 47.1667 108.539 47.475 109.389 47.475C110.239 47.475 110.956 47.1667 111.539 46.55C112.139 45.9333 112.439 45.0917 112.439 44.025ZM131.455 51.2C130.088 51.2 128.855 50.9083 127.755 50.325C126.671 49.7417 125.813 48.9083 125.18 47.825C124.563 46.7417 124.255 45.475 124.255 44.025C124.255 42.5917 124.571 41.3333 125.205 40.25C125.838 39.15 126.705 38.3083 127.805 37.725C128.905 37.1417 130.138 36.85 131.505 36.85C132.871 36.85 134.105 37.1417 135.205 37.725C136.305 38.3083 137.171 39.15 137.805 40.25C138.438 41.3333 138.755 42.5917 138.755 44.025C138.755 45.4583 138.43 46.725 137.78 47.825C137.146 48.9083 136.271 49.7417 135.155 50.325C134.055 50.9083 132.821 51.2 131.455 51.2ZM131.455 47.5C132.271 47.5 132.963 47.2 133.53 46.6C134.113 46 134.405 45.1417 134.405 44.025C134.405 42.9083 134.121 42.05 133.555 41.45C133.005 40.85 132.321 40.55 131.505 40.55C130.671 40.55 129.98 40.85 129.43 41.45C128.88 42.0333 128.605 42.8917 128.605 44.025C128.605 45.1417 128.871 46 129.405 46.6C129.955 47.2 130.638 47.5 131.455 47.5ZM148.023 40.6H145.723V51H141.448V40.6H139.898V37.05H141.448V36.65C141.448 34.9333 141.939 33.6333 142.923 32.75C143.906 31.85 145.348 31.4 147.248 31.4C147.564 31.4 147.798 31.4083 147.948 31.425V35.05C147.131 35 146.556 35.1167 146.223 35.4C145.889 35.6833 145.723 36.1917 145.723 36.925V37.05H148.023V40.6ZM159.604 32.5V51H155.329V32.5H159.604ZM169.052 51.2C167.686 51.2 166.452 50.9083 165.352 50.325C164.269 49.7417 163.411 48.9083 162.777 47.825C162.161 46.7417 161.852 45.475 161.852 44.025C161.852 42.5917 162.169 41.3333 162.802 40.25C163.436 39.15 164.302 38.3083 165.402 37.725C166.502 37.1417 167.736 36.85 169.102 36.85C170.469 36.85 171.702 37.1417 172.802 37.725C173.902 38.3083 174.769 39.15 175.402 40.25C176.036 41.3333 176.352 42.5917 176.352 44.025C176.352 45.4583 176.027 46.725 175.377 47.825C174.744 48.9083 173.869 49.7417 172.752 50.325C171.652 50.9083 170.419 51.2 169.052 51.2ZM169.052 47.5C169.869 47.5 170.561 47.2 171.127 46.6C171.711 46 172.002 45.1417 172.002 44.025C172.002 42.9083 171.719 42.05 171.152 41.45C170.602 40.85 169.919 40.55 169.102 40.55C168.269 40.55 167.577 40.85 167.027 41.45C166.477 42.0333 166.202 42.8917 166.202 44.025C166.202 45.1417 166.469 46 167.002 46.6C167.552 47.2 168.236 47.5 169.052 47.5ZM184.295 51.2C183.079 51.2 181.995 50.9917 181.045 50.575C180.095 50.1583 179.345 49.5917 178.795 48.875C178.245 48.1417 177.937 47.325 177.87 46.425H182.095C182.145 46.9083 182.37 47.3 182.77 47.6C183.17 47.9 183.662 48.05 184.245 48.05C184.779 48.05 185.187 47.95 185.47 47.75C185.77 47.5333 185.92 47.2583 185.92 46.925C185.92 46.525 185.712 46.2333 185.295 46.05C184.879 45.85 184.204 45.6333 183.27 45.4C182.27 45.1667 181.437 44.925 180.77 44.675C180.104 44.4083 179.529 44 179.045 43.45C178.562 42.8833 178.32 42.125 178.32 41.175C178.32 40.375 178.537 39.65 178.97 39C179.42 38.3333 180.07 37.8083 180.92 37.425C181.787 37.0417 182.812 36.85 183.995 36.85C185.745 36.85 187.12 37.2833 188.12 38.15C189.137 39.0167 189.72 40.1667 189.87 41.6H185.92C185.854 41.1167 185.637 40.7333 185.27 40.45C184.92 40.1667 184.454 40.025 183.87 40.025C183.37 40.025 182.987 40.125 182.72 40.325C182.454 40.5083 182.32 40.7667 182.32 41.1C182.32 41.5 182.529 41.8 182.945 42C183.379 42.2 184.045 42.4 184.945 42.6C185.979 42.8667 186.82 43.1333 187.47 43.4C188.12 43.65 188.687 44.0667 189.17 44.65C189.67 45.2167 189.929 45.9833 189.945 46.95C189.945 47.7667 189.712 48.5 189.245 49.15C188.795 49.7833 188.137 50.2833 187.27 50.65C186.42 51.0167 185.429 51.2 184.295 51.2ZM194.711 35.6C193.961 35.6 193.344 35.3833 192.861 34.95C192.394 34.5 192.161 33.95 192.161 33.3C192.161 32.6333 192.394 32.0833 192.861 31.65C193.344 31.2 193.961 30.975 194.711 30.975C195.444 30.975 196.044 31.2 196.511 31.65C196.994 32.0833 197.236 32.6333 197.236 33.3C197.236 33.95 196.994 34.5 196.511 34.95C196.044 35.3833 195.444 35.6 194.711 35.6ZM196.836 37.05V51H192.561V37.05H196.836ZM208.434 36.9C210.067 36.9 211.367 37.4333 212.334 38.5C213.317 39.55 213.809 41 213.809 42.85V51H209.559V43.425C209.559 42.4917 209.317 41.7667 208.834 41.25C208.35 40.7333 207.7 40.475 206.884 40.475C206.067 40.475 205.417 40.7333 204.934 41.25C204.45 41.7667 204.209 42.4917 204.209 43.425V51H199.934V37.05H204.209V38.9C204.642 38.2833 205.225 37.8 205.959 37.45C206.692 37.0833 207.517 36.9 208.434 36.9ZM222.079 36.85C223.063 36.85 223.921 37.05 224.654 37.45C225.404 37.85 225.979 38.375 226.379 39.025V37.05H230.654V50.975C230.654 52.2583 230.396 53.4167 229.879 54.45C229.379 55.5 228.604 56.3333 227.554 56.95C226.521 57.5667 225.229 57.875 223.679 57.875C221.613 57.875 219.938 57.3833 218.654 56.4C217.371 55.4333 216.638 54.1167 216.454 52.45H220.679C220.813 52.9833 221.129 53.4 221.629 53.7C222.129 54.0167 222.746 54.175 223.479 54.175C224.363 54.175 225.063 53.9167 225.579 53.4C226.113 52.9 226.379 52.0917 226.379 50.975V49C225.963 49.65 225.388 50.1833 224.654 50.6C223.921 51 223.063 51.2 222.079 51.2C220.929 51.2 219.888 50.9083 218.954 50.325C218.021 49.725 217.279 48.8833 216.729 47.8C216.196 46.7 215.929 45.4333 215.929 44C215.929 42.5667 216.196 41.3083 216.729 40.225C217.279 39.1417 218.021 38.3083 218.954 37.725C219.888 37.1417 220.929 36.85 222.079 36.85ZM226.379 44.025C226.379 42.9583 226.079 42.1167 225.479 41.5C224.896 40.8833 224.179 40.575 223.329 40.575C222.479 40.575 221.754 40.8833 221.154 41.5C220.571 42.1 220.279 42.9333 220.279 44C220.279 45.0667 220.571 45.9167 221.154 46.55C221.754 47.1667 222.479 47.475 223.329 47.475C224.179 47.475 224.896 47.1667 225.479 46.55C226.079 45.9333 226.379 45.0917 226.379 44.025ZM246.82 47.375V51H244.645C243.095 51 241.887 50.625 241.02 49.875C240.153 49.1083 239.72 47.8667 239.72 46.15V40.6H238.02V37.05H239.72V33.65H243.995V37.05H246.795V40.6H243.995V46.2C243.995 46.6167 244.095 46.9167 244.295 47.1C244.495 47.2833 244.828 47.375 245.295 47.375H246.82ZM257.776 36.9C259.376 36.9 260.66 37.4333 261.626 38.5C262.593 39.55 263.076 41 263.076 42.85V51H258.826V43.425C258.826 42.4917 258.585 41.7667 258.101 41.25C257.618 40.7333 256.968 40.475 256.151 40.475C255.335 40.475 254.685 40.7333 254.201 41.25C253.718 41.7667 253.476 42.4917 253.476 43.425V51H249.201V32.5H253.476V38.925C253.91 38.3083 254.501 37.8167 255.251 37.45C256.001 37.0833 256.843 36.9 257.776 36.9ZM268.197 35.6C267.447 35.6 266.83 35.3833 266.347 34.95C265.88 34.5 265.647 33.95 265.647 33.3C265.647 32.6333 265.88 32.0833 266.347 31.65C266.83 31.2 267.447 30.975 268.197 30.975C268.93 30.975 269.53 31.2 269.997 31.65C270.48 32.0833 270.722 32.6333 270.722 33.3C270.722 33.95 270.48 34.5 269.997 34.95C269.53 35.3833 268.93 35.6 268.197 35.6ZM270.322 37.05V51H266.047V37.05H270.322ZM281.92 36.9C283.553 36.9 284.853 37.4333 285.82 38.5C286.803 39.55 287.295 41 287.295 42.85V51H283.045V43.425C283.045 42.4917 282.803 41.7667 282.32 41.25C281.837 40.7333 281.187 40.475 280.37 40.475C279.553 40.475 278.903 40.7333 278.42 41.25C277.937 41.7667 277.695 42.4917 277.695 43.425V51H273.42V37.05H277.695V38.9C278.128 38.2833 278.712 37.8 279.445 37.45C280.178 37.0833 281.003 36.9 281.92 36.9ZM295.566 36.85C296.549 36.85 297.407 37.05 298.141 37.45C298.891 37.85 299.466 38.375 299.866 39.025V37.05H304.141V50.975C304.141 52.2583 303.882 53.4167 303.366 54.45C302.866 55.5 302.091 56.3333 301.041 56.95C300.007 57.5667 298.716 57.875 297.166 57.875C295.099 57.875 293.424 57.3833 292.141 56.4C290.857 55.4333 290.124 54.1167 289.941 52.45H294.166C294.299 52.9833 294.616 53.4 295.116 53.7C295.616 54.0167 296.232 54.175 296.966 54.175C297.849 54.175 298.549 53.9167 299.066 53.4C299.599 52.9 299.866 52.0917 299.866 50.975V49C299.449 49.65 298.874 50.1833 298.141 50.6C297.407 51 296.549 51.2 295.566 51.2C294.416 51.2 293.374 50.9083 292.441 50.325C291.507 49.725 290.766 48.8833 290.216 47.8C289.682 46.7 289.416 45.4333 289.416 44C289.416 42.5667 289.682 41.3083 290.216 40.225C290.766 39.1417 291.507 38.3083 292.441 37.725C293.374 37.1417 294.416 36.85 295.566 36.85ZM299.866 44.025C299.866 42.9583 299.566 42.1167 298.966 41.5C298.382 40.8833 297.666 40.575 296.816 40.575C295.966 40.575 295.241 40.8833 294.641 41.5C294.057 42.1 293.766 42.9333 293.766 44C293.766 45.0667 294.057 45.9167 294.641 46.55C295.241 47.1667 295.966 47.475 296.816 47.475C297.666 47.475 298.382 47.1667 298.966 46.55C299.566 45.9333 299.866 45.0917 299.866 44.025ZM312.909 51.2C311.692 51.2 310.609 50.9917 309.659 50.575C308.709 50.1583 307.959 49.5917 307.409 48.875C306.859 48.1417 306.55 47.325 306.484 46.425H310.709C310.759 46.9083 310.984 47.3 311.384 47.6C311.784 47.9 312.275 48.05 312.859 48.05C313.392 48.05 313.8 47.95 314.084 47.75C314.384 47.5333 314.534 47.2583 314.534 46.925C314.534 46.525 314.325 46.2333 313.909 46.05C313.492 45.85 312.817 45.6333 311.884 45.4C310.884 45.1667 310.05 44.925 309.384 44.675C308.717 44.4083 308.142 44 307.659 43.45C307.175 42.8833 306.934 42.125 306.934 41.175C306.934 40.375 307.15 39.65 307.584 39C308.034 38.3333 308.684 37.8083 309.534 37.425C310.4 37.0417 311.425 36.85 312.609 36.85C314.359 36.85 315.734 37.2833 316.734 38.15C317.75 39.0167 318.334 40.1667 318.484 41.6H314.534C314.467 41.1167 314.25 40.7333 313.884 40.45C313.534 40.1667 313.067 40.025 312.484 40.025C311.984 40.025 311.6 40.125 311.334 40.325C311.067 40.5083 310.934 40.7667 310.934 41.1C310.934 41.5 311.142 41.8 311.559 42C311.992 42.2 312.659 42.4 313.559 42.6C314.592 42.8667 315.434 43.1333 316.084 43.4C316.734 43.65 317.3 44.0667 317.784 44.65C318.284 45.2167 318.542 45.9833 318.559 46.95C318.559 47.7667 318.325 48.5 317.859 49.15C317.409 49.7833 316.75 50.2833 315.884 50.65C315.034 51.0167 314.042 51.2 312.909 51.2ZM323.174 51.2C322.424 51.2 321.807 50.9833 321.324 50.55C320.857 50.1 320.624 49.55 320.624 48.9C320.624 48.2333 320.857 47.675 321.324 47.225C321.807 46.775 322.424 46.55 323.174 46.55C323.907 46.55 324.507 46.775 324.974 47.225C325.457 47.675 325.699 48.2333 325.699 48.9C325.699 49.55 325.457 50.1 324.974 50.55C324.507 50.9833 323.907 51.2 323.174 51.2ZM77.4243 63.55V66.375H70.1493V70.85H75.7243V73.625H70.1493V81H66.6493V63.55H77.4243ZM81.6812 65.5C81.0645 65.5 80.5478 65.3083 80.1312 64.925C79.7312 64.525 79.5312 64.0333 79.5312 63.45C79.5312 62.8667 79.7312 62.3833 80.1312 62C80.5478 61.6 81.0645 61.4 81.6812 61.4C82.2978 61.4 82.8062 61.6 83.2062 62C83.6228 62.3833 83.8312 62.8667 83.8312 63.45C83.8312 64.0333 83.6228 64.525 83.2062 64.925C82.8062 65.3083 82.2978 65.5 81.6812 65.5ZM83.4062 67.15V81H79.9062V67.15H83.4062ZM94.5392 66.95C96.1892 66.95 97.5225 67.475 98.5392 68.525C99.5558 69.5583 100.064 71.0083 100.064 72.875V81H96.5642V73.35C96.5642 72.25 96.2892 71.4083 95.7392 70.825C95.1892 70.225 94.4392 69.925 93.4892 69.925C92.5225 69.925 91.7558 70.225 91.1892 70.825C90.6392 71.4083 90.3642 72.25 90.3642 73.35V81H86.8642V67.15H90.3642V68.875C90.8308 68.275 91.4225 67.8083 92.1392 67.475C92.8725 67.125 93.6725 66.95 94.5392 66.95ZM102.492 74.025C102.492 72.625 102.767 71.3833 103.317 70.3C103.884 69.2167 104.651 68.3833 105.617 67.8C106.584 67.2167 107.659 66.925 108.842 66.925C109.742 66.925 110.601 67.125 111.417 67.525C112.234 67.9083 112.884 68.425 113.367 69.075V62.5H116.917V81H113.367V78.95C112.934 79.6333 112.326 80.1833 111.542 80.6C110.759 81.0167 109.851 81.225 108.817 81.225C107.651 81.225 106.584 80.925 105.617 80.325C104.651 79.725 103.884 78.8833 103.317 77.8C102.767 76.7 102.492 75.4417 102.492 74.025ZM113.392 74.075C113.392 73.225 113.226 72.5 112.892 71.9C112.559 71.2833 112.109 70.8167 111.542 70.5C110.976 70.1667 110.367 70 109.717 70C109.067 70 108.467 70.1583 107.917 70.475C107.367 70.7917 106.917 71.2583 106.567 71.875C106.234 72.475 106.067 73.1917 106.067 74.025C106.067 74.8583 106.234 75.5917 106.567 76.225C106.917 76.8417 107.367 77.3167 107.917 77.65C108.484 77.9833 109.084 78.15 109.717 78.15C110.367 78.15 110.976 77.9917 111.542 77.675C112.109 77.3417 112.559 76.875 112.892 76.275C113.226 75.6583 113.392 74.925 113.392 74.075ZM131.593 81.225C130.46 81.225 129.443 81.025 128.543 80.625C127.643 80.2083 126.926 79.65 126.393 78.95C125.876 78.25 125.593 77.475 125.543 76.625H129.068C129.135 77.1583 129.393 77.6 129.843 77.95C130.31 78.3 130.885 78.475 131.568 78.475C132.235 78.475 132.751 78.3417 133.118 78.075C133.501 77.8083 133.693 77.4667 133.693 77.05C133.693 76.6 133.46 76.2667 132.993 76.05C132.543 75.8167 131.818 75.5667 130.818 75.3C129.785 75.05 128.935 74.7917 128.268 74.525C127.618 74.2583 127.051 73.85 126.568 73.3C126.101 72.75 125.868 72.0083 125.868 71.075C125.868 70.3083 126.085 69.6083 126.518 68.975C126.968 68.3417 127.601 67.8417 128.418 67.475C129.251 67.1083 130.226 66.925 131.343 66.925C132.993 66.925 134.31 67.3417 135.293 68.175C136.276 68.9917 136.818 70.1 136.918 71.5H133.568C133.518 70.95 133.285 70.5167 132.868 70.2C132.468 69.8667 131.926 69.7 131.243 69.7C130.61 69.7 130.118 69.8167 129.768 70.05C129.435 70.2833 129.268 70.6083 129.268 71.025C129.268 71.4917 129.501 71.85 129.968 72.1C130.435 72.3333 131.16 72.575 132.143 72.825C133.143 73.075 133.968 73.3333 134.618 73.6C135.268 73.8667 135.826 74.2833 136.293 74.85C136.776 75.4 137.026 76.1333 137.043 77.05C137.043 77.85 136.818 78.5667 136.368 79.2C135.935 79.8333 135.301 80.3333 134.468 80.7C133.651 81.05 132.693 81.225 131.593 81.225ZM143.991 70.025V76.725C143.991 77.1917 144.099 77.5333 144.316 77.75C144.549 77.95 144.933 78.05 145.466 78.05H147.091V81H144.891C141.941 81 140.466 79.5667 140.466 76.7V70.025H138.816V67.15H140.466V63.725H143.991V67.15H147.091V70.025H143.991ZM162.683 67.15V81H159.158V79.25C158.708 79.85 158.117 80.325 157.383 80.675C156.667 81.0083 155.883 81.175 155.033 81.175C153.95 81.175 152.992 80.95 152.158 80.5C151.325 80.0333 150.667 79.3583 150.183 78.475C149.717 77.575 149.483 76.5083 149.483 75.275V67.15H152.983V74.775C152.983 75.875 153.258 76.725 153.808 77.325C154.358 77.9083 155.108 78.2 156.058 78.2C157.025 78.2 157.783 77.9083 158.333 77.325C158.883 76.725 159.158 75.875 159.158 74.775V67.15H162.683ZM172.487 70.025H170.062V81H166.512V70.025H164.937V67.15H166.512V66.45C166.512 64.75 166.995 63.5 167.962 62.7C168.928 61.9 170.387 61.525 172.337 61.575V64.525C171.487 64.5083 170.895 64.65 170.562 64.95C170.228 65.25 170.062 65.7917 170.062 66.575V67.15H172.487V70.025ZM181.105 70.025H178.68V81H175.13V70.025H173.555V67.15H175.13V66.45C175.13 64.75 175.613 63.5 176.58 62.7C177.546 61.9 179.005 61.525 180.955 61.575V64.525C180.105 64.5083 179.513 64.65 179.18 64.95C178.846 65.25 178.68 65.7917 178.68 66.575V67.15H181.105V70.025ZM191.105 65.5C190.488 65.5 189.972 65.3083 189.555 64.925C189.155 64.525 188.955 64.0333 188.955 63.45C188.955 62.8667 189.155 62.3833 189.555 62C189.972 61.6 190.488 61.4 191.105 61.4C191.722 61.4 192.23 61.6 192.63 62C193.047 62.3833 193.255 62.8667 193.255 63.45C193.255 64.0333 193.047 64.525 192.63 64.925C192.23 65.3083 191.722 65.5 191.105 65.5ZM192.83 67.15V81H189.33V67.15H192.83ZM203.963 66.95C205.613 66.95 206.946 67.475 207.963 68.525C208.98 69.5583 209.488 71.0083 209.488 72.875V81H205.988V73.35C205.988 72.25 205.713 71.4083 205.163 70.825C204.613 70.225 203.863 69.925 202.913 69.925C201.946 69.925 201.18 70.225 200.613 70.825C200.063 71.4083 199.788 72.25 199.788 73.35V81H196.288V67.15H199.788V68.875C200.255 68.275 200.846 67.8083 201.563 67.475C202.296 67.125 203.096 66.95 203.963 66.95ZM217.873 74.025C217.873 72.625 218.148 71.3833 218.698 70.3C219.265 69.2167 220.023 68.3833 220.973 67.8C221.94 67.2167 223.015 66.925 224.198 66.925C225.232 66.925 226.132 67.1333 226.898 67.55C227.682 67.9667 228.307 68.4917 228.773 69.125V67.15H232.298V81H228.773V78.975C228.323 79.625 227.698 80.1667 226.898 80.6C226.115 81.0167 225.207 81.225 224.173 81.225C223.007 81.225 221.94 80.925 220.973 80.325C220.023 79.725 219.265 78.8833 218.698 77.8C218.148 76.7 217.873 75.4417 217.873 74.025ZM228.773 74.075C228.773 73.225 228.607 72.5 228.273 71.9C227.94 71.2833 227.49 70.8167 226.923 70.5C226.357 70.1667 225.748 70 225.098 70C224.448 70 223.848 70.1583 223.298 70.475C222.748 70.7917 222.298 71.2583 221.948 71.875C221.615 72.475 221.448 73.1917 221.448 74.025C221.448 74.8583 221.615 75.5917 221.948 76.225C222.298 76.8417 222.748 77.3167 223.298 77.65C223.865 77.9833 224.465 78.15 225.098 78.15C225.748 78.15 226.357 77.9917 226.923 77.675C227.49 77.3417 227.94 76.875 228.273 76.275C228.607 75.6583 228.773 74.925 228.773 74.075ZM243.449 65.5C242.815 65.5 242.29 65.3083 241.874 64.925C241.474 64.525 241.274 64.0333 241.274 63.45C241.274 62.8667 241.474 62.3833 241.874 62C242.29 61.6 242.815 61.4 243.449 61.4C244.065 61.4 244.574 61.6 244.974 62C245.374 62.3833 245.574 62.8667 245.574 63.45C245.574 64.0333 245.374 64.525 244.974 64.925C244.574 65.3083 244.065 65.5 243.449 65.5ZM245.174 83.275C245.174 84.8083 244.79 85.9083 244.024 86.575C243.274 87.2583 242.19 87.6 240.774 87.6H239.224V84.625H240.224C240.757 84.625 241.132 84.5167 241.349 84.3C241.565 84.1 241.674 83.7667 241.674 83.3V67.15H245.174V83.275ZM250.407 65.5C249.79 65.5 249.273 65.3083 248.857 64.925C248.457 64.525 248.257 64.0333 248.257 63.45C248.257 62.8667 248.457 62.3833 248.857 62C249.273 61.6 249.79 61.4 250.407 61.4C251.023 61.4 251.532 61.6 251.932 62C252.348 62.3833 252.557 62.8667 252.557 63.45C252.557 64.0333 252.348 64.525 251.932 64.925C251.532 65.3083 251.023 65.5 250.407 65.5ZM252.132 67.15V81H248.632V67.15H252.132ZM261.94 70.025H259.515V81H255.965V70.025H254.39V67.15H255.965V66.45C255.965 64.75 256.448 63.5 257.415 62.7C258.381 61.9 259.84 61.525 261.79 61.575V64.525C260.94 64.5083 260.348 64.65 260.015 64.95C259.681 65.25 259.515 65.7917 259.515 66.575V67.15H261.94V70.025ZM270.558 70.025H268.133V81H264.583V70.025H263.008V67.15H264.583V66.45C264.583 64.75 265.066 63.5 266.033 62.7C267 61.9 268.458 61.525 270.408 61.575V64.525C269.558 64.5083 268.966 64.65 268.633 64.95C268.3 65.25 268.133 65.7917 268.133 66.575V67.15H270.558V70.025ZM286.076 67.15L277.501 87.55H273.776L276.776 80.65L271.226 67.15H275.151L278.726 76.825L282.351 67.15H286.076ZM292.488 63.25L292.088 75.325H289.138L288.713 63.25H292.488ZM290.688 81.175C290.054 81.175 289.529 80.9833 289.113 80.6C288.713 80.2 288.513 79.7083 288.513 79.125C288.513 78.5417 288.713 78.0583 289.113 77.675C289.529 77.275 290.054 77.075 290.688 77.075C291.304 77.075 291.813 77.275 292.213 77.675C292.613 78.0583 292.813 78.5417 292.813 79.125C292.813 79.7083 292.613 80.2 292.213 80.6C291.813 80.9833 291.304 81.175 290.688 81.175Z" fill="#1E2A39"/>
<path opacity="0.6" d="M98.3388 1.848V3.032H95.2988V13H93.8428V3.032H90.7868V1.848H98.3388ZM99.587 8.584C99.587 7.688 99.7684 6.904 100.131 6.232C100.494 5.54933 100.99 5.02133 101.619 4.648C102.259 4.27467 102.968 4.088 103.747 4.088C104.515 4.088 105.182 4.25333 105.747 4.584C106.312 4.91467 106.734 5.33067 107.011 5.832V4.232H108.483V13H107.011V11.368C106.723 11.88 106.291 12.3067 105.715 12.648C105.15 12.9787 104.488 13.144 103.731 13.144C102.952 13.144 102.248 12.952 101.619 12.568C100.99 12.184 100.494 11.6453 100.131 10.952C99.7684 10.2587 99.587 9.46933 99.587 8.584ZM107.011 8.6C107.011 7.93867 106.878 7.36267 106.611 6.872C106.344 6.38133 105.982 6.008 105.523 5.752C105.075 5.48533 104.579 5.352 104.035 5.352C103.491 5.352 102.995 5.48 102.547 5.736C102.099 5.992 101.742 6.36533 101.475 6.856C101.208 7.34667 101.075 7.92267 101.075 8.584C101.075 9.256 101.208 9.84267 101.475 10.344C101.742 10.8347 102.099 11.2133 102.547 11.48C102.995 11.736 103.491 11.864 104.035 11.864C104.579 11.864 105.075 11.736 105.523 11.48C105.982 11.2133 106.344 10.8347 106.611 10.344C106.878 9.84267 107.011 9.26133 107.011 8.6ZM114.56 4.088C115.317 4.088 115.978 4.25333 116.544 4.584C117.12 4.91467 117.546 5.33067 117.824 5.832V4.232H119.296V13.192C119.296 13.992 119.125 14.7013 118.784 15.32C118.442 15.9493 117.952 16.44 117.312 16.792C116.682 17.144 115.946 17.32 115.104 17.32C113.952 17.32 112.992 17.048 112.224 16.504C111.456 15.96 111.002 15.2187 110.864 14.28H112.304C112.464 14.8133 112.794 15.24 113.296 15.56C113.797 15.8907 114.4 16.056 115.104 16.056C115.904 16.056 116.554 15.8053 117.056 15.304C117.568 14.8027 117.824 14.0987 117.824 13.192V11.352C117.536 11.864 117.109 12.2907 116.544 12.632C115.978 12.9733 115.317 13.144 114.56 13.144C113.781 13.144 113.072 12.952 112.432 12.568C111.802 12.184 111.306 11.6453 110.944 10.952C110.581 10.2587 110.4 9.46933 110.4 8.584C110.4 7.688 110.581 6.904 110.944 6.232C111.306 5.54933 111.802 5.02133 112.432 4.648C113.072 4.27467 113.781 4.088 114.56 4.088ZM117.824 8.6C117.824 7.93867 117.69 7.36267 117.424 6.872C117.157 6.38133 116.794 6.008 116.336 5.752C115.888 5.48533 115.392 5.352 114.848 5.352C114.304 5.352 113.808 5.48 113.36 5.736C112.912 5.992 112.554 6.36533 112.288 6.856C112.021 7.34667 111.888 7.92267 111.888 8.584C111.888 9.256 112.021 9.84267 112.288 10.344C112.554 10.8347 112.912 11.2133 113.36 11.48C113.808 11.736 114.304 11.864 114.848 11.864C115.392 11.864 115.888 11.736 116.336 11.48C116.794 11.2133 117.157 10.8347 117.424 10.344C117.69 9.84267 117.824 9.26133 117.824 8.6ZM126.774 2.808C126.496 2.808 126.262 2.712 126.07 2.52C125.878 2.328 125.782 2.09333 125.782 1.816C125.782 1.53867 125.878 1.304 126.07 1.112C126.262 0.919999 126.496 0.823999 126.774 0.823999C127.04 0.823999 127.264 0.919999 127.446 1.112C127.638 1.304 127.734 1.53867 127.734 1.816C127.734 2.09333 127.638 2.328 127.446 2.52C127.264 2.712 127.04 2.808 126.774 2.808ZM127.478 4.232V13H126.022V4.232H127.478ZM131.735 5.432V10.6C131.735 11.0267 131.826 11.3307 132.007 11.512C132.188 11.6827 132.503 11.768 132.951 11.768H134.023V13H132.711C131.9 13 131.292 12.8133 130.887 12.44C130.482 12.0667 130.279 11.4533 130.279 10.6V5.432H129.143V4.232H130.279V2.024H131.735V4.232H134.023V5.432H131.735ZM141.877 14.696H140.421V0.28H141.877V14.696ZM152.511 13.112C151.775 13.112 151.113 12.984 150.527 12.728C149.951 12.4613 149.497 12.0987 149.167 11.64C148.836 11.1707 148.665 10.632 148.655 10.024H150.207C150.26 10.5467 150.473 10.9893 150.847 11.352C151.231 11.704 151.785 11.88 152.511 11.88C153.204 11.88 153.748 11.7093 154.143 11.368C154.548 11.016 154.751 10.568 154.751 10.024C154.751 9.59733 154.633 9.25067 154.399 8.984C154.164 8.71733 153.871 8.51467 153.519 8.376C153.167 8.23733 152.692 8.088 152.095 7.928C151.359 7.736 150.767 7.544 150.319 7.352C149.881 7.16 149.503 6.86133 149.183 6.456C148.873 6.04 148.719 5.48533 148.719 4.792C148.719 4.184 148.873 3.64533 149.183 3.176C149.492 2.70667 149.924 2.344 150.479 2.088C151.044 1.832 151.689 1.704 152.415 1.704C153.46 1.704 154.313 1.96533 154.975 2.488C155.647 3.01067 156.025 3.704 156.111 4.568H154.511C154.457 4.14133 154.233 3.768 153.839 3.448C153.444 3.11733 152.921 2.952 152.271 2.952C151.663 2.952 151.167 3.112 150.783 3.432C150.399 3.74133 150.207 4.17867 150.207 4.744C150.207 5.14933 150.319 5.48 150.543 5.736C150.777 5.992 151.06 6.18933 151.391 6.328C151.732 6.456 152.207 6.60533 152.815 6.776C153.551 6.97867 154.143 7.18133 154.591 7.384C155.039 7.576 155.423 7.88 155.743 8.296C156.063 8.70133 156.223 9.256 156.223 9.96C156.223 10.504 156.079 11.016 155.791 11.496C155.503 11.976 155.076 12.3653 154.511 12.664C153.945 12.9627 153.279 13.112 152.511 13.112ZM160.141 5.432V10.6C160.141 11.0267 160.232 11.3307 160.413 11.512C160.595 11.6827 160.909 11.768 161.357 11.768H162.429V13H161.117C160.307 13 159.699 12.8133 159.293 12.44C158.888 12.0667 158.685 11.4533 158.685 10.6V5.432H157.549V4.232H158.685V2.024H160.141V4.232H162.429V5.432H160.141ZM164.946 2.808C164.668 2.808 164.434 2.712 164.242 2.52C164.05 2.328 163.954 2.09333 163.954 1.816C163.954 1.53867 164.05 1.304 164.242 1.112C164.434 0.919999 164.668 0.823999 164.946 0.823999C165.212 0.823999 165.436 0.919999 165.618 1.112C165.81 1.304 165.906 1.53867 165.906 1.816C165.906 2.09333 165.81 2.328 165.618 2.52C165.436 2.712 165.212 2.808 164.946 2.808ZM165.65 4.232V13H164.194V4.232H165.65ZM167.587 8.6C167.587 7.69333 167.768 6.904 168.131 6.232C168.494 5.54933 168.995 5.02133 169.635 4.648C170.286 4.27467 171.027 4.088 171.859 4.088C172.936 4.088 173.822 4.34933 174.515 4.872C175.219 5.39467 175.683 6.12 175.907 7.048H174.339C174.19 6.51467 173.896 6.09333 173.459 5.784C173.032 5.47467 172.499 5.32 171.859 5.32C171.027 5.32 170.355 5.608 169.843 6.184C169.331 6.74933 169.075 7.55467 169.075 8.6C169.075 9.656 169.331 10.472 169.843 11.048C170.355 11.624 171.027 11.912 171.859 11.912C172.499 11.912 173.032 11.7627 173.459 11.464C173.886 11.1653 174.179 10.7387 174.339 10.184H175.907C175.672 11.08 175.203 11.8 174.499 12.344C173.795 12.8773 172.915 13.144 171.859 13.144C171.027 13.144 170.286 12.9573 169.635 12.584C168.995 12.2107 168.494 11.6827 168.131 11C167.768 10.3173 167.587 9.51733 167.587 8.6ZM182.746 13L179.306 9.128V13H177.85V1.16H179.306V8.12L182.682 4.232H184.714L180.586 8.6L184.73 13H182.746ZM191.102 2.808C190.824 2.808 190.59 2.712 190.398 2.52C190.206 2.328 190.11 2.09333 190.11 1.816C190.11 1.53867 190.206 1.304 190.398 1.112C190.59 0.919999 190.824 0.823999 191.102 0.823999C191.368 0.823999 191.592 0.919999 191.774 1.112C191.966 1.304 192.062 1.53867 192.062 1.816C192.062 2.09333 191.966 2.328 191.774 2.52C191.592 2.712 191.368 2.808 191.102 2.808ZM191.806 4.232V13H190.35V4.232H191.806ZM196.063 5.432V10.6C196.063 11.0267 196.154 11.3307 196.335 11.512C196.517 11.6827 196.831 11.768 197.279 11.768H198.351V13H197.039C196.229 13 195.621 12.8133 195.215 12.44C194.81 12.0667 194.607 11.4533 194.607 10.6V5.432H193.471V4.232H194.607V2.024H196.063V4.232H198.351V5.432H196.063ZM206.205 14.696H204.749V0.28H206.205V14.696ZM220.759 5.112C220.759 6.04 220.439 6.81333 219.799 7.432C219.17 8.04 218.204 8.344 216.903 8.344H214.759V13H213.303V1.848H216.903C218.162 1.848 219.116 2.152 219.767 2.76C220.428 3.368 220.759 4.152 220.759 5.112ZM216.903 7.144C217.714 7.144 218.311 6.968 218.695 6.616C219.079 6.264 219.271 5.76267 219.271 5.112C219.271 3.736 218.482 3.048 216.903 3.048H214.759V7.144H216.903ZM224.025 1.16V13H222.569V1.16H224.025ZM225.962 8.584C225.962 7.688 226.143 6.904 226.506 6.232C226.869 5.54933 227.365 5.02133 227.994 4.648C228.634 4.27467 229.343 4.088 230.122 4.088C230.89 4.088 231.557 4.25333 232.122 4.584C232.687 4.91467 233.109 5.33067 233.386 5.832V4.232H234.858V13H233.386V11.368C233.098 11.88 232.666 12.3067 232.09 12.648C231.525 12.9787 230.863 13.144 230.106 13.144C229.327 13.144 228.623 12.952 227.994 12.568C227.365 12.184 226.869 11.6453 226.506 10.952C226.143 10.2587 225.962 9.46933 225.962 8.584ZM233.386 8.6C233.386 7.93867 233.253 7.36267 232.986 6.872C232.719 6.38133 232.357 6.008 231.898 5.752C231.45 5.48533 230.954 5.352 230.41 5.352C229.866 5.352 229.37 5.48 228.922 5.736C228.474 5.992 228.117 6.36533 227.85 6.856C227.583 7.34667 227.45 7.92267 227.45 8.584C227.45 9.256 227.583 9.84267 227.85 10.344C228.117 10.8347 228.474 11.2133 228.922 11.48C229.37 11.736 229.866 11.864 230.41 11.864C230.954 11.864 231.45 11.736 231.898 11.48C232.357 11.2133 232.719 10.8347 232.986 10.344C233.253 9.84267 233.386 9.26133 233.386 8.6ZM236.775 8.6C236.775 7.69333 236.956 6.904 237.319 6.232C237.681 5.54933 238.183 5.02133 238.823 4.648C239.473 4.27467 240.215 4.088 241.047 4.088C242.124 4.088 243.009 4.34933 243.703 4.872C244.407 5.39467 244.871 6.12 245.095 7.048H243.527C243.377 6.51467 243.084 6.09333 242.647 5.784C242.22 5.47467 241.687 5.32 241.047 5.32C240.215 5.32 239.543 5.608 239.031 6.184C238.519 6.74933 238.263 7.55467 238.263 8.6C238.263 9.656 238.519 10.472 239.031 11.048C239.543 11.624 240.215 11.912 241.047 11.912C241.687 11.912 242.22 11.7627 242.647 11.464C243.073 11.1653 243.367 10.7387 243.527 10.184H245.095C244.86 11.08 244.391 11.8 243.687 12.344C242.983 12.8773 242.103 13.144 241.047 13.144C240.215 13.144 239.473 12.9573 238.823 12.584C238.183 12.2107 237.681 11.6827 237.319 11C236.956 10.3173 236.775 9.51733 236.775 8.6ZM255.037 8.28C255.037 8.55733 255.021 8.85067 254.989 9.16H247.981C248.035 10.024 248.328 10.7013 248.861 11.192C249.405 11.672 250.061 11.912 250.829 11.912C251.459 11.912 251.981 11.768 252.397 11.48C252.824 11.1813 253.123 10.7867 253.293 10.296H254.861C254.627 11.1387 254.157 11.8267 253.453 12.36C252.749 12.8827 251.875 13.144 250.829 13.144C249.997 13.144 249.251 12.9573 248.589 12.584C247.939 12.2107 247.427 11.6827 247.053 11C246.68 10.3067 246.493 9.50667 246.493 8.6C246.493 7.69333 246.675 6.89867 247.037 6.216C247.4 5.53333 247.907 5.01067 248.557 4.648C249.219 4.27467 249.976 4.088 250.829 4.088C251.661 4.088 252.397 4.26933 253.037 4.632C253.677 4.99467 254.168 5.496 254.509 6.136C254.861 6.76533 255.037 7.48 255.037 8.28ZM253.533 7.976C253.533 7.42133 253.411 6.94667 253.165 6.552C252.92 6.14667 252.584 5.84267 252.157 5.64C251.741 5.42667 251.277 5.32 250.765 5.32C250.029 5.32 249.4 5.55467 248.877 6.024C248.365 6.49333 248.072 7.144 247.997 7.976H253.533ZM261.977 2.808C261.699 2.808 261.465 2.712 261.273 2.52C261.081 2.328 260.985 2.09333 260.985 1.816C260.985 1.53867 261.081 1.304 261.273 1.112C261.465 0.919999 261.699 0.823999 261.977 0.823999C262.243 0.823999 262.467 0.919999 262.649 1.112C262.841 1.304 262.937 1.53867 262.937 1.816C262.937 2.09333 262.841 2.328 262.649 2.52C262.467 2.712 262.243 2.808 261.977 2.808ZM262.681 4.232V13H261.225V4.232H262.681ZM266.938 5.432V10.6C266.938 11.0267 267.029 11.3307 267.21 11.512C267.392 11.6827 267.706 11.768 268.154 11.768H269.226V13H267.914C267.104 13 266.496 12.8133 266.09 12.44C265.685 12.0667 265.482 11.4533 265.482 10.6V5.432H264.346V4.232H265.482V2.024H266.938V4.232H269.226V5.432H266.938Z" fill="black"/>
</svg>
