<svg width="128" height="32" viewBox="0 0 128 32" fill="none" xmlns="http://www.w3.org/2000/svg">
<rect width="128" height="32" rx="16" fill="#FE0000"/>
<path d="M33.172 21.098C32.528 21.098 31.9493 20.986 31.436 20.762C30.932 20.5287 30.5353 20.2113 30.246 19.81C29.9567 19.3993 29.8073 18.928 29.798 18.396H31.156C31.2027 18.8533 31.3893 19.2407 31.716 19.558C32.052 19.866 32.5373 20.02 33.172 20.02C33.7787 20.02 34.2547 19.8707 34.6 19.572C34.9547 19.264 35.132 18.872 35.132 18.396C35.132 18.0227 35.0293 17.7193 34.824 17.486C34.6187 17.2527 34.362 17.0753 34.054 16.954C33.746 16.8327 33.3307 16.702 32.808 16.562C32.164 16.394 31.646 16.226 31.254 16.058C30.8713 15.89 30.54 15.6287 30.26 15.274C29.9893 14.91 29.854 14.4247 29.854 13.818C29.854 13.286 29.9893 12.8147 30.26 12.404C30.5307 11.9933 30.9087 11.676 31.394 11.452C31.8887 11.228 32.4533 11.116 33.088 11.116C34.0027 11.116 34.7493 11.3447 35.328 11.802C35.916 12.2593 36.2473 12.866 36.322 13.622H34.922C34.8753 13.2487 34.6793 12.922 34.334 12.642C33.9887 12.3527 33.5313 12.208 32.962 12.208C32.43 12.208 31.996 12.348 31.66 12.628C31.324 12.8987 31.156 13.2813 31.156 13.776C31.156 14.1307 31.254 14.42 31.45 14.644C31.6553 14.868 31.9027 15.0407 32.192 15.162C32.4907 15.274 32.906 15.4047 33.438 15.554C34.082 15.7313 34.6 15.9087 34.992 16.086C35.384 16.254 35.72 16.52 36 16.884C36.28 17.2387 36.42 17.724 36.42 18.34C36.42 18.816 36.294 19.264 36.042 19.684C35.79 20.104 35.4167 20.4447 34.922 20.706C34.4273 20.9673 33.844 21.098 33.172 21.098ZM42.1028 13.188C42.6815 13.188 43.2041 13.314 43.6708 13.566C44.1375 13.8087 44.5015 14.1773 44.7628 14.672C45.0335 15.1667 45.1688 15.7687 45.1688 16.478V21H43.9088V16.66C43.9088 15.8947 43.7175 15.3113 43.3348 14.91C42.9521 14.4993 42.4295 14.294 41.7668 14.294C41.0948 14.294 40.5581 14.504 40.1568 14.924C39.7648 15.344 39.5688 15.9553 39.5688 16.758V21H38.2948V10.64H39.5688V14.42C39.8208 14.028 40.1661 13.7247 40.6048 13.51C41.0528 13.2953 41.5521 13.188 42.1028 13.188ZM50.5959 21.126C49.8772 21.126 49.2239 20.9627 48.6359 20.636C48.0572 20.3093 47.5999 19.8473 47.2639 19.25C46.9372 18.6433 46.7739 17.9433 46.7739 17.15C46.7739 16.366 46.9419 15.6753 47.2779 15.078C47.6232 14.4713 48.0899 14.0093 48.6779 13.692C49.2659 13.3653 49.9239 13.202 50.6519 13.202C51.3799 13.202 52.0379 13.3653 52.6259 13.692C53.2139 14.0093 53.6759 14.4667 54.0119 15.064C54.3572 15.6613 54.5299 16.3567 54.5299 17.15C54.5299 17.9433 54.3525 18.6433 53.9979 19.25C53.6525 19.8473 53.1812 20.3093 52.5839 20.636C51.9865 20.9627 51.3239 21.126 50.5959 21.126ZM50.5959 20.006C51.0532 20.006 51.4825 19.8987 51.8839 19.684C52.2852 19.4693 52.6072 19.1473 52.8499 18.718C53.1019 18.2887 53.2279 17.766 53.2279 17.15C53.2279 16.534 53.1065 16.0113 52.8639 15.582C52.6212 15.1527 52.3039 14.8353 51.9119 14.63C51.5199 14.4153 51.0952 14.308 50.6379 14.308C50.1712 14.308 49.7419 14.4153 49.3499 14.63C48.9672 14.8353 48.6592 15.1527 48.4259 15.582C48.1925 16.0113 48.0759 16.534 48.0759 17.15C48.0759 17.7753 48.1879 18.3027 48.4119 18.732C48.6452 19.1613 48.9532 19.4833 49.3359 19.698C49.7185 19.9033 50.1385 20.006 50.5959 20.006ZM57.479 14.742C57.731 14.3033 58.1043 13.9393 58.599 13.65C59.103 13.3513 59.6863 13.202 60.349 13.202C61.0303 13.202 61.6463 13.3653 62.197 13.692C62.757 14.0187 63.1956 14.4807 63.513 15.078C63.8303 15.666 63.989 16.352 63.989 17.136C63.989 17.9107 63.8303 18.6013 63.513 19.208C63.1956 19.8147 62.757 20.286 62.197 20.622C61.6463 20.958 61.0303 21.126 60.349 21.126C59.6956 21.126 59.117 20.9813 58.613 20.692C58.1183 20.3933 57.7403 20.0247 57.479 19.586V24.64H56.205V13.328H57.479V14.742ZM62.687 17.136C62.687 16.5573 62.5703 16.0533 62.337 15.624C62.1036 15.1947 61.7863 14.868 61.385 14.644C60.993 14.42 60.559 14.308 60.083 14.308C59.6163 14.308 59.1823 14.4247 58.781 14.658C58.389 14.882 58.0716 15.2133 57.829 15.652C57.5956 16.0813 57.479 16.5807 57.479 17.15C57.479 17.7287 57.5956 18.2373 57.829 18.676C58.0716 19.1053 58.389 19.4367 58.781 19.67C59.1823 19.894 59.6163 20.006 60.083 20.006C60.559 20.006 60.993 19.894 61.385 19.67C61.7863 19.4367 62.1036 19.1053 62.337 18.676C62.5703 18.2373 62.687 17.724 62.687 17.136ZM77.0703 21H75.7963L70.6723 13.23V21H69.3983V11.228H70.6723L75.7963 18.984V11.228H77.0703V21ZM82.5881 21.126C81.8694 21.126 81.2161 20.9627 80.6281 20.636C80.0494 20.3093 79.5921 19.8473 79.2561 19.25C78.9294 18.6433 78.7661 17.9433 78.7661 17.15C78.7661 16.366 78.9341 15.6753 79.2701 15.078C79.6154 14.4713 80.0821 14.0093 80.6701 13.692C81.2581 13.3653 81.9161 13.202 82.6441 13.202C83.3721 13.202 84.0301 13.3653 84.6181 13.692C85.2061 14.0093 85.6681 14.4667 86.0041 15.064C86.3494 15.6613 86.5221 16.3567 86.5221 17.15C86.5221 17.9433 86.3447 18.6433 85.9901 19.25C85.6447 19.8473 85.1734 20.3093 84.5761 20.636C83.9787 20.9627 83.3161 21.126 82.5881 21.126ZM82.5881 20.006C83.0454 20.006 83.4747 19.8987 83.8761 19.684C84.2774 19.4693 84.5994 19.1473 84.8421 18.718C85.0941 18.2887 85.2201 17.766 85.2201 17.15C85.2201 16.534 85.0987 16.0113 84.8561 15.582C84.6134 15.1527 84.2961 14.8353 83.9041 14.63C83.5121 14.4153 83.0874 14.308 82.6301 14.308C82.1634 14.308 81.7341 14.4153 81.3421 14.63C80.9594 14.8353 80.6514 15.1527 80.4181 15.582C80.1847 16.0113 80.0681 16.534 80.0681 17.15C80.0681 17.7753 80.1801 18.3027 80.4041 18.732C80.6374 19.1613 80.9454 19.4833 81.3281 19.698C81.7107 19.9033 82.1307 20.006 82.5881 20.006ZM98.4171 13.328L96.0231 21H94.7071L92.8591 14.91L91.0111 21H89.6951L87.2871 13.328H88.5891L90.3531 19.768L92.2571 13.328H93.5591L95.4211 19.782L97.1571 13.328H98.4171Z" fill="white"/>
</svg>
