<svg width="294" height="85" viewBox="0 0 294 85" fill="none" xmlns="http://www.w3.org/2000/svg">
<path d="M23.2681 50.175C22.0514 50.175 20.9514 49.9667 19.9681 49.55C19.0014 49.1333 18.2347 48.5333 17.6681 47.75C17.1014 46.9667 16.8097 46.0417 16.7931 44.975H20.5431C20.5931 45.6917 20.8431 46.2583 21.2931 46.675C21.7597 47.0917 22.3931 47.3 23.1931 47.3C24.0097 47.3 24.6514 47.1083 25.1181 46.725C25.5847 46.325 25.8181 45.8083 25.8181 45.175C25.8181 44.6583 25.6597 44.2333 25.3431 43.9C25.0264 43.5667 24.6264 43.3083 24.1431 43.125C23.6764 42.925 23.0264 42.7083 22.1931 42.475C21.0597 42.1417 20.1347 41.8167 19.4181 41.5C18.7181 41.1667 18.1097 40.675 17.5931 40.025C17.0931 39.3583 16.8431 38.475 16.8431 37.375C16.8431 36.3417 17.1014 35.4417 17.6181 34.675C18.1347 33.9083 18.8597 33.325 19.7931 32.925C20.7264 32.5083 21.7931 32.3 22.9931 32.3C24.7931 32.3 26.2514 32.7417 27.3681 33.625C28.5014 34.4917 29.1264 35.7083 29.2431 37.275H25.3931C25.3597 36.675 25.1014 36.1833 24.6181 35.8C24.1514 35.4 23.5264 35.2 22.7431 35.2C22.0597 35.2 21.5097 35.375 21.0931 35.725C20.6931 36.075 20.4931 36.5833 20.4931 37.25C20.4931 37.7167 20.6431 38.1083 20.9431 38.425C21.2597 38.725 21.6431 38.975 22.0931 39.175C22.5597 39.3583 23.2097 39.575 24.0431 39.825C25.1764 40.1583 26.1014 40.4917 26.8181 40.825C27.5347 41.1583 28.1514 41.6583 28.6681 42.325C29.1847 42.9917 29.4431 43.8667 29.4431 44.95C29.4431 45.8833 29.2014 46.75 28.7181 47.55C28.2347 48.35 27.5264 48.9917 26.5931 49.475C25.6597 49.9417 24.5514 50.175 23.2681 50.175ZM31.5774 43.025C31.5774 41.625 31.8524 40.3833 32.4024 39.3C32.9691 38.2167 33.7274 37.3833 34.6774 36.8C35.6441 36.2167 36.7191 35.925 37.9024 35.925C38.9358 35.925 39.8358 36.1333 40.6024 36.55C41.3858 36.9667 42.0108 37.4917 42.4774 38.125V36.15H46.0024V50H42.4774V47.975C42.0274 48.625 41.4024 49.1667 40.6024 49.6C39.8191 50.0167 38.9108 50.225 37.8774 50.225C36.7108 50.225 35.6441 49.925 34.6774 49.325C33.7274 48.725 32.9691 47.8833 32.4024 46.8C31.8524 45.7 31.5774 44.4417 31.5774 43.025ZM42.4774 43.075C42.4774 42.225 42.3108 41.5 41.9774 40.9C41.6441 40.2833 41.1941 39.8167 40.6274 39.5C40.0608 39.1667 39.4524 39 38.8024 39C38.1524 39 37.5524 39.1583 37.0024 39.475C36.4524 39.7917 36.0024 40.2583 35.6524 40.875C35.3191 41.475 35.1524 42.1917 35.1524 43.025C35.1524 43.8583 35.3191 44.5917 35.6524 45.225C36.0024 45.8417 36.4524 46.3167 37.0024 46.65C37.5691 46.9833 38.1691 47.15 38.8024 47.15C39.4524 47.15 40.0608 46.9917 40.6274 46.675C41.1941 46.3417 41.6441 45.875 41.9774 45.275C42.3108 44.6583 42.4774 43.925 42.4774 43.075ZM55.1958 46.775L58.6958 36.15H62.4208L57.2958 50H53.0458L47.9458 36.15H51.6958L55.1958 46.775ZM77.2616 42.775C77.2616 43.275 77.2283 43.725 77.1616 44.125H67.0366C67.12 45.125 67.47 45.9083 68.0866 46.475C68.7033 47.0417 69.4616 47.325 70.3616 47.325C71.6616 47.325 72.5866 46.7667 73.1366 45.65H76.9116C76.5116 46.9833 75.745 48.0833 74.6116 48.95C73.4783 49.8 72.0866 50.225 70.4366 50.225C69.1033 50.225 67.9033 49.9333 66.8366 49.35C65.7866 48.75 64.9616 47.9083 64.3616 46.825C63.7783 45.7417 63.4866 44.4917 63.4866 43.075C63.4866 41.6417 63.7783 40.3833 64.3616 39.3C64.945 38.2167 65.7616 37.3833 66.8116 36.8C67.8616 36.2167 69.07 35.925 70.4366 35.925C71.7533 35.925 72.9283 36.2083 73.9616 36.775C75.0116 37.3417 75.82 38.15 76.3866 39.2C76.97 40.2333 77.2616 41.425 77.2616 42.775ZM73.6366 41.775C73.62 40.875 73.295 40.1583 72.6616 39.625C72.0283 39.075 71.2533 38.8 70.3366 38.8C69.47 38.8 68.7366 39.0667 68.1366 39.6C67.5533 40.1167 67.195 40.8417 67.0616 41.775H73.6366ZM98.8483 36.15V50H95.3233V48.25C94.8733 48.85 94.2817 49.325 93.5483 49.675C92.8317 50.0083 92.0483 50.175 91.1983 50.175C90.115 50.175 89.1567 49.95 88.3233 49.5C87.49 49.0333 86.8317 48.3583 86.3483 47.475C85.8817 46.575 85.6483 45.5083 85.6483 44.275V36.15H89.1483V43.775C89.1483 44.875 89.4233 45.725 89.9733 46.325C90.5233 46.9083 91.2733 47.2 92.2233 47.2C93.19 47.2 93.9483 46.9083 94.4983 46.325C95.0483 45.725 95.3233 44.875 95.3233 43.775V36.15H98.8483ZM105.802 38.15C106.252 37.5167 106.868 36.9917 107.652 36.575C108.452 36.1417 109.36 35.925 110.377 35.925C111.56 35.925 112.627 36.2167 113.577 36.8C114.543 37.3833 115.302 38.2167 115.852 39.3C116.418 40.3667 116.702 41.6083 116.702 43.025C116.702 44.4417 116.418 45.7 115.852 46.8C115.302 47.8833 114.543 48.725 113.577 49.325C112.627 49.925 111.56 50.225 110.377 50.225C109.36 50.225 108.46 50.0167 107.677 49.6C106.91 49.1833 106.285 48.6583 105.802 48.025V56.6H102.302V36.15H105.802V38.15ZM113.127 43.025C113.127 42.1917 112.952 41.475 112.602 40.875C112.268 40.2583 111.818 39.7917 111.252 39.475C110.702 39.1583 110.102 39 109.452 39C108.818 39 108.218 39.1667 107.652 39.5C107.102 39.8167 106.652 40.2833 106.302 40.9C105.968 41.5167 105.802 42.2417 105.802 43.075C105.802 43.9083 105.968 44.6333 106.302 45.25C106.652 45.8667 107.102 46.3417 107.652 46.675C108.218 46.9917 108.818 47.15 109.452 47.15C110.102 47.15 110.702 46.9833 111.252 46.65C111.818 46.3167 112.268 45.8417 112.602 45.225C112.952 44.6083 113.127 43.875 113.127 43.025ZM129.277 39.025V45.725C129.277 46.1917 129.385 46.5333 129.602 46.75C129.835 46.95 130.219 47.05 130.752 47.05H132.377V50H130.177C127.227 50 125.752 48.5667 125.752 45.7V39.025H124.102V36.15H125.752V32.725H129.277V36.15H132.377V39.025H129.277ZM141.044 50.225C139.711 50.225 138.511 49.9333 137.444 49.35C136.378 48.75 135.536 47.9083 134.919 46.825C134.319 45.7417 134.019 44.4917 134.019 43.075C134.019 41.6583 134.328 40.4083 134.944 39.325C135.578 38.2417 136.436 37.4083 137.519 36.825C138.603 36.225 139.811 35.925 141.144 35.925C142.478 35.925 143.686 36.225 144.769 36.825C145.853 37.4083 146.703 38.2417 147.319 39.325C147.953 40.4083 148.269 41.6583 148.269 43.075C148.269 44.4917 147.944 45.7417 147.294 46.825C146.661 47.9083 145.794 48.75 144.694 49.35C143.611 49.9333 142.394 50.225 141.044 50.225ZM141.044 47.175C141.678 47.175 142.269 47.025 142.819 46.725C143.386 46.4083 143.836 45.9417 144.169 45.325C144.503 44.7083 144.669 43.9583 144.669 43.075C144.669 41.7583 144.319 40.75 143.619 40.05C142.936 39.3333 142.094 38.975 141.094 38.975C140.094 38.975 139.253 39.3333 138.569 40.05C137.903 40.75 137.569 41.7583 137.569 43.075C137.569 44.3917 137.894 45.4083 138.544 46.125C139.211 46.825 140.044 47.175 141.044 47.175ZM168.644 34.8H160.544V39.075C160.894 38.6417 161.394 38.2917 162.044 38.025C162.694 37.7417 163.386 37.6 164.119 37.6C165.452 37.6 166.544 37.8917 167.394 38.475C168.244 39.0583 168.861 39.8083 169.244 40.725C169.627 41.625 169.819 42.5917 169.819 43.625C169.819 45.5417 169.269 47.0833 168.169 48.25C167.086 49.4167 165.536 50 163.519 50C161.619 50 160.102 49.525 158.969 48.575C157.836 47.625 157.194 46.3833 157.044 44.85H160.444C160.594 45.5167 160.927 46.05 161.444 46.45C161.977 46.85 162.652 47.05 163.469 47.05C164.452 47.05 165.194 46.7417 165.694 46.125C166.194 45.5083 166.444 44.6917 166.444 43.675C166.444 42.6417 166.186 41.8583 165.669 41.325C165.169 40.775 164.427 40.5 163.444 40.5C162.744 40.5 162.161 40.675 161.694 41.025C161.227 41.375 160.894 41.8417 160.694 42.425H157.344V31.725H168.644V34.8ZM172.483 40.65C172.483 37.7667 172.999 35.5083 174.033 33.875C175.083 32.2417 176.816 31.425 179.233 31.425C181.649 31.425 183.374 32.2417 184.408 33.875C185.458 35.5083 185.983 37.7667 185.983 40.65C185.983 43.55 185.458 45.825 184.408 47.475C183.374 49.125 181.649 49.95 179.233 49.95C176.816 49.95 175.083 49.125 174.033 47.475C172.999 45.825 172.483 43.55 172.483 40.65ZM182.533 40.65C182.533 39.4167 182.449 38.3833 182.283 37.55C182.133 36.7 181.816 36.0083 181.333 35.475C180.866 34.9417 180.166 34.675 179.233 34.675C178.299 34.675 177.591 34.9417 177.108 35.475C176.641 36.0083 176.324 36.7 176.158 37.55C176.008 38.3833 175.933 39.4167 175.933 40.65C175.933 41.9167 176.008 42.9833 176.158 43.85C176.308 44.7 176.624 45.3917 177.108 45.925C177.591 46.4417 178.299 46.7 179.233 46.7C180.166 46.7 180.874 46.4417 181.358 45.925C181.841 45.3917 182.158 44.7 182.308 43.85C182.458 42.9833 182.533 41.9167 182.533 40.65ZM188.245 36.25C188.245 34.9833 188.611 33.9917 189.345 33.275C190.095 32.5583 191.053 32.2 192.22 32.2C193.386 32.2 194.336 32.5583 195.07 33.275C195.82 33.9917 196.195 34.9833 196.195 36.25C196.195 37.5333 195.82 38.5333 195.07 39.25C194.336 39.9667 193.386 40.325 192.22 40.325C191.053 40.325 190.095 39.9667 189.345 39.25C188.611 38.5333 188.245 37.5333 188.245 36.25ZM204.295 32.5L194.47 50H191.07L200.87 32.5H204.295ZM192.195 34.3C191.278 34.3 190.82 34.95 190.82 36.25C190.82 37.5667 191.278 38.225 192.195 38.225C192.645 38.225 192.995 38.0667 193.245 37.75C193.495 37.4167 193.62 36.9167 193.62 36.25C193.62 34.95 193.145 34.3 192.195 34.3ZM199.22 46.225C199.22 44.9417 199.586 43.95 200.32 43.25C201.07 42.5333 202.028 42.175 203.195 42.175C204.361 42.175 205.303 42.5333 206.02 43.25C206.753 43.95 207.12 44.9417 207.12 46.225C207.12 47.5083 206.753 48.5083 206.02 49.225C205.303 49.9417 204.361 50.3 203.195 50.3C202.011 50.3 201.053 49.9417 200.32 49.225C199.586 48.5083 199.22 47.5083 199.22 46.225ZM203.17 44.275C202.22 44.275 201.745 44.925 201.745 46.225C201.745 47.5417 202.22 48.2 203.17 48.2C204.103 48.2 204.57 47.5417 204.57 46.225C204.57 44.925 204.103 44.275 203.17 44.275ZM228.804 42.625H224.079V47.475H220.779V42.625H216.054V39.575H220.779V34.725H224.079V39.575H228.804V42.625ZM244.232 36C245.299 36 246.24 36.2167 247.057 36.65C247.89 37.0667 248.54 37.5917 249.007 38.225V36.225H251.882V50.225C251.882 51.4917 251.615 52.6167 251.082 53.6C250.549 54.6 249.774 55.3833 248.757 55.95C247.757 56.5167 246.557 56.8 245.157 56.8C243.29 56.8 241.74 56.3583 240.507 55.475C239.274 54.6083 238.574 53.425 238.407 51.925H241.232C241.449 52.6417 241.907 53.2167 242.607 53.65C243.324 54.1 244.174 54.325 245.157 54.325C246.307 54.325 247.232 53.975 247.932 53.275C248.649 52.575 249.007 51.5583 249.007 50.225V47.925C248.524 48.575 247.865 49.125 247.032 49.575C246.215 50.0083 245.282 50.225 244.232 50.225C243.032 50.225 241.932 49.925 240.932 49.325C239.949 48.7083 239.165 47.8583 238.582 46.775C238.015 45.675 237.732 44.4333 237.732 43.05C237.732 41.6667 238.015 40.4417 238.582 39.375C239.165 38.3083 239.949 37.4833 240.932 36.9C241.932 36.3 243.032 36 244.232 36ZM249.007 43.1C249.007 42.15 248.807 41.325 248.407 40.625C248.024 39.925 247.515 39.3917 246.882 39.025C246.249 38.6583 245.565 38.475 244.832 38.475C244.099 38.475 243.415 38.6583 242.782 39.025C242.149 39.375 241.632 39.9 241.232 40.6C240.849 41.2833 240.657 42.1 240.657 43.05C240.657 44 240.849 44.8333 241.232 45.55C241.632 46.2667 242.149 46.8167 242.782 47.2C243.432 47.5667 244.115 47.75 244.832 47.75C245.565 47.75 246.249 47.5667 246.882 47.2C247.515 46.8333 248.024 46.3 248.407 45.6C248.807 44.8833 249.007 44.05 249.007 43.1ZM268.25 42.775C268.25 43.2917 268.217 43.7583 268.15 44.175H257.625C257.709 45.275 258.117 46.1583 258.85 46.825C259.584 47.4917 260.484 47.825 261.55 47.825C263.084 47.825 264.167 47.1833 264.8 45.9H267.875C267.459 47.1667 266.7 48.2083 265.6 49.025C264.517 49.825 263.167 50.225 261.55 50.225C260.234 50.225 259.05 49.9333 258 49.35C256.967 48.75 256.15 47.9167 255.55 46.85C254.967 45.7667 254.675 44.5167 254.675 43.1C254.675 41.6833 254.959 40.4417 255.525 39.375C256.109 38.2917 256.917 37.4583 257.95 36.875C259 36.2917 260.2 36 261.55 36C262.85 36 264.009 36.2833 265.025 36.85C266.042 37.4167 266.834 38.2167 267.4 39.25C267.967 40.2667 268.25 41.4417 268.25 42.775ZM265.275 41.875C265.259 40.825 264.884 39.9833 264.15 39.35C263.417 38.7167 262.509 38.4 261.425 38.4C260.442 38.4 259.6 38.7167 258.9 39.35C258.2 39.9667 257.784 40.8083 257.65 41.875H265.275ZM274.38 38.55V46.175C274.38 46.6917 274.497 47.0667 274.73 47.3C274.98 47.5167 275.397 47.625 275.98 47.625H277.73V50H275.48C274.197 50 273.214 49.7 272.53 49.1C271.847 48.5 271.505 47.525 271.505 46.175V38.55H269.88V36.225H271.505V32.8H274.38V36.225H277.73V38.55H274.38ZM52.0377 68.55H49.4877V80H46.6127V68.55H44.9877V66.225H46.6127V65.25C46.6127 63.6667 47.0294 62.5167 47.8627 61.8C48.7127 61.0667 50.0377 60.7 51.8377 60.7V63.075C50.971 63.075 50.3627 63.2417 50.0127 63.575C49.6627 63.8917 49.4877 64.45 49.4877 65.25V66.225H52.0377V68.55ZM57.4135 68.225C57.8301 67.525 58.3801 66.9833 59.0635 66.6C59.7635 66.2 60.5885 66 61.5385 66V68.95H60.8135C59.6968 68.95 58.8468 69.2333 58.2635 69.8C57.6968 70.3667 57.4135 71.35 57.4135 72.75V80H54.5635V66.225H57.4135V68.225ZM76.7832 72.775C76.7832 73.2917 76.7499 73.7583 76.6832 74.175H66.1582C66.2415 75.275 66.6499 76.1583 67.3832 76.825C68.1165 77.4917 69.0165 77.825 70.0832 77.825C71.6165 77.825 72.6999 77.1833 73.3332 75.9H76.4082C75.9915 77.1667 75.2332 78.2083 74.1332 79.025C73.0499 79.825 71.6999 80.225 70.0832 80.225C68.7665 80.225 67.5832 79.9333 66.5332 79.35C65.4999 78.75 64.6832 77.9167 64.0832 76.85C63.4999 75.7667 63.2082 74.5167 63.2082 73.1C63.2082 71.6833 63.4915 70.4417 64.0582 69.375C64.6415 68.2917 65.4499 67.4583 66.4832 66.875C67.5332 66.2917 68.7332 66 70.0832 66C71.3832 66 72.5415 66.2833 73.5582 66.85C74.5749 67.4167 75.3665 68.2167 75.9332 69.25C76.4999 70.2667 76.7832 71.4417 76.7832 72.775ZM73.8082 71.875C73.7915 70.825 73.4165 69.9833 72.6832 69.35C71.9499 68.7167 71.0415 68.4 69.9582 68.4C68.9749 68.4 68.1332 68.7167 67.4332 69.35C66.7332 69.9667 66.3165 70.8083 66.1832 71.875H73.8082ZM92.2129 72.775C92.2129 73.2917 92.1796 73.7583 92.1129 74.175H81.5879C81.6712 75.275 82.0796 76.1583 82.8129 76.825C83.5462 77.4917 84.4462 77.825 85.5129 77.825C87.0462 77.825 88.1296 77.1833 88.7629 75.9H91.8379C91.4212 77.1667 90.6629 78.2083 89.5629 79.025C88.4796 79.825 87.1296 80.225 85.5129 80.225C84.1962 80.225 83.0129 79.9333 81.9629 79.35C80.9296 78.75 80.1129 77.9167 79.5129 76.85C78.9296 75.7667 78.6379 74.5167 78.6379 73.1C78.6379 71.6833 78.9212 70.4417 79.4879 69.375C80.0712 68.2917 80.8796 67.4583 81.9129 66.875C82.9629 66.2917 84.1629 66 85.5129 66C86.8129 66 87.9712 66.2833 88.9879 66.85C90.0046 67.4167 90.7962 68.2167 91.3629 69.25C91.9296 70.2667 92.2129 71.4417 92.2129 72.775ZM89.2379 71.875C89.2212 70.825 88.8462 69.9833 88.1129 69.35C87.3796 68.7167 86.4712 68.4 85.3879 68.4C84.4046 68.4 83.5629 68.7167 82.8629 69.35C82.1629 69.9667 81.7462 70.8083 81.6129 71.875H89.2379ZM100.562 73.05C100.562 71.6667 100.845 70.4417 101.412 69.375C101.995 68.3083 102.778 67.4833 103.762 66.9C104.762 66.3 105.862 66 107.062 66C108.145 66 109.087 66.2167 109.887 66.65C110.703 67.0667 111.353 67.5917 111.837 68.225V66.225H114.712V80H111.837V77.95C111.353 78.6 110.695 79.1417 109.862 79.575C109.028 80.0083 108.078 80.225 107.012 80.225C105.828 80.225 104.745 79.925 103.762 79.325C102.778 78.7083 101.995 77.8583 101.412 76.775C100.845 75.675 100.562 74.4333 100.562 73.05ZM111.837 73.1C111.837 72.15 111.637 71.325 111.237 70.625C110.853 69.925 110.345 69.3917 109.712 69.025C109.078 68.6583 108.395 68.475 107.662 68.475C106.928 68.475 106.245 68.6583 105.612 69.025C104.978 69.375 104.462 69.9 104.062 70.6C103.678 71.2833 103.487 72.1 103.487 73.05C103.487 74 103.678 74.8333 104.062 75.55C104.462 76.2667 104.978 76.8167 105.612 77.2C106.262 77.5667 106.945 77.75 107.662 77.75C108.395 77.75 109.078 77.5667 109.712 77.2C110.345 76.8333 110.853 76.3 111.237 75.6C111.637 74.8833 111.837 74.05 111.837 73.1ZM117.505 73.1C117.505 71.6833 117.788 70.4417 118.355 69.375C118.938 68.2917 119.738 67.4583 120.755 66.875C121.772 66.2917 122.938 66 124.255 66C125.922 66 127.297 66.4 128.38 67.2C129.48 67.9833 130.222 69.1083 130.605 70.575H127.53C127.28 69.8917 126.88 69.3583 126.33 68.975C125.78 68.5917 125.088 68.4 124.255 68.4C123.088 68.4 122.155 68.8167 121.455 69.65C120.772 70.4667 120.43 71.6167 120.43 73.1C120.43 74.5833 120.772 75.7417 121.455 76.575C122.155 77.4083 123.088 77.825 124.255 77.825C125.905 77.825 126.997 77.1 127.53 75.65H130.605C130.205 77.05 129.455 78.1667 128.355 79C127.255 79.8167 125.888 80.225 124.255 80.225C122.938 80.225 121.772 79.9333 120.755 79.35C119.738 78.75 118.938 77.9167 118.355 76.85C117.788 75.7667 117.505 74.5167 117.505 73.1ZM132.495 73.1C132.495 71.6833 132.779 70.4417 133.345 69.375C133.929 68.2917 134.729 67.4583 135.745 66.875C136.762 66.2917 137.929 66 139.245 66C140.912 66 142.287 66.4 143.37 67.2C144.47 67.9833 145.212 69.1083 145.595 70.575H142.52C142.27 69.8917 141.87 69.3583 141.32 68.975C140.77 68.5917 140.079 68.4 139.245 68.4C138.079 68.4 137.145 68.8167 136.445 69.65C135.762 70.4667 135.42 71.6167 135.42 73.1C135.42 74.5833 135.762 75.7417 136.445 76.575C137.145 77.4083 138.079 77.825 139.245 77.825C140.895 77.825 141.987 77.1 142.52 75.65H145.595C145.195 77.05 144.445 78.1667 143.345 79C142.245 79.8167 140.879 80.225 139.245 80.225C137.929 80.225 136.762 79.9333 135.745 79.35C134.729 78.75 133.929 77.9167 133.345 76.85C132.779 75.7667 132.495 74.5167 132.495 73.1ZM161.061 72.775C161.061 73.2917 161.027 73.7583 160.961 74.175H150.436C150.519 75.275 150.927 76.1583 151.661 76.825C152.394 77.4917 153.294 77.825 154.361 77.825C155.894 77.825 156.977 77.1833 157.611 75.9H160.686C160.269 77.1667 159.511 78.2083 158.411 79.025C157.327 79.825 155.977 80.225 154.361 80.225C153.044 80.225 151.861 79.9333 150.811 79.35C149.777 78.75 148.961 77.9167 148.361 76.85C147.777 75.7667 147.486 74.5167 147.486 73.1C147.486 71.6833 147.769 70.4417 148.336 69.375C148.919 68.2917 149.727 67.4583 150.761 66.875C151.811 66.2917 153.011 66 154.361 66C155.661 66 156.819 66.2833 157.836 66.85C158.852 67.4167 159.644 68.2167 160.211 69.25C160.777 70.2667 161.061 71.4417 161.061 72.775ZM158.086 71.875C158.069 70.825 157.694 69.9833 156.961 69.35C156.227 68.7167 155.319 68.4 154.236 68.4C153.252 68.4 152.411 68.7167 151.711 69.35C151.011 69.9667 150.594 70.8083 150.461 71.875H158.086ZM168.865 80.225C167.782 80.225 166.807 80.0333 165.94 79.65C165.09 79.25 164.415 78.7167 163.915 78.05C163.415 77.3667 163.149 76.6083 163.115 75.775H166.065C166.115 76.3583 166.39 76.85 166.89 77.25C167.407 77.6333 168.049 77.825 168.815 77.825C169.615 77.825 170.232 77.675 170.665 77.375C171.115 77.0583 171.34 76.6583 171.34 76.175C171.34 75.6583 171.09 75.275 170.59 75.025C170.107 74.775 169.332 74.5 168.265 74.2C167.232 73.9167 166.39 73.6417 165.74 73.375C165.09 73.1083 164.524 72.7 164.04 72.15C163.574 71.6 163.34 70.875 163.34 69.975C163.34 69.2417 163.557 68.575 163.99 67.975C164.424 67.3583 165.04 66.875 165.84 66.525C166.657 66.175 167.59 66 168.64 66C170.207 66 171.465 66.4 172.415 67.2C173.382 67.9833 173.899 69.0583 173.965 70.425H171.115C171.065 69.8083 170.815 69.3167 170.365 68.95C169.915 68.5833 169.307 68.4 168.54 68.4C167.79 68.4 167.215 68.5417 166.815 68.825C166.415 69.1083 166.215 69.4833 166.215 69.95C166.215 70.3167 166.349 70.625 166.615 70.875C166.882 71.125 167.207 71.325 167.59 71.475C167.974 71.6083 168.54 71.7833 169.29 72C170.29 72.2667 171.107 72.5417 171.74 72.825C172.39 73.0917 172.949 73.4917 173.415 74.025C173.882 74.5583 174.124 75.2667 174.14 76.15C174.14 76.9333 173.924 77.6333 173.49 78.25C173.057 78.8667 172.44 79.35 171.64 79.7C170.857 80.05 169.932 80.225 168.865 80.225ZM182.22 80.225C181.136 80.225 180.161 80.0333 179.295 79.65C178.445 79.25 177.77 78.7167 177.27 78.05C176.77 77.3667 176.503 76.6083 176.47 75.775H179.42C179.47 76.3583 179.745 76.85 180.245 77.25C180.761 77.6333 181.403 77.825 182.17 77.825C182.97 77.825 183.586 77.675 184.02 77.375C184.47 77.0583 184.695 76.6583 184.695 76.175C184.695 75.6583 184.445 75.275 183.945 75.025C183.461 74.775 182.686 74.5 181.62 74.2C180.586 73.9167 179.745 73.6417 179.095 73.375C178.445 73.1083 177.878 72.7 177.395 72.15C176.928 71.6 176.695 70.875 176.695 69.975C176.695 69.2417 176.911 68.575 177.345 67.975C177.778 67.3583 178.395 66.875 179.195 66.525C180.011 66.175 180.945 66 181.995 66C183.561 66 184.82 66.4 185.77 67.2C186.736 67.9833 187.253 69.0583 187.32 70.425H184.47C184.42 69.8083 184.17 69.3167 183.72 68.95C183.27 68.5833 182.661 68.4 181.895 68.4C181.145 68.4 180.57 68.5417 180.17 68.825C179.77 69.1083 179.57 69.4833 179.57 69.95C179.57 70.3167 179.703 70.625 179.97 70.875C180.236 71.125 180.561 71.325 180.945 71.475C181.328 71.6083 181.895 71.7833 182.645 72C183.645 72.2667 184.461 72.5417 185.095 72.825C185.745 73.0917 186.303 73.4917 186.77 74.025C187.236 74.5583 187.478 75.2667 187.495 76.15C187.495 76.9333 187.278 77.6333 186.845 78.25C186.411 78.8667 185.795 79.35 184.995 79.7C184.211 80.05 183.286 80.225 182.22 80.225ZM196.549 80.225C195.249 80.225 194.074 79.9333 193.024 79.35C191.974 78.75 191.149 77.9167 190.549 76.85C189.949 75.7667 189.649 74.5167 189.649 73.1C189.649 71.7 189.958 70.4583 190.574 69.375C191.191 68.2917 192.033 67.4583 193.099 66.875C194.166 66.2917 195.358 66 196.674 66C197.991 66 199.183 66.2917 200.249 66.875C201.316 67.4583 202.158 68.2917 202.774 69.375C203.391 70.4583 203.699 71.7 203.699 73.1C203.699 74.5 203.383 75.7417 202.749 76.825C202.116 77.9083 201.249 78.75 200.149 79.35C199.066 79.9333 197.866 80.225 196.549 80.225ZM196.549 77.75C197.283 77.75 197.966 77.575 198.599 77.225C199.249 76.875 199.774 76.35 200.174 75.65C200.574 74.95 200.774 74.1 200.774 73.1C200.774 72.1 200.583 71.2583 200.199 70.575C199.816 69.875 199.308 69.35 198.674 69C198.041 68.65 197.358 68.475 196.624 68.475C195.891 68.475 195.208 68.65 194.574 69C193.958 69.35 193.466 69.875 193.099 70.575C192.733 71.2583 192.549 72.1 192.549 73.1C192.549 74.5833 192.924 75.7333 193.674 76.55C194.441 77.35 195.399 77.75 196.549 77.75ZM209.367 68.225C209.783 67.525 210.333 66.9833 211.017 66.6C211.717 66.2 212.542 66 213.492 66V68.95H212.767C211.65 68.95 210.8 69.2333 210.217 69.8C209.65 70.3667 209.367 71.35 209.367 72.75V80H206.517V66.225H209.367V68.225ZM217.561 64.4C217.045 64.4 216.611 64.225 216.261 63.875C215.911 63.525 215.736 63.0917 215.736 62.575C215.736 62.0583 215.911 61.625 216.261 61.275C216.611 60.925 217.045 60.75 217.561 60.75C218.061 60.75 218.486 60.925 218.836 61.275C219.186 61.625 219.361 62.0583 219.361 62.575C219.361 63.0917 219.186 63.525 218.836 63.875C218.486 64.225 218.061 64.4 217.561 64.4ZM218.961 66.225V80H216.111V66.225H218.961ZM235.328 72.775C235.328 73.2917 235.295 73.7583 235.228 74.175H224.703C224.786 75.275 225.195 76.1583 225.928 76.825C226.661 77.4917 227.561 77.825 228.628 77.825C230.161 77.825 231.245 77.1833 231.878 75.9H234.953C234.536 77.1667 233.778 78.2083 232.678 79.025C231.595 79.825 230.245 80.225 228.628 80.225C227.311 80.225 226.128 79.9333 225.078 79.35C224.045 78.75 223.228 77.9167 222.628 76.85C222.045 75.7667 221.753 74.5167 221.753 73.1C221.753 71.6833 222.036 70.4417 222.603 69.375C223.186 68.2917 223.995 67.4583 225.028 66.875C226.078 66.2917 227.278 66 228.628 66C229.928 66 231.086 66.2833 232.103 66.85C233.12 67.4167 233.911 68.2167 234.478 69.25C235.045 70.2667 235.328 71.4417 235.328 72.775ZM232.353 71.875C232.336 70.825 231.961 69.9833 231.228 69.35C230.495 68.7167 229.586 68.4 228.503 68.4C227.52 68.4 226.678 68.7167 225.978 69.35C225.278 69.9667 224.861 70.8083 224.728 71.875H232.353ZM243.133 80.225C242.049 80.225 241.074 80.0333 240.208 79.65C239.358 79.25 238.683 78.7167 238.183 78.05C237.683 77.3667 237.416 76.6083 237.383 75.775H240.333C240.383 76.3583 240.658 76.85 241.158 77.25C241.674 77.6333 242.316 77.825 243.083 77.825C243.883 77.825 244.499 77.675 244.933 77.375C245.383 77.0583 245.608 76.6583 245.608 76.175C245.608 75.6583 245.358 75.275 244.858 75.025C244.374 74.775 243.599 74.5 242.533 74.2C241.499 73.9167 240.658 73.6417 240.008 73.375C239.358 73.1083 238.791 72.7 238.308 72.15C237.841 71.6 237.608 70.875 237.608 69.975C237.608 69.2417 237.824 68.575 238.258 67.975C238.691 67.3583 239.308 66.875 240.108 66.525C240.924 66.175 241.858 66 242.908 66C244.474 66 245.733 66.4 246.683 67.2C247.649 67.9833 248.166 69.0583 248.233 70.425H245.383C245.333 69.8083 245.083 69.3167 244.633 68.95C244.183 68.5833 243.574 68.4 242.808 68.4C242.058 68.4 241.483 68.5417 241.083 68.825C240.683 69.1083 240.483 69.4833 240.483 69.95C240.483 70.3167 240.616 70.625 240.883 70.875C241.149 71.125 241.474 71.325 241.858 71.475C242.241 71.6083 242.808 71.7833 243.558 72C244.558 72.2667 245.374 72.5417 246.008 72.825C246.658 73.0917 247.216 73.4917 247.683 74.025C248.149 74.5583 248.391 75.2667 248.408 76.15C248.408 76.9333 248.191 77.6333 247.758 78.25C247.324 78.8667 246.708 79.35 245.908 79.7C245.124 80.05 244.199 80.225 243.133 80.225Z" fill="#1E2A39"/>
<path opacity="0.6" d="M76.4458 10.816H80.3498V12H74.9898V0.848H76.4458V10.816ZM83.3521 0.848V12H81.8961V0.848H83.3521ZM97.1456 0.927999V12H95.6896V3.744L92.0096 12H90.9856L87.2896 3.728V12H85.8336V0.927999H87.4016L91.4976 10.08L95.5936 0.927999H97.1456ZM101.071 0.848V12H99.6148V0.848H101.071ZM110.416 0.848V2.032H107.376V12H105.92V2.032H102.864V0.848H110.416ZM113.665 2.032V5.76H117.729V6.96H113.665V10.8H118.209V12H112.209V0.832H118.209V2.032H113.665ZM123.884 0.848C125.1 0.848 126.15 1.07733 127.036 1.536C127.932 1.984 128.614 2.62933 129.084 3.472C129.564 4.31467 129.804 5.30667 129.804 6.448C129.804 7.58933 129.564 8.58133 129.084 9.424C128.614 10.256 127.932 10.896 127.036 11.344C126.15 11.7813 125.1 12 123.884 12H120.412V0.848H123.884ZM123.884 10.8C125.324 10.8 126.422 10.4213 127.18 9.664C127.937 8.896 128.316 7.824 128.316 6.448C128.316 5.06133 127.932 3.97867 127.164 3.2C126.406 2.42133 125.313 2.032 123.884 2.032H121.868V10.8H123.884ZM142.854 0.848V2.032H139.814V12H138.358V2.032H135.302V0.848H142.854ZM146.102 0.848V12H144.646V0.848H146.102ZM159.896 0.927999V12H158.44V3.744L154.76 12H153.736L150.04 3.728V12H148.584V0.927999H150.152L154.248 10.08L158.344 0.927999H159.896ZM163.821 2.032V5.76H167.885V6.96H163.821V10.8H168.365V12H162.365V0.832H168.365V2.032H163.821ZM179.89 12.112C178.855 12.112 177.911 11.872 177.058 11.392C176.204 10.9013 175.527 10.224 175.026 9.36C174.535 8.48533 174.29 7.504 174.29 6.416C174.29 5.328 174.535 4.352 175.026 3.488C175.527 2.61333 176.204 1.936 177.058 1.456C177.911 0.965333 178.855 0.719999 179.89 0.719999C180.935 0.719999 181.884 0.965333 182.738 1.456C183.591 1.936 184.263 2.608 184.754 3.472C185.244 4.336 185.49 5.31733 185.49 6.416C185.49 7.51467 185.244 8.496 184.754 9.36C184.263 10.224 183.591 10.9013 182.738 11.392C181.884 11.872 180.935 12.112 179.89 12.112ZM179.89 10.848C180.668 10.848 181.367 10.6667 181.986 10.304C182.615 9.94133 183.106 9.424 183.458 8.752C183.82 8.08 184.002 7.30133 184.002 6.416C184.002 5.52 183.82 4.74133 183.458 4.08C183.106 3.408 182.62 2.89067 182.002 2.528C181.383 2.16533 180.679 1.984 179.89 1.984C179.1 1.984 178.396 2.16533 177.778 2.528C177.159 2.89067 176.668 3.408 176.306 4.08C175.954 4.74133 175.778 5.52 175.778 6.416C175.778 7.30133 175.954 8.08 176.306 8.752C176.668 9.424 177.159 9.94133 177.778 10.304C178.407 10.6667 179.111 10.848 179.89 10.848ZM193.716 0.848V2.032H188.868V5.792H192.804V6.976H188.868V12H187.412V0.848H193.716ZM201.778 0.848V2.032H196.93V5.792H200.866V6.976H196.93V12H195.474V0.848H201.778ZM204.993 2.032V5.76H209.057V6.96H204.993V10.8H209.537V12H203.537V0.832H209.537V2.032H204.993ZM217.612 12L214.956 7.44H213.196V12H211.74V0.848H215.34C216.182 0.848 216.892 0.992 217.468 1.28C218.054 1.568 218.492 1.95733 218.78 2.448C219.068 2.93867 219.212 3.49867 219.212 4.128C219.212 4.896 218.988 5.57333 218.54 6.16C218.102 6.74667 217.441 7.136 216.556 7.328L219.356 12H217.612ZM213.196 6.272H215.34C216.129 6.272 216.721 6.08 217.116 5.696C217.51 5.30133 217.708 4.77867 217.708 4.128C217.708 3.46667 217.51 2.95467 217.116 2.592C216.732 2.22933 216.14 2.048 215.34 2.048H213.196V6.272Z" fill="black"/>
</svg>
