<svg width="294" height="85" viewBox="0 0 294 85" fill="none" xmlns="http://www.w3.org/2000/svg">
<path d="M34.7427 50.175C33.526 50.175 32.426 49.9667 31.4427 49.55C30.476 49.1333 29.7093 48.5333 29.1427 47.75C28.576 46.9667 28.2843 46.0417 28.2677 44.975H32.0177C32.0677 45.6917 32.3177 46.2583 32.7677 46.675C33.2343 47.0917 33.8677 47.3 34.6677 47.3C35.4843 47.3 36.126 47.1083 36.5927 46.725C37.0593 46.325 37.2927 45.8083 37.2927 45.175C37.2927 44.6583 37.1343 44.2333 36.8177 43.9C36.501 43.5667 36.101 43.3083 35.6177 43.125C35.151 42.925 34.501 42.7083 33.6677 42.475C32.5343 42.1417 31.6093 41.8167 30.8927 41.5C30.1927 41.1667 29.5843 40.675 29.0677 40.025C28.5677 39.3583 28.3177 38.475 28.3177 37.375C28.3177 36.3417 28.576 35.4417 29.0927 34.675C29.6093 33.9083 30.3343 33.325 31.2677 32.925C32.201 32.5083 33.2677 32.3 34.4677 32.3C36.2677 32.3 37.726 32.7417 38.8427 33.625C39.976 34.4917 40.601 35.7083 40.7177 37.275H36.8677C36.8343 36.675 36.576 36.1833 36.0927 35.8C35.626 35.4 35.001 35.2 34.2177 35.2C33.5343 35.2 32.9843 35.375 32.5677 35.725C32.1677 36.075 31.9677 36.5833 31.9677 37.25C31.9677 37.7167 32.1177 38.1083 32.4177 38.425C32.7343 38.725 33.1177 38.975 33.5677 39.175C34.0343 39.3583 34.6843 39.575 35.5177 39.825C36.651 40.1583 37.576 40.4917 38.2927 40.825C39.0093 41.1583 39.626 41.6583 40.1427 42.325C40.6593 42.9917 40.9177 43.8667 40.9177 44.95C40.9177 45.8833 40.676 46.75 40.1927 47.55C39.7093 48.35 39.001 48.9917 38.0677 49.475C37.1343 49.9417 36.026 50.175 34.7427 50.175ZM43.0521 43.025C43.0521 41.625 43.3271 40.3833 43.8771 39.3C44.4437 38.2167 45.2021 37.3833 46.1521 36.8C47.1187 36.2167 48.1937 35.925 49.3771 35.925C50.4104 35.925 51.3104 36.1333 52.0771 36.55C52.8604 36.9667 53.4854 37.4917 53.9521 38.125V36.15H57.4771V50H53.9521V47.975C53.5021 48.625 52.8771 49.1667 52.0771 49.6C51.2937 50.0167 50.3854 50.225 49.3521 50.225C48.1854 50.225 47.1187 49.925 46.1521 49.325C45.2021 48.725 44.4437 47.8833 43.8771 46.8C43.3271 45.7 43.0521 44.4417 43.0521 43.025ZM53.9521 43.075C53.9521 42.225 53.7854 41.5 53.4521 40.9C53.1187 40.2833 52.6687 39.8167 52.1021 39.5C51.5354 39.1667 50.9271 39 50.2771 39C49.6271 39 49.0271 39.1583 48.4771 39.475C47.9271 39.7917 47.4771 40.2583 47.1271 40.875C46.7937 41.475 46.6271 42.1917 46.6271 43.025C46.6271 43.8583 46.7937 44.5917 47.1271 45.225C47.4771 45.8417 47.9271 46.3167 48.4771 46.65C49.0437 46.9833 49.6437 47.15 50.2771 47.15C50.9271 47.15 51.5354 46.9917 52.1021 46.675C52.6687 46.3417 53.1187 45.875 53.4521 45.275C53.7854 44.6583 53.9521 43.925 53.9521 43.075ZM66.6704 46.775L70.1704 36.15H73.8954L68.7704 50H64.5204L59.4204 36.15H63.1704L66.6704 46.775ZM88.7362 42.775C88.7362 43.275 88.7029 43.725 88.6362 44.125H78.5112C78.5946 45.125 78.9446 45.9083 79.5612 46.475C80.1779 47.0417 80.9362 47.325 81.8362 47.325C83.1362 47.325 84.0612 46.7667 84.6112 45.65H88.3862C87.9862 46.9833 87.2196 48.0833 86.0862 48.95C84.9529 49.8 83.5612 50.225 81.9112 50.225C80.5779 50.225 79.3779 49.9333 78.3112 49.35C77.2612 48.75 76.4362 47.9083 75.8362 46.825C75.2529 45.7417 74.9612 44.4917 74.9612 43.075C74.9612 41.6417 75.2529 40.3833 75.8362 39.3C76.4196 38.2167 77.2362 37.3833 78.2862 36.8C79.3362 36.2167 80.5446 35.925 81.9112 35.925C83.2279 35.925 84.4029 36.2083 85.4362 36.775C86.4862 37.3417 87.2946 38.15 87.8612 39.2C88.4446 40.2333 88.7362 41.425 88.7362 42.775ZM85.1112 41.775C85.0946 40.875 84.7696 40.1583 84.1362 39.625C83.5029 39.075 82.7279 38.8 81.8112 38.8C80.9446 38.8 80.2112 39.0667 79.6112 39.6C79.0279 40.1167 78.6696 40.8417 78.5362 41.775H85.1112ZM103.598 39.025H101.173V50H97.6229V39.025H96.0479V36.15H97.6229V35.45C97.6229 33.75 98.1063 32.5 99.0729 31.7C100.04 30.9 101.498 30.525 103.448 30.575V33.525C102.598 33.5083 102.006 33.65 101.673 33.95C101.34 34.25 101.173 34.7917 101.173 35.575V36.15H103.598V39.025ZM109.366 31.5V50H105.866V31.5H109.366ZM111.924 43.025C111.924 41.625 112.199 40.3833 112.749 39.3C113.316 38.2167 114.074 37.3833 115.024 36.8C115.991 36.2167 117.066 35.925 118.249 35.925C119.282 35.925 120.182 36.1333 120.949 36.55C121.732 36.9667 122.357 37.4917 122.824 38.125V36.15H126.349V50H122.824V47.975C122.374 48.625 121.749 49.1667 120.949 49.6C120.166 50.0167 119.257 50.225 118.224 50.225C117.057 50.225 115.991 49.925 115.024 49.325C114.074 48.725 113.316 47.8833 112.749 46.8C112.199 45.7 111.924 44.4417 111.924 43.025ZM122.824 43.075C122.824 42.225 122.657 41.5 122.324 40.9C121.991 40.2833 121.541 39.8167 120.974 39.5C120.407 39.1667 119.799 39 119.149 39C118.499 39 117.899 39.1583 117.349 39.475C116.799 39.7917 116.349 40.2583 115.999 40.875C115.666 41.475 115.499 42.1917 115.499 43.025C115.499 43.8583 115.666 44.5917 115.999 45.225C116.349 45.8417 116.799 46.3167 117.349 46.65C117.916 46.9833 118.516 47.15 119.149 47.15C119.799 47.15 120.407 46.9917 120.974 46.675C121.541 46.3417 121.991 45.875 122.324 45.275C122.657 44.6583 122.824 43.925 122.824 43.075ZM133.842 39.025V45.725C133.842 46.1917 133.951 46.5333 134.167 46.75C134.401 46.95 134.784 47.05 135.317 47.05H136.942V50H134.742C131.792 50 130.317 48.5667 130.317 45.7V39.025H128.667V36.15H130.317V32.725H133.842V36.15H136.942V39.025H133.842ZM154.467 36.325C154.3 35.625 154.009 35.1 153.592 34.75C153.192 34.4 152.609 34.225 151.842 34.225C150.692 34.225 149.842 34.6917 149.292 35.625C148.759 36.5417 148.484 38.0417 148.467 40.125C148.867 39.4583 149.45 38.9417 150.217 38.575C150.984 38.1917 151.817 38 152.717 38C153.8 38 154.759 38.2333 155.592 38.7C156.425 39.1667 157.075 39.85 157.542 40.75C158.009 41.6333 158.242 42.7 158.242 43.95C158.242 45.1333 158 46.1917 157.517 47.125C157.05 48.0417 156.359 48.7583 155.442 49.275C154.525 49.7917 153.434 50.05 152.167 50.05C150.434 50.05 149.067 49.6667 148.067 48.9C147.084 48.1333 146.392 47.0667 145.992 45.7C145.609 44.3167 145.417 42.6167 145.417 40.6C145.417 37.55 145.942 35.25 146.992 33.7C148.042 32.1333 149.7 31.35 151.967 31.35C153.717 31.35 155.075 31.825 156.042 32.775C157.009 33.725 157.567 34.9083 157.717 36.325H154.467ZM151.917 40.875C151.034 40.875 150.292 41.1333 149.692 41.65C149.092 42.1667 148.792 42.9167 148.792 43.9C148.792 44.8833 149.067 45.6583 149.617 46.225C150.184 46.7917 150.975 47.075 151.992 47.075C152.892 47.075 153.6 46.8 154.117 46.25C154.65 45.7 154.917 44.9583 154.917 44.025C154.917 43.0583 154.659 42.2917 154.142 41.725C153.642 41.1583 152.9 40.875 151.917 40.875ZM161.008 40.65C161.008 37.7667 161.525 35.5083 162.558 33.875C163.608 32.2417 165.341 31.425 167.758 31.425C170.175 31.425 171.9 32.2417 172.933 33.875C173.983 35.5083 174.508 37.7667 174.508 40.65C174.508 43.55 173.983 45.825 172.933 47.475C171.9 49.125 170.175 49.95 167.758 49.95C165.341 49.95 163.608 49.125 162.558 47.475C161.525 45.825 161.008 43.55 161.008 40.65ZM171.058 40.65C171.058 39.4167 170.975 38.3833 170.808 37.55C170.658 36.7 170.341 36.0083 169.858 35.475C169.391 34.9417 168.691 34.675 167.758 34.675C166.825 34.675 166.116 34.9417 165.633 35.475C165.166 36.0083 164.85 36.7 164.683 37.55C164.533 38.3833 164.458 39.4167 164.458 40.65C164.458 41.9167 164.533 42.9833 164.683 43.85C164.833 44.7 165.15 45.3917 165.633 45.925C166.116 46.4417 166.825 46.7 167.758 46.7C168.691 46.7 169.4 46.4417 169.883 45.925C170.366 45.3917 170.683 44.7 170.833 43.85C170.983 42.9833 171.058 41.9167 171.058 40.65ZM176.77 36.25C176.77 34.9833 177.137 33.9917 177.87 33.275C178.62 32.5583 179.579 32.2 180.745 32.2C181.912 32.2 182.862 32.5583 183.595 33.275C184.345 33.9917 184.72 34.9833 184.72 36.25C184.72 37.5333 184.345 38.5333 183.595 39.25C182.862 39.9667 181.912 40.325 180.745 40.325C179.579 40.325 178.62 39.9667 177.87 39.25C177.137 38.5333 176.77 37.5333 176.77 36.25ZM192.82 32.5L182.995 50H179.595L189.395 32.5H192.82ZM180.72 34.3C179.804 34.3 179.345 34.95 179.345 36.25C179.345 37.5667 179.804 38.225 180.72 38.225C181.17 38.225 181.52 38.0667 181.77 37.75C182.02 37.4167 182.145 36.9167 182.145 36.25C182.145 34.95 181.67 34.3 180.72 34.3ZM187.745 46.225C187.745 44.9417 188.112 43.95 188.845 43.25C189.595 42.5333 190.554 42.175 191.72 42.175C192.887 42.175 193.829 42.5333 194.545 43.25C195.279 43.95 195.645 44.9417 195.645 46.225C195.645 47.5083 195.279 48.5083 194.545 49.225C193.829 49.9417 192.887 50.3 191.72 50.3C190.537 50.3 189.579 49.9417 188.845 49.225C188.112 48.5083 187.745 47.5083 187.745 46.225ZM191.695 44.275C190.745 44.275 190.27 44.925 190.27 46.225C190.27 47.5417 190.745 48.2 191.695 48.2C192.629 48.2 193.095 47.5417 193.095 46.225C193.095 44.925 192.629 44.275 191.695 44.275ZM217.33 42.625H212.605V47.475H209.305V42.625H204.58V39.575H209.305V34.725H212.605V39.575H217.33V42.625ZM232.758 36C233.824 36 234.766 36.2167 235.583 36.65C236.416 37.0667 237.066 37.5917 237.533 38.225V36.225H240.408V50.225C240.408 51.4917 240.141 52.6167 239.608 53.6C239.074 54.6 238.299 55.3833 237.283 55.95C236.283 56.5167 235.083 56.8 233.683 56.8C231.816 56.8 230.266 56.3583 229.033 55.475C227.799 54.6083 227.099 53.425 226.933 51.925H229.758C229.974 52.6417 230.433 53.2167 231.133 53.65C231.849 54.1 232.699 54.325 233.683 54.325C234.833 54.325 235.758 53.975 236.458 53.275C237.174 52.575 237.533 51.5583 237.533 50.225V47.925C237.049 48.575 236.391 49.125 235.558 49.575C234.741 50.0083 233.808 50.225 232.758 50.225C231.558 50.225 230.458 49.925 229.458 49.325C228.474 48.7083 227.691 47.8583 227.108 46.775C226.541 45.675 226.258 44.4333 226.258 43.05C226.258 41.6667 226.541 40.4417 227.108 39.375C227.691 38.3083 228.474 37.4833 229.458 36.9C230.458 36.3 231.558 36 232.758 36ZM237.533 43.1C237.533 42.15 237.333 41.325 236.933 40.625C236.549 39.925 236.041 39.3917 235.408 39.025C234.774 38.6583 234.091 38.475 233.358 38.475C232.624 38.475 231.941 38.6583 231.308 39.025C230.674 39.375 230.158 39.9 229.758 40.6C229.374 41.2833 229.183 42.1 229.183 43.05C229.183 44 229.374 44.8333 229.758 45.55C230.158 46.2667 230.674 46.8167 231.308 47.2C231.958 47.5667 232.641 47.75 233.358 47.75C234.091 47.75 234.774 47.5667 235.408 47.2C236.041 46.8333 236.549 46.3 236.933 45.6C237.333 44.8833 237.533 44.05 237.533 43.1ZM256.776 42.775C256.776 43.2917 256.743 43.7583 256.676 44.175H246.151C246.234 45.275 246.643 46.1583 247.376 46.825C248.109 47.4917 249.009 47.825 250.076 47.825C251.609 47.825 252.693 47.1833 253.326 45.9H256.401C255.984 47.1667 255.226 48.2083 254.126 49.025C253.043 49.825 251.693 50.225 250.076 50.225C248.759 50.225 247.576 49.9333 246.526 49.35C245.493 48.75 244.676 47.9167 244.076 46.85C243.493 45.7667 243.201 44.5167 243.201 43.1C243.201 41.6833 243.484 40.4417 244.051 39.375C244.634 38.2917 245.443 37.4583 246.476 36.875C247.526 36.2917 248.726 36 250.076 36C251.376 36 252.534 36.2833 253.551 36.85C254.568 37.4167 255.359 38.2167 255.926 39.25C256.493 40.2667 256.776 41.4417 256.776 42.775ZM253.801 41.875C253.784 40.825 253.409 39.9833 252.676 39.35C251.943 38.7167 251.034 38.4 249.951 38.4C248.968 38.4 248.126 38.7167 247.426 39.35C246.726 39.9667 246.309 40.8083 246.176 41.875H253.801ZM262.906 38.55V46.175C262.906 46.6917 263.022 47.0667 263.256 47.3C263.506 47.5167 263.922 47.625 264.506 47.625H266.256V50H264.006C262.722 50 261.739 49.7 261.056 49.1C260.372 48.5 260.031 47.525 260.031 46.175V38.55H258.406V36.225H260.031V32.8H262.906V36.225H266.256V38.55H262.906ZM52.0377 68.55H49.4877V80H46.6127V68.55H44.9877V66.225H46.6127V65.25C46.6127 63.6667 47.0294 62.5167 47.8627 61.8C48.7127 61.0667 50.0377 60.7 51.8377 60.7V63.075C50.971 63.075 50.3627 63.2417 50.0127 63.575C49.6627 63.8917 49.4877 64.45 49.4877 65.25V66.225H52.0377V68.55ZM57.4135 68.225C57.8301 67.525 58.3801 66.9833 59.0635 66.6C59.7635 66.2 60.5885 66 61.5385 66V68.95H60.8135C59.6968 68.95 58.8468 69.2333 58.2635 69.8C57.6968 70.3667 57.4135 71.35 57.4135 72.75V80H54.5635V66.225H57.4135V68.225ZM76.7832 72.775C76.7832 73.2917 76.7499 73.7583 76.6832 74.175H66.1582C66.2415 75.275 66.6499 76.1583 67.3832 76.825C68.1165 77.4917 69.0165 77.825 70.0832 77.825C71.6165 77.825 72.6999 77.1833 73.3332 75.9H76.4082C75.9915 77.1667 75.2332 78.2083 74.1332 79.025C73.0499 79.825 71.6999 80.225 70.0832 80.225C68.7665 80.225 67.5832 79.9333 66.5332 79.35C65.4999 78.75 64.6832 77.9167 64.0832 76.85C63.4999 75.7667 63.2082 74.5167 63.2082 73.1C63.2082 71.6833 63.4915 70.4417 64.0582 69.375C64.6415 68.2917 65.4499 67.4583 66.4832 66.875C67.5332 66.2917 68.7332 66 70.0832 66C71.3832 66 72.5415 66.2833 73.5582 66.85C74.5749 67.4167 75.3665 68.2167 75.9332 69.25C76.4999 70.2667 76.7832 71.4417 76.7832 72.775ZM73.8082 71.875C73.7915 70.825 73.4165 69.9833 72.6832 69.35C71.9499 68.7167 71.0415 68.4 69.9582 68.4C68.9749 68.4 68.1332 68.7167 67.4332 69.35C66.7332 69.9667 66.3165 70.8083 66.1832 71.875H73.8082ZM92.2129 72.775C92.2129 73.2917 92.1796 73.7583 92.1129 74.175H81.5879C81.6712 75.275 82.0796 76.1583 82.8129 76.825C83.5462 77.4917 84.4462 77.825 85.5129 77.825C87.0462 77.825 88.1296 77.1833 88.7629 75.9H91.8379C91.4212 77.1667 90.6629 78.2083 89.5629 79.025C88.4796 79.825 87.1296 80.225 85.5129 80.225C84.1962 80.225 83.0129 79.9333 81.9629 79.35C80.9296 78.75 80.1129 77.9167 79.5129 76.85C78.9296 75.7667 78.6379 74.5167 78.6379 73.1C78.6379 71.6833 78.9212 70.4417 79.4879 69.375C80.0712 68.2917 80.8796 67.4583 81.9129 66.875C82.9629 66.2917 84.1629 66 85.5129 66C86.8129 66 87.9712 66.2833 88.9879 66.85C90.0046 67.4167 90.7962 68.2167 91.3629 69.25C91.9296 70.2667 92.2129 71.4417 92.2129 72.775ZM89.2379 71.875C89.2212 70.825 88.8462 69.9833 88.1129 69.35C87.3796 68.7167 86.4712 68.4 85.3879 68.4C84.4046 68.4 83.5629 68.7167 82.8629 69.35C82.1629 69.9667 81.7462 70.8083 81.6129 71.875H89.2379ZM100.562 73.05C100.562 71.6667 100.845 70.4417 101.412 69.375C101.995 68.3083 102.778 67.4833 103.762 66.9C104.762 66.3 105.862 66 107.062 66C108.145 66 109.087 66.2167 109.887 66.65C110.703 67.0667 111.353 67.5917 111.837 68.225V66.225H114.712V80H111.837V77.95C111.353 78.6 110.695 79.1417 109.862 79.575C109.028 80.0083 108.078 80.225 107.012 80.225C105.828 80.225 104.745 79.925 103.762 79.325C102.778 78.7083 101.995 77.8583 101.412 76.775C100.845 75.675 100.562 74.4333 100.562 73.05ZM111.837 73.1C111.837 72.15 111.637 71.325 111.237 70.625C110.853 69.925 110.345 69.3917 109.712 69.025C109.078 68.6583 108.395 68.475 107.662 68.475C106.928 68.475 106.245 68.6583 105.612 69.025C104.978 69.375 104.462 69.9 104.062 70.6C103.678 71.2833 103.487 72.1 103.487 73.05C103.487 74 103.678 74.8333 104.062 75.55C104.462 76.2667 104.978 76.8167 105.612 77.2C106.262 77.5667 106.945 77.75 107.662 77.75C108.395 77.75 109.078 77.5667 109.712 77.2C110.345 76.8333 110.853 76.3 111.237 75.6C111.637 74.8833 111.837 74.05 111.837 73.1ZM117.505 73.1C117.505 71.6833 117.788 70.4417 118.355 69.375C118.938 68.2917 119.738 67.4583 120.755 66.875C121.772 66.2917 122.938 66 124.255 66C125.922 66 127.297 66.4 128.38 67.2C129.48 67.9833 130.222 69.1083 130.605 70.575H127.53C127.28 69.8917 126.88 69.3583 126.33 68.975C125.78 68.5917 125.088 68.4 124.255 68.4C123.088 68.4 122.155 68.8167 121.455 69.65C120.772 70.4667 120.43 71.6167 120.43 73.1C120.43 74.5833 120.772 75.7417 121.455 76.575C122.155 77.4083 123.088 77.825 124.255 77.825C125.905 77.825 126.997 77.1 127.53 75.65H130.605C130.205 77.05 129.455 78.1667 128.355 79C127.255 79.8167 125.888 80.225 124.255 80.225C122.938 80.225 121.772 79.9333 120.755 79.35C119.738 78.75 118.938 77.9167 118.355 76.85C117.788 75.7667 117.505 74.5167 117.505 73.1ZM132.495 73.1C132.495 71.6833 132.779 70.4417 133.345 69.375C133.929 68.2917 134.729 67.4583 135.745 66.875C136.762 66.2917 137.929 66 139.245 66C140.912 66 142.287 66.4 143.37 67.2C144.47 67.9833 145.212 69.1083 145.595 70.575H142.52C142.27 69.8917 141.87 69.3583 141.32 68.975C140.77 68.5917 140.079 68.4 139.245 68.4C138.079 68.4 137.145 68.8167 136.445 69.65C135.762 70.4667 135.42 71.6167 135.42 73.1C135.42 74.5833 135.762 75.7417 136.445 76.575C137.145 77.4083 138.079 77.825 139.245 77.825C140.895 77.825 141.987 77.1 142.52 75.65H145.595C145.195 77.05 144.445 78.1667 143.345 79C142.245 79.8167 140.879 80.225 139.245 80.225C137.929 80.225 136.762 79.9333 135.745 79.35C134.729 78.75 133.929 77.9167 133.345 76.85C132.779 75.7667 132.495 74.5167 132.495 73.1ZM161.061 72.775C161.061 73.2917 161.027 73.7583 160.961 74.175H150.436C150.519 75.275 150.927 76.1583 151.661 76.825C152.394 77.4917 153.294 77.825 154.361 77.825C155.894 77.825 156.977 77.1833 157.611 75.9H160.686C160.269 77.1667 159.511 78.2083 158.411 79.025C157.327 79.825 155.977 80.225 154.361 80.225C153.044 80.225 151.861 79.9333 150.811 79.35C149.777 78.75 148.961 77.9167 148.361 76.85C147.777 75.7667 147.486 74.5167 147.486 73.1C147.486 71.6833 147.769 70.4417 148.336 69.375C148.919 68.2917 149.727 67.4583 150.761 66.875C151.811 66.2917 153.011 66 154.361 66C155.661 66 156.819 66.2833 157.836 66.85C158.852 67.4167 159.644 68.2167 160.211 69.25C160.777 70.2667 161.061 71.4417 161.061 72.775ZM158.086 71.875C158.069 70.825 157.694 69.9833 156.961 69.35C156.227 68.7167 155.319 68.4 154.236 68.4C153.252 68.4 152.411 68.7167 151.711 69.35C151.011 69.9667 150.594 70.8083 150.461 71.875H158.086ZM168.865 80.225C167.782 80.225 166.807 80.0333 165.94 79.65C165.09 79.25 164.415 78.7167 163.915 78.05C163.415 77.3667 163.149 76.6083 163.115 75.775H166.065C166.115 76.3583 166.39 76.85 166.89 77.25C167.407 77.6333 168.049 77.825 168.815 77.825C169.615 77.825 170.232 77.675 170.665 77.375C171.115 77.0583 171.34 76.6583 171.34 76.175C171.34 75.6583 171.09 75.275 170.59 75.025C170.107 74.775 169.332 74.5 168.265 74.2C167.232 73.9167 166.39 73.6417 165.74 73.375C165.09 73.1083 164.524 72.7 164.04 72.15C163.574 71.6 163.34 70.875 163.34 69.975C163.34 69.2417 163.557 68.575 163.99 67.975C164.424 67.3583 165.04 66.875 165.84 66.525C166.657 66.175 167.59 66 168.64 66C170.207 66 171.465 66.4 172.415 67.2C173.382 67.9833 173.899 69.0583 173.965 70.425H171.115C171.065 69.8083 170.815 69.3167 170.365 68.95C169.915 68.5833 169.307 68.4 168.54 68.4C167.79 68.4 167.215 68.5417 166.815 68.825C166.415 69.1083 166.215 69.4833 166.215 69.95C166.215 70.3167 166.349 70.625 166.615 70.875C166.882 71.125 167.207 71.325 167.59 71.475C167.974 71.6083 168.54 71.7833 169.29 72C170.29 72.2667 171.107 72.5417 171.74 72.825C172.39 73.0917 172.949 73.4917 173.415 74.025C173.882 74.5583 174.124 75.2667 174.14 76.15C174.14 76.9333 173.924 77.6333 173.49 78.25C173.057 78.8667 172.44 79.35 171.64 79.7C170.857 80.05 169.932 80.225 168.865 80.225ZM182.22 80.225C181.136 80.225 180.161 80.0333 179.295 79.65C178.445 79.25 177.77 78.7167 177.27 78.05C176.77 77.3667 176.503 76.6083 176.47 75.775H179.42C179.47 76.3583 179.745 76.85 180.245 77.25C180.761 77.6333 181.403 77.825 182.17 77.825C182.97 77.825 183.586 77.675 184.02 77.375C184.47 77.0583 184.695 76.6583 184.695 76.175C184.695 75.6583 184.445 75.275 183.945 75.025C183.461 74.775 182.686 74.5 181.62 74.2C180.586 73.9167 179.745 73.6417 179.095 73.375C178.445 73.1083 177.878 72.7 177.395 72.15C176.928 71.6 176.695 70.875 176.695 69.975C176.695 69.2417 176.911 68.575 177.345 67.975C177.778 67.3583 178.395 66.875 179.195 66.525C180.011 66.175 180.945 66 181.995 66C183.561 66 184.82 66.4 185.77 67.2C186.736 67.9833 187.253 69.0583 187.32 70.425H184.47C184.42 69.8083 184.17 69.3167 183.72 68.95C183.27 68.5833 182.661 68.4 181.895 68.4C181.145 68.4 180.57 68.5417 180.17 68.825C179.77 69.1083 179.57 69.4833 179.57 69.95C179.57 70.3167 179.703 70.625 179.97 70.875C180.236 71.125 180.561 71.325 180.945 71.475C181.328 71.6083 181.895 71.7833 182.645 72C183.645 72.2667 184.461 72.5417 185.095 72.825C185.745 73.0917 186.303 73.4917 186.77 74.025C187.236 74.5583 187.478 75.2667 187.495 76.15C187.495 76.9333 187.278 77.6333 186.845 78.25C186.411 78.8667 185.795 79.35 184.995 79.7C184.211 80.05 183.286 80.225 182.22 80.225ZM196.549 80.225C195.249 80.225 194.074 79.9333 193.024 79.35C191.974 78.75 191.149 77.9167 190.549 76.85C189.949 75.7667 189.649 74.5167 189.649 73.1C189.649 71.7 189.958 70.4583 190.574 69.375C191.191 68.2917 192.033 67.4583 193.099 66.875C194.166 66.2917 195.358 66 196.674 66C197.991 66 199.183 66.2917 200.249 66.875C201.316 67.4583 202.158 68.2917 202.774 69.375C203.391 70.4583 203.699 71.7 203.699 73.1C203.699 74.5 203.383 75.7417 202.749 76.825C202.116 77.9083 201.249 78.75 200.149 79.35C199.066 79.9333 197.866 80.225 196.549 80.225ZM196.549 77.75C197.283 77.75 197.966 77.575 198.599 77.225C199.249 76.875 199.774 76.35 200.174 75.65C200.574 74.95 200.774 74.1 200.774 73.1C200.774 72.1 200.583 71.2583 200.199 70.575C199.816 69.875 199.308 69.35 198.674 69C198.041 68.65 197.358 68.475 196.624 68.475C195.891 68.475 195.208 68.65 194.574 69C193.958 69.35 193.466 69.875 193.099 70.575C192.733 71.2583 192.549 72.1 192.549 73.1C192.549 74.5833 192.924 75.7333 193.674 76.55C194.441 77.35 195.399 77.75 196.549 77.75ZM209.367 68.225C209.783 67.525 210.333 66.9833 211.017 66.6C211.717 66.2 212.542 66 213.492 66V68.95H212.767C211.65 68.95 210.8 69.2333 210.217 69.8C209.65 70.3667 209.367 71.35 209.367 72.75V80H206.517V66.225H209.367V68.225ZM217.561 64.4C217.045 64.4 216.611 64.225 216.261 63.875C215.911 63.525 215.736 63.0917 215.736 62.575C215.736 62.0583 215.911 61.625 216.261 61.275C216.611 60.925 217.045 60.75 217.561 60.75C218.061 60.75 218.486 60.925 218.836 61.275C219.186 61.625 219.361 62.0583 219.361 62.575C219.361 63.0917 219.186 63.525 218.836 63.875C218.486 64.225 218.061 64.4 217.561 64.4ZM218.961 66.225V80H216.111V66.225H218.961ZM235.328 72.775C235.328 73.2917 235.295 73.7583 235.228 74.175H224.703C224.786 75.275 225.195 76.1583 225.928 76.825C226.661 77.4917 227.561 77.825 228.628 77.825C230.161 77.825 231.245 77.1833 231.878 75.9H234.953C234.536 77.1667 233.778 78.2083 232.678 79.025C231.595 79.825 230.245 80.225 228.628 80.225C227.311 80.225 226.128 79.9333 225.078 79.35C224.045 78.75 223.228 77.9167 222.628 76.85C222.045 75.7667 221.753 74.5167 221.753 73.1C221.753 71.6833 222.036 70.4417 222.603 69.375C223.186 68.2917 223.995 67.4583 225.028 66.875C226.078 66.2917 227.278 66 228.628 66C229.928 66 231.086 66.2833 232.103 66.85C233.12 67.4167 233.911 68.2167 234.478 69.25C235.045 70.2667 235.328 71.4417 235.328 72.775ZM232.353 71.875C232.336 70.825 231.961 69.9833 231.228 69.35C230.495 68.7167 229.586 68.4 228.503 68.4C227.52 68.4 226.678 68.7167 225.978 69.35C225.278 69.9667 224.861 70.8083 224.728 71.875H232.353ZM243.133 80.225C242.049 80.225 241.074 80.0333 240.208 79.65C239.358 79.25 238.683 78.7167 238.183 78.05C237.683 77.3667 237.416 76.6083 237.383 75.775H240.333C240.383 76.3583 240.658 76.85 241.158 77.25C241.674 77.6333 242.316 77.825 243.083 77.825C243.883 77.825 244.499 77.675 244.933 77.375C245.383 77.0583 245.608 76.6583 245.608 76.175C245.608 75.6583 245.358 75.275 244.858 75.025C244.374 74.775 243.599 74.5 242.533 74.2C241.499 73.9167 240.658 73.6417 240.008 73.375C239.358 73.1083 238.791 72.7 238.308 72.15C237.841 71.6 237.608 70.875 237.608 69.975C237.608 69.2417 237.824 68.575 238.258 67.975C238.691 67.3583 239.308 66.875 240.108 66.525C240.924 66.175 241.858 66 242.908 66C244.474 66 245.733 66.4 246.683 67.2C247.649 67.9833 248.166 69.0583 248.233 70.425H245.383C245.333 69.8083 245.083 69.3167 244.633 68.95C244.183 68.5833 243.574 68.4 242.808 68.4C242.058 68.4 241.483 68.5417 241.083 68.825C240.683 69.1083 240.483 69.4833 240.483 69.95C240.483 70.3167 240.616 70.625 240.883 70.875C241.149 71.125 241.474 71.325 241.858 71.475C242.241 71.6083 242.808 71.7833 243.558 72C244.558 72.2667 245.374 72.5417 246.008 72.825C246.658 73.0917 247.216 73.4917 247.683 74.025C248.149 74.5583 248.391 75.2667 248.408 76.15C248.408 76.9333 248.191 77.6333 247.758 78.25C247.324 78.8667 246.708 79.35 245.908 79.7C245.124 80.05 244.199 80.225 243.133 80.225Z" fill="#1E2A39"/>
<path opacity="0.6" d="M76.4458 10.816H80.3498V12H74.9898V0.848H76.4458V10.816ZM83.3521 0.848V12H81.8961V0.848H83.3521ZM97.1456 0.927999V12H95.6896V3.744L92.0096 12H90.9856L87.2896 3.728V12H85.8336V0.927999H87.4016L91.4976 10.08L95.5936 0.927999H97.1456ZM101.071 0.848V12H99.6148V0.848H101.071ZM110.416 0.848V2.032H107.376V12H105.92V2.032H102.864V0.848H110.416ZM113.665 2.032V5.76H117.729V6.96H113.665V10.8H118.209V12H112.209V0.832H118.209V2.032H113.665ZM123.884 0.848C125.1 0.848 126.15 1.07733 127.036 1.536C127.932 1.984 128.614 2.62933 129.084 3.472C129.564 4.31467 129.804 5.30667 129.804 6.448C129.804 7.58933 129.564 8.58133 129.084 9.424C128.614 10.256 127.932 10.896 127.036 11.344C126.15 11.7813 125.1 12 123.884 12H120.412V0.848H123.884ZM123.884 10.8C125.324 10.8 126.422 10.4213 127.18 9.664C127.937 8.896 128.316 7.824 128.316 6.448C128.316 5.06133 127.932 3.97867 127.164 3.2C126.406 2.42133 125.313 2.032 123.884 2.032H121.868V10.8H123.884ZM142.854 0.848V2.032H139.814V12H138.358V2.032H135.302V0.848H142.854ZM146.102 0.848V12H144.646V0.848H146.102ZM159.896 0.927999V12H158.44V3.744L154.76 12H153.736L150.04 3.728V12H148.584V0.927999H150.152L154.248 10.08L158.344 0.927999H159.896ZM163.821 2.032V5.76H167.885V6.96H163.821V10.8H168.365V12H162.365V0.832H168.365V2.032H163.821ZM179.89 12.112C178.855 12.112 177.911 11.872 177.058 11.392C176.204 10.9013 175.527 10.224 175.026 9.36C174.535 8.48533 174.29 7.504 174.29 6.416C174.29 5.328 174.535 4.352 175.026 3.488C175.527 2.61333 176.204 1.936 177.058 1.456C177.911 0.965333 178.855 0.719999 179.89 0.719999C180.935 0.719999 181.884 0.965333 182.738 1.456C183.591 1.936 184.263 2.608 184.754 3.472C185.244 4.336 185.49 5.31733 185.49 6.416C185.49 7.51467 185.244 8.496 184.754 9.36C184.263 10.224 183.591 10.9013 182.738 11.392C181.884 11.872 180.935 12.112 179.89 12.112ZM179.89 10.848C180.668 10.848 181.367 10.6667 181.986 10.304C182.615 9.94133 183.106 9.424 183.458 8.752C183.82 8.08 184.002 7.30133 184.002 6.416C184.002 5.52 183.82 4.74133 183.458 4.08C183.106 3.408 182.62 2.89067 182.002 2.528C181.383 2.16533 180.679 1.984 179.89 1.984C179.1 1.984 178.396 2.16533 177.778 2.528C177.159 2.89067 176.668 3.408 176.306 4.08C175.954 4.74133 175.778 5.52 175.778 6.416C175.778 7.30133 175.954 8.08 176.306 8.752C176.668 9.424 177.159 9.94133 177.778 10.304C178.407 10.6667 179.111 10.848 179.89 10.848ZM193.716 0.848V2.032H188.868V5.792H192.804V6.976H188.868V12H187.412V0.848H193.716ZM201.778 0.848V2.032H196.93V5.792H200.866V6.976H196.93V12H195.474V0.848H201.778ZM204.993 2.032V5.76H209.057V6.96H204.993V10.8H209.537V12H203.537V0.832H209.537V2.032H204.993ZM217.612 12L214.956 7.44H213.196V12H211.74V0.848H215.34C216.182 0.848 216.892 0.992 217.468 1.28C218.054 1.568 218.492 1.95733 218.78 2.448C219.068 2.93867 219.212 3.49867 219.212 4.128C219.212 4.896 218.988 5.57333 218.54 6.16C218.102 6.74667 217.441 7.136 216.556 7.328L219.356 12H217.612ZM213.196 6.272H215.34C216.129 6.272 216.721 6.08 217.116 5.696C217.51 5.30133 217.708 4.77867 217.708 4.128C217.708 3.46667 217.51 2.95467 217.116 2.592C216.732 2.22933 216.14 2.048 215.34 2.048H213.196V6.272Z" fill="black"/>
</svg>
