<svg width="310" height="101" viewBox="0 0 310 101" fill="none" xmlns="http://www.w3.org/2000/svg">
<path d="M72.2405 19.09V21.31H66.5405V40H63.8105V21.31H58.0805V19.09H72.2405ZM74.581 31.72C74.581 30.04 74.921 28.57 75.601 27.31C76.281 26.03 77.211 25.04 78.391 24.34C79.591 23.64 80.921 23.29 82.381 23.29C83.821 23.29 85.071 23.6 86.131 24.22C87.191 24.84 87.981 25.62 88.501 26.56V23.56H91.261V40H88.501V36.94C87.961 37.9 87.151 38.7 86.071 39.34C85.011 39.96 83.771 40.27 82.351 40.27C80.891 40.27 79.571 39.91 78.391 39.19C77.211 38.47 76.281 37.46 75.601 36.16C74.921 34.86 74.581 33.38 74.581 31.72ZM88.501 31.75C88.501 30.51 88.251 29.43 87.751 28.51C87.251 27.59 86.571 26.89 85.711 26.41C84.871 25.91 83.941 25.66 82.921 25.66C81.901 25.66 80.971 25.9 80.131 26.38C79.291 26.86 78.621 27.56 78.121 28.48C77.621 29.4 77.371 30.48 77.371 31.72C77.371 32.98 77.621 34.08 78.121 35.02C78.621 35.94 79.291 36.65 80.131 37.15C80.971 37.63 81.901 37.87 82.921 37.87C83.941 37.87 84.871 37.63 85.711 37.15C86.571 36.65 87.251 35.94 87.751 35.02C88.251 34.08 88.501 32.99 88.501 31.75ZM102.654 23.29C104.074 23.29 105.314 23.6 106.374 24.22C107.454 24.84 108.254 25.62 108.774 26.56V23.56H111.534V40.36C111.534 41.86 111.214 43.19 110.574 44.35C109.934 45.53 109.014 46.45 107.814 47.11C106.634 47.77 105.254 48.1 103.674 48.1C101.514 48.1 99.7145 47.59 98.2745 46.57C96.8345 45.55 95.9845 44.16 95.7245 42.4H98.4245C98.7245 43.4 99.3445 44.2 100.284 44.8C101.224 45.42 102.354 45.73 103.674 45.73C105.174 45.73 106.394 45.26 107.334 44.32C108.294 43.38 108.774 42.06 108.774 40.36V36.91C108.234 37.87 107.434 38.67 106.374 39.31C105.314 39.95 104.074 40.27 102.654 40.27C101.194 40.27 99.8645 39.91 98.6645 39.19C97.4845 38.47 96.5545 37.46 95.8745 36.16C95.1945 34.86 94.8545 33.38 94.8545 31.72C94.8545 30.04 95.1945 28.57 95.8745 27.31C96.5545 26.03 97.4845 25.04 98.6645 24.34C99.8645 23.64 101.194 23.29 102.654 23.29ZM108.774 31.75C108.774 30.51 108.524 29.43 108.024 28.51C107.524 27.59 106.844 26.89 105.984 26.41C105.144 25.91 104.214 25.66 103.194 25.66C102.174 25.66 101.244 25.9 100.404 26.38C99.5645 26.86 98.8945 27.56 98.3945 28.48C97.8945 29.4 97.6445 30.48 97.6445 31.72C97.6445 32.98 97.8945 34.08 98.3945 35.02C98.8945 35.94 99.5645 36.65 100.404 37.15C101.244 37.63 102.174 37.87 103.194 37.87C104.214 37.87 105.144 37.63 105.984 37.15C106.844 36.65 107.524 35.94 108.024 35.02C108.524 34.08 108.774 32.99 108.774 31.75ZM125.556 20.89C125.036 20.89 124.596 20.71 124.236 20.35C123.876 19.99 123.696 19.55 123.696 19.03C123.696 18.51 123.876 18.07 124.236 17.71C124.596 17.35 125.036 17.17 125.556 17.17C126.056 17.17 126.476 17.35 126.816 17.71C127.176 18.07 127.356 18.51 127.356 19.03C127.356 19.55 127.176 19.99 126.816 20.35C126.476 20.71 126.056 20.89 125.556 20.89ZM126.876 23.56V40H124.146V23.56H126.876ZM134.859 25.81V35.5C134.859 36.3 135.029 36.87 135.369 37.21C135.709 37.53 136.299 37.69 137.139 37.69H139.149V40H136.689C135.169 40 134.029 39.65 133.269 38.95C132.509 38.25 132.129 37.1 132.129 35.5V25.81H129.999V23.56H132.129V19.42H134.859V23.56H139.149V25.81H134.859ZM143.326 40.18C142.806 40.18 142.366 40 142.006 39.64C141.646 39.28 141.466 38.84 141.466 38.32C141.466 37.8 141.646 37.36 142.006 37C142.366 36.64 142.806 36.46 143.326 36.46C143.826 36.46 144.246 36.64 144.586 37C144.946 37.36 145.126 37.8 145.126 38.32C145.126 38.84 144.946 39.28 144.586 39.64C144.246 40 143.826 40.18 143.326 40.18ZM168.594 19.06V22.45H159.864V27.82H166.554V31.15H159.864V40H155.664V19.06H168.594ZM173.702 21.4C172.962 21.4 172.342 21.17 171.842 20.71C171.362 20.23 171.122 19.64 171.122 18.94C171.122 18.24 171.362 17.66 171.842 17.2C172.342 16.72 172.962 16.48 173.702 16.48C174.442 16.48 175.052 16.72 175.532 17.2C176.032 17.66 176.282 18.24 176.282 18.94C176.282 19.64 176.032 20.23 175.532 20.71C175.052 21.17 174.442 21.4 173.702 21.4ZM175.772 23.38V40H171.572V23.38H175.772ZM189.132 23.14C191.112 23.14 192.712 23.77 193.932 25.03C195.152 26.27 195.762 28.01 195.762 30.25V40H191.562V30.82C191.562 29.5 191.232 28.49 190.572 27.79C189.912 27.07 189.012 26.71 187.872 26.71C186.712 26.71 185.792 27.07 185.112 27.79C184.452 28.49 184.122 29.5 184.122 30.82V40H179.922V23.38H184.122V25.45C184.682 24.73 185.392 24.17 186.252 23.77C187.132 23.35 188.092 23.14 189.132 23.14ZM198.676 31.63C198.676 29.95 199.006 28.46 199.666 27.16C200.346 25.86 201.266 24.86 202.426 24.16C203.586 23.46 204.876 23.11 206.296 23.11C207.376 23.11 208.406 23.35 209.386 23.83C210.366 24.29 211.146 24.91 211.726 25.69V17.8H215.986V40H211.726V37.54C211.206 38.36 210.476 39.02 209.536 39.52C208.596 40.02 207.506 40.27 206.266 40.27C204.866 40.27 203.586 39.91 202.426 39.19C201.266 38.47 200.346 37.46 199.666 36.16C199.006 34.84 198.676 33.33 198.676 31.63ZM211.756 31.69C211.756 30.67 211.556 29.8 211.156 29.08C210.756 28.34 210.216 27.78 209.536 27.4C208.856 27 208.126 26.8 207.346 26.8C206.566 26.8 205.846 26.99 205.186 27.37C204.526 27.75 203.986 28.31 203.566 29.05C203.166 29.77 202.966 30.63 202.966 31.63C202.966 32.63 203.166 33.51 203.566 34.27C203.986 35.01 204.526 35.58 205.186 35.98C205.866 36.38 206.586 36.58 207.346 36.58C208.126 36.58 208.856 36.39 209.536 36.01C210.216 35.61 210.756 35.05 211.156 34.33C211.556 33.59 211.756 32.71 211.756 31.69ZM229.366 21.4C228.626 21.4 228.006 21.17 227.506 20.71C227.026 20.23 226.786 19.64 226.786 18.94C226.786 18.24 227.026 17.66 227.506 17.2C228.006 16.72 228.626 16.48 229.366 16.48C230.106 16.48 230.716 16.72 231.196 17.2C231.696 17.66 231.946 18.24 231.946 18.94C231.946 19.64 231.696 20.23 231.196 20.71C230.716 21.17 230.106 21.4 229.366 21.4ZM231.436 23.38V40H227.236V23.38H231.436ZM240.476 26.83V34.87C240.476 35.43 240.606 35.84 240.866 36.1C241.146 36.34 241.606 36.46 242.246 36.46H244.196V40H241.556C238.016 40 236.246 38.28 236.246 34.84V26.83H234.266V23.38H236.246V19.27H240.476V23.38H244.196V26.83H240.476ZM249.076 40.21C248.316 40.21 247.686 39.98 247.186 39.52C246.706 39.04 246.466 38.45 246.466 37.75C246.466 37.05 246.706 36.47 247.186 36.01C247.686 35.53 248.316 35.29 249.076 35.29C249.816 35.29 250.426 35.53 250.906 36.01C251.386 36.47 251.626 37.05 251.626 37.75C251.626 38.45 251.386 39.04 250.906 39.52C250.426 39.98 249.816 40.21 249.076 40.21Z" fill="#1E2A39"/>
<path d="M25.436 63.312V73H24.162V65.776L20.942 73H20.046L16.812 65.762V73H15.538V63.312H16.91L20.494 71.32L24.078 63.312H25.436ZM27.1206 69.136C27.1206 68.352 27.2792 67.666 27.5966 67.078C27.9139 66.4807 28.3479 66.0187 28.8986 65.692C29.4586 65.3653 30.0792 65.202 30.7606 65.202C31.4326 65.202 32.0159 65.3467 32.5106 65.636C33.0052 65.9253 33.3739 66.2893 33.6166 66.728V65.328H34.9046V73H33.6166V71.572C33.3646 72.02 32.9866 72.3933 32.4826 72.692C31.9879 72.9813 31.4092 73.126 30.7466 73.126C30.0652 73.126 29.4492 72.958 28.8986 72.622C28.3479 72.286 27.9139 71.8147 27.5966 71.208C27.2792 70.6013 27.1206 69.9107 27.1206 69.136ZM33.6166 69.15C33.6166 68.5713 33.4999 68.0673 33.2666 67.638C33.0332 67.2087 32.7159 66.882 32.3146 66.658C31.9226 66.4247 31.4886 66.308 31.0126 66.308C30.5366 66.308 30.1026 66.42 29.7106 66.644C29.3186 66.868 29.0059 67.1947 28.7726 67.624C28.5392 68.0533 28.4226 68.5573 28.4226 69.136C28.4226 69.724 28.5392 70.2373 28.7726 70.676C29.0059 71.1053 29.3186 71.4367 29.7106 71.67C30.1026 71.894 30.5366 72.006 31.0126 72.006C31.4886 72.006 31.9226 71.894 32.3146 71.67C32.7159 71.4367 33.0332 71.1053 33.2666 70.676C33.4999 70.2373 33.6166 69.7287 33.6166 69.15ZM39.7735 73.126C39.1855 73.126 38.6582 73.028 38.1915 72.832C37.7248 72.6267 37.3562 72.3467 37.0855 71.992C36.8148 71.628 36.6655 71.2127 36.6375 70.746H37.9535C37.9908 71.1287 38.1682 71.4413 38.4855 71.684C38.8122 71.9267 39.2368 72.048 39.7595 72.048C40.2448 72.048 40.6275 71.9407 40.9075 71.726C41.1875 71.5113 41.3275 71.2407 41.3275 70.914C41.3275 70.578 41.1782 70.3307 40.8795 70.172C40.5808 70.004 40.1188 69.8407 39.4935 69.682C38.9242 69.5327 38.4575 69.3833 38.0935 69.234C37.7388 69.0753 37.4308 68.8467 37.1695 68.548C36.9175 68.24 36.7915 67.8387 36.7915 67.344C36.7915 66.952 36.9082 66.5927 37.1415 66.266C37.3748 65.9393 37.7062 65.6827 38.1355 65.496C38.5648 65.3 39.0548 65.202 39.6055 65.202C40.4548 65.202 41.1408 65.4167 41.6635 65.846C42.1862 66.2753 42.4662 66.8633 42.5035 67.61H41.2295C41.2015 67.2087 41.0382 66.8867 40.7395 66.644C40.4502 66.4013 40.0582 66.28 39.5635 66.28C39.1062 66.28 38.7422 66.378 38.4715 66.574C38.2008 66.77 38.0655 67.0267 38.0655 67.344C38.0655 67.596 38.1448 67.806 38.3035 67.974C38.4715 68.1327 38.6768 68.2633 38.9195 68.366C39.1715 68.4593 39.5168 68.5667 39.9555 68.688C40.5062 68.8373 40.9542 68.9867 41.2995 69.136C41.6448 69.276 41.9388 69.4907 42.1815 69.78C42.4335 70.0693 42.5642 70.4473 42.5735 70.914C42.5735 71.334 42.4568 71.712 42.2235 72.048C41.9902 72.384 41.6588 72.65 41.2295 72.846C40.8095 73.0327 40.3242 73.126 39.7735 73.126ZM45.9259 66.378V70.9C45.9259 71.2733 46.0053 71.5393 46.1639 71.698C46.3226 71.8473 46.5979 71.922 46.9899 71.922H47.9279V73H46.7799C46.0706 73 45.5386 72.8367 45.1839 72.51C44.8293 72.1833 44.6519 71.6467 44.6519 70.9V66.378H43.6579V65.328H44.6519V63.396H45.9259V65.328H47.9279V66.378H45.9259ZM56.4716 68.87C56.4716 69.1127 56.4576 69.3693 56.4296 69.64H50.2976C50.3442 70.396 50.6009 70.9887 51.0676 71.418C51.5436 71.838 52.1176 72.048 52.7896 72.048C53.3402 72.048 53.7976 71.922 54.1616 71.67C54.5349 71.4087 54.7962 71.0633 54.9456 70.634H56.3176C56.1122 71.3713 55.7016 71.9733 55.0856 72.44C54.4696 72.8973 53.7042 73.126 52.7896 73.126C52.0616 73.126 51.4082 72.9627 50.8296 72.636C50.2602 72.3093 49.8122 71.8473 49.4856 71.25C49.1589 70.6433 48.9956 69.9433 48.9956 69.15C48.9956 68.3567 49.1542 67.6613 49.4716 67.064C49.7889 66.4667 50.2322 66.0093 50.8016 65.692C51.3802 65.3653 52.0429 65.202 52.7896 65.202C53.5176 65.202 54.1616 65.3607 54.7216 65.678C55.2816 65.9953 55.7109 66.434 56.0096 66.994C56.3176 67.5447 56.4716 68.17 56.4716 68.87ZM55.1556 68.604C55.1556 68.1187 55.0482 67.7033 54.8336 67.358C54.6189 67.0033 54.3249 66.7373 53.9516 66.56C53.5876 66.3733 53.1816 66.28 52.7336 66.28C52.0896 66.28 51.5389 66.4853 51.0816 66.896C50.6336 67.3067 50.3769 67.876 50.3116 68.604H55.1556ZM59.4272 66.574C59.6512 66.1353 59.9685 65.7947 60.3792 65.552C60.7992 65.3093 61.3079 65.188 61.9052 65.188V66.504H61.5692C60.1412 66.504 59.4272 67.2787 59.4272 68.828V73H58.1532V65.328H59.4272V66.574ZM69.3819 63.242V64.278H66.7219V73H65.4479V64.278H62.7739V63.242H69.3819ZM70.4741 69.136C70.4741 68.352 70.6327 67.666 70.9501 67.078C71.2674 66.4807 71.7014 66.0187 72.2521 65.692C72.8121 65.3653 73.4327 65.202 74.1141 65.202C74.7861 65.202 75.3694 65.3467 75.8641 65.636C76.3587 65.9253 76.7274 66.2893 76.9701 66.728V65.328H78.2581V73H76.9701V71.572C76.7181 72.02 76.3401 72.3933 75.8361 72.692C75.3414 72.9813 74.7627 73.126 74.1001 73.126C73.4187 73.126 72.8027 72.958 72.2521 72.622C71.7014 72.286 71.2674 71.8147 70.9501 71.208C70.6327 70.6013 70.4741 69.9107 70.4741 69.136ZM76.9701 69.15C76.9701 68.5713 76.8534 68.0673 76.6201 67.638C76.3867 67.2087 76.0694 66.882 75.6681 66.658C75.2761 66.4247 74.8421 66.308 74.3661 66.308C73.8901 66.308 73.4561 66.42 73.0641 66.644C72.6721 66.868 72.3594 67.1947 72.1261 67.624C71.8927 68.0533 71.7761 68.5573 71.7761 69.136C71.7761 69.724 71.8927 70.2373 72.1261 70.676C72.3594 71.1053 72.6721 71.4367 73.0641 71.67C73.4561 71.894 73.8901 72.006 74.3661 72.006C74.8421 72.006 75.2761 71.894 75.6681 71.67C76.0694 71.4367 76.3867 71.1053 76.6201 70.676C76.8534 70.2373 76.9701 69.7287 76.9701 69.15ZM83.575 65.202C84.2377 65.202 84.8163 65.3467 85.311 65.636C85.815 65.9253 86.1883 66.2893 86.431 66.728V65.328H87.719V73.168C87.719 73.868 87.5697 74.4887 87.271 75.03C86.9723 75.5807 86.543 76.01 85.983 76.318C85.4323 76.626 84.7883 76.78 84.051 76.78C83.043 76.78 82.203 76.542 81.531 76.066C80.859 75.59 80.4623 74.9413 80.341 74.12H81.601C81.741 74.5867 82.0303 74.96 82.469 75.24C82.9077 75.5293 83.435 75.674 84.051 75.674C84.751 75.674 85.3203 75.4547 85.759 75.016C86.207 74.5773 86.431 73.9613 86.431 73.168V71.558C86.179 72.006 85.8057 72.3793 85.311 72.678C84.8163 72.9767 84.2377 73.126 83.575 73.126C82.8937 73.126 82.273 72.958 81.713 72.622C81.1623 72.286 80.7283 71.8147 80.411 71.208C80.0937 70.6013 79.935 69.9107 79.935 69.136C79.935 68.352 80.0937 67.666 80.411 67.078C80.7283 66.4807 81.1623 66.0187 81.713 65.692C82.273 65.3653 82.8937 65.202 83.575 65.202ZM86.431 69.15C86.431 68.5713 86.3143 68.0673 86.081 67.638C85.8477 67.2087 85.5303 66.882 85.129 66.658C84.737 66.4247 84.303 66.308 83.827 66.308C83.351 66.308 82.917 66.42 82.525 66.644C82.133 66.868 81.8203 67.1947 81.587 67.624C81.3537 68.0533 81.237 68.5573 81.237 69.136C81.237 69.724 81.3537 70.2373 81.587 70.676C81.8203 71.1053 82.133 71.4367 82.525 71.67C82.917 71.894 83.351 72.006 83.827 72.006C84.303 72.006 84.737 71.894 85.129 71.67C85.5303 71.4367 85.8477 71.1053 86.081 70.676C86.3143 70.2373 86.431 69.7287 86.431 69.15ZM94.2624 64.082C94.0197 64.082 93.8144 63.998 93.6464 63.83C93.4784 63.662 93.3944 63.4567 93.3944 63.214C93.3944 62.9713 93.4784 62.766 93.6464 62.598C93.8144 62.43 94.0197 62.346 94.2624 62.346C94.4957 62.346 94.6917 62.43 94.8504 62.598C95.0184 62.766 95.1024 62.9713 95.1024 63.214C95.1024 63.4567 95.0184 63.662 94.8504 63.83C94.6917 63.998 94.4957 64.082 94.2624 64.082ZM94.8784 65.328V73H93.6044V65.328H94.8784ZM99.7657 73.126C99.1777 73.126 98.6503 73.028 98.1837 72.832C97.717 72.6267 97.3483 72.3467 97.0777 71.992C96.807 71.628 96.6577 71.2127 96.6297 70.746H97.9457C97.983 71.1287 98.1603 71.4413 98.4777 71.684C98.8043 71.9267 99.229 72.048 99.7517 72.048C100.237 72.048 100.62 71.9407 100.9 71.726C101.18 71.5113 101.32 71.2407 101.32 70.914C101.32 70.578 101.17 70.3307 100.872 70.172C100.573 70.004 100.111 69.8407 99.4857 69.682C98.9163 69.5327 98.4497 69.3833 98.0857 69.234C97.731 69.0753 97.423 68.8467 97.1617 68.548C96.9097 68.24 96.7837 67.8387 96.7837 67.344C96.7837 66.952 96.9003 66.5927 97.1337 66.266C97.367 65.9393 97.6983 65.6827 98.1277 65.496C98.557 65.3 99.047 65.202 99.5977 65.202C100.447 65.202 101.133 65.4167 101.656 65.846C102.178 66.2753 102.458 66.8633 102.496 67.61H101.222C101.194 67.2087 101.03 66.8867 100.732 66.644C100.442 66.4013 100.05 66.28 99.5557 66.28C99.0983 66.28 98.7343 66.378 98.4637 66.574C98.193 66.77 98.0577 67.0267 98.0577 67.344C98.0577 67.596 98.137 67.806 98.2957 67.974C98.4637 68.1327 98.669 68.2633 98.9117 68.366C99.1637 68.4593 99.509 68.5667 99.9477 68.688C100.498 68.8373 100.946 68.9867 101.292 69.136C101.637 69.276 101.931 69.4907 102.174 69.78C102.426 70.0693 102.556 70.4473 102.566 70.914C102.566 71.334 102.449 71.712 102.216 72.048C101.982 72.384 101.651 72.65 101.222 72.846C100.802 73.0327 100.316 73.126 99.7657 73.126ZM107.621 69.136C107.621 68.352 107.779 67.666 108.097 67.078C108.414 66.4807 108.848 66.0187 109.399 65.692C109.959 65.3653 110.579 65.202 111.261 65.202C111.933 65.202 112.516 65.3467 113.011 65.636C113.505 65.9253 113.874 66.2893 114.117 66.728V65.328H115.405V73H114.117V71.572C113.865 72.02 113.487 72.3933 112.983 72.692C112.488 72.9813 111.909 73.126 111.247 73.126C110.565 73.126 109.949 72.958 109.399 72.622C108.848 72.286 108.414 71.8147 108.097 71.208C107.779 70.6013 107.621 69.9107 107.621 69.136ZM114.117 69.15C114.117 68.5713 114 68.0673 113.767 67.638C113.533 67.2087 113.216 66.882 112.815 66.658C112.423 66.4247 111.989 66.308 111.513 66.308C111.037 66.308 110.603 66.42 110.211 66.644C109.819 66.868 109.506 67.1947 109.273 67.624C109.039 68.0533 108.923 68.5573 108.923 69.136C108.923 69.724 109.039 70.2373 109.273 70.676C109.506 71.1053 109.819 71.4367 110.211 71.67C110.603 71.894 111.037 72.006 111.513 72.006C111.989 72.006 112.423 71.894 112.815 71.67C113.216 71.4367 113.533 71.1053 113.767 70.676C114 70.2373 114.117 69.7287 114.117 69.15ZM124.006 73.126C123.418 73.126 122.891 73.028 122.424 72.832C121.957 72.6267 121.589 72.3467 121.318 71.992C121.047 71.628 120.898 71.2127 120.87 70.746H122.186C122.223 71.1287 122.401 71.4413 122.718 71.684C123.045 71.9267 123.469 72.048 123.992 72.048C124.477 72.048 124.86 71.9407 125.14 71.726C125.42 71.5113 125.56 71.2407 125.56 70.914C125.56 70.578 125.411 70.3307 125.112 70.172C124.813 70.004 124.351 69.8407 123.726 69.682C123.157 69.5327 122.69 69.3833 122.326 69.234C121.971 69.0753 121.663 68.8467 121.402 68.548C121.15 68.24 121.024 67.8387 121.024 67.344C121.024 66.952 121.141 66.5927 121.374 66.266C121.607 65.9393 121.939 65.6827 122.368 65.496C122.797 65.3 123.287 65.202 123.838 65.202C124.687 65.202 125.373 65.4167 125.896 65.846C126.419 66.2753 126.699 66.8633 126.736 67.61H125.462C125.434 67.2087 125.271 66.8867 124.972 66.644C124.683 66.4013 124.291 66.28 123.796 66.28C123.339 66.28 122.975 66.378 122.704 66.574C122.433 66.77 122.298 67.0267 122.298 67.344C122.298 67.596 122.377 67.806 122.536 67.974C122.704 68.1327 122.909 68.2633 123.152 68.366C123.404 68.4593 123.749 68.5667 124.188 68.688C124.739 68.8373 125.187 68.9867 125.532 69.136C125.877 69.276 126.171 69.4907 126.414 69.78C126.666 70.0693 126.797 70.4473 126.806 70.914C126.806 71.334 126.689 71.712 126.456 72.048C126.223 72.384 125.891 72.65 125.462 72.846C125.042 73.0327 124.557 73.126 124.006 73.126ZM135.408 65.328V73H134.134V71.866C133.892 72.258 133.551 72.566 133.112 72.79C132.683 73.0047 132.207 73.112 131.684 73.112C131.087 73.112 130.55 72.9907 130.074 72.748C129.598 72.496 129.22 72.1227 128.94 71.628C128.67 71.1333 128.534 70.5313 128.534 69.822V65.328H129.794V69.654C129.794 70.41 129.986 70.9933 130.368 71.404C130.751 71.8053 131.274 72.006 131.936 72.006C132.618 72.006 133.154 71.796 133.546 71.376C133.938 70.956 134.134 70.3447 134.134 69.542V65.328H135.408ZM138.833 66.742C139.085 66.3033 139.459 65.9393 139.953 65.65C140.457 65.3513 141.041 65.202 141.703 65.202C142.385 65.202 143.001 65.3653 143.551 65.692C144.111 66.0187 144.55 66.4807 144.867 67.078C145.185 67.666 145.343 68.352 145.343 69.136C145.343 69.9107 145.185 70.6013 144.867 71.208C144.55 71.8147 144.111 72.286 143.551 72.622C143.001 72.958 142.385 73.126 141.703 73.126C141.05 73.126 140.471 72.9813 139.967 72.692C139.473 72.3933 139.095 72.0247 138.833 71.586V76.64H137.559V65.328H138.833V66.742ZM144.041 69.136C144.041 68.5573 143.925 68.0533 143.691 67.624C143.458 67.1947 143.141 66.868 142.739 66.644C142.347 66.42 141.913 66.308 141.437 66.308C140.971 66.308 140.537 66.4247 140.135 66.658C139.743 66.882 139.426 67.2133 139.183 67.652C138.95 68.0813 138.833 68.5807 138.833 69.15C138.833 69.7287 138.95 70.2373 139.183 70.676C139.426 71.1053 139.743 71.4367 140.135 71.67C140.537 71.894 140.971 72.006 141.437 72.006C141.913 72.006 142.347 71.894 142.739 71.67C143.141 71.4367 143.458 71.1053 143.691 70.676C143.925 70.2373 144.041 69.724 144.041 69.136ZM154.02 68.87C154.02 69.1127 154.006 69.3693 153.978 69.64H147.846C147.893 70.396 148.15 70.9887 148.616 71.418C149.092 71.838 149.666 72.048 150.338 72.048C150.889 72.048 151.346 71.922 151.71 71.67C152.084 71.4087 152.345 71.0633 152.494 70.634H153.866C153.661 71.3713 153.25 71.9733 152.634 72.44C152.018 72.8973 151.253 73.126 150.338 73.126C149.61 73.126 148.957 72.9627 148.378 72.636C147.809 72.3093 147.361 71.8473 147.034 71.25C146.708 70.6433 146.544 69.9433 146.544 69.15C146.544 68.3567 146.703 67.6613 147.02 67.064C147.338 66.4667 147.781 66.0093 148.35 65.692C148.929 65.3653 149.592 65.202 150.338 65.202C151.066 65.202 151.71 65.3607 152.27 65.678C152.83 65.9953 153.26 66.434 153.558 66.994C153.866 67.5447 154.02 68.17 154.02 68.87ZM152.704 68.604C152.704 68.1187 152.597 67.7033 152.382 67.358C152.168 67.0033 151.874 66.7373 151.5 66.56C151.136 66.3733 150.73 66.28 150.282 66.28C149.638 66.28 149.088 66.4853 148.63 66.896C148.182 67.3067 147.926 67.876 147.86 68.604H152.704ZM156.976 66.574C157.2 66.1353 157.517 65.7947 157.928 65.552C158.348 65.3093 158.857 65.188 159.454 65.188V66.504H159.118C157.69 66.504 156.976 67.2787 156.976 68.828V73H155.702V65.328H156.976V66.574ZM166.245 67.33V68.408H160.659V67.33H166.245ZM175.636 68.87C175.636 69.1127 175.622 69.3693 175.594 69.64H169.462C169.508 70.396 169.765 70.9887 170.232 71.418C170.708 71.838 171.282 72.048 171.954 72.048C172.504 72.048 172.962 71.922 173.326 71.67C173.699 71.4087 173.96 71.0633 174.11 70.634H175.482C175.276 71.3713 174.866 71.9733 174.25 72.44C173.634 72.8973 172.868 73.126 171.954 73.126C171.226 73.126 170.572 72.9627 169.994 72.636C169.424 72.3093 168.976 71.8473 168.65 71.25C168.323 70.6433 168.16 69.9433 168.16 69.15C168.16 68.3567 168.318 67.6613 168.636 67.064C168.953 66.4667 169.396 66.0093 169.966 65.692C170.544 65.3653 171.207 65.202 171.954 65.202C172.682 65.202 173.326 65.3607 173.886 65.678C174.446 65.9953 174.875 66.434 175.174 66.994C175.482 67.5447 175.636 68.17 175.636 68.87ZM174.32 68.604C174.32 68.1187 174.212 67.7033 173.998 67.358C173.783 67.0033 173.489 66.7373 173.116 66.56C172.752 66.3733 172.346 66.28 171.898 66.28C171.254 66.28 170.703 66.4853 170.246 66.896C169.798 67.3067 169.541 67.876 169.476 68.604H174.32ZM176.841 69.136C176.841 68.352 177 67.666 177.317 67.078C177.635 66.4807 178.069 66.0187 178.619 65.692C179.179 65.3653 179.8 65.202 180.481 65.202C181.153 65.202 181.737 65.3467 182.231 65.636C182.726 65.9253 183.095 66.2893 183.337 66.728V65.328H184.625V73H183.337V71.572C183.085 72.02 182.707 72.3933 182.203 72.692C181.709 72.9813 181.13 73.126 180.467 73.126C179.786 73.126 179.17 72.958 178.619 72.622C178.069 72.286 177.635 71.8147 177.317 71.208C177 70.6013 176.841 69.9107 176.841 69.136ZM183.337 69.15C183.337 68.5713 183.221 68.0673 182.987 67.638C182.754 67.2087 182.437 66.882 182.035 66.658C181.643 66.4247 181.209 66.308 180.733 66.308C180.257 66.308 179.823 66.42 179.431 66.644C179.039 66.868 178.727 67.1947 178.493 67.624C178.26 68.0533 178.143 68.5573 178.143 69.136C178.143 69.724 178.26 70.2373 178.493 70.676C178.727 71.1053 179.039 71.4367 179.431 71.67C179.823 71.894 180.257 72.006 180.733 72.006C181.209 72.006 181.643 71.894 182.035 71.67C182.437 71.4367 182.754 71.1053 182.987 70.676C183.221 70.2373 183.337 69.7287 183.337 69.15ZM189.494 73.126C188.906 73.126 188.379 73.028 187.912 72.832C187.446 72.6267 187.077 72.3467 186.806 71.992C186.536 71.628 186.386 71.2127 186.358 70.746H187.674C187.712 71.1287 187.889 71.4413 188.206 71.684C188.533 71.9267 188.958 72.048 189.48 72.048C189.966 72.048 190.348 71.9407 190.628 71.726C190.908 71.5113 191.048 71.2407 191.048 70.914C191.048 70.578 190.899 70.3307 190.6 70.172C190.302 70.004 189.84 69.8407 189.214 69.682C188.645 69.5327 188.178 69.3833 187.814 69.234C187.46 69.0753 187.152 68.8467 186.89 68.548C186.638 68.24 186.512 67.8387 186.512 67.344C186.512 66.952 186.629 66.5927 186.862 66.266C187.096 65.9393 187.427 65.6827 187.856 65.496C188.286 65.3 188.776 65.202 189.326 65.202C190.176 65.202 190.862 65.4167 191.384 65.846C191.907 66.2753 192.187 66.8633 192.224 67.61H190.95C190.922 67.2087 190.759 66.8867 190.46 66.644C190.171 66.4013 189.779 66.28 189.284 66.28C188.827 66.28 188.463 66.378 188.192 66.574C187.922 66.77 187.786 67.0267 187.786 67.344C187.786 67.596 187.866 67.806 188.024 67.974C188.192 68.1327 188.398 68.2633 188.64 68.366C188.892 68.4593 189.238 68.5667 189.676 68.688C190.227 68.8373 190.675 68.9867 191.02 69.136C191.366 69.276 191.66 69.4907 191.902 69.78C192.154 70.0693 192.285 70.4473 192.294 70.914C192.294 71.334 192.178 71.712 191.944 72.048C191.711 72.384 191.38 72.65 190.95 72.846C190.53 73.0327 190.045 73.126 189.494 73.126ZM200.701 65.328L196.081 76.612H194.765L196.277 72.916L193.183 65.328H194.597L197.005 71.544L199.385 65.328H200.701ZM215.934 65.328L213.54 73H212.224L210.376 66.91L208.528 73H207.212L204.804 65.328H206.106L207.87 71.768L209.774 65.328H211.076L212.938 71.782L214.674 65.328H215.934ZM216.722 69.136C216.722 68.352 216.881 67.666 217.198 67.078C217.515 66.4807 217.949 66.0187 218.5 65.692C219.06 65.3653 219.681 65.202 220.362 65.202C221.034 65.202 221.617 65.3467 222.112 65.636C222.607 65.9253 222.975 66.2893 223.218 66.728V65.328H224.506V73H223.218V71.572C222.966 72.02 222.588 72.3933 222.084 72.692C221.589 72.9813 221.011 73.126 220.348 73.126C219.667 73.126 219.051 72.958 218.5 72.622C217.949 72.286 217.515 71.8147 217.198 71.208C216.881 70.6013 216.722 69.9107 216.722 69.136ZM223.218 69.15C223.218 68.5713 223.101 68.0673 222.868 67.638C222.635 67.2087 222.317 66.882 221.916 66.658C221.524 66.4247 221.09 66.308 220.614 66.308C220.138 66.308 219.704 66.42 219.312 66.644C218.92 66.868 218.607 67.1947 218.374 67.624C218.141 68.0533 218.024 68.5573 218.024 69.136C218.024 69.724 218.141 70.2373 218.374 70.676C218.607 71.1053 218.92 71.4367 219.312 71.67C219.704 71.894 220.138 72.006 220.614 72.006C221.09 72.006 221.524 71.894 221.916 71.67C222.317 71.4367 222.635 71.1053 222.868 70.676C223.101 70.2373 223.218 69.7287 223.218 69.15ZM233.267 65.328L228.647 76.612H227.331L228.843 72.916L225.749 65.328H227.163L229.571 71.544L231.951 65.328H233.267ZM239.834 66.378V70.9C239.834 71.2733 239.913 71.5393 240.072 71.698C240.231 71.8473 240.506 71.922 240.898 71.922H241.836V73H240.688C239.979 73 239.447 72.8367 239.092 72.51C238.737 72.1833 238.56 71.6467 238.56 70.9V66.378H237.566V65.328H238.56V63.396H239.834V65.328H241.836V66.378H239.834ZM246.726 73.126C246.007 73.126 245.354 72.9627 244.766 72.636C244.187 72.3093 243.73 71.8473 243.394 71.25C243.067 70.6433 242.904 69.9433 242.904 69.15C242.904 68.366 243.072 67.6753 243.408 67.078C243.753 66.4713 244.22 66.0093 244.808 65.692C245.396 65.3653 246.054 65.202 246.782 65.202C247.51 65.202 248.168 65.3653 248.756 65.692C249.344 66.0093 249.806 66.4667 250.142 67.064C250.487 67.6613 250.66 68.3567 250.66 69.15C250.66 69.9433 250.482 70.6433 250.128 71.25C249.782 71.8473 249.311 72.3093 248.714 72.636C248.116 72.9627 247.454 73.126 246.726 73.126ZM246.726 72.006C247.183 72.006 247.612 71.8987 248.014 71.684C248.415 71.4693 248.737 71.1473 248.98 70.718C249.232 70.2887 249.358 69.766 249.358 69.15C249.358 68.534 249.236 68.0113 248.994 67.582C248.751 67.1527 248.434 66.8353 248.042 66.63C247.65 66.4153 247.225 66.308 246.768 66.308C246.301 66.308 245.872 66.4153 245.48 66.63C245.097 66.8353 244.789 67.1527 244.556 67.582C244.322 68.0113 244.206 68.534 244.206 69.15C244.206 69.7753 244.318 70.3027 244.542 70.732C244.775 71.1613 245.083 71.4833 245.466 71.698C245.848 71.9033 246.268 72.006 246.726 72.006ZM259.189 66.378H257.579V73H256.305V66.378H255.311V65.328H256.305V64.782C256.305 63.9233 256.525 63.298 256.963 62.906C257.411 62.5047 258.125 62.304 259.105 62.304V63.368C258.545 63.368 258.149 63.48 257.915 63.704C257.691 63.9187 257.579 64.278 257.579 64.782V65.328H259.189V66.378ZM261.333 64.082C261.09 64.082 260.885 63.998 260.717 63.83C260.549 63.662 260.465 63.4567 260.465 63.214C260.465 62.9713 260.549 62.766 260.717 62.598C260.885 62.43 261.09 62.346 261.333 62.346C261.566 62.346 261.762 62.43 261.921 62.598C262.089 62.766 262.173 62.9713 262.173 63.214C262.173 63.4567 262.089 63.662 261.921 63.83C261.762 63.998 261.566 64.082 261.333 64.082ZM261.949 65.328V73H260.675V65.328H261.949ZM267.858 65.188C268.791 65.188 269.547 65.4727 270.126 66.042C270.705 66.602 270.994 67.414 270.994 68.478V73H269.734V68.66C269.734 67.8947 269.543 67.3113 269.16 66.91C268.777 66.4993 268.255 66.294 267.592 66.294C266.92 66.294 266.383 66.504 265.982 66.924C265.59 67.344 265.394 67.9553 265.394 68.758V73H264.12V65.328H265.394V66.42C265.646 66.028 265.987 65.7247 266.416 65.51C266.855 65.2953 267.335 65.188 267.858 65.188ZM272.599 69.136C272.599 68.352 272.758 67.666 273.075 67.078C273.392 66.4807 273.826 66.0187 274.377 65.692C274.937 65.3653 275.562 65.202 276.253 65.202C276.85 65.202 277.406 65.342 277.919 65.622C278.432 65.8927 278.824 66.252 279.095 66.7V62.64H280.383V73H279.095V71.558C278.843 72.0153 278.47 72.3933 277.975 72.692C277.48 72.9813 276.902 73.126 276.239 73.126C275.558 73.126 274.937 72.958 274.377 72.622C273.826 72.286 273.392 71.8147 273.075 71.208C272.758 70.6013 272.599 69.9107 272.599 69.136ZM279.095 69.15C279.095 68.5713 278.978 68.0673 278.745 67.638C278.512 67.2087 278.194 66.882 277.793 66.658C277.401 66.4247 276.967 66.308 276.491 66.308C276.015 66.308 275.581 66.42 275.189 66.644C274.797 66.868 274.484 67.1947 274.251 67.624C274.018 68.0533 273.901 68.5573 273.901 69.136C273.901 69.724 274.018 70.2373 274.251 70.676C274.484 71.1053 274.797 71.4367 275.189 71.67C275.581 71.894 276.015 72.006 276.491 72.006C276.967 72.006 277.401 71.894 277.793 71.67C278.194 71.4367 278.512 71.1053 278.745 70.676C278.978 70.2373 279.095 69.7287 279.095 69.15ZM293.758 73L292.484 71.712C292.008 72.2067 291.5 72.5753 290.958 72.818C290.417 73.0513 289.806 73.168 289.124 73.168C288.452 73.168 287.855 73.0467 287.332 72.804C286.819 72.5613 286.418 72.216 286.128 71.768C285.848 71.32 285.708 70.7973 285.708 70.2C285.708 69.5187 285.9 68.9213 286.282 68.408C286.674 67.8853 287.248 67.4747 288.004 67.176C287.706 66.8213 287.491 66.4947 287.36 66.196C287.23 65.8973 287.164 65.5707 287.164 65.216C287.164 64.8053 287.267 64.4367 287.472 64.11C287.687 63.774 287.99 63.5127 288.382 63.326C288.774 63.1393 289.227 63.046 289.74 63.046C290.244 63.046 290.683 63.144 291.056 63.34C291.43 63.536 291.71 63.8113 291.896 64.166C292.083 64.5113 292.167 64.8987 292.148 65.328H290.874C290.884 64.9453 290.776 64.6467 290.552 64.432C290.328 64.208 290.039 64.096 289.684 64.096C289.311 64.096 289.008 64.2033 288.774 64.418C288.55 64.6233 288.438 64.8893 288.438 65.216C288.438 65.496 288.513 65.7667 288.662 66.028C288.821 66.2893 289.082 66.6113 289.446 66.994L292.358 69.92L292.61 69.528L293.562 67.932H294.934L293.786 69.92C293.628 70.2 293.441 70.494 293.226 70.802L295.424 73H293.758ZM289.124 72.076C289.628 72.076 290.081 71.978 290.482 71.782C290.893 71.586 291.28 71.2827 291.644 70.872L288.774 67.988C287.58 68.4453 286.982 69.1687 286.982 70.158C286.982 70.7087 287.178 71.166 287.57 71.53C287.972 71.894 288.49 72.076 289.124 72.076ZM78.4675 95L75.4575 91.612V95H74.1835V84.64H75.4575V90.73L78.4115 87.328H80.1895L76.5775 91.15L80.2035 95H78.4675ZM88.3885 90.87C88.3885 91.1127 88.3745 91.3693 88.3465 91.64H82.2145C82.2612 92.396 82.5179 92.9887 82.9845 93.418C83.4605 93.838 84.0345 94.048 84.7065 94.048C85.2572 94.048 85.7145 93.922 86.0785 93.67C86.4519 93.4087 86.7132 93.0633 86.8625 92.634H88.2345C88.0292 93.3713 87.6185 93.9733 87.0025 94.44C86.3865 94.8973 85.6212 95.126 84.7065 95.126C83.9785 95.126 83.3252 94.9627 82.7465 94.636C82.1772 94.3093 81.7292 93.8473 81.4025 93.25C81.0759 92.6433 80.9125 91.9433 80.9125 91.15C80.9125 90.3567 81.0712 89.6613 81.3885 89.064C81.7059 88.4667 82.1492 88.0093 82.7185 87.692C83.2972 87.3653 83.9599 87.202 84.7065 87.202C85.4345 87.202 86.0785 87.3607 86.6385 87.678C87.1985 87.9953 87.6279 88.434 87.9265 88.994C88.2345 89.5447 88.3885 90.17 88.3885 90.87ZM87.0725 90.604C87.0725 90.1187 86.9652 89.7033 86.7505 89.358C86.5359 89.0033 86.2419 88.7373 85.8685 88.56C85.5045 88.3733 85.0985 88.28 84.6505 88.28C84.0065 88.28 83.4559 88.4853 82.9985 88.896C82.5505 89.3067 82.2939 89.876 82.2285 90.604H87.0725ZM97.0702 90.87C97.0702 91.1127 97.0562 91.3693 97.0282 91.64H90.8962C90.9429 92.396 91.1995 92.9887 91.6662 93.418C92.1422 93.838 92.7162 94.048 93.3882 94.048C93.9389 94.048 94.3962 93.922 94.7602 93.67C95.1335 93.4087 95.3949 93.0633 95.5442 92.634H96.9162C96.7109 93.3713 96.3002 93.9733 95.6842 94.44C95.0682 94.8973 94.3029 95.126 93.3882 95.126C92.6602 95.126 92.0069 94.9627 91.4282 94.636C90.8589 94.3093 90.4109 93.8473 90.0842 93.25C89.7575 92.6433 89.5942 91.9433 89.5942 91.15C89.5942 90.3567 89.7529 89.6613 90.0702 89.064C90.3875 88.4667 90.8309 88.0093 91.4002 87.692C91.9789 87.3653 92.6415 87.202 93.3882 87.202C94.1162 87.202 94.7602 87.3607 95.3202 87.678C95.8802 87.9953 96.3095 88.434 96.6082 88.994C96.9162 89.5447 97.0702 90.17 97.0702 90.87ZM95.7542 90.604C95.7542 90.1187 95.6469 89.7033 95.4322 89.358C95.2175 89.0033 94.9235 88.7373 94.5502 88.56C94.1862 88.3733 93.7802 88.28 93.3322 88.28C92.6882 88.28 92.1375 88.4853 91.6802 88.896C91.2322 89.3067 90.9755 89.876 90.9102 90.604H95.7542ZM100.026 88.742C100.278 88.3033 100.651 87.9393 101.146 87.65C101.65 87.3513 102.233 87.202 102.896 87.202C103.577 87.202 104.193 87.3653 104.744 87.692C105.304 88.0187 105.742 88.4807 106.06 89.078C106.377 89.666 106.536 90.352 106.536 91.136C106.536 91.9107 106.377 92.6013 106.06 93.208C105.742 93.8147 105.304 94.286 104.744 94.622C104.193 94.958 103.577 95.126 102.896 95.126C102.242 95.126 101.664 94.9813 101.16 94.692C100.665 94.3933 100.287 94.0247 100.026 93.586V98.64H98.7518V87.328H100.026V88.742ZM105.234 91.136C105.234 90.5573 105.117 90.0533 104.884 89.624C104.65 89.1947 104.333 88.868 103.932 88.644C103.54 88.42 103.106 88.308 102.63 88.308C102.163 88.308 101.729 88.4247 101.328 88.658C100.936 88.882 100.618 89.2133 100.376 89.652C100.142 90.0813 100.026 90.5807 100.026 91.15C100.026 91.7287 100.142 92.2373 100.376 92.676C100.618 93.1053 100.936 93.4367 101.328 93.67C101.729 93.894 102.163 94.006 102.63 94.006C103.106 94.006 103.54 93.894 103.932 93.67C104.333 93.4367 104.65 93.1053 104.884 92.676C105.117 92.2373 105.234 91.724 105.234 91.136ZM113.499 88.378V92.9C113.499 93.2733 113.579 93.5393 113.737 93.698C113.896 93.8473 114.171 93.922 114.563 93.922H115.501V95H114.353C113.644 95 113.112 94.8367 112.757 94.51C112.403 94.1833 112.225 93.6467 112.225 92.9V88.378H111.231V87.328H112.225V85.396H113.499V87.328H115.501V88.378H113.499ZM118.319 88.574C118.543 88.1353 118.86 87.7947 119.271 87.552C119.691 87.3093 120.199 87.188 120.797 87.188V88.504H120.461C119.033 88.504 118.319 89.2787 118.319 90.828V95H117.045V87.328H118.319V88.574ZM121.791 91.136C121.791 90.352 121.95 89.666 122.267 89.078C122.585 88.4807 123.019 88.0187 123.569 87.692C124.129 87.3653 124.75 87.202 125.431 87.202C126.103 87.202 126.687 87.3467 127.181 87.636C127.676 87.9253 128.045 88.2893 128.287 88.728V87.328H129.575V95H128.287V93.572C128.035 94.02 127.657 94.3933 127.153 94.692C126.659 94.9813 126.08 95.126 125.417 95.126C124.736 95.126 124.12 94.958 123.569 94.622C123.019 94.286 122.585 93.8147 122.267 93.208C121.95 92.6013 121.791 91.9107 121.791 91.136ZM128.287 91.15C128.287 90.5713 128.171 90.0673 127.937 89.638C127.704 89.2087 127.387 88.882 126.985 88.658C126.593 88.4247 126.159 88.308 125.683 88.308C125.207 88.308 124.773 88.42 124.381 88.644C123.989 88.868 123.677 89.1947 123.443 89.624C123.21 90.0533 123.093 90.5573 123.093 91.136C123.093 91.724 123.21 92.2373 123.443 92.676C123.677 93.1053 123.989 93.4367 124.381 93.67C124.773 93.894 125.207 94.006 125.683 94.006C126.159 94.006 126.593 93.894 126.985 93.67C127.387 93.4367 127.704 93.1053 127.937 92.676C128.171 92.2373 128.287 91.7287 128.287 91.15ZM131.252 91.15C131.252 90.3567 131.411 89.666 131.728 89.078C132.046 88.4807 132.484 88.0187 133.044 87.692C133.614 87.3653 134.262 87.202 134.99 87.202C135.933 87.202 136.708 87.4307 137.314 87.888C137.93 88.3453 138.336 88.98 138.532 89.792H137.16C137.03 89.3253 136.773 88.9567 136.39 88.686C136.017 88.4153 135.55 88.28 134.99 88.28C134.262 88.28 133.674 88.532 133.226 89.036C132.778 89.5307 132.554 90.2353 132.554 91.15C132.554 92.074 132.778 92.788 133.226 93.292C133.674 93.796 134.262 94.048 134.99 94.048C135.55 94.048 136.017 93.9173 136.39 93.656C136.764 93.3947 137.02 93.0213 137.16 92.536H138.532C138.327 93.32 137.916 93.95 137.3 94.426C136.684 94.8927 135.914 95.126 134.99 95.126C134.262 95.126 133.614 94.9627 133.044 94.636C132.484 94.3093 132.046 93.8473 131.728 93.25C131.411 92.6527 131.252 91.9527 131.252 91.15ZM144.516 95L141.506 91.612V95H140.232V84.64H141.506V90.73L144.46 87.328H146.238L142.626 91.15L146.252 95H144.516ZM154.516 95.126C153.797 95.126 153.144 94.9627 152.556 94.636C151.977 94.3093 151.52 93.8473 151.184 93.25C150.857 92.6433 150.694 91.9433 150.694 91.15C150.694 90.366 150.862 89.6753 151.198 89.078C151.543 88.4713 152.01 88.0093 152.598 87.692C153.186 87.3653 153.844 87.202 154.572 87.202C155.3 87.202 155.958 87.3653 156.546 87.692C157.134 88.0093 157.596 88.4667 157.932 89.064C158.277 89.6613 158.45 90.3567 158.45 91.15C158.45 91.9433 158.272 92.6433 157.918 93.25C157.572 93.8473 157.101 94.3093 156.504 94.636C155.906 94.9627 155.244 95.126 154.516 95.126ZM154.516 94.006C154.973 94.006 155.402 93.8987 155.804 93.684C156.205 93.4693 156.527 93.1473 156.77 92.718C157.022 92.2887 157.148 91.766 157.148 91.15C157.148 90.534 157.026 90.0113 156.784 89.582C156.541 89.1527 156.224 88.8353 155.832 88.63C155.44 88.4153 155.015 88.308 154.558 88.308C154.091 88.308 153.662 88.4153 153.27 88.63C152.887 88.8353 152.579 89.1527 152.346 89.582C152.112 90.0113 151.996 90.534 151.996 91.15C151.996 91.7753 152.108 92.3027 152.332 92.732C152.565 93.1613 152.873 93.4833 153.256 93.698C153.638 93.9033 154.058 94.006 154.516 94.006ZM163.247 88.378H161.637V95H160.363V88.378H159.369V87.328H160.363V86.782C160.363 85.9233 160.582 85.298 161.021 84.906C161.469 84.5047 162.183 84.304 163.163 84.304V85.368C162.603 85.368 162.206 85.48 161.973 85.704C161.749 85.9187 161.637 86.278 161.637 86.782V87.328H163.247V88.378ZM175.073 87.328L170.453 98.612H169.137L170.649 94.916L167.555 87.328H168.969L171.377 93.544L173.757 87.328H175.073ZM179.699 95.126C178.981 95.126 178.327 94.9627 177.739 94.636C177.161 94.3093 176.703 93.8473 176.367 93.25C176.041 92.6433 175.877 91.9433 175.877 91.15C175.877 90.366 176.045 89.6753 176.381 89.078C176.727 88.4713 177.193 88.0093 177.781 87.692C178.369 87.3653 179.027 87.202 179.755 87.202C180.483 87.202 181.141 87.3653 181.729 87.692C182.317 88.0093 182.779 88.4667 183.115 89.064C183.461 89.6613 183.633 90.3567 183.633 91.15C183.633 91.9433 183.456 92.6433 183.101 93.25C182.756 93.8473 182.285 94.3093 181.687 94.636C181.09 94.9627 180.427 95.126 179.699 95.126ZM179.699 94.006C180.157 94.006 180.586 93.8987 180.987 93.684C181.389 93.4693 181.711 93.1473 181.953 92.718C182.205 92.2887 182.331 91.766 182.331 91.15C182.331 90.534 182.21 90.0113 181.967 89.582C181.725 89.1527 181.407 88.8353 181.015 88.63C180.623 88.4153 180.199 88.308 179.741 88.308C179.275 88.308 178.845 88.4153 178.453 88.63C178.071 88.8353 177.763 89.1527 177.529 89.582C177.296 90.0113 177.179 90.534 177.179 91.15C177.179 91.7753 177.291 92.3027 177.515 92.732C177.749 93.1613 178.057 93.4833 178.439 93.698C178.822 93.9033 179.242 94.006 179.699 94.006ZM192.112 87.328V95H190.838V93.866C190.596 94.258 190.255 94.566 189.816 94.79C189.387 95.0047 188.911 95.112 188.388 95.112C187.791 95.112 187.254 94.9907 186.778 94.748C186.302 94.496 185.924 94.1227 185.644 93.628C185.374 93.1333 185.238 92.5313 185.238 91.822V87.328H186.498V91.654C186.498 92.41 186.69 92.9933 187.072 93.404C187.455 93.8053 187.978 94.006 188.64 94.006C189.322 94.006 189.858 93.796 190.25 93.376C190.642 92.956 190.838 92.3447 190.838 91.542V87.328H192.112ZM195.538 88.574C195.762 88.1353 196.079 87.7947 196.49 87.552C196.91 87.3093 197.418 87.188 198.016 87.188V88.504H197.68C196.252 88.504 195.538 89.2787 195.538 90.828V95H194.264V87.328H195.538V88.574ZM205.935 95.126C205.347 95.126 204.819 95.028 204.353 94.832C203.886 94.6267 203.517 94.3467 203.247 93.992C202.976 93.628 202.827 93.2127 202.799 92.746H204.115C204.152 93.1287 204.329 93.4413 204.647 93.684C204.973 93.9267 205.398 94.048 205.921 94.048C206.406 94.048 206.789 93.9407 207.069 93.726C207.349 93.5113 207.489 93.2407 207.489 92.914C207.489 92.578 207.339 92.3307 207.041 92.172C206.742 92.004 206.28 91.8407 205.655 91.682C205.085 91.5327 204.619 91.3833 204.255 91.234C203.9 91.0753 203.592 90.8467 203.331 90.548C203.079 90.24 202.953 89.8387 202.953 89.344C202.953 88.952 203.069 88.5927 203.303 88.266C203.536 87.9393 203.867 87.6827 204.297 87.496C204.726 87.3 205.216 87.202 205.767 87.202C206.616 87.202 207.302 87.4167 207.825 87.846C208.347 88.2753 208.627 88.8633 208.665 89.61H207.391C207.363 89.2087 207.199 88.8867 206.901 88.644C206.611 88.4013 206.219 88.28 205.725 88.28C205.267 88.28 204.903 88.378 204.633 88.574C204.362 88.77 204.227 89.0267 204.227 89.344C204.227 89.596 204.306 89.806 204.465 89.974C204.633 90.1327 204.838 90.2633 205.081 90.366C205.333 90.4593 205.678 90.5667 206.117 90.688C206.667 90.8373 207.115 90.9867 207.461 91.136C207.806 91.276 208.1 91.4907 208.343 91.78C208.595 92.0693 208.725 92.4473 208.735 92.914C208.735 93.334 208.618 93.712 208.385 94.048C208.151 94.384 207.82 94.65 207.391 94.846C206.971 95.0327 206.485 95.126 205.935 95.126ZM212.087 88.378V92.9C212.087 93.2733 212.166 93.5393 212.325 93.698C212.484 93.8473 212.759 93.922 213.151 93.922H214.089V95H212.941C212.232 95 211.7 94.8367 211.345 94.51C210.99 94.1833 210.813 93.6467 210.813 92.9V88.378H209.819V87.328H210.813V85.396H212.087V87.328H214.089V88.378H212.087ZM222.437 87.328V95H221.163V93.866C220.92 94.258 220.579 94.566 220.141 94.79C219.711 95.0047 219.235 95.112 218.713 95.112C218.115 95.112 217.579 94.9907 217.103 94.748C216.627 94.496 216.249 94.1227 215.969 93.628C215.698 93.1333 215.563 92.5313 215.563 91.822V87.328H216.823V91.654C216.823 92.41 217.014 92.9933 217.397 93.404C217.779 93.8053 218.302 94.006 218.965 94.006C219.646 94.006 220.183 93.796 220.575 93.376C220.967 92.956 221.163 92.3447 221.163 91.542V87.328H222.437ZM227.71 88.378H226.1V95H224.826V88.378H223.832V87.328H224.826V86.782C224.826 85.9233 225.045 85.298 225.484 84.906C225.932 84.5047 226.646 84.304 227.626 84.304V85.368C227.066 85.368 226.669 85.48 226.436 85.704C226.212 85.9187 226.1 86.278 226.1 86.782V87.328H227.71V88.378ZM232.317 88.378H230.707V95H229.433V88.378H228.439V87.328H229.433V86.782C229.433 85.9233 229.653 85.298 230.091 84.906C230.539 84.5047 231.253 84.304 232.233 84.304V85.368C231.673 85.368 231.277 85.48 231.043 85.704C230.819 85.9187 230.707 86.278 230.707 86.782V87.328H232.317V88.378ZM235.455 85.242L235.301 92.242H234.237L234.083 85.242H235.455ZM234.825 95.084C234.582 95.084 234.377 95 234.209 94.832C234.041 94.664 233.957 94.4587 233.957 94.216C233.957 93.9733 234.041 93.768 234.209 93.6C234.377 93.432 234.582 93.348 234.825 93.348C235.058 93.348 235.254 93.432 235.413 93.6C235.581 93.768 235.665 93.9733 235.665 94.216C235.665 94.4587 235.581 94.664 235.413 94.832C235.254 95 235.058 95.084 234.825 95.084Z" fill="#5C6272"/>
</svg>
