<svg width="615" height="150" viewBox="0 0 615 150" fill="none" xmlns="http://www.w3.org/2000/svg">
<path d="M197.654 15.12V18.08H190.054V43H186.414V18.08H178.774V15.12H197.654ZM200.775 31.96C200.775 29.72 201.228 27.76 202.135 26.08C203.041 24.3733 204.281 23.0533 205.855 22.12C207.455 21.1867 209.228 20.72 211.175 20.72C213.095 20.72 214.761 21.1333 216.175 21.96C217.588 22.7867 218.641 23.8267 219.335 25.08V21.08H223.015V43H219.335V38.92C218.615 40.2 217.535 41.2667 216.095 42.12C214.681 42.9467 213.028 43.36 211.135 43.36C209.188 43.36 207.428 42.88 205.855 41.92C204.281 40.96 203.041 39.6133 202.135 37.88C201.228 36.1467 200.775 34.1733 200.775 31.96ZM219.335 32C219.335 30.3467 219.001 28.9067 218.335 27.68C217.668 26.4533 216.761 25.52 215.615 24.88C214.495 24.2133 213.255 23.88 211.895 23.88C210.535 23.88 209.295 24.2 208.175 24.84C207.055 25.48 206.161 26.4133 205.495 27.64C204.828 28.8667 204.495 30.3067 204.495 31.96C204.495 33.64 204.828 35.1067 205.495 36.36C206.161 37.5867 207.055 38.5333 208.175 39.2C209.295 39.84 210.535 40.16 211.895 40.16C213.255 40.16 214.495 39.84 215.615 39.2C216.761 38.5333 217.668 37.5867 218.335 36.36C219.001 35.1067 219.335 33.6533 219.335 32ZM238.206 20.72C240.099 20.72 241.753 21.1333 243.166 21.96C244.606 22.7867 245.673 23.8267 246.366 25.08V21.08H250.046V43.48C250.046 45.48 249.619 47.2533 248.766 48.8C247.913 50.3733 246.686 51.6 245.086 52.48C243.513 53.36 241.673 53.8 239.566 53.8C236.686 53.8 234.286 53.12 232.366 51.76C230.446 50.4 229.313 48.5467 228.966 46.2H232.566C232.966 47.5333 233.793 48.6 235.046 49.4C236.299 50.2267 237.806 50.64 239.566 50.64C241.566 50.64 243.193 50.0133 244.446 48.76C245.726 47.5067 246.366 45.7467 246.366 43.48V38.88C245.646 40.16 244.579 41.2267 243.166 42.08C241.753 42.9333 240.099 43.36 238.206 43.36C236.259 43.36 234.486 42.88 232.886 41.92C231.313 40.96 230.073 39.6133 229.166 37.88C228.259 36.1467 227.806 34.1733 227.806 31.96C227.806 29.72 228.259 27.76 229.166 26.08C230.073 24.3733 231.313 23.0533 232.886 22.12C234.486 21.1867 236.259 20.72 238.206 20.72ZM246.366 32C246.366 30.3467 246.033 28.9067 245.366 27.68C244.699 26.4533 243.793 25.52 242.646 24.88C241.526 24.2133 240.286 23.88 238.926 23.88C237.566 23.88 236.326 24.2 235.206 24.84C234.086 25.48 233.193 26.4133 232.526 27.64C231.859 28.8667 231.526 30.3067 231.526 31.96C231.526 33.64 231.859 35.1067 232.526 36.36C233.193 37.5867 234.086 38.5333 235.206 39.2C236.326 39.84 237.566 40.16 238.926 40.16C240.286 40.16 241.526 39.84 242.646 39.2C243.793 38.5333 244.699 37.5867 245.366 36.36C246.033 35.1067 246.366 33.6533 246.366 32ZM268.741 17.52C268.048 17.52 267.461 17.28 266.981 16.8C266.501 16.32 266.261 15.7333 266.261 15.04C266.261 14.3467 266.501 13.76 266.981 13.28C267.461 12.8 268.048 12.56 268.741 12.56C269.408 12.56 269.968 12.8 270.421 13.28C270.901 13.76 271.141 14.3467 271.141 15.04C271.141 15.7333 270.901 16.32 270.421 16.8C269.968 17.28 269.408 17.52 268.741 17.52ZM270.501 21.08V43H266.861V21.08H270.501ZM281.145 24.08V37C281.145 38.0667 281.372 38.8267 281.825 39.28C282.278 39.7067 283.065 39.92 284.185 39.92H286.865V43H283.585C281.558 43 280.038 42.5333 279.025 41.6C278.012 40.6667 277.505 39.1333 277.505 37V24.08H274.665V21.08H277.505V15.56H281.145V21.08H286.865V24.08H281.145ZM292.435 43.24C291.742 43.24 291.155 43 290.675 42.52C290.195 42.04 289.955 41.4533 289.955 40.76C289.955 40.0667 290.195 39.48 290.675 39C291.155 38.52 291.742 38.28 292.435 38.28C293.102 38.28 293.662 38.52 294.115 39C294.595 39.48 294.835 40.0667 294.835 40.76C294.835 41.4533 294.595 42.04 294.115 42.52C293.662 43 293.102 43.24 292.435 43.24ZM326.125 15.08V19.6H314.485V26.76H323.405V31.2H314.485V43H308.885V15.08H326.125ZM332.936 18.2C331.949 18.2 331.123 17.8933 330.456 17.28C329.816 16.64 329.496 15.8533 329.496 14.92C329.496 13.9867 329.816 13.2133 330.456 12.6C331.123 11.96 331.949 11.64 332.936 11.64C333.923 11.64 334.736 11.96 335.376 12.6C336.043 13.2133 336.376 13.9867 336.376 14.92C336.376 15.8533 336.043 16.64 335.376 17.28C334.736 17.8933 333.923 18.2 332.936 18.2ZM335.696 20.84V43H330.096V20.84H335.696ZM353.509 20.52C356.149 20.52 358.282 21.36 359.909 23.04C361.535 24.6933 362.349 27.0133 362.349 30V43H356.749V30.76C356.749 29 356.309 27.6533 355.429 26.72C354.549 25.76 353.349 25.28 351.829 25.28C350.282 25.28 349.055 25.76 348.149 26.72C347.269 27.6533 346.829 29 346.829 30.76V43H341.229V20.84H346.829V23.6C347.575 22.64 348.522 21.8933 349.669 21.36C350.842 20.8 352.122 20.52 353.509 20.52ZM366.234 31.84C366.234 29.6 366.674 27.6133 367.554 25.88C368.461 24.1467 369.687 22.8133 371.234 21.88C372.781 20.9467 374.501 20.48 376.394 20.48C377.834 20.48 379.207 20.8 380.514 21.44C381.821 22.0533 382.861 22.88 383.634 23.92V13.4H389.314V43H383.634V39.72C382.941 40.8133 381.967 41.6933 380.714 42.36C379.461 43.0267 378.007 43.36 376.354 43.36C374.487 43.36 372.781 42.88 371.234 41.92C369.687 40.96 368.461 39.6133 367.554 37.88C366.674 36.12 366.234 34.1067 366.234 31.84ZM383.674 31.92C383.674 30.56 383.407 29.4 382.874 28.44C382.341 27.4533 381.621 26.7067 380.714 26.2C379.807 25.6667 378.834 25.4 377.794 25.4C376.754 25.4 375.794 25.6533 374.914 26.16C374.034 26.6667 373.314 27.4133 372.754 28.4C372.221 29.36 371.954 30.5067 371.954 31.84C371.954 33.1733 372.221 34.3467 372.754 35.36C373.314 36.3467 374.034 37.1067 374.914 37.64C375.821 38.1733 376.781 38.44 377.794 38.44C378.834 38.44 379.807 38.1867 380.714 37.68C381.621 37.1467 382.341 36.4 382.874 35.44C383.407 34.4533 383.674 33.28 383.674 31.92ZM407.155 18.2C406.168 18.2 405.341 17.8933 404.675 17.28C404.035 16.64 403.715 15.8533 403.715 14.92C403.715 13.9867 404.035 13.2133 404.675 12.6C405.341 11.96 406.168 11.64 407.155 11.64C408.141 11.64 408.955 11.96 409.595 12.6C410.261 13.2133 410.595 13.9867 410.595 14.92C410.595 15.8533 410.261 16.64 409.595 17.28C408.955 17.8933 408.141 18.2 407.155 18.2ZM409.915 20.84V43H404.315V20.84H409.915ZM421.968 25.44V36.16C421.968 36.9067 422.141 37.4533 422.488 37.8C422.861 38.12 423.474 38.28 424.328 38.28H426.928V43H423.408C418.688 43 416.328 40.7067 416.328 36.12V25.44H413.688V20.84H416.328V15.36H421.968V20.84H426.928V25.44H421.968ZM433.435 43.28C432.422 43.28 431.582 42.9733 430.915 42.36C430.275 41.72 429.955 40.9333 429.955 40C429.955 39.0667 430.275 38.2933 430.915 37.68C431.582 37.04 432.422 36.72 433.435 36.72C434.422 36.72 435.235 37.04 435.875 37.68C436.515 38.2933 436.835 39.0667 436.835 40C436.835 40.9333 436.515 41.72 435.875 42.36C435.235 42.9733 434.422 43.28 433.435 43.28Z" fill="#1E2A39"/>
<path d="M63.7003 71.928V83H62.2443V74.744L58.5643 83H57.5403L53.8443 74.728V83H52.3883V71.928H53.9563L58.0523 81.08L62.1483 71.928H63.7003ZM65.6255 78.584C65.6255 77.688 65.8068 76.904 66.1695 76.232C66.5322 75.5493 67.0282 75.0213 67.6575 74.648C68.2975 74.2747 69.0068 74.088 69.7855 74.088C70.5535 74.088 71.2202 74.2533 71.7855 74.584C72.3508 74.9147 72.7722 75.3307 73.0495 75.832V74.232H74.5215V83H73.0495V81.368C72.7615 81.88 72.3295 82.3067 71.7535 82.648C71.1882 82.9787 70.5268 83.144 69.7695 83.144C68.9908 83.144 68.2868 82.952 67.6575 82.568C67.0282 82.184 66.5322 81.6453 66.1695 80.952C65.8068 80.2587 65.6255 79.4693 65.6255 78.584ZM73.0495 78.6C73.0495 77.9387 72.9162 77.3627 72.6495 76.872C72.3828 76.3813 72.0202 76.008 71.5615 75.752C71.1135 75.4853 70.6175 75.352 70.0735 75.352C69.5295 75.352 69.0335 75.48 68.5855 75.736C68.1375 75.992 67.7802 76.3653 67.5135 76.856C67.2468 77.3467 67.1135 77.9227 67.1135 78.584C67.1135 79.256 67.2468 79.8427 67.5135 80.344C67.7802 80.8347 68.1375 81.2133 68.5855 81.48C69.0335 81.736 69.5295 81.864 70.0735 81.864C70.6175 81.864 71.1135 81.736 71.5615 81.48C72.0202 81.2133 72.3828 80.8347 72.6495 80.344C72.9162 79.8427 73.0495 79.2613 73.0495 78.6ZM80.086 83.144C79.414 83.144 78.8113 83.032 78.278 82.808C77.7447 82.5733 77.3233 82.2533 77.014 81.848C76.7047 81.432 76.534 80.9573 76.502 80.424H78.006C78.0487 80.8613 78.2513 81.2187 78.614 81.496C78.9873 81.7733 79.4727 81.912 80.07 81.912C80.6247 81.912 81.062 81.7893 81.382 81.544C81.702 81.2987 81.862 80.9893 81.862 80.616C81.862 80.232 81.6913 79.9493 81.35 79.768C81.0087 79.576 80.4807 79.3893 79.766 79.208C79.1153 79.0373 78.582 78.8667 78.166 78.696C77.7607 78.5147 77.4087 78.2533 77.11 77.912C76.822 77.56 76.678 77.1013 76.678 76.536C76.678 76.088 76.8113 75.6773 77.078 75.304C77.3447 74.9307 77.7233 74.6373 78.214 74.424C78.7047 74.2 79.2647 74.088 79.894 74.088C80.8647 74.088 81.6487 74.3333 82.246 74.824C82.8433 75.3147 83.1633 75.9867 83.206 76.84H81.75C81.718 76.3813 81.5313 76.0133 81.19 75.736C80.8593 75.4587 80.4113 75.32 79.846 75.32C79.3233 75.32 78.9073 75.432 78.598 75.656C78.2887 75.88 78.134 76.1733 78.134 76.536C78.134 76.824 78.2247 77.064 78.406 77.256C78.598 77.4373 78.8327 77.5867 79.11 77.704C79.398 77.8107 79.7927 77.9333 80.294 78.072C80.9233 78.2427 81.4353 78.4133 81.83 78.584C82.2247 78.744 82.5607 78.9893 82.838 79.32C83.126 79.6507 83.2753 80.0827 83.286 80.616C83.286 81.096 83.1527 81.528 82.886 81.912C82.6193 82.296 82.2407 82.6 81.75 82.824C81.27 83.0373 80.7153 83.144 80.086 83.144ZM87.1174 75.432V80.6C87.1174 81.0267 87.208 81.3307 87.3894 81.512C87.5707 81.6827 87.8854 81.768 88.3334 81.768H89.4054V83H88.0934C87.2827 83 86.6747 82.8133 86.2694 82.44C85.864 82.0667 85.6614 81.4533 85.6614 80.6V75.432H84.5254V74.232H85.6614V72.024H87.1174V74.232H89.4054V75.432H87.1174ZM99.1695 78.28C99.1695 78.5573 99.1535 78.8507 99.1215 79.16H92.1135C92.1668 80.024 92.4602 80.7013 92.9935 81.192C93.5375 81.672 94.1935 81.912 94.9615 81.912C95.5908 81.912 96.1135 81.768 96.5295 81.48C96.9562 81.1813 97.2548 80.7867 97.4255 80.296H98.9935C98.7588 81.1387 98.2895 81.8267 97.5855 82.36C96.8815 82.8827 96.0068 83.144 94.9615 83.144C94.1295 83.144 93.3828 82.9573 92.7215 82.584C92.0708 82.2107 91.5588 81.6827 91.1855 81C90.8122 80.3067 90.6255 79.5067 90.6255 78.6C90.6255 77.6933 90.8068 76.8987 91.1695 76.216C91.5322 75.5333 92.0388 75.0107 92.6895 74.648C93.3508 74.2747 94.1082 74.088 94.9615 74.088C95.7935 74.088 96.5295 74.2693 97.1695 74.632C97.8095 74.9947 98.3002 75.496 98.6415 76.136C98.9935 76.7653 99.1695 77.48 99.1695 78.28ZM97.6655 77.976C97.6655 77.4213 97.5428 76.9467 97.2975 76.552C97.0522 76.1467 96.7162 75.8427 96.2895 75.64C95.8735 75.4267 95.4095 75.32 94.8975 75.32C94.1615 75.32 93.5322 75.5547 93.0095 76.024C92.4975 76.4933 92.2042 77.144 92.1295 77.976H97.6655ZM102.547 75.656C102.803 75.1547 103.166 74.7653 103.635 74.488C104.115 74.2107 104.697 74.072 105.379 74.072V75.576H104.995C103.363 75.576 102.547 76.4613 102.547 78.232V83H101.091V74.232H102.547V75.656ZM113.924 71.848V73.032H110.884V83H109.428V73.032H106.372V71.848H113.924ZM115.172 78.584C115.172 77.688 115.354 76.904 115.716 76.232C116.079 75.5493 116.575 75.0213 117.204 74.648C117.844 74.2747 118.554 74.088 119.332 74.088C120.1 74.088 120.767 74.2533 121.332 74.584C121.898 74.9147 122.319 75.3307 122.596 75.832V74.232H124.068V83H122.596V81.368C122.308 81.88 121.876 82.3067 121.3 82.648C120.735 82.9787 120.074 83.144 119.316 83.144C118.538 83.144 117.834 82.952 117.204 82.568C116.575 82.184 116.079 81.6453 115.716 80.952C115.354 80.2587 115.172 79.4693 115.172 78.584ZM122.596 78.6C122.596 77.9387 122.463 77.3627 122.196 76.872C121.93 76.3813 121.567 76.008 121.108 75.752C120.66 75.4853 120.164 75.352 119.62 75.352C119.076 75.352 118.58 75.48 118.132 75.736C117.684 75.992 117.327 76.3653 117.06 76.856C116.794 77.3467 116.66 77.9227 116.66 78.584C116.66 79.256 116.794 79.8427 117.06 80.344C117.327 80.8347 117.684 81.2133 118.132 81.48C118.58 81.736 119.076 81.864 119.62 81.864C120.164 81.864 120.66 81.736 121.108 81.48C121.567 81.2133 121.93 80.8347 122.196 80.344C122.463 79.8427 122.596 79.2613 122.596 78.6ZM130.145 74.088C130.902 74.088 131.564 74.2533 132.129 74.584C132.705 74.9147 133.132 75.3307 133.409 75.832V74.232H134.881V83.192C134.881 83.992 134.71 84.7013 134.369 85.32C134.028 85.9493 133.537 86.44 132.897 86.792C132.268 87.144 131.532 87.32 130.689 87.32C129.537 87.32 128.577 87.048 127.809 86.504C127.041 85.96 126.588 85.2187 126.449 84.28H127.889C128.049 84.8133 128.38 85.24 128.881 85.56C129.382 85.8907 129.985 86.056 130.689 86.056C131.489 86.056 132.14 85.8053 132.641 85.304C133.153 84.8027 133.409 84.0987 133.409 83.192V81.352C133.121 81.864 132.694 82.2907 132.129 82.632C131.564 82.9733 130.902 83.144 130.145 83.144C129.366 83.144 128.657 82.952 128.017 82.568C127.388 82.184 126.892 81.6453 126.529 80.952C126.166 80.2587 125.985 79.4693 125.985 78.584C125.985 77.688 126.166 76.904 126.529 76.232C126.892 75.5493 127.388 75.0213 128.017 74.648C128.657 74.2747 129.366 74.088 130.145 74.088ZM133.409 78.6C133.409 77.9387 133.276 77.3627 133.009 76.872C132.742 76.3813 132.38 76.008 131.921 75.752C131.473 75.4853 130.977 75.352 130.433 75.352C129.889 75.352 129.393 75.48 128.945 75.736C128.497 75.992 128.14 76.3653 127.873 76.856C127.606 77.3467 127.473 77.9227 127.473 78.584C127.473 79.256 127.606 79.8427 127.873 80.344C128.14 80.8347 128.497 81.2133 128.945 81.48C129.393 81.736 129.889 81.864 130.433 81.864C130.977 81.864 131.473 81.736 131.921 81.48C132.38 81.2133 132.742 80.8347 133.009 80.344C133.276 79.8427 133.409 79.2613 133.409 78.6ZM142.359 72.808C142.082 72.808 141.847 72.712 141.655 72.52C141.463 72.328 141.367 72.0933 141.367 71.816C141.367 71.5387 141.463 71.304 141.655 71.112C141.847 70.92 142.082 70.824 142.359 70.824C142.626 70.824 142.85 70.92 143.031 71.112C143.223 71.304 143.319 71.5387 143.319 71.816C143.319 72.0933 143.223 72.328 143.031 72.52C142.85 72.712 142.626 72.808 142.359 72.808ZM143.063 74.232V83H141.607V74.232H143.063ZM148.649 83.144C147.977 83.144 147.374 83.032 146.841 82.808C146.307 82.5733 145.886 82.2533 145.577 81.848C145.267 81.432 145.097 80.9573 145.065 80.424H146.569C146.611 80.8613 146.814 81.2187 147.177 81.496C147.55 81.7733 148.035 81.912 148.633 81.912C149.187 81.912 149.625 81.7893 149.945 81.544C150.265 81.2987 150.425 80.9893 150.425 80.616C150.425 80.232 150.254 79.9493 149.913 79.768C149.571 79.576 149.043 79.3893 148.329 79.208C147.678 79.0373 147.145 78.8667 146.729 78.696C146.323 78.5147 145.971 78.2533 145.673 77.912C145.385 77.56 145.241 77.1013 145.241 76.536C145.241 76.088 145.374 75.6773 145.641 75.304C145.907 74.9307 146.286 74.6373 146.777 74.424C147.267 74.2 147.827 74.088 148.457 74.088C149.427 74.088 150.211 74.3333 150.809 74.824C151.406 75.3147 151.726 75.9867 151.769 76.84H150.313C150.281 76.3813 150.094 76.0133 149.753 75.736C149.422 75.4587 148.974 75.32 148.409 75.32C147.886 75.32 147.47 75.432 147.161 75.656C146.851 75.88 146.697 76.1733 146.697 76.536C146.697 76.824 146.787 77.064 146.969 77.256C147.161 77.4373 147.395 77.5867 147.673 77.704C147.961 77.8107 148.355 77.9333 148.857 78.072C149.486 78.2427 149.998 78.4133 150.393 78.584C150.787 78.744 151.123 78.9893 151.401 79.32C151.689 79.6507 151.838 80.0827 151.849 80.616C151.849 81.096 151.715 81.528 151.449 81.912C151.182 82.296 150.803 82.6 150.313 82.824C149.833 83.0373 149.278 83.144 148.649 83.144ZM157.626 78.584C157.626 77.688 157.807 76.904 158.17 76.232C158.532 75.5493 159.028 75.0213 159.658 74.648C160.298 74.2747 161.007 74.088 161.786 74.088C162.554 74.088 163.22 74.2533 163.786 74.584C164.351 74.9147 164.772 75.3307 165.05 75.832V74.232H166.522V83H165.05V81.368C164.762 81.88 164.33 82.3067 163.754 82.648C163.188 82.9787 162.527 83.144 161.77 83.144C160.991 83.144 160.287 82.952 159.658 82.568C159.028 82.184 158.532 81.6453 158.17 80.952C157.807 80.2587 157.626 79.4693 157.626 78.584ZM165.05 78.6C165.05 77.9387 164.916 77.3627 164.65 76.872C164.383 76.3813 164.02 76.008 163.562 75.752C163.114 75.4853 162.618 75.352 162.074 75.352C161.53 75.352 161.034 75.48 160.586 75.736C160.138 75.992 159.78 76.3653 159.514 76.856C159.247 77.3467 159.114 77.9227 159.114 78.584C159.114 79.256 159.247 79.8427 159.514 80.344C159.78 80.8347 160.138 81.2133 160.586 81.48C161.034 81.736 161.53 81.864 162.074 81.864C162.618 81.864 163.114 81.736 163.562 81.48C164.02 81.2133 164.383 80.8347 164.65 80.344C164.916 79.8427 165.05 79.2613 165.05 78.6ZM176.352 83.144C175.68 83.144 175.077 83.032 174.544 82.808C174.01 82.5733 173.589 82.2533 173.28 81.848C172.97 81.432 172.8 80.9573 172.768 80.424H174.272C174.314 80.8613 174.517 81.2187 174.88 81.496C175.253 81.7733 175.738 81.912 176.336 81.912C176.89 81.912 177.328 81.7893 177.648 81.544C177.968 81.2987 178.128 80.9893 178.128 80.616C178.128 80.232 177.957 79.9493 177.616 79.768C177.274 79.576 176.746 79.3893 176.032 79.208C175.381 79.0373 174.848 78.8667 174.432 78.696C174.026 78.5147 173.674 78.2533 173.376 77.912C173.088 77.56 172.944 77.1013 172.944 76.536C172.944 76.088 173.077 75.6773 173.344 75.304C173.61 74.9307 173.989 74.6373 174.48 74.424C174.97 74.2 175.53 74.088 176.16 74.088C177.13 74.088 177.914 74.3333 178.512 74.824C179.109 75.3147 179.429 75.9867 179.472 76.84H178.016C177.984 76.3813 177.797 76.0133 177.456 75.736C177.125 75.4587 176.677 75.32 176.112 75.32C175.589 75.32 175.173 75.432 174.864 75.656C174.554 75.88 174.4 76.1733 174.4 76.536C174.4 76.824 174.49 77.064 174.672 77.256C174.864 77.4373 175.098 77.5867 175.376 77.704C175.664 77.8107 176.058 77.9333 176.56 78.072C177.189 78.2427 177.701 78.4133 178.096 78.584C178.49 78.744 178.826 78.9893 179.104 79.32C179.392 79.6507 179.541 80.0827 179.552 80.616C179.552 81.096 179.418 81.528 179.152 81.912C178.885 82.296 178.506 82.6 178.016 82.824C177.536 83.0373 176.981 83.144 176.352 83.144ZM189.383 74.232V83H187.927V81.704C187.65 82.152 187.26 82.504 186.759 82.76C186.268 83.0053 185.724 83.128 185.127 83.128C184.444 83.128 183.831 82.9893 183.287 82.712C182.743 82.424 182.311 81.9973 181.991 81.432C181.682 80.8667 181.527 80.1787 181.527 79.368V74.232H182.967V79.176C182.967 80.04 183.186 80.7067 183.623 81.176C184.06 81.6347 184.658 81.864 185.415 81.864C186.194 81.864 186.807 81.624 187.255 81.144C187.703 80.664 187.927 79.9653 187.927 79.048V74.232H189.383ZM193.297 75.848C193.585 75.3467 194.012 74.9307 194.577 74.6C195.153 74.2587 195.82 74.088 196.577 74.088C197.356 74.088 198.06 74.2747 198.689 74.648C199.329 75.0213 199.831 75.5493 200.193 76.232C200.556 76.904 200.737 77.688 200.737 78.584C200.737 79.4693 200.556 80.2587 200.193 80.952C199.831 81.6453 199.329 82.184 198.689 82.568C198.06 82.952 197.356 83.144 196.577 83.144C195.831 83.144 195.169 82.9787 194.593 82.648C194.028 82.3067 193.596 81.8853 193.297 81.384V87.16H191.841V74.232H193.297V75.848ZM199.249 78.584C199.249 77.9227 199.116 77.3467 198.849 76.856C198.583 76.3653 198.22 75.992 197.761 75.736C197.313 75.48 196.817 75.352 196.273 75.352C195.74 75.352 195.244 75.4853 194.785 75.752C194.337 76.008 193.975 76.3867 193.697 76.888C193.431 77.3787 193.297 77.9493 193.297 78.6C193.297 79.2613 193.431 79.8427 193.697 80.344C193.975 80.8347 194.337 81.2133 194.785 81.48C195.244 81.736 195.74 81.864 196.273 81.864C196.817 81.864 197.313 81.736 197.761 81.48C198.22 81.2133 198.583 80.8347 198.849 80.344C199.116 79.8427 199.249 79.256 199.249 78.584ZM210.654 78.28C210.654 78.5573 210.638 78.8507 210.606 79.16H203.598C203.651 80.024 203.945 80.7013 204.478 81.192C205.022 81.672 205.678 81.912 206.446 81.912C207.075 81.912 207.598 81.768 208.014 81.48C208.441 81.1813 208.739 80.7867 208.91 80.296H210.478C210.243 81.1387 209.774 81.8267 209.07 82.36C208.366 82.8827 207.491 83.144 206.446 83.144C205.614 83.144 204.867 82.9573 204.206 82.584C203.555 82.2107 203.043 81.6827 202.67 81C202.297 80.3067 202.11 79.5067 202.11 78.6C202.11 77.6933 202.291 76.8987 202.654 76.216C203.017 75.5333 203.523 75.0107 204.174 74.648C204.835 74.2747 205.593 74.088 206.446 74.088C207.278 74.088 208.014 74.2693 208.654 74.632C209.294 74.9947 209.785 75.496 210.126 76.136C210.478 76.7653 210.654 77.48 210.654 78.28ZM209.15 77.976C209.15 77.4213 209.027 76.9467 208.782 76.552C208.537 76.1467 208.201 75.8427 207.774 75.64C207.358 75.4267 206.894 75.32 206.382 75.32C205.646 75.32 205.017 75.5547 204.494 76.024C203.982 76.4933 203.689 77.144 203.614 77.976H209.15ZM214.032 75.656C214.288 75.1547 214.65 74.7653 215.12 74.488C215.6 74.2107 216.181 74.072 216.864 74.072V75.576H216.48C214.848 75.576 214.032 76.4613 214.032 78.232V83H212.576V74.232H214.032V75.656ZM224.625 76.52V77.752H218.241V76.52H224.625ZM235.357 78.28C235.357 78.5573 235.341 78.8507 235.309 79.16H228.301C228.354 80.024 228.648 80.7013 229.181 81.192C229.725 81.672 230.381 81.912 231.149 81.912C231.778 81.912 232.301 81.768 232.717 81.48C233.144 81.1813 233.442 80.7867 233.613 80.296H235.181C234.946 81.1387 234.477 81.8267 233.773 82.36C233.069 82.8827 232.194 83.144 231.149 83.144C230.317 83.144 229.57 82.9573 228.909 82.584C228.258 82.2107 227.746 81.6827 227.373 81C227 80.3067 226.813 79.5067 226.813 78.6C226.813 77.6933 226.994 76.8987 227.357 76.216C227.72 75.5333 228.226 75.0107 228.877 74.648C229.538 74.2747 230.296 74.088 231.149 74.088C231.981 74.088 232.717 74.2693 233.357 74.632C233.997 74.9947 234.488 75.496 234.829 76.136C235.181 76.7653 235.357 77.48 235.357 78.28ZM233.853 77.976C233.853 77.4213 233.73 76.9467 233.485 76.552C233.24 76.1467 232.904 75.8427 232.477 75.64C232.061 75.4267 231.597 75.32 231.085 75.32C230.349 75.32 229.72 75.5547 229.197 76.024C228.685 76.4933 228.392 77.144 228.317 77.976H233.853ZM236.735 78.584C236.735 77.688 236.916 76.904 237.279 76.232C237.642 75.5493 238.138 75.0213 238.767 74.648C239.407 74.2747 240.116 74.088 240.895 74.088C241.663 74.088 242.33 74.2533 242.895 74.584C243.46 74.9147 243.882 75.3307 244.159 75.832V74.232H245.631V83H244.159V81.368C243.871 81.88 243.439 82.3067 242.863 82.648C242.298 82.9787 241.636 83.144 240.879 83.144C240.1 83.144 239.396 82.952 238.767 82.568C238.138 82.184 237.642 81.6453 237.279 80.952C236.916 80.2587 236.735 79.4693 236.735 78.584ZM244.159 78.6C244.159 77.9387 244.026 77.3627 243.759 76.872C243.492 76.3813 243.13 76.008 242.671 75.752C242.223 75.4853 241.727 75.352 241.183 75.352C240.639 75.352 240.143 75.48 239.695 75.736C239.247 75.992 238.89 76.3653 238.623 76.856C238.356 77.3467 238.223 77.9227 238.223 78.584C238.223 79.256 238.356 79.8427 238.623 80.344C238.89 80.8347 239.247 81.2133 239.695 81.48C240.143 81.736 240.639 81.864 241.183 81.864C241.727 81.864 242.223 81.736 242.671 81.48C243.13 81.2133 243.492 80.8347 243.759 80.344C244.026 79.8427 244.159 79.2613 244.159 78.6ZM251.195 83.144C250.523 83.144 249.921 83.032 249.387 82.808C248.854 82.5733 248.433 82.2533 248.123 81.848C247.814 81.432 247.643 80.9573 247.611 80.424H249.115C249.158 80.8613 249.361 81.2187 249.723 81.496C250.097 81.7733 250.582 81.912 251.179 81.912C251.734 81.912 252.171 81.7893 252.491 81.544C252.811 81.2987 252.971 80.9893 252.971 80.616C252.971 80.232 252.801 79.9493 252.459 79.768C252.118 79.576 251.59 79.3893 250.875 79.208C250.225 79.0373 249.691 78.8667 249.275 78.696C248.87 78.5147 248.518 78.2533 248.219 77.912C247.931 77.56 247.787 77.1013 247.787 76.536C247.787 76.088 247.921 75.6773 248.187 75.304C248.454 74.9307 248.833 74.6373 249.323 74.424C249.814 74.2 250.374 74.088 251.003 74.088C251.974 74.088 252.758 74.3333 253.355 74.824C253.953 75.3147 254.273 75.9867 254.315 76.84H252.859C252.827 76.3813 252.641 76.0133 252.299 75.736C251.969 75.4587 251.521 75.32 250.955 75.32C250.433 75.32 250.017 75.432 249.707 75.656C249.398 75.88 249.243 76.1733 249.243 76.536C249.243 76.824 249.334 77.064 249.515 77.256C249.707 77.4373 249.942 77.5867 250.219 77.704C250.507 77.8107 250.902 77.9333 251.403 78.072C252.033 78.2427 252.545 78.4133 252.939 78.584C253.334 78.744 253.67 78.9893 253.947 79.32C254.235 79.6507 254.385 80.0827 254.395 80.616C254.395 81.096 254.262 81.528 253.995 81.912C253.729 82.296 253.35 82.6 252.859 82.824C252.379 83.0373 251.825 83.144 251.195 83.144ZM264.003 74.232L258.723 87.128H257.219L258.947 82.904L255.411 74.232H257.027L259.779 81.336L262.499 74.232H264.003ZM281.412 74.232L278.676 83H277.172L275.06 76.04L272.948 83H271.444L268.692 74.232H270.18L272.196 81.592L274.372 74.232H275.86L277.988 81.608L279.972 74.232H281.412ZM282.313 78.584C282.313 77.688 282.494 76.904 282.857 76.232C283.22 75.5493 283.716 75.0213 284.345 74.648C284.985 74.2747 285.694 74.088 286.473 74.088C287.241 74.088 287.908 74.2533 288.473 74.584C289.038 74.9147 289.46 75.3307 289.737 75.832V74.232H291.209V83H289.737V81.368C289.449 81.88 289.017 82.3067 288.441 82.648C287.876 82.9787 287.214 83.144 286.457 83.144C285.678 83.144 284.974 82.952 284.345 82.568C283.716 82.184 283.22 81.6453 282.857 80.952C282.494 80.2587 282.313 79.4693 282.313 78.584ZM289.737 78.6C289.737 77.9387 289.604 77.3627 289.337 76.872C289.07 76.3813 288.708 76.008 288.249 75.752C287.801 75.4853 287.305 75.352 286.761 75.352C286.217 75.352 285.721 75.48 285.273 75.736C284.825 75.992 284.468 76.3653 284.201 76.856C283.934 77.3467 283.801 77.9227 283.801 78.584C283.801 79.256 283.934 79.8427 284.201 80.344C284.468 80.8347 284.825 81.2133 285.273 81.48C285.721 81.736 286.217 81.864 286.761 81.864C287.305 81.864 287.801 81.736 288.249 81.48C288.708 81.2133 289.07 80.8347 289.337 80.344C289.604 79.8427 289.737 79.2613 289.737 78.6ZM301.222 74.232L295.942 87.128H294.438L296.166 82.904L292.63 74.232H294.246L296.998 81.336L299.718 74.232H301.222ZM308.727 75.432V80.6C308.727 81.0267 308.817 81.3307 308.999 81.512C309.18 81.6827 309.495 81.768 309.943 81.768H311.015V83H309.703C308.892 83 308.284 82.8133 307.879 82.44C307.473 82.0667 307.271 81.4533 307.271 80.6V75.432H306.135V74.232H307.271V72.024H308.727V74.232H311.015V75.432H308.727ZM316.603 83.144C315.782 83.144 315.035 82.9573 314.363 82.584C313.702 82.2107 313.179 81.6827 312.795 81C312.422 80.3067 312.235 79.5067 312.235 78.6C312.235 77.704 312.427 76.9147 312.811 76.232C313.206 75.5387 313.739 75.0107 314.411 74.648C315.083 74.2747 315.835 74.088 316.667 74.088C317.499 74.088 318.251 74.2747 318.923 74.648C319.595 75.0107 320.123 75.5333 320.507 76.216C320.902 76.8987 321.099 77.6933 321.099 78.6C321.099 79.5067 320.896 80.3067 320.491 81C320.096 81.6827 319.558 82.2107 318.875 82.584C318.192 82.9573 317.435 83.144 316.603 83.144ZM316.603 81.864C317.126 81.864 317.616 81.7413 318.075 81.496C318.534 81.2507 318.902 80.8827 319.179 80.392C319.467 79.9013 319.611 79.304 319.611 78.6C319.611 77.896 319.472 77.2987 319.195 76.808C318.918 76.3173 318.555 75.9547 318.107 75.72C317.659 75.4747 317.174 75.352 316.651 75.352C316.118 75.352 315.627 75.4747 315.179 75.72C314.742 75.9547 314.39 76.3173 314.123 76.808C313.856 77.2987 313.723 77.896 313.723 78.6C313.723 79.3147 313.851 79.9173 314.107 80.408C314.374 80.8987 314.726 81.2667 315.163 81.512C315.6 81.7467 316.08 81.864 316.603 81.864ZM330.847 75.432H329.007V83H327.551V75.432H326.415V74.232H327.551V73.608C327.551 72.6267 327.802 71.912 328.303 71.464C328.815 71.0053 329.631 70.776 330.751 70.776V71.992C330.111 71.992 329.658 72.12 329.391 72.376C329.135 72.6213 329.007 73.032 329.007 73.608V74.232H330.847V75.432ZM333.297 72.808C333.019 72.808 332.785 72.712 332.593 72.52C332.401 72.328 332.305 72.0933 332.305 71.816C332.305 71.5387 332.401 71.304 332.593 71.112C332.785 70.92 333.019 70.824 333.297 70.824C333.563 70.824 333.787 70.92 333.969 71.112C334.161 71.304 334.257 71.5387 334.257 71.816C334.257 72.0933 334.161 72.328 333.969 72.52C333.787 72.712 333.563 72.808 333.297 72.808ZM334.001 74.232V83H332.545V74.232H334.001ZM340.754 74.072C341.821 74.072 342.685 74.3973 343.346 75.048C344.007 75.688 344.338 76.616 344.338 77.832V83H342.898V78.04C342.898 77.1653 342.679 76.4987 342.242 76.04C341.805 75.5707 341.207 75.336 340.45 75.336C339.682 75.336 339.069 75.576 338.61 76.056C338.162 76.536 337.938 77.2347 337.938 78.152V83H336.482V74.232H337.938V75.48C338.226 75.032 338.615 74.6853 339.106 74.44C339.607 74.1947 340.157 74.072 340.754 74.072ZM346.172 78.584C346.172 77.688 346.354 76.904 346.716 76.232C347.079 75.5493 347.575 75.0213 348.204 74.648C348.844 74.2747 349.559 74.088 350.348 74.088C351.031 74.088 351.666 74.248 352.252 74.568C352.839 74.8773 353.287 75.288 353.596 75.8V71.16H355.068V83H353.596V81.352C353.308 81.8747 352.882 82.3067 352.316 82.648C351.751 82.9787 351.09 83.144 350.332 83.144C349.554 83.144 348.844 82.952 348.204 82.568C347.575 82.184 347.079 81.6453 346.716 80.952C346.354 80.2587 346.172 79.4693 346.172 78.584ZM353.596 78.6C353.596 77.9387 353.463 77.3627 353.196 76.872C352.93 76.3813 352.567 76.008 352.108 75.752C351.66 75.4853 351.164 75.352 350.62 75.352C350.076 75.352 349.58 75.48 349.132 75.736C348.684 75.992 348.327 76.3653 348.06 76.856C347.794 77.3467 347.66 77.9227 347.66 78.584C347.66 79.256 347.794 79.8427 348.06 80.344C348.327 80.8347 348.684 81.2133 349.132 81.48C349.58 81.736 350.076 81.864 350.62 81.864C351.164 81.864 351.66 81.736 352.108 81.48C352.567 81.2133 352.93 80.8347 353.196 80.344C353.463 79.8427 353.596 79.2613 353.596 78.6ZM370.355 83L368.899 81.528C368.355 82.0933 367.773 82.5147 367.155 82.792C366.536 83.0587 365.837 83.192 365.059 83.192C364.291 83.192 363.608 83.0533 363.011 82.776C362.424 82.4987 361.965 82.104 361.635 81.592C361.315 81.08 361.155 80.4827 361.155 79.8C361.155 79.0213 361.373 78.3387 361.811 77.752C362.259 77.1547 362.915 76.6853 363.779 76.344C363.437 75.9387 363.192 75.5653 363.043 75.224C362.893 74.8827 362.819 74.5093 362.819 74.104C362.819 73.6347 362.936 73.2133 363.171 72.84C363.416 72.456 363.763 72.1573 364.211 71.944C364.659 71.7307 365.176 71.624 365.763 71.624C366.339 71.624 366.84 71.736 367.267 71.96C367.693 72.184 368.013 72.4987 368.227 72.904C368.44 73.2987 368.536 73.7413 368.515 74.232H367.059C367.069 73.7947 366.947 73.4533 366.691 73.208C366.435 72.952 366.104 72.824 365.699 72.824C365.272 72.824 364.925 72.9467 364.659 73.192C364.403 73.4267 364.275 73.7307 364.275 74.104C364.275 74.424 364.36 74.7333 364.531 75.032C364.712 75.3307 365.011 75.6987 365.427 76.136L368.755 79.48L369.043 79.032L370.131 77.208H371.699L370.387 79.48C370.205 79.8 369.992 80.136 369.747 80.488L372.259 83H370.355ZM365.059 81.944C365.635 81.944 366.152 81.832 366.611 81.608C367.08 81.384 367.523 81.0373 367.939 80.568L364.659 77.272C363.293 77.7947 362.611 78.6213 362.611 79.752C362.611 80.3813 362.835 80.904 363.283 81.32C363.741 81.736 364.333 81.944 365.059 81.944ZM382.784 83L379.344 79.128V83H377.888V71.16H379.344V78.12L382.72 74.232H384.752L380.624 78.6L384.768 83H382.784ZM394.123 78.28C394.123 78.5573 394.107 78.8507 394.075 79.16H387.067C387.12 80.024 387.413 80.7013 387.947 81.192C388.491 81.672 389.147 81.912 389.915 81.912C390.544 81.912 391.067 81.768 391.483 81.48C391.909 81.1813 392.208 80.7867 392.379 80.296H393.947C393.712 81.1387 393.243 81.8267 392.539 82.36C391.835 82.8827 390.96 83.144 389.915 83.144C389.083 83.144 388.336 82.9573 387.675 82.584C387.024 82.2107 386.512 81.6827 386.139 81C385.765 80.3067 385.579 79.5067 385.579 78.6C385.579 77.6933 385.76 76.8987 386.123 76.216C386.485 75.5333 386.992 75.0107 387.643 74.648C388.304 74.2747 389.061 74.088 389.915 74.088C390.747 74.088 391.483 74.2693 392.123 74.632C392.763 74.9947 393.253 75.496 393.595 76.136C393.947 76.7653 394.123 77.48 394.123 78.28ZM392.619 77.976C392.619 77.4213 392.496 76.9467 392.251 76.552C392.005 76.1467 391.669 75.8427 391.243 75.64C390.827 75.4267 390.363 75.32 389.851 75.32C389.115 75.32 388.485 75.5547 387.963 76.024C387.451 76.4933 387.157 77.144 387.083 77.976H392.619ZM404.045 78.28C404.045 78.5573 404.029 78.8507 403.997 79.16H396.989C397.042 80.024 397.335 80.7013 397.869 81.192C398.413 81.672 399.069 81.912 399.837 81.912C400.466 81.912 400.989 81.768 401.405 81.48C401.831 81.1813 402.13 80.7867 402.301 80.296H403.869C403.634 81.1387 403.165 81.8267 402.461 82.36C401.757 82.8827 400.882 83.144 399.837 83.144C399.005 83.144 398.258 82.9573 397.597 82.584C396.946 82.2107 396.434 81.6827 396.061 81C395.687 80.3067 395.501 79.5067 395.501 78.6C395.501 77.6933 395.682 76.8987 396.045 76.216C396.407 75.5333 396.914 75.0107 397.565 74.648C398.226 74.2747 398.983 74.088 399.837 74.088C400.669 74.088 401.405 74.2693 402.045 74.632C402.685 74.9947 403.175 75.496 403.517 76.136C403.869 76.7653 404.045 77.48 404.045 78.28ZM402.541 77.976C402.541 77.4213 402.418 76.9467 402.173 76.552C401.927 76.1467 401.591 75.8427 401.165 75.64C400.749 75.4267 400.285 75.32 399.773 75.32C399.037 75.32 398.407 75.5547 397.885 76.024C397.373 76.4933 397.079 77.144 397.005 77.976H402.541ZM407.422 75.848C407.71 75.3467 408.137 74.9307 408.702 74.6C409.278 74.2587 409.945 74.088 410.702 74.088C411.481 74.088 412.185 74.2747 412.814 74.648C413.454 75.0213 413.956 75.5493 414.318 76.232C414.681 76.904 414.862 77.688 414.862 78.584C414.862 79.4693 414.681 80.2587 414.318 80.952C413.956 81.6453 413.454 82.184 412.814 82.568C412.185 82.952 411.481 83.144 410.702 83.144C409.956 83.144 409.294 82.9787 408.718 82.648C408.153 82.3067 407.721 81.8853 407.422 81.384V87.16H405.966V74.232H407.422V75.848ZM413.374 78.584C413.374 77.9227 413.241 77.3467 412.974 76.856C412.708 76.3653 412.345 75.992 411.886 75.736C411.438 75.48 410.942 75.352 410.398 75.352C409.865 75.352 409.369 75.4853 408.91 75.752C408.462 76.008 408.1 76.3867 407.822 76.888C407.556 77.3787 407.422 77.9493 407.422 78.6C407.422 79.2613 407.556 79.8427 407.822 80.344C408.1 80.8347 408.462 81.2133 408.91 81.48C409.369 81.736 409.865 81.864 410.398 81.864C410.942 81.864 411.438 81.736 411.886 81.48C412.345 81.2133 412.708 80.8347 412.974 80.344C413.241 79.8427 413.374 79.256 413.374 78.584ZM422.821 75.432V80.6C422.821 81.0267 422.911 81.3307 423.093 81.512C423.274 81.6827 423.589 81.768 424.036 81.768H425.109V83H423.797C422.986 83 422.378 82.8133 421.973 82.44C421.567 82.0667 421.365 81.4533 421.365 80.6V75.432H420.229V74.232H421.365V72.024H422.821V74.232H425.109V75.432H422.821ZM428.329 75.656C428.585 75.1547 428.947 74.7653 429.417 74.488C429.897 74.2107 430.478 74.072 431.161 74.072V75.576H430.777C429.145 75.576 428.329 76.4613 428.329 78.232V83H426.873V74.232H428.329V75.656ZM432.297 78.584C432.297 77.688 432.479 76.904 432.841 76.232C433.204 75.5493 433.7 75.0213 434.329 74.648C434.969 74.2747 435.679 74.088 436.457 74.088C437.225 74.088 437.892 74.2533 438.457 74.584C439.023 74.9147 439.444 75.3307 439.721 75.832V74.232H441.193V83H439.721V81.368C439.433 81.88 439.001 82.3067 438.425 82.648C437.86 82.9787 437.199 83.144 436.441 83.144C435.663 83.144 434.959 82.952 434.329 82.568C433.7 82.184 433.204 81.6453 432.841 80.952C432.479 80.2587 432.297 79.4693 432.297 78.584ZM439.721 78.6C439.721 77.9387 439.588 77.3627 439.321 76.872C439.055 76.3813 438.692 76.008 438.233 75.752C437.785 75.4853 437.289 75.352 436.745 75.352C436.201 75.352 435.705 75.48 435.257 75.736C434.809 75.992 434.452 76.3653 434.185 76.856C433.919 77.3467 433.785 77.9227 433.785 78.584C433.785 79.256 433.919 79.8427 434.185 80.344C434.452 80.8347 434.809 81.2133 435.257 81.48C435.705 81.736 436.201 81.864 436.745 81.864C437.289 81.864 437.785 81.736 438.233 81.48C438.692 81.2133 439.055 80.8347 439.321 80.344C439.588 79.8427 439.721 79.2613 439.721 78.6ZM443.11 78.6C443.11 77.6933 443.291 76.904 443.654 76.232C444.017 75.5493 444.518 75.0213 445.158 74.648C445.809 74.2747 446.55 74.088 447.382 74.088C448.459 74.088 449.345 74.3493 450.038 74.872C450.742 75.3947 451.206 76.12 451.43 77.048H449.862C449.713 76.5147 449.419 76.0933 448.982 75.784C448.555 75.4747 448.022 75.32 447.382 75.32C446.55 75.32 445.878 75.608 445.366 76.184C444.854 76.7493 444.598 77.5547 444.598 78.6C444.598 79.656 444.854 80.472 445.366 81.048C445.878 81.624 446.55 81.912 447.382 81.912C448.022 81.912 448.555 81.7627 448.982 81.464C449.409 81.1653 449.702 80.7387 449.862 80.184H451.43C451.195 81.08 450.726 81.8 450.022 82.344C449.318 82.8773 448.438 83.144 447.382 83.144C446.55 83.144 445.809 82.9573 445.158 82.584C444.518 82.2107 444.017 81.6827 443.654 81C443.291 80.3173 443.11 79.5173 443.11 78.6ZM458.269 83L454.829 79.128V83H453.373V71.16H454.829V78.12L458.205 74.232H460.237L456.109 78.6L460.253 83H458.269ZM469.697 83.144C468.875 83.144 468.129 82.9573 467.457 82.584C466.795 82.2107 466.273 81.6827 465.889 81C465.515 80.3067 465.329 79.5067 465.329 78.6C465.329 77.704 465.521 76.9147 465.905 76.232C466.299 75.5387 466.833 75.0107 467.505 74.648C468.177 74.2747 468.929 74.088 469.761 74.088C470.593 74.088 471.345 74.2747 472.017 74.648C472.689 75.0107 473.217 75.5333 473.601 76.216C473.995 76.8987 474.193 77.6933 474.193 78.6C474.193 79.5067 473.99 80.3067 473.585 81C473.19 81.6827 472.651 82.2107 471.969 82.584C471.286 82.9573 470.529 83.144 469.697 83.144ZM469.697 81.864C470.219 81.864 470.71 81.7413 471.169 81.496C471.627 81.2507 471.995 80.8827 472.273 80.392C472.561 79.9013 472.705 79.304 472.705 78.6C472.705 77.896 472.566 77.2987 472.289 76.808C472.011 76.3173 471.649 75.9547 471.201 75.72C470.753 75.4747 470.267 75.352 469.745 75.352C469.211 75.352 468.721 75.4747 468.273 75.72C467.835 75.9547 467.483 76.3173 467.217 76.808C466.95 77.2987 466.817 77.896 466.817 78.6C466.817 79.3147 466.945 79.9173 467.201 80.408C467.467 80.8987 467.819 81.2667 468.257 81.512C468.694 81.7467 469.174 81.864 469.697 81.864ZM479.675 75.432H477.835V83H476.379V75.432H475.243V74.232H476.379V73.608C476.379 72.6267 476.63 71.912 477.131 71.464C477.643 71.0053 478.459 70.776 479.579 70.776V71.992C478.939 71.992 478.486 72.12 478.219 72.376C477.963 72.6213 477.835 73.032 477.835 73.608V74.232H479.675V75.432ZM493.19 74.232L487.91 87.128H486.406L488.134 82.904L484.598 74.232H486.214L488.966 81.336L491.686 74.232H493.19ZM498.478 83.144C497.657 83.144 496.91 82.9573 496.238 82.584C495.577 82.2107 495.054 81.6827 494.67 81C494.297 80.3067 494.11 79.5067 494.11 78.6C494.11 77.704 494.302 76.9147 494.686 76.232C495.081 75.5387 495.614 75.0107 496.286 74.648C496.958 74.2747 497.71 74.088 498.542 74.088C499.374 74.088 500.126 74.2747 500.798 74.648C501.47 75.0107 501.998 75.5333 502.382 76.216C502.777 76.8987 502.974 77.6933 502.974 78.6C502.974 79.5067 502.771 80.3067 502.366 81C501.971 81.6827 501.433 82.2107 500.75 82.584C500.067 82.9573 499.31 83.144 498.478 83.144ZM498.478 81.864C499.001 81.864 499.491 81.7413 499.95 81.496C500.409 81.2507 500.777 80.8827 501.054 80.392C501.342 79.9013 501.486 79.304 501.486 78.6C501.486 77.896 501.347 77.2987 501.07 76.808C500.793 76.3173 500.43 75.9547 499.982 75.72C499.534 75.4747 499.049 75.352 498.526 75.352C497.993 75.352 497.502 75.4747 497.054 75.72C496.617 75.9547 496.265 76.3173 495.998 76.808C495.731 77.2987 495.598 77.896 495.598 78.6C495.598 79.3147 495.726 79.9173 495.982 80.408C496.249 80.8987 496.601 81.2667 497.038 81.512C497.475 81.7467 497.955 81.864 498.478 81.864ZM512.664 74.232V83H511.208V81.704C510.931 82.152 510.542 82.504 510.04 82.76C509.55 83.0053 509.006 83.128 508.408 83.128C507.726 83.128 507.112 82.9893 506.568 82.712C506.024 82.424 505.592 81.9973 505.272 81.432C504.963 80.8667 504.808 80.1787 504.808 79.368V74.232H506.248V79.176C506.248 80.04 506.467 80.7067 506.904 81.176C507.342 81.6347 507.939 81.864 508.696 81.864C509.475 81.864 510.088 81.624 510.536 81.144C510.984 80.664 511.208 79.9653 511.208 79.048V74.232H512.664ZM516.579 75.656C516.835 75.1547 517.197 74.7653 517.667 74.488C518.147 74.2107 518.728 74.072 519.411 74.072V75.576H519.027C517.395 75.576 516.579 76.4613 516.579 78.232V83H515.123V74.232H516.579V75.656ZM528.461 83.144C527.789 83.144 527.186 83.032 526.653 82.808C526.12 82.5733 525.698 82.2533 525.389 81.848C525.08 81.432 524.909 80.9573 524.877 80.424H526.381C526.424 80.8613 526.626 81.2187 526.989 81.496C527.362 81.7733 527.848 81.912 528.445 81.912C529 81.912 529.437 81.7893 529.757 81.544C530.077 81.2987 530.237 80.9893 530.237 80.616C530.237 80.232 530.066 79.9493 529.725 79.768C529.384 79.576 528.856 79.3893 528.141 79.208C527.49 79.0373 526.957 78.8667 526.541 78.696C526.136 78.5147 525.784 78.2533 525.485 77.912C525.197 77.56 525.053 77.1013 525.053 76.536C525.053 76.088 525.186 75.6773 525.453 75.304C525.72 74.9307 526.098 74.6373 526.589 74.424C527.08 74.2 527.64 74.088 528.269 74.088C529.24 74.088 530.024 74.3333 530.621 74.824C531.218 75.3147 531.538 75.9867 531.581 76.84H530.125C530.093 76.3813 529.906 76.0133 529.565 75.736C529.234 75.4587 528.786 75.32 528.221 75.32C527.698 75.32 527.282 75.432 526.973 75.656C526.664 75.88 526.509 76.1733 526.509 76.536C526.509 76.824 526.6 77.064 526.781 77.256C526.973 77.4373 527.208 77.5867 527.485 77.704C527.773 77.8107 528.168 77.9333 528.669 78.072C529.298 78.2427 529.81 78.4133 530.205 78.584C530.6 78.744 530.936 78.9893 531.213 79.32C531.501 79.6507 531.65 80.0827 531.661 80.616C531.661 81.096 531.528 81.528 531.261 81.912C530.994 82.296 530.616 82.6 530.125 82.824C529.645 83.0373 529.09 83.144 528.461 83.144ZM535.492 75.432V80.6C535.492 81.0267 535.583 81.3307 535.764 81.512C535.946 81.6827 536.26 81.768 536.708 81.768H537.78V83H536.468C535.658 83 535.05 82.8133 534.644 82.44C534.239 82.0667 534.036 81.4533 534.036 80.6V75.432H532.9V74.232H534.036V72.024H535.492V74.232H537.78V75.432H535.492ZM547.321 74.232V83H545.865V81.704C545.587 82.152 545.198 82.504 544.697 82.76C544.206 83.0053 543.662 83.128 543.065 83.128C542.382 83.128 541.769 82.9893 541.225 82.712C540.681 82.424 540.249 81.9973 539.929 81.432C539.619 80.8667 539.465 80.1787 539.465 79.368V74.232H540.905V79.176C540.905 80.04 541.123 80.7067 541.561 81.176C541.998 81.6347 542.595 81.864 543.353 81.864C544.131 81.864 544.745 81.624 545.193 81.144C545.641 80.664 545.865 79.9653 545.865 79.048V74.232H547.321ZM553.347 75.432H551.507V83H550.051V75.432H548.915V74.232H550.051V73.608C550.051 72.6267 550.302 71.912 550.803 71.464C551.315 71.0053 552.131 70.776 553.251 70.776V71.992C552.611 71.992 552.158 72.12 551.891 72.376C551.635 72.6213 551.507 73.032 551.507 73.608V74.232H553.347V75.432ZM558.613 75.432H556.773V83H555.317V75.432H554.181V74.232H555.317V73.608C555.317 72.6267 555.567 71.912 556.069 71.464C556.581 71.0053 557.397 70.776 558.516 70.776V71.992C557.877 71.992 557.423 72.12 557.157 72.376C556.901 72.6213 556.773 73.032 556.773 73.608V74.232H558.613V75.432ZM562.198 71.848L562.022 79.848H560.806L560.63 71.848H562.198ZM561.478 83.096C561.201 83.096 560.966 83 560.774 82.808C560.582 82.616 560.486 82.3813 560.486 82.104C560.486 81.8267 560.582 81.592 560.774 81.4C560.966 81.208 561.201 81.112 561.478 81.112C561.745 81.112 561.969 81.208 562.15 81.4C562.342 81.592 562.438 81.8267 562.438 82.104C562.438 82.3813 562.342 82.616 562.15 82.808C561.969 83 561.745 83.096 561.478 83.096Z" fill="#5C6272"/>
<rect x="245" y="101.844" width="126.547" height="36.4219" rx="18.2109" fill="#FE0000"/>
<path d="M274.438 126.105C273.748 126.105 273.128 125.985 272.578 125.745C272.038 125.495 271.613 125.155 271.303 124.725C270.993 124.285 270.833 123.78 270.823 123.21H272.278C272.328 123.7 272.528 124.115 272.878 124.455C273.238 124.785 273.758 124.95 274.438 124.95C275.088 124.95 275.598 124.79 275.968 124.47C276.348 124.14 276.538 123.72 276.538 123.21C276.538 122.81 276.428 122.485 276.208 122.235C275.988 121.985 275.713 121.795 275.383 121.665C275.053 121.535 274.608 121.395 274.048 121.245C273.358 121.065 272.803 120.885 272.383 120.705C271.973 120.525 271.618 120.245 271.318 119.865C271.028 119.475 270.883 118.955 270.883 118.305C270.883 117.735 271.028 117.23 271.318 116.79C271.608 116.35 272.013 116.01 272.533 115.77C273.063 115.53 273.668 115.41 274.348 115.41C275.328 115.41 276.128 115.655 276.748 116.145C277.378 116.635 277.733 117.285 277.813 118.095H276.313C276.263 117.695 276.053 117.345 275.683 117.045C275.313 116.735 274.823 116.58 274.213 116.58C273.643 116.58 273.178 116.73 272.818 117.03C272.458 117.32 272.278 117.73 272.278 118.26C272.278 118.64 272.383 118.95 272.593 119.19C272.813 119.43 273.078 119.615 273.388 119.745C273.708 119.865 274.153 120.005 274.723 120.165C275.413 120.355 275.968 120.545 276.388 120.735C276.808 120.915 277.168 121.2 277.468 121.59C277.768 121.97 277.918 122.49 277.918 123.15C277.918 123.66 277.783 124.14 277.513 124.59C277.243 125.04 276.843 125.405 276.313 125.685C275.783 125.965 275.158 126.105 274.438 126.105ZM284.006 117.63C284.626 117.63 285.186 117.765 285.686 118.035C286.186 118.295 286.576 118.69 286.856 119.22C287.146 119.75 287.291 120.395 287.291 121.155V126H285.941V121.35C285.941 120.53 285.736 119.905 285.326 119.475C284.916 119.035 284.356 118.815 283.646 118.815C282.926 118.815 282.351 119.04 281.921 119.49C281.501 119.94 281.291 120.595 281.291 121.455V126H279.926V114.9H281.291V118.95C281.561 118.53 281.931 118.205 282.401 117.975C282.881 117.745 283.416 117.63 284.006 117.63ZM293.106 126.135C292.336 126.135 291.636 125.96 291.006 125.61C290.386 125.26 289.896 124.765 289.536 124.125C289.186 123.475 289.011 122.725 289.011 121.875C289.011 121.035 289.191 120.295 289.551 119.655C289.921 119.005 290.421 118.51 291.051 118.17C291.681 117.82 292.386 117.645 293.166 117.645C293.946 117.645 294.651 117.82 295.281 118.17C295.911 118.51 296.406 119 296.766 119.64C297.136 120.28 297.321 121.025 297.321 121.875C297.321 122.725 297.131 123.475 296.751 124.125C296.381 124.765 295.876 125.26 295.236 125.61C294.596 125.96 293.886 126.135 293.106 126.135ZM293.106 124.935C293.596 124.935 294.056 124.82 294.486 124.59C294.916 124.36 295.261 124.015 295.521 123.555C295.791 123.095 295.926 122.535 295.926 121.875C295.926 121.215 295.796 120.655 295.536 120.195C295.276 119.735 294.936 119.395 294.516 119.175C294.096 118.945 293.641 118.83 293.151 118.83C292.651 118.83 292.191 118.945 291.771 119.175C291.361 119.395 291.031 119.735 290.781 120.195C290.531 120.655 290.406 121.215 290.406 121.875C290.406 122.545 290.526 123.11 290.766 123.57C291.016 124.03 291.346 124.375 291.756 124.605C292.166 124.825 292.616 124.935 293.106 124.935ZM300.481 119.295C300.751 118.825 301.151 118.435 301.681 118.125C302.221 117.805 302.846 117.645 303.556 117.645C304.286 117.645 304.946 117.82 305.536 118.17C306.136 118.52 306.606 119.015 306.946 119.655C307.286 120.285 307.456 121.02 307.456 121.86C307.456 122.69 307.286 123.43 306.946 124.08C306.606 124.73 306.136 125.235 305.536 125.595C304.946 125.955 304.286 126.135 303.556 126.135C302.856 126.135 302.236 125.98 301.696 125.67C301.166 125.35 300.761 124.955 300.481 124.485V129.9H299.116V117.78H300.481V119.295ZM306.061 121.86C306.061 121.24 305.936 120.7 305.686 120.24C305.436 119.78 305.096 119.43 304.666 119.19C304.246 118.95 303.781 118.83 303.271 118.83C302.771 118.83 302.306 118.955 301.876 119.205C301.456 119.445 301.116 119.8 300.856 120.27C300.606 120.73 300.481 121.265 300.481 121.875C300.481 122.495 300.606 123.04 300.856 123.51C301.116 123.97 301.456 124.325 301.876 124.575C302.306 124.815 302.771 124.935 303.271 124.935C303.781 124.935 304.246 124.815 304.666 124.575C305.096 124.325 305.436 123.97 305.686 123.51C305.936 123.04 306.061 122.49 306.061 121.86ZM321.472 126H320.107L314.617 117.675V126H313.252V115.53H314.617L320.107 123.84V115.53H321.472V126ZM327.384 126.135C326.614 126.135 325.914 125.96 325.284 125.61C324.664 125.26 324.174 124.765 323.814 124.125C323.464 123.475 323.289 122.725 323.289 121.875C323.289 121.035 323.469 120.295 323.829 119.655C324.199 119.005 324.699 118.51 325.329 118.17C325.959 117.82 326.664 117.645 327.444 117.645C328.224 117.645 328.929 117.82 329.559 118.17C330.189 118.51 330.684 119 331.044 119.64C331.414 120.28 331.599 121.025 331.599 121.875C331.599 122.725 331.409 123.475 331.029 124.125C330.659 124.765 330.154 125.26 329.514 125.61C328.874 125.96 328.164 126.135 327.384 126.135ZM327.384 124.935C327.874 124.935 328.334 124.82 328.764 124.59C329.194 124.36 329.539 124.015 329.799 123.555C330.069 123.095 330.204 122.535 330.204 121.875C330.204 121.215 330.074 120.655 329.814 120.195C329.554 119.735 329.214 119.395 328.794 119.175C328.374 118.945 327.919 118.83 327.429 118.83C326.929 118.83 326.469 118.945 326.049 119.175C325.639 119.395 325.309 119.735 325.059 120.195C324.809 120.655 324.684 121.215 324.684 121.875C324.684 122.545 324.804 123.11 325.044 123.57C325.294 124.03 325.624 124.375 326.034 124.605C326.444 124.825 326.894 124.935 327.384 124.935ZM344.343 117.78L341.778 126H340.368L338.388 119.475L336.408 126H334.998L332.418 117.78H333.813L335.703 124.68L337.743 117.78H339.138L341.133 124.695L342.993 117.78H344.343Z" fill="white"/>
</svg>
