<svg width="34" height="35" viewBox="0 0 34 35" fill="none" xmlns="http://www.w3.org/2000/svg">
<circle cx="17" cy="17.0469" r="17" fill="#FE0000"/>
<path fill-rule="evenodd" clip-rule="evenodd" d="M8.11175 8.36621C7.8045 8.36621 7.55542 8.56932 7.55542 8.81987V9.1618C7.55542 9.41235 7.8045 9.61546 8.11175 9.61546H9.4046C9.61583 9.61546 9.80882 9.71299 9.90282 9.86723L10.6031 11.1703C10.6293 11.2132 10.6499 11.2623 10.6886 11.295L13.6966 17.1453C13.6667 17.157 13.638 17.1711 13.611 17.1878C12.7776 17.7022 12.2138 18.3646 12.2137 19.0313C12.2137 19.4192 12.4123 19.7818 12.8104 20.0322C13.1884 20.27 13.6827 20.368 14.2132 20.368H14.2307C13.8858 20.663 13.6741 21.0626 13.6741 21.5024C13.6741 22.4106 14.577 23.1469 15.6908 23.1469C16.8046 23.1469 17.7075 22.4106 17.7075 21.5024C17.7075 21.0626 17.4958 20.663 17.1509 20.368H19.794C19.4492 20.663 19.2374 21.0626 19.2374 21.5024C19.2374 22.4106 20.1403 23.1469 21.2541 23.1469C22.368 23.1469 23.2709 22.4106 23.2709 21.5024C23.2709 21.0626 23.0591 20.663 22.7143 20.368H23.1317C23.439 20.368 23.6881 20.1649 23.6881 19.9143V19.6875C23.6881 19.4369 23.439 19.2338 23.1317 19.2338H14.2132C13.8744 19.2338 13.7166 19.1698 13.6599 19.1341C13.6233 19.1111 13.6045 19.0889 13.6045 19.0314C13.6046 18.8785 13.774 18.5255 14.3828 18.1343C14.4095 18.1171 14.4346 18.0984 14.4576 18.0782C14.5186 18.0924 14.5825 18.0999 14.648 18.0999H23.099C23.4389 18.0999 23.729 17.8995 23.7849 17.626L25.1754 10.8211C25.2461 10.4755 24.9192 10.1609 24.4895 10.1609H11.864C11.7581 10.1609 11.6619 10.1092 11.6176 10.0285L10.8438 8.61799C10.7498 8.46375 10.5568 8.36621 10.3456 8.36621H8.11175ZM12.6251 11.295C12.4304 11.295 12.2991 11.4619 12.3758 11.612L15.0412 16.8279C15.0839 16.9115 15.182 16.9658 15.2905 16.9658H22.2811C22.4133 16.9658 22.5262 16.886 22.5485 16.7767L23.6142 11.5608C23.6427 11.4219 23.515 11.295 23.347 11.295H12.6251ZM14.9258 21.5024C14.9258 21.1578 15.2683 20.8785 15.6908 20.8785C16.1132 20.8785 16.4557 21.1578 16.4557 21.5024C16.4557 21.8469 16.1132 22.1262 15.6908 22.1262C15.2683 22.1262 14.9258 21.8469 14.9258 21.5024ZM21.2541 20.8785C20.8317 20.8785 20.4892 21.1578 20.4892 21.5024C20.4892 21.8469 20.8317 22.1262 21.2541 22.1262C21.6766 22.1262 22.0191 21.8469 22.0191 21.5024C22.0191 21.1578 21.6766 20.8785 21.2541 20.8785Z" fill="white"/>
</svg>
