<svg width="287" height="99" viewBox="0 0 287 99" fill="none" xmlns="http://www.w3.org/2000/svg">
<path d="M18.302 5.644V21H15.222V11.012L11.108 21H8.77599L4.63999 11.012V21H1.55999V5.644H5.05799L9.94199 17.062L14.826 5.644H18.302ZM20.8593 14.862C20.8593 13.63 21.1013 12.5373 21.5853 11.584C22.084 10.6307 22.7513 9.89733 23.5873 9.384C24.438 8.87067 25.384 8.614 26.4253 8.614C27.3347 8.614 28.1267 8.79733 28.8013 9.164C29.4907 9.53067 30.0407 9.99267 30.4513 10.55V8.812H33.5533V21H30.4513V19.218C30.0553 19.79 29.5053 20.2667 28.8013 20.648C28.112 21.0147 27.3127 21.198 26.4033 21.198C25.3767 21.198 24.438 20.934 23.5873 20.406C22.7513 19.878 22.084 19.1373 21.5853 18.184C21.1013 17.216 20.8593 16.1087 20.8593 14.862ZM30.4513 14.906C30.4513 14.158 30.3047 13.52 30.0113 12.992C29.718 12.4493 29.322 12.0387 28.8233 11.76C28.3247 11.4667 27.7893 11.32 27.2173 11.32C26.6453 11.32 26.1173 11.4593 25.6333 11.738C25.1493 12.0167 24.7533 12.4273 24.4453 12.97C24.152 13.498 24.0053 14.1287 24.0053 14.862C24.0053 15.5953 24.152 16.2407 24.4453 16.798C24.7533 17.3407 25.1493 17.7587 25.6333 18.052C26.132 18.3453 26.66 18.492 27.2173 18.492C27.7893 18.492 28.3247 18.3527 28.8233 18.074C29.322 17.7807 29.718 17.37 30.0113 16.842C30.3047 16.2993 30.4513 15.654 30.4513 14.906ZM41.5297 21.198C40.5324 21.198 39.6377 21.022 38.8457 20.67C38.0537 20.3033 37.423 19.812 36.9537 19.196C36.499 18.58 36.2497 17.898 36.2057 17.15H39.3077C39.3664 17.6193 39.5937 18.008 39.9897 18.316C40.4004 18.624 40.9064 18.778 41.5077 18.778C42.0944 18.778 42.549 18.6607 42.8717 18.426C43.209 18.1913 43.3777 17.8907 43.3777 17.524C43.3777 17.128 43.1724 16.8347 42.7617 16.644C42.3657 16.4387 41.7277 16.2187 40.8477 15.984C39.9384 15.764 39.1904 15.5367 38.6037 15.302C38.0317 15.0673 37.533 14.708 37.1077 14.224C36.697 13.74 36.4917 13.0873 36.4917 12.266C36.4917 11.5913 36.6824 10.9753 37.0637 10.418C37.4597 9.86067 38.017 9.42067 38.7357 9.098C39.469 8.77533 40.327 8.614 41.3097 8.614C42.7617 8.614 43.9204 8.98067 44.7857 9.714C45.651 10.4327 46.1277 11.408 46.2157 12.64H43.2677C43.2237 12.156 43.0184 11.7747 42.6517 11.496C42.2997 11.2027 41.823 11.056 41.2217 11.056C40.6644 11.056 40.2317 11.1587 39.9237 11.364C39.6304 11.5693 39.4837 11.8553 39.4837 12.222C39.4837 12.6327 39.689 12.948 40.0997 13.168C40.5104 13.3733 41.1484 13.586 42.0137 13.806C42.8937 14.026 43.6197 14.2533 44.1917 14.488C44.7637 14.7227 45.255 15.0893 45.6657 15.588C46.091 16.072 46.311 16.7173 46.3257 17.524C46.3257 18.228 46.1277 18.8587 45.7317 19.416C45.3504 19.9733 44.793 20.4133 44.0597 20.736C43.341 21.044 42.4977 21.198 41.5297 21.198ZM52.7442 11.342V17.238C52.7442 17.6487 52.8396 17.9493 53.0302 18.14C53.2356 18.316 53.5729 18.404 54.0422 18.404H55.4722V21H53.5362C50.9402 21 49.6422 19.7387 49.6422 17.216V11.342H48.1902V8.812H49.6422V5.798H52.7442V8.812H55.4722V11.342H52.7442ZM69.3217 14.642C69.3217 15.082 69.2924 15.478 69.2337 15.83H60.3237C60.3971 16.71 60.7051 17.3993 61.2477 17.898C61.7904 18.3967 62.4577 18.646 63.2497 18.646C64.3937 18.646 65.2077 18.1547 65.6917 17.172H69.0137C68.6617 18.3453 67.9871 19.3133 66.9897 20.076C65.9924 20.824 64.7677 21.198 63.3157 21.198C62.1424 21.198 61.0864 20.9413 60.1477 20.428C59.2237 19.9 58.4977 19.1593 57.9697 18.206C57.4564 17.2527 57.1997 16.1527 57.1997 14.906C57.1997 13.6447 57.4564 12.5373 57.9697 11.584C58.4831 10.6307 59.2017 9.89733 60.1257 9.384C61.0497 8.87067 62.1131 8.614 63.3157 8.614C64.4744 8.614 65.5084 8.86333 66.4177 9.362C67.3417 9.86067 68.0531 10.572 68.5517 11.496C69.0651 12.4053 69.3217 13.454 69.3217 14.642ZM66.1317 13.762C66.1171 12.97 65.8311 12.3393 65.2737 11.87C64.7164 11.386 64.0344 11.144 63.2277 11.144C62.4651 11.144 61.8197 11.3787 61.2917 11.848C60.7784 12.3027 60.4631 12.9407 60.3457 13.762H66.1317ZM74.9541 10.704C75.3501 10.0587 75.8634 9.55267 76.4941 9.186C77.1394 8.81933 77.8728 8.636 78.6941 8.636V11.87H77.8801C76.9121 11.87 76.1788 12.0973 75.6801 12.552C75.1961 13.0067 74.9541 13.7987 74.9541 14.928V21H71.8741V8.812H74.9541V10.704ZM91.5228 5.644V8.13H87.4308V21H84.3508V8.13H80.2588V5.644H91.5228ZM93.2823 14.862C93.2823 13.63 93.5243 12.5373 94.0083 11.584C94.507 10.6307 95.1743 9.89733 96.0103 9.384C96.861 8.87067 97.807 8.614 98.8483 8.614C99.7577 8.614 100.55 8.79733 101.224 9.164C101.914 9.53067 102.464 9.99267 102.874 10.55V8.812H105.976V21H102.874V19.218C102.478 19.79 101.928 20.2667 101.224 20.648C100.535 21.0147 99.7357 21.198 98.8263 21.198C97.7997 21.198 96.861 20.934 96.0103 20.406C95.1743 19.878 94.507 19.1373 94.0083 18.184C93.5243 17.216 93.2823 16.1087 93.2823 14.862ZM102.874 14.906C102.874 14.158 102.728 13.52 102.434 12.992C102.141 12.4493 101.745 12.0387 101.246 11.76C100.748 11.4667 100.212 11.32 99.6403 11.32C99.0683 11.32 98.5403 11.4593 98.0563 11.738C97.5723 12.0167 97.1763 12.4273 96.8683 12.97C96.575 13.498 96.4283 14.1287 96.4283 14.862C96.4283 15.5953 96.575 16.2407 96.8683 16.798C97.1763 17.3407 97.5723 17.7587 98.0563 18.052C98.555 18.3453 99.083 18.492 99.6403 18.492C100.212 18.492 100.748 18.3527 101.246 18.074C101.745 17.7807 102.141 17.37 102.434 16.842C102.728 16.2993 102.874 15.654 102.874 14.906ZM114.063 8.614C114.972 8.614 115.771 8.79733 116.461 9.164C117.15 9.516 117.693 9.978 118.089 10.55V8.812H121.191V21.088C121.191 22.2173 120.963 23.222 120.509 24.102C120.054 24.9967 119.372 25.7007 118.463 26.214C117.553 26.742 116.453 27.006 115.163 27.006C113.432 27.006 112.009 26.6027 110.895 25.796C109.795 24.9893 109.171 23.8893 109.025 22.496H112.083C112.244 23.0533 112.589 23.4933 113.117 23.816C113.659 24.1533 114.312 24.322 115.075 24.322C115.969 24.322 116.695 24.0507 117.253 23.508C117.81 22.98 118.089 22.1733 118.089 21.088V19.196C117.693 19.768 117.143 20.2447 116.439 20.626C115.749 21.0073 114.957 21.198 114.063 21.198C113.036 21.198 112.097 20.934 111.247 20.406C110.396 19.878 109.721 19.1373 109.223 18.184C108.739 17.216 108.497 16.1087 108.497 14.862C108.497 13.63 108.739 12.5373 109.223 11.584C109.721 10.6307 110.389 9.89733 111.225 9.384C112.075 8.87067 113.021 8.614 114.063 8.614ZM118.089 14.906C118.089 14.158 117.942 13.52 117.649 12.992C117.355 12.4493 116.959 12.0387 116.461 11.76C115.962 11.4667 115.427 11.32 114.855 11.32C114.283 11.32 113.755 11.4593 113.271 11.738C112.787 12.0167 112.391 12.4273 112.083 12.97C111.789 13.498 111.643 14.1287 111.643 14.862C111.643 15.5953 111.789 16.2407 112.083 16.798C112.391 17.3407 112.787 17.7587 113.271 18.052C113.769 18.3453 114.297 18.492 114.855 18.492C115.427 18.492 115.962 18.3527 116.461 18.074C116.959 17.7807 117.355 17.37 117.649 16.842C117.942 16.2993 118.089 15.654 118.089 14.906Z" fill="#212529"/>
<path d="M9.36199 65.2V65.54H11.942V66.86H9.26199C9.14199 67.78 8.87533 68.5 8.46199 69.02C8.06199 69.54 7.47533 69.9133 6.70199 70.14C5.94199 70.3667 4.92866 70.48 3.66199 70.48V72.06C3.66199 73.86 4.44866 74.76 6.02199 74.76C7.56866 74.76 8.34199 73.8933 8.34199 72.16H10.022C10.0087 73.4933 9.65533 74.5 8.96199 75.18C8.26866 75.86 7.28199 76.2 6.00199 76.2C4.68199 76.2 3.67533 75.8333 2.98199 75.1C2.30199 74.3667 1.96199 73.34 1.96199 72.02V69.2C3.48199 69.2 4.60199 69.1533 5.32199 69.06C6.05533 68.9533 6.58866 68.74 6.92199 68.42C7.25533 68.0867 7.46866 67.5667 7.56199 66.86H1.06199V65.54H7.64199V65.18V63.38H1.06199V62.04H11.942V63.38H9.36199V65.2ZM23.5015 63.12H16.4815V67.68C16.7882 67.2533 17.2415 66.9067 17.8415 66.64C18.4415 66.36 19.0882 66.22 19.7815 66.22C20.8882 66.22 21.7882 66.4533 22.4815 66.92C23.1749 67.3733 23.6682 67.9667 23.9615 68.7C24.2682 69.42 24.4215 70.1867 24.4215 71C24.4215 71.96 24.2415 72.82 23.8815 73.58C23.5215 74.34 22.9682 74.94 22.2215 75.38C21.4882 75.82 20.5749 76.04 19.4815 76.04C18.0815 76.04 16.9482 75.68 16.0815 74.96C15.2149 74.24 14.6882 73.28 14.5015 72.08H16.2815C16.4549 72.84 16.8215 73.4333 17.3815 73.86C17.9415 74.2867 18.6482 74.5 19.5015 74.5C20.5549 74.5 21.3482 74.1867 21.8815 73.56C22.4149 72.92 22.6815 72.08 22.6815 71.04C22.6815 70 22.4149 69.2 21.8815 68.64C21.3482 68.0667 20.5615 67.78 19.5215 67.78C18.8149 67.78 18.1949 67.9533 17.6615 68.3C17.1415 68.6333 16.7615 69.0933 16.5215 69.68H14.8015V61.52H23.5015V63.12ZM29.4844 72.12C29.6177 72.88 29.9244 73.4667 30.4044 73.88C30.8977 74.2933 31.5577 74.5 32.3844 74.5C33.491 74.5 34.3044 74.0667 34.8244 73.2C35.3577 72.3333 35.611 70.8733 35.5844 68.82C35.3044 69.42 34.8377 69.8933 34.1844 70.24C33.531 70.5733 32.8044 70.74 32.0044 70.74C31.111 70.74 30.311 70.56 29.6044 70.2C28.911 69.8267 28.3644 69.2867 27.9644 68.58C27.5644 67.8733 27.3644 67.02 27.3644 66.02C27.3644 64.5933 27.7777 63.4467 28.6044 62.58C29.431 61.7 30.6044 61.26 32.1244 61.26C33.991 61.26 35.2977 61.8667 36.0444 63.08C36.8044 64.2933 37.1844 66.1 37.1844 68.5C37.1844 70.18 37.031 71.5667 36.7244 72.66C36.431 73.7533 35.9244 74.5867 35.2044 75.16C34.4977 75.7333 33.5244 76.02 32.2844 76.02C30.9244 76.02 29.8644 75.6533 29.1044 74.92C28.3444 74.1867 27.911 73.2533 27.8044 72.12H29.4844ZM32.3044 69.2C33.1977 69.2 33.931 68.9267 34.5044 68.38C35.0777 67.82 35.3644 67.0667 35.3644 66.12C35.3644 65.12 35.0844 64.3133 34.5244 63.7C33.9644 63.0867 33.1777 62.78 32.1644 62.78C31.231 62.78 30.4844 63.0733 29.9244 63.66C29.3777 64.2467 29.1044 65.02 29.1044 65.98C29.1044 66.9533 29.3777 67.7333 29.9244 68.32C30.471 68.9067 31.2644 69.2 32.3044 69.2ZM42.3862 72.12C42.5196 72.88 42.8262 73.4667 43.3062 73.88C43.7996 74.2933 44.4596 74.5 45.2862 74.5C46.3929 74.5 47.2062 74.0667 47.7262 73.2C48.2596 72.3333 48.5129 70.8733 48.4862 68.82C48.2062 69.42 47.7396 69.8933 47.0862 70.24C46.4329 70.5733 45.7062 70.74 44.9062 70.74C44.0129 70.74 43.2129 70.56 42.5062 70.2C41.8129 69.8267 41.2662 69.2867 40.8662 68.58C40.4662 67.8733 40.2662 67.02 40.2662 66.02C40.2662 64.5933 40.6796 63.4467 41.5062 62.58C42.3329 61.7 43.5062 61.26 45.0262 61.26C46.8929 61.26 48.1996 61.8667 48.9462 63.08C49.7062 64.2933 50.0862 66.1 50.0862 68.5C50.0862 70.18 49.9329 71.5667 49.6262 72.66C49.3329 73.7533 48.8262 74.5867 48.1062 75.16C47.3996 75.7333 46.4262 76.02 45.1862 76.02C43.8262 76.02 42.7662 75.6533 42.0062 74.92C41.2462 74.1867 40.8129 73.2533 40.7062 72.12H42.3862ZM45.2062 69.2C46.0996 69.2 46.8329 68.9267 47.4062 68.38C47.9796 67.82 48.2662 67.0667 48.2662 66.12C48.2662 65.12 47.9862 64.3133 47.4262 63.7C46.8662 63.0867 46.0796 62.78 45.0662 62.78C44.1329 62.78 43.3862 63.0733 42.8262 63.66C42.2796 64.2467 42.0062 65.02 42.0062 65.98C42.0062 66.9533 42.2796 67.7333 42.8262 68.32C43.3729 68.9067 44.1662 69.2 45.2062 69.2ZM53.8281 76.12C53.4814 76.12 53.1881 76 52.9481 75.76C52.7081 75.52 52.5881 75.2267 52.5881 74.88C52.5881 74.5333 52.7081 74.24 52.9481 74C53.1881 73.76 53.4814 73.64 53.8281 73.64C54.1614 73.64 54.4414 73.76 54.6681 74C54.9081 74.24 55.0281 74.5333 55.0281 74.88C55.0281 75.2267 54.9081 75.52 54.6681 75.76C54.4414 76 54.1614 76.12 53.8281 76.12ZM57.4516 68.62C57.4516 66.3267 57.8249 64.54 58.5716 63.26C59.3182 61.9667 60.6249 61.32 62.4916 61.32C64.3449 61.32 65.6449 61.9667 66.3916 63.26C67.1382 64.54 67.5116 66.3267 67.5116 68.62C67.5116 70.9533 67.1382 72.7667 66.3916 74.06C65.6449 75.3533 64.3449 76 62.4916 76C60.6249 76 59.3182 75.3533 58.5716 74.06C57.8249 72.7667 57.4516 70.9533 57.4516 68.62ZM65.7116 68.62C65.7116 67.46 65.6316 66.48 65.4716 65.68C65.3249 64.8667 65.0116 64.2133 64.5316 63.72C64.0649 63.2267 63.3849 62.98 62.4916 62.98C61.5849 62.98 60.8916 63.2267 60.4116 63.72C59.9449 64.2133 59.6316 64.8667 59.4716 65.68C59.3249 66.48 59.2516 67.46 59.2516 68.62C59.2516 69.82 59.3249 70.8267 59.4716 71.64C59.6316 72.4533 59.9449 73.1067 60.4116 73.6C60.8916 74.0933 61.5849 74.34 62.4916 74.34C63.3849 74.34 64.0649 74.0933 64.5316 73.6C65.0116 73.1067 65.3249 72.4533 65.4716 71.64C65.6316 70.8267 65.7116 69.82 65.7116 68.62ZM70.3144 68.62C70.3144 66.3267 70.6877 64.54 71.4344 63.26C72.181 61.9667 73.4877 61.32 75.3544 61.32C77.2077 61.32 78.5077 61.9667 79.2544 63.26C80.001 64.54 80.3744 66.3267 80.3744 68.62C80.3744 70.9533 80.001 72.7667 79.2544 74.06C78.5077 75.3533 77.2077 76 75.3544 76C73.4877 76 72.181 75.3533 71.4344 74.06C70.6877 72.7667 70.3144 70.9533 70.3144 68.62ZM78.5744 68.62C78.5744 67.46 78.4944 66.48 78.3344 65.68C78.1877 64.8667 77.8744 64.2133 77.3944 63.72C76.9277 63.2267 76.2477 62.98 75.3544 62.98C74.4477 62.98 73.7544 63.2267 73.2744 63.72C72.8077 64.2133 72.4944 64.8667 72.3344 65.68C72.1877 66.48 72.1144 67.46 72.1144 68.62C72.1144 69.82 72.1877 70.8267 72.3344 71.64C72.4944 72.4533 72.8077 73.1067 73.2744 73.6C73.7544 74.0933 74.4477 74.34 75.3544 74.34C76.2477 74.34 76.9277 74.0933 77.3944 73.6C77.8744 73.1067 78.1877 72.4533 78.3344 71.64C78.4944 70.8267 78.5744 69.82 78.5744 68.62Z" fill="#DB3022"/>
<path d="M90.9853 76.79C90.0253 75.85 89.2753 74.655 88.7353 73.205C88.2053 71.755 87.9403 70.19 87.9403 68.51C87.9403 66.79 88.2203 65.185 88.7803 63.695C89.3503 62.195 90.1603 60.96 91.2103 59.99H92.6353V60.125C91.5153 61.175 90.6703 62.44 90.1003 63.92C89.5403 65.39 89.2603 66.92 89.2603 68.51C89.2603 70.06 89.5253 71.54 90.0553 72.95C90.5953 74.36 91.3803 75.595 92.4103 76.655V76.79H90.9853ZM100.426 65.9V66.155H102.361V67.145H100.351C100.261 67.835 100.061 68.375 99.7511 68.765C99.4511 69.155 99.0111 69.435 98.4311 69.605C97.8611 69.775 97.1011 69.86 96.1511 69.86V71.045C96.1511 72.395 96.7411 73.07 97.9211 73.07C99.0811 73.07 99.6611 72.42 99.6611 71.12H100.921C100.911 72.12 100.646 72.875 100.126 73.385C99.6061 73.895 98.8661 74.15 97.9061 74.15C96.9161 74.15 96.1611 73.875 95.6411 73.325C95.1311 72.775 94.8761 72.005 94.8761 71.015V68.9C96.0161 68.9 96.8561 68.865 97.3961 68.795C97.9461 68.715 98.3461 68.555 98.5961 68.315C98.8461 68.065 99.0061 67.675 99.0761 67.145H94.2011V66.155H99.1361V65.885V64.535H94.2011V63.53H102.361V64.535H100.426V65.9ZM105.947 71.09C106.047 71.66 106.277 72.1 106.637 72.41C107.007 72.72 107.502 72.875 108.122 72.875C108.952 72.875 109.562 72.55 109.952 71.9C110.352 71.25 110.542 70.155 110.522 68.615C110.312 69.065 109.962 69.42 109.472 69.68C108.982 69.93 108.437 70.055 107.837 70.055C107.167 70.055 106.567 69.92 106.037 69.65C105.517 69.37 105.107 68.965 104.807 68.435C104.507 67.905 104.357 67.265 104.357 66.515C104.357 65.445 104.667 64.585 105.287 63.935C105.907 63.275 106.787 62.945 107.927 62.945C109.327 62.945 110.307 63.4 110.867 64.31C111.437 65.22 111.722 66.575 111.722 68.375C111.722 69.635 111.607 70.675 111.377 71.495C111.157 72.315 110.777 72.94 110.237 73.37C109.707 73.8 108.977 74.015 108.047 74.015C107.027 74.015 106.232 73.74 105.662 73.19C105.092 72.64 104.767 71.94 104.687 71.09H105.947ZM108.062 68.9C108.732 68.9 109.282 68.695 109.712 68.285C110.142 67.865 110.357 67.3 110.357 66.59C110.357 65.84 110.147 65.235 109.727 64.775C109.307 64.315 108.717 64.085 107.957 64.085C107.257 64.085 106.697 64.305 106.277 64.745C105.867 65.185 105.662 65.765 105.662 66.485C105.662 67.215 105.867 67.8 106.277 68.24C106.687 68.68 107.282 68.9 108.062 68.9ZM115.699 71.09C115.799 71.66 116.029 72.1 116.389 72.41C116.759 72.72 117.254 72.875 117.874 72.875C118.704 72.875 119.314 72.55 119.704 71.9C120.104 71.25 120.294 70.155 120.274 68.615C120.064 69.065 119.714 69.42 119.224 69.68C118.734 69.93 118.189 70.055 117.589 70.055C116.919 70.055 116.319 69.92 115.789 69.65C115.269 69.37 114.859 68.965 114.559 68.435C114.259 67.905 114.109 67.265 114.109 66.515C114.109 65.445 114.419 64.585 115.039 63.935C115.659 63.275 116.539 62.945 117.679 62.945C119.079 62.945 120.059 63.4 120.619 64.31C121.189 65.22 121.474 66.575 121.474 68.375C121.474 69.635 121.359 70.675 121.129 71.495C120.909 72.315 120.529 72.94 119.989 73.37C119.459 73.8 118.729 74.015 117.799 74.015C116.779 74.015 115.984 73.74 115.414 73.19C114.844 72.64 114.519 71.94 114.439 71.09H115.699ZM117.814 68.9C118.484 68.9 119.034 68.695 119.464 68.285C119.894 67.865 120.109 67.3 120.109 66.59C120.109 65.84 119.899 65.235 119.479 64.775C119.059 64.315 118.469 64.085 117.709 64.085C117.009 64.085 116.449 64.305 116.029 64.745C115.619 65.185 115.414 65.765 115.414 66.485C115.414 67.215 115.619 67.8 116.029 68.24C116.439 68.68 117.034 68.9 117.814 68.9ZM125.452 71.09C125.552 71.66 125.782 72.1 126.142 72.41C126.512 72.72 127.007 72.875 127.627 72.875C128.457 72.875 129.067 72.55 129.457 71.9C129.857 71.25 130.047 70.155 130.027 68.615C129.817 69.065 129.467 69.42 128.977 69.68C128.487 69.93 127.942 70.055 127.342 70.055C126.672 70.055 126.072 69.92 125.542 69.65C125.022 69.37 124.612 68.965 124.312 68.435C124.012 67.905 123.862 67.265 123.862 66.515C123.862 65.445 124.172 64.585 124.792 63.935C125.412 63.275 126.292 62.945 127.432 62.945C128.832 62.945 129.812 63.4 130.372 64.31C130.942 65.22 131.227 66.575 131.227 68.375C131.227 69.635 131.112 70.675 130.882 71.495C130.662 72.315 130.282 72.94 129.742 73.37C129.212 73.8 128.482 74.015 127.552 74.015C126.532 74.015 125.737 73.74 125.167 73.19C124.597 72.64 124.272 71.94 124.192 71.09H125.452ZM127.567 68.9C128.237 68.9 128.787 68.695 129.217 68.285C129.647 67.865 129.862 67.3 129.862 66.59C129.862 65.84 129.652 65.235 129.232 64.775C128.812 64.315 128.222 64.085 127.462 64.085C126.762 64.085 126.202 64.305 125.782 64.745C125.372 65.185 125.167 65.765 125.167 66.485C125.167 67.215 125.372 67.8 125.782 68.24C126.192 68.68 126.787 68.9 127.567 68.9ZM134.109 74.09C133.849 74.09 133.629 74 133.449 73.82C133.269 73.64 133.179 73.42 133.179 73.16C133.179 72.9 133.269 72.68 133.449 72.5C133.629 72.32 133.849 72.23 134.109 72.23C134.359 72.23 134.569 72.32 134.739 72.5C134.919 72.68 135.009 72.9 135.009 73.16C135.009 73.42 134.919 73.64 134.739 73.82C134.569 74 134.359 74.09 134.109 74.09ZM136.903 68.465C136.903 66.745 137.183 65.405 137.743 64.445C138.303 63.475 139.283 62.99 140.683 62.99C142.073 62.99 143.048 63.475 143.608 64.445C144.168 65.405 144.448 66.745 144.448 68.465C144.448 70.215 144.168 71.575 143.608 72.545C143.048 73.515 142.073 74 140.683 74C139.283 74 138.303 73.515 137.743 72.545C137.183 71.575 136.903 70.215 136.903 68.465ZM143.098 68.465C143.098 67.595 143.038 66.86 142.918 66.26C142.808 65.65 142.573 65.16 142.213 64.79C141.863 64.42 141.353 64.235 140.683 64.235C140.003 64.235 139.483 64.42 139.123 64.79C138.773 65.16 138.538 65.65 138.418 66.26C138.308 66.86 138.253 67.595 138.253 68.465C138.253 69.365 138.308 70.12 138.418 70.73C138.538 71.34 138.773 71.83 139.123 72.2C139.483 72.57 140.003 72.755 140.683 72.755C141.353 72.755 141.863 72.57 142.213 72.2C142.573 71.83 142.808 71.34 142.918 70.73C143.038 70.12 143.098 69.365 143.098 68.465ZM146.626 68.465C146.626 66.745 146.906 65.405 147.466 64.445C148.026 63.475 149.006 62.99 150.406 62.99C151.796 62.99 152.771 63.475 153.331 64.445C153.891 65.405 154.171 66.745 154.171 68.465C154.171 70.215 153.891 71.575 153.331 72.545C152.771 73.515 151.796 74 150.406 74C149.006 74 148.026 73.515 147.466 72.545C146.906 71.575 146.626 70.215 146.626 68.465ZM152.821 68.465C152.821 67.595 152.761 66.86 152.641 66.26C152.531 65.65 152.296 65.16 151.936 64.79C151.586 64.42 151.076 64.235 150.406 64.235C149.726 64.235 149.206 64.42 148.846 64.79C148.496 65.16 148.261 65.65 148.141 66.26C148.031 66.86 147.976 67.595 147.976 68.465C147.976 69.365 148.031 70.12 148.141 70.73C148.261 71.34 148.496 71.83 148.846 72.2C149.206 72.57 149.726 72.755 150.406 72.755C151.076 72.755 151.586 72.57 151.936 72.2C152.296 71.83 152.531 71.34 152.641 70.73C152.761 70.12 152.821 69.365 152.821 68.465ZM156.139 76.79V76.655C157.169 75.595 157.949 74.36 158.479 72.95C159.019 71.54 159.289 70.06 159.289 68.51C159.289 66.92 159.004 65.39 158.434 63.92C157.874 62.44 157.034 61.175 155.914 60.125V59.99H157.339C158.389 60.96 159.194 62.195 159.754 63.695C160.324 65.185 160.609 66.79 160.609 68.51C160.609 70.19 160.339 71.755 159.799 73.205C159.269 74.655 158.524 75.85 157.564 76.79H156.139Z" fill="#5B5B5B"/>
<path d="M93.4361 69.08H155.42V69.83H93.4361V69.08Z" fill="#5B5B5B"/>
<path d="M2.22599 85.939V95H1.04299V85.939H2.22599ZM7.71321 87.746C8.57988 87.746 9.28188 88.0103 9.81921 88.539C10.3565 89.059 10.6252 89.813 10.6252 90.801V95H9.45521V90.97C9.45521 90.2593 9.27754 89.7177 8.92221 89.345C8.56688 88.9637 8.08154 88.773 7.46621 88.773C6.84221 88.773 6.34388 88.968 5.97121 89.358C5.60721 89.748 5.42521 90.3157 5.42521 91.061V95H4.24221V87.876H5.42521V88.89C5.65921 88.526 5.97554 88.2443 6.37421 88.045C6.78154 87.8457 7.22788 87.746 7.71321 87.746ZM12.1156 91.425C12.1156 90.6883 12.263 90.047 12.5576 89.501C12.8523 88.9463 13.2596 88.5173 13.7796 88.214C14.3083 87.9107 14.9106 87.759 15.5866 87.759C16.462 87.759 17.1813 87.9713 17.7446 88.396C18.3166 88.8207 18.6936 89.41 18.8756 90.164H17.6016C17.4803 89.7307 17.242 89.3883 16.8866 89.137C16.54 88.8857 16.1066 88.76 15.5866 88.76C14.9106 88.76 14.3646 88.994 13.9486 89.462C13.5326 89.9213 13.3246 90.5757 13.3246 91.425C13.3246 92.283 13.5326 92.946 13.9486 93.414C14.3646 93.882 14.9106 94.116 15.5866 94.116C16.1066 94.116 16.54 93.9947 16.8866 93.752C17.2333 93.5093 17.4716 93.1627 17.6016 92.712H18.8756C18.685 93.44 18.3036 94.025 17.7316 94.467C17.1596 94.9003 16.4446 95.117 15.5866 95.117C14.9106 95.117 14.3083 94.9653 13.7796 94.662C13.2596 94.3587 12.8523 93.9297 12.5576 93.375C12.263 92.8203 12.1156 92.1703 12.1156 91.425ZM21.6371 85.38V95H20.4541V85.38H21.6371ZM29.9713 87.876V95H28.7883V93.947C28.563 94.311 28.2467 94.597 27.8393 94.805C27.4407 95.0043 26.9987 95.104 26.5133 95.104C25.9587 95.104 25.4603 94.9913 25.0183 94.766C24.5763 94.532 24.2253 94.1853 23.9653 93.726C23.714 93.2667 23.5883 92.7077 23.5883 92.049V87.876H24.7583V91.893C24.7583 92.595 24.936 93.1367 25.2913 93.518C25.6467 93.8907 26.132 94.077 26.7473 94.077C27.38 94.077 27.8783 93.882 28.2423 93.492C28.6063 93.102 28.7883 92.5343 28.7883 91.789V87.876H29.9713ZM31.5268 91.412C31.5268 90.684 31.6741 90.047 31.9688 89.501C32.2634 88.9463 32.6664 88.5173 33.1778 88.214C33.6978 87.9107 34.2784 87.759 34.9198 87.759C35.4744 87.759 35.9901 87.889 36.4668 88.149C36.9434 88.4003 37.3074 88.734 37.5588 89.15V85.38H38.7548V95H37.5588V93.661C37.3248 94.0857 36.9781 94.4367 36.5188 94.714C36.0594 94.9827 35.5221 95.117 34.9068 95.117C34.2741 95.117 33.6978 94.961 33.1778 94.649C32.6664 94.337 32.2634 93.8993 31.9688 93.336C31.6741 92.7727 31.5268 92.1313 31.5268 91.412ZM37.5588 91.425C37.5588 90.8877 37.4504 90.4197 37.2338 90.021C37.0171 89.6223 36.7224 89.319 36.3498 89.111C35.9858 88.8943 35.5828 88.786 35.1408 88.786C34.6988 88.786 34.2958 88.89 33.9318 89.098C33.5678 89.306 33.2774 89.6093 33.0608 90.008C32.8441 90.4067 32.7358 90.8747 32.7358 91.412C32.7358 91.958 32.8441 92.4347 33.0608 92.842C33.2774 93.2407 33.5678 93.5483 33.9318 93.765C34.2958 93.973 34.6988 94.077 35.1408 94.077C35.5828 94.077 35.9858 93.973 36.3498 93.765C36.7224 93.5483 37.0171 93.2407 37.2338 92.842C37.4504 92.4347 37.5588 91.9623 37.5588 91.425ZM47.2539 91.165C47.2539 91.3903 47.2409 91.6287 47.2149 91.88H41.5209C41.5643 92.582 41.8026 93.1323 42.2359 93.531C42.6779 93.921 43.2109 94.116 43.8349 94.116C44.3463 94.116 44.7709 93.999 45.1089 93.765C45.4556 93.5223 45.6983 93.2017 45.8369 92.803H47.1109C46.9203 93.4877 46.5389 94.0467 45.9669 94.48C45.3949 94.9047 44.6843 95.117 43.8349 95.117C43.1589 95.117 42.5523 94.9653 42.0149 94.662C41.4863 94.3587 41.0703 93.9297 40.7669 93.375C40.4636 92.8117 40.3119 92.1617 40.3119 91.425C40.3119 90.6883 40.4593 90.0427 40.7539 89.488C41.0486 88.9333 41.4603 88.5087 41.9889 88.214C42.5263 87.9107 43.1416 87.759 43.8349 87.759C44.5109 87.759 45.1089 87.9063 45.6289 88.201C46.1489 88.4957 46.5476 88.903 46.8249 89.423C47.1109 89.9343 47.2539 90.515 47.2539 91.165ZM46.0319 90.918C46.0319 90.4673 45.9323 90.0817 45.7329 89.761C45.5336 89.4317 45.2606 89.1847 44.9139 89.02C44.5759 88.8467 44.1989 88.76 43.7829 88.76C43.1849 88.76 42.6736 88.9507 42.2489 89.332C41.8329 89.7133 41.5946 90.242 41.5339 90.918H46.0319ZM51.3375 95.117C50.7915 95.117 50.3018 95.026 49.8685 94.844C49.4351 94.6533 49.0928 94.3933 48.8415 94.064C48.5901 93.726 48.4515 93.3403 48.4255 92.907H49.6475C49.6821 93.2623 49.8468 93.5527 50.1415 93.778C50.4448 94.0033 50.8391 94.116 51.3245 94.116C51.7751 94.116 52.1305 94.0163 52.3905 93.817C52.6505 93.6177 52.7805 93.3663 52.7805 93.063C52.7805 92.751 52.6418 92.5213 52.3645 92.374C52.0871 92.218 51.6581 92.0663 51.0775 91.919C50.5488 91.7803 50.1155 91.6417 49.7775 91.503C49.4481 91.3557 49.1621 91.1433 48.9195 90.866C48.6855 90.58 48.5685 90.2073 48.5685 89.748C48.5685 89.384 48.6768 89.0503 48.8935 88.747C49.1101 88.4437 49.4178 88.2053 49.8165 88.032C50.2151 87.85 50.6701 87.759 51.1815 87.759C51.9701 87.759 52.6071 87.9583 53.0925 88.357C53.5778 88.7557 53.8378 89.3017 53.8725 89.995H52.6895C52.6635 89.6223 52.5118 89.3233 52.2345 89.098C51.9658 88.8727 51.6018 88.76 51.1425 88.76C50.7178 88.76 50.3798 88.851 50.1285 89.033C49.8771 89.215 49.7515 89.4533 49.7515 89.748C49.7515 89.982 49.8251 90.177 49.9725 90.333C50.1285 90.4803 50.3191 90.6017 50.5445 90.697C50.7785 90.7837 51.0991 90.8833 51.5065 90.996C52.0178 91.1347 52.4338 91.2733 52.7545 91.412C53.0751 91.542 53.3481 91.7413 53.5735 92.01C53.8075 92.2787 53.9288 92.6297 53.9375 93.063C53.9375 93.453 53.8291 93.804 53.6125 94.116C53.3958 94.428 53.0881 94.675 52.6895 94.857C52.2995 95.0303 51.8488 95.117 51.3375 95.117ZM64.1953 85.939V86.901H60.2563V89.956H63.4543V90.918H60.2563V95H59.0733V85.939H64.1953ZM70.395 95L68.237 91.295H66.807V95H65.624V85.939H68.549C69.2337 85.939 69.81 86.056 70.278 86.29C70.7547 86.524 71.11 86.8403 71.344 87.239C71.578 87.6377 71.695 88.0927 71.695 88.604C71.695 89.228 71.513 89.7783 71.149 90.255C70.7937 90.7317 70.2564 91.048 69.537 91.204L71.812 95H70.395ZM66.807 90.346H68.549C69.1904 90.346 69.6714 90.19 69.992 89.878C70.3127 89.5573 70.473 89.1327 70.473 88.604C70.473 88.0667 70.3127 87.6507 69.992 87.356C69.68 87.0613 69.199 86.914 68.549 86.914H66.807V90.346ZM74.7162 86.901V89.93H78.0182V90.905H74.7162V94.025H78.4082V95H73.5332V85.926H78.4082V86.901H74.7162ZM81.3813 86.901V89.93H84.6833V90.905H81.3813V94.025H85.0733V95H80.1983V85.926H85.0733V86.901H81.3813ZM89.8871 90.463C89.8871 89.579 90.0865 88.786 90.4851 88.084C90.8838 87.3733 91.4255 86.8187 92.1101 86.42C92.8035 86.0213 93.5705 85.822 94.4111 85.822C95.3991 85.822 96.2615 86.0603 96.9981 86.537C97.7348 87.0137 98.2721 87.6897 98.6101 88.565H97.1931C96.9418 88.019 96.5778 87.5987 96.1011 87.304C95.6331 87.0093 95.0698 86.862 94.4111 86.862C93.7785 86.862 93.2108 87.0093 92.7081 87.304C92.2055 87.5987 91.8111 88.019 91.5251 88.565C91.2391 89.1023 91.0961 89.735 91.0961 90.463C91.0961 91.1823 91.2391 91.815 91.5251 92.361C91.8111 92.8983 92.2055 93.3143 92.7081 93.609C93.2108 93.9037 93.7785 94.051 94.4111 94.051C95.0698 94.051 95.6331 93.908 96.1011 93.622C96.5778 93.3273 96.9418 92.907 97.1931 92.361H98.6101C98.2721 93.2277 97.7348 93.8993 96.9981 94.376C96.2615 94.844 95.3991 95.078 94.4111 95.078C93.5705 95.078 92.8035 94.883 92.1101 94.493C91.4255 94.0943 90.8838 93.544 90.4851 92.842C90.0865 92.14 89.8871 91.347 89.8871 90.463ZM103.907 87.746C104.444 87.746 104.93 87.863 105.363 88.097C105.796 88.3223 106.134 88.6647 106.377 89.124C106.628 89.5833 106.754 90.1423 106.754 90.801V95H105.584V90.97C105.584 90.2593 105.406 89.7177 105.051 89.345C104.696 88.9637 104.21 88.773 103.595 88.773C102.971 88.773 102.473 88.968 102.1 89.358C101.736 89.748 101.554 90.3157 101.554 91.061V95H100.371V85.38H101.554V88.89C101.788 88.526 102.109 88.2443 102.516 88.045C102.932 87.8457 103.396 87.746 103.907 87.746ZM108.245 91.412C108.245 90.684 108.392 90.047 108.687 89.501C108.981 88.9463 109.384 88.5173 109.896 88.214C110.416 87.9107 110.992 87.759 111.625 87.759C112.249 87.759 112.79 87.8933 113.25 88.162C113.709 88.4307 114.051 88.7687 114.277 89.176V87.876H115.473V95H114.277V93.674C114.043 94.09 113.692 94.4367 113.224 94.714C112.764 94.9827 112.227 95.117 111.612 95.117C110.979 95.117 110.407 94.961 109.896 94.649C109.384 94.337 108.981 93.8993 108.687 93.336C108.392 92.7727 108.245 92.1313 108.245 91.412ZM114.277 91.425C114.277 90.8877 114.168 90.4197 113.952 90.021C113.735 89.6223 113.44 89.319 113.068 89.111C112.704 88.8943 112.301 88.786 111.859 88.786C111.417 88.786 111.014 88.89 110.65 89.098C110.286 89.306 109.995 89.6093 109.779 90.008C109.562 90.4067 109.454 90.8747 109.454 91.412C109.454 91.958 109.562 92.4347 109.779 92.842C109.995 93.2407 110.286 93.5483 110.65 93.765C111.014 93.973 111.417 94.077 111.859 94.077C112.301 94.077 112.704 93.973 113.068 93.765C113.44 93.5483 113.735 93.2407 113.952 92.842C114.168 92.4347 114.277 91.9623 114.277 91.425ZM118.655 89.033C118.863 88.6257 119.157 88.3093 119.539 88.084C119.929 87.8587 120.401 87.746 120.956 87.746V88.968H120.644C119.318 88.968 118.655 89.6873 118.655 91.126V95H117.472V87.876H118.655V89.033ZM125.259 87.759C125.875 87.759 126.412 87.8933 126.871 88.162C127.339 88.4307 127.686 88.7687 127.911 89.176V87.876H129.107V95.156C129.107 95.806 128.969 96.3823 128.691 96.885C128.414 97.3963 128.015 97.795 127.495 98.081C126.984 98.367 126.386 98.51 125.701 98.51C124.765 98.51 123.985 98.289 123.361 97.847C122.737 97.405 122.369 96.8027 122.256 96.04H123.426C123.556 96.4733 123.825 96.82 124.232 97.08C124.64 97.3487 125.129 97.483 125.701 97.483C126.351 97.483 126.88 97.2793 127.287 96.872C127.703 96.4647 127.911 95.8927 127.911 95.156V93.661C127.677 94.077 127.331 94.4237 126.871 94.701C126.412 94.9783 125.875 95.117 125.259 95.117C124.627 95.117 124.05 94.961 123.53 94.649C123.019 94.337 122.616 93.8993 122.321 93.336C122.027 92.7727 121.879 92.1313 121.879 91.412C121.879 90.684 122.027 90.047 122.321 89.501C122.616 88.9463 123.019 88.5173 123.53 88.214C124.05 87.9107 124.627 87.759 125.259 87.759ZM127.911 91.425C127.911 90.8877 127.803 90.4197 127.586 90.021C127.37 89.6223 127.075 89.319 126.702 89.111C126.338 88.8943 125.935 88.786 125.493 88.786C125.051 88.786 124.648 88.89 124.284 89.098C123.92 89.306 123.63 89.6093 123.413 90.008C123.197 90.4067 123.088 90.8747 123.088 91.412C123.088 91.958 123.197 92.4347 123.413 92.842C123.63 93.2407 123.92 93.5483 124.284 93.765C124.648 93.973 125.051 94.077 125.493 94.077C125.935 94.077 126.338 93.973 126.702 93.765C127.075 93.5483 127.37 93.2407 127.586 92.842C127.803 92.4347 127.911 91.9623 127.911 91.425ZM131.717 86.719C131.492 86.719 131.301 86.641 131.145 86.485C130.989 86.329 130.911 86.1383 130.911 85.913C130.911 85.6877 130.989 85.497 131.145 85.341C131.301 85.185 131.492 85.107 131.717 85.107C131.934 85.107 132.116 85.185 132.263 85.341C132.419 85.497 132.497 85.6877 132.497 85.913C132.497 86.1383 132.419 86.329 132.263 86.485C132.116 86.641 131.934 86.719 131.717 86.719ZM132.289 87.876V95H131.106V87.876H132.289ZM137.777 87.746C138.643 87.746 139.345 88.0103 139.883 88.539C140.42 89.059 140.689 89.813 140.689 90.801V95H139.519V90.97C139.519 90.2593 139.341 89.7177 138.986 89.345C138.63 88.9637 138.145 88.773 137.53 88.773C136.906 88.773 136.407 88.968 136.035 89.358C135.671 89.748 135.489 90.3157 135.489 91.061V95H134.306V87.876H135.489V88.89C135.723 88.526 136.039 88.2443 136.438 88.045C136.845 87.8457 137.291 87.746 137.777 87.746ZM145.559 87.759C146.174 87.759 146.712 87.8933 147.171 88.162C147.639 88.4307 147.986 88.7687 148.211 89.176V87.876H149.407V95.156C149.407 95.806 149.268 96.3823 148.991 96.885C148.714 97.3963 148.315 97.795 147.795 98.081C147.284 98.367 146.686 98.51 146.001 98.51C145.065 98.51 144.285 98.289 143.661 97.847C143.037 97.405 142.669 96.8027 142.556 96.04H143.726C143.856 96.4733 144.125 96.82 144.532 97.08C144.939 97.3487 145.429 97.483 146.001 97.483C146.651 97.483 147.18 97.2793 147.587 96.872C148.003 96.4647 148.211 95.8927 148.211 95.156V93.661C147.977 94.077 147.63 94.4237 147.171 94.701C146.712 94.9783 146.174 95.117 145.559 95.117C144.926 95.117 144.35 94.961 143.83 94.649C143.319 94.337 142.916 93.8993 142.621 93.336C142.326 92.7727 142.179 92.1313 142.179 91.412C142.179 90.684 142.326 90.047 142.621 89.501C142.916 88.9463 143.319 88.5173 143.83 88.214C144.35 87.9107 144.926 87.759 145.559 87.759ZM148.211 91.425C148.211 90.8877 148.103 90.4197 147.886 90.021C147.669 89.6223 147.375 89.319 147.002 89.111C146.638 88.8943 146.235 88.786 145.793 88.786C145.351 88.786 144.948 88.89 144.584 89.098C144.22 89.306 143.93 89.6093 143.713 90.008C143.496 90.4067 143.388 90.8747 143.388 91.412C143.388 91.958 143.496 92.4347 143.713 92.842C143.93 93.2407 144.22 93.5483 144.584 93.765C144.948 93.973 145.351 94.077 145.793 94.077C146.235 94.077 146.638 93.973 147.002 93.765C147.375 93.5483 147.669 93.2407 147.886 92.842C148.103 92.4347 148.211 91.9623 148.211 91.425ZM154.43 90.463C154.43 89.579 154.629 88.786 155.028 88.084C155.427 87.3733 155.968 86.8187 156.653 86.42C157.346 86.0213 158.113 85.822 158.954 85.822C159.942 85.822 160.804 86.0603 161.541 86.537C162.278 87.0137 162.815 87.6897 163.153 88.565H161.736C161.485 88.019 161.121 87.5987 160.644 87.304C160.176 87.0093 159.613 86.862 158.954 86.862C158.321 86.862 157.754 87.0093 157.251 87.304C156.748 87.5987 156.354 88.019 156.068 88.565C155.782 89.1023 155.639 89.735 155.639 90.463C155.639 91.1823 155.782 91.815 156.068 92.361C156.354 92.8983 156.748 93.3143 157.251 93.609C157.754 93.9037 158.321 94.051 158.954 94.051C159.613 94.051 160.176 93.908 160.644 93.622C161.121 93.3273 161.485 92.907 161.736 92.361H163.153C162.815 93.2277 162.278 93.8993 161.541 94.376C160.804 94.844 159.942 95.078 158.954 95.078C158.113 95.078 157.346 94.883 156.653 94.493C155.968 94.0943 155.427 93.544 155.028 92.842C154.629 92.14 154.43 91.347 154.43 90.463ZM164.472 91.412C164.472 90.684 164.619 90.047 164.914 89.501C165.209 88.9463 165.612 88.5173 166.123 88.214C166.643 87.9107 167.219 87.759 167.852 87.759C168.476 87.759 169.018 87.8933 169.477 88.162C169.936 88.4307 170.279 88.7687 170.504 89.176V87.876H171.7V95H170.504V93.674C170.27 94.09 169.919 94.4367 169.451 94.714C168.992 94.9827 168.454 95.117 167.839 95.117C167.206 95.117 166.634 94.961 166.123 94.649C165.612 94.337 165.209 93.8993 164.914 93.336C164.619 92.7727 164.472 92.1313 164.472 91.412ZM170.504 91.425C170.504 90.8877 170.396 90.4197 170.179 90.021C169.962 89.6223 169.668 89.319 169.295 89.111C168.931 88.8943 168.528 88.786 168.086 88.786C167.644 88.786 167.241 88.89 166.877 89.098C166.513 89.306 166.223 89.6093 166.006 90.008C165.789 90.4067 165.681 90.8747 165.681 91.412C165.681 91.958 165.789 92.4347 166.006 92.842C166.223 93.2407 166.513 93.5483 166.877 93.765C167.241 93.973 167.644 94.077 168.086 94.077C168.528 94.077 168.931 93.973 169.295 93.765C169.668 93.5483 169.962 93.2407 170.179 92.842C170.396 92.4347 170.504 91.9623 170.504 91.425ZM174.882 89.202C175.125 88.7773 175.48 88.4307 175.948 88.162C176.416 87.8933 176.949 87.759 177.547 87.759C178.189 87.759 178.765 87.9107 179.276 88.214C179.788 88.5173 180.191 88.9463 180.485 89.501C180.78 90.047 180.927 90.684 180.927 91.412C180.927 92.1313 180.78 92.7727 180.485 93.336C180.191 93.8993 179.783 94.337 179.263 94.649C178.752 94.961 178.18 95.117 177.547 95.117C176.932 95.117 176.39 94.9827 175.922 94.714C175.463 94.4453 175.116 94.103 174.882 93.687V95H173.699V85.38H174.882V89.202ZM179.718 91.412C179.718 90.8747 179.61 90.4067 179.393 90.008C179.177 89.6093 178.882 89.306 178.509 89.098C178.145 88.89 177.742 88.786 177.3 88.786C176.867 88.786 176.464 88.8943 176.091 89.111C175.727 89.319 175.433 89.6267 175.207 90.034C174.991 90.4327 174.882 90.8963 174.882 91.425C174.882 91.9623 174.991 92.4347 175.207 92.842C175.433 93.2407 175.727 93.5483 176.091 93.765C176.464 93.973 176.867 94.077 177.3 94.077C177.742 94.077 178.145 93.973 178.509 93.765C178.882 93.5483 179.177 93.2407 179.393 92.842C179.61 92.4347 179.718 91.958 179.718 91.412ZM183.667 85.38V95H182.484V85.38H183.667ZM192.184 91.165C192.184 91.3903 192.171 91.6287 192.145 91.88H186.451C186.494 92.582 186.732 93.1323 187.166 93.531C187.608 93.921 188.141 94.116 188.765 94.116C189.276 94.116 189.701 93.999 190.039 93.765C190.385 93.5223 190.628 93.2017 190.767 92.803H192.041C191.85 93.4877 191.469 94.0467 190.897 94.48C190.325 94.9047 189.614 95.117 188.765 95.117C188.089 95.117 187.482 94.9653 186.945 94.662C186.416 94.3587 186 93.9297 185.697 93.375C185.393 92.8117 185.242 92.1617 185.242 91.425C185.242 90.6883 185.389 90.0427 185.684 89.488C185.978 88.9333 186.39 88.5087 186.919 88.214C187.456 87.9107 188.071 87.759 188.765 87.759C189.441 87.759 190.039 87.9063 190.559 88.201C191.079 88.4957 191.477 88.903 191.755 89.423C192.041 89.9343 192.184 90.515 192.184 91.165ZM190.962 90.918C190.962 90.4673 190.862 90.0817 190.663 89.761C190.463 89.4317 190.19 89.1847 189.844 89.02C189.506 88.8467 189.129 88.76 188.713 88.76C188.115 88.76 187.603 88.9507 187.179 89.332C186.763 89.7133 186.524 90.242 186.464 90.918H190.962ZM194.967 93.362L193.511 96.859H192.718L193.667 93.362H194.967ZM205.365 85.939V86.901H202.895V95H201.712V86.901H199.229V85.939H205.365ZM206.379 91.412C206.379 90.684 206.527 90.047 206.821 89.501C207.116 88.9463 207.519 88.5173 208.03 88.214C208.55 87.9107 209.127 87.759 209.759 87.759C210.383 87.759 210.925 87.8933 211.384 88.162C211.844 88.4307 212.186 88.7687 212.411 89.176V87.876H213.607V95H212.411V93.674C212.177 94.09 211.826 94.4367 211.358 94.714C210.899 94.9827 210.362 95.117 209.746 95.117C209.114 95.117 208.542 94.961 208.03 94.649C207.519 94.337 207.116 93.8993 206.821 93.336C206.527 92.7727 206.379 92.1313 206.379 91.412ZM212.411 91.425C212.411 90.8877 212.303 90.4197 212.086 90.021C211.87 89.6223 211.575 89.319 211.202 89.111C210.838 88.8943 210.435 88.786 209.993 88.786C209.551 88.786 209.148 88.89 208.784 89.098C208.42 89.306 208.13 89.6093 207.913 90.008C207.697 90.4067 207.588 90.8747 207.588 91.412C207.588 91.958 207.697 92.4347 207.913 92.842C208.13 93.2407 208.42 93.5483 208.784 93.765C209.148 93.973 209.551 94.077 209.993 94.077C210.435 94.077 210.838 93.973 211.202 93.765C211.575 93.5483 211.87 93.2407 212.086 92.842C212.303 92.4347 212.411 91.9623 212.411 91.425ZM218.544 87.759C219.16 87.759 219.697 87.8933 220.156 88.162C220.624 88.4307 220.971 88.7687 221.196 89.176V87.876H222.392V95.156C222.392 95.806 222.254 96.3823 221.976 96.885C221.699 97.3963 221.3 97.795 220.78 98.081C220.269 98.367 219.671 98.51 218.986 98.51C218.05 98.51 217.27 98.289 216.646 97.847C216.022 97.405 215.654 96.8027 215.541 96.04H216.711C216.841 96.4733 217.11 96.82 217.517 97.08C217.925 97.3487 218.414 97.483 218.986 97.483C219.636 97.483 220.165 97.2793 220.572 96.872C220.988 96.4647 221.196 95.8927 221.196 95.156V93.661C220.962 94.077 220.616 94.4237 220.156 94.701C219.697 94.9783 219.16 95.117 218.544 95.117C217.912 95.117 217.335 94.961 216.815 94.649C216.304 94.337 215.901 93.8993 215.606 93.336C215.312 92.7727 215.164 92.1313 215.164 91.412C215.164 90.684 215.312 90.047 215.606 89.501C215.901 88.9463 216.304 88.5173 216.815 88.214C217.335 87.9107 217.912 87.759 218.544 87.759ZM221.196 91.425C221.196 90.8877 221.088 90.4197 220.871 90.021C220.655 89.6223 220.36 89.319 219.987 89.111C219.623 88.8943 219.22 88.786 218.778 88.786C218.336 88.786 217.933 88.89 217.569 89.098C217.205 89.306 216.915 89.6093 216.698 90.008C216.482 90.4067 216.373 90.8747 216.373 91.412C216.373 91.958 216.482 92.4347 216.698 92.842C216.915 93.2407 217.205 93.5483 217.569 93.765C217.933 93.973 218.336 94.077 218.778 94.077C219.22 94.077 219.623 93.973 219.987 93.765C220.36 93.5483 220.655 93.2407 220.871 92.842C221.088 92.4347 221.196 91.9623 221.196 91.425ZM234.812 95L233.629 93.804C233.187 94.2633 232.715 94.6057 232.212 94.831C231.71 95.0477 231.142 95.156 230.509 95.156C229.885 95.156 229.331 95.0433 228.845 94.818C228.369 94.5927 227.996 94.272 227.727 93.856C227.467 93.44 227.337 92.9547 227.337 92.4C227.337 91.7673 227.515 91.2127 227.87 90.736C228.234 90.2507 228.767 89.8693 229.469 89.592C229.192 89.2627 228.993 88.9593 228.871 88.682C228.75 88.4047 228.689 88.1013 228.689 87.772C228.689 87.3907 228.785 87.0483 228.975 86.745C229.175 86.433 229.456 86.1903 229.82 86.017C230.184 85.8437 230.605 85.757 231.081 85.757C231.549 85.757 231.957 85.848 232.303 86.03C232.65 86.212 232.91 86.4677 233.083 86.797C233.257 87.1177 233.335 87.4773 233.317 87.876H232.134C232.143 87.5207 232.043 87.2433 231.835 87.044C231.627 86.836 231.359 86.732 231.029 86.732C230.683 86.732 230.401 86.8317 230.184 87.031C229.976 87.2217 229.872 87.4687 229.872 87.772C229.872 88.032 229.942 88.2833 230.08 88.526C230.228 88.7687 230.47 89.0677 230.808 89.423L233.512 92.14L233.746 91.776L234.63 90.294H235.904L234.838 92.14C234.691 92.4 234.518 92.673 234.318 92.959L236.359 95H234.812ZM230.509 94.142C230.977 94.142 231.398 94.051 231.77 93.869C232.152 93.687 232.511 93.4053 232.849 93.024L230.184 90.346C229.075 90.7707 228.52 91.4423 228.52 92.361C228.52 92.8723 228.702 93.297 229.066 93.635C229.439 93.973 229.92 94.142 230.509 94.142ZM243.807 95.091C243.209 95.091 242.671 94.987 242.195 94.779C241.727 94.5623 241.358 94.2677 241.09 93.895C240.821 93.5137 240.682 93.076 240.674 92.582H241.935C241.978 93.0067 242.151 93.3663 242.455 93.661C242.767 93.947 243.217 94.09 243.807 94.09C244.37 94.09 244.812 93.9513 245.133 93.674C245.462 93.388 245.627 93.024 245.627 92.582C245.627 92.2353 245.531 91.9537 245.341 91.737C245.15 91.5203 244.912 91.3557 244.626 91.243C244.34 91.1303 243.954 91.009 243.469 90.879C242.871 90.723 242.39 90.567 242.026 90.411C241.67 90.255 241.363 90.0123 241.103 89.683C240.851 89.345 240.726 88.8943 240.726 88.331C240.726 87.837 240.851 87.3993 241.103 87.018C241.354 86.6367 241.705 86.342 242.156 86.134C242.615 85.926 243.139 85.822 243.729 85.822C244.578 85.822 245.271 86.0343 245.809 86.459C246.355 86.8837 246.662 87.447 246.732 88.149H245.432C245.388 87.8023 245.206 87.499 244.886 87.239C244.565 86.9703 244.14 86.836 243.612 86.836C243.118 86.836 242.715 86.966 242.403 87.226C242.091 87.4773 241.935 87.8327 241.935 88.292C241.935 88.6213 242.026 88.89 242.208 89.098C242.398 89.306 242.628 89.4663 242.897 89.579C243.174 89.683 243.56 89.8043 244.054 89.943C244.652 90.1077 245.133 90.2723 245.497 90.437C245.861 90.593 246.173 90.84 246.433 91.178C246.693 91.5073 246.823 91.958 246.823 92.53C246.823 92.972 246.706 93.388 246.472 93.778C246.238 94.168 245.891 94.4843 245.432 94.727C244.972 94.9697 244.431 95.091 243.807 95.091ZM250.007 88.851V93.05C250.007 93.3967 250.08 93.6437 250.228 93.791C250.375 93.9297 250.631 93.999 250.994 93.999H251.866V95H250.8C250.141 95 249.647 94.8483 249.318 94.545C248.988 94.2417 248.824 93.7433 248.824 93.05V88.851H247.901V87.876H248.824V86.082H250.007V87.876H251.866V88.851H250.007ZM253.91 86.719C253.685 86.719 253.494 86.641 253.338 86.485C253.182 86.329 253.104 86.1383 253.104 85.913C253.104 85.6877 253.182 85.497 253.338 85.341C253.494 85.185 253.685 85.107 253.91 85.107C254.127 85.107 254.309 85.185 254.456 85.341C254.612 85.497 254.69 85.6877 254.69 85.913C254.69 86.1383 254.612 86.329 254.456 86.485C254.309 86.641 254.127 86.719 253.91 86.719ZM254.482 87.876V95H253.299V87.876H254.482ZM256.056 91.425C256.056 90.6883 256.203 90.047 256.498 89.501C256.793 88.9463 257.2 88.5173 257.72 88.214C258.249 87.9107 258.851 87.759 259.527 87.759C260.402 87.759 261.122 87.9713 261.685 88.396C262.257 88.8207 262.634 89.41 262.816 90.164H261.542C261.421 89.7307 261.182 89.3883 260.827 89.137C260.48 88.8857 260.047 88.76 259.527 88.76C258.851 88.76 258.305 88.994 257.889 89.462C257.473 89.9213 257.265 90.5757 257.265 91.425C257.265 92.283 257.473 92.946 257.889 93.414C258.305 93.882 258.851 94.116 259.527 94.116C260.047 94.116 260.48 93.9947 260.827 93.752C261.174 93.5093 261.412 93.1627 261.542 92.712H262.816C262.625 93.44 262.244 94.025 261.672 94.467C261.1 94.9003 260.385 95.117 259.527 95.117C258.851 95.117 258.249 94.9653 257.72 94.662C257.2 94.3587 256.793 93.9297 256.498 93.375C256.203 92.8203 256.056 92.1703 256.056 91.425ZM268.373 95L265.578 91.854V95H264.395V85.38H265.578V91.035L268.321 87.876H269.972L266.618 91.425L269.985 95H268.373ZM277.585 91.165C277.585 91.3903 277.572 91.6287 277.546 91.88H271.852C271.895 92.582 272.134 93.1323 272.567 93.531C273.009 93.921 273.542 94.116 274.166 94.116C274.677 94.116 275.102 93.999 275.44 93.765C275.787 93.5223 276.029 93.2017 276.168 92.803H277.442C277.251 93.4877 276.87 94.0467 276.298 94.48C275.726 94.9047 275.015 95.117 274.166 95.117C273.49 95.117 272.883 94.9653 272.346 94.662C271.817 94.3587 271.401 93.9297 271.098 93.375C270.795 92.8117 270.643 92.1617 270.643 91.425C270.643 90.6883 270.79 90.0427 271.085 89.488C271.38 88.9333 271.791 88.5087 272.32 88.214C272.857 87.9107 273.473 87.759 274.166 87.759C274.842 87.759 275.44 87.9063 275.96 88.201C276.48 88.4957 276.879 88.903 277.156 89.423C277.442 89.9343 277.585 90.515 277.585 91.165ZM276.363 90.918C276.363 90.4673 276.263 90.0817 276.064 89.761C275.865 89.4317 275.592 89.1847 275.245 89.02C274.907 88.8467 274.53 88.76 274.114 88.76C273.516 88.76 273.005 88.9507 272.58 89.332C272.164 89.7133 271.926 90.242 271.865 90.918H276.363ZM280.33 89.033C280.538 88.6257 280.832 88.3093 281.214 88.084C281.604 87.8587 282.076 87.746 282.631 87.746V88.968H282.319C280.993 88.968 280.33 89.6873 280.33 91.126V95H279.147V87.876H280.33V89.033Z" fill="#5B5B5B"/>
<path d="M4.39599 44.604C3.49999 43.7267 2.79999 42.6113 2.29599 41.258C1.80133 39.9047 1.55399 38.444 1.55399 36.876C1.55399 35.2707 1.81533 33.7727 2.33799 32.382C2.86999 30.982 3.62599 29.8293 4.60599 28.924H5.93599V29.05C4.89066 30.03 4.10199 31.2107 3.56999 32.592C3.04733 33.964 2.78599 35.392 2.78599 36.876C2.78599 38.3227 3.03333 39.704 3.52799 41.02C4.03199 42.336 4.76466 43.4887 5.72599 44.478V44.604H4.39599ZM13.9007 32.242V33.278H11.2407V42H9.96671V33.278H7.29271V32.242H13.9007ZM15.4102 38.136C15.4102 37.352 15.5689 36.666 15.8862 36.078C16.2036 35.4807 16.6376 35.0187 17.1882 34.692C17.7482 34.3653 18.3689 34.202 19.0502 34.202C19.7222 34.202 20.3056 34.3467 20.8002 34.636C21.2949 34.9253 21.6636 35.2893 21.9062 35.728V34.328H23.1942V42H21.9062V40.572C21.6542 41.02 21.2762 41.3933 20.7722 41.692C20.2776 41.9813 19.6989 42.126 19.0362 42.126C18.3549 42.126 17.7389 41.958 17.1882 41.622C16.6376 41.286 16.2036 40.8147 15.8862 40.208C15.5689 39.6013 15.4102 38.9107 15.4102 38.136ZM21.9062 38.15C21.9062 37.5713 21.7896 37.0673 21.5562 36.638C21.3229 36.2087 21.0056 35.882 20.6042 35.658C20.2122 35.4247 19.7782 35.308 19.3022 35.308C18.8262 35.308 18.3922 35.42 18.0002 35.644C17.6082 35.868 17.2956 36.1947 17.0622 36.624C16.8289 37.0533 16.7122 37.5573 16.7122 38.136C16.7122 38.724 16.8289 39.2373 17.0622 39.676C17.2956 40.1053 17.6082 40.4367 18.0002 40.67C18.3922 40.894 18.8262 41.006 19.3022 41.006C19.7782 41.006 20.2122 40.894 20.6042 40.67C21.0056 40.4367 21.3229 40.1053 21.5562 39.676C21.7896 39.2373 21.9062 38.7287 21.9062 38.15ZM28.9285 34.202C29.5911 34.202 30.1698 34.3467 30.6645 34.636C31.1685 34.9253 31.5418 35.2893 31.7845 35.728V34.328H33.0725V42.168C33.0725 42.868 32.9231 43.4887 32.6245 44.03C32.3258 44.5807 31.8965 45.01 31.3365 45.318C30.7858 45.626 30.1418 45.78 29.4045 45.78C28.3965 45.78 27.5565 45.542 26.8845 45.066C26.2125 44.59 25.8158 43.9413 25.6945 43.12H26.9545C27.0945 43.5867 27.3838 43.96 27.8225 44.24C28.2611 44.5293 28.7885 44.674 29.4045 44.674C30.1045 44.674 30.6738 44.4547 31.1125 44.016C31.5605 43.5773 31.7845 42.9613 31.7845 42.168V40.558C31.5325 41.006 31.1591 41.3793 30.6645 41.678C30.1698 41.9767 29.5911 42.126 28.9285 42.126C28.2471 42.126 27.6265 41.958 27.0665 41.622C26.5158 41.286 26.0818 40.8147 25.7645 40.208C25.4471 39.6013 25.2885 38.9107 25.2885 38.136C25.2885 37.352 25.4471 36.666 25.7645 36.078C26.0818 35.4807 26.5158 35.0187 27.0665 34.692C27.6265 34.3653 28.2471 34.202 28.9285 34.202ZM31.7845 38.15C31.7845 37.5713 31.6678 37.0673 31.4345 36.638C31.2011 36.2087 30.8838 35.882 30.4825 35.658C30.0905 35.4247 29.6565 35.308 29.1805 35.308C28.7045 35.308 28.2705 35.42 27.8785 35.644C27.4865 35.868 27.1738 36.1947 26.9405 36.624C26.7071 37.0533 26.5905 37.5573 26.5905 38.136C26.5905 38.724 26.7071 39.2373 26.9405 39.676C27.1738 40.1053 27.4865 40.4367 27.8785 40.67C28.2705 40.894 28.7045 41.006 29.1805 41.006C29.6565 41.006 30.0905 40.894 30.4825 40.67C30.8838 40.4367 31.2011 40.1053 31.4345 39.676C31.6678 39.2373 31.7845 38.7287 31.7845 38.15ZM42.9227 37.422H39.9407V40.446H38.7507V37.422H35.7827V36.344H38.7507V33.306H39.9407V36.344H42.9227V37.422ZM48.7107 42.098C48.0667 42.098 47.488 41.986 46.9747 41.762C46.4707 41.5287 46.074 41.2113 45.7847 40.81C45.4953 40.3993 45.346 39.928 45.3367 39.396H46.6947C46.7413 39.8533 46.928 40.2407 47.2547 40.558C47.5907 40.866 48.076 41.02 48.7107 41.02C49.3173 41.02 49.7933 40.8707 50.1387 40.572C50.4933 40.264 50.6707 39.872 50.6707 39.396C50.6707 39.0227 50.568 38.7193 50.3627 38.486C50.1573 38.2527 49.9007 38.0753 49.5927 37.954C49.2847 37.8327 48.8693 37.702 48.3467 37.562C47.7027 37.394 47.1847 37.226 46.7927 37.058C46.41 36.89 46.0787 36.6287 45.7987 36.274C45.528 35.91 45.3927 35.4247 45.3927 34.818C45.3927 34.286 45.528 33.8147 45.7987 33.404C46.0693 32.9933 46.4473 32.676 46.9327 32.452C47.4273 32.228 47.992 32.116 48.6267 32.116C49.5413 32.116 50.288 32.3447 50.8667 32.802C51.4547 33.2593 51.786 33.866 51.8607 34.622H50.4607C50.414 34.2487 50.218 33.922 49.8727 33.642C49.5273 33.3527 49.07 33.208 48.5007 33.208C47.9687 33.208 47.5347 33.348 47.1987 33.628C46.8627 33.8987 46.6947 34.2813 46.6947 34.776C46.6947 35.1307 46.7927 35.42 46.9887 35.644C47.194 35.868 47.4413 36.0407 47.7307 36.162C48.0293 36.274 48.4447 36.4047 48.9767 36.554C49.6207 36.7313 50.1387 36.9087 50.5307 37.086C50.9227 37.254 51.2587 37.52 51.5387 37.884C51.8187 38.2387 51.9587 38.724 51.9587 39.34C51.9587 39.816 51.8327 40.264 51.5807 40.684C51.3287 41.104 50.9553 41.4447 50.4607 41.706C49.966 41.9673 49.3827 42.098 48.7107 42.098ZM55.8047 35.378V39.9C55.8047 40.2733 55.8841 40.5393 56.0427 40.698C56.2014 40.8473 56.4767 40.922 56.8687 40.922H57.8067V42H56.6587C55.9494 42 55.4174 41.8367 55.0627 41.51C54.7081 41.1833 54.5307 40.6467 54.5307 39.9V35.378H53.5367V34.328H54.5307V32.396H55.8047V34.328H57.8067V35.378H55.8047ZM60.4257 33.082C60.183 33.082 59.9777 32.998 59.8097 32.83C59.6417 32.662 59.5577 32.4567 59.5577 32.214C59.5577 31.9713 59.6417 31.766 59.8097 31.598C59.9777 31.43 60.183 31.346 60.4257 31.346C60.659 31.346 60.855 31.43 61.0137 31.598C61.1817 31.766 61.2657 31.9713 61.2657 32.214C61.2657 32.4567 61.1817 32.662 61.0137 32.83C60.855 32.998 60.659 33.082 60.4257 33.082ZM61.0417 34.328V42H59.7677V34.328H61.0417ZM63.1543 38.15C63.1543 37.3567 63.3129 36.666 63.6303 36.078C63.9476 35.4807 64.3863 35.0187 64.9463 34.692C65.5156 34.3653 66.1643 34.202 66.8923 34.202C67.8349 34.202 68.6096 34.4307 69.2163 34.888C69.8323 35.3453 70.2383 35.98 70.4343 36.792H69.0623C68.9316 36.3253 68.6749 35.9567 68.2923 35.686C67.9189 35.4153 67.4523 35.28 66.8923 35.28C66.1643 35.28 65.5763 35.532 65.1283 36.036C64.6803 36.5307 64.4563 37.2353 64.4563 38.15C64.4563 39.074 64.6803 39.788 65.1283 40.292C65.5763 40.796 66.1643 41.048 66.8923 41.048C67.4523 41.048 67.9189 40.9173 68.2923 40.656C68.6656 40.3947 68.9223 40.0213 69.0623 39.536H70.4343C70.2289 40.32 69.8183 40.95 69.2023 41.426C68.5863 41.8927 67.8163 42.126 66.8923 42.126C66.1643 42.126 65.5156 41.9627 64.9463 41.636C64.3863 41.3093 63.9476 40.8473 63.6303 40.25C63.3129 39.6527 63.1543 38.9527 63.1543 38.15ZM76.8355 42L73.8255 38.612V42H72.5515V31.64H73.8255V37.73L76.7795 34.328H78.5575L74.9455 38.15L78.5715 42H76.8355ZM87.4539 37.422H84.4719V40.446H83.2819V37.422H80.3139V36.344H83.2819V33.306H84.4719V36.344H87.4539V37.422ZM96.6718 35.098C96.6718 35.91 96.3918 36.5867 95.8318 37.128C95.2811 37.66 94.4365 37.926 93.2978 37.926H91.4218V42H90.1478V32.242H93.2978C94.3991 32.242 95.2345 32.508 95.8038 33.04C96.3825 33.572 96.6718 34.258 96.6718 35.098ZM93.2978 36.876C94.0071 36.876 94.5298 36.722 94.8658 36.414C95.2018 36.106 95.3698 35.6673 95.3698 35.098C95.3698 33.894 94.6791 33.292 93.2978 33.292H91.4218V36.876H93.2978ZM99.9465 31.64V42H98.6725V31.64H99.9465ZM102.059 38.136C102.059 37.352 102.218 36.666 102.535 36.078C102.852 35.4807 103.286 35.0187 103.837 34.692C104.397 34.3653 105.018 34.202 105.699 34.202C106.371 34.202 106.954 34.3467 107.449 34.636C107.944 34.9253 108.312 35.2893 108.555 35.728V34.328H109.843V42H108.555V40.572C108.303 41.02 107.925 41.3933 107.421 41.692C106.926 41.9813 106.348 42.126 105.685 42.126C105.004 42.126 104.388 41.958 103.837 41.622C103.286 41.286 102.852 40.8147 102.535 40.208C102.218 39.6013 102.059 38.9107 102.059 38.136ZM108.555 38.15C108.555 37.5713 108.438 37.0673 108.205 36.638C107.972 36.2087 107.654 35.882 107.253 35.658C106.861 35.4247 106.427 35.308 105.951 35.308C105.475 35.308 105.041 35.42 104.649 35.644C104.257 35.868 103.944 36.1947 103.711 36.624C103.478 37.0533 103.361 37.5573 103.361 38.136C103.361 38.724 103.478 39.2373 103.711 39.676C103.944 40.1053 104.257 40.4367 104.649 40.67C105.041 40.894 105.475 41.006 105.951 41.006C106.427 41.006 106.861 40.894 107.253 40.67C107.654 40.4367 107.972 40.1053 108.205 39.676C108.438 39.2373 108.555 38.7287 108.555 38.15ZM111.937 38.15C111.937 37.3567 112.096 36.666 112.413 36.078C112.731 35.4807 113.169 35.0187 113.729 34.692C114.299 34.3653 114.947 34.202 115.675 34.202C116.618 34.202 117.393 34.4307 117.999 34.888C118.615 35.3453 119.021 35.98 119.217 36.792H117.845C117.715 36.3253 117.458 35.9567 117.075 35.686C116.702 35.4153 116.235 35.28 115.675 35.28C114.947 35.28 114.359 35.532 113.911 36.036C113.463 36.5307 113.239 37.2353 113.239 38.15C113.239 39.074 113.463 39.788 113.911 40.292C114.359 40.796 114.947 41.048 115.675 41.048C116.235 41.048 116.702 40.9173 117.075 40.656C117.449 40.3947 117.705 40.0213 117.845 39.536H119.217C119.012 40.32 118.601 40.95 117.985 41.426C117.369 41.8927 116.599 42.126 115.675 42.126C114.947 42.126 114.299 41.9627 113.729 41.636C113.169 41.3093 112.731 40.8473 112.413 40.25C112.096 39.6527 111.937 38.9527 111.937 38.15ZM128.335 37.87C128.335 38.1127 128.321 38.3693 128.293 38.64H122.161C122.207 39.396 122.464 39.9887 122.931 40.418C123.407 40.838 123.981 41.048 124.653 41.048C125.203 41.048 125.661 40.922 126.025 40.67C126.398 40.4087 126.659 40.0633 126.809 39.634H128.181C127.975 40.3713 127.565 40.9733 126.949 41.44C126.333 41.8973 125.567 42.126 124.653 42.126C123.925 42.126 123.271 41.9627 122.693 41.636C122.123 41.3093 121.675 40.8473 121.349 40.25C121.022 39.6433 120.859 38.9433 120.859 38.15C120.859 37.3567 121.017 36.6613 121.335 36.064C121.652 35.4667 122.095 35.0093 122.665 34.692C123.243 34.3653 123.906 34.202 124.653 34.202C125.381 34.202 126.025 34.3607 126.585 34.678C127.145 34.9953 127.574 35.434 127.873 35.994C128.181 36.5447 128.335 37.17 128.335 37.87ZM127.019 37.604C127.019 37.1187 126.911 36.7033 126.697 36.358C126.482 36.0033 126.188 35.7373 125.815 35.56C125.451 35.3733 125.045 35.28 124.597 35.28C123.953 35.28 123.402 35.4853 122.945 35.896C122.497 36.3067 122.24 36.876 122.175 37.604H127.019ZM130.028 44.604V44.478C130.989 43.4887 131.717 42.336 132.212 41.02C132.716 39.704 132.968 38.3227 132.968 36.876C132.968 35.392 132.702 33.964 132.17 32.592C131.647 31.2107 130.863 30.03 129.818 29.05V28.924H131.148C132.128 29.8293 132.879 30.982 133.402 32.382C133.934 33.7727 134.2 35.2707 134.2 36.876C134.2 38.444 133.948 39.9047 133.444 41.258C132.949 42.6113 132.254 43.7267 131.358 44.604H130.028Z" fill="black"/>
</svg>
