<svg width="283" height="99" viewBox="0 0 283 99" fill="none" xmlns="http://www.w3.org/2000/svg">
<rect x="212" y="3" width="71" height="21" rx="6" fill="#2AA952"/>
<path d="M228.322 9.984H223.408V13.176C223.623 12.8773 223.94 12.6347 224.36 12.448C224.78 12.252 225.233 12.154 225.718 12.154C226.493 12.154 227.123 12.3173 227.608 12.644C228.093 12.9613 228.439 13.3767 228.644 13.89C228.859 14.394 228.966 14.9307 228.966 15.5C228.966 16.172 228.84 16.774 228.588 17.306C228.336 17.838 227.949 18.258 227.426 18.566C226.913 18.874 226.273 19.028 225.508 19.028C224.528 19.028 223.735 18.776 223.128 18.272C222.521 17.768 222.153 17.096 222.022 16.256H223.268C223.389 16.788 223.646 17.2033 224.038 17.502C224.43 17.8007 224.925 17.95 225.522 17.95C226.259 17.95 226.815 17.7307 227.188 17.292C227.561 16.844 227.748 16.256 227.748 15.528C227.748 14.8 227.561 14.24 227.188 13.848C226.815 13.4467 226.264 13.246 225.536 13.246C225.041 13.246 224.607 13.3673 224.234 13.61C223.87 13.8433 223.604 14.1653 223.436 14.576H222.232V8.864H228.322V9.984ZM231.076 13.834C231.076 12.2287 231.338 10.978 231.86 10.082C232.383 9.17667 233.298 8.724 234.604 8.724C235.902 8.724 236.812 9.17667 237.334 10.082C237.857 10.978 238.118 12.2287 238.118 13.834C238.118 15.4673 237.857 16.7367 237.334 17.642C236.812 18.5473 235.902 19 234.604 19C233.298 19 232.383 18.5473 231.86 17.642C231.338 16.7367 231.076 15.4673 231.076 13.834ZM236.858 13.834C236.858 13.022 236.802 12.336 236.69 11.776C236.588 11.2067 236.368 10.7493 236.032 10.404C235.706 10.0587 235.23 9.886 234.604 9.886C233.97 9.886 233.484 10.0587 233.148 10.404C232.822 10.7493 232.602 11.2067 232.49 11.776C232.388 12.336 232.336 13.022 232.336 13.834C232.336 14.674 232.388 15.3787 232.49 15.948C232.602 16.5173 232.822 16.9747 233.148 17.32C233.484 17.6653 233.97 17.838 234.604 17.838C235.23 17.838 235.706 17.6653 236.032 17.32C236.368 16.9747 236.588 16.5173 236.69 15.948C236.802 15.3787 236.858 14.674 236.858 13.834ZM240.005 11.16C240.005 10.5253 240.196 10.0213 240.579 9.648C240.961 9.26533 241.451 9.074 242.049 9.074C242.646 9.074 243.136 9.26533 243.519 9.648C243.901 10.0213 244.093 10.5253 244.093 11.16C244.093 11.804 243.901 12.3173 243.519 12.7C243.136 13.0733 242.646 13.26 242.049 13.26C241.451 13.26 240.961 13.0733 240.579 12.7C240.196 12.3173 240.005 11.804 240.005 11.16ZM248.181 9.228L242.511 19H241.251L246.921 9.228H248.181ZM242.049 9.858C241.731 9.858 241.479 9.97 241.293 10.194C241.115 10.4087 241.027 10.7307 241.027 11.16C241.027 11.5893 241.115 11.916 241.293 12.14C241.479 12.364 241.731 12.476 242.049 12.476C242.366 12.476 242.618 12.364 242.805 12.14C242.991 11.9067 243.085 11.58 243.085 11.16C243.085 10.7307 242.991 10.4087 242.805 10.194C242.618 9.97 242.366 9.858 242.049 9.858ZM245.367 17.068C245.367 16.424 245.558 15.9153 245.941 15.542C246.323 15.1593 246.813 14.968 247.411 14.968C248.008 14.968 248.493 15.1593 248.867 15.542C249.249 15.9153 249.441 16.424 249.441 17.068C249.441 17.7027 249.249 18.2113 248.867 18.594C248.493 18.9767 248.008 19.168 247.411 19.168C246.813 19.168 246.323 18.9813 245.941 18.608C245.558 18.2253 245.367 17.712 245.367 17.068ZM247.397 15.766C247.079 15.766 246.827 15.878 246.641 16.102C246.454 16.3167 246.361 16.6387 246.361 17.068C246.361 17.488 246.454 17.81 246.641 18.034C246.827 18.2487 247.079 18.356 247.397 18.356C247.714 18.356 247.966 18.2487 248.153 18.034C248.339 17.81 248.433 17.488 248.433 17.068C248.433 16.6387 248.339 16.3167 248.153 16.102C247.966 15.878 247.714 15.766 247.397 15.766ZM259.031 19.126C258.312 19.126 257.659 18.9627 257.071 18.636C256.492 18.3093 256.035 17.8473 255.699 17.25C255.372 16.6433 255.209 15.9433 255.209 15.15C255.209 14.366 255.377 13.6753 255.713 13.078C256.058 12.4713 256.525 12.0093 257.113 11.692C257.701 11.3653 258.359 11.202 259.087 11.202C259.815 11.202 260.473 11.3653 261.061 11.692C261.649 12.0093 262.111 12.4667 262.447 13.064C262.792 13.6613 262.965 14.3567 262.965 15.15C262.965 15.9433 262.787 16.6433 262.433 17.25C262.087 17.8473 261.616 18.3093 261.019 18.636C260.421 18.9627 259.759 19.126 259.031 19.126ZM259.031 18.006C259.488 18.006 259.917 17.8987 260.319 17.684C260.72 17.4693 261.042 17.1473 261.285 16.718C261.537 16.2887 261.663 15.766 261.663 15.15C261.663 14.534 261.541 14.0113 261.299 13.582C261.056 13.1527 260.739 12.8353 260.347 12.63C259.955 12.4153 259.53 12.308 259.073 12.308C258.606 12.308 258.177 12.4153 257.785 12.63C257.402 12.8353 257.094 13.1527 256.861 13.582C256.627 14.0113 256.511 14.534 256.511 15.15C256.511 15.7753 256.623 16.3027 256.847 16.732C257.08 17.1613 257.388 17.4833 257.771 17.698C258.153 17.9033 258.573 18.006 259.031 18.006ZM268.179 12.378H266.569V19H265.295V12.378H264.301V11.328H265.295V10.782C265.295 9.92333 265.514 9.298 265.953 8.906C266.401 8.50467 267.115 8.304 268.095 8.304V9.368C267.535 9.368 267.138 9.48 266.905 9.704C266.681 9.91867 266.569 10.278 266.569 10.782V11.328H268.179V12.378ZM273.204 12.378H271.594V19H270.32V12.378H269.326V11.328H270.32V10.782C270.32 9.92333 270.539 9.298 270.978 8.906C271.426 8.50467 272.14 8.304 273.12 8.304V9.368C272.56 9.368 272.163 9.48 271.93 9.704C271.706 9.91867 271.594 10.278 271.594 10.782V11.328H273.204V12.378Z" fill="white"/>
<path d="M18.26 5.644V21H15.18V11.012L11.066 21H8.734L4.598 11.012V21H1.518V5.644H5.016L9.9 17.062L14.784 5.644H18.26ZM20.8173 14.862C20.8173 13.63 21.0593 12.5373 21.5433 11.584C22.042 10.6307 22.7093 9.89733 23.5453 9.384C24.396 8.87067 25.342 8.614 26.3833 8.614C27.2927 8.614 28.0847 8.79733 28.7593 9.164C29.4487 9.53067 29.9987 9.99267 30.4093 10.55V8.812H33.5113V21H30.4093V19.218C30.0133 19.79 29.4633 20.2667 28.7593 20.648C28.07 21.0147 27.2707 21.198 26.3613 21.198C25.3347 21.198 24.396 20.934 23.5453 20.406C22.7093 19.878 22.042 19.1373 21.5433 18.184C21.0593 17.216 20.8173 16.1087 20.8173 14.862ZM30.4093 14.906C30.4093 14.158 30.2627 13.52 29.9693 12.992C29.676 12.4493 29.28 12.0387 28.7813 11.76C28.2827 11.4667 27.7473 11.32 27.1753 11.32C26.6033 11.32 26.0753 11.4593 25.5913 11.738C25.1073 12.0167 24.7113 12.4273 24.4033 12.97C24.11 13.498 23.9633 14.1287 23.9633 14.862C23.9633 15.5953 24.11 16.2407 24.4033 16.798C24.7113 17.3407 25.1073 17.7587 25.5913 18.052C26.09 18.3453 26.618 18.492 27.1753 18.492C27.7473 18.492 28.2827 18.3527 28.7813 18.074C29.28 17.7807 29.676 17.37 29.9693 16.842C30.2627 16.2993 30.4093 15.654 30.4093 14.906ZM41.4877 21.198C40.4904 21.198 39.5957 21.022 38.8037 20.67C38.0117 20.3033 37.3811 19.812 36.9117 19.196C36.4571 18.58 36.2077 17.898 36.1637 17.15H39.2657C39.3244 17.6193 39.5517 18.008 39.9477 18.316C40.3584 18.624 40.8644 18.778 41.4657 18.778C42.0524 18.778 42.5071 18.6607 42.8297 18.426C43.1671 18.1913 43.3357 17.8907 43.3357 17.524C43.3357 17.128 43.1304 16.8347 42.7197 16.644C42.3237 16.4387 41.6857 16.2187 40.8057 15.984C39.8964 15.764 39.1484 15.5367 38.5617 15.302C37.9897 15.0673 37.4911 14.708 37.0657 14.224C36.6551 13.74 36.4497 13.0873 36.4497 12.266C36.4497 11.5913 36.6404 10.9753 37.0217 10.418C37.4177 9.86067 37.9751 9.42067 38.6937 9.098C39.4271 8.77533 40.2851 8.614 41.2677 8.614C42.7197 8.614 43.8784 8.98067 44.7437 9.714C45.6091 10.4327 46.0857 11.408 46.1737 12.64H43.2257C43.1817 12.156 42.9764 11.7747 42.6097 11.496C42.2577 11.2027 41.7811 11.056 41.1797 11.056C40.6224 11.056 40.1897 11.1587 39.8817 11.364C39.5884 11.5693 39.4417 11.8553 39.4417 12.222C39.4417 12.6327 39.6471 12.948 40.0577 13.168C40.4684 13.3733 41.1064 13.586 41.9717 13.806C42.8517 14.026 43.5777 14.2533 44.1497 14.488C44.7217 14.7227 45.2131 15.0893 45.6237 15.588C46.0491 16.072 46.2691 16.7173 46.2837 17.524C46.2837 18.228 46.0857 18.8587 45.6897 19.416C45.3084 19.9733 44.7511 20.4133 44.0177 20.736C43.2991 21.044 42.4557 21.198 41.4877 21.198ZM52.7022 11.342V17.238C52.7022 17.6487 52.7976 17.9493 52.9882 18.14C53.1936 18.316 53.5309 18.404 54.0002 18.404H55.4302V21H53.4942C50.8982 21 49.6002 19.7387 49.6002 17.216V11.342H48.1482V8.812H49.6002V5.798H52.7022V8.812H55.4302V11.342H52.7022ZM69.2797 14.642C69.2797 15.082 69.2504 15.478 69.1917 15.83H60.2817C60.3551 16.71 60.6631 17.3993 61.2057 17.898C61.7484 18.3967 62.4157 18.646 63.2077 18.646C64.3517 18.646 65.1657 18.1547 65.6497 17.172H68.9717C68.6197 18.3453 67.9451 19.3133 66.9477 20.076C65.9504 20.824 64.7257 21.198 63.2737 21.198C62.1004 21.198 61.0444 20.9413 60.1057 20.428C59.1817 19.9 58.4557 19.1593 57.9277 18.206C57.4144 17.2527 57.1577 16.1527 57.1577 14.906C57.1577 13.6447 57.4144 12.5373 57.9277 11.584C58.4411 10.6307 59.1597 9.89733 60.0837 9.384C61.0077 8.87067 62.0711 8.614 63.2737 8.614C64.4324 8.614 65.4664 8.86333 66.3757 9.362C67.2997 9.86067 68.0111 10.572 68.5097 11.496C69.0231 12.4053 69.2797 13.454 69.2797 14.642ZM66.0897 13.762C66.0751 12.97 65.7891 12.3393 65.2317 11.87C64.6744 11.386 63.9924 11.144 63.1857 11.144C62.4231 11.144 61.7777 11.3787 61.2497 11.848C60.7364 12.3027 60.4211 12.9407 60.3037 13.762H66.0897ZM74.9121 10.704C75.3081 10.0587 75.8214 9.55267 76.4521 9.186C77.0974 8.81933 77.8308 8.636 78.6521 8.636V11.87H77.8381C76.8701 11.87 76.1368 12.0973 75.6381 12.552C75.1541 13.0067 74.9121 13.7987 74.9121 14.928V21H71.8321V8.812H74.9121V10.704ZM91.4809 5.644V8.13H87.3889V21H84.3089V8.13H80.2169V5.644H91.4809ZM93.2403 14.862C93.2403 13.63 93.4823 12.5373 93.9663 11.584C94.465 10.6307 95.1323 9.89733 95.9683 9.384C96.819 8.87067 97.765 8.614 98.8063 8.614C99.7157 8.614 100.508 8.79733 101.182 9.164C101.872 9.53067 102.422 9.99267 102.832 10.55V8.812H105.934V21H102.832V19.218C102.436 19.79 101.886 20.2667 101.182 20.648C100.493 21.0147 99.6937 21.198 98.7843 21.198C97.7577 21.198 96.819 20.934 95.9683 20.406C95.1323 19.878 94.465 19.1373 93.9663 18.184C93.4823 17.216 93.2403 16.1087 93.2403 14.862ZM102.832 14.906C102.832 14.158 102.686 13.52 102.392 12.992C102.099 12.4493 101.703 12.0387 101.204 11.76C100.706 11.4667 100.17 11.32 99.5983 11.32C99.0263 11.32 98.4983 11.4593 98.0143 11.738C97.5303 12.0167 97.1343 12.4273 96.8263 12.97C96.533 13.498 96.3863 14.1287 96.3863 14.862C96.3863 15.5953 96.533 16.2407 96.8263 16.798C97.1343 17.3407 97.5303 17.7587 98.0143 18.052C98.513 18.3453 99.041 18.492 99.5983 18.492C100.17 18.492 100.706 18.3527 101.204 18.074C101.703 17.7807 102.099 17.37 102.392 16.842C102.686 16.2993 102.832 15.654 102.832 14.906ZM114.021 8.614C114.93 8.614 115.729 8.79733 116.419 9.164C117.108 9.516 117.651 9.978 118.047 10.55V8.812H121.149V21.088C121.149 22.2173 120.921 23.222 120.467 24.102C120.012 24.9967 119.33 25.7007 118.421 26.214C117.511 26.742 116.411 27.006 115.121 27.006C113.39 27.006 111.967 26.6027 110.853 25.796C109.753 24.9893 109.129 23.8893 108.983 22.496H112.041C112.202 23.0533 112.547 23.4933 113.075 23.816C113.617 24.1533 114.27 24.322 115.033 24.322C115.927 24.322 116.653 24.0507 117.211 23.508C117.768 22.98 118.047 22.1733 118.047 21.088V19.196C117.651 19.768 117.101 20.2447 116.397 20.626C115.707 21.0073 114.915 21.198 114.021 21.198C112.994 21.198 112.055 20.934 111.205 20.406C110.354 19.878 109.679 19.1373 109.181 18.184C108.697 17.216 108.455 16.1087 108.455 14.862C108.455 13.63 108.697 12.5373 109.181 11.584C109.679 10.6307 110.347 9.89733 111.183 9.384C112.033 8.87067 112.979 8.614 114.021 8.614ZM118.047 14.906C118.047 14.158 117.9 13.52 117.607 12.992C117.313 12.4493 116.917 12.0387 116.419 11.76C115.92 11.4667 115.385 11.32 114.813 11.32C114.241 11.32 113.713 11.4593 113.229 11.738C112.745 12.0167 112.349 12.4273 112.041 12.97C111.747 13.498 111.601 14.1287 111.601 14.862C111.601 15.5953 111.747 16.2407 112.041 16.798C112.349 17.3407 112.745 17.7587 113.229 18.052C113.727 18.3453 114.255 18.492 114.813 18.492C115.385 18.492 115.92 18.3527 116.419 18.074C116.917 17.7807 117.313 17.37 117.607 16.842C117.9 16.2993 118.047 15.654 118.047 14.906Z" fill="#212529"/>
<path d="M9.32 65.2V65.54H11.9V66.86H9.22C9.1 67.78 8.83333 68.5 8.42 69.02C8.02 69.54 7.43333 69.9133 6.66 70.14C5.9 70.3667 4.88667 70.48 3.62 70.48V72.06C3.62 73.86 4.40667 74.76 5.98 74.76C7.52667 74.76 8.3 73.8933 8.3 72.16H9.98C9.96667 73.4933 9.61333 74.5 8.92 75.18C8.22667 75.86 7.24 76.2 5.96 76.2C4.64 76.2 3.63333 75.8333 2.94 75.1C2.26 74.3667 1.92 73.34 1.92 72.02V69.2C3.44 69.2 4.56 69.1533 5.28 69.06C6.01333 68.9533 6.54667 68.74 6.88 68.42C7.21333 68.0867 7.42667 67.5667 7.52 66.86H1.02V65.54H7.6V65.18V63.38H1.02V62.04H11.9V63.38H9.32V65.2ZM16.5795 72.12C16.7129 72.88 17.0195 73.4667 17.4995 73.88C17.9929 74.2933 18.6529 74.5 19.4795 74.5C20.5862 74.5 21.3995 74.0667 21.9195 73.2C22.4529 72.3333 22.7062 70.8733 22.6795 68.82C22.3995 69.42 21.9329 69.8933 21.2795 70.24C20.6262 70.5733 19.8995 70.74 19.0995 70.74C18.2062 70.74 17.4062 70.56 16.6995 70.2C16.0062 69.8267 15.4595 69.2867 15.0595 68.58C14.6595 67.8733 14.4595 67.02 14.4595 66.02C14.4595 64.5933 14.8729 63.4467 15.6995 62.58C16.5262 61.7 17.6995 61.26 19.2195 61.26C21.0862 61.26 22.3929 61.8667 23.1395 63.08C23.8995 64.2933 24.2795 66.1 24.2795 68.5C24.2795 70.18 24.1262 71.5667 23.8195 72.66C23.5262 73.7533 23.0195 74.5867 22.2995 75.16C21.5929 75.7333 20.6195 76.02 19.3795 76.02C18.0195 76.02 16.9595 75.6533 16.1995 74.92C15.4395 74.1867 15.0062 73.2533 14.8995 72.12H16.5795ZM19.3995 69.2C20.2929 69.2 21.0262 68.9267 21.5995 68.38C22.1729 67.82 22.4595 67.0667 22.4595 66.12C22.4595 65.12 22.1795 64.3133 21.6195 63.7C21.0595 63.0867 20.2729 62.78 19.2595 62.78C18.3262 62.78 17.5795 63.0733 17.0195 63.66C16.4729 64.2467 16.1995 65.02 16.1995 65.98C16.1995 66.9533 16.4729 67.7333 17.0195 68.32C17.5662 68.9067 18.3595 69.2 19.3995 69.2ZM29.4814 72.12C29.6148 72.88 29.9214 73.4667 30.4014 73.88C30.8948 74.2933 31.5548 74.5 32.3814 74.5C33.4881 74.5 34.3014 74.0667 34.8214 73.2C35.3548 72.3333 35.6081 70.8733 35.5814 68.82C35.3014 69.42 34.8348 69.8933 34.1814 70.24C33.5281 70.5733 32.8014 70.74 32.0014 70.74C31.1081 70.74 30.3081 70.56 29.6014 70.2C28.9081 69.8267 28.3614 69.2867 27.9614 68.58C27.5614 67.8733 27.3614 67.02 27.3614 66.02C27.3614 64.5933 27.7748 63.4467 28.6014 62.58C29.4281 61.7 30.6014 61.26 32.1214 61.26C33.9881 61.26 35.2948 61.8667 36.0414 63.08C36.8014 64.2933 37.1814 66.1 37.1814 68.5C37.1814 70.18 37.0281 71.5667 36.7214 72.66C36.4281 73.7533 35.9214 74.5867 35.2014 75.16C34.4948 75.7333 33.5214 76.02 32.2814 76.02C30.9214 76.02 29.8614 75.6533 29.1014 74.92C28.3414 74.1867 27.9081 73.2533 27.8014 72.12H29.4814ZM32.3014 69.2C33.1948 69.2 33.9281 68.9267 34.5014 68.38C35.0748 67.82 35.3614 67.0667 35.3614 66.12C35.3614 65.12 35.0814 64.3133 34.5214 63.7C33.9614 63.0867 33.1748 62.78 32.1614 62.78C31.2281 62.78 30.4814 63.0733 29.9214 63.66C29.3748 64.2467 29.1014 65.02 29.1014 65.98C29.1014 66.9533 29.3748 67.7333 29.9214 68.32C30.4681 68.9067 31.2614 69.2 32.3014 69.2ZM42.3833 72.12C42.5166 72.88 42.8233 73.4667 43.3033 73.88C43.7966 74.2933 44.4566 74.5 45.2833 74.5C46.39 74.5 47.2033 74.0667 47.7233 73.2C48.2566 72.3333 48.51 70.8733 48.4833 68.82C48.2033 69.42 47.7366 69.8933 47.0833 70.24C46.43 70.5733 45.7033 70.74 44.9033 70.74C44.01 70.74 43.21 70.56 42.5033 70.2C41.81 69.8267 41.2633 69.2867 40.8633 68.58C40.4633 67.8733 40.2633 67.02 40.2633 66.02C40.2633 64.5933 40.6766 63.4467 41.5033 62.58C42.33 61.7 43.5033 61.26 45.0233 61.26C46.89 61.26 48.1966 61.8667 48.9433 63.08C49.7033 64.2933 50.0833 66.1 50.0833 68.5C50.0833 70.18 49.93 71.5667 49.6233 72.66C49.33 73.7533 48.8233 74.5867 48.1033 75.16C47.3966 75.7333 46.4233 76.02 45.1833 76.02C43.8233 76.02 42.7633 75.6533 42.0033 74.92C41.2433 74.1867 40.81 73.2533 40.7033 72.12H42.3833ZM45.2033 69.2C46.0966 69.2 46.83 68.9267 47.4033 68.38C47.9766 67.82 48.2633 67.0667 48.2633 66.12C48.2633 65.12 47.9833 64.3133 47.4233 63.7C46.8633 63.0867 46.0766 62.78 45.0633 62.78C44.13 62.78 43.3833 63.0733 42.8233 63.66C42.2766 64.2467 42.0033 65.02 42.0033 65.98C42.0033 66.9533 42.2766 67.7333 42.8233 68.32C43.37 68.9067 44.1633 69.2 45.2033 69.2ZM53.8252 76.12C53.4785 76.12 53.1852 76 52.9452 75.76C52.7052 75.52 52.5852 75.2267 52.5852 74.88C52.5852 74.5333 52.7052 74.24 52.9452 74C53.1852 73.76 53.4785 73.64 53.8252 73.64C54.1585 73.64 54.4385 73.76 54.6652 74C54.9052 74.24 55.0252 74.5333 55.0252 74.88C55.0252 75.2267 54.9052 75.52 54.6652 75.76C54.4385 76 54.1585 76.12 53.8252 76.12ZM57.4486 68.62C57.4486 66.3267 57.822 64.54 58.5686 63.26C59.3153 61.9667 60.622 61.32 62.4886 61.32C64.342 61.32 65.642 61.9667 66.3886 63.26C67.1353 64.54 67.5086 66.3267 67.5086 68.62C67.5086 70.9533 67.1353 72.7667 66.3886 74.06C65.642 75.3533 64.342 76 62.4886 76C60.622 76 59.3153 75.3533 58.5686 74.06C57.822 72.7667 57.4486 70.9533 57.4486 68.62ZM65.7086 68.62C65.7086 67.46 65.6286 66.48 65.4686 65.68C65.322 64.8667 65.0086 64.2133 64.5286 63.72C64.062 63.2267 63.382 62.98 62.4886 62.98C61.582 62.98 60.8886 63.2267 60.4086 63.72C59.942 64.2133 59.6286 64.8667 59.4686 65.68C59.322 66.48 59.2486 67.46 59.2486 68.62C59.2486 69.82 59.322 70.8267 59.4686 71.64C59.6286 72.4533 59.942 73.1067 60.4086 73.6C60.8886 74.0933 61.582 74.34 62.4886 74.34C63.382 74.34 64.062 74.0933 64.5286 73.6C65.0086 73.1067 65.322 72.4533 65.4686 71.64C65.6286 70.8267 65.7086 69.82 65.7086 68.62ZM70.3114 68.62C70.3114 66.3267 70.6848 64.54 71.4314 63.26C72.1781 61.9667 73.4848 61.32 75.3514 61.32C77.2048 61.32 78.5048 61.9667 79.2514 63.26C79.9981 64.54 80.3714 66.3267 80.3714 68.62C80.3714 70.9533 79.9981 72.7667 79.2514 74.06C78.5048 75.3533 77.2048 76 75.3514 76C73.4848 76 72.1781 75.3533 71.4314 74.06C70.6848 72.7667 70.3114 70.9533 70.3114 68.62ZM78.5714 68.62C78.5714 67.46 78.4914 66.48 78.3314 65.68C78.1848 64.8667 77.8714 64.2133 77.3914 63.72C76.9248 63.2267 76.2448 62.98 75.3514 62.98C74.4448 62.98 73.7514 63.2267 73.2714 63.72C72.8048 64.2133 72.4914 64.8667 72.3314 65.68C72.1848 66.48 72.1114 67.46 72.1114 68.62C72.1114 69.82 72.1848 70.8267 72.3314 71.64C72.4914 72.4533 72.8048 73.1067 73.2714 73.6C73.7514 74.0933 74.4448 74.34 75.3514 74.34C76.2448 74.34 76.9248 74.0933 77.3914 73.6C77.8714 73.1067 78.1848 72.4533 78.3314 71.64C78.4914 70.8267 78.5714 69.82 78.5714 68.62Z" fill="#DB3022"/>
<path d="M93.665 76.79C92.705 75.85 91.955 74.655 91.415 73.205C90.885 71.755 90.62 70.19 90.62 68.51C90.62 66.79 90.9 65.185 91.46 63.695C92.03 62.195 92.84 60.96 93.89 59.99H95.315V60.125C94.195 61.175 93.35 62.44 92.78 63.92C92.22 65.39 91.94 66.92 91.94 68.51C91.94 70.06 92.205 71.54 92.735 72.95C93.275 74.36 94.06 75.595 95.09 76.655V76.79H93.665ZM103.106 65.9V66.155H105.041V67.145H103.031C102.941 67.835 102.741 68.375 102.431 68.765C102.131 69.155 101.691 69.435 101.111 69.605C100.541 69.775 99.7807 69.86 98.8307 69.86V71.045C98.8307 72.395 99.4207 73.07 100.601 73.07C101.761 73.07 102.341 72.42 102.341 71.12H103.601C103.591 72.12 103.326 72.875 102.806 73.385C102.286 73.895 101.546 74.15 100.586 74.15C99.5957 74.15 98.8407 73.875 98.3207 73.325C97.8107 72.775 97.5557 72.005 97.5557 71.015V68.9C98.6957 68.9 99.5357 68.865 100.076 68.795C100.626 68.715 101.026 68.555 101.276 68.315C101.526 68.065 101.686 67.675 101.756 67.145H96.8807V66.155H101.816V65.885V64.535H96.8807V63.53H105.041V64.535H103.106V65.9ZM106.511 64.4V63.155H109.331V74H107.951V64.4H106.511ZM113.615 72.11L111.935 76.145H111.02L112.115 72.11H113.615ZM117.013 71.09C117.113 71.66 117.343 72.1 117.703 72.41C118.073 72.72 118.568 72.875 119.188 72.875C120.018 72.875 120.628 72.55 121.018 71.9C121.418 71.25 121.608 70.155 121.588 68.615C121.378 69.065 121.028 69.42 120.538 69.68C120.048 69.93 119.503 70.055 118.903 70.055C118.233 70.055 117.633 69.92 117.103 69.65C116.583 69.37 116.173 68.965 115.873 68.435C115.573 67.905 115.423 67.265 115.423 66.515C115.423 65.445 115.733 64.585 116.353 63.935C116.973 63.275 117.853 62.945 118.993 62.945C120.393 62.945 121.373 63.4 121.933 64.31C122.503 65.22 122.788 66.575 122.788 68.375C122.788 69.635 122.673 70.675 122.443 71.495C122.223 72.315 121.843 72.94 121.303 73.37C120.773 73.8 120.043 74.015 119.113 74.015C118.093 74.015 117.298 73.74 116.728 73.19C116.158 72.64 115.833 71.94 115.753 71.09H117.013ZM119.128 68.9C119.798 68.9 120.348 68.695 120.778 68.285C121.208 67.865 121.423 67.3 121.423 66.59C121.423 65.84 121.213 65.235 120.793 64.775C120.373 64.315 119.783 64.085 119.023 64.085C118.323 64.085 117.763 64.305 117.343 64.745C116.933 65.185 116.728 65.765 116.728 66.485C116.728 67.215 116.933 67.8 117.343 68.24C117.753 68.68 118.348 68.9 119.128 68.9ZM126.766 71.09C126.866 71.66 127.096 72.1 127.456 72.41C127.826 72.72 128.321 72.875 128.941 72.875C129.771 72.875 130.381 72.55 130.771 71.9C131.171 71.25 131.361 70.155 131.341 68.615C131.131 69.065 130.781 69.42 130.291 69.68C129.801 69.93 129.256 70.055 128.656 70.055C127.986 70.055 127.386 69.92 126.856 69.65C126.336 69.37 125.926 68.965 125.626 68.435C125.326 67.905 125.176 67.265 125.176 66.515C125.176 65.445 125.486 64.585 126.106 63.935C126.726 63.275 127.606 62.945 128.746 62.945C130.146 62.945 131.126 63.4 131.686 64.31C132.256 65.22 132.541 66.575 132.541 68.375C132.541 69.635 132.426 70.675 132.196 71.495C131.976 72.315 131.596 72.94 131.056 73.37C130.526 73.8 129.796 74.015 128.866 74.015C127.846 74.015 127.051 73.74 126.481 73.19C125.911 72.64 125.586 71.94 125.506 71.09H126.766ZM128.881 68.9C129.551 68.9 130.101 68.695 130.531 68.285C130.961 67.865 131.176 67.3 131.176 66.59C131.176 65.84 130.966 65.235 130.546 64.775C130.126 64.315 129.536 64.085 128.776 64.085C128.076 64.085 127.516 64.305 127.096 64.745C126.686 65.185 126.481 65.765 126.481 66.485C126.481 67.215 126.686 67.8 127.096 68.24C127.506 68.68 128.101 68.9 128.881 68.9ZM136.518 71.09C136.618 71.66 136.848 72.1 137.208 72.41C137.578 72.72 138.073 72.875 138.693 72.875C139.523 72.875 140.133 72.55 140.523 71.9C140.923 71.25 141.113 70.155 141.093 68.615C140.883 69.065 140.533 69.42 140.043 69.68C139.553 69.93 139.008 70.055 138.408 70.055C137.738 70.055 137.138 69.92 136.608 69.65C136.088 69.37 135.678 68.965 135.378 68.435C135.078 67.905 134.928 67.265 134.928 66.515C134.928 65.445 135.238 64.585 135.858 63.935C136.478 63.275 137.358 62.945 138.498 62.945C139.898 62.945 140.878 63.4 141.438 64.31C142.008 65.22 142.293 66.575 142.293 68.375C142.293 69.635 142.178 70.675 141.948 71.495C141.728 72.315 141.348 72.94 140.808 73.37C140.278 73.8 139.548 74.015 138.618 74.015C137.598 74.015 136.803 73.74 136.233 73.19C135.663 72.64 135.338 71.94 135.258 71.09H136.518ZM138.633 68.9C139.303 68.9 139.853 68.695 140.283 68.285C140.713 67.865 140.928 67.3 140.928 66.59C140.928 65.84 140.718 65.235 140.298 64.775C139.878 64.315 139.288 64.085 138.528 64.085C137.828 64.085 137.268 64.305 136.848 64.745C136.438 65.185 136.233 65.765 136.233 66.485C136.233 67.215 136.438 67.8 136.848 68.24C137.258 68.68 137.853 68.9 138.633 68.9ZM145.176 74.09C144.916 74.09 144.696 74 144.516 73.82C144.336 73.64 144.246 73.42 144.246 73.16C144.246 72.9 144.336 72.68 144.516 72.5C144.696 72.32 144.916 72.23 145.176 72.23C145.426 72.23 145.636 72.32 145.806 72.5C145.986 72.68 146.076 72.9 146.076 73.16C146.076 73.42 145.986 73.64 145.806 73.82C145.636 74 145.426 74.09 145.176 74.09ZM147.969 68.465C147.969 66.745 148.249 65.405 148.809 64.445C149.369 63.475 150.349 62.99 151.749 62.99C153.139 62.99 154.114 63.475 154.674 64.445C155.234 65.405 155.514 66.745 155.514 68.465C155.514 70.215 155.234 71.575 154.674 72.545C154.114 73.515 153.139 74 151.749 74C150.349 74 149.369 73.515 148.809 72.545C148.249 71.575 147.969 70.215 147.969 68.465ZM154.164 68.465C154.164 67.595 154.104 66.86 153.984 66.26C153.874 65.65 153.639 65.16 153.279 64.79C152.929 64.42 152.419 64.235 151.749 64.235C151.069 64.235 150.549 64.42 150.189 64.79C149.839 65.16 149.604 65.65 149.484 66.26C149.374 66.86 149.319 67.595 149.319 68.465C149.319 69.365 149.374 70.12 149.484 70.73C149.604 71.34 149.839 71.83 150.189 72.2C150.549 72.57 151.069 72.755 151.749 72.755C152.419 72.755 152.929 72.57 153.279 72.2C153.639 71.83 153.874 71.34 153.984 70.73C154.104 70.12 154.164 69.365 154.164 68.465ZM157.692 68.465C157.692 66.745 157.972 65.405 158.532 64.445C159.092 63.475 160.072 62.99 161.472 62.99C162.862 62.99 163.837 63.475 164.397 64.445C164.957 65.405 165.237 66.745 165.237 68.465C165.237 70.215 164.957 71.575 164.397 72.545C163.837 73.515 162.862 74 161.472 74C160.072 74 159.092 73.515 158.532 72.545C157.972 71.575 157.692 70.215 157.692 68.465ZM163.887 68.465C163.887 67.595 163.827 66.86 163.707 66.26C163.597 65.65 163.362 65.16 163.002 64.79C162.652 64.42 162.142 64.235 161.472 64.235C160.792 64.235 160.272 64.42 159.912 64.79C159.562 65.16 159.327 65.65 159.207 66.26C159.097 66.86 159.042 67.595 159.042 68.465C159.042 69.365 159.097 70.12 159.207 70.73C159.327 71.34 159.562 71.83 159.912 72.2C160.272 72.57 160.792 72.755 161.472 72.755C162.142 72.755 162.652 72.57 163.002 72.2C163.362 71.83 163.597 71.34 163.707 70.73C163.827 70.12 163.887 69.365 163.887 68.465ZM167.206 76.79V76.655C168.236 75.595 169.016 74.36 169.546 72.95C170.086 71.54 170.356 70.06 170.356 68.51C170.356 66.92 170.071 65.39 169.501 63.92C168.941 62.44 168.101 61.175 166.981 60.125V59.99H168.406C169.456 60.96 170.261 62.195 170.821 63.695C171.391 65.185 171.676 66.79 171.676 68.51C171.676 70.19 171.406 71.755 170.866 73.205C170.336 74.655 169.591 75.85 168.631 76.79H167.206Z" fill="#5B5B5B"/>
<path d="M96.1157 69.08H166.487V69.83H96.1157V69.08Z" fill="#5B5B5B"/>
<path d="M2.184 85.939V95H1.001V85.939H2.184ZM7.67122 87.746C8.53789 87.746 9.23989 88.0103 9.77722 88.539C10.3146 89.059 10.5832 89.813 10.5832 90.801V95H9.41322V90.97C9.41322 90.2593 9.23555 89.7177 8.88022 89.345C8.52489 88.9637 8.03955 88.773 7.42422 88.773C6.80022 88.773 6.30189 88.968 5.92922 89.358C5.56522 89.748 5.38322 90.3157 5.38322 91.061V95H4.20022V87.876H5.38322V88.89C5.61722 88.526 5.93355 88.2443 6.33222 88.045C6.73955 87.8457 7.18589 87.746 7.67122 87.746ZM12.0736 91.425C12.0736 90.6883 12.221 90.047 12.5156 89.501C12.8103 88.9463 13.2176 88.5173 13.7376 88.214C14.2663 87.9107 14.8686 87.759 15.5446 87.759C16.42 87.759 17.1393 87.9713 17.7026 88.396C18.2746 88.8207 18.6516 89.41 18.8336 90.164H17.5596C17.4383 89.7307 17.2 89.3883 16.8446 89.137C16.498 88.8857 16.0646 88.76 15.5446 88.76C14.8686 88.76 14.3226 88.994 13.9066 89.462C13.4906 89.9213 13.2826 90.5757 13.2826 91.425C13.2826 92.283 13.4906 92.946 13.9066 93.414C14.3226 93.882 14.8686 94.116 15.5446 94.116C16.0646 94.116 16.498 93.9947 16.8446 93.752C17.1913 93.5093 17.4296 93.1627 17.5596 92.712H18.8336C18.643 93.44 18.2616 94.025 17.6896 94.467C17.1176 94.9003 16.4026 95.117 15.5446 95.117C14.8686 95.117 14.2663 94.9653 13.7376 94.662C13.2176 94.3587 12.8103 93.9297 12.5156 93.375C12.221 92.8203 12.0736 92.1703 12.0736 91.425ZM21.5951 85.38V95H20.4121V85.38H21.5951ZM29.9294 87.876V95H28.7464V93.947C28.521 94.311 28.2047 94.597 27.7974 94.805C27.3987 95.0043 26.9567 95.104 26.4714 95.104C25.9167 95.104 25.4184 94.9913 24.9764 94.766C24.5344 94.532 24.1834 94.1853 23.9234 93.726C23.672 93.2667 23.5464 92.7077 23.5464 92.049V87.876H24.7164V91.893C24.7164 92.595 24.894 93.1367 25.2494 93.518C25.6047 93.8907 26.09 94.077 26.7054 94.077C27.338 94.077 27.8364 93.882 28.2004 93.492C28.5644 93.102 28.7464 92.5343 28.7464 91.789V87.876H29.9294ZM31.4848 91.412C31.4848 90.684 31.6321 90.047 31.9268 89.501C32.2214 88.9463 32.6244 88.5173 33.1358 88.214C33.6558 87.9107 34.2364 87.759 34.8778 87.759C35.4324 87.759 35.9481 87.889 36.4248 88.149C36.9014 88.4003 37.2654 88.734 37.5168 89.15V85.38H38.7128V95H37.5168V93.661C37.2828 94.0857 36.9361 94.4367 36.4768 94.714C36.0174 94.9827 35.4801 95.117 34.8648 95.117C34.2321 95.117 33.6558 94.961 33.1358 94.649C32.6244 94.337 32.2214 93.8993 31.9268 93.336C31.6321 92.7727 31.4848 92.1313 31.4848 91.412ZM37.5168 91.425C37.5168 90.8877 37.4084 90.4197 37.1918 90.021C36.9751 89.6223 36.6804 89.319 36.3078 89.111C35.9438 88.8943 35.5408 88.786 35.0988 88.786C34.6568 88.786 34.2538 88.89 33.8898 89.098C33.5258 89.306 33.2354 89.6093 33.0188 90.008C32.8021 90.4067 32.6938 90.8747 32.6938 91.412C32.6938 91.958 32.8021 92.4347 33.0188 92.842C33.2354 93.2407 33.5258 93.5483 33.8898 93.765C34.2538 93.973 34.6568 94.077 35.0988 94.077C35.5408 94.077 35.9438 93.973 36.3078 93.765C36.6804 93.5483 36.9751 93.2407 37.1918 92.842C37.4084 92.4347 37.5168 91.9623 37.5168 91.425ZM47.2119 91.165C47.2119 91.3903 47.1989 91.6287 47.1729 91.88H41.4789C41.5223 92.582 41.7606 93.1323 42.1939 93.531C42.6359 93.921 43.1689 94.116 43.7929 94.116C44.3043 94.116 44.7289 93.999 45.0669 93.765C45.4136 93.5223 45.6563 93.2017 45.7949 92.803H47.0689C46.8783 93.4877 46.4969 94.0467 45.9249 94.48C45.3529 94.9047 44.6423 95.117 43.7929 95.117C43.1169 95.117 42.5103 94.9653 41.9729 94.662C41.4443 94.3587 41.0283 93.9297 40.7249 93.375C40.4216 92.8117 40.2699 92.1617 40.2699 91.425C40.2699 90.6883 40.4173 90.0427 40.7119 89.488C41.0066 88.9333 41.4183 88.5087 41.9469 88.214C42.4843 87.9107 43.0996 87.759 43.7929 87.759C44.4689 87.759 45.0669 87.9063 45.5869 88.201C46.1069 88.4957 46.5056 88.903 46.7829 89.423C47.0689 89.9343 47.2119 90.515 47.2119 91.165ZM45.9899 90.918C45.9899 90.4673 45.8903 90.0817 45.6909 89.761C45.4916 89.4317 45.2186 89.1847 44.8719 89.02C44.5339 88.8467 44.1569 88.76 43.7409 88.76C43.1429 88.76 42.6316 88.9507 42.2069 89.332C41.7909 89.7133 41.5526 90.242 41.4919 90.918H45.9899ZM51.2955 95.117C50.7495 95.117 50.2598 95.026 49.8265 94.844C49.3931 94.6533 49.0508 94.3933 48.7995 94.064C48.5481 93.726 48.4095 93.3403 48.3835 92.907H49.6055C49.6401 93.2623 49.8048 93.5527 50.0995 93.778C50.4028 94.0033 50.7971 94.116 51.2825 94.116C51.7331 94.116 52.0885 94.0163 52.3485 93.817C52.6085 93.6177 52.7385 93.3663 52.7385 93.063C52.7385 92.751 52.5998 92.5213 52.3225 92.374C52.0451 92.218 51.6161 92.0663 51.0355 91.919C50.5068 91.7803 50.0735 91.6417 49.7355 91.503C49.4061 91.3557 49.1201 91.1433 48.8775 90.866C48.6435 90.58 48.5265 90.2073 48.5265 89.748C48.5265 89.384 48.6348 89.0503 48.8515 88.747C49.0681 88.4437 49.3758 88.2053 49.7745 88.032C50.1731 87.85 50.6281 87.759 51.1395 87.759C51.9281 87.759 52.5651 87.9583 53.0505 88.357C53.5358 88.7557 53.7958 89.3017 53.8305 89.995H52.6475C52.6215 89.6223 52.4698 89.3233 52.1925 89.098C51.9238 88.8727 51.5598 88.76 51.1005 88.76C50.6758 88.76 50.3378 88.851 50.0865 89.033C49.8351 89.215 49.7095 89.4533 49.7095 89.748C49.7095 89.982 49.7831 90.177 49.9305 90.333C50.0865 90.4803 50.2771 90.6017 50.5025 90.697C50.7365 90.7837 51.0571 90.8833 51.4645 90.996C51.9758 91.1347 52.3918 91.2733 52.7125 91.412C53.0331 91.542 53.3061 91.7413 53.5315 92.01C53.7655 92.2787 53.8868 92.6297 53.8955 93.063C53.8955 93.453 53.7871 93.804 53.5705 94.116C53.3538 94.428 53.0461 94.675 52.6475 94.857C52.2575 95.0303 51.8068 95.117 51.2955 95.117ZM64.1533 85.939V86.901H60.2143V89.956H63.4123V90.918H60.2143V95H59.0313V85.939H64.1533ZM70.3531 95L68.1951 91.295H66.7651V95H65.5821V85.939H68.5071C69.1917 85.939 69.7681 86.056 70.2361 86.29C70.7127 86.524 71.0681 86.8403 71.3021 87.239C71.5361 87.6377 71.6531 88.0927 71.6531 88.604C71.6531 89.228 71.4711 89.7783 71.1071 90.255C70.7517 90.7317 70.2144 91.048 69.4951 91.204L71.7701 95H70.3531ZM66.7651 90.346H68.5071C69.1484 90.346 69.6294 90.19 69.9501 89.878C70.2707 89.5573 70.4311 89.1327 70.4311 88.604C70.4311 88.0667 70.2707 87.6507 69.9501 87.356C69.6381 87.0613 69.1571 86.914 68.5071 86.914H66.7651V90.346ZM74.6742 86.901V89.93H77.9762V90.905H74.6742V94.025H78.3662V95H73.4912V85.926H78.3662V86.901H74.6742ZM81.3393 86.901V89.93H84.6413V90.905H81.3393V94.025H85.0313V95H80.1563V85.926H85.0313V86.901H81.3393ZM89.8451 90.463C89.8451 89.579 90.0445 88.786 90.4431 88.084C90.8418 87.3733 91.3835 86.8187 92.0681 86.42C92.7615 86.0213 93.5285 85.822 94.3691 85.822C95.3571 85.822 96.2195 86.0603 96.9561 86.537C97.6928 87.0137 98.2301 87.6897 98.5681 88.565H97.1511C96.8998 88.019 96.5358 87.5987 96.0591 87.304C95.5911 87.0093 95.0278 86.862 94.3691 86.862C93.7365 86.862 93.1688 87.0093 92.6661 87.304C92.1635 87.5987 91.7691 88.019 91.4831 88.565C91.1971 89.1023 91.0541 89.735 91.0541 90.463C91.0541 91.1823 91.1971 91.815 91.4831 92.361C91.7691 92.8983 92.1635 93.3143 92.6661 93.609C93.1688 93.9037 93.7365 94.051 94.3691 94.051C95.0278 94.051 95.5911 93.908 96.0591 93.622C96.5358 93.3273 96.8998 92.907 97.1511 92.361H98.5681C98.2301 93.2277 97.6928 93.8993 96.9561 94.376C96.2195 94.844 95.3571 95.078 94.3691 95.078C93.5285 95.078 92.7615 94.883 92.0681 94.493C91.3835 94.0943 90.8418 93.544 90.4431 92.842C90.0445 92.14 89.8451 91.347 89.8451 90.463ZM103.865 87.746C104.402 87.746 104.888 87.863 105.321 88.097C105.754 88.3223 106.092 88.6647 106.335 89.124C106.586 89.5833 106.712 90.1423 106.712 90.801V95H105.542V90.97C105.542 90.2593 105.364 89.7177 105.009 89.345C104.654 88.9637 104.168 88.773 103.553 88.773C102.929 88.773 102.431 88.968 102.058 89.358C101.694 89.748 101.512 90.3157 101.512 91.061V95H100.329V85.38H101.512V88.89C101.746 88.526 102.067 88.2443 102.474 88.045C102.89 87.8457 103.354 87.746 103.865 87.746ZM108.203 91.412C108.203 90.684 108.35 90.047 108.645 89.501C108.939 88.9463 109.342 88.5173 109.854 88.214C110.374 87.9107 110.95 87.759 111.583 87.759C112.207 87.759 112.748 87.8933 113.208 88.162C113.667 88.4307 114.009 88.7687 114.235 89.176V87.876H115.431V95H114.235V93.674C114.001 94.09 113.65 94.4367 113.182 94.714C112.722 94.9827 112.185 95.117 111.57 95.117C110.937 95.117 110.365 94.961 109.854 94.649C109.342 94.337 108.939 93.8993 108.645 93.336C108.35 92.7727 108.203 92.1313 108.203 91.412ZM114.235 91.425C114.235 90.8877 114.126 90.4197 113.91 90.021C113.693 89.6223 113.398 89.319 113.026 89.111C112.662 88.8943 112.259 88.786 111.817 88.786C111.375 88.786 110.972 88.89 110.608 89.098C110.244 89.306 109.953 89.6093 109.737 90.008C109.52 90.4067 109.412 90.8747 109.412 91.412C109.412 91.958 109.52 92.4347 109.737 92.842C109.953 93.2407 110.244 93.5483 110.608 93.765C110.972 93.973 111.375 94.077 111.817 94.077C112.259 94.077 112.662 93.973 113.026 93.765C113.398 93.5483 113.693 93.2407 113.91 92.842C114.126 92.4347 114.235 91.9623 114.235 91.425ZM118.613 89.033C118.821 88.6257 119.115 88.3093 119.497 88.084C119.887 87.8587 120.359 87.746 120.914 87.746V88.968H120.602C119.276 88.968 118.613 89.6873 118.613 91.126V95H117.43V87.876H118.613V89.033ZM125.217 87.759C125.833 87.759 126.37 87.8933 126.829 88.162C127.297 88.4307 127.644 88.7687 127.869 89.176V87.876H129.065V95.156C129.065 95.806 128.927 96.3823 128.649 96.885C128.372 97.3963 127.973 97.795 127.453 98.081C126.942 98.367 126.344 98.51 125.659 98.51C124.723 98.51 123.943 98.289 123.319 97.847C122.695 97.405 122.327 96.8027 122.214 96.04H123.384C123.514 96.4733 123.783 96.82 124.19 97.08C124.598 97.3487 125.087 97.483 125.659 97.483C126.309 97.483 126.838 97.2793 127.245 96.872C127.661 96.4647 127.869 95.8927 127.869 95.156V93.661C127.635 94.077 127.289 94.4237 126.829 94.701C126.37 94.9783 125.833 95.117 125.217 95.117C124.585 95.117 124.008 94.961 123.488 94.649C122.977 94.337 122.574 93.8993 122.279 93.336C121.985 92.7727 121.837 92.1313 121.837 91.412C121.837 90.684 121.985 90.047 122.279 89.501C122.574 88.9463 122.977 88.5173 123.488 88.214C124.008 87.9107 124.585 87.759 125.217 87.759ZM127.869 91.425C127.869 90.8877 127.761 90.4197 127.544 90.021C127.328 89.6223 127.033 89.319 126.66 89.111C126.296 88.8943 125.893 88.786 125.451 88.786C125.009 88.786 124.606 88.89 124.242 89.098C123.878 89.306 123.588 89.6093 123.371 90.008C123.155 90.4067 123.046 90.8747 123.046 91.412C123.046 91.958 123.155 92.4347 123.371 92.842C123.588 93.2407 123.878 93.5483 124.242 93.765C124.606 93.973 125.009 94.077 125.451 94.077C125.893 94.077 126.296 93.973 126.66 93.765C127.033 93.5483 127.328 93.2407 127.544 92.842C127.761 92.4347 127.869 91.9623 127.869 91.425ZM131.675 86.719C131.45 86.719 131.259 86.641 131.103 86.485C130.947 86.329 130.869 86.1383 130.869 85.913C130.869 85.6877 130.947 85.497 131.103 85.341C131.259 85.185 131.45 85.107 131.675 85.107C131.892 85.107 132.074 85.185 132.221 85.341C132.377 85.497 132.455 85.6877 132.455 85.913C132.455 86.1383 132.377 86.329 132.221 86.485C132.074 86.641 131.892 86.719 131.675 86.719ZM132.247 87.876V95H131.064V87.876H132.247ZM137.735 87.746C138.601 87.746 139.303 88.0103 139.841 88.539C140.378 89.059 140.647 89.813 140.647 90.801V95H139.477V90.97C139.477 90.2593 139.299 89.7177 138.944 89.345C138.588 88.9637 138.103 88.773 137.488 88.773C136.864 88.773 136.365 88.968 135.993 89.358C135.629 89.748 135.447 90.3157 135.447 91.061V95H134.264V87.876H135.447V88.89C135.681 88.526 135.997 88.2443 136.396 88.045C136.803 87.8457 137.249 87.746 137.735 87.746ZM145.517 87.759C146.132 87.759 146.67 87.8933 147.129 88.162C147.597 88.4307 147.944 88.7687 148.169 89.176V87.876H149.365V95.156C149.365 95.806 149.226 96.3823 148.949 96.885C148.672 97.3963 148.273 97.795 147.753 98.081C147.242 98.367 146.644 98.51 145.959 98.51C145.023 98.51 144.243 98.289 143.619 97.847C142.995 97.405 142.627 96.8027 142.514 96.04H143.684C143.814 96.4733 144.083 96.82 144.49 97.08C144.897 97.3487 145.387 97.483 145.959 97.483C146.609 97.483 147.138 97.2793 147.545 96.872C147.961 96.4647 148.169 95.8927 148.169 95.156V93.661C147.935 94.077 147.588 94.4237 147.129 94.701C146.67 94.9783 146.132 95.117 145.517 95.117C144.884 95.117 144.308 94.961 143.788 94.649C143.277 94.337 142.874 93.8993 142.579 93.336C142.284 92.7727 142.137 92.1313 142.137 91.412C142.137 90.684 142.284 90.047 142.579 89.501C142.874 88.9463 143.277 88.5173 143.788 88.214C144.308 87.9107 144.884 87.759 145.517 87.759ZM148.169 91.425C148.169 90.8877 148.061 90.4197 147.844 90.021C147.627 89.6223 147.333 89.319 146.96 89.111C146.596 88.8943 146.193 88.786 145.751 88.786C145.309 88.786 144.906 88.89 144.542 89.098C144.178 89.306 143.888 89.6093 143.671 90.008C143.454 90.4067 143.346 90.8747 143.346 91.412C143.346 91.958 143.454 92.4347 143.671 92.842C143.888 93.2407 144.178 93.5483 144.542 93.765C144.906 93.973 145.309 94.077 145.751 94.077C146.193 94.077 146.596 93.973 146.96 93.765C147.333 93.5483 147.627 93.2407 147.844 92.842C148.061 92.4347 148.169 91.9623 148.169 91.425ZM154.388 90.463C154.388 89.579 154.587 88.786 154.986 88.084C155.385 87.3733 155.926 86.8187 156.611 86.42C157.304 86.0213 158.071 85.822 158.912 85.822C159.9 85.822 160.762 86.0603 161.499 86.537C162.236 87.0137 162.773 87.6897 163.111 88.565H161.694C161.443 88.019 161.079 87.5987 160.602 87.304C160.134 87.0093 159.571 86.862 158.912 86.862C158.279 86.862 157.712 87.0093 157.209 87.304C156.706 87.5987 156.312 88.019 156.026 88.565C155.74 89.1023 155.597 89.735 155.597 90.463C155.597 91.1823 155.74 91.815 156.026 92.361C156.312 92.8983 156.706 93.3143 157.209 93.609C157.712 93.9037 158.279 94.051 158.912 94.051C159.571 94.051 160.134 93.908 160.602 93.622C161.079 93.3273 161.443 92.907 161.694 92.361H163.111C162.773 93.2277 162.236 93.8993 161.499 94.376C160.762 94.844 159.9 95.078 158.912 95.078C158.071 95.078 157.304 94.883 156.611 94.493C155.926 94.0943 155.385 93.544 154.986 92.842C154.587 92.14 154.388 91.347 154.388 90.463ZM164.43 91.412C164.43 90.684 164.577 90.047 164.872 89.501C165.167 88.9463 165.57 88.5173 166.081 88.214C166.601 87.9107 167.177 87.759 167.81 87.759C168.434 87.759 168.976 87.8933 169.435 88.162C169.894 88.4307 170.237 88.7687 170.462 89.176V87.876H171.658V95H170.462V93.674C170.228 94.09 169.877 94.4367 169.409 94.714C168.95 94.9827 168.412 95.117 167.797 95.117C167.164 95.117 166.592 94.961 166.081 94.649C165.57 94.337 165.167 93.8993 164.872 93.336C164.577 92.7727 164.43 92.1313 164.43 91.412ZM170.462 91.425C170.462 90.8877 170.354 90.4197 170.137 90.021C169.92 89.6223 169.626 89.319 169.253 89.111C168.889 88.8943 168.486 88.786 168.044 88.786C167.602 88.786 167.199 88.89 166.835 89.098C166.471 89.306 166.181 89.6093 165.964 90.008C165.747 90.4067 165.639 90.8747 165.639 91.412C165.639 91.958 165.747 92.4347 165.964 92.842C166.181 93.2407 166.471 93.5483 166.835 93.765C167.199 93.973 167.602 94.077 168.044 94.077C168.486 94.077 168.889 93.973 169.253 93.765C169.626 93.5483 169.92 93.2407 170.137 92.842C170.354 92.4347 170.462 91.9623 170.462 91.425ZM174.84 89.202C175.083 88.7773 175.438 88.4307 175.906 88.162C176.374 87.8933 176.907 87.759 177.505 87.759C178.147 87.759 178.723 87.9107 179.234 88.214C179.746 88.5173 180.149 88.9463 180.443 89.501C180.738 90.047 180.885 90.684 180.885 91.412C180.885 92.1313 180.738 92.7727 180.443 93.336C180.149 93.8993 179.741 94.337 179.221 94.649C178.71 94.961 178.138 95.117 177.505 95.117C176.89 95.117 176.348 94.9827 175.88 94.714C175.421 94.4453 175.074 94.103 174.84 93.687V95H173.657V85.38H174.84V89.202ZM179.676 91.412C179.676 90.8747 179.568 90.4067 179.351 90.008C179.135 89.6093 178.84 89.306 178.467 89.098C178.103 88.89 177.7 88.786 177.258 88.786C176.825 88.786 176.422 88.8943 176.049 89.111C175.685 89.319 175.391 89.6267 175.165 90.034C174.949 90.4327 174.84 90.8963 174.84 91.425C174.84 91.9623 174.949 92.4347 175.165 92.842C175.391 93.2407 175.685 93.5483 176.049 93.765C176.422 93.973 176.825 94.077 177.258 94.077C177.7 94.077 178.103 93.973 178.467 93.765C178.84 93.5483 179.135 93.2407 179.351 92.842C179.568 92.4347 179.676 91.958 179.676 91.412ZM183.625 85.38V95H182.442V85.38H183.625ZM192.142 91.165C192.142 91.3903 192.129 91.6287 192.103 91.88H186.409C186.452 92.582 186.69 93.1323 187.124 93.531C187.566 93.921 188.099 94.116 188.723 94.116C189.234 94.116 189.659 93.999 189.997 93.765C190.343 93.5223 190.586 93.2017 190.725 92.803H191.999C191.808 93.4877 191.427 94.0467 190.855 94.48C190.283 94.9047 189.572 95.117 188.723 95.117C188.047 95.117 187.44 94.9653 186.903 94.662C186.374 94.3587 185.958 93.9297 185.655 93.375C185.351 92.8117 185.2 92.1617 185.2 91.425C185.2 90.6883 185.347 90.0427 185.642 89.488C185.936 88.9333 186.348 88.5087 186.877 88.214C187.414 87.9107 188.029 87.759 188.723 87.759C189.399 87.759 189.997 87.9063 190.517 88.201C191.037 88.4957 191.435 88.903 191.713 89.423C191.999 89.9343 192.142 90.515 192.142 91.165ZM190.92 90.918C190.92 90.4673 190.82 90.0817 190.621 89.761C190.421 89.4317 190.148 89.1847 189.802 89.02C189.464 88.8467 189.087 88.76 188.671 88.76C188.073 88.76 187.561 88.9507 187.137 89.332C186.721 89.7133 186.482 90.242 186.422 90.918H190.92ZM194.925 93.362L193.469 96.859H192.676L193.625 93.362H194.925ZM205.323 85.939V86.901H202.853V95H201.67V86.901H199.187V85.939H205.323ZM206.337 91.412C206.337 90.684 206.485 90.047 206.779 89.501C207.074 88.9463 207.477 88.5173 207.988 88.214C208.508 87.9107 209.085 87.759 209.717 87.759C210.341 87.759 210.883 87.8933 211.342 88.162C211.802 88.4307 212.144 88.7687 212.369 89.176V87.876H213.565V95H212.369V93.674C212.135 94.09 211.784 94.4367 211.316 94.714C210.857 94.9827 210.32 95.117 209.704 95.117C209.072 95.117 208.5 94.961 207.988 94.649C207.477 94.337 207.074 93.8993 206.779 93.336C206.485 92.7727 206.337 92.1313 206.337 91.412ZM212.369 91.425C212.369 90.8877 212.261 90.4197 212.044 90.021C211.828 89.6223 211.533 89.319 211.16 89.111C210.796 88.8943 210.393 88.786 209.951 88.786C209.509 88.786 209.106 88.89 208.742 89.098C208.378 89.306 208.088 89.6093 207.871 90.008C207.655 90.4067 207.546 90.8747 207.546 91.412C207.546 91.958 207.655 92.4347 207.871 92.842C208.088 93.2407 208.378 93.5483 208.742 93.765C209.106 93.973 209.509 94.077 209.951 94.077C210.393 94.077 210.796 93.973 211.16 93.765C211.533 93.5483 211.828 93.2407 212.044 92.842C212.261 92.4347 212.369 91.9623 212.369 91.425ZM218.502 87.759C219.118 87.759 219.655 87.8933 220.114 88.162C220.582 88.4307 220.929 88.7687 221.154 89.176V87.876H222.35V95.156C222.35 95.806 222.212 96.3823 221.934 96.885C221.657 97.3963 221.258 97.795 220.738 98.081C220.227 98.367 219.629 98.51 218.944 98.51C218.008 98.51 217.228 98.289 216.604 97.847C215.98 97.405 215.612 96.8027 215.499 96.04H216.669C216.799 96.4733 217.068 96.82 217.475 97.08C217.883 97.3487 218.372 97.483 218.944 97.483C219.594 97.483 220.123 97.2793 220.53 96.872C220.946 96.4647 221.154 95.8927 221.154 95.156V93.661C220.92 94.077 220.574 94.4237 220.114 94.701C219.655 94.9783 219.118 95.117 218.502 95.117C217.87 95.117 217.293 94.961 216.773 94.649C216.262 94.337 215.859 93.8993 215.564 93.336C215.27 92.7727 215.122 92.1313 215.122 91.412C215.122 90.684 215.27 90.047 215.564 89.501C215.859 88.9463 216.262 88.5173 216.773 88.214C217.293 87.9107 217.87 87.759 218.502 87.759ZM221.154 91.425C221.154 90.8877 221.046 90.4197 220.829 90.021C220.613 89.6223 220.318 89.319 219.945 89.111C219.581 88.8943 219.178 88.786 218.736 88.786C218.294 88.786 217.891 88.89 217.527 89.098C217.163 89.306 216.873 89.6093 216.656 90.008C216.44 90.4067 216.331 90.8747 216.331 91.412C216.331 91.958 216.44 92.4347 216.656 92.842C216.873 93.2407 217.163 93.5483 217.527 93.765C217.891 93.973 218.294 94.077 218.736 94.077C219.178 94.077 219.581 93.973 219.945 93.765C220.318 93.5483 220.613 93.2407 220.829 92.842C221.046 92.4347 221.154 91.9623 221.154 91.425ZM234.77 95L233.587 93.804C233.145 94.2633 232.673 94.6057 232.17 94.831C231.668 95.0477 231.1 95.156 230.467 95.156C229.843 95.156 229.289 95.0433 228.803 94.818C228.327 94.5927 227.954 94.272 227.685 93.856C227.425 93.44 227.295 92.9547 227.295 92.4C227.295 91.7673 227.473 91.2127 227.828 90.736C228.192 90.2507 228.725 89.8693 229.427 89.592C229.15 89.2627 228.951 88.9593 228.829 88.682C228.708 88.4047 228.647 88.1013 228.647 87.772C228.647 87.3907 228.743 87.0483 228.933 86.745C229.133 86.433 229.414 86.1903 229.778 86.017C230.142 85.8437 230.563 85.757 231.039 85.757C231.507 85.757 231.915 85.848 232.261 86.03C232.608 86.212 232.868 86.4677 233.041 86.797C233.215 87.1177 233.293 87.4773 233.275 87.876H232.092C232.101 87.5207 232.001 87.2433 231.793 87.044C231.585 86.836 231.317 86.732 230.987 86.732C230.641 86.732 230.359 86.8317 230.142 87.031C229.934 87.2217 229.83 87.4687 229.83 87.772C229.83 88.032 229.9 88.2833 230.038 88.526C230.186 88.7687 230.428 89.0677 230.766 89.423L233.47 92.14L233.704 91.776L234.588 90.294H235.862L234.796 92.14C234.649 92.4 234.476 92.673 234.276 92.959L236.317 95H234.77ZM230.467 94.142C230.935 94.142 231.356 94.051 231.728 93.869C232.11 93.687 232.469 93.4053 232.807 93.024L230.142 90.346C229.033 90.7707 228.478 91.4423 228.478 92.361C228.478 92.8723 228.66 93.297 229.024 93.635C229.397 93.973 229.878 94.142 230.467 94.142ZM243.765 95.091C243.167 95.091 242.629 94.987 242.153 94.779C241.685 94.5623 241.316 94.2677 241.048 93.895C240.779 93.5137 240.64 93.076 240.632 92.582H241.893C241.936 93.0067 242.109 93.3663 242.413 93.661C242.725 93.947 243.175 94.09 243.765 94.09C244.328 94.09 244.77 93.9513 245.091 93.674C245.42 93.388 245.585 93.024 245.585 92.582C245.585 92.2353 245.489 91.9537 245.299 91.737C245.108 91.5203 244.87 91.3557 244.584 91.243C244.298 91.1303 243.912 91.009 243.427 90.879C242.829 90.723 242.348 90.567 241.984 90.411C241.628 90.255 241.321 90.0123 241.061 89.683C240.809 89.345 240.684 88.8943 240.684 88.331C240.684 87.837 240.809 87.3993 241.061 87.018C241.312 86.6367 241.663 86.342 242.114 86.134C242.573 85.926 243.097 85.822 243.687 85.822C244.536 85.822 245.229 86.0343 245.767 86.459C246.313 86.8837 246.62 87.447 246.69 88.149H245.39C245.346 87.8023 245.164 87.499 244.844 87.239C244.523 86.9703 244.098 86.836 243.57 86.836C243.076 86.836 242.673 86.966 242.361 87.226C242.049 87.4773 241.893 87.8327 241.893 88.292C241.893 88.6213 241.984 88.89 242.166 89.098C242.356 89.306 242.586 89.4663 242.855 89.579C243.132 89.683 243.518 89.8043 244.012 89.943C244.61 90.1077 245.091 90.2723 245.455 90.437C245.819 90.593 246.131 90.84 246.391 91.178C246.651 91.5073 246.781 91.958 246.781 92.53C246.781 92.972 246.664 93.388 246.43 93.778C246.196 94.168 245.849 94.4843 245.39 94.727C244.93 94.9697 244.389 95.091 243.765 95.091ZM249.965 88.851V93.05C249.965 93.3967 250.038 93.6437 250.186 93.791C250.333 93.9297 250.589 93.999 250.953 93.999H251.824V95H250.758C250.099 95 249.605 94.8483 249.276 94.545C248.946 94.2417 248.782 93.7433 248.782 93.05V88.851H247.859V87.876H248.782V86.082H249.965V87.876H251.824V88.851H249.965ZM253.868 86.719C253.643 86.719 253.452 86.641 253.296 86.485C253.14 86.329 253.062 86.1383 253.062 85.913C253.062 85.6877 253.14 85.497 253.296 85.341C253.452 85.185 253.643 85.107 253.868 85.107C254.085 85.107 254.267 85.185 254.414 85.341C254.57 85.497 254.648 85.6877 254.648 85.913C254.648 86.1383 254.57 86.329 254.414 86.485C254.267 86.641 254.085 86.719 253.868 86.719ZM254.44 87.876V95H253.257V87.876H254.44ZM256.014 91.425C256.014 90.6883 256.161 90.047 256.456 89.501C256.751 88.9463 257.158 88.5173 257.678 88.214C258.207 87.9107 258.809 87.759 259.485 87.759C260.36 87.759 261.08 87.9713 261.643 88.396C262.215 88.8207 262.592 89.41 262.774 90.164H261.5C261.379 89.7307 261.14 89.3883 260.785 89.137C260.438 88.8857 260.005 88.76 259.485 88.76C258.809 88.76 258.263 88.994 257.847 89.462C257.431 89.9213 257.223 90.5757 257.223 91.425C257.223 92.283 257.431 92.946 257.847 93.414C258.263 93.882 258.809 94.116 259.485 94.116C260.005 94.116 260.438 93.9947 260.785 93.752C261.132 93.5093 261.37 93.1627 261.5 92.712H262.774C262.583 93.44 262.202 94.025 261.63 94.467C261.058 94.9003 260.343 95.117 259.485 95.117C258.809 95.117 258.207 94.9653 257.678 94.662C257.158 94.3587 256.751 93.9297 256.456 93.375C256.161 92.8203 256.014 92.1703 256.014 91.425ZM268.331 95L265.536 91.854V95H264.353V85.38H265.536V91.035L268.279 87.876H269.93L266.576 91.425L269.943 95H268.331ZM277.543 91.165C277.543 91.3903 277.53 91.6287 277.504 91.88H271.81C271.853 92.582 272.092 93.1323 272.525 93.531C272.967 93.921 273.5 94.116 274.124 94.116C274.635 94.116 275.06 93.999 275.398 93.765C275.745 93.5223 275.987 93.2017 276.126 92.803H277.4C277.209 93.4877 276.828 94.0467 276.256 94.48C275.684 94.9047 274.973 95.117 274.124 95.117C273.448 95.117 272.841 94.9653 272.304 94.662C271.775 94.3587 271.359 93.9297 271.056 93.375C270.753 92.8117 270.601 92.1617 270.601 91.425C270.601 90.6883 270.748 90.0427 271.043 89.488C271.338 88.9333 271.749 88.5087 272.278 88.214C272.815 87.9107 273.431 87.759 274.124 87.759C274.8 87.759 275.398 87.9063 275.918 88.201C276.438 88.4957 276.837 88.903 277.114 89.423C277.4 89.9343 277.543 90.515 277.543 91.165ZM276.321 90.918C276.321 90.4673 276.221 90.0817 276.022 89.761C275.823 89.4317 275.55 89.1847 275.203 89.02C274.865 88.8467 274.488 88.76 274.072 88.76C273.474 88.76 272.963 88.9507 272.538 89.332C272.122 89.7133 271.884 90.242 271.823 90.918H276.321ZM280.288 89.033C280.496 88.6257 280.79 88.3093 281.172 88.084C281.562 87.8587 282.034 87.746 282.589 87.746V88.968H282.277C280.951 88.968 280.288 89.6873 280.288 91.126V95H279.105V87.876H280.288V89.033Z" fill="#5B5B5B"/>
<path d="M4.354 44.604C3.458 43.7267 2.758 42.6113 2.254 41.258C1.75933 39.9047 1.512 38.444 1.512 36.876C1.512 35.2707 1.77333 33.7727 2.296 32.382C2.828 30.982 3.584 29.8293 4.564 28.924H5.894V29.05C4.84867 30.03 4.06 31.2107 3.528 32.592C3.00533 33.964 2.744 35.392 2.744 36.876C2.744 38.3227 2.99133 39.704 3.486 41.02C3.99 42.336 4.72267 43.4887 5.684 44.478V44.604H4.354ZM13.8587 32.242V33.278H11.1987V42H9.92472V33.278H7.25072V32.242H13.8587ZM15.3682 38.136C15.3682 37.352 15.5269 36.666 15.8442 36.078C16.1616 35.4807 16.5956 35.0187 17.1462 34.692C17.7062 34.3653 18.3269 34.202 19.0082 34.202C19.6802 34.202 20.2636 34.3467 20.7582 34.636C21.2529 34.9253 21.6216 35.2893 21.8642 35.728V34.328H23.1522V42H21.8642V40.572C21.6122 41.02 21.2342 41.3933 20.7302 41.692C20.2356 41.9813 19.6569 42.126 18.9942 42.126C18.3129 42.126 17.6969 41.958 17.1462 41.622C16.5956 41.286 16.1616 40.8147 15.8442 40.208C15.5269 39.6013 15.3682 38.9107 15.3682 38.136ZM21.8642 38.15C21.8642 37.5713 21.7476 37.0673 21.5142 36.638C21.2809 36.2087 20.9636 35.882 20.5622 35.658C20.1702 35.4247 19.7362 35.308 19.2602 35.308C18.7842 35.308 18.3502 35.42 17.9582 35.644C17.5662 35.868 17.2536 36.1947 17.0202 36.624C16.7869 37.0533 16.6702 37.5573 16.6702 38.136C16.6702 38.724 16.7869 39.2373 17.0202 39.676C17.2536 40.1053 17.5662 40.4367 17.9582 40.67C18.3502 40.894 18.7842 41.006 19.2602 41.006C19.7362 41.006 20.1702 40.894 20.5622 40.67C20.9636 40.4367 21.2809 40.1053 21.5142 39.676C21.7476 39.2373 21.8642 38.7287 21.8642 38.15ZM28.8865 34.202C29.5491 34.202 30.1278 34.3467 30.6225 34.636C31.1265 34.9253 31.4998 35.2893 31.7425 35.728V34.328H33.0305V42.168C33.0305 42.868 32.8811 43.4887 32.5825 44.03C32.2838 44.5807 31.8545 45.01 31.2945 45.318C30.7438 45.626 30.0998 45.78 29.3625 45.78C28.3545 45.78 27.5145 45.542 26.8425 45.066C26.1705 44.59 25.7738 43.9413 25.6525 43.12H26.9125C27.0525 43.5867 27.3418 43.96 27.7805 44.24C28.2191 44.5293 28.7465 44.674 29.3625 44.674C30.0625 44.674 30.6318 44.4547 31.0705 44.016C31.5185 43.5773 31.7425 42.9613 31.7425 42.168V40.558C31.4905 41.006 31.1171 41.3793 30.6225 41.678C30.1278 41.9767 29.5491 42.126 28.8865 42.126C28.2051 42.126 27.5845 41.958 27.0245 41.622C26.4738 41.286 26.0398 40.8147 25.7225 40.208C25.4051 39.6013 25.2465 38.9107 25.2465 38.136C25.2465 37.352 25.4051 36.666 25.7225 36.078C26.0398 35.4807 26.4738 35.0187 27.0245 34.692C27.5845 34.3653 28.2051 34.202 28.8865 34.202ZM31.7425 38.15C31.7425 37.5713 31.6258 37.0673 31.3925 36.638C31.1591 36.2087 30.8418 35.882 30.4405 35.658C30.0485 35.4247 29.6145 35.308 29.1385 35.308C28.6625 35.308 28.2285 35.42 27.8365 35.644C27.4445 35.868 27.1318 36.1947 26.8985 36.624C26.6651 37.0533 26.5485 37.5573 26.5485 38.136C26.5485 38.724 26.6651 39.2373 26.8985 39.676C27.1318 40.1053 27.4445 40.4367 27.8365 40.67C28.2285 40.894 28.6625 41.006 29.1385 41.006C29.6145 41.006 30.0485 40.894 30.4405 40.67C30.8418 40.4367 31.1591 40.1053 31.3925 39.676C31.6258 39.2373 31.7425 38.7287 31.7425 38.15ZM42.8807 37.422H39.8987V40.446H38.7087V37.422H35.7407V36.344H38.7087V33.306H39.8987V36.344H42.8807V37.422ZM48.6687 42.098C48.0247 42.098 47.446 41.986 46.9327 41.762C46.4287 41.5287 46.032 41.2113 45.7427 40.81C45.4533 40.3993 45.304 39.928 45.2947 39.396H46.6527C46.6993 39.8533 46.886 40.2407 47.2127 40.558C47.5487 40.866 48.034 41.02 48.6687 41.02C49.2753 41.02 49.7513 40.8707 50.0967 40.572C50.4513 40.264 50.6287 39.872 50.6287 39.396C50.6287 39.0227 50.526 38.7193 50.3207 38.486C50.1153 38.2527 49.8587 38.0753 49.5507 37.954C49.2427 37.8327 48.8273 37.702 48.3047 37.562C47.6607 37.394 47.1427 37.226 46.7507 37.058C46.368 36.89 46.0367 36.6287 45.7567 36.274C45.486 35.91 45.3507 35.4247 45.3507 34.818C45.3507 34.286 45.486 33.8147 45.7567 33.404C46.0273 32.9933 46.4053 32.676 46.8907 32.452C47.3853 32.228 47.95 32.116 48.5847 32.116C49.4993 32.116 50.246 32.3447 50.8247 32.802C51.4127 33.2593 51.744 33.866 51.8187 34.622H50.4187C50.372 34.2487 50.176 33.922 49.8307 33.642C49.4853 33.3527 49.028 33.208 48.4587 33.208C47.9267 33.208 47.4927 33.348 47.1567 33.628C46.8207 33.8987 46.6527 34.2813 46.6527 34.776C46.6527 35.1307 46.7507 35.42 46.9467 35.644C47.152 35.868 47.3993 36.0407 47.6887 36.162C47.9873 36.274 48.4027 36.4047 48.9347 36.554C49.5787 36.7313 50.0967 36.9087 50.4887 37.086C50.8807 37.254 51.2167 37.52 51.4967 37.884C51.7767 38.2387 51.9167 38.724 51.9167 39.34C51.9167 39.816 51.7907 40.264 51.5387 40.684C51.2867 41.104 50.9133 41.4447 50.4187 41.706C49.924 41.9673 49.3407 42.098 48.6687 42.098ZM55.7628 35.378V39.9C55.7628 40.2733 55.8421 40.5393 56.0008 40.698C56.1594 40.8473 56.4348 40.922 56.8268 40.922H57.7648V42H56.6168C55.9074 42 55.3754 41.8367 55.0208 41.51C54.6661 41.1833 54.4888 40.6467 54.4888 39.9V35.378H53.4948V34.328H54.4888V32.396H55.7628V34.328H57.7648V35.378H55.7628ZM60.3837 33.082C60.141 33.082 59.9357 32.998 59.7677 32.83C59.5997 32.662 59.5157 32.4567 59.5157 32.214C59.5157 31.9713 59.5997 31.766 59.7677 31.598C59.9357 31.43 60.141 31.346 60.3837 31.346C60.617 31.346 60.813 31.43 60.9717 31.598C61.1397 31.766 61.2237 31.9713 61.2237 32.214C61.2237 32.4567 61.1397 32.662 60.9717 32.83C60.813 32.998 60.617 33.082 60.3837 33.082ZM60.9997 34.328V42H59.7257V34.328H60.9997ZM63.1123 38.15C63.1123 37.3567 63.2709 36.666 63.5883 36.078C63.9056 35.4807 64.3443 35.0187 64.9043 34.692C65.4736 34.3653 66.1223 34.202 66.8503 34.202C67.7929 34.202 68.5676 34.4307 69.1743 34.888C69.7903 35.3453 70.1963 35.98 70.3923 36.792H69.0203C68.8896 36.3253 68.6329 35.9567 68.2503 35.686C67.8769 35.4153 67.4103 35.28 66.8503 35.28C66.1223 35.28 65.5343 35.532 65.0863 36.036C64.6383 36.5307 64.4143 37.2353 64.4143 38.15C64.4143 39.074 64.6383 39.788 65.0863 40.292C65.5343 40.796 66.1223 41.048 66.8503 41.048C67.4103 41.048 67.8769 40.9173 68.2503 40.656C68.6236 40.3947 68.8803 40.0213 69.0203 39.536H70.3923C70.1869 40.32 69.7763 40.95 69.1603 41.426C68.5443 41.8927 67.7743 42.126 66.8503 42.126C66.1223 42.126 65.4736 41.9627 64.9043 41.636C64.3443 41.3093 63.9056 40.8473 63.5883 40.25C63.2709 39.6527 63.1123 38.9527 63.1123 38.15ZM76.7935 42L73.7835 38.612V42H72.5095V31.64H73.7835V37.73L76.7375 34.328H78.5155L74.9035 38.15L78.5295 42H76.7935ZM87.4119 37.422H84.4299V40.446H83.2399V37.422H80.2719V36.344H83.2399V33.306H84.4299V36.344H87.4119V37.422ZM96.6298 35.098C96.6298 35.91 96.3498 36.5867 95.7898 37.128C95.2391 37.66 94.3945 37.926 93.2558 37.926H91.3798V42H90.1058V32.242H93.2558C94.3571 32.242 95.1925 32.508 95.7618 33.04C96.3405 33.572 96.6298 34.258 96.6298 35.098ZM93.2558 36.876C93.9651 36.876 94.4878 36.722 94.8238 36.414C95.1598 36.106 95.3278 35.6673 95.3278 35.098C95.3278 33.894 94.6371 33.292 93.2558 33.292H91.3798V36.876H93.2558ZM99.9045 31.64V42H98.6305V31.64H99.9045ZM102.017 38.136C102.017 37.352 102.176 36.666 102.493 36.078C102.81 35.4807 103.244 35.0187 103.795 34.692C104.355 34.3653 104.976 34.202 105.657 34.202C106.329 34.202 106.912 34.3467 107.407 34.636C107.902 34.9253 108.27 35.2893 108.513 35.728V34.328H109.801V42H108.513V40.572C108.261 41.02 107.883 41.3933 107.379 41.692C106.884 41.9813 106.306 42.126 105.643 42.126C104.962 42.126 104.346 41.958 103.795 41.622C103.244 41.286 102.81 40.8147 102.493 40.208C102.176 39.6013 102.017 38.9107 102.017 38.136ZM108.513 38.15C108.513 37.5713 108.396 37.0673 108.163 36.638C107.93 36.2087 107.612 35.882 107.211 35.658C106.819 35.4247 106.385 35.308 105.909 35.308C105.433 35.308 104.999 35.42 104.607 35.644C104.215 35.868 103.902 36.1947 103.669 36.624C103.436 37.0533 103.319 37.5573 103.319 38.136C103.319 38.724 103.436 39.2373 103.669 39.676C103.902 40.1053 104.215 40.4367 104.607 40.67C104.999 40.894 105.433 41.006 105.909 41.006C106.385 41.006 106.819 40.894 107.211 40.67C107.612 40.4367 107.93 40.1053 108.163 39.676C108.396 39.2373 108.513 38.7287 108.513 38.15ZM111.895 38.15C111.895 37.3567 112.054 36.666 112.371 36.078C112.689 35.4807 113.127 35.0187 113.687 34.692C114.257 34.3653 114.905 34.202 115.633 34.202C116.576 34.202 117.351 34.4307 117.957 34.888C118.573 35.3453 118.979 35.98 119.175 36.792H117.803C117.673 36.3253 117.416 35.9567 117.033 35.686C116.66 35.4153 116.193 35.28 115.633 35.28C114.905 35.28 114.317 35.532 113.869 36.036C113.421 36.5307 113.197 37.2353 113.197 38.15C113.197 39.074 113.421 39.788 113.869 40.292C114.317 40.796 114.905 41.048 115.633 41.048C116.193 41.048 116.66 40.9173 117.033 40.656C117.407 40.3947 117.663 40.0213 117.803 39.536H119.175C118.97 40.32 118.559 40.95 117.943 41.426C117.327 41.8927 116.557 42.126 115.633 42.126C114.905 42.126 114.257 41.9627 113.687 41.636C113.127 41.3093 112.689 40.8473 112.371 40.25C112.054 39.6527 111.895 38.9527 111.895 38.15ZM128.293 37.87C128.293 38.1127 128.279 38.3693 128.251 38.64H122.119C122.165 39.396 122.422 39.9887 122.889 40.418C123.365 40.838 123.939 41.048 124.611 41.048C125.161 41.048 125.619 40.922 125.983 40.67C126.356 40.4087 126.617 40.0633 126.767 39.634H128.139C127.933 40.3713 127.523 40.9733 126.907 41.44C126.291 41.8973 125.525 42.126 124.611 42.126C123.883 42.126 123.229 41.9627 122.651 41.636C122.081 41.3093 121.633 40.8473 121.307 40.25C120.98 39.6433 120.817 38.9433 120.817 38.15C120.817 37.3567 120.975 36.6613 121.293 36.064C121.61 35.4667 122.053 35.0093 122.623 34.692C123.201 34.3653 123.864 34.202 124.611 34.202C125.339 34.202 125.983 34.3607 126.543 34.678C127.103 34.9953 127.532 35.434 127.831 35.994C128.139 36.5447 128.293 37.17 128.293 37.87ZM126.977 37.604C126.977 37.1187 126.869 36.7033 126.655 36.358C126.44 36.0033 126.146 35.7373 125.773 35.56C125.409 35.3733 125.003 35.28 124.555 35.28C123.911 35.28 123.36 35.4853 122.903 35.896C122.455 36.3067 122.198 36.876 122.133 37.604H126.977ZM129.986 44.604V44.478C130.947 43.4887 131.675 42.336 132.17 41.02C132.674 39.704 132.926 38.3227 132.926 36.876C132.926 35.392 132.66 33.964 132.128 32.592C131.605 31.2107 130.821 30.03 129.776 29.05V28.924H131.106C132.086 29.8293 132.837 30.982 133.36 32.382C133.892 33.7727 134.158 35.2707 134.158 36.876C134.158 38.444 133.906 39.9047 133.402 41.258C132.907 42.6113 132.212 43.7267 131.316 44.604H129.986Z" fill="black"/>
</svg>
