<svg width="439" height="148" viewBox="0 0 439 148" fill="none" xmlns="http://www.w3.org/2000/svg">
<path d="M29.05 8.57V33H24.15V17.11L17.605 33H13.895L7.315 17.11V33H2.415V8.57H7.98L15.75 26.735L23.52 8.57H29.05ZM33.112 23.235C33.112 21.275 33.497 19.5367 34.267 18.02C35.0603 16.5033 36.122 15.3367 37.452 14.52C38.8053 13.7033 40.3103 13.295 41.967 13.295C43.4136 13.295 44.6736 13.5867 45.747 14.17C46.8436 14.7533 47.7186 15.4883 48.372 16.375V13.61H53.307V33H48.372V30.165C47.742 31.075 46.867 31.8333 45.747 32.44C44.6503 33.0233 43.3786 33.315 41.932 33.315C40.2986 33.315 38.8053 32.895 37.452 32.055C36.122 31.215 35.0603 30.0367 34.267 28.52C33.497 26.98 33.112 25.2183 33.112 23.235ZM48.372 23.305C48.372 22.115 48.1386 21.1 47.672 20.26C47.2053 19.3967 46.5753 18.7433 45.782 18.3C44.9886 17.8333 44.137 17.6 43.227 17.6C42.317 17.6 41.477 17.8217 40.707 18.265C39.937 18.7083 39.307 19.3617 38.817 20.225C38.3503 21.065 38.117 22.0683 38.117 23.235C38.117 24.4017 38.3503 25.4283 38.817 26.315C39.307 27.1783 39.937 27.8433 40.707 28.31C41.5003 28.7767 42.3403 29.01 43.227 29.01C44.137 29.01 44.9886 28.7883 45.782 28.345C46.5753 27.8783 47.2053 27.225 47.672 26.385C48.1386 25.5217 48.372 24.495 48.372 23.305ZM65.9901 33.315C64.4035 33.315 62.9801 33.035 61.7201 32.475C60.4601 31.8917 59.4568 31.11 58.7101 30.13C57.9868 29.15 57.5901 28.065 57.5201 26.875H62.4551C62.5485 27.6217 62.9101 28.24 63.5401 28.73C64.1935 29.22 64.9985 29.465 65.9551 29.465C66.8885 29.465 67.6118 29.2783 68.1251 28.905C68.6618 28.5317 68.9301 28.0533 68.9301 27.47C68.9301 26.84 68.6035 26.3733 67.9501 26.07C67.3201 25.7433 66.3051 25.3933 64.9051 25.02C63.4585 24.67 62.2685 24.3083 61.3351 23.935C60.4251 23.5617 59.6318 22.99 58.9551 22.22C58.3018 21.45 57.9751 20.4117 57.9751 19.105C57.9751 18.0317 58.2785 17.0517 58.8851 16.165C59.5151 15.2783 60.4018 14.5783 61.5451 14.065C62.7118 13.5517 64.0768 13.295 65.6401 13.295C67.9501 13.295 69.7935 13.8783 71.1701 15.045C72.5468 16.1883 73.3051 17.74 73.4451 19.7H68.7551C68.6851 18.93 68.3585 18.3233 67.7751 17.88C67.2151 17.4133 66.4568 17.18 65.5001 17.18C64.6135 17.18 63.9251 17.3433 63.4351 17.67C62.9685 17.9967 62.7351 18.4517 62.7351 19.035C62.7351 19.6883 63.0618 20.19 63.7151 20.54C64.3685 20.8667 65.3835 21.205 66.7601 21.555C68.1601 21.905 69.3151 22.2667 70.2251 22.64C71.1351 23.0133 71.9168 23.5967 72.5701 24.39C73.2468 25.16 73.5968 26.1867 73.6201 27.47C73.6201 28.59 73.3051 29.5933 72.6751 30.48C72.0685 31.3667 71.1818 32.0667 70.0151 32.58C68.8718 33.07 67.5301 33.315 65.9901 33.315ZM83.8249 17.635V27.015C83.8249 27.6683 83.9765 28.1467 84.2799 28.45C84.6065 28.73 85.1432 28.87 85.8899 28.87H88.1649V33H85.0849C80.9549 33 78.8899 30.9933 78.8899 26.98V17.635H76.5799V13.61H78.8899V8.815H83.8249V13.61H88.1649V17.635H83.8249ZM110.192 22.885C110.192 23.585 110.145 24.215 110.052 24.775H95.8767C95.9933 26.175 96.4833 27.2717 97.3467 28.065C98.21 28.8583 99.2717 29.255 100.532 29.255C102.352 29.255 103.647 28.4733 104.417 26.91H109.702C109.142 28.7767 108.068 30.3167 106.482 31.53C104.895 32.72 102.947 33.315 100.637 33.315C98.77 33.315 97.09 32.9067 95.5967 32.09C94.1267 31.25 92.9717 30.0717 92.1317 28.555C91.315 27.0383 90.9067 25.2883 90.9067 23.305C90.9067 21.2983 91.315 19.5367 92.1317 18.02C92.9483 16.5033 94.0917 15.3367 95.5617 14.52C97.0317 13.7033 98.7233 13.295 100.637 13.295C102.48 13.295 104.125 13.6917 105.572 14.485C107.042 15.2783 108.173 16.41 108.967 17.88C109.783 19.3267 110.192 20.995 110.192 22.885ZM105.117 21.485C105.093 20.225 104.638 19.2217 103.752 18.475C102.865 17.705 101.78 17.32 100.497 17.32C99.2833 17.32 98.2567 17.6933 97.4167 18.44C96.6 19.1633 96.0983 20.1783 95.9117 21.485H105.117ZM119.146 16.62C119.776 15.5933 120.592 14.7883 121.596 14.205C122.622 13.6217 123.789 13.33 125.096 13.33V18.475H123.801C122.261 18.475 121.094 18.8367 120.301 19.56C119.531 20.2833 119.146 21.5433 119.146 23.34V33H114.246V13.61H119.146V16.62ZM145.499 8.57V12.525H138.989V33H134.089V12.525H127.579V8.57H145.499ZM148.291 23.235C148.291 21.275 148.676 19.5367 149.446 18.02C150.24 16.5033 151.301 15.3367 152.631 14.52C153.985 13.7033 155.49 13.295 157.146 13.295C158.593 13.295 159.853 13.5867 160.926 14.17C162.023 14.7533 162.898 15.4883 163.551 16.375V13.61H168.486V33H163.551V30.165C162.921 31.075 162.046 31.8333 160.926 32.44C159.83 33.0233 158.558 33.315 157.111 33.315C155.478 33.315 153.985 32.895 152.631 32.055C151.301 31.215 150.24 30.0367 149.446 28.52C148.676 26.98 148.291 25.2183 148.291 23.235ZM163.551 23.305C163.551 22.115 163.318 21.1 162.851 20.26C162.385 19.3967 161.755 18.7433 160.961 18.3C160.168 17.8333 159.316 17.6 158.406 17.6C157.496 17.6 156.656 17.8217 155.886 18.265C155.116 18.7083 154.486 19.3617 153.996 20.225C153.53 21.065 153.296 22.0683 153.296 23.235C153.296 24.4017 153.53 25.4283 153.996 26.315C154.486 27.1783 155.116 27.8433 155.886 28.31C156.68 28.7767 157.52 29.01 158.406 29.01C159.316 29.01 160.168 28.7883 160.961 28.345C161.755 27.8783 162.385 27.225 162.851 26.385C163.318 25.5217 163.551 24.495 163.551 23.305ZM181.344 13.295C182.791 13.295 184.063 13.5867 185.159 14.17C186.256 14.73 187.119 15.465 187.749 16.375V13.61H192.684V33.14C192.684 34.9367 192.323 36.535 191.599 37.935C190.876 39.3583 189.791 40.4783 188.344 41.295C186.898 42.135 185.148 42.555 183.094 42.555C180.341 42.555 178.078 41.9133 176.304 40.63C174.554 39.3467 173.563 37.5967 173.329 35.38H178.194C178.451 36.2667 178.999 36.9667 179.839 37.48C180.703 38.0167 181.741 38.285 182.954 38.285C184.378 38.285 185.533 37.8533 186.419 36.99C187.306 36.15 187.749 34.8667 187.749 33.14V30.13C187.119 31.04 186.244 31.7983 185.124 32.405C184.028 33.0117 182.768 33.315 181.344 33.315C179.711 33.315 178.218 32.895 176.864 32.055C175.511 31.215 174.438 30.0367 173.644 28.52C172.874 26.98 172.489 25.2183 172.489 23.235C172.489 21.275 172.874 19.5367 173.644 18.02C174.438 16.5033 175.499 15.3367 176.829 14.52C178.183 13.7033 179.688 13.295 181.344 13.295ZM187.749 23.305C187.749 22.115 187.516 21.1 187.049 20.26C186.583 19.3967 185.953 18.7433 185.159 18.3C184.366 17.8333 183.514 17.6 182.604 17.6C181.694 17.6 180.854 17.8217 180.084 18.265C179.314 18.7083 178.684 19.3617 178.194 20.225C177.728 21.065 177.494 22.0683 177.494 23.235C177.494 24.4017 177.728 25.4283 178.194 26.315C178.684 27.1783 179.314 27.8433 180.084 28.31C180.878 28.7767 181.718 29.01 182.604 29.01C183.514 29.01 184.366 28.7883 185.159 28.345C185.953 27.8783 186.583 27.225 187.049 26.385C187.516 25.5217 187.749 24.495 187.749 23.305Z" fill="black"/>
<path d="M12.116 101.96V102.402H15.47V104.118H11.986C11.83 105.314 11.4833 106.25 10.946 106.926C10.426 107.602 9.66333 108.087 8.658 108.382C7.67 108.677 6.35267 108.824 4.706 108.824V110.878C4.706 113.218 5.72867 114.388 7.774 114.388C9.78467 114.388 10.79 113.261 10.79 111.008H12.974C12.9567 112.741 12.4973 114.05 11.596 114.934C10.6947 115.818 9.412 116.26 7.748 116.26C6.032 116.26 4.72333 115.783 3.822 114.83C2.938 113.877 2.496 112.542 2.496 110.826V107.16C4.472 107.16 5.928 107.099 6.864 106.978C7.81733 106.839 8.51067 106.562 8.944 106.146C9.37733 105.713 9.65467 105.037 9.776 104.118H1.326V102.402H9.88V101.934V99.594H1.326V97.852H15.47V99.594H12.116V101.96ZM17.9694 99.36V97.202H22.8574V116H20.4654V99.36H17.9694ZM26.775 99.36V97.202H31.663V116H29.271V99.36H26.775ZM39.2466 110.956C39.4199 111.944 39.8186 112.707 40.4426 113.244C41.0839 113.781 41.9419 114.05 43.0166 114.05C44.4552 114.05 45.5126 113.487 46.1886 112.36C46.8819 111.233 47.2112 109.335 47.1766 106.666C46.8126 107.446 46.2059 108.061 45.3566 108.512C44.5072 108.945 43.5626 109.162 42.5226 109.162C41.3612 109.162 40.3212 108.928 39.4026 108.46C38.5012 107.975 37.7906 107.273 37.2706 106.354C36.7506 105.435 36.4906 104.326 36.4906 103.026C36.4906 101.171 37.0279 99.6807 38.1026 98.554C39.1772 97.41 40.7026 96.838 42.6786 96.838C45.1052 96.838 46.8039 97.6267 47.7746 99.204C48.7626 100.781 49.2566 103.13 49.2566 106.25C49.2566 108.434 49.0572 110.237 48.6586 111.658C48.2772 113.079 47.6186 114.163 46.6826 114.908C45.7639 115.653 44.4986 116.026 42.8866 116.026C41.1186 116.026 39.7406 115.549 38.7526 114.596C37.7646 113.643 37.2012 112.429 37.0626 110.956H39.2466ZM42.9126 107.16C44.0739 107.16 45.0272 106.805 45.7726 106.094C46.5179 105.366 46.8906 104.387 46.8906 103.156C46.8906 101.856 46.5266 100.807 45.7986 100.01C45.0706 99.2127 44.0479 98.814 42.7306 98.814C41.5172 98.814 40.5466 99.1953 39.8186 99.958C39.1079 100.721 38.7526 101.726 38.7526 102.974C38.7526 104.239 39.1079 105.253 39.8186 106.016C40.5292 106.779 41.5606 107.16 42.9126 107.16ZM56.101 110.956C56.2743 111.944 56.673 112.707 57.297 113.244C57.9383 113.781 58.7963 114.05 59.871 114.05C61.3096 114.05 62.367 113.487 63.043 112.36C63.7363 111.233 64.0656 109.335 64.031 106.666C63.667 107.446 63.0603 108.061 62.211 108.512C61.3616 108.945 60.417 109.162 59.377 109.162C58.2156 109.162 57.1756 108.928 56.257 108.46C55.3556 107.975 54.645 107.273 54.125 106.354C53.605 105.435 53.345 104.326 53.345 103.026C53.345 101.171 53.8823 99.6807 54.957 98.554C56.0316 97.41 57.557 96.838 59.533 96.838C61.9596 96.838 63.6583 97.6267 64.629 99.204C65.617 100.781 66.111 103.13 66.111 106.25C66.111 108.434 65.9116 110.237 65.513 111.658C65.1316 113.079 64.473 114.163 63.537 114.908C62.6183 115.653 61.353 116.026 59.741 116.026C57.973 116.026 56.595 115.549 55.607 114.596C54.619 113.643 54.0556 112.429 53.917 110.956H56.101ZM59.767 107.16C60.9283 107.16 61.8816 106.805 62.627 106.094C63.3723 105.366 63.745 104.387 63.745 103.156C63.745 101.856 63.381 100.807 62.653 100.01C61.925 99.2127 60.9023 98.814 59.585 98.814C58.3716 98.814 57.401 99.1953 56.673 99.958C55.9623 100.721 55.607 101.726 55.607 102.974C55.607 104.239 55.9623 105.253 56.673 106.016C57.3836 106.779 58.415 107.16 59.767 107.16ZM71.0574 116.156C70.6067 116.156 70.2254 116 69.9134 115.688C69.6014 115.376 69.4454 114.995 69.4454 114.544C69.4454 114.093 69.6014 113.712 69.9134 113.4C70.2254 113.088 70.6067 112.932 71.0574 112.932C71.4907 112.932 71.8547 113.088 72.1494 113.4C72.4614 113.712 72.6174 114.093 72.6174 114.544C72.6174 114.995 72.4614 115.376 72.1494 115.688C71.8547 116 71.4907 116.156 71.0574 116.156ZM75.8498 106.406C75.8498 103.425 76.3352 101.102 77.3058 99.438C78.2765 97.7567 79.9752 96.916 82.4018 96.916C84.8112 96.916 86.5012 97.7567 87.4718 99.438C88.4425 101.102 88.9278 103.425 88.9278 106.406C88.9278 109.439 88.4425 111.797 87.4718 113.478C86.5012 115.159 84.8112 116 82.4018 116C79.9752 116 78.2765 115.159 77.3058 113.478C76.3352 111.797 75.8498 109.439 75.8498 106.406ZM86.5878 106.406C86.5878 104.898 86.4838 103.624 86.2758 102.584C86.0852 101.527 85.6778 100.677 85.0538 100.036C84.4472 99.3947 83.5632 99.074 82.4018 99.074C81.2232 99.074 80.3218 99.3947 79.6978 100.036C79.0912 100.677 78.6838 101.527 78.4758 102.584C78.2852 103.624 78.1898 104.898 78.1898 106.406C78.1898 107.966 78.2852 109.275 78.4758 110.332C78.6838 111.389 79.0912 112.239 79.6978 112.88C80.3218 113.521 81.2232 113.842 82.4018 113.842C83.5632 113.842 84.4472 113.521 85.0538 112.88C85.6778 112.239 86.0852 111.389 86.2758 110.332C86.4838 109.275 86.5878 107.966 86.5878 106.406ZM92.6535 106.406C92.6535 103.425 93.1388 101.102 94.1095 99.438C95.0801 97.7567 96.7788 96.916 99.2055 96.916C101.615 96.916 103.305 97.7567 104.275 99.438C105.246 101.102 105.731 103.425 105.731 106.406C105.731 109.439 105.246 111.797 104.275 113.478C103.305 115.159 101.615 116 99.2055 116C96.7788 116 95.0801 115.159 94.1095 113.478C93.1388 111.797 92.6535 109.439 92.6535 106.406ZM103.391 106.406C103.391 104.898 103.287 103.624 103.079 102.584C102.889 101.527 102.481 100.677 101.857 100.036C101.251 99.3947 100.367 99.074 99.2055 99.074C98.0268 99.074 97.1255 99.3947 96.5015 100.036C95.8948 100.677 95.4875 101.527 95.2795 102.584C95.0888 103.624 94.9935 104.898 94.9935 106.406C94.9935 107.966 95.0888 109.275 95.2795 110.332C95.4875 111.389 95.8948 112.239 96.5015 112.88C97.1255 113.521 98.0268 113.842 99.2055 113.842C100.367 113.842 101.251 113.521 101.857 112.88C102.481 112.239 102.889 111.389 103.079 110.332C103.287 109.275 103.391 107.966 103.391 106.406Z" fill="#DB3022"/>
<path d="M119.976 115.976C118.952 114.973 118.152 113.699 117.576 112.152C117.011 110.605 116.728 108.936 116.728 107.144C116.728 105.309 117.027 103.597 117.624 102.008C118.232 100.408 119.096 99.0907 120.216 98.056H121.736V98.2C120.541 99.32 119.64 100.669 119.032 102.248C118.435 103.816 118.136 105.448 118.136 107.144C118.136 108.797 118.419 110.376 118.984 111.88C119.56 113.384 120.397 114.701 121.496 115.832V115.976H119.976ZM130.199 104.36V104.632H132.263V105.688H130.119C130.023 106.424 129.81 107 129.479 107.416C129.159 107.832 128.69 108.131 128.071 108.312C127.463 108.493 126.652 108.584 125.639 108.584V109.848C125.639 111.288 126.268 112.008 127.527 112.008C128.764 112.008 129.383 111.315 129.383 109.928H130.727C130.716 110.995 130.434 111.8 129.879 112.344C129.324 112.888 128.535 113.16 127.511 113.16C126.455 113.16 125.65 112.867 125.095 112.28C124.551 111.693 124.279 110.872 124.279 109.816V107.56C125.495 107.56 126.391 107.523 126.967 107.448C127.554 107.363 127.98 107.192 128.247 106.936C128.514 106.669 128.684 106.253 128.759 105.688H123.559V104.632H128.823V104.344V102.904H123.559V101.832H132.263V102.904H130.199V104.36ZM133.985 102.76V101.432H136.993V113H135.521V102.76H133.985ZM141.843 109.896C141.95 110.504 142.195 110.973 142.579 111.304C142.974 111.635 143.502 111.8 144.163 111.8C145.049 111.8 145.699 111.453 146.115 110.76C146.542 110.067 146.745 108.899 146.723 107.256C146.499 107.736 146.126 108.115 145.603 108.392C145.081 108.659 144.499 108.792 143.859 108.792C143.145 108.792 142.505 108.648 141.939 108.36C141.385 108.061 140.947 107.629 140.627 107.064C140.307 106.499 140.147 105.816 140.147 105.016C140.147 103.875 140.478 102.957 141.139 102.264C141.801 101.56 142.739 101.208 143.955 101.208C145.449 101.208 146.494 101.693 147.091 102.664C147.699 103.635 148.003 105.08 148.003 107C148.003 108.344 147.881 109.453 147.635 110.328C147.401 111.203 146.995 111.869 146.419 112.328C145.854 112.787 145.075 113.016 144.083 113.016C142.995 113.016 142.147 112.723 141.539 112.136C140.931 111.549 140.585 110.803 140.499 109.896H141.843ZM144.099 107.56C144.814 107.56 145.401 107.341 145.859 106.904C146.318 106.456 146.547 105.853 146.547 105.096C146.547 104.296 146.323 103.651 145.875 103.16C145.427 102.669 144.798 102.424 143.987 102.424C143.241 102.424 142.643 102.659 142.195 103.128C141.758 103.597 141.539 104.216 141.539 104.984C141.539 105.763 141.758 106.387 142.195 106.856C142.633 107.325 143.267 107.56 144.099 107.56ZM152.399 109.896C152.506 110.504 152.751 110.973 153.135 111.304C153.53 111.635 154.058 111.8 154.719 111.8C155.604 111.8 156.255 111.453 156.671 110.76C157.098 110.067 157.3 108.899 157.279 107.256C157.055 107.736 156.682 108.115 156.159 108.392C155.636 108.659 155.055 108.792 154.415 108.792C153.7 108.792 153.06 108.648 152.495 108.36C151.94 108.061 151.503 107.629 151.183 107.064C150.863 106.499 150.703 105.816 150.703 105.016C150.703 103.875 151.034 102.957 151.695 102.264C152.356 101.56 153.295 101.208 154.511 101.208C156.004 101.208 157.05 101.693 157.647 102.664C158.255 103.635 158.559 105.08 158.559 107C158.559 108.344 158.436 109.453 158.191 110.328C157.956 111.203 157.551 111.869 156.975 112.328C156.41 112.787 155.631 113.016 154.639 113.016C153.551 113.016 152.703 112.723 152.095 112.136C151.487 111.549 151.14 110.803 151.055 109.896H152.399ZM154.655 107.56C155.37 107.56 155.956 107.341 156.415 106.904C156.874 106.456 157.103 105.853 157.103 105.096C157.103 104.296 156.879 103.651 156.431 103.16C155.983 102.669 155.354 102.424 154.543 102.424C153.796 102.424 153.199 102.659 152.751 103.128C152.314 103.597 152.095 104.216 152.095 104.984C152.095 105.763 152.314 106.387 152.751 106.856C153.188 107.325 153.823 107.56 154.655 107.56ZM162.954 109.896C163.061 110.504 163.306 110.973 163.69 111.304C164.085 111.635 164.613 111.8 165.274 111.8C166.16 111.8 166.81 111.453 167.226 110.76C167.653 110.067 167.856 108.899 167.834 107.256C167.61 107.736 167.237 108.115 166.714 108.392C166.192 108.659 165.61 108.792 164.97 108.792C164.256 108.792 163.616 108.648 163.05 108.36C162.496 108.061 162.058 107.629 161.738 107.064C161.418 106.499 161.258 105.816 161.258 105.016C161.258 103.875 161.589 102.957 162.25 102.264C162.912 101.56 163.85 101.208 165.066 101.208C166.56 101.208 167.605 101.693 168.202 102.664C168.81 103.635 169.114 105.08 169.114 107C169.114 108.344 168.992 109.453 168.746 110.328C168.512 111.203 168.106 111.869 167.53 112.328C166.965 112.787 166.186 113.016 165.194 113.016C164.106 113.016 163.258 112.723 162.65 112.136C162.042 111.549 161.696 110.803 161.61 109.896H162.954ZM165.21 107.56C165.925 107.56 166.512 107.341 166.97 106.904C167.429 106.456 167.658 105.853 167.658 105.096C167.658 104.296 167.434 103.651 166.986 103.16C166.538 102.669 165.909 102.424 165.098 102.424C164.352 102.424 163.754 102.659 163.306 103.128C162.869 103.597 162.65 104.216 162.65 104.984C162.65 105.763 162.869 106.387 163.306 106.856C163.744 107.325 164.378 107.56 165.21 107.56ZM172.342 113.096C172.065 113.096 171.83 113 171.638 112.808C171.446 112.616 171.35 112.381 171.35 112.104C171.35 111.827 171.446 111.592 171.638 111.4C171.83 111.208 172.065 111.112 172.342 111.112C172.609 111.112 172.833 111.208 173.014 111.4C173.206 111.592 173.302 111.827 173.302 112.104C173.302 112.381 173.206 112.616 173.014 112.808C172.833 113 172.609 113.096 172.342 113.096ZM175.475 107.096C175.475 105.261 175.774 103.832 176.371 102.808C176.968 101.773 178.014 101.256 179.507 101.256C180.99 101.256 182.03 101.773 182.627 102.808C183.224 103.832 183.523 105.261 183.523 107.096C183.523 108.963 183.224 110.413 182.627 111.448C182.03 112.483 180.99 113 179.507 113C178.014 113 176.968 112.483 176.371 111.448C175.774 110.413 175.475 108.963 175.475 107.096ZM182.083 107.096C182.083 106.168 182.019 105.384 181.891 104.744C181.774 104.093 181.523 103.571 181.139 103.176C180.766 102.781 180.222 102.584 179.507 102.584C178.782 102.584 178.227 102.781 177.843 103.176C177.47 103.571 177.219 104.093 177.091 104.744C176.974 105.384 176.915 106.168 176.915 107.096C176.915 108.056 176.974 108.861 177.091 109.512C177.219 110.163 177.47 110.685 177.843 111.08C178.227 111.475 178.782 111.672 179.507 111.672C180.222 111.672 180.766 111.475 181.139 111.08C181.523 110.685 181.774 110.163 181.891 109.512C182.019 108.861 182.083 108.056 182.083 107.096ZM185.999 107.096C185.999 105.261 186.298 103.832 186.895 102.808C187.493 101.773 188.538 101.256 190.031 101.256C191.514 101.256 192.554 101.773 193.151 102.808C193.749 103.832 194.047 105.261 194.047 107.096C194.047 108.963 193.749 110.413 193.151 111.448C192.554 112.483 191.514 113 190.031 113C188.538 113 187.493 112.483 186.895 111.448C186.298 110.413 185.999 108.963 185.999 107.096ZM192.607 107.096C192.607 106.168 192.543 105.384 192.415 104.744C192.298 104.093 192.047 103.571 191.663 103.176C191.29 102.781 190.746 102.584 190.031 102.584C189.306 102.584 188.751 102.781 188.367 103.176C187.994 103.571 187.743 104.093 187.615 104.744C187.498 105.384 187.439 106.168 187.439 107.096C187.439 108.056 187.498 108.861 187.615 109.512C187.743 110.163 187.994 110.685 188.367 111.08C188.751 111.475 189.306 111.672 190.031 111.672C190.746 111.672 191.29 111.475 191.663 111.08C192.047 110.685 192.298 110.163 192.415 109.512C192.543 108.861 192.607 108.056 192.607 107.096ZM196.3 115.976V115.832C197.398 114.701 198.23 113.384 198.796 111.88C199.372 110.376 199.66 108.797 199.66 107.144C199.66 105.448 199.356 103.816 198.748 102.248C198.15 100.669 197.254 99.32 196.06 98.2V98.056H197.58C198.7 99.0907 199.558 100.408 200.156 102.008C200.764 103.597 201.068 105.309 201.068 107.144C201.068 108.936 200.78 110.605 200.204 112.152C199.638 113.699 198.844 114.973 197.82 115.976H196.3Z" fill="#5B5B5B"/>
<path d="M122.743 107.752H195.533V108.552H122.743V107.752Z" fill="#5B5B5B"/>
<path d="M2.688 128.848V140H1.232V128.848H2.688ZM9.4415 131.072C10.5082 131.072 11.3722 131.397 12.0335 132.048C12.6948 132.688 13.0255 133.616 13.0255 134.832V140H11.5855V135.04C11.5855 134.165 11.3668 133.499 10.9295 133.04C10.4922 132.571 9.89483 132.336 9.1375 132.336C8.3695 132.336 7.75617 132.576 7.2975 133.056C6.8495 133.536 6.6255 134.235 6.6255 135.152V140H5.1695V131.232H6.6255V132.48C6.9135 132.032 7.30283 131.685 7.7935 131.44C8.29483 131.195 8.84417 131.072 9.4415 131.072ZM14.8599 135.6C14.8599 134.693 15.0412 133.904 15.4039 133.232C15.7665 132.549 16.2679 132.021 16.9079 131.648C17.5585 131.275 18.2999 131.088 19.1319 131.088C20.2092 131.088 21.0945 131.349 21.7879 131.872C22.4919 132.395 22.9559 133.12 23.1799 134.048H21.6119C21.4625 133.515 21.1692 133.093 20.7319 132.784C20.3052 132.475 19.7719 132.32 19.1319 132.32C18.2999 132.32 17.6279 132.608 17.1159 133.184C16.6039 133.749 16.3479 134.555 16.3479 135.6C16.3479 136.656 16.6039 137.472 17.1159 138.048C17.6279 138.624 18.2999 138.912 19.1319 138.912C19.7719 138.912 20.3052 138.763 20.7319 138.464C21.1585 138.165 21.4519 137.739 21.6119 137.184H23.1799C22.9452 138.08 22.4759 138.8 21.7719 139.344C21.0679 139.877 20.1879 140.144 19.1319 140.144C18.2999 140.144 17.5585 139.957 16.9079 139.584C16.2679 139.211 15.7665 138.683 15.4039 138C15.0412 137.317 14.8599 136.517 14.8599 135.6ZM26.5786 128.16V140H25.1226V128.16H26.5786ZM36.8361 131.232V140H35.3801V138.704C35.1028 139.152 34.7135 139.504 34.2121 139.76C33.7215 140.005 33.1775 140.128 32.5801 140.128C31.8975 140.128 31.2841 139.989 30.7401 139.712C30.1961 139.424 29.7641 138.997 29.4441 138.432C29.1348 137.867 28.9801 137.179 28.9801 136.368V131.232H30.4201V136.176C30.4201 137.04 30.6388 137.707 31.0761 138.176C31.5135 138.635 32.1108 138.864 32.8681 138.864C33.6468 138.864 34.2601 138.624 34.7081 138.144C35.1561 137.664 35.3801 136.965 35.3801 136.048V131.232H36.8361ZM38.7505 135.584C38.7505 134.688 38.9318 133.904 39.2945 133.232C39.6572 132.549 40.1532 132.021 40.7825 131.648C41.4225 131.275 42.1372 131.088 42.9265 131.088C43.6092 131.088 44.2438 131.248 44.8305 131.568C45.4172 131.877 45.8652 132.288 46.1745 132.8V128.16H47.6465V140H46.1745V138.352C45.8865 138.875 45.4598 139.307 44.8945 139.648C44.3292 139.979 43.6678 140.144 42.9105 140.144C42.1318 140.144 41.4225 139.952 40.7825 139.568C40.1532 139.184 39.6572 138.645 39.2945 137.952C38.9318 137.259 38.7505 136.469 38.7505 135.584ZM46.1745 135.6C46.1745 134.939 46.0412 134.363 45.7745 133.872C45.5078 133.381 45.1452 133.008 44.6865 132.752C44.2385 132.485 43.7425 132.352 43.1985 132.352C42.6545 132.352 42.1585 132.48 41.7105 132.736C41.2625 132.992 40.9052 133.365 40.6385 133.856C40.3718 134.347 40.2385 134.923 40.2385 135.584C40.2385 136.256 40.3718 136.843 40.6385 137.344C40.9052 137.835 41.2625 138.213 41.7105 138.48C42.1585 138.736 42.6545 138.864 43.1985 138.864C43.7425 138.864 44.2385 138.736 44.6865 138.48C45.1452 138.213 45.5078 137.835 45.7745 137.344C46.0412 136.843 46.1745 136.261 46.1745 135.6ZM58.107 135.28C58.107 135.557 58.091 135.851 58.059 136.16H51.051C51.1043 137.024 51.3977 137.701 51.931 138.192C52.475 138.672 53.131 138.912 53.899 138.912C54.5283 138.912 55.051 138.768 55.467 138.48C55.8937 138.181 56.1923 137.787 56.363 137.296H57.931C57.6963 138.139 57.227 138.827 56.523 139.36C55.819 139.883 54.9443 140.144 53.899 140.144C53.067 140.144 52.3203 139.957 51.659 139.584C51.0083 139.211 50.4963 138.683 50.123 138C49.7497 137.307 49.563 136.507 49.563 135.6C49.563 134.693 49.7443 133.899 50.107 133.216C50.4697 132.533 50.9763 132.011 51.627 131.648C52.2883 131.275 53.0457 131.088 53.899 131.088C54.731 131.088 55.467 131.269 56.107 131.632C56.747 131.995 57.2377 132.496 57.579 133.136C57.931 133.765 58.107 134.48 58.107 135.28ZM56.603 134.976C56.603 134.421 56.4803 133.947 56.235 133.552C55.9897 133.147 55.6537 132.843 55.227 132.64C54.811 132.427 54.347 132.32 53.835 132.32C53.099 132.32 52.4697 132.555 51.947 133.024C51.435 133.493 51.1417 134.144 51.067 134.976H56.603ZM63.1329 140.144C62.4609 140.144 61.8582 140.032 61.3249 139.808C60.7915 139.573 60.3702 139.253 60.0609 138.848C59.7515 138.432 59.5809 137.957 59.5489 137.424H61.0529C61.0955 137.861 61.2982 138.219 61.6609 138.496C62.0342 138.773 62.5195 138.912 63.1169 138.912C63.6715 138.912 64.1089 138.789 64.4289 138.544C64.7489 138.299 64.9089 137.989 64.9089 137.616C64.9089 137.232 64.7382 136.949 64.3969 136.768C64.0555 136.576 63.5275 136.389 62.8129 136.208C62.1622 136.037 61.6289 135.867 61.2129 135.696C60.8075 135.515 60.4555 135.253 60.1569 134.912C59.8689 134.56 59.7249 134.101 59.7249 133.536C59.7249 133.088 59.8582 132.677 60.1249 132.304C60.3915 131.931 60.7702 131.637 61.2609 131.424C61.7515 131.2 62.3115 131.088 62.9409 131.088C63.9115 131.088 64.6955 131.333 65.2929 131.824C65.8902 132.315 66.2102 132.987 66.2529 133.84H64.7969C64.7649 133.381 64.5782 133.013 64.2369 132.736C63.9062 132.459 63.4582 132.32 62.8929 132.32C62.3702 132.32 61.9542 132.432 61.6449 132.656C61.3355 132.88 61.1809 133.173 61.1809 133.536C61.1809 133.824 61.2715 134.064 61.4529 134.256C61.6449 134.437 61.8795 134.587 62.1569 134.704C62.4449 134.811 62.8395 134.933 63.3409 135.072C63.9702 135.243 64.4822 135.413 64.8769 135.584C65.2715 135.744 65.6075 135.989 65.8849 136.32C66.1729 136.651 66.3222 137.083 66.3329 137.616C66.3329 138.096 66.1995 138.528 65.9329 138.912C65.6662 139.296 65.2875 139.6 64.7969 139.824C64.3169 140.037 63.7622 140.144 63.1329 140.144ZM78.9579 128.848V130.032H74.1099V133.792H78.0459V134.976H74.1099V140H72.6539V128.848H78.9579ZM86.5884 140L83.9324 135.44H82.1724V140H80.7164V128.848H84.3164C85.159 128.848 85.8684 128.992 86.4444 129.28C87.031 129.568 87.4684 129.957 87.7564 130.448C88.0444 130.939 88.1884 131.499 88.1884 132.128C88.1884 132.896 87.9644 133.573 87.5164 134.16C87.079 134.747 86.4177 135.136 85.5324 135.328L88.3324 140H86.5884ZM82.1724 134.272H84.3164C85.1057 134.272 85.6977 134.08 86.0924 133.696C86.487 133.301 86.6844 132.779 86.6844 132.128C86.6844 131.467 86.487 130.955 86.0924 130.592C85.7084 130.229 85.1164 130.048 84.3164 130.048H82.1724V134.272ZM91.9068 130.032V133.76H95.9708V134.96H91.9068V138.8H96.4508V140H90.4508V128.832H96.4508V130.032H91.9068ZM100.11 130.032V133.76H104.174V134.96H100.11V138.8H104.654V140H98.6539V128.832H104.654V130.032H100.11ZM110.579 134.416C110.579 133.328 110.824 132.352 111.315 131.488C111.805 130.613 112.472 129.931 113.315 129.44C114.168 128.949 115.112 128.704 116.147 128.704C117.363 128.704 118.424 128.997 119.331 129.584C120.237 130.171 120.899 131.003 121.315 132.08H119.571C119.261 131.408 118.813 130.891 118.227 130.528C117.651 130.165 116.957 129.984 116.147 129.984C115.368 129.984 114.669 130.165 114.051 130.528C113.432 130.891 112.947 131.408 112.595 132.08C112.243 132.741 112.067 133.52 112.067 134.416C112.067 135.301 112.243 136.08 112.595 136.752C112.947 137.413 113.432 137.925 114.051 138.288C114.669 138.651 115.368 138.832 116.147 138.832C116.957 138.832 117.651 138.656 118.227 138.304C118.813 137.941 119.261 137.424 119.571 136.752H121.315C120.899 137.819 120.237 138.645 119.331 139.232C118.424 139.808 117.363 140.096 116.147 140.096C115.112 140.096 114.168 139.856 113.315 139.376C112.472 138.885 111.805 138.208 111.315 137.344C110.824 136.48 110.579 135.504 110.579 134.416ZM127.834 131.072C128.495 131.072 129.093 131.216 129.626 131.504C130.159 131.781 130.575 132.203 130.874 132.768C131.183 133.333 131.338 134.021 131.338 134.832V140H129.898V135.04C129.898 134.165 129.679 133.499 129.242 133.04C128.805 132.571 128.207 132.336 127.45 132.336C126.682 132.336 126.069 132.576 125.61 133.056C125.162 133.536 124.938 134.235 124.938 135.152V140H123.482V128.16H124.938V132.48C125.226 132.032 125.621 131.685 126.122 131.44C126.634 131.195 127.205 131.072 127.834 131.072ZM133.172 135.584C133.172 134.688 133.354 133.904 133.716 133.232C134.079 132.549 134.575 132.021 135.204 131.648C135.844 131.275 136.554 131.088 137.332 131.088C138.1 131.088 138.767 131.253 139.332 131.584C139.898 131.915 140.319 132.331 140.596 132.832V131.232H142.068V140H140.596V138.368C140.308 138.88 139.876 139.307 139.3 139.648C138.735 139.979 138.074 140.144 137.316 140.144C136.538 140.144 135.834 139.952 135.204 139.568C134.575 139.184 134.079 138.645 133.716 137.952C133.354 137.259 133.172 136.469 133.172 135.584ZM140.596 135.6C140.596 134.939 140.463 134.363 140.196 133.872C139.93 133.381 139.567 133.008 139.108 132.752C138.66 132.485 138.164 132.352 137.62 132.352C137.076 132.352 136.58 132.48 136.132 132.736C135.684 132.992 135.327 133.365 135.06 133.856C134.794 134.347 134.66 134.923 134.66 135.584C134.66 136.256 134.794 136.843 135.06 137.344C135.327 137.835 135.684 138.213 136.132 138.48C136.58 138.736 137.076 138.864 137.62 138.864C138.164 138.864 138.66 138.736 139.108 138.48C139.567 138.213 139.93 137.835 140.196 137.344C140.463 136.843 140.596 136.261 140.596 135.6ZM145.985 132.656C146.241 132.155 146.604 131.765 147.073 131.488C147.553 131.211 148.134 131.072 148.817 131.072V132.576H148.433C146.801 132.576 145.985 133.461 145.985 135.232V140H144.529V131.232H145.985V132.656ZM154.114 131.088C154.871 131.088 155.532 131.253 156.098 131.584C156.674 131.915 157.1 132.331 157.378 132.832V131.232H158.85V140.192C158.85 140.992 158.679 141.701 158.338 142.32C157.996 142.949 157.506 143.44 156.866 143.792C156.236 144.144 155.5 144.32 154.658 144.32C153.506 144.32 152.546 144.048 151.778 143.504C151.01 142.96 150.556 142.219 150.418 141.28H151.858C152.018 141.813 152.348 142.24 152.85 142.56C153.351 142.891 153.954 143.056 154.658 143.056C155.458 143.056 156.108 142.805 156.61 142.304C157.122 141.803 157.378 141.099 157.378 140.192V138.352C157.09 138.864 156.663 139.291 156.098 139.632C155.532 139.973 154.871 140.144 154.114 140.144C153.335 140.144 152.626 139.952 151.986 139.568C151.356 139.184 150.86 138.645 150.498 137.952C150.135 137.259 149.954 136.469 149.954 135.584C149.954 134.688 150.135 133.904 150.498 133.232C150.86 132.549 151.356 132.021 151.986 131.648C152.626 131.275 153.335 131.088 154.114 131.088ZM157.378 135.6C157.378 134.939 157.244 134.363 156.978 133.872C156.711 133.381 156.348 133.008 155.89 132.752C155.442 132.485 154.946 132.352 154.402 132.352C153.858 132.352 153.362 132.48 152.914 132.736C152.466 132.992 152.108 133.365 151.842 133.856C151.575 134.347 151.442 134.923 151.442 135.584C151.442 136.256 151.575 136.843 151.842 137.344C152.108 137.835 152.466 138.213 152.914 138.48C153.362 138.736 153.858 138.864 154.402 138.864C154.946 138.864 155.442 138.736 155.89 138.48C156.348 138.213 156.711 137.835 156.978 137.344C157.244 136.843 157.378 136.261 157.378 135.6ZM162.062 129.808C161.785 129.808 161.55 129.712 161.358 129.52C161.166 129.328 161.07 129.093 161.07 128.816C161.07 128.539 161.166 128.304 161.358 128.112C161.55 127.92 161.785 127.824 162.062 127.824C162.329 127.824 162.553 127.92 162.734 128.112C162.926 128.304 163.022 128.539 163.022 128.816C163.022 129.093 162.926 129.328 162.734 129.52C162.553 129.712 162.329 129.808 162.062 129.808ZM162.766 131.232V140H161.31V131.232H162.766ZM169.52 131.072C170.586 131.072 171.45 131.397 172.112 132.048C172.773 132.688 173.104 133.616 173.104 134.832V140H171.664V135.04C171.664 134.165 171.445 133.499 171.008 133.04C170.57 132.571 169.973 132.336 169.216 132.336C168.448 132.336 167.834 132.576 167.376 133.056C166.928 133.536 166.704 134.235 166.704 135.152V140H165.248V131.232H166.704V132.48C166.992 132.032 167.381 131.685 167.872 131.44C168.373 131.195 168.922 131.072 169.52 131.072ZM179.098 131.088C179.855 131.088 180.517 131.253 181.082 131.584C181.658 131.915 182.085 132.331 182.362 132.832V131.232H183.834V140.192C183.834 140.992 183.663 141.701 183.322 142.32C182.981 142.949 182.49 143.44 181.85 143.792C181.221 144.144 180.485 144.32 179.642 144.32C178.49 144.32 177.53 144.048 176.762 143.504C175.994 142.96 175.541 142.219 175.402 141.28H176.842C177.002 141.813 177.333 142.24 177.834 142.56C178.335 142.891 178.938 143.056 179.642 143.056C180.442 143.056 181.093 142.805 181.594 142.304C182.106 141.803 182.362 141.099 182.362 140.192V138.352C182.074 138.864 181.647 139.291 181.082 139.632C180.517 139.973 179.855 140.144 179.098 140.144C178.319 140.144 177.61 139.952 176.97 139.568C176.341 139.184 175.845 138.645 175.482 137.952C175.119 137.259 174.938 136.469 174.938 135.584C174.938 134.688 175.119 133.904 175.482 133.232C175.845 132.549 176.341 132.021 176.97 131.648C177.61 131.275 178.319 131.088 179.098 131.088ZM182.362 135.6C182.362 134.939 182.229 134.363 181.962 133.872C181.695 133.381 181.333 133.008 180.874 132.752C180.426 132.485 179.93 132.352 179.386 132.352C178.842 132.352 178.346 132.48 177.898 132.736C177.45 132.992 177.093 133.365 176.826 133.856C176.559 134.347 176.426 134.923 176.426 135.584C176.426 136.256 176.559 136.843 176.826 137.344C177.093 137.835 177.45 138.213 177.898 138.48C178.346 138.736 178.842 138.864 179.386 138.864C179.93 138.864 180.426 138.736 180.874 138.48C181.333 138.213 181.695 137.835 181.962 137.344C182.229 136.843 182.362 136.261 182.362 135.6ZM190.016 134.416C190.016 133.328 190.261 132.352 190.752 131.488C191.243 130.613 191.909 129.931 192.752 129.44C193.605 128.949 194.549 128.704 195.584 128.704C196.8 128.704 197.861 128.997 198.768 129.584C199.675 130.171 200.336 131.003 200.752 132.08H199.008C198.699 131.408 198.251 130.891 197.664 130.528C197.088 130.165 196.395 129.984 195.584 129.984C194.805 129.984 194.107 130.165 193.488 130.528C192.869 130.891 192.384 131.408 192.032 132.08C191.68 132.741 191.504 133.52 191.504 134.416C191.504 135.301 191.68 136.08 192.032 136.752C192.384 137.413 192.869 137.925 193.488 138.288C194.107 138.651 194.805 138.832 195.584 138.832C196.395 138.832 197.088 138.656 197.664 138.304C198.251 137.941 198.699 137.424 199.008 136.752H200.752C200.336 137.819 199.675 138.645 198.768 139.232C197.861 139.808 196.8 140.096 195.584 140.096C194.549 140.096 193.605 139.856 192.752 139.376C191.909 138.885 191.243 138.208 190.752 137.344C190.261 136.48 190.016 135.504 190.016 134.416ZM202.376 135.584C202.376 134.688 202.557 133.904 202.92 133.232C203.282 132.549 203.778 132.021 204.408 131.648C205.048 131.275 205.757 131.088 206.536 131.088C207.304 131.088 207.97 131.253 208.536 131.584C209.101 131.915 209.522 132.331 209.8 132.832V131.232H211.272V140H209.8V138.368C209.512 138.88 209.08 139.307 208.504 139.648C207.938 139.979 207.277 140.144 206.52 140.144C205.741 140.144 205.037 139.952 204.408 139.568C203.778 139.184 203.282 138.645 202.92 137.952C202.557 137.259 202.376 136.469 202.376 135.584ZM209.8 135.6C209.8 134.939 209.666 134.363 209.4 133.872C209.133 133.381 208.77 133.008 208.312 132.752C207.864 132.485 207.368 132.352 206.824 132.352C206.28 132.352 205.784 132.48 205.336 132.736C204.888 132.992 204.53 133.365 204.264 133.856C203.997 134.347 203.864 134.923 203.864 135.584C203.864 136.256 203.997 136.843 204.264 137.344C204.53 137.835 204.888 138.213 205.336 138.48C205.784 138.736 206.28 138.864 206.824 138.864C207.368 138.864 207.864 138.736 208.312 138.48C208.77 138.213 209.133 137.835 209.4 137.344C209.666 136.843 209.8 136.261 209.8 135.6ZM215.188 132.864C215.487 132.341 215.924 131.915 216.5 131.584C217.076 131.253 217.732 131.088 218.468 131.088C219.257 131.088 219.967 131.275 220.596 131.648C221.225 132.021 221.721 132.549 222.084 133.232C222.447 133.904 222.628 134.688 222.628 135.584C222.628 136.469 222.447 137.259 222.084 137.952C221.721 138.645 221.22 139.184 220.58 139.568C219.951 139.952 219.247 140.144 218.468 140.144C217.711 140.144 217.044 139.979 216.468 139.648C215.903 139.317 215.476 138.896 215.188 138.384V140H213.732V128.16H215.188V132.864ZM221.14 135.584C221.14 134.923 221.007 134.347 220.74 133.856C220.473 133.365 220.111 132.992 219.652 132.736C219.204 132.48 218.708 132.352 218.164 132.352C217.631 132.352 217.135 132.485 216.676 132.752C216.228 133.008 215.865 133.387 215.588 133.888C215.321 134.379 215.188 134.949 215.188 135.6C215.188 136.261 215.321 136.843 215.588 137.344C215.865 137.835 216.228 138.213 216.676 138.48C217.135 138.736 217.631 138.864 218.164 138.864C218.708 138.864 219.204 138.736 219.652 138.48C220.111 138.213 220.473 137.835 220.74 137.344C221.007 136.843 221.14 136.256 221.14 135.584ZM226.001 128.16V140H224.545V128.16H226.001ZM236.482 135.28C236.482 135.557 236.466 135.851 236.434 136.16H229.426C229.479 137.024 229.773 137.701 230.306 138.192C230.85 138.672 231.506 138.912 232.274 138.912C232.903 138.912 233.426 138.768 233.842 138.48C234.269 138.181 234.567 137.787 234.738 137.296H236.306C236.071 138.139 235.602 138.827 234.898 139.36C234.194 139.883 233.319 140.144 232.274 140.144C231.442 140.144 230.695 139.957 230.034 139.584C229.383 139.211 228.871 138.683 228.498 138C228.125 137.307 227.938 136.507 227.938 135.6C227.938 134.693 228.119 133.899 228.482 133.216C228.845 132.533 229.351 132.011 230.002 131.648C230.663 131.275 231.421 131.088 232.274 131.088C233.106 131.088 233.842 131.269 234.482 131.632C235.122 131.995 235.613 132.496 235.954 133.136C236.306 133.765 236.482 134.48 236.482 135.28ZM234.978 134.976C234.978 134.421 234.855 133.947 234.61 133.552C234.365 133.147 234.029 132.843 233.602 132.64C233.186 132.427 232.722 132.32 232.21 132.32C231.474 132.32 230.845 132.555 230.322 133.024C229.81 133.493 229.517 134.144 229.442 134.976H234.978ZM239.908 137.984L238.116 142.288H237.14L238.308 137.984H239.908ZM252.705 128.848V130.032H249.665V140H248.209V130.032H245.153V128.848H252.705ZM253.954 135.584C253.954 134.688 254.135 133.904 254.498 133.232C254.86 132.549 255.356 132.021 255.986 131.648C256.626 131.275 257.335 131.088 258.114 131.088C258.882 131.088 259.548 131.253 260.114 131.584C260.679 131.915 261.1 132.331 261.378 132.832V131.232H262.85V140H261.378V138.368C261.09 138.88 260.658 139.307 260.082 139.648C259.516 139.979 258.855 140.144 258.098 140.144C257.319 140.144 256.615 139.952 255.986 139.568C255.356 139.184 254.86 138.645 254.498 137.952C254.135 137.259 253.954 136.469 253.954 135.584ZM261.378 135.6C261.378 134.939 261.244 134.363 260.978 133.872C260.711 133.381 260.348 133.008 259.89 132.752C259.442 132.485 258.946 132.352 258.402 132.352C257.858 132.352 257.362 132.48 256.914 132.736C256.466 132.992 256.108 133.365 255.842 133.856C255.575 134.347 255.442 134.923 255.442 135.584C255.442 136.256 255.575 136.843 255.842 137.344C256.108 137.835 256.466 138.213 256.914 138.48C257.362 138.736 257.858 138.864 258.402 138.864C258.946 138.864 259.442 138.736 259.89 138.48C260.348 138.213 260.711 137.835 260.978 137.344C261.244 136.843 261.378 136.261 261.378 135.6ZM268.926 131.088C269.683 131.088 270.345 131.253 270.91 131.584C271.486 131.915 271.913 132.331 272.19 132.832V131.232H273.662V140.192C273.662 140.992 273.491 141.701 273.15 142.32C272.809 142.949 272.318 143.44 271.678 143.792C271.049 144.144 270.313 144.32 269.47 144.32C268.318 144.32 267.358 144.048 266.59 143.504C265.822 142.96 265.369 142.219 265.23 141.28H266.67C266.83 141.813 267.161 142.24 267.662 142.56C268.163 142.891 268.766 143.056 269.47 143.056C270.27 143.056 270.921 142.805 271.422 142.304C271.934 141.803 272.19 141.099 272.19 140.192V138.352C271.902 138.864 271.475 139.291 270.91 139.632C270.345 139.973 269.683 140.144 268.926 140.144C268.147 140.144 267.438 139.952 266.798 139.568C266.169 139.184 265.673 138.645 265.31 137.952C264.947 137.259 264.766 136.469 264.766 135.584C264.766 134.688 264.947 133.904 265.31 133.232C265.673 132.549 266.169 132.021 266.798 131.648C267.438 131.275 268.147 131.088 268.926 131.088ZM272.19 135.6C272.19 134.939 272.057 134.363 271.79 133.872C271.523 133.381 271.161 133.008 270.702 132.752C270.254 132.485 269.758 132.352 269.214 132.352C268.67 132.352 268.174 132.48 267.726 132.736C267.278 132.992 266.921 133.365 266.654 133.856C266.387 134.347 266.254 134.923 266.254 135.584C266.254 136.256 266.387 136.843 266.654 137.344C266.921 137.835 267.278 138.213 267.726 138.48C268.174 138.736 268.67 138.864 269.214 138.864C269.758 138.864 270.254 138.736 270.702 138.48C271.161 138.213 271.523 137.835 271.79 137.344C272.057 136.843 272.19 136.261 272.19 135.6ZM288.948 140L287.492 138.528C286.948 139.093 286.367 139.515 285.748 139.792C285.13 140.059 284.431 140.192 283.652 140.192C282.884 140.192 282.202 140.053 281.604 139.776C281.018 139.499 280.559 139.104 280.228 138.592C279.908 138.08 279.748 137.483 279.748 136.8C279.748 136.021 279.967 135.339 280.404 134.752C280.852 134.155 281.508 133.685 282.372 133.344C282.031 132.939 281.786 132.565 281.636 132.224C281.487 131.883 281.412 131.509 281.412 131.104C281.412 130.635 281.53 130.213 281.764 129.84C282.01 129.456 282.356 129.157 282.804 128.944C283.252 128.731 283.77 128.624 284.356 128.624C284.932 128.624 285.434 128.736 285.86 128.96C286.287 129.184 286.607 129.499 286.82 129.904C287.034 130.299 287.13 130.741 287.108 131.232H285.652C285.663 130.795 285.54 130.453 285.284 130.208C285.028 129.952 284.698 129.824 284.292 129.824C283.866 129.824 283.519 129.947 283.252 130.192C282.996 130.427 282.868 130.731 282.868 131.104C282.868 131.424 282.954 131.733 283.124 132.032C283.306 132.331 283.604 132.699 284.02 133.136L287.348 136.48L287.636 136.032L288.724 134.208H290.292L288.98 136.48C288.799 136.8 288.586 137.136 288.34 137.488L290.852 140H288.948ZM283.652 138.944C284.228 138.944 284.746 138.832 285.204 138.608C285.674 138.384 286.116 138.037 286.532 137.568L283.252 134.272C281.887 134.795 281.204 135.621 281.204 136.752C281.204 137.381 281.428 137.904 281.876 138.32C282.335 138.736 282.927 138.944 283.652 138.944ZM296.21 131.344C296.285 130.363 296.663 129.595 297.346 129.04C298.029 128.485 298.914 128.208 300.002 128.208C300.727 128.208 301.351 128.341 301.874 128.608C302.407 128.864 302.807 129.216 303.074 129.664C303.351 130.112 303.49 130.619 303.49 131.184C303.49 131.845 303.298 132.416 302.914 132.896C302.541 133.376 302.05 133.685 301.442 133.824V133.904C302.135 134.075 302.685 134.411 303.09 134.912C303.495 135.413 303.698 136.069 303.698 136.88C303.698 137.488 303.559 138.037 303.282 138.528C303.005 139.008 302.589 139.387 302.034 139.664C301.479 139.941 300.813 140.08 300.034 140.08C298.903 140.08 297.975 139.787 297.25 139.2C296.525 138.603 296.119 137.76 296.034 136.672H297.442C297.517 137.312 297.778 137.835 298.226 138.24C298.674 138.645 299.271 138.848 300.018 138.848C300.765 138.848 301.33 138.656 301.714 138.272C302.109 137.877 302.306 137.371 302.306 136.752C302.306 135.952 302.039 135.376 301.506 135.024C300.973 134.672 300.167 134.496 299.09 134.496H298.722V133.28H299.106C300.087 133.269 300.829 133.109 301.33 132.8C301.831 132.48 302.082 131.989 302.082 131.328C302.082 130.763 301.895 130.309 301.522 129.968C301.159 129.627 300.637 129.456 299.954 129.456C299.293 129.456 298.759 129.627 298.354 129.968C297.949 130.309 297.709 130.768 297.634 131.344H296.21ZM317.216 128.928V140H315.76V131.744L312.08 140H311.056L307.36 131.728V140H305.904V128.928H307.472L311.568 138.08L315.664 128.928H317.216ZM327.487 140.112C326.751 140.112 326.089 139.984 325.503 139.728C324.927 139.461 324.473 139.099 324.143 138.64C323.812 138.171 323.641 137.632 323.631 137.024H325.183C325.236 137.547 325.449 137.989 325.823 138.352C326.207 138.704 326.761 138.88 327.487 138.88C328.18 138.88 328.724 138.709 329.119 138.368C329.524 138.016 329.727 137.568 329.727 137.024C329.727 136.597 329.609 136.251 329.375 135.984C329.14 135.717 328.847 135.515 328.495 135.376C328.143 135.237 327.668 135.088 327.071 134.928C326.335 134.736 325.743 134.544 325.295 134.352C324.857 134.16 324.479 133.861 324.159 133.456C323.849 133.04 323.695 132.485 323.695 131.792C323.695 131.184 323.849 130.645 324.159 130.176C324.468 129.707 324.9 129.344 325.455 129.088C326.02 128.832 326.665 128.704 327.391 128.704C328.436 128.704 329.289 128.965 329.951 129.488C330.623 130.011 331.001 130.704 331.087 131.568H329.487C329.433 131.141 329.209 130.768 328.815 130.448C328.42 130.117 327.897 129.952 327.247 129.952C326.639 129.952 326.143 130.112 325.759 130.432C325.375 130.741 325.183 131.179 325.183 131.744C325.183 132.149 325.295 132.48 325.519 132.736C325.753 132.992 326.036 133.189 326.367 133.328C326.708 133.456 327.183 133.605 327.791 133.776C328.527 133.979 329.119 134.181 329.567 134.384C330.015 134.576 330.399 134.88 330.719 135.296C331.039 135.701 331.199 136.256 331.199 136.96C331.199 137.504 331.055 138.016 330.767 138.496C330.479 138.976 330.052 139.365 329.487 139.664C328.921 139.963 328.255 140.112 327.487 140.112ZM335.117 132.432V137.6C335.117 138.027 335.208 138.331 335.389 138.512C335.571 138.683 335.885 138.768 336.333 138.768H337.405V140H336.093C335.283 140 334.675 139.813 334.269 139.44C333.864 139.067 333.661 138.453 333.661 137.6V132.432H332.525V131.232H333.661V129.024H335.117V131.232H337.405V132.432H335.117ZM339.922 129.808C339.644 129.808 339.41 129.712 339.218 129.52C339.026 129.328 338.93 129.093 338.93 128.816C338.93 128.539 339.026 128.304 339.218 128.112C339.41 127.92 339.644 127.824 339.922 127.824C340.188 127.824 340.412 127.92 340.594 128.112C340.786 128.304 340.882 128.539 340.882 128.816C340.882 129.093 340.786 129.328 340.594 129.52C340.412 129.712 340.188 129.808 339.922 129.808ZM340.626 131.232V140H339.17V131.232H340.626ZM342.563 135.6C342.563 134.693 342.744 133.904 343.107 133.232C343.47 132.549 343.971 132.021 344.611 131.648C345.262 131.275 346.003 131.088 346.835 131.088C347.912 131.088 348.798 131.349 349.491 131.872C350.195 132.395 350.659 133.12 350.883 134.048H349.315C349.166 133.515 348.872 133.093 348.435 132.784C348.008 132.475 347.475 132.32 346.835 132.32C346.003 132.32 345.331 132.608 344.819 133.184C344.307 133.749 344.051 134.555 344.051 135.6C344.051 136.656 344.307 137.472 344.819 138.048C345.331 138.624 346.003 138.912 346.835 138.912C347.475 138.912 348.008 138.763 348.435 138.464C348.862 138.165 349.155 137.739 349.315 137.184H350.883C350.648 138.08 350.179 138.8 349.475 139.344C348.771 139.877 347.891 140.144 346.835 140.144C346.003 140.144 345.262 139.957 344.611 139.584C343.971 139.211 343.47 138.683 343.107 138C342.744 137.317 342.563 136.517 342.563 135.6ZM357.722 140L354.282 136.128V140H352.826V128.16H354.282V135.12L357.658 131.232H359.69L355.562 135.6L359.706 140H357.722ZM369.06 135.28C369.06 135.557 369.044 135.851 369.012 136.16H362.004C362.057 137.024 362.351 137.701 362.884 138.192C363.428 138.672 364.084 138.912 364.852 138.912C365.481 138.912 366.004 138.768 366.42 138.48C366.847 138.181 367.145 137.787 367.316 137.296H368.884C368.649 138.139 368.18 138.827 367.476 139.36C366.772 139.883 365.897 140.144 364.852 140.144C364.02 140.144 363.273 139.957 362.612 139.584C361.961 139.211 361.449 138.683 361.076 138C360.703 137.307 360.516 136.507 360.516 135.6C360.516 134.693 360.697 133.899 361.06 133.216C361.423 132.533 361.929 132.011 362.58 131.648C363.241 131.275 363.999 131.088 364.852 131.088C365.684 131.088 366.42 131.269 367.06 131.632C367.7 131.995 368.191 132.496 368.532 133.136C368.884 133.765 369.06 134.48 369.06 135.28ZM367.556 134.976C367.556 134.421 367.433 133.947 367.188 133.552C366.943 133.147 366.607 132.843 366.18 132.64C365.764 132.427 365.3 132.32 364.788 132.32C364.052 132.32 363.423 132.555 362.9 133.024C362.388 133.493 362.095 134.144 362.02 134.976H367.556ZM372.438 132.656C372.694 132.155 373.057 131.765 373.526 131.488C374.006 131.211 374.587 131.072 375.27 131.072V132.576H374.886C373.254 132.576 372.438 133.461 372.438 135.232V140H370.982V131.232H372.438V132.656Z" fill="#5B5B5B"/>
<path d="M4.976 66.976C3.952 65.9733 3.152 64.6987 2.576 63.152C2.01067 61.6053 1.728 59.936 1.728 58.144C1.728 56.3093 2.02667 54.5973 2.624 53.008C3.232 51.408 4.096 50.0907 5.216 49.056H6.736V49.2C5.54133 50.32 4.64 51.6693 4.032 53.248C3.43467 54.816 3.136 56.448 3.136 58.144C3.136 59.7973 3.41867 61.376 3.984 62.88C4.56 64.384 5.39733 65.7013 6.496 66.832V66.976H4.976ZM16.0166 52.848V54.032H12.9766V64H11.5206V54.032H8.46456V52.848H16.0166ZM17.9197 59.584C17.9197 58.688 18.1011 57.904 18.4637 57.232C18.8264 56.5493 19.3224 56.0213 19.9517 55.648C20.5917 55.2747 21.3011 55.088 22.0797 55.088C22.8477 55.088 23.5144 55.2533 24.0797 55.584C24.6451 55.9147 25.0664 56.3307 25.3437 56.832V55.232H26.8157V64H25.3437V62.368C25.0557 62.88 24.6237 63.3067 24.0477 63.648C23.4824 63.9787 22.8211 64.144 22.0637 64.144C21.2851 64.144 20.5811 63.952 19.9517 63.568C19.3224 63.184 18.8264 62.6453 18.4637 61.952C18.1011 61.2587 17.9197 60.4693 17.9197 59.584ZM25.3437 59.6C25.3437 58.9387 25.2104 58.3627 24.9437 57.872C24.6771 57.3813 24.3144 57.008 23.8557 56.752C23.4077 56.4853 22.9117 56.352 22.3677 56.352C21.8237 56.352 21.3277 56.48 20.8797 56.736C20.4317 56.992 20.0744 57.3653 19.8077 57.856C19.5411 58.3467 19.4077 58.9227 19.4077 59.584C19.4077 60.256 19.5411 60.8427 19.8077 61.344C20.0744 61.8347 20.4317 62.2133 20.8797 62.48C21.3277 62.736 21.8237 62.864 22.3677 62.864C22.9117 62.864 23.4077 62.736 23.8557 62.48C24.3144 62.2133 24.6771 61.8347 24.9437 61.344C25.2104 60.8427 25.3437 60.2613 25.3437 59.6ZM33.5472 55.088C34.3045 55.088 34.9658 55.2533 35.5312 55.584C36.1072 55.9147 36.5338 56.3307 36.8112 56.832V55.232H38.2832V64.192C38.2832 64.992 38.1125 65.7013 37.7712 66.32C37.4298 66.9493 36.9392 67.44 36.2992 67.792C35.6698 68.144 34.9338 68.32 34.0912 68.32C32.9392 68.32 31.9792 68.048 31.2112 67.504C30.4432 66.96 29.9898 66.2187 29.8512 65.28H31.2912C31.4512 65.8133 31.7818 66.24 32.2832 66.56C32.7845 66.8907 33.3872 67.056 34.0912 67.056C34.8912 67.056 35.5418 66.8053 36.0432 66.304C36.5552 65.8027 36.8112 65.0987 36.8112 64.192V62.352C36.5232 62.864 36.0965 63.2907 35.5312 63.632C34.9658 63.9733 34.3045 64.144 33.5472 64.144C32.7685 64.144 32.0592 63.952 31.4192 63.568C30.7898 63.184 30.2938 62.6453 29.9312 61.952C29.5685 61.2587 29.3872 60.4693 29.3872 59.584C29.3872 58.688 29.5685 57.904 29.9312 57.232C30.2938 56.5493 30.7898 56.0213 31.4192 55.648C32.0592 55.2747 32.7685 55.088 33.5472 55.088ZM36.8112 59.6C36.8112 58.9387 36.6778 58.3627 36.4112 57.872C36.1445 57.3813 35.7818 57.008 35.3232 56.752C34.8752 56.4853 34.3792 56.352 33.8352 56.352C33.2912 56.352 32.7952 56.48 32.3472 56.736C31.8992 56.992 31.5418 57.3653 31.2752 57.856C31.0085 58.3467 30.8752 58.9227 30.8752 59.584C30.8752 60.256 31.0085 60.8427 31.2752 61.344C31.5418 61.8347 31.8992 62.2133 32.3472 62.48C32.7952 62.736 33.2912 62.864 33.8352 62.864C34.3792 62.864 34.8752 62.736 35.3232 62.48C35.7818 62.2133 36.1445 61.8347 36.4112 61.344C36.6778 60.8427 36.8112 60.2613 36.8112 59.6ZM49.7186 58.768H46.3106V62.224H44.9506V58.768H41.5586V57.536H44.9506V54.064H46.3106V57.536H49.7186V58.768ZM56.5114 64.112C55.7754 64.112 55.1141 63.984 54.5274 63.728C53.9514 63.4613 53.4981 63.0987 53.1674 62.64C52.8367 62.1707 52.6661 61.632 52.6554 61.024H54.2074C54.2607 61.5467 54.4741 61.9893 54.8474 62.352C55.2314 62.704 55.7861 62.88 56.5114 62.88C57.2047 62.88 57.7487 62.7093 58.1434 62.368C58.5487 62.016 58.7514 61.568 58.7514 61.024C58.7514 60.5973 58.6341 60.2507 58.3994 59.984C58.1647 59.7173 57.8714 59.5147 57.5194 59.376C57.1674 59.2373 56.6927 59.088 56.0954 58.928C55.3594 58.736 54.7674 58.544 54.3194 58.352C53.8821 58.16 53.5034 57.8613 53.1834 57.456C52.8741 57.04 52.7194 56.4853 52.7194 55.792C52.7194 55.184 52.8741 54.6453 53.1834 54.176C53.4927 53.7067 53.9247 53.344 54.4794 53.088C55.0447 52.832 55.6901 52.704 56.4154 52.704C57.4607 52.704 58.3141 52.9653 58.9754 53.488C59.6474 54.0107 60.0261 54.704 60.1114 55.568H58.5114C58.4581 55.1413 58.2341 54.768 57.8394 54.448C57.4447 54.1173 56.9221 53.952 56.2714 53.952C55.6634 53.952 55.1674 54.112 54.7834 54.432C54.3994 54.7413 54.2074 55.1787 54.2074 55.744C54.2074 56.1493 54.3194 56.48 54.5434 56.736C54.7781 56.992 55.0607 57.1893 55.3914 57.328C55.7327 57.456 56.2074 57.6053 56.8154 57.776C57.5514 57.9787 58.1434 58.1813 58.5914 58.384C59.0394 58.576 59.4234 58.88 59.7434 59.296C60.0634 59.7013 60.2234 60.256 60.2234 60.96C60.2234 61.504 60.0794 62.016 59.7914 62.496C59.5034 62.976 59.0767 63.3653 58.5114 63.664C57.9461 63.9627 57.2794 64.112 56.5114 64.112ZM64.797 56.432V61.6C64.797 62.0267 64.8876 62.3307 65.069 62.512C65.2503 62.6827 65.565 62.768 66.013 62.768H67.085V64H65.773C64.9623 64 64.3543 63.8133 63.949 63.44C63.5436 63.0667 63.341 62.4533 63.341 61.6V56.432H62.205V55.232H63.341V53.024H64.797V55.232H67.085V56.432H64.797ZM70.256 53.808C69.9787 53.808 69.744 53.712 69.552 53.52C69.36 53.328 69.264 53.0933 69.264 52.816C69.264 52.5387 69.36 52.304 69.552 52.112C69.744 51.92 69.9787 51.824 70.256 51.824C70.5227 51.824 70.7467 51.92 70.928 52.112C71.12 52.304 71.216 52.5387 71.216 52.816C71.216 53.0933 71.12 53.328 70.928 53.52C70.7467 53.712 70.5227 53.808 70.256 53.808ZM70.96 55.232V64H69.504V55.232H70.96ZM73.5524 59.6C73.5524 58.6933 73.7338 57.904 74.0964 57.232C74.4591 56.5493 74.9604 56.0213 75.6004 55.648C76.2511 55.2747 76.9924 55.088 77.8244 55.088C78.9018 55.088 79.7871 55.3493 80.4804 55.872C81.1844 56.3947 81.6484 57.12 81.8724 58.048H80.3044C80.1551 57.5147 79.8618 57.0933 79.4244 56.784C78.9978 56.4747 78.4644 56.32 77.8244 56.32C76.9924 56.32 76.3204 56.608 75.8084 57.184C75.2964 57.7493 75.0404 58.5547 75.0404 59.6C75.0404 60.656 75.2964 61.472 75.8084 62.048C76.3204 62.624 76.9924 62.912 77.8244 62.912C78.4644 62.912 78.9978 62.7627 79.4244 62.464C79.8511 62.1653 80.1444 61.7387 80.3044 61.184H81.8724C81.6378 62.08 81.1684 62.8 80.4644 63.344C79.7604 63.8773 78.8804 64.144 77.8244 64.144C76.9924 64.144 76.2511 63.9573 75.6004 63.584C74.9604 63.2107 74.4591 62.6827 74.0964 62C73.7338 61.3173 73.5524 60.5173 73.5524 59.6ZM89.3661 64L85.9261 60.128V64H84.4701V52.16H85.9261V59.12L89.3021 55.232H91.3341L87.2061 59.6L91.3501 64H89.3661ZM101.679 58.768H98.2714V62.224H96.9114V58.768H93.5194V57.536H96.9114V54.064H98.2714V57.536H101.679V58.768ZM112.392 56.112C112.392 57.04 112.072 57.8133 111.432 58.432C110.803 59.04 109.838 59.344 108.536 59.344H106.392V64H104.936V52.848H108.536C109.795 52.848 110.75 53.152 111.4 53.76C112.062 54.368 112.392 55.152 112.392 56.112ZM108.536 58.144C109.347 58.144 109.944 57.968 110.328 57.616C110.712 57.264 110.904 56.7627 110.904 56.112C110.904 54.736 110.115 54.048 108.536 54.048H106.392V58.144H108.536ZM116.313 52.16V64H114.857V52.16H116.313ZM118.905 59.584C118.905 58.688 119.087 57.904 119.449 57.232C119.812 56.5493 120.308 56.0213 120.937 55.648C121.577 55.2747 122.287 55.088 123.065 55.088C123.833 55.088 124.5 55.2533 125.065 55.584C125.631 55.9147 126.052 56.3307 126.329 56.832V55.232H127.801V64H126.329V62.368C126.041 62.88 125.609 63.3067 125.033 63.648C124.468 63.9787 123.807 64.144 123.049 64.144C122.271 64.144 121.567 63.952 120.937 63.568C120.308 63.184 119.812 62.6453 119.449 61.952C119.087 61.2587 118.905 60.4693 118.905 59.584ZM126.329 59.6C126.329 58.9387 126.196 58.3627 125.929 57.872C125.663 57.3813 125.3 57.008 124.841 56.752C124.393 56.4853 123.897 56.352 123.353 56.352C122.809 56.352 122.313 56.48 121.865 56.736C121.417 56.992 121.06 57.3653 120.793 57.856C120.527 58.3467 120.393 58.9227 120.393 59.584C120.393 60.256 120.527 60.8427 120.793 61.344C121.06 61.8347 121.417 62.2133 121.865 62.48C122.313 62.736 122.809 62.864 123.353 62.864C123.897 62.864 124.393 62.736 124.841 62.48C125.3 62.2133 125.663 61.8347 125.929 61.344C126.196 60.8427 126.329 60.2613 126.329 59.6ZM130.373 59.6C130.373 58.6933 130.554 57.904 130.917 57.232C131.279 56.5493 131.781 56.0213 132.421 55.648C133.071 55.2747 133.813 55.088 134.645 55.088C135.722 55.088 136.607 55.3493 137.301 55.872C138.005 56.3947 138.469 57.12 138.693 58.048H137.125C136.975 57.5147 136.682 57.0933 136.245 56.784C135.818 56.4747 135.285 56.32 134.645 56.32C133.813 56.32 133.141 56.608 132.629 57.184C132.117 57.7493 131.861 58.5547 131.861 59.6C131.861 60.656 132.117 61.472 132.629 62.048C133.141 62.624 133.813 62.912 134.645 62.912C135.285 62.912 135.818 62.7627 136.245 62.464C136.671 62.1653 136.965 61.7387 137.125 61.184H138.693C138.458 62.08 137.989 62.8 137.285 63.344C136.581 63.8773 135.701 64.144 134.645 64.144C133.813 64.144 133.071 63.9573 132.421 63.584C131.781 63.2107 131.279 62.6827 130.917 62C130.554 61.3173 130.373 60.5173 130.373 59.6ZM149.29 59.28C149.29 59.5573 149.274 59.8507 149.242 60.16H142.234C142.288 61.024 142.581 61.7013 143.114 62.192C143.658 62.672 144.314 62.912 145.082 62.912C145.712 62.912 146.234 62.768 146.65 62.48C147.077 62.1813 147.376 61.7867 147.546 61.296H149.114C148.88 62.1387 148.41 62.8267 147.706 63.36C147.002 63.8827 146.128 64.144 145.082 64.144C144.25 64.144 143.504 63.9573 142.842 63.584C142.192 63.2107 141.68 62.6827 141.306 62C140.933 61.3067 140.746 60.5067 140.746 59.6C140.746 58.6933 140.928 57.8987 141.29 57.216C141.653 56.5333 142.16 56.0107 142.81 55.648C143.472 55.2747 144.229 55.088 145.082 55.088C145.914 55.088 146.65 55.2693 147.29 55.632C147.93 55.9947 148.421 56.496 148.762 57.136C149.114 57.7653 149.29 58.48 149.29 59.28ZM147.786 58.976C147.786 58.4213 147.664 57.9467 147.418 57.552C147.173 57.1467 146.837 56.8427 146.41 56.64C145.994 56.4267 145.53 56.32 145.018 56.32C144.282 56.32 143.653 56.5547 143.13 57.024C142.618 57.4933 142.325 58.144 142.25 58.976H147.786ZM151.403 66.976V66.832C152.502 65.7013 153.334 64.384 153.899 62.88C154.475 61.376 154.763 59.7973 154.763 58.144C154.763 56.448 154.459 54.816 153.851 53.248C153.254 51.6693 152.358 50.32 151.163 49.2V49.056H152.683C153.803 50.0907 154.662 51.408 155.259 53.008C155.867 54.5973 156.171 56.3093 156.171 58.144C156.171 59.936 155.883 61.6053 155.307 63.152C154.742 64.6987 153.947 65.9733 152.923 66.976H151.403Z" fill="black"/>
</svg>
