<svg width="283" height="101" viewBox="0 0 283 101" fill="none" xmlns="http://www.w3.org/2000/svg">
<rect x="212" y="3" width="71" height="21" rx="6" fill="#2AA952"/>
<path d="M227.51 11.286C227.305 10.25 226.665 9.732 225.592 9.732C224.761 9.732 224.141 10.054 223.73 10.698C223.319 11.3327 223.119 12.3827 223.128 13.848C223.343 13.3627 223.697 12.9847 224.192 12.714C224.696 12.434 225.256 12.294 225.872 12.294C226.833 12.294 227.599 12.5927 228.168 13.19C228.747 13.7873 229.036 14.6133 229.036 15.668C229.036 16.3027 228.91 16.872 228.658 17.376C228.415 17.88 228.042 18.2813 227.538 18.58C227.043 18.8787 226.441 19.028 225.732 19.028C224.771 19.028 224.019 18.8133 223.478 18.384C222.937 17.9547 222.559 17.362 222.344 16.606C222.129 15.85 222.022 14.9167 222.022 13.806C222.022 10.3807 223.217 8.668 225.606 8.668C226.521 8.668 227.239 8.91533 227.762 9.41C228.285 9.90467 228.593 10.53 228.686 11.286H227.51ZM225.606 13.372C225.205 13.372 224.827 13.456 224.472 13.624C224.117 13.7827 223.828 14.03 223.604 14.366C223.389 14.6927 223.282 15.094 223.282 15.57C223.282 16.2793 223.487 16.858 223.898 17.306C224.309 17.7447 224.897 17.964 225.662 17.964C226.315 17.964 226.833 17.7633 227.216 17.362C227.608 16.9513 227.804 16.4007 227.804 15.71C227.804 14.982 227.617 14.4127 227.244 14.002C226.871 13.582 226.325 13.372 225.606 13.372ZM231.172 13.834C231.172 12.2287 231.433 10.978 231.956 10.082C232.479 9.17667 233.393 8.724 234.7 8.724C235.997 8.724 236.907 9.17667 237.43 10.082C237.953 10.978 238.214 12.2287 238.214 13.834C238.214 15.4673 237.953 16.7367 237.43 17.642C236.907 18.5473 235.997 19 234.7 19C233.393 19 232.479 18.5473 231.956 17.642C231.433 16.7367 231.172 15.4673 231.172 13.834ZM236.954 13.834C236.954 13.022 236.898 12.336 236.786 11.776C236.683 11.2067 236.464 10.7493 236.128 10.404C235.801 10.0587 235.325 9.886 234.7 9.886C234.065 9.886 233.58 10.0587 233.244 10.404C232.917 10.7493 232.698 11.2067 232.586 11.776C232.483 12.336 232.432 13.022 232.432 13.834C232.432 14.674 232.483 15.3787 232.586 15.948C232.698 16.5173 232.917 16.9747 233.244 17.32C233.58 17.6653 234.065 17.838 234.7 17.838C235.325 17.838 235.801 17.6653 236.128 17.32C236.464 16.9747 236.683 16.5173 236.786 15.948C236.898 15.3787 236.954 14.674 236.954 13.834ZM240.1 11.16C240.1 10.5253 240.292 10.0213 240.674 9.648C241.057 9.26533 241.547 9.074 242.144 9.074C242.742 9.074 243.232 9.26533 243.614 9.648C243.997 10.0213 244.188 10.5253 244.188 11.16C244.188 11.804 243.997 12.3173 243.614 12.7C243.232 13.0733 242.742 13.26 242.144 13.26C241.547 13.26 241.057 13.0733 240.674 12.7C240.292 12.3173 240.1 11.804 240.1 11.16ZM248.276 9.228L242.606 19H241.346L247.016 9.228H248.276ZM242.144 9.858C241.827 9.858 241.575 9.97 241.388 10.194C241.211 10.4087 241.122 10.7307 241.122 11.16C241.122 11.5893 241.211 11.916 241.388 12.14C241.575 12.364 241.827 12.476 242.144 12.476C242.462 12.476 242.714 12.364 242.9 12.14C243.087 11.9067 243.18 11.58 243.18 11.16C243.18 10.7307 243.087 10.4087 242.9 10.194C242.714 9.97 242.462 9.858 242.144 9.858ZM245.462 17.068C245.462 16.424 245.654 15.9153 246.036 15.542C246.419 15.1593 246.909 14.968 247.506 14.968C248.104 14.968 248.589 15.1593 248.962 15.542C249.345 15.9153 249.536 16.424 249.536 17.068C249.536 17.7027 249.345 18.2113 248.962 18.594C248.589 18.9767 248.104 19.168 247.506 19.168C246.909 19.168 246.419 18.9813 246.036 18.608C245.654 18.2253 245.462 17.712 245.462 17.068ZM247.492 15.766C247.175 15.766 246.923 15.878 246.736 16.102C246.55 16.3167 246.456 16.6387 246.456 17.068C246.456 17.488 246.55 17.81 246.736 18.034C246.923 18.2487 247.175 18.356 247.492 18.356C247.81 18.356 248.062 18.2487 248.248 18.034C248.435 17.81 248.528 17.488 248.528 17.068C248.528 16.6387 248.435 16.3167 248.248 16.102C248.062 15.878 247.81 15.766 247.492 15.766ZM259.126 19.126C258.408 19.126 257.754 18.9627 257.166 18.636C256.588 18.3093 256.13 17.8473 255.794 17.25C255.468 16.6433 255.304 15.9433 255.304 15.15C255.304 14.366 255.472 13.6753 255.808 13.078C256.154 12.4713 256.62 12.0093 257.208 11.692C257.796 11.3653 258.454 11.202 259.182 11.202C259.91 11.202 260.568 11.3653 261.156 11.692C261.744 12.0093 262.206 12.4667 262.542 13.064C262.888 13.6613 263.06 14.3567 263.06 15.15C263.06 15.9433 262.883 16.6433 262.528 17.25C262.183 17.8473 261.712 18.3093 261.114 18.636C260.517 18.9627 259.854 19.126 259.126 19.126ZM259.126 18.006C259.584 18.006 260.013 17.8987 260.414 17.684C260.816 17.4693 261.138 17.1473 261.38 16.718C261.632 16.2887 261.758 15.766 261.758 15.15C261.758 14.534 261.637 14.0113 261.394 13.582C261.152 13.1527 260.834 12.8353 260.442 12.63C260.05 12.4153 259.626 12.308 259.168 12.308C258.702 12.308 258.272 12.4153 257.88 12.63C257.498 12.8353 257.19 13.1527 256.956 13.582C256.723 14.0113 256.606 14.534 256.606 15.15C256.606 15.7753 256.718 16.3027 256.942 16.732C257.176 17.1613 257.484 17.4833 257.866 17.698C258.249 17.9033 258.669 18.006 259.126 18.006ZM268.275 12.378H266.665V19H265.391V12.378H264.397V11.328H265.391V10.782C265.391 9.92333 265.61 9.298 266.049 8.906C266.497 8.50467 267.211 8.304 268.191 8.304V9.368C267.631 9.368 267.234 9.48 267.001 9.704C266.777 9.91867 266.665 10.278 266.665 10.782V11.328H268.275V12.378ZM273.3 12.378H271.69V19H270.416V12.378H269.422V11.328H270.416V10.782C270.416 9.92333 270.635 9.298 271.074 8.906C271.522 8.50467 272.236 8.304 273.216 8.304V9.368C272.656 9.368 272.259 9.48 272.026 9.704C271.802 9.91867 271.69 10.278 271.69 10.782V11.328H273.3V12.378Z" fill="white"/>
<path d="M18.26 5.644V21H15.18V11.012L11.066 21H8.734L4.598 11.012V21H1.518V5.644H5.016L9.9 17.062L14.784 5.644H18.26ZM20.8173 14.862C20.8173 13.63 21.0593 12.5373 21.5433 11.584C22.042 10.6307 22.7093 9.89733 23.5453 9.384C24.396 8.87067 25.342 8.614 26.3833 8.614C27.2927 8.614 28.0847 8.79733 28.7593 9.164C29.4487 9.53067 29.9987 9.99267 30.4093 10.55V8.812H33.5113V21H30.4093V19.218C30.0133 19.79 29.4633 20.2667 28.7593 20.648C28.07 21.0147 27.2707 21.198 26.3613 21.198C25.3347 21.198 24.396 20.934 23.5453 20.406C22.7093 19.878 22.042 19.1373 21.5433 18.184C21.0593 17.216 20.8173 16.1087 20.8173 14.862ZM30.4093 14.906C30.4093 14.158 30.2627 13.52 29.9693 12.992C29.676 12.4493 29.28 12.0387 28.7813 11.76C28.2827 11.4667 27.7473 11.32 27.1753 11.32C26.6033 11.32 26.0753 11.4593 25.5913 11.738C25.1073 12.0167 24.7113 12.4273 24.4033 12.97C24.11 13.498 23.9633 14.1287 23.9633 14.862C23.9633 15.5953 24.11 16.2407 24.4033 16.798C24.7113 17.3407 25.1073 17.7587 25.5913 18.052C26.09 18.3453 26.618 18.492 27.1753 18.492C27.7473 18.492 28.2827 18.3527 28.7813 18.074C29.28 17.7807 29.676 17.37 29.9693 16.842C30.2627 16.2993 30.4093 15.654 30.4093 14.906ZM41.4877 21.198C40.4904 21.198 39.5957 21.022 38.8037 20.67C38.0117 20.3033 37.3811 19.812 36.9117 19.196C36.4571 18.58 36.2077 17.898 36.1637 17.15H39.2657C39.3244 17.6193 39.5517 18.008 39.9477 18.316C40.3584 18.624 40.8644 18.778 41.4657 18.778C42.0524 18.778 42.5071 18.6607 42.8297 18.426C43.1671 18.1913 43.3357 17.8907 43.3357 17.524C43.3357 17.128 43.1304 16.8347 42.7197 16.644C42.3237 16.4387 41.6857 16.2187 40.8057 15.984C39.8964 15.764 39.1484 15.5367 38.5617 15.302C37.9897 15.0673 37.4911 14.708 37.0657 14.224C36.6551 13.74 36.4497 13.0873 36.4497 12.266C36.4497 11.5913 36.6404 10.9753 37.0217 10.418C37.4177 9.86067 37.9751 9.42067 38.6937 9.098C39.4271 8.77533 40.2851 8.614 41.2677 8.614C42.7197 8.614 43.8784 8.98067 44.7437 9.714C45.6091 10.4327 46.0857 11.408 46.1737 12.64H43.2257C43.1817 12.156 42.9764 11.7747 42.6097 11.496C42.2577 11.2027 41.7811 11.056 41.1797 11.056C40.6224 11.056 40.1897 11.1587 39.8817 11.364C39.5884 11.5693 39.4417 11.8553 39.4417 12.222C39.4417 12.6327 39.6471 12.948 40.0577 13.168C40.4684 13.3733 41.1064 13.586 41.9717 13.806C42.8517 14.026 43.5777 14.2533 44.1497 14.488C44.7217 14.7227 45.2131 15.0893 45.6237 15.588C46.0491 16.072 46.2691 16.7173 46.2837 17.524C46.2837 18.228 46.0857 18.8587 45.6897 19.416C45.3084 19.9733 44.7511 20.4133 44.0177 20.736C43.2991 21.044 42.4557 21.198 41.4877 21.198ZM52.7022 11.342V17.238C52.7022 17.6487 52.7976 17.9493 52.9882 18.14C53.1936 18.316 53.5309 18.404 54.0002 18.404H55.4302V21H53.4942C50.8982 21 49.6002 19.7387 49.6002 17.216V11.342H48.1482V8.812H49.6002V5.798H52.7022V8.812H55.4302V11.342H52.7022ZM69.2797 14.642C69.2797 15.082 69.2504 15.478 69.1917 15.83H60.2817C60.3551 16.71 60.6631 17.3993 61.2057 17.898C61.7484 18.3967 62.4157 18.646 63.2077 18.646C64.3517 18.646 65.1657 18.1547 65.6497 17.172H68.9717C68.6197 18.3453 67.9451 19.3133 66.9477 20.076C65.9504 20.824 64.7257 21.198 63.2737 21.198C62.1004 21.198 61.0444 20.9413 60.1057 20.428C59.1817 19.9 58.4557 19.1593 57.9277 18.206C57.4144 17.2527 57.1577 16.1527 57.1577 14.906C57.1577 13.6447 57.4144 12.5373 57.9277 11.584C58.4411 10.6307 59.1597 9.89733 60.0837 9.384C61.0077 8.87067 62.0711 8.614 63.2737 8.614C64.4324 8.614 65.4664 8.86333 66.3757 9.362C67.2997 9.86067 68.0111 10.572 68.5097 11.496C69.0231 12.4053 69.2797 13.454 69.2797 14.642ZM66.0897 13.762C66.0751 12.97 65.7891 12.3393 65.2317 11.87C64.6744 11.386 63.9924 11.144 63.1857 11.144C62.4231 11.144 61.7777 11.3787 61.2497 11.848C60.7364 12.3027 60.4211 12.9407 60.3037 13.762H66.0897ZM74.9121 10.704C75.3081 10.0587 75.8214 9.55267 76.4521 9.186C77.0974 8.81933 77.8308 8.636 78.6521 8.636V11.87H77.8381C76.8701 11.87 76.1368 12.0973 75.6381 12.552C75.1541 13.0067 74.9121 13.7987 74.9121 14.928V21H71.8321V8.812H74.9121V10.704ZM91.4809 5.644V8.13H87.3889V21H84.3089V8.13H80.2169V5.644H91.4809ZM93.2403 14.862C93.2403 13.63 93.4823 12.5373 93.9663 11.584C94.465 10.6307 95.1323 9.89733 95.9683 9.384C96.819 8.87067 97.765 8.614 98.8063 8.614C99.7157 8.614 100.508 8.79733 101.182 9.164C101.872 9.53067 102.422 9.99267 102.832 10.55V8.812H105.934V21H102.832V19.218C102.436 19.79 101.886 20.2667 101.182 20.648C100.493 21.0147 99.6937 21.198 98.7843 21.198C97.7577 21.198 96.819 20.934 95.9683 20.406C95.1323 19.878 94.465 19.1373 93.9663 18.184C93.4823 17.216 93.2403 16.1087 93.2403 14.862ZM102.832 14.906C102.832 14.158 102.686 13.52 102.392 12.992C102.099 12.4493 101.703 12.0387 101.204 11.76C100.706 11.4667 100.17 11.32 99.5983 11.32C99.0263 11.32 98.4983 11.4593 98.0143 11.738C97.5303 12.0167 97.1343 12.4273 96.8263 12.97C96.533 13.498 96.3863 14.1287 96.3863 14.862C96.3863 15.5953 96.533 16.2407 96.8263 16.798C97.1343 17.3407 97.5303 17.7587 98.0143 18.052C98.513 18.3453 99.041 18.492 99.5983 18.492C100.17 18.492 100.706 18.3527 101.204 18.074C101.703 17.7807 102.099 17.37 102.392 16.842C102.686 16.2993 102.832 15.654 102.832 14.906ZM114.021 8.614C114.93 8.614 115.729 8.79733 116.419 9.164C117.108 9.516 117.651 9.978 118.047 10.55V8.812H121.149V21.088C121.149 22.2173 120.921 23.222 120.467 24.102C120.012 24.9967 119.33 25.7007 118.421 26.214C117.511 26.742 116.411 27.006 115.121 27.006C113.39 27.006 111.967 26.6027 110.853 25.796C109.753 24.9893 109.129 23.8893 108.983 22.496H112.041C112.202 23.0533 112.547 23.4933 113.075 23.816C113.617 24.1533 114.27 24.322 115.033 24.322C115.927 24.322 116.653 24.0507 117.211 23.508C117.768 22.98 118.047 22.1733 118.047 21.088V19.196C117.651 19.768 117.101 20.2447 116.397 20.626C115.707 21.0073 114.915 21.198 114.021 21.198C112.994 21.198 112.055 20.934 111.205 20.406C110.354 19.878 109.679 19.1373 109.181 18.184C108.697 17.216 108.455 16.1087 108.455 14.862C108.455 13.63 108.697 12.5373 109.181 11.584C109.679 10.6307 110.347 9.89733 111.183 9.384C112.033 8.87067 112.979 8.614 114.021 8.614ZM118.047 14.906C118.047 14.158 117.9 13.52 117.607 12.992C117.313 12.4493 116.917 12.0387 116.419 11.76C115.92 11.4667 115.385 11.32 114.813 11.32C114.241 11.32 113.713 11.4593 113.229 11.738C112.745 12.0167 112.349 12.4273 112.041 12.97C111.747 13.498 111.601 14.1287 111.601 14.862C111.601 15.5953 111.747 16.2407 112.041 16.798C112.349 17.3407 112.745 17.7587 113.229 18.052C113.727 18.3453 114.255 18.492 114.813 18.492C115.385 18.492 115.92 18.3527 116.419 18.074C116.917 17.7807 117.313 17.37 117.607 16.842C117.9 16.2993 118.047 15.654 118.047 14.906Z" fill="#212529"/>
<path d="M9.32 65.2V65.54H11.9V66.86H9.22C9.1 67.78 8.83333 68.5 8.42 69.02C8.02 69.54 7.43333 69.9133 6.66 70.14C5.9 70.3667 4.88667 70.48 3.62 70.48V72.06C3.62 73.86 4.40667 74.76 5.98 74.76C7.52667 74.76 8.3 73.8933 8.3 72.16H9.98C9.96667 73.4933 9.61333 74.5 8.92 75.18C8.22667 75.86 7.24 76.2 5.96 76.2C4.64 76.2 3.63333 75.8333 2.94 75.1C2.26 74.3667 1.92 73.34 1.92 72.02V69.2C3.44 69.2 4.56 69.1533 5.28 69.06C6.01333 68.9533 6.54667 68.74 6.88 68.42C7.21333 68.0867 7.42667 67.5667 7.52 66.86H1.02V65.54H7.6V65.18V63.38H1.02V62.04H11.9V63.38H9.32V65.2ZM13.7595 63.2V61.54H17.5195V76H15.6795V63.2H13.7595ZM23.13 73.48L20.89 78.86H19.67L21.13 73.48H23.13ZM27.5591 72.12C27.6924 72.88 27.9991 73.4667 28.4791 73.88C28.9724 74.2933 29.6324 74.5 30.4591 74.5C31.5657 74.5 32.3791 74.0667 32.8991 73.2C33.4324 72.3333 33.6857 70.8733 33.6591 68.82C33.3791 69.42 32.9124 69.8933 32.2591 70.24C31.6057 70.5733 30.8791 70.74 30.0791 70.74C29.1857 70.74 28.3857 70.56 27.6791 70.2C26.9857 69.8267 26.4391 69.2867 26.0391 68.58C25.6391 67.8733 25.4391 67.02 25.4391 66.02C25.4391 64.5933 25.8524 63.4467 26.6791 62.58C27.5057 61.7 28.6791 61.26 30.1991 61.26C32.0657 61.26 33.3724 61.8667 34.1191 63.08C34.8791 64.2933 35.2591 66.1 35.2591 68.5C35.2591 70.18 35.1057 71.5667 34.7991 72.66C34.5057 73.7533 33.9991 74.5867 33.2791 75.16C32.5724 75.7333 31.5991 76.02 30.3591 76.02C28.9991 76.02 27.9391 75.6533 27.1791 74.92C26.4191 74.1867 25.9857 73.2533 25.8791 72.12H27.5591ZM30.3791 69.2C31.2724 69.2 32.0057 68.9267 32.5791 68.38C33.1524 67.82 33.4391 67.0667 33.4391 66.12C33.4391 65.12 33.1591 64.3133 32.5991 63.7C32.0391 63.0867 31.2524 62.78 30.2391 62.78C29.3057 62.78 28.5591 63.0733 27.9991 63.66C27.4524 64.2467 27.1791 65.02 27.1791 65.98C27.1791 66.9533 27.4524 67.7333 27.9991 68.32C28.5457 68.9067 29.3391 69.2 30.3791 69.2ZM40.461 72.12C40.5943 72.88 40.901 73.4667 41.381 73.88C41.8743 74.2933 42.5343 74.5 43.361 74.5C44.4676 74.5 45.281 74.0667 45.801 73.2C46.3343 72.3333 46.5876 70.8733 46.561 68.82C46.281 69.42 45.8143 69.8933 45.161 70.24C44.5076 70.5733 43.781 70.74 42.981 70.74C42.0876 70.74 41.2876 70.56 40.581 70.2C39.8876 69.8267 39.341 69.2867 38.941 68.58C38.541 67.8733 38.341 67.02 38.341 66.02C38.341 64.5933 38.7543 63.4467 39.581 62.58C40.4076 61.7 41.581 61.26 43.101 61.26C44.9676 61.26 46.2743 61.8667 47.021 63.08C47.781 64.2933 48.161 66.1 48.161 68.5C48.161 70.18 48.0076 71.5667 47.701 72.66C47.4076 73.7533 46.901 74.5867 46.181 75.16C45.4743 75.7333 44.501 76.02 43.261 76.02C41.901 76.02 40.841 75.6533 40.081 74.92C39.321 74.1867 38.8876 73.2533 38.781 72.12H40.461ZM43.281 69.2C44.1743 69.2 44.9076 68.9267 45.481 68.38C46.0543 67.82 46.341 67.0667 46.341 66.12C46.341 65.12 46.061 64.3133 45.501 63.7C44.941 63.0867 44.1543 62.78 43.141 62.78C42.2076 62.78 41.461 63.0733 40.901 63.66C40.3543 64.2467 40.081 65.02 40.081 65.98C40.081 66.9533 40.3543 67.7333 40.901 68.32C41.4476 68.9067 42.241 69.2 43.281 69.2ZM53.3628 72.12C53.4962 72.88 53.8028 73.4667 54.2828 73.88C54.7762 74.2933 55.4362 74.5 56.2628 74.5C57.3695 74.5 58.1828 74.0667 58.7028 73.2C59.2362 72.3333 59.4895 70.8733 59.4628 68.82C59.1828 69.42 58.7162 69.8933 58.0628 70.24C57.4095 70.5733 56.6828 70.74 55.8828 70.74C54.9895 70.74 54.1895 70.56 53.4828 70.2C52.7895 69.8267 52.2428 69.2867 51.8428 68.58C51.4428 67.8733 51.2428 67.02 51.2428 66.02C51.2428 64.5933 51.6562 63.4467 52.4828 62.58C53.3095 61.7 54.4828 61.26 56.0028 61.26C57.8695 61.26 59.1762 61.8667 59.9228 63.08C60.6828 64.2933 61.0628 66.1 61.0628 68.5C61.0628 70.18 60.9095 71.5667 60.6028 72.66C60.3095 73.7533 59.8028 74.5867 59.0828 75.16C58.3762 75.7333 57.4028 76.02 56.1628 76.02C54.8028 76.02 53.7428 75.6533 52.9828 74.92C52.2228 74.1867 51.7895 73.2533 51.6828 72.12H53.3628ZM56.1828 69.2C57.0762 69.2 57.8095 68.9267 58.3828 68.38C58.9562 67.82 59.2428 67.0667 59.2428 66.12C59.2428 65.12 58.9628 64.3133 58.4028 63.7C57.8428 63.0867 57.0562 62.78 56.0428 62.78C55.1095 62.78 54.3628 63.0733 53.8028 63.66C53.2562 64.2467 52.9828 65.02 52.9828 65.98C52.9828 66.9533 53.2562 67.7333 53.8028 68.32C54.3495 68.9067 55.1428 69.2 56.1828 69.2ZM64.8047 76.12C64.4581 76.12 64.1647 76 63.9247 75.76C63.6847 75.52 63.5647 75.2267 63.5647 74.88C63.5647 74.5333 63.6847 74.24 63.9247 74C64.1647 73.76 64.4581 73.64 64.8047 73.64C65.1381 73.64 65.4181 73.76 65.6447 74C65.8847 74.24 66.0047 74.5333 66.0047 74.88C66.0047 75.2267 65.8847 75.52 65.6447 75.76C65.4181 76 65.1381 76.12 64.8047 76.12ZM68.4282 68.62C68.4282 66.3267 68.8015 64.54 69.5482 63.26C70.2948 61.9667 71.6015 61.32 73.4682 61.32C75.3215 61.32 76.6215 61.9667 77.3682 63.26C78.1148 64.54 78.4882 66.3267 78.4882 68.62C78.4882 70.9533 78.1148 72.7667 77.3682 74.06C76.6215 75.3533 75.3215 76 73.4682 76C71.6015 76 70.2948 75.3533 69.5482 74.06C68.8015 72.7667 68.4282 70.9533 68.4282 68.62ZM76.6882 68.62C76.6882 67.46 76.6082 66.48 76.4482 65.68C76.3015 64.8667 75.9882 64.2133 75.5082 63.72C75.0415 63.2267 74.3615 62.98 73.4682 62.98C72.5615 62.98 71.8682 63.2267 71.3882 63.72C70.9215 64.2133 70.6082 64.8667 70.4482 65.68C70.3015 66.48 70.2282 67.46 70.2282 68.62C70.2282 69.82 70.3015 70.8267 70.4482 71.64C70.6082 72.4533 70.9215 73.1067 71.3882 73.6C71.8682 74.0933 72.5615 74.34 73.4682 74.34C74.3615 74.34 75.0415 74.0933 75.5082 73.6C75.9882 73.1067 76.3015 72.4533 76.4482 71.64C76.6082 70.8267 76.6882 69.82 76.6882 68.62ZM81.291 68.62C81.291 66.3267 81.6643 64.54 82.411 63.26C83.1577 61.9667 84.4643 61.32 86.331 61.32C88.1843 61.32 89.4843 61.9667 90.231 63.26C90.9777 64.54 91.351 66.3267 91.351 68.62C91.351 70.9533 90.9777 72.7667 90.231 74.06C89.4843 75.3533 88.1843 76 86.331 76C84.4643 76 83.1577 75.3533 82.411 74.06C81.6643 72.7667 81.291 70.9533 81.291 68.62ZM89.551 68.62C89.551 67.46 89.471 66.48 89.311 65.68C89.1643 64.8667 88.851 64.2133 88.371 63.72C87.9043 63.2267 87.2243 62.98 86.331 62.98C85.4243 62.98 84.731 63.2267 84.251 63.72C83.7843 64.2133 83.471 64.8667 83.311 65.68C83.1643 66.48 83.091 67.46 83.091 68.62C83.091 69.82 83.1643 70.8267 83.311 71.64C83.471 72.4533 83.7843 73.1067 84.251 73.6C84.731 74.0933 85.4243 74.34 86.331 74.34C87.2243 74.34 87.9043 74.0933 88.371 73.6C88.851 73.1067 89.1643 72.4533 89.311 71.64C89.471 70.8267 89.551 69.82 89.551 68.62Z" fill="#DB3022"/>
<path d="M103.665 76.79C102.705 75.85 101.955 74.655 101.415 73.205C100.885 71.755 100.62 70.19 100.62 68.51C100.62 66.79 100.9 65.185 101.46 63.695C102.03 62.195 102.84 60.96 103.89 59.99H105.315V60.125C104.195 61.175 103.35 62.44 102.78 63.92C102.22 65.39 101.94 66.92 101.94 68.51C101.94 70.06 102.205 71.54 102.735 72.95C103.275 74.36 104.06 75.595 105.09 76.655V76.79H103.665ZM113.106 65.9V66.155H115.041V67.145H113.031C112.941 67.835 112.741 68.375 112.431 68.765C112.131 69.155 111.691 69.435 111.111 69.605C110.541 69.775 109.781 69.86 108.831 69.86V71.045C108.831 72.395 109.421 73.07 110.601 73.07C111.761 73.07 112.341 72.42 112.341 71.12H113.601C113.591 72.12 113.326 72.875 112.806 73.385C112.286 73.895 111.546 74.15 110.586 74.15C109.596 74.15 108.841 73.875 108.321 73.325C107.811 72.775 107.556 72.005 107.556 71.015V68.9C108.696 68.9 109.536 68.865 110.076 68.795C110.626 68.715 111.026 68.555 111.276 68.315C111.526 68.065 111.686 67.675 111.756 67.145H106.881V66.155H111.816V65.885V64.535H106.881V63.53H115.041V64.535H113.106V65.9ZM116.541 71.585V70.55L121.806 63.26H123.441V70.4H124.941V71.585H123.441V74H122.091V71.585H116.541ZM122.151 64.685L118.116 70.4H122.151V64.685ZM128.244 72.11L126.564 76.145H125.649L126.744 72.11H128.244ZM131.642 71.09C131.742 71.66 131.972 72.1 132.332 72.41C132.702 72.72 133.197 72.875 133.817 72.875C134.647 72.875 135.257 72.55 135.647 71.9C136.047 71.25 136.237 70.155 136.217 68.615C136.007 69.065 135.657 69.42 135.167 69.68C134.677 69.93 134.132 70.055 133.532 70.055C132.862 70.055 132.262 69.92 131.732 69.65C131.212 69.37 130.802 68.965 130.502 68.435C130.202 67.905 130.052 67.265 130.052 66.515C130.052 65.445 130.362 64.585 130.982 63.935C131.602 63.275 132.482 62.945 133.622 62.945C135.022 62.945 136.002 63.4 136.562 64.31C137.132 65.22 137.417 66.575 137.417 68.375C137.417 69.635 137.302 70.675 137.072 71.495C136.852 72.315 136.472 72.94 135.932 73.37C135.402 73.8 134.672 74.015 133.742 74.015C132.722 74.015 131.927 73.74 131.357 73.19C130.787 72.64 130.462 71.94 130.382 71.09H131.642ZM133.757 68.9C134.427 68.9 134.977 68.695 135.407 68.285C135.837 67.865 136.052 67.3 136.052 66.59C136.052 65.84 135.842 65.235 135.422 64.775C135.002 64.315 134.412 64.085 133.652 64.085C132.952 64.085 132.392 64.305 131.972 64.745C131.562 65.185 131.357 65.765 131.357 66.485C131.357 67.215 131.562 67.8 131.972 68.24C132.382 68.68 132.977 68.9 133.757 68.9ZM141.395 71.09C141.495 71.66 141.725 72.1 142.085 72.41C142.455 72.72 142.95 72.875 143.57 72.875C144.4 72.875 145.01 72.55 145.4 71.9C145.8 71.25 145.99 70.155 145.97 68.615C145.76 69.065 145.41 69.42 144.92 69.68C144.43 69.93 143.885 70.055 143.285 70.055C142.615 70.055 142.015 69.92 141.485 69.65C140.965 69.37 140.555 68.965 140.255 68.435C139.955 67.905 139.805 67.265 139.805 66.515C139.805 65.445 140.115 64.585 140.735 63.935C141.355 63.275 142.235 62.945 143.375 62.945C144.775 62.945 145.755 63.4 146.315 64.31C146.885 65.22 147.17 66.575 147.17 68.375C147.17 69.635 147.055 70.675 146.825 71.495C146.605 72.315 146.225 72.94 145.685 73.37C145.155 73.8 144.425 74.015 143.495 74.015C142.475 74.015 141.68 73.74 141.11 73.19C140.54 72.64 140.215 71.94 140.135 71.09H141.395ZM143.51 68.9C144.18 68.9 144.73 68.695 145.16 68.285C145.59 67.865 145.805 67.3 145.805 66.59C145.805 65.84 145.595 65.235 145.175 64.775C144.755 64.315 144.165 64.085 143.405 64.085C142.705 64.085 142.145 64.305 141.725 64.745C141.315 65.185 141.11 65.765 141.11 66.485C141.11 67.215 141.315 67.8 141.725 68.24C142.135 68.68 142.73 68.9 143.51 68.9ZM151.147 71.09C151.247 71.66 151.477 72.1 151.837 72.41C152.207 72.72 152.702 72.875 153.322 72.875C154.152 72.875 154.762 72.55 155.152 71.9C155.552 71.25 155.742 70.155 155.722 68.615C155.512 69.065 155.162 69.42 154.672 69.68C154.182 69.93 153.637 70.055 153.037 70.055C152.367 70.055 151.767 69.92 151.237 69.65C150.717 69.37 150.307 68.965 150.007 68.435C149.707 67.905 149.557 67.265 149.557 66.515C149.557 65.445 149.867 64.585 150.487 63.935C151.107 63.275 151.987 62.945 153.127 62.945C154.527 62.945 155.507 63.4 156.067 64.31C156.637 65.22 156.922 66.575 156.922 68.375C156.922 69.635 156.807 70.675 156.577 71.495C156.357 72.315 155.977 72.94 155.437 73.37C154.907 73.8 154.177 74.015 153.247 74.015C152.227 74.015 151.432 73.74 150.862 73.19C150.292 72.64 149.967 71.94 149.887 71.09H151.147ZM153.262 68.9C153.932 68.9 154.482 68.695 154.912 68.285C155.342 67.865 155.557 67.3 155.557 66.59C155.557 65.84 155.347 65.235 154.927 64.775C154.507 64.315 153.917 64.085 153.157 64.085C152.457 64.085 151.897 64.305 151.477 64.745C151.067 65.185 150.862 65.765 150.862 66.485C150.862 67.215 151.067 67.8 151.477 68.24C151.887 68.68 152.482 68.9 153.262 68.9ZM159.805 74.09C159.545 74.09 159.325 74 159.145 73.82C158.965 73.64 158.875 73.42 158.875 73.16C158.875 72.9 158.965 72.68 159.145 72.5C159.325 72.32 159.545 72.23 159.805 72.23C160.055 72.23 160.265 72.32 160.435 72.5C160.615 72.68 160.705 72.9 160.705 73.16C160.705 73.42 160.615 73.64 160.435 73.82C160.265 74 160.055 74.09 159.805 74.09ZM162.598 68.465C162.598 66.745 162.878 65.405 163.438 64.445C163.998 63.475 164.978 62.99 166.378 62.99C167.768 62.99 168.743 63.475 169.303 64.445C169.863 65.405 170.143 66.745 170.143 68.465C170.143 70.215 169.863 71.575 169.303 72.545C168.743 73.515 167.768 74 166.378 74C164.978 74 163.998 73.515 163.438 72.545C162.878 71.575 162.598 70.215 162.598 68.465ZM168.793 68.465C168.793 67.595 168.733 66.86 168.613 66.26C168.503 65.65 168.268 65.16 167.908 64.79C167.558 64.42 167.048 64.235 166.378 64.235C165.698 64.235 165.178 64.42 164.818 64.79C164.468 65.16 164.233 65.65 164.113 66.26C164.003 66.86 163.948 67.595 163.948 68.465C163.948 69.365 164.003 70.12 164.113 70.73C164.233 71.34 164.468 71.83 164.818 72.2C165.178 72.57 165.698 72.755 166.378 72.755C167.048 72.755 167.558 72.57 167.908 72.2C168.268 71.83 168.503 71.34 168.613 70.73C168.733 70.12 168.793 69.365 168.793 68.465ZM172.321 68.465C172.321 66.745 172.601 65.405 173.161 64.445C173.721 63.475 174.701 62.99 176.101 62.99C177.491 62.99 178.466 63.475 179.026 64.445C179.586 65.405 179.866 66.745 179.866 68.465C179.866 70.215 179.586 71.575 179.026 72.545C178.466 73.515 177.491 74 176.101 74C174.701 74 173.721 73.515 173.161 72.545C172.601 71.575 172.321 70.215 172.321 68.465ZM178.516 68.465C178.516 67.595 178.456 66.86 178.336 66.26C178.226 65.65 177.991 65.16 177.631 64.79C177.281 64.42 176.771 64.235 176.101 64.235C175.421 64.235 174.901 64.42 174.541 64.79C174.191 65.16 173.956 65.65 173.836 66.26C173.726 66.86 173.671 67.595 173.671 68.465C173.671 69.365 173.726 70.12 173.836 70.73C173.956 71.34 174.191 71.83 174.541 72.2C174.901 72.57 175.421 72.755 176.101 72.755C176.771 72.755 177.281 72.57 177.631 72.2C177.991 71.83 178.226 71.34 178.336 70.73C178.456 70.12 178.516 69.365 178.516 68.465ZM181.835 76.79V76.655C182.865 75.595 183.645 74.36 184.175 72.95C184.715 71.54 184.985 70.06 184.985 68.51C184.985 66.92 184.7 65.39 184.13 63.92C183.57 62.44 182.73 61.175 181.61 60.125V59.99H183.035C184.085 60.96 184.89 62.195 185.45 63.695C186.02 65.185 186.305 66.79 186.305 68.51C186.305 70.19 186.035 71.755 185.495 73.205C184.965 74.655 184.22 75.85 183.26 76.79H181.835Z" fill="#5B5B5B"/>
<path d="M106.116 69.08H181.116V69.83H106.116V69.08Z" fill="#5B5B5B"/>
<path d="M2.184 87.939V97H1.001V87.939H2.184ZM7.67122 89.746C8.53789 89.746 9.23989 90.0103 9.77722 90.539C10.3146 91.059 10.5832 91.813 10.5832 92.801V97H9.41322V92.97C9.41322 92.2593 9.23555 91.7177 8.88022 91.345C8.52489 90.9637 8.03955 90.773 7.42422 90.773C6.80022 90.773 6.30189 90.968 5.92922 91.358C5.56522 91.748 5.38322 92.3157 5.38322 93.061V97H4.20022V89.876H5.38322V90.89C5.61722 90.526 5.93355 90.2443 6.33222 90.045C6.73955 89.8457 7.18589 89.746 7.67122 89.746ZM12.0736 93.425C12.0736 92.6883 12.221 92.047 12.5156 91.501C12.8103 90.9463 13.2176 90.5173 13.7376 90.214C14.2663 89.9107 14.8686 89.759 15.5446 89.759C16.42 89.759 17.1393 89.9713 17.7026 90.396C18.2746 90.8207 18.6516 91.41 18.8336 92.164H17.5596C17.4383 91.7307 17.2 91.3883 16.8446 91.137C16.498 90.8857 16.0646 90.76 15.5446 90.76C14.8686 90.76 14.3226 90.994 13.9066 91.462C13.4906 91.9213 13.2826 92.5757 13.2826 93.425C13.2826 94.283 13.4906 94.946 13.9066 95.414C14.3226 95.882 14.8686 96.116 15.5446 96.116C16.0646 96.116 16.498 95.9947 16.8446 95.752C17.1913 95.5093 17.4296 95.1627 17.5596 94.712H18.8336C18.643 95.44 18.2616 96.025 17.6896 96.467C17.1176 96.9003 16.4026 97.117 15.5446 97.117C14.8686 97.117 14.2663 96.9653 13.7376 96.662C13.2176 96.3587 12.8103 95.9297 12.5156 95.375C12.221 94.8203 12.0736 94.1703 12.0736 93.425ZM21.5951 87.38V97H20.4121V87.38H21.5951ZM29.9294 89.876V97H28.7464V95.947C28.521 96.311 28.2047 96.597 27.7974 96.805C27.3987 97.0043 26.9567 97.104 26.4714 97.104C25.9167 97.104 25.4184 96.9913 24.9764 96.766C24.5344 96.532 24.1834 96.1853 23.9234 95.726C23.672 95.2667 23.5464 94.7077 23.5464 94.049V89.876H24.7164V93.893C24.7164 94.595 24.894 95.1367 25.2494 95.518C25.6047 95.8907 26.09 96.077 26.7054 96.077C27.338 96.077 27.8364 95.882 28.2004 95.492C28.5644 95.102 28.7464 94.5343 28.7464 93.789V89.876H29.9294ZM31.4848 93.412C31.4848 92.684 31.6321 92.047 31.9268 91.501C32.2214 90.9463 32.6244 90.5173 33.1358 90.214C33.6558 89.9107 34.2364 89.759 34.8778 89.759C35.4324 89.759 35.9481 89.889 36.4248 90.149C36.9014 90.4003 37.2654 90.734 37.5168 91.15V87.38H38.7128V97H37.5168V95.661C37.2828 96.0857 36.9361 96.4367 36.4768 96.714C36.0174 96.9827 35.4801 97.117 34.8648 97.117C34.2321 97.117 33.6558 96.961 33.1358 96.649C32.6244 96.337 32.2214 95.8993 31.9268 95.336C31.6321 94.7727 31.4848 94.1313 31.4848 93.412ZM37.5168 93.425C37.5168 92.8877 37.4084 92.4197 37.1918 92.021C36.9751 91.6223 36.6804 91.319 36.3078 91.111C35.9438 90.8943 35.5408 90.786 35.0988 90.786C34.6568 90.786 34.2538 90.89 33.8898 91.098C33.5258 91.306 33.2354 91.6093 33.0188 92.008C32.8021 92.4067 32.6938 92.8747 32.6938 93.412C32.6938 93.958 32.8021 94.4347 33.0188 94.842C33.2354 95.2407 33.5258 95.5483 33.8898 95.765C34.2538 95.973 34.6568 96.077 35.0988 96.077C35.5408 96.077 35.9438 95.973 36.3078 95.765C36.6804 95.5483 36.9751 95.2407 37.1918 94.842C37.4084 94.4347 37.5168 93.9623 37.5168 93.425ZM47.2119 93.165C47.2119 93.3903 47.1989 93.6287 47.1729 93.88H41.4789C41.5223 94.582 41.7606 95.1323 42.1939 95.531C42.6359 95.921 43.1689 96.116 43.7929 96.116C44.3043 96.116 44.7289 95.999 45.0669 95.765C45.4136 95.5223 45.6563 95.2017 45.7949 94.803H47.0689C46.8783 95.4877 46.4969 96.0467 45.9249 96.48C45.3529 96.9047 44.6423 97.117 43.7929 97.117C43.1169 97.117 42.5103 96.9653 41.9729 96.662C41.4443 96.3587 41.0283 95.9297 40.7249 95.375C40.4216 94.8117 40.2699 94.1617 40.2699 93.425C40.2699 92.6883 40.4173 92.0427 40.7119 91.488C41.0066 90.9333 41.4183 90.5087 41.9469 90.214C42.4843 89.9107 43.0996 89.759 43.7929 89.759C44.4689 89.759 45.0669 89.9063 45.5869 90.201C46.1069 90.4957 46.5056 90.903 46.7829 91.423C47.0689 91.9343 47.2119 92.515 47.2119 93.165ZM45.9899 92.918C45.9899 92.4673 45.8903 92.0817 45.6909 91.761C45.4916 91.4317 45.2186 91.1847 44.8719 91.02C44.5339 90.8467 44.1569 90.76 43.7409 90.76C43.1429 90.76 42.6316 90.9507 42.2069 91.332C41.7909 91.7133 41.5526 92.242 41.4919 92.918H45.9899ZM51.2955 97.117C50.7495 97.117 50.2598 97.026 49.8265 96.844C49.3931 96.6533 49.0508 96.3933 48.7995 96.064C48.5481 95.726 48.4095 95.3403 48.3835 94.907H49.6055C49.6401 95.2623 49.8048 95.5527 50.0995 95.778C50.4028 96.0033 50.7971 96.116 51.2825 96.116C51.7331 96.116 52.0885 96.0163 52.3485 95.817C52.6085 95.6177 52.7385 95.3663 52.7385 95.063C52.7385 94.751 52.5998 94.5213 52.3225 94.374C52.0451 94.218 51.6161 94.0663 51.0355 93.919C50.5068 93.7803 50.0735 93.6417 49.7355 93.503C49.4061 93.3557 49.1201 93.1433 48.8775 92.866C48.6435 92.58 48.5265 92.2073 48.5265 91.748C48.5265 91.384 48.6348 91.0503 48.8515 90.747C49.0681 90.4437 49.3758 90.2053 49.7745 90.032C50.1731 89.85 50.6281 89.759 51.1395 89.759C51.9281 89.759 52.5651 89.9583 53.0505 90.357C53.5358 90.7557 53.7958 91.3017 53.8305 91.995H52.6475C52.6215 91.6223 52.4698 91.3233 52.1925 91.098C51.9238 90.8727 51.5598 90.76 51.1005 90.76C50.6758 90.76 50.3378 90.851 50.0865 91.033C49.8351 91.215 49.7095 91.4533 49.7095 91.748C49.7095 91.982 49.7831 92.177 49.9305 92.333C50.0865 92.4803 50.2771 92.6017 50.5025 92.697C50.7365 92.7837 51.0571 92.8833 51.4645 92.996C51.9758 93.1347 52.3918 93.2733 52.7125 93.412C53.0331 93.542 53.3061 93.7413 53.5315 94.01C53.7655 94.2787 53.8868 94.6297 53.8955 95.063C53.8955 95.453 53.7871 95.804 53.5705 96.116C53.3538 96.428 53.0461 96.675 52.6475 96.857C52.2575 97.0303 51.8068 97.117 51.2955 97.117ZM64.1533 87.939V88.901H60.2143V91.956H63.4123V92.918H60.2143V97H59.0313V87.939H64.1533ZM70.3531 97L68.1951 93.295H66.7651V97H65.5821V87.939H68.5071C69.1917 87.939 69.7681 88.056 70.2361 88.29C70.7127 88.524 71.0681 88.8403 71.3021 89.239C71.5361 89.6377 71.6531 90.0927 71.6531 90.604C71.6531 91.228 71.4711 91.7783 71.1071 92.255C70.7517 92.7317 70.2144 93.048 69.4951 93.204L71.7701 97H70.3531ZM66.7651 92.346H68.5071C69.1484 92.346 69.6294 92.19 69.9501 91.878C70.2707 91.5573 70.4311 91.1327 70.4311 90.604C70.4311 90.0667 70.2707 89.6507 69.9501 89.356C69.6381 89.0613 69.1571 88.914 68.5071 88.914H66.7651V92.346ZM74.6742 88.901V91.93H77.9762V92.905H74.6742V96.025H78.3662V97H73.4912V87.926H78.3662V88.901H74.6742ZM81.3393 88.901V91.93H84.6413V92.905H81.3393V96.025H85.0313V97H80.1563V87.926H85.0313V88.901H81.3393ZM89.8451 92.463C89.8451 91.579 90.0445 90.786 90.4431 90.084C90.8418 89.3733 91.3835 88.8187 92.0681 88.42C92.7615 88.0213 93.5285 87.822 94.3691 87.822C95.3571 87.822 96.2195 88.0603 96.9561 88.537C97.6928 89.0137 98.2301 89.6897 98.5681 90.565H97.1511C96.8998 90.019 96.5358 89.5987 96.0591 89.304C95.5911 89.0093 95.0278 88.862 94.3691 88.862C93.7365 88.862 93.1688 89.0093 92.6661 89.304C92.1635 89.5987 91.7691 90.019 91.4831 90.565C91.1971 91.1023 91.0541 91.735 91.0541 92.463C91.0541 93.1823 91.1971 93.815 91.4831 94.361C91.7691 94.8983 92.1635 95.3143 92.6661 95.609C93.1688 95.9037 93.7365 96.051 94.3691 96.051C95.0278 96.051 95.5911 95.908 96.0591 95.622C96.5358 95.3273 96.8998 94.907 97.1511 94.361H98.5681C98.2301 95.2277 97.6928 95.8993 96.9561 96.376C96.2195 96.844 95.3571 97.078 94.3691 97.078C93.5285 97.078 92.7615 96.883 92.0681 96.493C91.3835 96.0943 90.8418 95.544 90.4431 94.842C90.0445 94.14 89.8451 93.347 89.8451 92.463ZM103.865 89.746C104.402 89.746 104.888 89.863 105.321 90.097C105.754 90.3223 106.092 90.6647 106.335 91.124C106.586 91.5833 106.712 92.1423 106.712 92.801V97H105.542V92.97C105.542 92.2593 105.364 91.7177 105.009 91.345C104.654 90.9637 104.168 90.773 103.553 90.773C102.929 90.773 102.431 90.968 102.058 91.358C101.694 91.748 101.512 92.3157 101.512 93.061V97H100.329V87.38H101.512V90.89C101.746 90.526 102.067 90.2443 102.474 90.045C102.89 89.8457 103.354 89.746 103.865 89.746ZM108.203 93.412C108.203 92.684 108.35 92.047 108.645 91.501C108.939 90.9463 109.342 90.5173 109.854 90.214C110.374 89.9107 110.95 89.759 111.583 89.759C112.207 89.759 112.748 89.8933 113.208 90.162C113.667 90.4307 114.009 90.7687 114.235 91.176V89.876H115.431V97H114.235V95.674C114.001 96.09 113.65 96.4367 113.182 96.714C112.722 96.9827 112.185 97.117 111.57 97.117C110.937 97.117 110.365 96.961 109.854 96.649C109.342 96.337 108.939 95.8993 108.645 95.336C108.35 94.7727 108.203 94.1313 108.203 93.412ZM114.235 93.425C114.235 92.8877 114.126 92.4197 113.91 92.021C113.693 91.6223 113.398 91.319 113.026 91.111C112.662 90.8943 112.259 90.786 111.817 90.786C111.375 90.786 110.972 90.89 110.608 91.098C110.244 91.306 109.953 91.6093 109.737 92.008C109.52 92.4067 109.412 92.8747 109.412 93.412C109.412 93.958 109.52 94.4347 109.737 94.842C109.953 95.2407 110.244 95.5483 110.608 95.765C110.972 95.973 111.375 96.077 111.817 96.077C112.259 96.077 112.662 95.973 113.026 95.765C113.398 95.5483 113.693 95.2407 113.91 94.842C114.126 94.4347 114.235 93.9623 114.235 93.425ZM118.613 91.033C118.821 90.6257 119.115 90.3093 119.497 90.084C119.887 89.8587 120.359 89.746 120.914 89.746V90.968H120.602C119.276 90.968 118.613 91.6873 118.613 93.126V97H117.43V89.876H118.613V91.033ZM125.217 89.759C125.833 89.759 126.37 89.8933 126.829 90.162C127.297 90.4307 127.644 90.7687 127.869 91.176V89.876H129.065V97.156C129.065 97.806 128.927 98.3823 128.649 98.885C128.372 99.3963 127.973 99.795 127.453 100.081C126.942 100.367 126.344 100.51 125.659 100.51C124.723 100.51 123.943 100.289 123.319 99.847C122.695 99.405 122.327 98.8027 122.214 98.04H123.384C123.514 98.4733 123.783 98.82 124.19 99.08C124.598 99.3487 125.087 99.483 125.659 99.483C126.309 99.483 126.838 99.2793 127.245 98.872C127.661 98.4647 127.869 97.8927 127.869 97.156V95.661C127.635 96.077 127.289 96.4237 126.829 96.701C126.37 96.9783 125.833 97.117 125.217 97.117C124.585 97.117 124.008 96.961 123.488 96.649C122.977 96.337 122.574 95.8993 122.279 95.336C121.985 94.7727 121.837 94.1313 121.837 93.412C121.837 92.684 121.985 92.047 122.279 91.501C122.574 90.9463 122.977 90.5173 123.488 90.214C124.008 89.9107 124.585 89.759 125.217 89.759ZM127.869 93.425C127.869 92.8877 127.761 92.4197 127.544 92.021C127.328 91.6223 127.033 91.319 126.66 91.111C126.296 90.8943 125.893 90.786 125.451 90.786C125.009 90.786 124.606 90.89 124.242 91.098C123.878 91.306 123.588 91.6093 123.371 92.008C123.155 92.4067 123.046 92.8747 123.046 93.412C123.046 93.958 123.155 94.4347 123.371 94.842C123.588 95.2407 123.878 95.5483 124.242 95.765C124.606 95.973 125.009 96.077 125.451 96.077C125.893 96.077 126.296 95.973 126.66 95.765C127.033 95.5483 127.328 95.2407 127.544 94.842C127.761 94.4347 127.869 93.9623 127.869 93.425ZM131.675 88.719C131.45 88.719 131.259 88.641 131.103 88.485C130.947 88.329 130.869 88.1383 130.869 87.913C130.869 87.6877 130.947 87.497 131.103 87.341C131.259 87.185 131.45 87.107 131.675 87.107C131.892 87.107 132.074 87.185 132.221 87.341C132.377 87.497 132.455 87.6877 132.455 87.913C132.455 88.1383 132.377 88.329 132.221 88.485C132.074 88.641 131.892 88.719 131.675 88.719ZM132.247 89.876V97H131.064V89.876H132.247ZM137.735 89.746C138.601 89.746 139.303 90.0103 139.841 90.539C140.378 91.059 140.647 91.813 140.647 92.801V97H139.477V92.97C139.477 92.2593 139.299 91.7177 138.944 91.345C138.588 90.9637 138.103 90.773 137.488 90.773C136.864 90.773 136.365 90.968 135.993 91.358C135.629 91.748 135.447 92.3157 135.447 93.061V97H134.264V89.876H135.447V90.89C135.681 90.526 135.997 90.2443 136.396 90.045C136.803 89.8457 137.249 89.746 137.735 89.746ZM145.517 89.759C146.132 89.759 146.67 89.8933 147.129 90.162C147.597 90.4307 147.944 90.7687 148.169 91.176V89.876H149.365V97.156C149.365 97.806 149.226 98.3823 148.949 98.885C148.672 99.3963 148.273 99.795 147.753 100.081C147.242 100.367 146.644 100.51 145.959 100.51C145.023 100.51 144.243 100.289 143.619 99.847C142.995 99.405 142.627 98.8027 142.514 98.04H143.684C143.814 98.4733 144.083 98.82 144.49 99.08C144.897 99.3487 145.387 99.483 145.959 99.483C146.609 99.483 147.138 99.2793 147.545 98.872C147.961 98.4647 148.169 97.8927 148.169 97.156V95.661C147.935 96.077 147.588 96.4237 147.129 96.701C146.67 96.9783 146.132 97.117 145.517 97.117C144.884 97.117 144.308 96.961 143.788 96.649C143.277 96.337 142.874 95.8993 142.579 95.336C142.284 94.7727 142.137 94.1313 142.137 93.412C142.137 92.684 142.284 92.047 142.579 91.501C142.874 90.9463 143.277 90.5173 143.788 90.214C144.308 89.9107 144.884 89.759 145.517 89.759ZM148.169 93.425C148.169 92.8877 148.061 92.4197 147.844 92.021C147.627 91.6223 147.333 91.319 146.96 91.111C146.596 90.8943 146.193 90.786 145.751 90.786C145.309 90.786 144.906 90.89 144.542 91.098C144.178 91.306 143.888 91.6093 143.671 92.008C143.454 92.4067 143.346 92.8747 143.346 93.412C143.346 93.958 143.454 94.4347 143.671 94.842C143.888 95.2407 144.178 95.5483 144.542 95.765C144.906 95.973 145.309 96.077 145.751 96.077C146.193 96.077 146.596 95.973 146.96 95.765C147.333 95.5483 147.627 95.2407 147.844 94.842C148.061 94.4347 148.169 93.9623 148.169 93.425ZM154.388 92.463C154.388 91.579 154.587 90.786 154.986 90.084C155.385 89.3733 155.926 88.8187 156.611 88.42C157.304 88.0213 158.071 87.822 158.912 87.822C159.9 87.822 160.762 88.0603 161.499 88.537C162.236 89.0137 162.773 89.6897 163.111 90.565H161.694C161.443 90.019 161.079 89.5987 160.602 89.304C160.134 89.0093 159.571 88.862 158.912 88.862C158.279 88.862 157.712 89.0093 157.209 89.304C156.706 89.5987 156.312 90.019 156.026 90.565C155.74 91.1023 155.597 91.735 155.597 92.463C155.597 93.1823 155.74 93.815 156.026 94.361C156.312 94.8983 156.706 95.3143 157.209 95.609C157.712 95.9037 158.279 96.051 158.912 96.051C159.571 96.051 160.134 95.908 160.602 95.622C161.079 95.3273 161.443 94.907 161.694 94.361H163.111C162.773 95.2277 162.236 95.8993 161.499 96.376C160.762 96.844 159.9 97.078 158.912 97.078C158.071 97.078 157.304 96.883 156.611 96.493C155.926 96.0943 155.385 95.544 154.986 94.842C154.587 94.14 154.388 93.347 154.388 92.463ZM164.43 93.412C164.43 92.684 164.577 92.047 164.872 91.501C165.167 90.9463 165.57 90.5173 166.081 90.214C166.601 89.9107 167.177 89.759 167.81 89.759C168.434 89.759 168.976 89.8933 169.435 90.162C169.894 90.4307 170.237 90.7687 170.462 91.176V89.876H171.658V97H170.462V95.674C170.228 96.09 169.877 96.4367 169.409 96.714C168.95 96.9827 168.412 97.117 167.797 97.117C167.164 97.117 166.592 96.961 166.081 96.649C165.57 96.337 165.167 95.8993 164.872 95.336C164.577 94.7727 164.43 94.1313 164.43 93.412ZM170.462 93.425C170.462 92.8877 170.354 92.4197 170.137 92.021C169.92 91.6223 169.626 91.319 169.253 91.111C168.889 90.8943 168.486 90.786 168.044 90.786C167.602 90.786 167.199 90.89 166.835 91.098C166.471 91.306 166.181 91.6093 165.964 92.008C165.747 92.4067 165.639 92.8747 165.639 93.412C165.639 93.958 165.747 94.4347 165.964 94.842C166.181 95.2407 166.471 95.5483 166.835 95.765C167.199 95.973 167.602 96.077 168.044 96.077C168.486 96.077 168.889 95.973 169.253 95.765C169.626 95.5483 169.92 95.2407 170.137 94.842C170.354 94.4347 170.462 93.9623 170.462 93.425ZM174.84 91.202C175.083 90.7773 175.438 90.4307 175.906 90.162C176.374 89.8933 176.907 89.759 177.505 89.759C178.147 89.759 178.723 89.9107 179.234 90.214C179.746 90.5173 180.149 90.9463 180.443 91.501C180.738 92.047 180.885 92.684 180.885 93.412C180.885 94.1313 180.738 94.7727 180.443 95.336C180.149 95.8993 179.741 96.337 179.221 96.649C178.71 96.961 178.138 97.117 177.505 97.117C176.89 97.117 176.348 96.9827 175.88 96.714C175.421 96.4453 175.074 96.103 174.84 95.687V97H173.657V87.38H174.84V91.202ZM179.676 93.412C179.676 92.8747 179.568 92.4067 179.351 92.008C179.135 91.6093 178.84 91.306 178.467 91.098C178.103 90.89 177.7 90.786 177.258 90.786C176.825 90.786 176.422 90.8943 176.049 91.111C175.685 91.319 175.391 91.6267 175.165 92.034C174.949 92.4327 174.84 92.8963 174.84 93.425C174.84 93.9623 174.949 94.4347 175.165 94.842C175.391 95.2407 175.685 95.5483 176.049 95.765C176.422 95.973 176.825 96.077 177.258 96.077C177.7 96.077 178.103 95.973 178.467 95.765C178.84 95.5483 179.135 95.2407 179.351 94.842C179.568 94.4347 179.676 93.958 179.676 93.412ZM183.625 87.38V97H182.442V87.38H183.625ZM192.142 93.165C192.142 93.3903 192.129 93.6287 192.103 93.88H186.409C186.452 94.582 186.69 95.1323 187.124 95.531C187.566 95.921 188.099 96.116 188.723 96.116C189.234 96.116 189.659 95.999 189.997 95.765C190.343 95.5223 190.586 95.2017 190.725 94.803H191.999C191.808 95.4877 191.427 96.0467 190.855 96.48C190.283 96.9047 189.572 97.117 188.723 97.117C188.047 97.117 187.44 96.9653 186.903 96.662C186.374 96.3587 185.958 95.9297 185.655 95.375C185.351 94.8117 185.2 94.1617 185.2 93.425C185.2 92.6883 185.347 92.0427 185.642 91.488C185.936 90.9333 186.348 90.5087 186.877 90.214C187.414 89.9107 188.029 89.759 188.723 89.759C189.399 89.759 189.997 89.9063 190.517 90.201C191.037 90.4957 191.435 90.903 191.713 91.423C191.999 91.9343 192.142 92.515 192.142 93.165ZM190.92 92.918C190.92 92.4673 190.82 92.0817 190.621 91.761C190.421 91.4317 190.148 91.1847 189.802 91.02C189.464 90.8467 189.087 90.76 188.671 90.76C188.073 90.76 187.561 90.9507 187.137 91.332C186.721 91.7133 186.482 92.242 186.422 92.918H190.92ZM194.925 95.362L193.469 98.859H192.676L193.625 95.362H194.925ZM205.323 87.939V88.901H202.853V97H201.67V88.901H199.187V87.939H205.323ZM206.337 93.412C206.337 92.684 206.485 92.047 206.779 91.501C207.074 90.9463 207.477 90.5173 207.988 90.214C208.508 89.9107 209.085 89.759 209.717 89.759C210.341 89.759 210.883 89.8933 211.342 90.162C211.802 90.4307 212.144 90.7687 212.369 91.176V89.876H213.565V97H212.369V95.674C212.135 96.09 211.784 96.4367 211.316 96.714C210.857 96.9827 210.32 97.117 209.704 97.117C209.072 97.117 208.5 96.961 207.988 96.649C207.477 96.337 207.074 95.8993 206.779 95.336C206.485 94.7727 206.337 94.1313 206.337 93.412ZM212.369 93.425C212.369 92.8877 212.261 92.4197 212.044 92.021C211.828 91.6223 211.533 91.319 211.16 91.111C210.796 90.8943 210.393 90.786 209.951 90.786C209.509 90.786 209.106 90.89 208.742 91.098C208.378 91.306 208.088 91.6093 207.871 92.008C207.655 92.4067 207.546 92.8747 207.546 93.412C207.546 93.958 207.655 94.4347 207.871 94.842C208.088 95.2407 208.378 95.5483 208.742 95.765C209.106 95.973 209.509 96.077 209.951 96.077C210.393 96.077 210.796 95.973 211.16 95.765C211.533 95.5483 211.828 95.2407 212.044 94.842C212.261 94.4347 212.369 93.9623 212.369 93.425ZM218.502 89.759C219.118 89.759 219.655 89.8933 220.114 90.162C220.582 90.4307 220.929 90.7687 221.154 91.176V89.876H222.35V97.156C222.35 97.806 222.212 98.3823 221.934 98.885C221.657 99.3963 221.258 99.795 220.738 100.081C220.227 100.367 219.629 100.51 218.944 100.51C218.008 100.51 217.228 100.289 216.604 99.847C215.98 99.405 215.612 98.8027 215.499 98.04H216.669C216.799 98.4733 217.068 98.82 217.475 99.08C217.883 99.3487 218.372 99.483 218.944 99.483C219.594 99.483 220.123 99.2793 220.53 98.872C220.946 98.4647 221.154 97.8927 221.154 97.156V95.661C220.92 96.077 220.574 96.4237 220.114 96.701C219.655 96.9783 219.118 97.117 218.502 97.117C217.87 97.117 217.293 96.961 216.773 96.649C216.262 96.337 215.859 95.8993 215.564 95.336C215.27 94.7727 215.122 94.1313 215.122 93.412C215.122 92.684 215.27 92.047 215.564 91.501C215.859 90.9463 216.262 90.5173 216.773 90.214C217.293 89.9107 217.87 89.759 218.502 89.759ZM221.154 93.425C221.154 92.8877 221.046 92.4197 220.829 92.021C220.613 91.6223 220.318 91.319 219.945 91.111C219.581 90.8943 219.178 90.786 218.736 90.786C218.294 90.786 217.891 90.89 217.527 91.098C217.163 91.306 216.873 91.6093 216.656 92.008C216.44 92.4067 216.331 92.8747 216.331 93.412C216.331 93.958 216.44 94.4347 216.656 94.842C216.873 95.2407 217.163 95.5483 217.527 95.765C217.891 95.973 218.294 96.077 218.736 96.077C219.178 96.077 219.581 95.973 219.945 95.765C220.318 95.5483 220.613 95.2407 220.829 94.842C221.046 94.4347 221.154 93.9623 221.154 93.425ZM234.77 97L233.587 95.804C233.145 96.2633 232.673 96.6057 232.17 96.831C231.668 97.0477 231.1 97.156 230.467 97.156C229.843 97.156 229.289 97.0433 228.803 96.818C228.327 96.5927 227.954 96.272 227.685 95.856C227.425 95.44 227.295 94.9547 227.295 94.4C227.295 93.7673 227.473 93.2127 227.828 92.736C228.192 92.2507 228.725 91.8693 229.427 91.592C229.15 91.2627 228.951 90.9593 228.829 90.682C228.708 90.4047 228.647 90.1013 228.647 89.772C228.647 89.3907 228.743 89.0483 228.933 88.745C229.133 88.433 229.414 88.1903 229.778 88.017C230.142 87.8437 230.563 87.757 231.039 87.757C231.507 87.757 231.915 87.848 232.261 88.03C232.608 88.212 232.868 88.4677 233.041 88.797C233.215 89.1177 233.293 89.4773 233.275 89.876H232.092C232.101 89.5207 232.001 89.2433 231.793 89.044C231.585 88.836 231.317 88.732 230.987 88.732C230.641 88.732 230.359 88.8317 230.142 89.031C229.934 89.2217 229.83 89.4687 229.83 89.772C229.83 90.032 229.9 90.2833 230.038 90.526C230.186 90.7687 230.428 91.0677 230.766 91.423L233.47 94.14L233.704 93.776L234.588 92.294H235.862L234.796 94.14C234.649 94.4 234.476 94.673 234.276 94.959L236.317 97H234.77ZM230.467 96.142C230.935 96.142 231.356 96.051 231.728 95.869C232.11 95.687 232.469 95.4053 232.807 95.024L230.142 92.346C229.033 92.7707 228.478 93.4423 228.478 94.361C228.478 94.8723 228.66 95.297 229.024 95.635C229.397 95.973 229.878 96.142 230.467 96.142ZM243.765 97.091C243.167 97.091 242.629 96.987 242.153 96.779C241.685 96.5623 241.316 96.2677 241.048 95.895C240.779 95.5137 240.64 95.076 240.632 94.582H241.893C241.936 95.0067 242.109 95.3663 242.413 95.661C242.725 95.947 243.175 96.09 243.765 96.09C244.328 96.09 244.77 95.9513 245.091 95.674C245.42 95.388 245.585 95.024 245.585 94.582C245.585 94.2353 245.489 93.9537 245.299 93.737C245.108 93.5203 244.87 93.3557 244.584 93.243C244.298 93.1303 243.912 93.009 243.427 92.879C242.829 92.723 242.348 92.567 241.984 92.411C241.628 92.255 241.321 92.0123 241.061 91.683C240.809 91.345 240.684 90.8943 240.684 90.331C240.684 89.837 240.809 89.3993 241.061 89.018C241.312 88.6367 241.663 88.342 242.114 88.134C242.573 87.926 243.097 87.822 243.687 87.822C244.536 87.822 245.229 88.0343 245.767 88.459C246.313 88.8837 246.62 89.447 246.69 90.149H245.39C245.346 89.8023 245.164 89.499 244.844 89.239C244.523 88.9703 244.098 88.836 243.57 88.836C243.076 88.836 242.673 88.966 242.361 89.226C242.049 89.4773 241.893 89.8327 241.893 90.292C241.893 90.6213 241.984 90.89 242.166 91.098C242.356 91.306 242.586 91.4663 242.855 91.579C243.132 91.683 243.518 91.8043 244.012 91.943C244.61 92.1077 245.091 92.2723 245.455 92.437C245.819 92.593 246.131 92.84 246.391 93.178C246.651 93.5073 246.781 93.958 246.781 94.53C246.781 94.972 246.664 95.388 246.43 95.778C246.196 96.168 245.849 96.4843 245.39 96.727C244.93 96.9697 244.389 97.091 243.765 97.091ZM249.965 90.851V95.05C249.965 95.3967 250.038 95.6437 250.186 95.791C250.333 95.9297 250.589 95.999 250.953 95.999H251.824V97H250.758C250.099 97 249.605 96.8483 249.276 96.545C248.946 96.2417 248.782 95.7433 248.782 95.05V90.851H247.859V89.876H248.782V88.082H249.965V89.876H251.824V90.851H249.965ZM253.868 88.719C253.643 88.719 253.452 88.641 253.296 88.485C253.14 88.329 253.062 88.1383 253.062 87.913C253.062 87.6877 253.14 87.497 253.296 87.341C253.452 87.185 253.643 87.107 253.868 87.107C254.085 87.107 254.267 87.185 254.414 87.341C254.57 87.497 254.648 87.6877 254.648 87.913C254.648 88.1383 254.57 88.329 254.414 88.485C254.267 88.641 254.085 88.719 253.868 88.719ZM254.44 89.876V97H253.257V89.876H254.44ZM256.014 93.425C256.014 92.6883 256.161 92.047 256.456 91.501C256.751 90.9463 257.158 90.5173 257.678 90.214C258.207 89.9107 258.809 89.759 259.485 89.759C260.36 89.759 261.08 89.9713 261.643 90.396C262.215 90.8207 262.592 91.41 262.774 92.164H261.5C261.379 91.7307 261.14 91.3883 260.785 91.137C260.438 90.8857 260.005 90.76 259.485 90.76C258.809 90.76 258.263 90.994 257.847 91.462C257.431 91.9213 257.223 92.5757 257.223 93.425C257.223 94.283 257.431 94.946 257.847 95.414C258.263 95.882 258.809 96.116 259.485 96.116C260.005 96.116 260.438 95.9947 260.785 95.752C261.132 95.5093 261.37 95.1627 261.5 94.712H262.774C262.583 95.44 262.202 96.025 261.63 96.467C261.058 96.9003 260.343 97.117 259.485 97.117C258.809 97.117 258.207 96.9653 257.678 96.662C257.158 96.3587 256.751 95.9297 256.456 95.375C256.161 94.8203 256.014 94.1703 256.014 93.425ZM268.331 97L265.536 93.854V97H264.353V87.38H265.536V93.035L268.279 89.876H269.93L266.576 93.425L269.943 97H268.331ZM277.543 93.165C277.543 93.3903 277.53 93.6287 277.504 93.88H271.81C271.853 94.582 272.092 95.1323 272.525 95.531C272.967 95.921 273.5 96.116 274.124 96.116C274.635 96.116 275.06 95.999 275.398 95.765C275.745 95.5223 275.987 95.2017 276.126 94.803H277.4C277.209 95.4877 276.828 96.0467 276.256 96.48C275.684 96.9047 274.973 97.117 274.124 97.117C273.448 97.117 272.841 96.9653 272.304 96.662C271.775 96.3587 271.359 95.9297 271.056 95.375C270.753 94.8117 270.601 94.1617 270.601 93.425C270.601 92.6883 270.748 92.0427 271.043 91.488C271.338 90.9333 271.749 90.5087 272.278 90.214C272.815 89.9107 273.431 89.759 274.124 89.759C274.8 89.759 275.398 89.9063 275.918 90.201C276.438 90.4957 276.837 90.903 277.114 91.423C277.4 91.9343 277.543 92.515 277.543 93.165ZM276.321 92.918C276.321 92.4673 276.221 92.0817 276.022 91.761C275.823 91.4317 275.55 91.1847 275.203 91.02C274.865 90.8467 274.488 90.76 274.072 90.76C273.474 90.76 272.963 90.9507 272.538 91.332C272.122 91.7133 271.884 92.242 271.823 92.918H276.321ZM280.288 91.033C280.496 90.6257 280.79 90.3093 281.172 90.084C281.562 89.8587 282.034 89.746 282.589 89.746V90.968H282.277C280.951 90.968 280.288 91.6873 280.288 93.126V97H279.105V89.876H280.288V91.033Z" fill="#5B5B5B"/>
<path d="M4.354 44.604C3.458 43.7267 2.758 42.6113 2.254 41.258C1.75933 39.9047 1.512 38.444 1.512 36.876C1.512 35.2707 1.77333 33.7727 2.296 32.382C2.828 30.982 3.584 29.8293 4.564 28.924H5.894V29.05C4.84867 30.03 4.06 31.2107 3.528 32.592C3.00533 33.964 2.744 35.392 2.744 36.876C2.744 38.3227 2.99133 39.704 3.486 41.02C3.99 42.336 4.72267 43.4887 5.684 44.478V44.604H4.354ZM13.8587 32.242V33.278H11.1987V42H9.92472V33.278H7.25072V32.242H13.8587ZM15.3682 38.136C15.3682 37.352 15.5269 36.666 15.8442 36.078C16.1616 35.4807 16.5956 35.0187 17.1462 34.692C17.7062 34.3653 18.3269 34.202 19.0082 34.202C19.6802 34.202 20.2636 34.3467 20.7582 34.636C21.2529 34.9253 21.6216 35.2893 21.8642 35.728V34.328H23.1522V42H21.8642V40.572C21.6122 41.02 21.2342 41.3933 20.7302 41.692C20.2356 41.9813 19.6569 42.126 18.9942 42.126C18.3129 42.126 17.6969 41.958 17.1462 41.622C16.5956 41.286 16.1616 40.8147 15.8442 40.208C15.5269 39.6013 15.3682 38.9107 15.3682 38.136ZM21.8642 38.15C21.8642 37.5713 21.7476 37.0673 21.5142 36.638C21.2809 36.2087 20.9636 35.882 20.5622 35.658C20.1702 35.4247 19.7362 35.308 19.2602 35.308C18.7842 35.308 18.3502 35.42 17.9582 35.644C17.5662 35.868 17.2536 36.1947 17.0202 36.624C16.7869 37.0533 16.6702 37.5573 16.6702 38.136C16.6702 38.724 16.7869 39.2373 17.0202 39.676C17.2536 40.1053 17.5662 40.4367 17.9582 40.67C18.3502 40.894 18.7842 41.006 19.2602 41.006C19.7362 41.006 20.1702 40.894 20.5622 40.67C20.9636 40.4367 21.2809 40.1053 21.5142 39.676C21.7476 39.2373 21.8642 38.7287 21.8642 38.15ZM28.8865 34.202C29.5491 34.202 30.1278 34.3467 30.6225 34.636C31.1265 34.9253 31.4998 35.2893 31.7425 35.728V34.328H33.0305V42.168C33.0305 42.868 32.8811 43.4887 32.5825 44.03C32.2838 44.5807 31.8545 45.01 31.2945 45.318C30.7438 45.626 30.0998 45.78 29.3625 45.78C28.3545 45.78 27.5145 45.542 26.8425 45.066C26.1705 44.59 25.7738 43.9413 25.6525 43.12H26.9125C27.0525 43.5867 27.3418 43.96 27.7805 44.24C28.2191 44.5293 28.7465 44.674 29.3625 44.674C30.0625 44.674 30.6318 44.4547 31.0705 44.016C31.5185 43.5773 31.7425 42.9613 31.7425 42.168V40.558C31.4905 41.006 31.1171 41.3793 30.6225 41.678C30.1278 41.9767 29.5491 42.126 28.8865 42.126C28.2051 42.126 27.5845 41.958 27.0245 41.622C26.4738 41.286 26.0398 40.8147 25.7225 40.208C25.4051 39.6013 25.2465 38.9107 25.2465 38.136C25.2465 37.352 25.4051 36.666 25.7225 36.078C26.0398 35.4807 26.4738 35.0187 27.0245 34.692C27.5845 34.3653 28.2051 34.202 28.8865 34.202ZM31.7425 38.15C31.7425 37.5713 31.6258 37.0673 31.3925 36.638C31.1591 36.2087 30.8418 35.882 30.4405 35.658C30.0485 35.4247 29.6145 35.308 29.1385 35.308C28.6625 35.308 28.2285 35.42 27.8365 35.644C27.4445 35.868 27.1318 36.1947 26.8985 36.624C26.6651 37.0533 26.5485 37.5573 26.5485 38.136C26.5485 38.724 26.6651 39.2373 26.8985 39.676C27.1318 40.1053 27.4445 40.4367 27.8365 40.67C28.2285 40.894 28.6625 41.006 29.1385 41.006C29.6145 41.006 30.0485 40.894 30.4405 40.67C30.8418 40.4367 31.1591 40.1053 31.3925 39.676C31.6258 39.2373 31.7425 38.7287 31.7425 38.15ZM42.8807 37.422H39.8987V40.446H38.7087V37.422H35.7407V36.344H38.7087V33.306H39.8987V36.344H42.8807V37.422ZM48.6687 42.098C48.0247 42.098 47.446 41.986 46.9327 41.762C46.4287 41.5287 46.032 41.2113 45.7427 40.81C45.4533 40.3993 45.304 39.928 45.2947 39.396H46.6527C46.6993 39.8533 46.886 40.2407 47.2127 40.558C47.5487 40.866 48.034 41.02 48.6687 41.02C49.2753 41.02 49.7513 40.8707 50.0967 40.572C50.4513 40.264 50.6287 39.872 50.6287 39.396C50.6287 39.0227 50.526 38.7193 50.3207 38.486C50.1153 38.2527 49.8587 38.0753 49.5507 37.954C49.2427 37.8327 48.8273 37.702 48.3047 37.562C47.6607 37.394 47.1427 37.226 46.7507 37.058C46.368 36.89 46.0367 36.6287 45.7567 36.274C45.486 35.91 45.3507 35.4247 45.3507 34.818C45.3507 34.286 45.486 33.8147 45.7567 33.404C46.0273 32.9933 46.4053 32.676 46.8907 32.452C47.3853 32.228 47.95 32.116 48.5847 32.116C49.4993 32.116 50.246 32.3447 50.8247 32.802C51.4127 33.2593 51.744 33.866 51.8187 34.622H50.4187C50.372 34.2487 50.176 33.922 49.8307 33.642C49.4853 33.3527 49.028 33.208 48.4587 33.208C47.9267 33.208 47.4927 33.348 47.1567 33.628C46.8207 33.8987 46.6527 34.2813 46.6527 34.776C46.6527 35.1307 46.7507 35.42 46.9467 35.644C47.152 35.868 47.3993 36.0407 47.6887 36.162C47.9873 36.274 48.4027 36.4047 48.9347 36.554C49.5787 36.7313 50.0967 36.9087 50.4887 37.086C50.8807 37.254 51.2167 37.52 51.4967 37.884C51.7767 38.2387 51.9167 38.724 51.9167 39.34C51.9167 39.816 51.7907 40.264 51.5387 40.684C51.2867 41.104 50.9133 41.4447 50.4187 41.706C49.924 41.9673 49.3407 42.098 48.6687 42.098ZM55.7628 35.378V39.9C55.7628 40.2733 55.8421 40.5393 56.0008 40.698C56.1594 40.8473 56.4348 40.922 56.8268 40.922H57.7648V42H56.6168C55.9074 42 55.3754 41.8367 55.0208 41.51C54.6661 41.1833 54.4888 40.6467 54.4888 39.9V35.378H53.4948V34.328H54.4888V32.396H55.7628V34.328H57.7648V35.378H55.7628ZM60.3837 33.082C60.141 33.082 59.9357 32.998 59.7677 32.83C59.5997 32.662 59.5157 32.4567 59.5157 32.214C59.5157 31.9713 59.5997 31.766 59.7677 31.598C59.9357 31.43 60.141 31.346 60.3837 31.346C60.617 31.346 60.813 31.43 60.9717 31.598C61.1397 31.766 61.2237 31.9713 61.2237 32.214C61.2237 32.4567 61.1397 32.662 60.9717 32.83C60.813 32.998 60.617 33.082 60.3837 33.082ZM60.9997 34.328V42H59.7257V34.328H60.9997ZM63.1123 38.15C63.1123 37.3567 63.2709 36.666 63.5883 36.078C63.9056 35.4807 64.3443 35.0187 64.9043 34.692C65.4736 34.3653 66.1223 34.202 66.8503 34.202C67.7929 34.202 68.5676 34.4307 69.1743 34.888C69.7903 35.3453 70.1963 35.98 70.3923 36.792H69.0203C68.8896 36.3253 68.6329 35.9567 68.2503 35.686C67.8769 35.4153 67.4103 35.28 66.8503 35.28C66.1223 35.28 65.5343 35.532 65.0863 36.036C64.6383 36.5307 64.4143 37.2353 64.4143 38.15C64.4143 39.074 64.6383 39.788 65.0863 40.292C65.5343 40.796 66.1223 41.048 66.8503 41.048C67.4103 41.048 67.8769 40.9173 68.2503 40.656C68.6236 40.3947 68.8803 40.0213 69.0203 39.536H70.3923C70.1869 40.32 69.7763 40.95 69.1603 41.426C68.5443 41.8927 67.7743 42.126 66.8503 42.126C66.1223 42.126 65.4736 41.9627 64.9043 41.636C64.3443 41.3093 63.9056 40.8473 63.5883 40.25C63.2709 39.6527 63.1123 38.9527 63.1123 38.15ZM76.7935 42L73.7835 38.612V42H72.5095V31.64H73.7835V37.73L76.7375 34.328H78.5155L74.9035 38.15L78.5295 42H76.7935ZM87.4119 37.422H84.4299V40.446H83.2399V37.422H80.2719V36.344H83.2399V33.306H84.4299V36.344H87.4119V37.422ZM96.6298 35.098C96.6298 35.91 96.3498 36.5867 95.7898 37.128C95.2391 37.66 94.3945 37.926 93.2558 37.926H91.3798V42H90.1058V32.242H93.2558C94.3571 32.242 95.1925 32.508 95.7618 33.04C96.3405 33.572 96.6298 34.258 96.6298 35.098ZM93.2558 36.876C93.9651 36.876 94.4878 36.722 94.8238 36.414C95.1598 36.106 95.3278 35.6673 95.3278 35.098C95.3278 33.894 94.6371 33.292 93.2558 33.292H91.3798V36.876H93.2558ZM99.9045 31.64V42H98.6305V31.64H99.9045ZM102.017 38.136C102.017 37.352 102.176 36.666 102.493 36.078C102.81 35.4807 103.244 35.0187 103.795 34.692C104.355 34.3653 104.976 34.202 105.657 34.202C106.329 34.202 106.912 34.3467 107.407 34.636C107.902 34.9253 108.27 35.2893 108.513 35.728V34.328H109.801V42H108.513V40.572C108.261 41.02 107.883 41.3933 107.379 41.692C106.884 41.9813 106.306 42.126 105.643 42.126C104.962 42.126 104.346 41.958 103.795 41.622C103.244 41.286 102.81 40.8147 102.493 40.208C102.176 39.6013 102.017 38.9107 102.017 38.136ZM108.513 38.15C108.513 37.5713 108.396 37.0673 108.163 36.638C107.93 36.2087 107.612 35.882 107.211 35.658C106.819 35.4247 106.385 35.308 105.909 35.308C105.433 35.308 104.999 35.42 104.607 35.644C104.215 35.868 103.902 36.1947 103.669 36.624C103.436 37.0533 103.319 37.5573 103.319 38.136C103.319 38.724 103.436 39.2373 103.669 39.676C103.902 40.1053 104.215 40.4367 104.607 40.67C104.999 40.894 105.433 41.006 105.909 41.006C106.385 41.006 106.819 40.894 107.211 40.67C107.612 40.4367 107.93 40.1053 108.163 39.676C108.396 39.2373 108.513 38.7287 108.513 38.15ZM111.895 38.15C111.895 37.3567 112.054 36.666 112.371 36.078C112.689 35.4807 113.127 35.0187 113.687 34.692C114.257 34.3653 114.905 34.202 115.633 34.202C116.576 34.202 117.351 34.4307 117.957 34.888C118.573 35.3453 118.979 35.98 119.175 36.792H117.803C117.673 36.3253 117.416 35.9567 117.033 35.686C116.66 35.4153 116.193 35.28 115.633 35.28C114.905 35.28 114.317 35.532 113.869 36.036C113.421 36.5307 113.197 37.2353 113.197 38.15C113.197 39.074 113.421 39.788 113.869 40.292C114.317 40.796 114.905 41.048 115.633 41.048C116.193 41.048 116.66 40.9173 117.033 40.656C117.407 40.3947 117.663 40.0213 117.803 39.536H119.175C118.97 40.32 118.559 40.95 117.943 41.426C117.327 41.8927 116.557 42.126 115.633 42.126C114.905 42.126 114.257 41.9627 113.687 41.636C113.127 41.3093 112.689 40.8473 112.371 40.25C112.054 39.6527 111.895 38.9527 111.895 38.15ZM128.293 37.87C128.293 38.1127 128.279 38.3693 128.251 38.64H122.119C122.165 39.396 122.422 39.9887 122.889 40.418C123.365 40.838 123.939 41.048 124.611 41.048C125.161 41.048 125.619 40.922 125.983 40.67C126.356 40.4087 126.617 40.0633 126.767 39.634H128.139C127.933 40.3713 127.523 40.9733 126.907 41.44C126.291 41.8973 125.525 42.126 124.611 42.126C123.883 42.126 123.229 41.9627 122.651 41.636C122.081 41.3093 121.633 40.8473 121.307 40.25C120.98 39.6433 120.817 38.9433 120.817 38.15C120.817 37.3567 120.975 36.6613 121.293 36.064C121.61 35.4667 122.053 35.0093 122.623 34.692C123.201 34.3653 123.864 34.202 124.611 34.202C125.339 34.202 125.983 34.3607 126.543 34.678C127.103 34.9953 127.532 35.434 127.831 35.994C128.139 36.5447 128.293 37.17 128.293 37.87ZM126.977 37.604C126.977 37.1187 126.869 36.7033 126.655 36.358C126.44 36.0033 126.146 35.7373 125.773 35.56C125.409 35.3733 125.003 35.28 124.555 35.28C123.911 35.28 123.36 35.4853 122.903 35.896C122.455 36.3067 122.198 36.876 122.133 37.604H126.977ZM129.986 44.604V44.478C130.947 43.4887 131.675 42.336 132.17 41.02C132.674 39.704 132.926 38.3227 132.926 36.876C132.926 35.392 132.66 33.964 132.128 32.592C131.605 31.2107 130.821 30.03 129.776 29.05V28.924H131.106C132.086 29.8293 132.837 30.982 133.36 32.382C133.892 33.7727 134.158 35.2707 134.158 36.876C134.158 38.444 133.906 39.9047 133.402 41.258C132.907 42.6113 132.212 43.7267 131.316 44.604H129.986Z" fill="black"/>
</svg>
