<svg width="287" height="99" viewBox="0 0 287 99" fill="none" xmlns="http://www.w3.org/2000/svg">
<path d="M18.26 5.644V21H15.18V11.012L11.066 21H8.734L4.598 11.012V21H1.518V5.644H5.016L9.9 17.062L14.784 5.644H18.26ZM20.8173 14.862C20.8173 13.63 21.0593 12.5373 21.5433 11.584C22.042 10.6307 22.7093 9.89733 23.5453 9.384C24.396 8.87067 25.342 8.614 26.3833 8.614C27.2927 8.614 28.0847 8.79733 28.7593 9.164C29.4487 9.53067 29.9987 9.99267 30.4093 10.55V8.812H33.5113V21H30.4093V19.218C30.0133 19.79 29.4633 20.2667 28.7593 20.648C28.07 21.0147 27.2707 21.198 26.3613 21.198C25.3347 21.198 24.396 20.934 23.5453 20.406C22.7093 19.878 22.042 19.1373 21.5433 18.184C21.0593 17.216 20.8173 16.1087 20.8173 14.862ZM30.4093 14.906C30.4093 14.158 30.2627 13.52 29.9693 12.992C29.676 12.4493 29.28 12.0387 28.7813 11.76C28.2827 11.4667 27.7473 11.32 27.1753 11.32C26.6033 11.32 26.0753 11.4593 25.5913 11.738C25.1073 12.0167 24.7113 12.4273 24.4033 12.97C24.11 13.498 23.9633 14.1287 23.9633 14.862C23.9633 15.5953 24.11 16.2407 24.4033 16.798C24.7113 17.3407 25.1073 17.7587 25.5913 18.052C26.09 18.3453 26.618 18.492 27.1753 18.492C27.7473 18.492 28.2827 18.3527 28.7813 18.074C29.28 17.7807 29.676 17.37 29.9693 16.842C30.2627 16.2993 30.4093 15.654 30.4093 14.906ZM41.4877 21.198C40.4904 21.198 39.5957 21.022 38.8037 20.67C38.0117 20.3033 37.3811 19.812 36.9117 19.196C36.4571 18.58 36.2077 17.898 36.1637 17.15H39.2657C39.3244 17.6193 39.5517 18.008 39.9477 18.316C40.3584 18.624 40.8644 18.778 41.4657 18.778C42.0524 18.778 42.5071 18.6607 42.8297 18.426C43.1671 18.1913 43.3357 17.8907 43.3357 17.524C43.3357 17.128 43.1304 16.8347 42.7197 16.644C42.3237 16.4387 41.6857 16.2187 40.8057 15.984C39.8964 15.764 39.1484 15.5367 38.5617 15.302C37.9897 15.0673 37.4911 14.708 37.0657 14.224C36.6551 13.74 36.4497 13.0873 36.4497 12.266C36.4497 11.5913 36.6404 10.9753 37.0217 10.418C37.4177 9.86067 37.9751 9.42067 38.6937 9.098C39.4271 8.77533 40.2851 8.614 41.2677 8.614C42.7197 8.614 43.8784 8.98067 44.7437 9.714C45.6091 10.4327 46.0857 11.408 46.1737 12.64H43.2257C43.1817 12.156 42.9764 11.7747 42.6097 11.496C42.2577 11.2027 41.7811 11.056 41.1797 11.056C40.6224 11.056 40.1897 11.1587 39.8817 11.364C39.5884 11.5693 39.4417 11.8553 39.4417 12.222C39.4417 12.6327 39.6471 12.948 40.0577 13.168C40.4684 13.3733 41.1064 13.586 41.9717 13.806C42.8517 14.026 43.5777 14.2533 44.1497 14.488C44.7217 14.7227 45.2131 15.0893 45.6237 15.588C46.0491 16.072 46.2691 16.7173 46.2837 17.524C46.2837 18.228 46.0857 18.8587 45.6897 19.416C45.3084 19.9733 44.7511 20.4133 44.0177 20.736C43.2991 21.044 42.4557 21.198 41.4877 21.198ZM52.7022 11.342V17.238C52.7022 17.6487 52.7976 17.9493 52.9882 18.14C53.1936 18.316 53.5309 18.404 54.0002 18.404H55.4302V21H53.4942C50.8982 21 49.6002 19.7387 49.6002 17.216V11.342H48.1482V8.812H49.6002V5.798H52.7022V8.812H55.4302V11.342H52.7022ZM69.2797 14.642C69.2797 15.082 69.2504 15.478 69.1917 15.83H60.2817C60.3551 16.71 60.6631 17.3993 61.2057 17.898C61.7484 18.3967 62.4157 18.646 63.2077 18.646C64.3517 18.646 65.1657 18.1547 65.6497 17.172H68.9717C68.6197 18.3453 67.9451 19.3133 66.9477 20.076C65.9504 20.824 64.7257 21.198 63.2737 21.198C62.1004 21.198 61.0444 20.9413 60.1057 20.428C59.1817 19.9 58.4557 19.1593 57.9277 18.206C57.4144 17.2527 57.1577 16.1527 57.1577 14.906C57.1577 13.6447 57.4144 12.5373 57.9277 11.584C58.4411 10.6307 59.1597 9.89733 60.0837 9.384C61.0077 8.87067 62.0711 8.614 63.2737 8.614C64.4324 8.614 65.4664 8.86333 66.3757 9.362C67.2997 9.86067 68.0111 10.572 68.5097 11.496C69.0231 12.4053 69.2797 13.454 69.2797 14.642ZM66.0897 13.762C66.0751 12.97 65.7891 12.3393 65.2317 11.87C64.6744 11.386 63.9924 11.144 63.1857 11.144C62.4231 11.144 61.7777 11.3787 61.2497 11.848C60.7364 12.3027 60.4211 12.9407 60.3037 13.762H66.0897ZM74.9121 10.704C75.3081 10.0587 75.8214 9.55267 76.4521 9.186C77.0974 8.81933 77.8308 8.636 78.6521 8.636V11.87H77.8381C76.8701 11.87 76.1368 12.0973 75.6381 12.552C75.1541 13.0067 74.9121 13.7987 74.9121 14.928V21H71.8321V8.812H74.9121V10.704ZM91.4809 5.644V8.13H87.3889V21H84.3089V8.13H80.2169V5.644H91.4809ZM93.2403 14.862C93.2403 13.63 93.4823 12.5373 93.9663 11.584C94.465 10.6307 95.1323 9.89733 95.9683 9.384C96.819 8.87067 97.765 8.614 98.8063 8.614C99.7157 8.614 100.508 8.79733 101.182 9.164C101.872 9.53067 102.422 9.99267 102.832 10.55V8.812H105.934V21H102.832V19.218C102.436 19.79 101.886 20.2667 101.182 20.648C100.493 21.0147 99.6937 21.198 98.7843 21.198C97.7577 21.198 96.819 20.934 95.9683 20.406C95.1323 19.878 94.465 19.1373 93.9663 18.184C93.4823 17.216 93.2403 16.1087 93.2403 14.862ZM102.832 14.906C102.832 14.158 102.686 13.52 102.392 12.992C102.099 12.4493 101.703 12.0387 101.204 11.76C100.706 11.4667 100.17 11.32 99.5983 11.32C99.0263 11.32 98.4983 11.4593 98.0143 11.738C97.5303 12.0167 97.1343 12.4273 96.8263 12.97C96.533 13.498 96.3863 14.1287 96.3863 14.862C96.3863 15.5953 96.533 16.2407 96.8263 16.798C97.1343 17.3407 97.5303 17.7587 98.0143 18.052C98.513 18.3453 99.041 18.492 99.5983 18.492C100.17 18.492 100.706 18.3527 101.204 18.074C101.703 17.7807 102.099 17.37 102.392 16.842C102.686 16.2993 102.832 15.654 102.832 14.906ZM114.021 8.614C114.93 8.614 115.729 8.79733 116.419 9.164C117.108 9.516 117.651 9.978 118.047 10.55V8.812H121.149V21.088C121.149 22.2173 120.921 23.222 120.467 24.102C120.012 24.9967 119.33 25.7007 118.421 26.214C117.511 26.742 116.411 27.006 115.121 27.006C113.39 27.006 111.967 26.6027 110.853 25.796C109.753 24.9893 109.129 23.8893 108.983 22.496H112.041C112.202 23.0533 112.547 23.4933 113.075 23.816C113.617 24.1533 114.27 24.322 115.033 24.322C115.927 24.322 116.653 24.0507 117.211 23.508C117.768 22.98 118.047 22.1733 118.047 21.088V19.196C117.651 19.768 117.101 20.2447 116.397 20.626C115.707 21.0073 114.915 21.198 114.021 21.198C112.994 21.198 112.055 20.934 111.205 20.406C110.354 19.878 109.679 19.1373 109.181 18.184C108.697 17.216 108.455 16.1087 108.455 14.862C108.455 13.63 108.697 12.5373 109.181 11.584C109.679 10.6307 110.347 9.89733 111.183 9.384C112.033 8.87067 112.979 8.614 114.021 8.614ZM118.047 14.906C118.047 14.158 117.9 13.52 117.607 12.992C117.313 12.4493 116.917 12.0387 116.419 11.76C115.92 11.4667 115.385 11.32 114.813 11.32C114.241 11.32 113.713 11.4593 113.229 11.738C112.745 12.0167 112.349 12.4273 112.041 12.97C111.747 13.498 111.601 14.1287 111.601 14.862C111.601 15.5953 111.747 16.2407 112.041 16.798C112.349 17.3407 112.745 17.7587 113.229 18.052C113.727 18.3453 114.255 18.492 114.813 18.492C115.385 18.492 115.92 18.3527 116.419 18.074C116.917 17.7807 117.313 17.37 117.607 16.842C117.9 16.2993 118.047 15.654 118.047 14.906Z" fill="#212529"/>
<path d="M9.32 65.2V65.54H11.9V66.86H9.22C9.1 67.78 8.83333 68.5 8.42 69.02C8.02 69.54 7.43333 69.9133 6.66 70.14C5.9 70.3667 4.88667 70.48 3.62 70.48V72.06C3.62 73.86 4.40667 74.76 5.98 74.76C7.52667 74.76 8.3 73.8933 8.3 72.16H9.98C9.96667 73.4933 9.61333 74.5 8.92 75.18C8.22667 75.86 7.24 76.2 5.96 76.2C4.64 76.2 3.63333 75.8333 2.94 75.1C2.26 74.3667 1.92 73.34 1.92 72.02V69.2C3.44 69.2 4.56 69.1533 5.28 69.06C6.01333 68.9533 6.54667 68.74 6.88 68.42C7.21333 68.0867 7.42667 67.5667 7.52 66.86H1.02V65.54H7.6V65.18V63.38H1.02V62.04H11.9V63.38H9.32V65.2ZM14.0195 74.54C15.7129 73.18 17.0395 72.0667 17.9995 71.2C18.9595 70.32 19.7662 69.4067 20.4195 68.46C21.0862 67.5 21.4195 66.56 21.4195 65.64C21.4195 64.7733 21.2062 64.0933 20.7795 63.6C20.3662 63.0933 19.6929 62.84 18.7595 62.84C17.8529 62.84 17.1462 63.1267 16.6395 63.7C16.1462 64.26 15.8795 65.0133 15.8395 65.96H14.0795C14.1329 64.4667 14.5862 63.3133 15.4395 62.5C16.2929 61.6867 17.3929 61.28 18.7395 61.28C20.1129 61.28 21.1995 61.66 21.9995 62.42C22.8129 63.18 23.2195 64.2267 23.2195 65.56C23.2195 66.6667 22.8862 67.7467 22.2195 68.8C21.5662 69.84 20.8195 70.76 19.9795 71.56C19.1395 72.3467 18.0662 73.2667 16.7595 74.32H23.6395V75.84H14.0195V74.54ZM28.2277 73.48L25.9877 78.86H24.7677L26.2277 73.48H28.2277ZM30.2767 65.18C30.3701 63.9533 30.8434 62.9933 31.6967 62.3C32.5501 61.6067 33.6567 61.26 35.0167 61.26C35.9234 61.26 36.7034 61.4267 37.3567 61.76C38.0234 62.08 38.5234 62.52 38.8567 63.08C39.2034 63.64 39.3767 64.2733 39.3767 64.98C39.3767 65.8067 39.1367 66.52 38.6567 67.12C38.1901 67.72 37.5767 68.1067 36.8167 68.28V68.38C37.6834 68.5933 38.3701 69.0133 38.8767 69.64C39.3834 70.2667 39.6367 71.0867 39.6367 72.1C39.6367 72.86 39.4634 73.5467 39.1167 74.16C38.7701 74.76 38.2501 75.2333 37.5567 75.58C36.8634 75.9267 36.0301 76.1 35.0567 76.1C33.6434 76.1 32.4834 75.7333 31.5767 75C30.6701 74.2533 30.1634 73.2 30.0567 71.84H31.8167C31.9101 72.64 32.2367 73.2933 32.7967 73.8C33.3567 74.3067 34.1034 74.56 35.0367 74.56C35.9701 74.56 36.6767 74.32 37.1567 73.84C37.6501 73.3467 37.8967 72.7133 37.8967 71.94C37.8967 70.94 37.5634 70.22 36.8967 69.78C36.2301 69.34 35.2234 69.12 33.8767 69.12H33.4167V67.6H33.8967C35.1234 67.5867 36.0501 67.3867 36.6767 67C37.3034 66.6 37.6167 65.9867 37.6167 65.16C37.6167 64.4533 37.3834 63.8867 36.9167 63.46C36.4634 63.0333 35.8101 62.82 34.9567 62.82C34.1301 62.82 33.4634 63.0333 32.9567 63.46C32.4501 63.8867 32.1501 64.46 32.0567 65.18H30.2767ZM44.7383 72.12C44.8716 72.88 45.1783 73.4667 45.6583 73.88C46.1516 74.2933 46.8116 74.5 47.6383 74.5C48.745 74.5 49.5583 74.0667 50.0783 73.2C50.6116 72.3333 50.865 70.8733 50.8383 68.82C50.5583 69.42 50.0916 69.8933 49.4383 70.24C48.785 70.5733 48.0583 70.74 47.2583 70.74C46.365 70.74 45.565 70.56 44.8583 70.2C44.165 69.8267 43.6183 69.2867 43.2183 68.58C42.8183 67.8733 42.6183 67.02 42.6183 66.02C42.6183 64.5933 43.0316 63.4467 43.8583 62.58C44.685 61.7 45.8583 61.26 47.3783 61.26C49.245 61.26 50.5516 61.8667 51.2983 63.08C52.0583 64.2933 52.4383 66.1 52.4383 68.5C52.4383 70.18 52.285 71.5667 51.9783 72.66C51.685 73.7533 51.1783 74.5867 50.4583 75.16C49.7516 75.7333 48.7783 76.02 47.5383 76.02C46.1783 76.02 45.1183 75.6533 44.3583 74.92C43.5983 74.1867 43.165 73.2533 43.0583 72.12H44.7383ZM47.5583 69.2C48.4516 69.2 49.185 68.9267 49.7583 68.38C50.3316 67.82 50.6183 67.0667 50.6183 66.12C50.6183 65.12 50.3383 64.3133 49.7783 63.7C49.2183 63.0867 48.4316 62.78 47.4183 62.78C46.485 62.78 45.7383 63.0733 45.1783 63.66C44.6316 64.2467 44.3583 65.02 44.3583 65.98C44.3583 66.9533 44.6316 67.7333 45.1783 68.32C45.725 68.9067 46.5183 69.2 47.5583 69.2ZM63.3602 64.98C63.0669 63.5 62.1535 62.76 60.6202 62.76C59.4335 62.76 58.5469 63.22 57.9602 64.14C57.3735 65.0467 57.0869 66.5467 57.1002 68.64C57.4069 67.9467 57.9135 67.4067 58.6202 67.02C59.3402 66.62 60.1402 66.42 61.0202 66.42C62.3935 66.42 63.4869 66.8467 64.3002 67.7C65.1269 68.5533 65.5402 69.7333 65.5402 71.24C65.5402 72.1467 65.3602 72.96 65.0002 73.68C64.6535 74.4 64.1202 74.9733 63.4002 75.4C62.6935 75.8267 61.8335 76.04 60.8202 76.04C59.4469 76.04 58.3735 75.7333 57.6002 75.12C56.8269 74.5067 56.2869 73.66 55.9802 72.58C55.6735 71.5 55.5202 70.1667 55.5202 68.58C55.5202 63.6867 57.2269 61.24 60.6402 61.24C61.9469 61.24 62.9735 61.5933 63.7202 62.3C64.4669 63.0067 64.9069 63.9 65.0402 64.98H63.3602ZM60.6402 67.96C60.0669 67.96 59.5269 68.08 59.0202 68.32C58.5135 68.5467 58.1002 68.9 57.7802 69.38C57.4735 69.8467 57.3202 70.42 57.3202 71.1C57.3202 72.1133 57.6135 72.94 58.2002 73.58C58.7869 74.2067 59.6269 74.52 60.7202 74.52C61.6535 74.52 62.3935 74.2333 62.9402 73.66C63.5002 73.0733 63.7802 72.2867 63.7802 71.3C63.7802 70.26 63.5135 69.4467 62.9802 68.86C62.4469 68.26 61.6669 67.96 60.6402 67.96ZM69.1797 76.12C68.8331 76.12 68.5397 76 68.2997 75.76C68.0597 75.52 67.9397 75.2267 67.9397 74.88C67.9397 74.5333 68.0597 74.24 68.2997 74C68.5397 73.76 68.8331 73.64 69.1797 73.64C69.5131 73.64 69.7931 73.76 70.0197 74C70.2597 74.24 70.3797 74.5333 70.3797 74.88C70.3797 75.2267 70.2597 75.52 70.0197 75.76C69.7931 76 69.5131 76.12 69.1797 76.12ZM72.8032 68.62C72.8032 66.3267 73.1765 64.54 73.9232 63.26C74.6698 61.9667 75.9765 61.32 77.8432 61.32C79.6965 61.32 80.9965 61.9667 81.7432 63.26C82.4898 64.54 82.8632 66.3267 82.8632 68.62C82.8632 70.9533 82.4898 72.7667 81.7432 74.06C80.9965 75.3533 79.6965 76 77.8432 76C75.9765 76 74.6698 75.3533 73.9232 74.06C73.1765 72.7667 72.8032 70.9533 72.8032 68.62ZM81.0632 68.62C81.0632 67.46 80.9832 66.48 80.8232 65.68C80.6765 64.8667 80.3632 64.2133 79.8832 63.72C79.4165 63.2267 78.7365 62.98 77.8432 62.98C76.9365 62.98 76.2432 63.2267 75.7632 63.72C75.2965 64.2133 74.9832 64.8667 74.8232 65.68C74.6765 66.48 74.6032 67.46 74.6032 68.62C74.6032 69.82 74.6765 70.8267 74.8232 71.64C74.9832 72.4533 75.2965 73.1067 75.7632 73.6C76.2432 74.0933 76.9365 74.34 77.8432 74.34C78.7365 74.34 79.4165 74.0933 79.8832 73.6C80.3632 73.1067 80.6765 72.4533 80.8232 71.64C80.9832 70.8267 81.0632 69.82 81.0632 68.62ZM85.666 68.62C85.666 66.3267 86.0393 64.54 86.786 63.26C87.5327 61.9667 88.8393 61.32 90.706 61.32C92.5593 61.32 93.8593 61.9667 94.606 63.26C95.3527 64.54 95.726 66.3267 95.726 68.62C95.726 70.9533 95.3527 72.7667 94.606 74.06C93.8593 75.3533 92.5593 76 90.706 76C88.8393 76 87.5327 75.3533 86.786 74.06C86.0393 72.7667 85.666 70.9533 85.666 68.62ZM93.926 68.62C93.926 67.46 93.846 66.48 93.686 65.68C93.5393 64.8667 93.226 64.2133 92.746 63.72C92.2793 63.2267 91.5993 62.98 90.706 62.98C89.7993 62.98 89.106 63.2267 88.626 63.72C88.1593 64.2133 87.846 64.8667 87.686 65.68C87.5393 66.48 87.466 67.46 87.466 68.62C87.466 69.82 87.5393 70.8267 87.686 71.64C87.846 72.4533 88.1593 73.1067 88.626 73.6C89.106 74.0933 89.7993 74.34 90.706 74.34C91.5993 74.34 92.2793 74.0933 92.746 73.6C93.226 73.1067 93.5393 72.4533 93.686 71.64C93.846 70.8267 93.926 69.82 93.926 68.62Z" fill="#DB3022"/>
<path d="M107.665 76.79C106.705 75.85 105.955 74.655 105.415 73.205C104.885 71.755 104.62 70.19 104.62 68.51C104.62 66.79 104.9 65.185 105.46 63.695C106.03 62.195 106.84 60.96 107.89 59.99H109.315V60.125C108.195 61.175 107.35 62.44 106.78 63.92C106.22 65.39 105.94 66.92 105.94 68.51C105.94 70.06 106.205 71.54 106.735 72.95C107.275 74.36 108.06 75.595 109.09 76.655V76.79H107.665ZM117.106 65.9V66.155H119.041V67.145H117.031C116.941 67.835 116.741 68.375 116.431 68.765C116.131 69.155 115.691 69.435 115.111 69.605C114.541 69.775 113.781 69.86 112.831 69.86V71.045C112.831 72.395 113.421 73.07 114.601 73.07C115.761 73.07 116.341 72.42 116.341 71.12H117.601C117.591 72.12 117.326 72.875 116.806 73.385C116.286 73.895 115.546 74.15 114.586 74.15C113.596 74.15 112.841 73.875 112.321 73.325C111.811 72.775 111.556 72.005 111.556 71.015V68.9C112.696 68.9 113.536 68.865 114.076 68.795C114.626 68.715 115.026 68.555 115.276 68.315C115.526 68.065 115.686 67.675 115.756 67.145H110.881V66.155H115.816V65.885V64.535H110.881V63.53H119.041V64.535H117.106V65.9ZM120.841 65.885C120.911 64.965 121.266 64.245 121.906 63.725C122.546 63.205 123.376 62.945 124.396 62.945C125.076 62.945 125.661 63.07 126.151 63.32C126.651 63.56 127.026 63.89 127.276 64.31C127.536 64.73 127.666 65.205 127.666 65.735C127.666 66.355 127.486 66.89 127.126 67.34C126.776 67.79 126.316 68.08 125.746 68.21V68.285C126.396 68.445 126.911 68.76 127.291 69.23C127.671 69.7 127.861 70.315 127.861 71.075C127.861 71.645 127.731 72.16 127.471 72.62C127.211 73.07 126.821 73.425 126.301 73.685C125.781 73.945 125.156 74.075 124.426 74.075C123.366 74.075 122.496 73.8 121.816 73.25C121.136 72.69 120.756 71.9 120.676 70.88H121.996C122.066 71.48 122.311 71.97 122.731 72.35C123.151 72.73 123.711 72.92 124.411 72.92C125.111 72.92 125.641 72.74 126.001 72.38C126.371 72.01 126.556 71.535 126.556 70.955C126.556 70.205 126.306 69.665 125.806 69.335C125.306 69.005 124.551 68.84 123.541 68.84H123.196V67.7H123.556C124.476 67.69 125.171 67.54 125.641 67.25C126.111 66.95 126.346 66.49 126.346 65.87C126.346 65.34 126.171 64.915 125.821 64.595C125.481 64.275 124.991 64.115 124.351 64.115C123.731 64.115 123.231 64.275 122.851 64.595C122.471 64.915 122.246 65.345 122.176 65.885H120.841ZM131.644 72.11L129.964 76.145H129.049L130.144 72.11H131.644ZM135.042 71.09C135.142 71.66 135.372 72.1 135.732 72.41C136.102 72.72 136.597 72.875 137.217 72.875C138.047 72.875 138.657 72.55 139.047 71.9C139.447 71.25 139.637 70.155 139.617 68.615C139.407 69.065 139.057 69.42 138.567 69.68C138.077 69.93 137.532 70.055 136.932 70.055C136.262 70.055 135.662 69.92 135.132 69.65C134.612 69.37 134.202 68.965 133.902 68.435C133.602 67.905 133.452 67.265 133.452 66.515C133.452 65.445 133.762 64.585 134.382 63.935C135.002 63.275 135.882 62.945 137.022 62.945C138.422 62.945 139.402 63.4 139.962 64.31C140.532 65.22 140.817 66.575 140.817 68.375C140.817 69.635 140.702 70.675 140.472 71.495C140.252 72.315 139.872 72.94 139.332 73.37C138.802 73.8 138.072 74.015 137.142 74.015C136.122 74.015 135.327 73.74 134.757 73.19C134.187 72.64 133.862 71.94 133.782 71.09H135.042ZM137.157 68.9C137.827 68.9 138.377 68.695 138.807 68.285C139.237 67.865 139.452 67.3 139.452 66.59C139.452 65.84 139.242 65.235 138.822 64.775C138.402 64.315 137.812 64.085 137.052 64.085C136.352 64.085 135.792 64.305 135.372 64.745C134.962 65.185 134.757 65.765 134.757 66.485C134.757 67.215 134.962 67.8 135.372 68.24C135.782 68.68 136.377 68.9 137.157 68.9ZM144.794 71.09C144.894 71.66 145.124 72.1 145.484 72.41C145.854 72.72 146.349 72.875 146.969 72.875C147.799 72.875 148.409 72.55 148.799 71.9C149.199 71.25 149.389 70.155 149.369 68.615C149.159 69.065 148.809 69.42 148.319 69.68C147.829 69.93 147.284 70.055 146.684 70.055C146.014 70.055 145.414 69.92 144.884 69.65C144.364 69.37 143.954 68.965 143.654 68.435C143.354 67.905 143.204 67.265 143.204 66.515C143.204 65.445 143.514 64.585 144.134 63.935C144.754 63.275 145.634 62.945 146.774 62.945C148.174 62.945 149.154 63.4 149.714 64.31C150.284 65.22 150.569 66.575 150.569 68.375C150.569 69.635 150.454 70.675 150.224 71.495C150.004 72.315 149.624 72.94 149.084 73.37C148.554 73.8 147.824 74.015 146.894 74.015C145.874 74.015 145.079 73.74 144.509 73.19C143.939 72.64 143.614 71.94 143.534 71.09H144.794ZM146.909 68.9C147.579 68.9 148.129 68.695 148.559 68.285C148.989 67.865 149.204 67.3 149.204 66.59C149.204 65.84 148.994 65.235 148.574 64.775C148.154 64.315 147.564 64.085 146.804 64.085C146.104 64.085 145.544 64.305 145.124 64.745C144.714 65.185 144.509 65.765 144.509 66.485C144.509 67.215 144.714 67.8 145.124 68.24C145.534 68.68 146.129 68.9 146.909 68.9ZM158.836 65.735C158.616 64.625 157.931 64.07 156.781 64.07C155.891 64.07 155.226 64.415 154.786 65.105C154.346 65.785 154.131 66.91 154.141 68.48C154.371 67.96 154.751 67.555 155.281 67.265C155.821 66.965 156.421 66.815 157.081 66.815C158.111 66.815 158.931 67.135 159.541 67.775C160.161 68.415 160.471 69.3 160.471 70.43C160.471 71.11 160.336 71.72 160.066 72.26C159.806 72.8 159.406 73.23 158.866 73.55C158.336 73.87 157.691 74.03 156.931 74.03C155.901 74.03 155.096 73.8 154.516 73.34C153.936 72.88 153.531 72.245 153.301 71.435C153.071 70.625 152.956 69.625 152.956 68.435C152.956 64.765 154.236 62.93 156.796 62.93C157.776 62.93 158.546 63.195 159.106 63.725C159.666 64.255 159.996 64.925 160.096 65.735H158.836ZM156.796 67.97C156.366 67.97 155.961 68.06 155.581 68.24C155.201 68.41 154.891 68.675 154.651 69.035C154.421 69.385 154.306 69.815 154.306 70.325C154.306 71.085 154.526 71.705 154.966 72.185C155.406 72.655 156.036 72.89 156.856 72.89C157.556 72.89 158.111 72.675 158.521 72.245C158.941 71.805 159.151 71.215 159.151 70.475C159.151 69.695 158.951 69.085 158.551 68.645C158.151 68.195 157.566 67.97 156.796 67.97ZM163.277 74.09C163.017 74.09 162.797 74 162.617 73.82C162.437 73.64 162.347 73.42 162.347 73.16C162.347 72.9 162.437 72.68 162.617 72.5C162.797 72.32 163.017 72.23 163.277 72.23C163.527 72.23 163.737 72.32 163.907 72.5C164.087 72.68 164.177 72.9 164.177 73.16C164.177 73.42 164.087 73.64 163.907 73.82C163.737 74 163.527 74.09 163.277 74.09ZM166.071 68.465C166.071 66.745 166.351 65.405 166.911 64.445C167.471 63.475 168.451 62.99 169.851 62.99C171.241 62.99 172.216 63.475 172.776 64.445C173.336 65.405 173.616 66.745 173.616 68.465C173.616 70.215 173.336 71.575 172.776 72.545C172.216 73.515 171.241 74 169.851 74C168.451 74 167.471 73.515 166.911 72.545C166.351 71.575 166.071 70.215 166.071 68.465ZM172.266 68.465C172.266 67.595 172.206 66.86 172.086 66.26C171.976 65.65 171.741 65.16 171.381 64.79C171.031 64.42 170.521 64.235 169.851 64.235C169.171 64.235 168.651 64.42 168.291 64.79C167.941 65.16 167.706 65.65 167.586 66.26C167.476 66.86 167.421 67.595 167.421 68.465C167.421 69.365 167.476 70.12 167.586 70.73C167.706 71.34 167.941 71.83 168.291 72.2C168.651 72.57 169.171 72.755 169.851 72.755C170.521 72.755 171.031 72.57 171.381 72.2C171.741 71.83 171.976 71.34 172.086 70.73C172.206 70.12 172.266 69.365 172.266 68.465ZM175.794 68.465C175.794 66.745 176.074 65.405 176.634 64.445C177.194 63.475 178.174 62.99 179.574 62.99C180.964 62.99 181.939 63.475 182.499 64.445C183.059 65.405 183.339 66.745 183.339 68.465C183.339 70.215 183.059 71.575 182.499 72.545C181.939 73.515 180.964 74 179.574 74C178.174 74 177.194 73.515 176.634 72.545C176.074 71.575 175.794 70.215 175.794 68.465ZM181.989 68.465C181.989 67.595 181.929 66.86 181.809 66.26C181.699 65.65 181.464 65.16 181.104 64.79C180.754 64.42 180.244 64.235 179.574 64.235C178.894 64.235 178.374 64.42 178.014 64.79C177.664 65.16 177.429 65.65 177.309 66.26C177.199 66.86 177.144 67.595 177.144 68.465C177.144 69.365 177.199 70.12 177.309 70.73C177.429 71.34 177.664 71.83 178.014 72.2C178.374 72.57 178.894 72.755 179.574 72.755C180.244 72.755 180.754 72.57 181.104 72.2C181.464 71.83 181.699 71.34 181.809 70.73C181.929 70.12 181.989 69.365 181.989 68.465ZM185.307 76.79V76.655C186.337 75.595 187.117 74.36 187.647 72.95C188.187 71.54 188.457 70.06 188.457 68.51C188.457 66.92 188.172 65.39 187.602 63.92C187.042 62.44 186.202 61.175 185.082 60.125V59.99H186.507C187.557 60.96 188.362 62.195 188.922 63.695C189.492 65.185 189.777 66.79 189.777 68.51C189.777 70.19 189.507 71.755 188.967 73.205C188.437 74.655 187.692 75.85 186.732 76.79H185.307Z" fill="#5B5B5B"/>
<path d="M110.116 69.08H184.588V69.83H110.116V69.08Z" fill="#5B5B5B"/>
<path d="M2.184 85.939V95H1.001V85.939H2.184ZM7.67122 87.746C8.53789 87.746 9.23989 88.0103 9.77722 88.539C10.3146 89.059 10.5832 89.813 10.5832 90.801V95H9.41322V90.97C9.41322 90.2593 9.23555 89.7177 8.88022 89.345C8.52489 88.9637 8.03955 88.773 7.42422 88.773C6.80022 88.773 6.30189 88.968 5.92922 89.358C5.56522 89.748 5.38322 90.3157 5.38322 91.061V95H4.20022V87.876H5.38322V88.89C5.61722 88.526 5.93355 88.2443 6.33222 88.045C6.73955 87.8457 7.18589 87.746 7.67122 87.746ZM12.0736 91.425C12.0736 90.6883 12.221 90.047 12.5156 89.501C12.8103 88.9463 13.2176 88.5173 13.7376 88.214C14.2663 87.9107 14.8686 87.759 15.5446 87.759C16.42 87.759 17.1393 87.9713 17.7026 88.396C18.2746 88.8207 18.6516 89.41 18.8336 90.164H17.5596C17.4383 89.7307 17.2 89.3883 16.8446 89.137C16.498 88.8857 16.0646 88.76 15.5446 88.76C14.8686 88.76 14.3226 88.994 13.9066 89.462C13.4906 89.9213 13.2826 90.5757 13.2826 91.425C13.2826 92.283 13.4906 92.946 13.9066 93.414C14.3226 93.882 14.8686 94.116 15.5446 94.116C16.0646 94.116 16.498 93.9947 16.8446 93.752C17.1913 93.5093 17.4296 93.1627 17.5596 92.712H18.8336C18.643 93.44 18.2616 94.025 17.6896 94.467C17.1176 94.9003 16.4026 95.117 15.5446 95.117C14.8686 95.117 14.2663 94.9653 13.7376 94.662C13.2176 94.3587 12.8103 93.9297 12.5156 93.375C12.221 92.8203 12.0736 92.1703 12.0736 91.425ZM21.5951 85.38V95H20.4121V85.38H21.5951ZM29.9294 87.876V95H28.7464V93.947C28.521 94.311 28.2047 94.597 27.7974 94.805C27.3987 95.0043 26.9567 95.104 26.4714 95.104C25.9167 95.104 25.4184 94.9913 24.9764 94.766C24.5344 94.532 24.1834 94.1853 23.9234 93.726C23.672 93.2667 23.5464 92.7077 23.5464 92.049V87.876H24.7164V91.893C24.7164 92.595 24.894 93.1367 25.2494 93.518C25.6047 93.8907 26.09 94.077 26.7054 94.077C27.338 94.077 27.8364 93.882 28.2004 93.492C28.5644 93.102 28.7464 92.5343 28.7464 91.789V87.876H29.9294ZM31.4848 91.412C31.4848 90.684 31.6321 90.047 31.9268 89.501C32.2214 88.9463 32.6244 88.5173 33.1358 88.214C33.6558 87.9107 34.2364 87.759 34.8778 87.759C35.4324 87.759 35.9481 87.889 36.4248 88.149C36.9014 88.4003 37.2654 88.734 37.5168 89.15V85.38H38.7128V95H37.5168V93.661C37.2828 94.0857 36.9361 94.4367 36.4768 94.714C36.0174 94.9827 35.4801 95.117 34.8648 95.117C34.2321 95.117 33.6558 94.961 33.1358 94.649C32.6244 94.337 32.2214 93.8993 31.9268 93.336C31.6321 92.7727 31.4848 92.1313 31.4848 91.412ZM37.5168 91.425C37.5168 90.8877 37.4084 90.4197 37.1918 90.021C36.9751 89.6223 36.6804 89.319 36.3078 89.111C35.9438 88.8943 35.5408 88.786 35.0988 88.786C34.6568 88.786 34.2538 88.89 33.8898 89.098C33.5258 89.306 33.2354 89.6093 33.0188 90.008C32.8021 90.4067 32.6938 90.8747 32.6938 91.412C32.6938 91.958 32.8021 92.4347 33.0188 92.842C33.2354 93.2407 33.5258 93.5483 33.8898 93.765C34.2538 93.973 34.6568 94.077 35.0988 94.077C35.5408 94.077 35.9438 93.973 36.3078 93.765C36.6804 93.5483 36.9751 93.2407 37.1918 92.842C37.4084 92.4347 37.5168 91.9623 37.5168 91.425ZM47.2119 91.165C47.2119 91.3903 47.1989 91.6287 47.1729 91.88H41.4789C41.5223 92.582 41.7606 93.1323 42.1939 93.531C42.6359 93.921 43.1689 94.116 43.7929 94.116C44.3043 94.116 44.7289 93.999 45.0669 93.765C45.4136 93.5223 45.6563 93.2017 45.7949 92.803H47.0689C46.8783 93.4877 46.4969 94.0467 45.9249 94.48C45.3529 94.9047 44.6423 95.117 43.7929 95.117C43.1169 95.117 42.5103 94.9653 41.9729 94.662C41.4443 94.3587 41.0283 93.9297 40.7249 93.375C40.4216 92.8117 40.2699 92.1617 40.2699 91.425C40.2699 90.6883 40.4173 90.0427 40.7119 89.488C41.0066 88.9333 41.4183 88.5087 41.9469 88.214C42.4843 87.9107 43.0996 87.759 43.7929 87.759C44.4689 87.759 45.0669 87.9063 45.5869 88.201C46.1069 88.4957 46.5056 88.903 46.7829 89.423C47.0689 89.9343 47.2119 90.515 47.2119 91.165ZM45.9899 90.918C45.9899 90.4673 45.8903 90.0817 45.6909 89.761C45.4916 89.4317 45.2186 89.1847 44.8719 89.02C44.5339 88.8467 44.1569 88.76 43.7409 88.76C43.1429 88.76 42.6316 88.9507 42.2069 89.332C41.7909 89.7133 41.5526 90.242 41.4919 90.918H45.9899ZM51.2955 95.117C50.7495 95.117 50.2598 95.026 49.8265 94.844C49.3931 94.6533 49.0508 94.3933 48.7995 94.064C48.5481 93.726 48.4095 93.3403 48.3835 92.907H49.6055C49.6401 93.2623 49.8048 93.5527 50.0995 93.778C50.4028 94.0033 50.7971 94.116 51.2825 94.116C51.7331 94.116 52.0885 94.0163 52.3485 93.817C52.6085 93.6177 52.7385 93.3663 52.7385 93.063C52.7385 92.751 52.5998 92.5213 52.3225 92.374C52.0451 92.218 51.6161 92.0663 51.0355 91.919C50.5068 91.7803 50.0735 91.6417 49.7355 91.503C49.4061 91.3557 49.1201 91.1433 48.8775 90.866C48.6435 90.58 48.5265 90.2073 48.5265 89.748C48.5265 89.384 48.6348 89.0503 48.8515 88.747C49.0681 88.4437 49.3758 88.2053 49.7745 88.032C50.1731 87.85 50.6281 87.759 51.1395 87.759C51.9281 87.759 52.5651 87.9583 53.0505 88.357C53.5358 88.7557 53.7958 89.3017 53.8305 89.995H52.6475C52.6215 89.6223 52.4698 89.3233 52.1925 89.098C51.9238 88.8727 51.5598 88.76 51.1005 88.76C50.6758 88.76 50.3378 88.851 50.0865 89.033C49.8351 89.215 49.7095 89.4533 49.7095 89.748C49.7095 89.982 49.7831 90.177 49.9305 90.333C50.0865 90.4803 50.2771 90.6017 50.5025 90.697C50.7365 90.7837 51.0571 90.8833 51.4645 90.996C51.9758 91.1347 52.3918 91.2733 52.7125 91.412C53.0331 91.542 53.3061 91.7413 53.5315 92.01C53.7655 92.2787 53.8868 92.6297 53.8955 93.063C53.8955 93.453 53.7871 93.804 53.5705 94.116C53.3538 94.428 53.0461 94.675 52.6475 94.857C52.2575 95.0303 51.8068 95.117 51.2955 95.117ZM64.1533 85.939V86.901H60.2143V89.956H63.4123V90.918H60.2143V95H59.0313V85.939H64.1533ZM70.3531 95L68.1951 91.295H66.7651V95H65.5821V85.939H68.5071C69.1917 85.939 69.7681 86.056 70.2361 86.29C70.7127 86.524 71.0681 86.8403 71.3021 87.239C71.5361 87.6377 71.6531 88.0927 71.6531 88.604C71.6531 89.228 71.4711 89.7783 71.1071 90.255C70.7517 90.7317 70.2144 91.048 69.4951 91.204L71.7701 95H70.3531ZM66.7651 90.346H68.5071C69.1484 90.346 69.6294 90.19 69.9501 89.878C70.2707 89.5573 70.4311 89.1327 70.4311 88.604C70.4311 88.0667 70.2707 87.6507 69.9501 87.356C69.6381 87.0613 69.1571 86.914 68.5071 86.914H66.7651V90.346ZM74.6742 86.901V89.93H77.9762V90.905H74.6742V94.025H78.3662V95H73.4912V85.926H78.3662V86.901H74.6742ZM81.3393 86.901V89.93H84.6413V90.905H81.3393V94.025H85.0313V95H80.1563V85.926H85.0313V86.901H81.3393ZM89.8451 90.463C89.8451 89.579 90.0445 88.786 90.4431 88.084C90.8418 87.3733 91.3835 86.8187 92.0681 86.42C92.7615 86.0213 93.5285 85.822 94.3691 85.822C95.3571 85.822 96.2195 86.0603 96.9561 86.537C97.6928 87.0137 98.2301 87.6897 98.5681 88.565H97.1511C96.8998 88.019 96.5358 87.5987 96.0591 87.304C95.5911 87.0093 95.0278 86.862 94.3691 86.862C93.7365 86.862 93.1688 87.0093 92.6661 87.304C92.1635 87.5987 91.7691 88.019 91.4831 88.565C91.1971 89.1023 91.0541 89.735 91.0541 90.463C91.0541 91.1823 91.1971 91.815 91.4831 92.361C91.7691 92.8983 92.1635 93.3143 92.6661 93.609C93.1688 93.9037 93.7365 94.051 94.3691 94.051C95.0278 94.051 95.5911 93.908 96.0591 93.622C96.5358 93.3273 96.8998 92.907 97.1511 92.361H98.5681C98.2301 93.2277 97.6928 93.8993 96.9561 94.376C96.2195 94.844 95.3571 95.078 94.3691 95.078C93.5285 95.078 92.7615 94.883 92.0681 94.493C91.3835 94.0943 90.8418 93.544 90.4431 92.842C90.0445 92.14 89.8451 91.347 89.8451 90.463ZM103.865 87.746C104.402 87.746 104.888 87.863 105.321 88.097C105.754 88.3223 106.092 88.6647 106.335 89.124C106.586 89.5833 106.712 90.1423 106.712 90.801V95H105.542V90.97C105.542 90.2593 105.364 89.7177 105.009 89.345C104.654 88.9637 104.168 88.773 103.553 88.773C102.929 88.773 102.431 88.968 102.058 89.358C101.694 89.748 101.512 90.3157 101.512 91.061V95H100.329V85.38H101.512V88.89C101.746 88.526 102.067 88.2443 102.474 88.045C102.89 87.8457 103.354 87.746 103.865 87.746ZM108.203 91.412C108.203 90.684 108.35 90.047 108.645 89.501C108.939 88.9463 109.342 88.5173 109.854 88.214C110.374 87.9107 110.95 87.759 111.583 87.759C112.207 87.759 112.748 87.8933 113.208 88.162C113.667 88.4307 114.009 88.7687 114.235 89.176V87.876H115.431V95H114.235V93.674C114.001 94.09 113.65 94.4367 113.182 94.714C112.722 94.9827 112.185 95.117 111.57 95.117C110.937 95.117 110.365 94.961 109.854 94.649C109.342 94.337 108.939 93.8993 108.645 93.336C108.35 92.7727 108.203 92.1313 108.203 91.412ZM114.235 91.425C114.235 90.8877 114.126 90.4197 113.91 90.021C113.693 89.6223 113.398 89.319 113.026 89.111C112.662 88.8943 112.259 88.786 111.817 88.786C111.375 88.786 110.972 88.89 110.608 89.098C110.244 89.306 109.953 89.6093 109.737 90.008C109.52 90.4067 109.412 90.8747 109.412 91.412C109.412 91.958 109.52 92.4347 109.737 92.842C109.953 93.2407 110.244 93.5483 110.608 93.765C110.972 93.973 111.375 94.077 111.817 94.077C112.259 94.077 112.662 93.973 113.026 93.765C113.398 93.5483 113.693 93.2407 113.91 92.842C114.126 92.4347 114.235 91.9623 114.235 91.425ZM118.613 89.033C118.821 88.6257 119.115 88.3093 119.497 88.084C119.887 87.8587 120.359 87.746 120.914 87.746V88.968H120.602C119.276 88.968 118.613 89.6873 118.613 91.126V95H117.43V87.876H118.613V89.033ZM125.217 87.759C125.833 87.759 126.37 87.8933 126.829 88.162C127.297 88.4307 127.644 88.7687 127.869 89.176V87.876H129.065V95.156C129.065 95.806 128.927 96.3823 128.649 96.885C128.372 97.3963 127.973 97.795 127.453 98.081C126.942 98.367 126.344 98.51 125.659 98.51C124.723 98.51 123.943 98.289 123.319 97.847C122.695 97.405 122.327 96.8027 122.214 96.04H123.384C123.514 96.4733 123.783 96.82 124.19 97.08C124.598 97.3487 125.087 97.483 125.659 97.483C126.309 97.483 126.838 97.2793 127.245 96.872C127.661 96.4647 127.869 95.8927 127.869 95.156V93.661C127.635 94.077 127.289 94.4237 126.829 94.701C126.37 94.9783 125.833 95.117 125.217 95.117C124.585 95.117 124.008 94.961 123.488 94.649C122.977 94.337 122.574 93.8993 122.279 93.336C121.985 92.7727 121.837 92.1313 121.837 91.412C121.837 90.684 121.985 90.047 122.279 89.501C122.574 88.9463 122.977 88.5173 123.488 88.214C124.008 87.9107 124.585 87.759 125.217 87.759ZM127.869 91.425C127.869 90.8877 127.761 90.4197 127.544 90.021C127.328 89.6223 127.033 89.319 126.66 89.111C126.296 88.8943 125.893 88.786 125.451 88.786C125.009 88.786 124.606 88.89 124.242 89.098C123.878 89.306 123.588 89.6093 123.371 90.008C123.155 90.4067 123.046 90.8747 123.046 91.412C123.046 91.958 123.155 92.4347 123.371 92.842C123.588 93.2407 123.878 93.5483 124.242 93.765C124.606 93.973 125.009 94.077 125.451 94.077C125.893 94.077 126.296 93.973 126.66 93.765C127.033 93.5483 127.328 93.2407 127.544 92.842C127.761 92.4347 127.869 91.9623 127.869 91.425ZM131.675 86.719C131.45 86.719 131.259 86.641 131.103 86.485C130.947 86.329 130.869 86.1383 130.869 85.913C130.869 85.6877 130.947 85.497 131.103 85.341C131.259 85.185 131.45 85.107 131.675 85.107C131.892 85.107 132.074 85.185 132.221 85.341C132.377 85.497 132.455 85.6877 132.455 85.913C132.455 86.1383 132.377 86.329 132.221 86.485C132.074 86.641 131.892 86.719 131.675 86.719ZM132.247 87.876V95H131.064V87.876H132.247ZM137.735 87.746C138.601 87.746 139.303 88.0103 139.841 88.539C140.378 89.059 140.647 89.813 140.647 90.801V95H139.477V90.97C139.477 90.2593 139.299 89.7177 138.944 89.345C138.588 88.9637 138.103 88.773 137.488 88.773C136.864 88.773 136.365 88.968 135.993 89.358C135.629 89.748 135.447 90.3157 135.447 91.061V95H134.264V87.876H135.447V88.89C135.681 88.526 135.997 88.2443 136.396 88.045C136.803 87.8457 137.249 87.746 137.735 87.746ZM145.517 87.759C146.132 87.759 146.67 87.8933 147.129 88.162C147.597 88.4307 147.944 88.7687 148.169 89.176V87.876H149.365V95.156C149.365 95.806 149.226 96.3823 148.949 96.885C148.672 97.3963 148.273 97.795 147.753 98.081C147.242 98.367 146.644 98.51 145.959 98.51C145.023 98.51 144.243 98.289 143.619 97.847C142.995 97.405 142.627 96.8027 142.514 96.04H143.684C143.814 96.4733 144.083 96.82 144.49 97.08C144.897 97.3487 145.387 97.483 145.959 97.483C146.609 97.483 147.138 97.2793 147.545 96.872C147.961 96.4647 148.169 95.8927 148.169 95.156V93.661C147.935 94.077 147.588 94.4237 147.129 94.701C146.67 94.9783 146.132 95.117 145.517 95.117C144.884 95.117 144.308 94.961 143.788 94.649C143.277 94.337 142.874 93.8993 142.579 93.336C142.284 92.7727 142.137 92.1313 142.137 91.412C142.137 90.684 142.284 90.047 142.579 89.501C142.874 88.9463 143.277 88.5173 143.788 88.214C144.308 87.9107 144.884 87.759 145.517 87.759ZM148.169 91.425C148.169 90.8877 148.061 90.4197 147.844 90.021C147.627 89.6223 147.333 89.319 146.96 89.111C146.596 88.8943 146.193 88.786 145.751 88.786C145.309 88.786 144.906 88.89 144.542 89.098C144.178 89.306 143.888 89.6093 143.671 90.008C143.454 90.4067 143.346 90.8747 143.346 91.412C143.346 91.958 143.454 92.4347 143.671 92.842C143.888 93.2407 144.178 93.5483 144.542 93.765C144.906 93.973 145.309 94.077 145.751 94.077C146.193 94.077 146.596 93.973 146.96 93.765C147.333 93.5483 147.627 93.2407 147.844 92.842C148.061 92.4347 148.169 91.9623 148.169 91.425ZM154.388 90.463C154.388 89.579 154.587 88.786 154.986 88.084C155.385 87.3733 155.926 86.8187 156.611 86.42C157.304 86.0213 158.071 85.822 158.912 85.822C159.9 85.822 160.762 86.0603 161.499 86.537C162.236 87.0137 162.773 87.6897 163.111 88.565H161.694C161.443 88.019 161.079 87.5987 160.602 87.304C160.134 87.0093 159.571 86.862 158.912 86.862C158.279 86.862 157.712 87.0093 157.209 87.304C156.706 87.5987 156.312 88.019 156.026 88.565C155.74 89.1023 155.597 89.735 155.597 90.463C155.597 91.1823 155.74 91.815 156.026 92.361C156.312 92.8983 156.706 93.3143 157.209 93.609C157.712 93.9037 158.279 94.051 158.912 94.051C159.571 94.051 160.134 93.908 160.602 93.622C161.079 93.3273 161.443 92.907 161.694 92.361H163.111C162.773 93.2277 162.236 93.8993 161.499 94.376C160.762 94.844 159.9 95.078 158.912 95.078C158.071 95.078 157.304 94.883 156.611 94.493C155.926 94.0943 155.385 93.544 154.986 92.842C154.587 92.14 154.388 91.347 154.388 90.463ZM164.43 91.412C164.43 90.684 164.577 90.047 164.872 89.501C165.167 88.9463 165.57 88.5173 166.081 88.214C166.601 87.9107 167.177 87.759 167.81 87.759C168.434 87.759 168.976 87.8933 169.435 88.162C169.894 88.4307 170.237 88.7687 170.462 89.176V87.876H171.658V95H170.462V93.674C170.228 94.09 169.877 94.4367 169.409 94.714C168.95 94.9827 168.412 95.117 167.797 95.117C167.164 95.117 166.592 94.961 166.081 94.649C165.57 94.337 165.167 93.8993 164.872 93.336C164.577 92.7727 164.43 92.1313 164.43 91.412ZM170.462 91.425C170.462 90.8877 170.354 90.4197 170.137 90.021C169.92 89.6223 169.626 89.319 169.253 89.111C168.889 88.8943 168.486 88.786 168.044 88.786C167.602 88.786 167.199 88.89 166.835 89.098C166.471 89.306 166.181 89.6093 165.964 90.008C165.747 90.4067 165.639 90.8747 165.639 91.412C165.639 91.958 165.747 92.4347 165.964 92.842C166.181 93.2407 166.471 93.5483 166.835 93.765C167.199 93.973 167.602 94.077 168.044 94.077C168.486 94.077 168.889 93.973 169.253 93.765C169.626 93.5483 169.92 93.2407 170.137 92.842C170.354 92.4347 170.462 91.9623 170.462 91.425ZM174.84 89.202C175.083 88.7773 175.438 88.4307 175.906 88.162C176.374 87.8933 176.907 87.759 177.505 87.759C178.147 87.759 178.723 87.9107 179.234 88.214C179.746 88.5173 180.149 88.9463 180.443 89.501C180.738 90.047 180.885 90.684 180.885 91.412C180.885 92.1313 180.738 92.7727 180.443 93.336C180.149 93.8993 179.741 94.337 179.221 94.649C178.71 94.961 178.138 95.117 177.505 95.117C176.89 95.117 176.348 94.9827 175.88 94.714C175.421 94.4453 175.074 94.103 174.84 93.687V95H173.657V85.38H174.84V89.202ZM179.676 91.412C179.676 90.8747 179.568 90.4067 179.351 90.008C179.135 89.6093 178.84 89.306 178.467 89.098C178.103 88.89 177.7 88.786 177.258 88.786C176.825 88.786 176.422 88.8943 176.049 89.111C175.685 89.319 175.391 89.6267 175.165 90.034C174.949 90.4327 174.84 90.8963 174.84 91.425C174.84 91.9623 174.949 92.4347 175.165 92.842C175.391 93.2407 175.685 93.5483 176.049 93.765C176.422 93.973 176.825 94.077 177.258 94.077C177.7 94.077 178.103 93.973 178.467 93.765C178.84 93.5483 179.135 93.2407 179.351 92.842C179.568 92.4347 179.676 91.958 179.676 91.412ZM183.625 85.38V95H182.442V85.38H183.625ZM192.142 91.165C192.142 91.3903 192.129 91.6287 192.103 91.88H186.409C186.452 92.582 186.69 93.1323 187.124 93.531C187.566 93.921 188.099 94.116 188.723 94.116C189.234 94.116 189.659 93.999 189.997 93.765C190.343 93.5223 190.586 93.2017 190.725 92.803H191.999C191.808 93.4877 191.427 94.0467 190.855 94.48C190.283 94.9047 189.572 95.117 188.723 95.117C188.047 95.117 187.44 94.9653 186.903 94.662C186.374 94.3587 185.958 93.9297 185.655 93.375C185.351 92.8117 185.2 92.1617 185.2 91.425C185.2 90.6883 185.347 90.0427 185.642 89.488C185.936 88.9333 186.348 88.5087 186.877 88.214C187.414 87.9107 188.029 87.759 188.723 87.759C189.399 87.759 189.997 87.9063 190.517 88.201C191.037 88.4957 191.435 88.903 191.713 89.423C191.999 89.9343 192.142 90.515 192.142 91.165ZM190.92 90.918C190.92 90.4673 190.82 90.0817 190.621 89.761C190.421 89.4317 190.148 89.1847 189.802 89.02C189.464 88.8467 189.087 88.76 188.671 88.76C188.073 88.76 187.561 88.9507 187.137 89.332C186.721 89.7133 186.482 90.242 186.422 90.918H190.92ZM194.925 93.362L193.469 96.859H192.676L193.625 93.362H194.925ZM205.323 85.939V86.901H202.853V95H201.67V86.901H199.187V85.939H205.323ZM206.337 91.412C206.337 90.684 206.485 90.047 206.779 89.501C207.074 88.9463 207.477 88.5173 207.988 88.214C208.508 87.9107 209.085 87.759 209.717 87.759C210.341 87.759 210.883 87.8933 211.342 88.162C211.802 88.4307 212.144 88.7687 212.369 89.176V87.876H213.565V95H212.369V93.674C212.135 94.09 211.784 94.4367 211.316 94.714C210.857 94.9827 210.32 95.117 209.704 95.117C209.072 95.117 208.5 94.961 207.988 94.649C207.477 94.337 207.074 93.8993 206.779 93.336C206.485 92.7727 206.337 92.1313 206.337 91.412ZM212.369 91.425C212.369 90.8877 212.261 90.4197 212.044 90.021C211.828 89.6223 211.533 89.319 211.16 89.111C210.796 88.8943 210.393 88.786 209.951 88.786C209.509 88.786 209.106 88.89 208.742 89.098C208.378 89.306 208.088 89.6093 207.871 90.008C207.655 90.4067 207.546 90.8747 207.546 91.412C207.546 91.958 207.655 92.4347 207.871 92.842C208.088 93.2407 208.378 93.5483 208.742 93.765C209.106 93.973 209.509 94.077 209.951 94.077C210.393 94.077 210.796 93.973 211.16 93.765C211.533 93.5483 211.828 93.2407 212.044 92.842C212.261 92.4347 212.369 91.9623 212.369 91.425ZM218.502 87.759C219.118 87.759 219.655 87.8933 220.114 88.162C220.582 88.4307 220.929 88.7687 221.154 89.176V87.876H222.35V95.156C222.35 95.806 222.212 96.3823 221.934 96.885C221.657 97.3963 221.258 97.795 220.738 98.081C220.227 98.367 219.629 98.51 218.944 98.51C218.008 98.51 217.228 98.289 216.604 97.847C215.98 97.405 215.612 96.8027 215.499 96.04H216.669C216.799 96.4733 217.068 96.82 217.475 97.08C217.883 97.3487 218.372 97.483 218.944 97.483C219.594 97.483 220.123 97.2793 220.53 96.872C220.946 96.4647 221.154 95.8927 221.154 95.156V93.661C220.92 94.077 220.574 94.4237 220.114 94.701C219.655 94.9783 219.118 95.117 218.502 95.117C217.87 95.117 217.293 94.961 216.773 94.649C216.262 94.337 215.859 93.8993 215.564 93.336C215.27 92.7727 215.122 92.1313 215.122 91.412C215.122 90.684 215.27 90.047 215.564 89.501C215.859 88.9463 216.262 88.5173 216.773 88.214C217.293 87.9107 217.87 87.759 218.502 87.759ZM221.154 91.425C221.154 90.8877 221.046 90.4197 220.829 90.021C220.613 89.6223 220.318 89.319 219.945 89.111C219.581 88.8943 219.178 88.786 218.736 88.786C218.294 88.786 217.891 88.89 217.527 89.098C217.163 89.306 216.873 89.6093 216.656 90.008C216.44 90.4067 216.331 90.8747 216.331 91.412C216.331 91.958 216.44 92.4347 216.656 92.842C216.873 93.2407 217.163 93.5483 217.527 93.765C217.891 93.973 218.294 94.077 218.736 94.077C219.178 94.077 219.581 93.973 219.945 93.765C220.318 93.5483 220.613 93.2407 220.829 92.842C221.046 92.4347 221.154 91.9623 221.154 91.425ZM234.77 95L233.587 93.804C233.145 94.2633 232.673 94.6057 232.17 94.831C231.668 95.0477 231.1 95.156 230.467 95.156C229.843 95.156 229.289 95.0433 228.803 94.818C228.327 94.5927 227.954 94.272 227.685 93.856C227.425 93.44 227.295 92.9547 227.295 92.4C227.295 91.7673 227.473 91.2127 227.828 90.736C228.192 90.2507 228.725 89.8693 229.427 89.592C229.15 89.2627 228.951 88.9593 228.829 88.682C228.708 88.4047 228.647 88.1013 228.647 87.772C228.647 87.3907 228.743 87.0483 228.933 86.745C229.133 86.433 229.414 86.1903 229.778 86.017C230.142 85.8437 230.563 85.757 231.039 85.757C231.507 85.757 231.915 85.848 232.261 86.03C232.608 86.212 232.868 86.4677 233.041 86.797C233.215 87.1177 233.293 87.4773 233.275 87.876H232.092C232.101 87.5207 232.001 87.2433 231.793 87.044C231.585 86.836 231.317 86.732 230.987 86.732C230.641 86.732 230.359 86.8317 230.142 87.031C229.934 87.2217 229.83 87.4687 229.83 87.772C229.83 88.032 229.9 88.2833 230.038 88.526C230.186 88.7687 230.428 89.0677 230.766 89.423L233.47 92.14L233.704 91.776L234.588 90.294H235.862L234.796 92.14C234.649 92.4 234.476 92.673 234.276 92.959L236.317 95H234.77ZM230.467 94.142C230.935 94.142 231.356 94.051 231.728 93.869C232.11 93.687 232.469 93.4053 232.807 93.024L230.142 90.346C229.033 90.7707 228.478 91.4423 228.478 92.361C228.478 92.8723 228.66 93.297 229.024 93.635C229.397 93.973 229.878 94.142 230.467 94.142ZM243.765 95.091C243.167 95.091 242.629 94.987 242.153 94.779C241.685 94.5623 241.316 94.2677 241.048 93.895C240.779 93.5137 240.64 93.076 240.632 92.582H241.893C241.936 93.0067 242.109 93.3663 242.413 93.661C242.725 93.947 243.175 94.09 243.765 94.09C244.328 94.09 244.77 93.9513 245.091 93.674C245.42 93.388 245.585 93.024 245.585 92.582C245.585 92.2353 245.489 91.9537 245.299 91.737C245.108 91.5203 244.87 91.3557 244.584 91.243C244.298 91.1303 243.912 91.009 243.427 90.879C242.829 90.723 242.348 90.567 241.984 90.411C241.628 90.255 241.321 90.0123 241.061 89.683C240.809 89.345 240.684 88.8943 240.684 88.331C240.684 87.837 240.809 87.3993 241.061 87.018C241.312 86.6367 241.663 86.342 242.114 86.134C242.573 85.926 243.097 85.822 243.687 85.822C244.536 85.822 245.229 86.0343 245.767 86.459C246.313 86.8837 246.62 87.447 246.69 88.149H245.39C245.346 87.8023 245.164 87.499 244.844 87.239C244.523 86.9703 244.098 86.836 243.57 86.836C243.076 86.836 242.673 86.966 242.361 87.226C242.049 87.4773 241.893 87.8327 241.893 88.292C241.893 88.6213 241.984 88.89 242.166 89.098C242.356 89.306 242.586 89.4663 242.855 89.579C243.132 89.683 243.518 89.8043 244.012 89.943C244.61 90.1077 245.091 90.2723 245.455 90.437C245.819 90.593 246.131 90.84 246.391 91.178C246.651 91.5073 246.781 91.958 246.781 92.53C246.781 92.972 246.664 93.388 246.43 93.778C246.196 94.168 245.849 94.4843 245.39 94.727C244.93 94.9697 244.389 95.091 243.765 95.091ZM249.965 88.851V93.05C249.965 93.3967 250.038 93.6437 250.186 93.791C250.333 93.9297 250.589 93.999 250.953 93.999H251.824V95H250.758C250.099 95 249.605 94.8483 249.276 94.545C248.946 94.2417 248.782 93.7433 248.782 93.05V88.851H247.859V87.876H248.782V86.082H249.965V87.876H251.824V88.851H249.965ZM253.868 86.719C253.643 86.719 253.452 86.641 253.296 86.485C253.14 86.329 253.062 86.1383 253.062 85.913C253.062 85.6877 253.14 85.497 253.296 85.341C253.452 85.185 253.643 85.107 253.868 85.107C254.085 85.107 254.267 85.185 254.414 85.341C254.57 85.497 254.648 85.6877 254.648 85.913C254.648 86.1383 254.57 86.329 254.414 86.485C254.267 86.641 254.085 86.719 253.868 86.719ZM254.44 87.876V95H253.257V87.876H254.44ZM256.014 91.425C256.014 90.6883 256.161 90.047 256.456 89.501C256.751 88.9463 257.158 88.5173 257.678 88.214C258.207 87.9107 258.809 87.759 259.485 87.759C260.36 87.759 261.08 87.9713 261.643 88.396C262.215 88.8207 262.592 89.41 262.774 90.164H261.5C261.379 89.7307 261.14 89.3883 260.785 89.137C260.438 88.8857 260.005 88.76 259.485 88.76C258.809 88.76 258.263 88.994 257.847 89.462C257.431 89.9213 257.223 90.5757 257.223 91.425C257.223 92.283 257.431 92.946 257.847 93.414C258.263 93.882 258.809 94.116 259.485 94.116C260.005 94.116 260.438 93.9947 260.785 93.752C261.132 93.5093 261.37 93.1627 261.5 92.712H262.774C262.583 93.44 262.202 94.025 261.63 94.467C261.058 94.9003 260.343 95.117 259.485 95.117C258.809 95.117 258.207 94.9653 257.678 94.662C257.158 94.3587 256.751 93.9297 256.456 93.375C256.161 92.8203 256.014 92.1703 256.014 91.425ZM268.331 95L265.536 91.854V95H264.353V85.38H265.536V91.035L268.279 87.876H269.93L266.576 91.425L269.943 95H268.331ZM277.543 91.165C277.543 91.3903 277.53 91.6287 277.504 91.88H271.81C271.853 92.582 272.092 93.1323 272.525 93.531C272.967 93.921 273.5 94.116 274.124 94.116C274.635 94.116 275.06 93.999 275.398 93.765C275.745 93.5223 275.987 93.2017 276.126 92.803H277.4C277.209 93.4877 276.828 94.0467 276.256 94.48C275.684 94.9047 274.973 95.117 274.124 95.117C273.448 95.117 272.841 94.9653 272.304 94.662C271.775 94.3587 271.359 93.9297 271.056 93.375C270.753 92.8117 270.601 92.1617 270.601 91.425C270.601 90.6883 270.748 90.0427 271.043 89.488C271.338 88.9333 271.749 88.5087 272.278 88.214C272.815 87.9107 273.431 87.759 274.124 87.759C274.8 87.759 275.398 87.9063 275.918 88.201C276.438 88.4957 276.837 88.903 277.114 89.423C277.4 89.9343 277.543 90.515 277.543 91.165ZM276.321 90.918C276.321 90.4673 276.221 90.0817 276.022 89.761C275.823 89.4317 275.55 89.1847 275.203 89.02C274.865 88.8467 274.488 88.76 274.072 88.76C273.474 88.76 272.963 88.9507 272.538 89.332C272.122 89.7133 271.884 90.242 271.823 90.918H276.321ZM280.288 89.033C280.496 88.6257 280.79 88.3093 281.172 88.084C281.562 87.8587 282.034 87.746 282.589 87.746V88.968H282.277C280.951 88.968 280.288 89.6873 280.288 91.126V95H279.105V87.876H280.288V89.033Z" fill="#5B5B5B"/>
<path d="M4.354 44.604C3.458 43.7267 2.758 42.6113 2.254 41.258C1.75933 39.9047 1.512 38.444 1.512 36.876C1.512 35.2707 1.77333 33.7727 2.296 32.382C2.828 30.982 3.584 29.8293 4.564 28.924H5.894V29.05C4.84867 30.03 4.06 31.2107 3.528 32.592C3.00533 33.964 2.744 35.392 2.744 36.876C2.744 38.3227 2.99133 39.704 3.486 41.02C3.99 42.336 4.72267 43.4887 5.684 44.478V44.604H4.354ZM13.8587 32.242V33.278H11.1987V42H9.92472V33.278H7.25072V32.242H13.8587ZM15.3682 38.136C15.3682 37.352 15.5269 36.666 15.8442 36.078C16.1616 35.4807 16.5956 35.0187 17.1462 34.692C17.7062 34.3653 18.3269 34.202 19.0082 34.202C19.6802 34.202 20.2636 34.3467 20.7582 34.636C21.2529 34.9253 21.6216 35.2893 21.8642 35.728V34.328H23.1522V42H21.8642V40.572C21.6122 41.02 21.2342 41.3933 20.7302 41.692C20.2356 41.9813 19.6569 42.126 18.9942 42.126C18.3129 42.126 17.6969 41.958 17.1462 41.622C16.5956 41.286 16.1616 40.8147 15.8442 40.208C15.5269 39.6013 15.3682 38.9107 15.3682 38.136ZM21.8642 38.15C21.8642 37.5713 21.7476 37.0673 21.5142 36.638C21.2809 36.2087 20.9636 35.882 20.5622 35.658C20.1702 35.4247 19.7362 35.308 19.2602 35.308C18.7842 35.308 18.3502 35.42 17.9582 35.644C17.5662 35.868 17.2536 36.1947 17.0202 36.624C16.7869 37.0533 16.6702 37.5573 16.6702 38.136C16.6702 38.724 16.7869 39.2373 17.0202 39.676C17.2536 40.1053 17.5662 40.4367 17.9582 40.67C18.3502 40.894 18.7842 41.006 19.2602 41.006C19.7362 41.006 20.1702 40.894 20.5622 40.67C20.9636 40.4367 21.2809 40.1053 21.5142 39.676C21.7476 39.2373 21.8642 38.7287 21.8642 38.15ZM28.8865 34.202C29.5491 34.202 30.1278 34.3467 30.6225 34.636C31.1265 34.9253 31.4998 35.2893 31.7425 35.728V34.328H33.0305V42.168C33.0305 42.868 32.8811 43.4887 32.5825 44.03C32.2838 44.5807 31.8545 45.01 31.2945 45.318C30.7438 45.626 30.0998 45.78 29.3625 45.78C28.3545 45.78 27.5145 45.542 26.8425 45.066C26.1705 44.59 25.7738 43.9413 25.6525 43.12H26.9125C27.0525 43.5867 27.3418 43.96 27.7805 44.24C28.2191 44.5293 28.7465 44.674 29.3625 44.674C30.0625 44.674 30.6318 44.4547 31.0705 44.016C31.5185 43.5773 31.7425 42.9613 31.7425 42.168V40.558C31.4905 41.006 31.1171 41.3793 30.6225 41.678C30.1278 41.9767 29.5491 42.126 28.8865 42.126C28.2051 42.126 27.5845 41.958 27.0245 41.622C26.4738 41.286 26.0398 40.8147 25.7225 40.208C25.4051 39.6013 25.2465 38.9107 25.2465 38.136C25.2465 37.352 25.4051 36.666 25.7225 36.078C26.0398 35.4807 26.4738 35.0187 27.0245 34.692C27.5845 34.3653 28.2051 34.202 28.8865 34.202ZM31.7425 38.15C31.7425 37.5713 31.6258 37.0673 31.3925 36.638C31.1591 36.2087 30.8418 35.882 30.4405 35.658C30.0485 35.4247 29.6145 35.308 29.1385 35.308C28.6625 35.308 28.2285 35.42 27.8365 35.644C27.4445 35.868 27.1318 36.1947 26.8985 36.624C26.6651 37.0533 26.5485 37.5573 26.5485 38.136C26.5485 38.724 26.6651 39.2373 26.8985 39.676C27.1318 40.1053 27.4445 40.4367 27.8365 40.67C28.2285 40.894 28.6625 41.006 29.1385 41.006C29.6145 41.006 30.0485 40.894 30.4405 40.67C30.8418 40.4367 31.1591 40.1053 31.3925 39.676C31.6258 39.2373 31.7425 38.7287 31.7425 38.15ZM42.8807 37.422H39.8987V40.446H38.7087V37.422H35.7407V36.344H38.7087V33.306H39.8987V36.344H42.8807V37.422ZM48.6687 42.098C48.0247 42.098 47.446 41.986 46.9327 41.762C46.4287 41.5287 46.032 41.2113 45.7427 40.81C45.4533 40.3993 45.304 39.928 45.2947 39.396H46.6527C46.6993 39.8533 46.886 40.2407 47.2127 40.558C47.5487 40.866 48.034 41.02 48.6687 41.02C49.2753 41.02 49.7513 40.8707 50.0967 40.572C50.4513 40.264 50.6287 39.872 50.6287 39.396C50.6287 39.0227 50.526 38.7193 50.3207 38.486C50.1153 38.2527 49.8587 38.0753 49.5507 37.954C49.2427 37.8327 48.8273 37.702 48.3047 37.562C47.6607 37.394 47.1427 37.226 46.7507 37.058C46.368 36.89 46.0367 36.6287 45.7567 36.274C45.486 35.91 45.3507 35.4247 45.3507 34.818C45.3507 34.286 45.486 33.8147 45.7567 33.404C46.0273 32.9933 46.4053 32.676 46.8907 32.452C47.3853 32.228 47.95 32.116 48.5847 32.116C49.4993 32.116 50.246 32.3447 50.8247 32.802C51.4127 33.2593 51.744 33.866 51.8187 34.622H50.4187C50.372 34.2487 50.176 33.922 49.8307 33.642C49.4853 33.3527 49.028 33.208 48.4587 33.208C47.9267 33.208 47.4927 33.348 47.1567 33.628C46.8207 33.8987 46.6527 34.2813 46.6527 34.776C46.6527 35.1307 46.7507 35.42 46.9467 35.644C47.152 35.868 47.3993 36.0407 47.6887 36.162C47.9873 36.274 48.4027 36.4047 48.9347 36.554C49.5787 36.7313 50.0967 36.9087 50.4887 37.086C50.8807 37.254 51.2167 37.52 51.4967 37.884C51.7767 38.2387 51.9167 38.724 51.9167 39.34C51.9167 39.816 51.7907 40.264 51.5387 40.684C51.2867 41.104 50.9133 41.4447 50.4187 41.706C49.924 41.9673 49.3407 42.098 48.6687 42.098ZM55.7628 35.378V39.9C55.7628 40.2733 55.8421 40.5393 56.0008 40.698C56.1594 40.8473 56.4348 40.922 56.8268 40.922H57.7648V42H56.6168C55.9074 42 55.3754 41.8367 55.0208 41.51C54.6661 41.1833 54.4888 40.6467 54.4888 39.9V35.378H53.4948V34.328H54.4888V32.396H55.7628V34.328H57.7648V35.378H55.7628ZM60.3837 33.082C60.141 33.082 59.9357 32.998 59.7677 32.83C59.5997 32.662 59.5157 32.4567 59.5157 32.214C59.5157 31.9713 59.5997 31.766 59.7677 31.598C59.9357 31.43 60.141 31.346 60.3837 31.346C60.617 31.346 60.813 31.43 60.9717 31.598C61.1397 31.766 61.2237 31.9713 61.2237 32.214C61.2237 32.4567 61.1397 32.662 60.9717 32.83C60.813 32.998 60.617 33.082 60.3837 33.082ZM60.9997 34.328V42H59.7257V34.328H60.9997ZM63.1123 38.15C63.1123 37.3567 63.2709 36.666 63.5883 36.078C63.9056 35.4807 64.3443 35.0187 64.9043 34.692C65.4736 34.3653 66.1223 34.202 66.8503 34.202C67.7929 34.202 68.5676 34.4307 69.1743 34.888C69.7903 35.3453 70.1963 35.98 70.3923 36.792H69.0203C68.8896 36.3253 68.6329 35.9567 68.2503 35.686C67.8769 35.4153 67.4103 35.28 66.8503 35.28C66.1223 35.28 65.5343 35.532 65.0863 36.036C64.6383 36.5307 64.4143 37.2353 64.4143 38.15C64.4143 39.074 64.6383 39.788 65.0863 40.292C65.5343 40.796 66.1223 41.048 66.8503 41.048C67.4103 41.048 67.8769 40.9173 68.2503 40.656C68.6236 40.3947 68.8803 40.0213 69.0203 39.536H70.3923C70.1869 40.32 69.7763 40.95 69.1603 41.426C68.5443 41.8927 67.7743 42.126 66.8503 42.126C66.1223 42.126 65.4736 41.9627 64.9043 41.636C64.3443 41.3093 63.9056 40.8473 63.5883 40.25C63.2709 39.6527 63.1123 38.9527 63.1123 38.15ZM76.7935 42L73.7835 38.612V42H72.5095V31.64H73.7835V37.73L76.7375 34.328H78.5155L74.9035 38.15L78.5295 42H76.7935ZM87.4119 37.422H84.4299V40.446H83.2399V37.422H80.2719V36.344H83.2399V33.306H84.4299V36.344H87.4119V37.422ZM96.6298 35.098C96.6298 35.91 96.3498 36.5867 95.7898 37.128C95.2391 37.66 94.3945 37.926 93.2558 37.926H91.3798V42H90.1058V32.242H93.2558C94.3571 32.242 95.1925 32.508 95.7618 33.04C96.3405 33.572 96.6298 34.258 96.6298 35.098ZM93.2558 36.876C93.9651 36.876 94.4878 36.722 94.8238 36.414C95.1598 36.106 95.3278 35.6673 95.3278 35.098C95.3278 33.894 94.6371 33.292 93.2558 33.292H91.3798V36.876H93.2558ZM99.9045 31.64V42H98.6305V31.64H99.9045ZM102.017 38.136C102.017 37.352 102.176 36.666 102.493 36.078C102.81 35.4807 103.244 35.0187 103.795 34.692C104.355 34.3653 104.976 34.202 105.657 34.202C106.329 34.202 106.912 34.3467 107.407 34.636C107.902 34.9253 108.27 35.2893 108.513 35.728V34.328H109.801V42H108.513V40.572C108.261 41.02 107.883 41.3933 107.379 41.692C106.884 41.9813 106.306 42.126 105.643 42.126C104.962 42.126 104.346 41.958 103.795 41.622C103.244 41.286 102.81 40.8147 102.493 40.208C102.176 39.6013 102.017 38.9107 102.017 38.136ZM108.513 38.15C108.513 37.5713 108.396 37.0673 108.163 36.638C107.93 36.2087 107.612 35.882 107.211 35.658C106.819 35.4247 106.385 35.308 105.909 35.308C105.433 35.308 104.999 35.42 104.607 35.644C104.215 35.868 103.902 36.1947 103.669 36.624C103.436 37.0533 103.319 37.5573 103.319 38.136C103.319 38.724 103.436 39.2373 103.669 39.676C103.902 40.1053 104.215 40.4367 104.607 40.67C104.999 40.894 105.433 41.006 105.909 41.006C106.385 41.006 106.819 40.894 107.211 40.67C107.612 40.4367 107.93 40.1053 108.163 39.676C108.396 39.2373 108.513 38.7287 108.513 38.15ZM111.895 38.15C111.895 37.3567 112.054 36.666 112.371 36.078C112.689 35.4807 113.127 35.0187 113.687 34.692C114.257 34.3653 114.905 34.202 115.633 34.202C116.576 34.202 117.351 34.4307 117.957 34.888C118.573 35.3453 118.979 35.98 119.175 36.792H117.803C117.673 36.3253 117.416 35.9567 117.033 35.686C116.66 35.4153 116.193 35.28 115.633 35.28C114.905 35.28 114.317 35.532 113.869 36.036C113.421 36.5307 113.197 37.2353 113.197 38.15C113.197 39.074 113.421 39.788 113.869 40.292C114.317 40.796 114.905 41.048 115.633 41.048C116.193 41.048 116.66 40.9173 117.033 40.656C117.407 40.3947 117.663 40.0213 117.803 39.536H119.175C118.97 40.32 118.559 40.95 117.943 41.426C117.327 41.8927 116.557 42.126 115.633 42.126C114.905 42.126 114.257 41.9627 113.687 41.636C113.127 41.3093 112.689 40.8473 112.371 40.25C112.054 39.6527 111.895 38.9527 111.895 38.15ZM128.293 37.87C128.293 38.1127 128.279 38.3693 128.251 38.64H122.119C122.165 39.396 122.422 39.9887 122.889 40.418C123.365 40.838 123.939 41.048 124.611 41.048C125.161 41.048 125.619 40.922 125.983 40.67C126.356 40.4087 126.617 40.0633 126.767 39.634H128.139C127.933 40.3713 127.523 40.9733 126.907 41.44C126.291 41.8973 125.525 42.126 124.611 42.126C123.883 42.126 123.229 41.9627 122.651 41.636C122.081 41.3093 121.633 40.8473 121.307 40.25C120.98 39.6433 120.817 38.9433 120.817 38.15C120.817 37.3567 120.975 36.6613 121.293 36.064C121.61 35.4667 122.053 35.0093 122.623 34.692C123.201 34.3653 123.864 34.202 124.611 34.202C125.339 34.202 125.983 34.3607 126.543 34.678C127.103 34.9953 127.532 35.434 127.831 35.994C128.139 36.5447 128.293 37.17 128.293 37.87ZM126.977 37.604C126.977 37.1187 126.869 36.7033 126.655 36.358C126.44 36.0033 126.146 35.7373 125.773 35.56C125.409 35.3733 125.003 35.28 124.555 35.28C123.911 35.28 123.36 35.4853 122.903 35.896C122.455 36.3067 122.198 36.876 122.133 37.604H126.977ZM129.986 44.604V44.478C130.947 43.4887 131.675 42.336 132.17 41.02C132.674 39.704 132.926 38.3227 132.926 36.876C132.926 35.392 132.66 33.964 132.128 32.592C131.605 31.2107 130.821 30.03 129.776 29.05V28.924H131.106C132.086 29.8293 132.837 30.982 133.36 32.382C133.892 33.7727 134.158 35.2707 134.158 36.876C134.158 38.444 133.906 39.9047 133.402 41.258C132.907 42.6113 132.212 43.7267 131.316 44.604H129.986Z" fill="black"/>
</svg>
